<?xml version="1.0" encoding="utf-8"?>
<!-- Generator: Adobe Illustrator 16.0.0, SVG Export Plug-In . SVG Version: 6.00 Build 0)  -->
<!DOCTYPE svg PUBLIC "-//W3C//DTD SVG 1.1//EN" "http://www.w3.org/Graphics/SVG/1.1/DTD/svg11.dtd">
<svg version="1.1" id="Layer_1" xmlns="http://www.w3.org/2000/svg" xmlns:xlink="http://www.w3.org/1999/xlink" x="0px" y="0px"
	 width="311.325px" height="174.717px" viewBox="0 0 311.325 174.717" enable-background="new 0 0 311.325 174.717"
	 xml:space="preserve">
<g>
	<defs>
		<rect id="SVGID_5_" x="318.735" y="305.88" width="312.268" height="173.821"/>
	</defs>
	<clipPath id="SVGID_2_">
		<use xlink:href="#SVGID_5_"  overflow="visible"/>
	</clipPath>
	<path clip-path="url(#SVGID_2_)" fill="none" stroke="#FFFFFF" stroke-width="2.4562" stroke-miterlimit="10" d="M713.761,618.69
		c0.682,2.246-0.586,4.621-2.832,5.305s-4.623-0.584-5.305-2.83c-0.684-2.248,0.586-4.623,2.832-5.307
		C710.702,615.176,713.075,616.442,713.761,618.69z M665.885,593.137c0.681,2.246-0.586,4.623-2.833,5.305
		c-2.245,0.684-4.618-0.584-5.305-2.83c-0.682-2.248,0.586-4.621,2.832-5.305C662.827,589.624,665.2,590.891,665.885,593.137z
		 M665.885,593.137l17.896-5.439l19.232,10.264l5.443,17.898 M571.356,503.764c0.758-2.224,3.176-3.412,5.398-2.653
		c2.219,0.759,3.406,3.176,2.648,5.397c-0.758,2.223-3.174,3.41-5.395,2.65C571.786,508.402,570.598,505.986,571.356,503.764z
		 M624.358,538.016c0.76-2.221,3.176-3.41,5.398-2.65c2.221,0.757,3.408,3.173,2.65,5.396c-0.759,2.223-3.174,3.41-5.396,2.652
		C624.788,542.654,623.601,540.238,624.358,538.016z M624.358,538.016l-17.703-6.039l-9.545-19.428l-17.707-6.042 M743.31,497.292
		c-0.158,2.342-2.189,4.112-4.529,3.954c-2.344-0.161-4.113-2.187-3.955-4.532c0.16-2.34,2.188-4.112,4.531-3.951
		C741.7,492.922,743.468,494.951,743.31,497.292z M683.263,477.868c-0.16,2.342-2.189,4.112-4.533,3.953
		c-2.34-0.159-4.109-2.188-3.951-4.531c0.16-2.341,2.189-4.11,4.531-3.952C681.651,473.497,683.421,475.527,683.263,477.868z
		 M683.263,477.868l18.668,1.27l14.23,16.308l18.666,1.269 M554.64,544.539c0.217-2.337-1.5-4.408-3.842-4.625
		c-2.336-0.217-4.406,1.503-4.624,3.84c-0.216,2.338,1.503,4.409,3.841,4.627C552.353,548.598,554.425,546.876,554.64,544.539z
		 M493.677,538.887c0.219-2.338-1.501-4.408-3.841-4.626c-2.337-0.216-4.408,1.501-4.627,3.841
		c-0.214,2.338,1.507,4.408,3.842,4.626C491.392,542.943,493.462,541.225,493.677,538.887z M493.677,538.887l52.497,4.867
		 M223.059,357.7c1.029,2.11,3.575,2.985,5.685,1.955c2.111-1.03,2.986-3.576,1.955-5.685c-1.029-2.111-3.575-2.985-5.685-1.957
		C222.902,353.045,222.028,355.59,223.059,357.7z M271.356,317.082c1.031,2.109,3.576,2.985,5.688,1.955
		c2.109-1.03,2.984-3.576,1.953-5.686c-1.029-2.111-3.575-2.985-5.684-1.955C271.202,312.426,270.326,314.971,271.356,317.082z
		 M271.356,317.082l-16.811,8.208l-7.035,20.471l-16.813,8.208 M517.544,506.075c-1.107-2.069-3.686-2.847-5.754-1.738
		c-2.072,1.109-2.848,3.687-1.74,5.755c1.111,2.071,3.688,2.849,5.758,1.738C517.876,510.721,518.654,508.146,517.544,506.075z
		 M553.912,460.532c-1.108-2.07-3.685-2.848-5.755-1.739c-2.068,1.11-2.847,3.688-1.736,5.755c1.109,2.069,3.684,2.848,5.754,1.739
		C554.245,465.178,555.022,462.601,553.912,460.532z M517.544,506.075l23.234-12.454l8.159-27.011 M222.491,154.652
		c0.221,2.338,2.297,4.053,4.633,3.831c2.338-0.222,4.053-2.296,3.83-4.634c-0.221-2.337-2.296-4.053-4.633-3.831
		C223.983,150.24,222.269,152.315,222.491,154.652z M222.491,154.652l-18.625,1.769l-13.791,16.684l-18.622,1.768 M287.84,128.157
		c-1.681,1.641-1.712,4.333-0.071,6.013c1.639,1.679,4.332,1.712,6.012,0.071c1.68-1.642,1.713-4.333,0.072-6.013
		C292.211,126.548,289.521,126.516,287.84,128.157z M233.985,105.873c-1.682,1.641-1.713,4.332-0.071,6.01
		c1.64,1.68,4.333,1.714,6.013,0.073c1.679-1.642,1.713-4.333,0.072-6.013C238.358,104.262,235.665,104.229,233.985,105.873z
		 M287.84,128.157l-18.419-18.859l-28.215-0.335 M358.045,508.821c1.827,1.476,4.502,1.189,5.978-0.638
		c1.475-1.83,1.188-4.503-0.637-5.978c-1.83-1.476-4.506-1.189-5.98,0.638C355.931,504.668,356.217,507.348,358.045,508.821z
		 M384.579,451.563c1.826,1.476,4.506,1.189,5.979-0.639c1.477-1.827,1.189-4.502-0.639-5.977c-1.827-1.476-4.504-1.189-5.979,0.637
		C382.468,447.412,382.753,450.088,384.579,451.563z M384.579,451.563l-11.748,14.558l2.301,21.525l-11.75,14.558 M597.396,439.042
		c2.225-0.756,3.412-3.172,2.654-5.393c-0.756-2.223-3.17-3.412-5.395-2.654c-2.223,0.755-3.41,3.171-2.652,5.395
		C592.759,438.613,595.173,439.801,597.396,439.042z M636.397,482.355c2.225-0.759,3.412-3.173,2.654-5.395
		c-0.756-2.223-3.173-3.413-5.396-2.654c-2.222,0.756-3.411,3.17-2.653,5.395C631.76,481.924,634.177,483.113,636.397,482.355z
		 M597.396,439.042l8.499,24.954l25.316,12.456 M394.204,545.176c2.156-0.928,3.154-3.426,2.229-5.586
		c-0.928-2.154-3.428-3.152-5.586-2.226c-2.158,0.925-3.155,3.427-2.229,5.583C389.544,545.105,392.046,546.104,394.204,545.176z
		 M406.284,573.303c2.158-0.928,3.156-3.428,2.229-5.584c-0.926-2.158-3.428-3.156-5.584-2.229
		c-2.158,0.928-3.155,3.426-2.229,5.584C401.628,573.231,404.126,574.229,406.284,573.303z M394.204,545.176l8.727,20.315
		 M387.84,381.293c1.964,1.285,4.603,0.735,5.888-1.229c1.287-1.964,0.736-4.598-1.229-5.885c-1.963-1.286-4.598-0.737-5.885,1.227
		C385.327,377.369,385.876,380.005,387.84,381.293z M371.067,406.9c1.965,1.286,4.6,0.737,5.887-1.227
		c1.285-1.965,0.736-4.6-1.227-5.887c-1.966-1.287-4.601-0.736-5.889,1.227C368.555,402.978,369.103,405.613,371.067,406.9z
		 M387.84,381.293l-12.112,18.493 M370.501,335.845c1.89,1.395,4.551,0.992,5.945-0.897c1.395-1.891,0.992-4.551-0.898-5.946
		c-1.891-1.394-4.552-0.992-5.945,0.898C368.21,331.789,368.611,334.45,370.501,335.845z M364.038,293.038
		c1.89,1.396,4.553,0.992,5.945-0.897c1.395-1.891,0.992-4.551-0.898-5.944c-1.889-1.396-4.551-0.993-5.945,0.896
		C361.747,288.983,362.149,291.643,364.038,293.038z M369.983,292.141l21.213,15.649l-15.648,21.212 M241.771,267.421
		c-1.596,1.721-1.494,4.412,0.229,6.007c1.722,1.596,4.412,1.493,6.006-0.229c1.598-1.723,1.496-4.413-0.227-6.01
		C246.055,265.594,243.366,265.698,241.771,267.421z M241.771,267.421L203.1,231.586 M394.325,211.875
		c0.068,2.346,2.027,4.193,4.374,4.125c2.347-0.068,4.194-2.026,4.126-4.373c-0.068-2.348-2.027-4.194-4.373-4.126
		C396.104,207.568,394.257,209.526,394.325,211.875z M455.524,210.089c0.066,2.346,2.025,4.195,4.372,4.126
		c2.347-0.068,4.194-2.027,4.126-4.375c-0.066-2.348-2.027-4.194-4.373-4.126C457.3,205.783,455.455,207.742,455.524,210.089z
		 M455.524,210.089l-52.7,1.538 M305.615,413.417c1.513,1.795,4.196,2.024,5.99,0.514c1.796-1.514,2.027-4.196,0.513-5.992
		c-1.512-1.795-4.193-2.025-5.99-0.512C304.333,408.939,304.103,411.622,305.615,413.417z M342.579,362.268
		c1.512,1.796,4.196,2.024,5.989,0.511c1.796-1.512,2.026-4.194,0.513-5.991c-1.514-1.795-4.193-2.024-5.991-0.511
		C341.295,357.789,341.063,360.47,342.579,362.268z M342.579,362.268l-14.307,12.053l-1.846,21.566l-14.309,12.052 M459.104,285.597
		c-1.873,1.415-2.245,4.082-0.83,5.956c1.416,1.873,4.083,2.244,5.957,0.829c1.874-1.417,2.242-4.082,0.828-5.955
		C463.645,284.552,460.979,284.18,459.104,285.597z M408.491,256.696c-1.873,1.415-2.245,4.082-0.83,5.956
		c1.416,1.873,4.082,2.244,5.956,0.829c1.874-1.415,2.245-4.083,0.829-5.957C413.031,255.651,410.364,255.28,408.491,256.696z
		 M459.104,285.597l-15.891-21.032l-27.949-3.891 M289.517,288.891c-0.225,2.337,1.488,4.415,3.824,4.64
		c2.338,0.226,4.416-1.487,4.641-3.823c0.225-2.338-1.486-4.416-3.824-4.641S289.743,286.554,289.517,288.891z M331.398,254.384
		c-0.226,2.337,1.485,4.414,3.823,4.64s4.416-1.486,4.641-3.823c0.227-2.336-1.484-4.415-3.824-4.641
		C333.701,250.334,331.624,252.045,331.398,254.384z M331.398,254.384l-18.62-1.798l-16.822,13.86l-1.799,18.622 M301.442,501.425
		c1.104,2.072,3.682,2.855,5.751,1.751c2.073-1.104,2.856-3.681,1.749-5.753c-1.104-2.072-3.68-2.856-5.75-1.75
		C301.118,496.779,300.337,499.354,301.442,501.425z M317.237,449.509c1.104,2.072,3.68,2.856,5.752,1.75
		c2.072-1.105,2.855-3.681,1.749-5.75c-1.104-2.074-3.681-2.858-5.751-1.75C316.913,444.861,316.132,447.439,317.237,449.509z
		 M317.237,449.509l-16.508,8.806l-6.344,20.851l8.807,16.507 M227.7,395.776c-0.74-2.23-3.146-3.437-5.375-2.698
		c-2.229,0.739-3.437,3.146-2.698,5.374c0.739,2.229,3.146,3.437,5.376,2.698C227.23,400.413,228.438,398.006,227.7,395.776z
		 M203.348,444.271l17.757-5.884l9.781-19.479l-5.886-17.757 M312.778,177.689c2.145,0.954,4.658-0.01,5.613-2.156
		c0.953-2.144-0.01-4.657-2.157-5.613c-2.144-0.954-4.659,0.011-5.612,2.156C309.667,174.222,310.632,176.735,312.778,177.689z
		 M300.333,205.656c2.145,0.956,4.656-0.01,5.611-2.156c0.955-2.144-0.01-4.658-2.154-5.612c-2.146-0.955-4.659,0.01-5.615,2.157
		C297.222,202.188,298.186,204.702,300.333,205.656z M312.778,177.689l-8.99,20.199 M263.442,392.652
		c2.334-0.257,4.02-2.356,3.764-4.689c-0.257-2.334-2.355-4.02-4.689-3.764c-2.333,0.255-4.02,2.355-3.762,4.688
		C259.009,391.222,261.108,392.908,263.442,392.652z M266.776,423.082c2.334-0.255,4.018-2.354,3.762-4.688
		c-0.255-2.334-2.354-4.019-4.688-3.763c-2.336,0.256-4.021,2.354-3.764,4.689C262.343,421.653,264.442,423.338,266.776,423.082z
		 M263.442,392.652l2.408,21.978 M634.16,183.181c-1.524,1.786-4.206,1.996-5.991,0.47c-1.787-1.525-1.998-4.208-0.471-5.993
		c1.527-1.785,4.207-1.996,5.994-0.471C635.478,178.712,635.687,181.396,634.16,183.181z M630.78,140.021
		c-1.525,1.787-4.21,1.996-5.995,0.471c-1.786-1.526-1.995-4.21-0.468-5.996c1.525-1.784,4.206-1.993,5.991-0.468
		C632.094,135.553,632.308,138.236,630.78,140.021z M624.785,140.491l-17.126,20.039l20.037,17.127 M367.659,240.634
		c-2.139,0.969-4.658,0.017-5.624-2.124c-0.967-2.14-0.019-4.658,2.122-5.625c2.142-0.966,4.658-0.016,5.627,2.124
		C370.749,237.148,369.8,239.667,367.659,240.634z M356.394,178.541c-2.139,0.966-4.659,0.015-5.626-2.125
		c-0.967-2.14-0.017-4.658,2.125-5.625c2.14-0.966,4.655-0.016,5.624,2.125C359.483,175.054,358.532,177.572,356.394,178.541z
		 M356.394,178.541l7.703,17.045l-7.643,20.252l7.705,17.046 M378.395,141.599c0.683,2.246-0.586,4.621-2.833,5.304
		c-2.246,0.683-4.62-0.585-5.303-2.831c-0.684-2.247,0.583-4.622,2.831-5.306C375.336,138.084,377.711,139.352,378.395,141.599z
		 M330.521,116.047c0.683,2.246-0.584,4.621-2.83,5.304c-2.248,0.682-4.621-0.585-5.305-2.832c-0.684-2.248,0.584-4.622,2.832-5.305
		C327.465,112.533,329.837,113.799,330.521,116.047z M330.521,116.047l17.898-5.442l19.229,10.266l5.441,17.897 M630.276,429.624
		c-1.773,1.535-4.46,1.341-5.996-0.436c-1.535-1.777-1.342-4.461,0.436-5.997c1.779-1.536,4.459-1.341,5.996,0.435
		C632.249,425.403,632.052,428.089,630.276,429.624z M634.21,375.501c-1.775,1.536-4.461,1.341-5.998-0.435
		c-1.535-1.776-1.34-4.461,0.438-5.997c1.777-1.536,4.461-1.34,5.996,0.435C636.181,371.281,635.983,373.967,634.21,375.501z
		 M634.21,375.501l12.234,14.153l-1.579,21.738l-14.153,12.235 M709.392,138.607c2.213,0.786,3.369,3.218,2.582,5.429
		c-0.789,2.214-3.217,3.37-5.432,2.583c-2.211-0.787-3.367-3.219-2.582-5.431C704.747,138.975,707.179,137.82,709.392,138.607z
		 M674.456,191.164c2.211,0.787,3.367,3.218,2.582,5.431c-0.787,2.213-3.221,3.369-5.432,2.582c-2.211-0.785-3.369-3.218-2.58-5.429
		C669.812,191.534,672.243,190.378,674.456,191.164z M674.456,191.164l6.266-17.625l19.553-9.295l6.268-17.624 M579.245,204.758
		c0.771-2.217,3.193-3.388,5.412-2.617c2.217,0.771,3.39,3.195,2.617,5.413c-0.772,2.217-3.197,3.39-5.413,2.617
		C579.644,209.401,578.472,206.977,579.245,204.758z M632.029,239.346c0.771-2.218,3.196-3.389,5.414-2.618
		c2.218,0.772,3.39,3.196,2.618,5.414s-3.196,3.39-5.416,2.617C632.431,243.987,631.258,241.563,632.029,239.346z M632.029,239.346
		l-17.665-6.152l-9.424-19.488l-17.666-6.15 M700.624,238.81c-2.338,0.222-4.412-1.495-4.633-3.831
		c-0.223-2.341,1.492-4.415,3.832-4.636c2.336-0.222,4.412,1.495,4.631,3.832C704.679,236.512,702.962,238.587,700.624,238.81z
		 M682.823,294.307c-2.34,0.223-4.412-1.493-4.635-3.831c-0.223-2.337,1.492-4.413,3.832-4.633c2.334-0.222,4.411,1.492,4.633,3.83
		C686.877,292.011,685.16,294.084,682.823,294.307z M700.624,238.81l2.488,26.241l-17.983,21.746 M624.3,620.872
		c2.199-0.818,4.646,0.299,5.467,2.498c0.821,2.203-0.299,4.65-2.498,5.471c-2.201,0.82-4.65-0.299-5.47-2.502
		C620.98,624.141,622.099,621.69,624.3,620.872z M613.612,592.186c2.199-0.82,4.648,0.299,5.469,2.5
		c0.819,2.201-0.301,4.648-2.499,5.469c-2.202,0.82-4.65-0.299-5.471-2.502C610.293,595.454,611.41,593.004,613.612,592.186z
		 M624.3,620.872l-7.72-20.717 M565.708,271.909c2.202-0.82,4.649,0.298,5.469,2.498c0.818,2.204-0.299,4.651-2.5,5.471
		c-2.198,0.818-4.648-0.302-5.467-2.502C562.39,275.178,563.507,272.729,565.708,271.909z M555.021,243.224
		c2.201-0.821,4.649,0.298,5.468,2.499c0.821,2.203-0.297,4.65-2.497,5.47c-2.201,0.818-4.65-0.302-5.469-2.502
		C551.702,246.492,552.821,244.044,555.021,243.224z M565.708,271.909l-7.717-20.717 M554.033,318.864
		c1.538-1.774,4.223-1.968,5.999-0.432c1.775,1.538,1.967,4.223,0.429,5.998c-1.536,1.775-4.223,1.969-5.997,0.432
		C552.688,323.324,552.497,320.638,554.033,318.864z M590.298,370.512c1.537-1.775,4.223-1.968,5.998-0.432s1.969,4.223,0.432,5.997
		c-1.538,1.776-4.223,1.969-5.998,0.431C588.956,374.972,588.761,372.287,590.298,370.512z M590.298,370.512l-14.143-12.245
		l-1.551-21.592l-14.144-12.245 M415.157,476.765c1.539-1.775,4.222-1.968,5.998-0.432c1.775,1.538,1.968,4.223,0.43,5.997
		c-1.536,1.776-4.223,1.969-5.996,0.432C413.813,481.225,413.62,478.539,415.157,476.765z M451.423,528.413
		c1.535-1.776,4.223-1.969,5.996-0.432c1.775,1.538,1.971,4.223,0.432,5.998c-1.538,1.776-4.221,1.969-5.996,0.431
		C450.077,532.873,449.884,530.188,451.423,528.413z M451.423,528.413l-14.143-12.246l-1.553-21.591l-14.143-12.245 M478.73,236.167
		c0-2.349,1.905-4.252,4.251-4.252c2.349,0,4.252,1.904,4.252,4.252s-1.903,4.251-4.252,4.251
		C480.636,240.418,478.73,238.516,478.73,236.167z M517.102,274.537c0-2.347,1.905-4.251,4.253-4.251s4.252,1.904,4.252,4.251
		c0,2.349-1.904,4.252-4.252,4.252S517.102,276.886,517.102,274.537z M517.102,274.537h-18.706l-15.412-15.412v-18.708
		 M498.081,317.899c2.18-0.874,4.654,0.186,5.528,2.364c0.873,2.181-0.187,4.656-2.366,5.53c-2.18,0.872-4.656-0.188-5.527-2.368
		C494.843,321.247,495.901,318.772,498.081,317.899z M486.698,289.482c2.18-0.873,4.656,0.185,5.527,2.364
		c0.875,2.181-0.184,4.657-2.365,5.53c-2.18,0.873-4.654-0.187-5.527-2.366C483.46,292.83,484.521,290.355,486.698,289.482z
		 M498.081,317.899l-8.221-20.524 M521.402,209.367c-1.524,1.785-4.208,1.997-5.993,0.472c-1.785-1.526-1.996-4.211-0.471-5.995
		c1.525-1.785,4.209-1.997,5.995-0.471C522.72,204.898,522.929,207.583,521.402,209.367z M518.021,166.209
		c-1.523,1.785-4.209,1.996-5.992,0.47c-1.787-1.526-1.997-4.21-0.47-5.994c1.524-1.785,4.208-1.995,5.993-0.47
		S519.547,164.424,518.021,166.209z M512.028,166.679l-17.127,20.04l20.037,17.125 M565.364,164.294
		c-2.219-0.767-3.395-3.189-2.626-5.407c0.769-2.219,3.191-3.396,5.409-2.626c2.218,0.767,3.393,3.189,2.627,5.409
		C570.004,163.889,567.583,165.064,565.364,164.294z M585.399,106.443c-2.218-0.77-3.395-3.19-2.625-5.409s3.189-3.396,5.408-2.626
		c2.218,0.769,3.396,3.19,2.626,5.408C590.04,106.036,587.619,107.211,585.399,106.443z M585.399,106.443l-17.252,49.817
		 M656.695,341.784c0-2.349,1.906-4.252,4.251-4.252c2.35,0,4.252,1.904,4.252,4.252c0,2.348-1.902,4.252-4.252,4.252
		C658.602,346.036,656.695,344.132,656.695,341.784z M717.923,341.784c0-2.349,1.902-4.252,4.25-4.252
		c2.35,0,4.256,1.904,4.256,4.252c0,2.348-1.906,4.252-4.256,4.252C719.825,346.036,717.923,344.132,717.923,341.784z
		 M717.923,341.784h-52.725 M447.487,104.397c0-2.348,1.904-4.251,4.252-4.251s4.251,1.903,4.251,4.251s-1.903,4.252-4.251,4.252
		S447.487,106.745,447.487,104.397z M447.487,104.397H428.78l-15.307-15.306h-18.707 M511.617,118.794
		c-1.826-1.476-2.114-4.151-0.638-5.98c1.473-1.827,4.149-2.113,5.978-0.641c1.829,1.476,2.115,4.152,0.64,5.98
		C516.122,119.98,513.444,120.267,511.617,118.794z M460.111,146.07c-1.827-1.474-2.114-4.15-0.64-5.977
		c1.476-1.827,4.15-2.115,5.979-0.64c1.83,1.475,2.115,4.151,0.641,5.979C464.614,147.259,461.939,147.545,460.111,146.07z
		 M511.617,118.794l-16.55,20.516l-28.059,3 M685.355,97.869l-15.584,10.35l-21.364-4.313l-10.351-15.582 M429.394,168.228
		c1.806-1.5,4.486-1.253,5.986,0.555c1.502,1.806,1.252,4.486-0.554,5.987c-1.806,1.5-4.487,1.25-5.988-0.555
		C427.339,172.409,427.587,169.728,429.394,168.228z M409.835,144.678c1.807-1.499,4.486-1.252,5.985,0.556
		c1.502,1.805,1.253,4.486-0.552,5.985c-1.809,1.501-4.488,1.253-5.99-0.553C407.78,148.859,408.028,146.178,409.835,144.678z
		 M429.394,168.228l-14.125-17.007 M674.399,784.188c2.205,0.811,4.645-0.322,5.457-2.525c0.809-2.207-0.324-4.648-2.525-5.459
		c-2.207-0.809-4.648,0.324-5.457,2.527C671.063,780.938,672.194,783.377,674.399,784.188z M656.21,744.901
		c2.203,0.813,4.648-0.322,5.457-2.525c0.811-2.205-0.322-4.646-2.526-5.455s-4.646,0.322-5.456,2.525
		C652.876,741.651,654.007,744.094,656.21,744.901z M661.667,742.375l24.745,9.084l-9.083,24.744 M634.427,673.838
		c0.736,2.23,3.139,3.439,5.369,2.703s3.44-3.139,2.705-5.371c-0.734-2.23-3.141-3.439-5.371-2.701
		C634.901,669.204,633.69,671.61,634.427,673.838z M692.565,654.641c0.734,2.227,3.141,3.438,5.369,2.701
		c2.229-0.732,3.441-3.141,2.703-5.369c-0.734-2.23-3.141-3.441-5.367-2.703C693.04,650.006,691.827,652.409,692.565,654.641z
		 M692.565,654.641l-50.064,16.529 M732.688,716.801c-1.404,1.885-1.014,4.549,0.871,5.951c1.883,1.402,4.545,1.012,5.947-0.871
		c1.404-1.885,1.014-4.549-0.869-5.951C736.753,714.528,734.089,714.917,732.688,716.801z M676.003,703.227
		c-1.402,1.883-1.012,4.549,0.871,5.949c1.885,1.402,4.549,1.012,5.951-0.871s1.01-4.547-0.873-5.949
		C680.067,700.954,677.407,701.342,676.003,703.227z M732.688,716.801l-21.146-15.742l-27.922,4.09 M576.554,780.188
		c0.435,2.307,2.66,3.822,4.969,3.383c2.307-0.436,3.822-2.66,3.385-4.965c-0.439-2.309-2.665-3.824-4.971-3.387
		C577.629,775.657,576.114,777.883,576.554,780.188z M607.097,735.336c0.438,2.309,2.664,3.822,4.971,3.385
		c2.307-0.439,3.822-2.662,3.385-4.967c-0.438-2.311-2.664-3.826-4.971-3.387C608.175,730.805,606.659,733.028,607.097,735.336z
		 M607.097,735.336l-18.379,3.49l-12.27,18.01l3.488,18.383 M630.571,800.336c1.643,1.682,4.333,1.715,6.014,0.074
		c1.678-1.641,1.713-4.334,0.07-6.016c-1.64-1.678-4.332-1.713-6.013-0.07C628.964,795.967,628.932,798.657,630.571,800.336z
		 M576.54,583.942c-0.006,2.348,1.893,4.254,4.243,4.26c2.347,0.004,4.255-1.896,4.26-4.242c0.005-2.35-1.896-4.256-4.243-4.26
		C578.452,579.694,576.544,581.594,576.54,583.942z M522.923,606.793c-0.006,2.348,1.894,4.256,4.242,4.262
		c2.35,0.004,4.258-1.895,4.262-4.244c0.004-2.348-1.895-4.258-4.244-4.262C524.835,602.545,522.927,604.446,522.923,606.793z
		 M576.54,583.942l-26.361-0.053l-19.991,19.912 M354.404,622.604c2.231-0.721,4.63,0.506,5.353,2.74
		c0.721,2.234-0.504,4.631-2.739,5.352s-4.632-0.504-5.353-2.738C350.942,625.725,352.171,623.325,354.404,622.604z
		 M334.686,661.145c2.235-0.723,4.632,0.504,5.354,2.74c0.722,2.232-0.505,4.631-2.739,5.354c-2.234,0.721-4.632-0.508-5.353-2.74
		C331.226,664.266,332.452,661.868,334.686,661.145z M340.039,663.885l25.083-8.105l-8.104-25.084 M456.394,582.151
		c0.545-2.283,2.84-3.693,5.123-3.148c2.283,0.547,3.693,2.842,3.146,5.125c-0.545,2.283-2.84,3.693-5.123,3.148
		C457.257,586.729,455.847,584.436,456.394,582.151z M479.052,619.042c0.547-2.287,2.84-3.695,5.124-3.146
		c2.283,0.543,3.692,2.836,3.145,5.121c-0.544,2.283-2.837,3.695-5.122,3.146C479.916,623.618,478.507,621.325,479.052,619.042z
		 M484.175,615.895l6.129-25.641l-25.639-6.127 M593.162,663.708c1.535,1.775,1.34,4.461-0.438,5.996
		c-1.775,1.539-4.462,1.344-5.997-0.436c-1.535-1.777-1.34-4.461,0.438-5.996C588.94,661.739,591.627,661.932,593.162,663.708z
		 M539.041,659.776c1.534,1.775,1.34,4.461-0.438,5.996c-1.776,1.535-4.46,1.34-5.997-0.436c-1.536-1.775-1.34-4.461,0.437-5.996
		C534.819,657.803,537.505,658,539.041,659.776z M539.041,659.776l14.151-12.234l21.736,1.58l12.236,14.15 M420.374,734.192
		c-2.166,0.906-4.656-0.115-5.561-2.285c-0.904-2.168,0.119-4.656,2.286-5.561c2.167-0.906,4.656,0.121,5.562,2.285
		C423.563,730.799,422.541,733.288,420.374,734.192z M410.919,671.795c-2.166,0.906-4.656-0.117-5.559-2.283
		c-0.906-2.168,0.118-4.658,2.285-5.564c2.164-0.902,4.655,0.121,5.562,2.287C414.11,668.403,413.087,670.891,410.919,671.795z
		 M410.919,671.795l7.205,17.266l-8.23,20.02l7.206,17.266 M402.526,604.993c-0.656,2.252-3.016,3.549-5.271,2.891
		c-2.254-0.652-3.55-3.016-2.892-5.27c0.654-2.256,3.016-3.551,5.27-2.893C401.889,600.377,403.185,602.739,402.526,604.993z
		 M447.538,642.02c-0.658,2.252-3.018,3.549-5.271,2.893c-2.256-0.656-3.551-3.018-2.893-5.271c0.654-2.254,3.016-3.549,5.271-2.893
		S448.192,639.766,447.538,642.02z M402.526,604.993l25.311,7.373l13.572,24.736 M478.239,668.879
		c-1.986-1.256-2.573-3.883-1.317-5.867c1.257-1.982,3.884-2.57,5.868-1.313c1.981,1.256,2.57,3.883,1.314,5.865
		C482.846,669.549,480.22,670.137,478.239,668.879z M461.851,694.741c-1.982-1.26-2.57-3.885-1.314-5.867
		c1.258-1.984,3.885-2.574,5.867-1.318c1.982,1.258,2.572,3.885,1.314,5.869C466.46,695.405,463.833,695.997,461.851,694.741z
		 M478.239,668.879l-11.836,18.676 M502.417,722.118c-1.183-2.031-0.494-4.635,1.535-5.816c2.03-1.18,4.633-0.492,5.814,1.539
		c1.18,2.025,0.492,4.629-1.535,5.813C506.201,724.833,503.597,724.145,502.417,722.118z M563.03,704.551
		c-1.184-2.031-0.49-4.633,1.539-5.816c2.029-1.18,4.631-0.492,5.813,1.539c1.182,2.029,0.492,4.633-1.537,5.813
		C566.817,707.266,564.214,706.579,563.03,704.551z M563.03,704.551l-16.168,9.41l-20.928-5.535l-16.168,9.414 M426.727,783.321
		c-2.347,0-4.252-1.902-4.252-4.256c0-2.344,1.905-4.25,4.252-4.25s4.251,1.906,4.251,4.25
		C430.978,781.418,429.073,783.321,426.727,783.321z M465.097,744.95c-2.349,0-4.252-1.904-4.252-4.254
		c0-2.348,1.903-4.25,4.252-4.25s4.252,1.902,4.252,4.25C469.349,743.045,467.445,744.95,465.097,744.95z M465.097,744.95v18.705
		l-15.411,15.41h-18.708 M525.089,769.708c-0.874-2.178,0.187-4.654,2.364-5.527c2.181-0.873,4.657,0.188,5.529,2.367
		s-0.187,4.654-2.366,5.527C528.437,772.946,525.962,771.889,525.089,769.708z M496.672,781.088
		c-0.874-2.176,0.187-4.652,2.366-5.525s4.652,0.188,5.527,2.365c0.872,2.18-0.188,4.656-2.365,5.527
		C500.02,784.329,497.546,783.27,496.672,781.088z M525.089,769.708l-20.524,8.221 M392.56,755.385
		c1.782,1.527,1.995,4.209,0.47,5.996c-1.528,1.785-4.212,1.994-5.994,0.469c-1.786-1.529-1.997-4.209-0.472-5.994
		C388.089,754.069,390.772,753.86,392.56,755.385z M349.399,758.766c1.785,1.529,1.994,4.209,0.469,5.996
		c-1.525,1.785-4.209,1.994-5.994,0.471c-1.785-1.525-1.996-4.209-0.469-5.994C344.931,757.45,347.614,757.243,349.399,758.766z
		 M349.868,764.762l20.039,17.125l17.125-20.037 M300.897,530.75c-0.656,2.252-3.016,3.55-5.271,2.891
		c-2.253-0.655-3.549-3.016-2.891-5.271c0.655-2.253,3.016-3.549,5.271-2.893C300.261,526.134,301.554,528.497,300.897,530.75z
		 M345.908,567.778c-0.656,2.252-3.017,3.549-5.271,2.891c-2.255-0.654-3.551-3.016-2.893-5.27c0.656-2.256,3.016-3.551,5.271-2.895
		C345.271,563.163,346.565,565.522,345.908,567.778z M300.897,530.75l25.312,7.374l13.571,24.736 M262.807,794.11
		c1.06,2.094,0.22,4.652-1.875,5.709c-2.095,1.061-4.651,0.225-5.714-1.873c-1.059-2.096-0.219-4.652,1.877-5.711
		C259.188,791.172,261.749,792.01,262.807,794.11z M221.674,780.608c1.061,2.094,0.22,4.652-1.874,5.713
		c-2.096,1.059-4.652,0.219-5.713-1.877c-1.061-2.094-0.221-4.652,1.875-5.713S220.614,778.512,221.674,780.608z M219.8,786.321
		l11.896,23.521l23.521-11.896 M232.042,632.575c-0.268-2.334,1.406-4.443,3.738-4.711c2.334-0.27,4.441,1.406,4.709,3.738
		c0.271,2.33-1.404,4.441-3.736,4.707C234.419,636.581,232.31,634.905,232.042,632.575z M235.78,627.864l-3.016-26.189
		l-26.187,3.018 M362.224,723.709c-0.768,2.217-3.189,3.393-5.41,2.625c-2.217-0.77-3.393-3.191-2.623-5.41
		c0.768-2.219,3.189-3.396,5.408-2.625C361.817,719.069,362.991,721.491,362.224,723.709z M304.371,703.67
		c-0.769,2.223-3.19,3.396-5.408,2.627c-2.22-0.77-3.395-3.189-2.627-5.406c0.771-2.221,3.19-3.396,5.409-2.629
		C303.966,699.03,305.142,701.452,304.371,703.67z M304.371,703.67l49.819,17.254 M313.003,611.471
		c-1.467,1.832-4.144,2.129-5.977,0.66c-1.833-1.465-2.129-4.143-0.66-5.975s4.145-2.129,5.977-0.662
		C314.177,606.961,314.471,609.641,313.003,611.471z M265.216,573.2c-1.467,1.832-4.143,2.129-5.975,0.66
		c-1.834-1.467-2.129-4.145-0.662-5.977c1.469-1.832,4.145-2.127,5.977-0.662C266.39,568.692,266.685,571.368,265.216,573.2z
		 M265.216,573.2l41.15,32.957 M301.981,765.17c-1.475,1.828-4.148,2.115-5.979,0.641c-1.826-1.477-2.111-4.15-0.639-5.98
		c1.475-1.828,4.15-2.111,5.979-0.637C303.171,760.668,303.456,763.346,301.981,765.17z M301.981,765.17l20.518,16.553l3,28.061
		 M265.411,679.018c-1.957,1.301-4.594,0.768-5.895-1.189c-1.299-1.955-0.766-4.596,1.191-5.895
		c1.954-1.299,4.594-0.766,5.894,1.191C267.898,675.081,267.366,677.721,265.411,679.018z M276.146,625.827
		c-1.957,1.299-4.596,0.768-5.895-1.191c-1.299-1.955-0.766-4.594,1.189-5.893s4.596-0.766,5.895,1.188
		C278.634,621.889,278.101,624.528,276.146,625.827z M276.146,625.827l10.352,15.584l-4.313,21.363l-15.582,10.352 M246.316,703.758
		l-2.517,7.229 M253.544,706.276l-2.516,7.225 M260.772,708.793l-2.518,7.227 M233.736,739.897l-2.517,7.229 M240.963,742.415
		l-2.517,7.229 M248.189,744.928l-2.516,7.229"/>
</g>
<g>
	<defs>
		<rect id="SVGID_7_" x="-132.787" y="319.186" width="312.267" height="173.821"/>
	</defs>
	<clipPath id="SVGID_4_">
		<use xlink:href="#SVGID_7_"  overflow="visible"/>
	</clipPath>
	<path clip-path="url(#SVGID_4_)" fill="none" stroke="#FFFFFF" stroke-width="2.4562" stroke-miterlimit="10" d="M262.234,631.995
		c0.683,2.247-0.586,4.622-2.831,5.306c-2.247,0.683-4.623-0.585-5.305-2.831c-0.684-2.247,0.585-4.623,2.832-5.306
		C259.176,628.481,261.55,629.748,262.234,631.995z M214.362,606.443c0.681,2.246-0.586,4.622-2.833,5.304
		c-2.245,0.684-4.618-0.584-5.304-2.83c-0.683-2.247,0.586-4.621,2.831-5.305C211.305,602.93,213.677,604.196,214.362,606.443z
		 M214.362,606.443l17.896-5.44l19.229,10.264l5.443,17.898 M119.833,517.069c0.757-2.224,3.175-3.412,5.398-2.653
		c2.219,0.759,3.407,3.176,2.648,5.397c-0.757,2.223-3.173,3.41-5.395,2.65C120.263,521.708,119.075,519.292,119.833,517.069z
		 M172.836,551.322c0.759-2.221,3.175-3.411,5.397-2.651c2.221,0.757,3.409,3.173,2.65,5.396c-0.758,2.223-3.173,3.41-5.396,2.652
		C173.265,555.96,172.077,553.543,172.836,551.322z M172.836,551.322l-17.704-6.04l-9.544-19.428l-17.708-6.042 M291.783,510.598
		c-0.157,2.342-2.188,4.112-4.528,3.954c-2.345-0.161-4.114-2.187-3.956-4.532c0.16-2.34,2.188-4.112,4.531-3.951
		C290.174,506.228,291.942,508.257,291.783,510.598z M231.739,491.174c-0.159,2.342-2.188,4.112-4.532,3.953
		c-2.341-0.159-4.109-2.188-3.951-4.531c0.159-2.341,2.188-4.11,4.53-3.952C230.129,486.803,231.897,488.833,231.739,491.174z
		 M231.739,491.174l18.665,1.27l14.231,16.308l18.666,1.269 M103.117,557.844c0.216-2.336-1.501-4.408-3.842-4.625
		c-2.337-0.217-4.406,1.503-4.625,3.84c-0.216,2.338,1.503,4.409,3.84,4.627C100.83,561.903,102.902,560.182,103.117,557.844z
		 M42.154,552.192c0.218-2.338-1.501-4.408-3.841-4.626c-2.336-0.216-4.408,1.501-4.627,3.841c-0.214,2.338,1.507,4.408,3.842,4.626
		C39.868,556.25,41.938,554.53,42.154,552.192z M42.154,552.192l52.497,4.868 M-228.464,371.006c1.029,2.11,3.576,2.985,5.685,1.955
		c2.111-1.03,2.986-3.576,1.954-5.685c-1.029-2.111-3.575-2.985-5.684-1.957C-228.621,366.351-229.495,368.896-228.464,371.006z
		 M-180.167,330.387c1.031,2.109,3.577,2.985,5.688,1.955c2.109-1.03,2.984-3.576,1.953-5.686c-1.03-2.111-3.576-2.985-5.684-1.955
		C-180.32,325.731-181.197,328.277-180.167,330.387z M-180.167,330.387l-16.811,8.208l-7.035,20.471l-16.813,8.208
		 M-229.032,167.958c0.221,2.338,2.297,4.053,4.634,3.831c2.338-0.222,4.053-2.296,3.83-4.634c-0.221-2.337-2.296-4.053-4.634-3.831
		C-227.539,163.546-229.254,165.621-229.032,167.958z M-229.032,167.958l-18.625,1.769l-13.791,16.684l-18.622,1.768
		 M-163.683,141.462c-1.681,1.641-1.712,4.333-0.071,6.013c1.639,1.679,4.332,1.712,6.012,0.071
		c1.679-1.642,1.712-4.333,0.072-6.013C-159.312,139.854-162.003,139.822-163.683,141.462z M-217.537,119.178
		c-1.682,1.641-1.713,4.332-0.072,6.01c1.64,1.68,4.333,1.714,6.013,0.073c1.678-1.642,1.712-4.333,0.071-6.013
		C-213.165,117.568-215.857,117.535-217.537,119.178z M-163.683,141.462l-18.419-18.859l-28.214-0.335 M-93.478,522.127
		c1.827,1.476,4.502,1.189,5.978-0.638c1.474-1.83,1.188-4.503-0.638-5.978c-1.83-1.476-4.505-1.189-5.979,0.638
		C-95.593,517.974-95.306,520.653-93.478,522.127z M-66.944,464.868c1.827,1.476,4.505,1.189,5.979-0.639
		c1.476-1.827,1.189-4.502-0.639-5.977c-1.828-1.476-4.504-1.189-5.979,0.637C-69.055,460.717-68.77,463.394-66.944,464.868z
		 M-66.944,464.868l-11.748,14.558l2.3,21.525l-11.749,14.558 M145.873,452.348c2.225-0.756,3.412-3.172,2.654-5.393
		c-0.755-2.223-3.17-3.412-5.395-2.654c-2.223,0.755-3.411,3.171-2.652,5.395C141.235,451.918,143.65,453.106,145.873,452.348z
		 M184.874,495.661c2.225-0.759,3.413-3.173,2.655-5.395c-0.757-2.223-3.173-3.413-5.396-2.654c-2.221,0.756-3.411,3.17-2.654,5.395
		C180.237,495.229,182.653,496.418,184.874,495.661z M145.873,452.348l8.499,24.954l25.316,12.456 M-57.319,558.481
		c2.156-0.927,3.155-3.425,2.229-5.585c-0.928-2.155-3.428-3.153-5.586-2.227c-2.157,0.926-3.155,3.428-2.229,5.583
		C-61.979,558.412-59.478,559.409-57.319,558.481z M-45.238,586.609c2.158-0.928,3.156-3.428,2.229-5.585
		c-0.926-2.157-3.428-3.156-5.585-2.228c-2.157,0.927-3.155,3.425-2.229,5.584C-49.896,586.537-47.396,587.535-45.238,586.609z
		 M-57.319,558.481l8.727,20.316 M-63.683,394.599c1.963,1.285,4.602,0.735,5.888-1.229c1.286-1.964,0.736-4.598-1.229-5.885
		c-1.964-1.286-4.598-0.737-5.885,1.227C-66.195,390.675-65.647,393.311-63.683,394.599z M-80.455,420.206
		c1.964,1.286,4.6,0.737,5.887-1.227c1.285-1.965,0.736-4.6-1.228-5.887c-1.965-1.287-4.6-0.736-5.888,1.227
		C-82.968,416.284-82.42,418.919-80.455,420.206z M-63.683,394.599l-12.113,18.493 M-81.021,349.15
		c1.889,1.395,4.551,0.992,5.944-0.897c1.395-1.891,0.992-4.551-0.897-5.946c-1.891-1.394-4.552-0.992-5.946,0.898
		C-83.313,345.095-82.912,347.755-81.021,349.15z M-87.485,306.344c1.89,1.396,4.553,0.992,5.946-0.897
		c1.395-1.891,0.992-4.551-0.898-5.944c-1.889-1.396-4.551-0.993-5.945,0.896C-89.776,302.289-89.374,304.949-87.485,306.344z
		 M-81.54,305.446l21.212,15.649l-15.647,21.212 M-209.753,280.727c-1.596,1.721-1.493,4.412,0.229,6.007
		c1.722,1.596,4.413,1.493,6.007-0.229c1.598-1.723,1.495-4.413-0.228-6.01C-205.468,278.9-208.157,279.004-209.753,280.727z
		 M-209.753,280.727l-38.67-35.835 M-57.198,225.181c0.069,2.346,2.028,4.193,4.375,4.125c2.347-0.068,4.195-2.026,4.126-4.373
		c-0.069-2.348-2.028-4.194-4.374-4.126C-55.419,220.874-57.267,222.832-57.198,225.181z M4.001,223.395
		c0.067,2.346,2.026,4.195,4.373,4.126c2.347-0.068,4.194-2.027,4.126-4.375c-0.067-2.348-2.027-4.194-4.373-4.126
		C5.777,219.089,3.932,221.047,4.001,223.395z M4.001,223.395l-52.7,1.538 M-145.908,426.723c1.513,1.795,4.196,2.024,5.99,0.514
		c1.796-1.514,2.027-4.196,0.513-5.992c-1.512-1.795-4.194-2.025-5.99-0.512C-147.189,422.245-147.421,424.927-145.908,426.723z
		 M-108.944,375.573c1.511,1.796,4.196,2.024,5.989,0.511c1.795-1.512,2.027-4.194,0.513-5.991
		c-1.514-1.795-4.193-2.024-5.991-0.511C-110.228,371.094-110.459,373.775-108.944,375.573z M-108.944,375.573l-14.307,12.053
		l-1.845,21.566l-14.309,12.052 M7.582,298.902c-1.874,1.415-2.246,4.082-0.83,5.956c1.415,1.873,4.083,2.244,5.957,0.829
		c1.874-1.417,2.243-4.082,0.828-5.955C12.122,297.858,9.456,297.486,7.582,298.902z M-43.032,270.001
		c-1.873,1.415-2.245,4.082-0.829,5.956c1.415,1.873,4.082,2.244,5.956,0.829c1.874-1.415,2.245-4.083,0.829-5.957
		C-38.492,268.957-41.158,268.586-43.032,270.001z M7.582,298.902L-8.31,277.871l-27.949-3.891 M-162.006,302.197
		c-0.225,2.337,1.488,4.415,3.825,4.64c2.337,0.226,4.415-1.487,4.64-3.823c0.225-2.338-1.487-4.416-3.824-4.641
		C-159.704,298.147-161.78,299.859-162.006,302.197z M-120.125,267.689c-0.226,2.337,1.486,4.414,3.823,4.64
		s4.416-1.486,4.641-3.823c0.226-2.336-1.485-4.415-3.825-4.641C-117.822,263.64-119.899,265.351-120.125,267.689z
		 M-120.125,267.689l-18.621-1.798l-16.822,13.86l-1.798,18.622 M-150.08,514.73c1.104,2.072,3.681,2.855,5.75,1.751
		c2.073-1.104,2.856-3.681,1.75-5.753c-1.104-2.072-3.68-2.856-5.751-1.75C-150.404,510.085-151.186,512.66-150.08,514.73z
		 M-134.286,462.815c1.104,2.072,3.68,2.856,5.752,1.75c2.073-1.105,2.856-3.681,1.75-5.75c-1.105-2.074-3.68-2.858-5.75-1.75
		C-134.609,458.167-135.391,460.745-134.286,462.815z M-134.286,462.815l-16.507,8.806l-6.344,20.851l8.806,16.507
		 M-223.823,409.082c-0.739-2.23-3.146-3.437-5.375-2.698c-2.229,0.739-3.437,3.146-2.698,5.374
		c0.739,2.229,3.146,3.437,5.375,2.698C-224.292,413.719-223.085,411.312-223.823,409.082z M-248.175,457.576l17.757-5.884
		l9.781-19.479l-5.886-17.757 M-138.745,190.995c2.146,0.954,4.659-0.01,5.614-2.156c0.953-2.144-0.01-4.657-2.157-5.613
		c-2.144-0.954-4.659,0.011-5.612,2.156C-141.856,187.527-140.891,190.041-138.745,190.995z M-151.189,218.962
		c2.144,0.956,4.656-0.01,5.61-2.156c0.955-2.144-0.01-4.658-2.154-5.612c-2.147-0.955-4.659,0.01-5.616,2.157
		C-154.302,215.494-153.337,218.007-151.189,218.962z M-138.745,190.995l-8.99,20.199 M-188.081,405.958
		c2.334-0.257,4.02-2.356,3.764-4.689c-0.257-2.334-2.355-4.02-4.689-3.764c-2.333,0.255-4.02,2.355-3.763,4.688
		C-192.515,404.528-190.415,406.214-188.081,405.958z M-184.747,436.387c2.334-0.255,4.019-2.354,3.763-4.688
		c-0.255-2.334-2.354-4.019-4.688-3.763c-2.335,0.256-4.021,2.354-3.764,4.689C-189.18,434.958-187.081,436.644-184.747,436.387z
		 M-188.081,405.958l2.408,21.978 M182.637,196.486c-1.524,1.786-4.207,1.996-5.992,0.47c-1.787-1.525-1.997-4.208-0.47-5.993
		c1.527-1.785,4.206-1.996,5.993-0.471C183.954,192.018,184.164,194.701,182.637,196.486z M179.257,153.327
		c-1.525,1.787-4.209,1.996-5.995,0.471c-1.786-1.526-1.995-4.21-0.468-5.996c1.525-1.784,4.207-1.993,5.992-0.468
		C180.571,148.858,180.784,151.542,179.257,153.327z M173.262,153.796l-17.126,20.039l20.038,17.127 M-83.863,253.939
		c-2.14,0.969-4.658,0.017-5.625-2.124c-0.967-2.14-0.018-4.658,2.122-5.625c2.142-0.966,4.659-0.016,5.627,2.124
		C-80.774,250.454-81.723,252.972-83.863,253.939z M-95.13,191.847c-2.139,0.966-4.659,0.015-5.625-2.125
		c-0.967-2.14-0.016-4.658,2.125-5.625c2.14-0.966,4.656-0.016,5.625,2.125C-92.039,188.359-92.99,190.877-95.13,191.847z
		 M-95.13,191.847l7.704,17.045l-7.643,20.252l7.706,17.046 M-73.128,154.904c0.682,2.246-0.586,4.621-2.833,5.304
		c-2.246,0.683-4.621-0.585-5.304-2.831c-0.684-2.247,0.583-4.622,2.832-5.306C-76.187,151.39-73.812,152.657-73.128,154.904z
		 M-121.002,129.353c0.682,2.246-0.585,4.621-2.831,5.304c-2.247,0.682-4.621-0.585-5.304-2.832
		c-0.684-2.248,0.584-4.622,2.832-5.305C-124.058,125.838-121.686,127.104-121.002,129.353z M-121.002,129.353l17.898-5.442
		l19.229,10.266l5.441,17.897 M178.753,442.929c-1.774,1.535-4.46,1.341-5.997-0.436c-1.535-1.777-1.341-4.461,0.436-5.997
		c1.779-1.536,4.46-1.341,5.997,0.435C180.726,438.709,180.529,441.395,178.753,442.929z M182.687,388.807
		c-1.775,1.536-4.461,1.341-5.998-0.435c-1.535-1.776-1.34-4.461,0.438-5.997c1.777-1.536,4.461-1.34,5.997,0.435
		C184.658,384.586,184.461,387.272,182.687,388.807z M182.687,388.807l12.234,14.153l-1.579,21.738l-14.153,12.235 M257.866,151.913
		c2.213,0.786,3.369,3.218,2.581,5.429c-0.788,2.214-3.217,3.37-5.432,2.583c-2.211-0.787-3.367-3.219-2.581-5.431
		C253.221,152.28,255.653,151.125,257.866,151.913z M222.933,204.469c2.212,0.787,3.367,3.218,2.583,5.431
		c-0.788,2.213-3.221,3.369-5.432,2.582c-2.211-0.785-3.369-3.218-2.581-5.429C218.289,204.84,220.72,203.684,222.933,204.469z
		 M222.933,204.469l6.267-17.625l19.549-9.295l6.268-17.624 M127.722,218.064c0.771-2.217,3.194-3.388,5.413-2.617
		c2.216,0.771,3.39,3.195,2.617,5.413c-0.772,2.217-3.196,3.39-5.413,2.617C128.121,222.707,126.949,220.282,127.722,218.064z
		 M180.506,252.651c0.771-2.218,3.196-3.389,5.414-2.618c2.218,0.772,3.39,3.196,2.618,5.414c-0.772,2.218-3.196,3.39-5.416,2.617
		C180.908,257.292,179.735,254.869,180.506,252.651z M180.506,252.651l-17.666-6.152l-9.423-19.488l-17.667-6.15 M249.099,252.115
		c-2.338,0.222-4.413-1.495-4.633-3.831c-0.223-2.341,1.491-4.415,3.832-4.636c2.336-0.222,4.411,1.495,4.631,3.832
		C253.153,249.817,251.436,251.893,249.099,252.115z M231.301,307.612c-2.341,0.223-4.413-1.493-4.636-3.831
		c-0.223-2.337,1.493-4.413,3.832-4.633c2.335-0.222,4.411,1.492,4.633,3.83C235.353,305.316,233.637,307.39,231.301,307.612z
		 M249.099,252.115l2.488,26.241l-17.981,21.746 M172.776,634.177c2.2-0.818,4.647,0.3,5.467,2.499
		c0.822,2.203-0.298,4.65-2.497,5.471c-2.202,0.82-4.65-0.3-5.47-2.502C169.458,637.446,170.576,634.996,172.776,634.177z
		 M162.089,605.492c2.2-0.82,4.649,0.299,5.469,2.499c0.82,2.202-0.3,4.649-2.499,5.47c-2.202,0.819-4.65-0.3-5.471-2.502
		C158.77,608.76,159.887,606.311,162.089,605.492z M172.776,634.177l-7.719-20.716 M114.186,285.215
		c2.202-0.82,4.649,0.298,5.469,2.498c0.818,2.204-0.299,4.651-2.5,5.471c-2.198,0.818-4.648-0.302-5.467-2.502
		C110.867,288.484,111.984,286.035,114.186,285.215z M103.498,256.529c2.2-0.821,4.649,0.298,5.467,2.499
		c0.822,2.203-0.297,4.65-2.497,5.47c-2.202,0.818-4.65-0.302-5.469-2.502C100.18,259.798,101.298,257.35,103.498,256.529z
		 M114.186,285.215l-7.717-20.717 M102.51,332.17c1.539-1.774,4.223-1.968,5.999-0.432c1.775,1.538,1.967,4.223,0.429,5.998
		c-1.537,1.775-4.223,1.969-5.997,0.432C101.166,336.63,100.974,333.944,102.51,332.17z M138.775,383.817
		c1.537-1.775,4.223-1.968,5.997-0.432c1.775,1.537,1.969,4.223,0.433,5.997c-1.539,1.776-4.223,1.969-5.999,0.431
		C137.433,388.277,137.237,385.592,138.775,383.817z M138.775,383.817l-14.143-12.245l-1.551-21.592l-14.143-12.245
		 M-16.366,453.071c1.539-1.775,4.222-1.968,5.999-0.432c1.775,1.538,1.968,4.223,0.43,5.997c-1.537,1.776-4.223,1.969-5.997,0.432
		C-17.71,457.531-17.903,454.845-16.366,453.071z M19.899,504.718c1.536-1.776,4.223-1.969,5.997-0.432
		c1.775,1.538,1.97,4.223,0.432,5.998c-1.538,1.776-4.221,1.969-5.996,0.431C18.555,509.178,18.361,506.493,19.899,504.718z
		 M19.899,504.718L5.757,492.472l-1.552-21.591l-14.143-12.245 M27.208,249.473c0-2.349,1.905-4.252,4.251-4.252
		c2.349,0,4.251,1.904,4.251,4.252s-1.903,4.251-4.251,4.251C29.112,253.724,27.208,251.821,27.208,249.473z M65.579,287.843
		c0-2.347,1.905-4.251,4.253-4.251c2.347,0,4.251,1.904,4.251,4.251c0,2.349-1.905,4.252-4.251,4.252
		C67.483,292.095,65.579,290.191,65.579,287.843z M65.579,287.843H46.873L31.46,272.431v-18.708 M46.559,331.205
		c2.18-0.874,4.654,0.186,5.528,2.364c0.873,2.181-0.187,4.656-2.367,5.53c-2.18,0.872-4.655-0.188-5.527-2.368
		C43.32,334.553,44.379,332.078,46.559,331.205z M35.176,302.788c2.18-0.873,4.655,0.185,5.527,2.364
		c0.874,2.181-0.184,4.657-2.365,5.53c-2.18,0.873-4.654-0.187-5.527-2.366C31.937,306.135,32.997,303.661,35.176,302.788z
		 M46.559,331.205l-8.221-20.524 M69.879,222.673c-1.524,1.785-4.208,1.997-5.993,0.472c-1.786-1.526-1.997-4.211-0.471-5.995
		c1.525-1.785,4.209-1.997,5.995-0.471C71.197,218.204,71.406,220.889,69.879,222.673z M66.498,179.515
		c-1.524,1.785-4.209,1.996-5.993,0.47c-1.787-1.526-1.997-4.21-0.47-5.994c1.525-1.785,4.208-1.995,5.993-0.47
		S68.024,177.729,66.498,179.515z M60.505,179.984l-17.126,20.04l20.037,17.125 M113.842,177.6c-2.22-0.767-3.395-3.189-2.626-5.407
		c0.769-2.219,3.191-3.396,5.409-2.626c2.218,0.767,3.393,3.189,2.626,5.409C118.481,177.195,116.06,178.37,113.842,177.6z
		 M133.876,119.749c-2.218-0.77-3.395-3.19-2.625-5.409c0.769-2.219,3.189-3.396,5.407-2.626c2.218,0.769,3.396,3.19,2.626,5.408
		C138.518,119.342,136.096,120.517,133.876,119.749z M133.876,119.749l-17.252,49.817 M205.172,355.089
		c0-2.349,1.906-4.252,4.251-4.252c2.349,0,4.252,1.904,4.252,4.252c0,2.348-1.903,4.252-4.252,4.252
		C207.079,359.341,205.172,357.438,205.172,355.089z M266.397,355.089c0-2.349,1.902-4.252,4.25-4.252
		c2.35,0,4.255,1.904,4.255,4.252c0,2.348-1.905,4.252-4.255,4.252C268.3,359.341,266.397,357.438,266.397,355.089z
		 M266.397,355.089h-52.722 M-4.036,117.703c0-2.348,1.905-4.251,4.252-4.251c2.348,0,4.251,1.903,4.251,4.251
		s-1.903,4.252-4.251,4.252C-2.131,121.955-4.036,120.051-4.036,117.703z M-4.036,117.703h-18.706l-15.307-15.306h-18.708
		 M60.094,132.1c-1.826-1.476-2.114-4.151-0.637-5.98c1.472-1.827,4.149-2.113,5.977-0.641c1.829,1.476,2.115,4.152,0.64,5.98
		C64.599,133.286,61.921,133.572,60.094,132.1z M8.588,159.375c-1.827-1.474-2.115-4.15-0.639-5.977
		c1.475-1.827,4.15-2.115,5.978-0.64c1.83,1.475,2.115,4.151,0.64,5.979C13.092,160.565,10.417,160.851,8.588,159.375z
		 M60.094,132.1l-16.55,20.516l-28.059,3 M233.832,111.174l-15.583,10.35l-21.365-4.313l-10.35-15.582 M-22.13,181.534
		c1.806-1.5,4.487-1.253,5.987,0.555c1.501,1.806,1.252,4.486-0.554,5.987c-1.806,1.5-4.487,1.25-5.988-0.555
		C-24.185,185.714-23.936,183.033-22.13,181.534z M-41.688,157.983c1.807-1.499,4.487-1.252,5.986,0.556
		c1.502,1.805,1.253,4.486-0.552,5.985c-1.808,1.501-4.488,1.253-5.99-0.553C-43.743,162.165-43.495,159.484-41.688,157.983z
		 M-22.13,181.534l-14.125-17.007 M222.876,797.493c2.205,0.812,4.646-0.322,5.458-2.525c0.809-2.206-0.324-4.647-2.526-5.458
		c-2.207-0.809-4.647,0.324-5.457,2.526C219.54,794.243,220.671,796.683,222.876,797.493z M204.687,758.207
		c2.203,0.812,4.648-0.322,5.458-2.526c0.81-2.205-0.323-4.646-2.526-5.455c-2.205-0.809-4.646,0.322-5.456,2.525
		C201.353,754.957,202.483,757.399,204.687,758.207z M210.144,755.681l24.745,9.085l-9.083,24.744 M182.903,687.144
		c0.736,2.231,3.14,3.44,5.37,2.703c2.229-0.736,3.44-3.139,2.704-5.37c-0.734-2.23-3.14-3.439-5.371-2.702
		C183.378,682.51,182.167,684.916,182.903,687.144z M241.039,667.946c0.735,2.228,3.141,3.438,5.37,2.702
		c2.228-0.733,3.441-3.141,2.702-5.37c-0.734-2.229-3.14-3.44-5.367-2.702C241.514,663.312,240.301,665.715,241.039,667.946z
		 M241.039,667.946l-50.062,16.53 M281.162,730.107c-1.403,1.884-1.013,4.548,0.871,5.951c1.884,1.401,4.546,1.011,5.948-0.872
		c1.403-1.884,1.013-4.548-0.87-5.951C285.227,727.834,282.563,728.222,281.162,730.107z M224.48,716.533
		c-1.402,1.883-1.012,4.548,0.87,5.949c1.886,1.402,4.549,1.012,5.951-0.872c1.403-1.883,1.011-4.546-0.873-5.949
		C228.545,714.26,225.884,714.648,224.48,716.533z M281.162,730.107l-21.146-15.743l-27.92,4.091 M30.162,373.107
		c-1.403,1.884-1.013,4.548,0.871,5.951c1.884,1.401,4.546,1.011,5.948-0.872c1.403-1.884,1.013-4.548-0.87-5.951
		C34.227,370.834,31.563,371.222,30.162,373.107z M-26.52,359.533c-1.402,1.883-1.012,4.548,0.87,5.949
		c1.886,1.402,4.549,1.012,5.951-0.872c1.403-1.883,1.011-4.546-0.873-5.949C-22.455,357.26-25.116,357.648-26.52,359.533z
		 M30.162,373.107L9.017,357.364l-27.92,4.091 M125.031,793.493c0.434,2.308,2.66,3.823,4.968,3.384
		c2.307-0.437,3.822-2.661,3.385-4.966c-0.439-2.309-2.665-3.823-4.97-3.386C126.106,788.962,124.592,791.188,125.031,793.493z
		 M155.574,748.643c0.438,2.308,2.663,3.822,4.97,3.385c2.307-0.439,3.822-2.662,3.385-4.968c-0.437-2.311-2.663-3.825-4.97-3.387
		C156.652,744.11,155.137,746.334,155.574,748.643z M155.574,748.643l-18.379,3.489l-12.271,18.011l3.489,18.382 M179.049,813.643
		c1.642,1.682,4.333,1.714,6.013,0.074c1.679-1.641,1.713-4.334,0.071-6.016c-1.64-1.678-4.333-1.713-6.013-0.071
		C177.441,809.273,177.409,811.963,179.049,813.643z M125.017,597.248c-0.005,2.348,1.894,4.254,4.244,4.259
		c2.347,0.005,4.255-1.896,4.26-4.241c0.005-2.35-1.895-4.257-4.244-4.261C126.929,593,125.021,594.9,125.017,597.248z
		 M71.399,620.1c-0.005,2.347,1.894,4.256,4.243,4.261c2.349,0.004,4.257-1.895,4.262-4.244c0.003-2.347-1.895-4.257-4.245-4.262
		C73.312,615.851,71.404,617.751,71.399,620.1z M125.017,597.248l-26.361-0.054l-19.991,19.912 M-97.119,635.91
		c2.231-0.722,4.629,0.505,5.353,2.739c0.721,2.234-0.503,4.631-2.739,5.353c-2.235,0.721-4.631-0.504-5.353-2.738
		C-100.581,639.03-99.353,636.631-97.119,635.91z M-116.837,674.451c2.236-0.723,4.631,0.504,5.354,2.739
		c0.722,2.233-0.504,4.632-2.739,5.354c-2.234,0.721-4.632-0.507-5.353-2.739C-120.298,677.572-119.071,675.174-116.837,674.451z
		 M-111.484,677.19l25.083-8.104l-8.104-25.084 M4.87,595.457c0.545-2.284,2.841-3.694,5.124-3.148
		c2.283,0.547,3.692,2.841,3.146,5.125c-0.545,2.283-2.839,3.692-5.122,3.147C5.733,600.035,4.324,597.741,4.87,595.457z
		 M27.529,632.347c0.546-2.286,2.839-3.694,5.124-3.146c2.283,0.544,3.692,2.837,3.145,5.121c-0.544,2.284-2.837,3.695-5.122,3.147
		C28.393,636.923,26.984,634.631,27.529,632.347z M32.651,629.2l6.129-25.641l-25.639-6.126 M141.639,677.014
		c1.535,1.775,1.34,4.461-0.438,5.996c-1.775,1.538-4.461,1.343-5.997-0.437c-1.535-1.776-1.34-4.461,0.438-5.995
		C137.418,675.044,140.104,675.238,141.639,677.014z M87.518,673.081c1.534,1.776,1.34,4.461-0.438,5.997
		c-1.777,1.535-4.46,1.34-5.997-0.436c-1.537-1.776-1.34-4.461,0.436-5.997C83.297,671.109,85.981,671.306,87.518,673.081z
		 M87.518,673.081l14.151-12.233l21.736,1.579l12.237,14.151 M90.626,431.67c2.233,0.724,3.457,3.122,2.732,5.356
		c-0.722,2.235-3.121,3.459-5.356,2.732c-2.233-0.724-3.457-3.122-2.73-5.354C85.995,432.172,88.394,430.947,90.626,431.67z
		 M42.294,456.339c2.232,0.725,3.457,3.122,2.732,5.356c-0.725,2.234-3.121,3.457-5.355,2.734c-2.235-0.724-3.458-3.122-2.733-5.356
		C37.662,456.839,40.06,455.617,42.294,456.339z M42.294,456.339l5.769-17.794l19.411-9.908l17.798,5.767 M-31.148,747.497
		c-2.167,0.906-4.657-0.115-5.562-2.284c-0.904-2.168,0.12-4.656,2.287-5.561c2.167-0.907,4.656,0.12,5.561,2.285
		C-27.959,744.104-28.982,746.594-31.148,747.497z M-40.604,685.102c-2.166,0.906-4.657-0.118-5.559-2.284
		c-0.905-2.167,0.119-4.657,2.285-5.563c2.165-0.902,4.656,0.12,5.562,2.287C-37.413,681.708-38.436,684.197-40.604,685.102z
		 M-40.604,685.102l7.206,17.265l-8.23,20.021l7.206,17.266 M-48.997,618.299c-0.656,2.252-3.015,3.549-5.271,2.891
		c-2.254-0.653-3.55-3.017-2.892-5.27c0.655-2.257,3.015-3.551,5.27-2.894C-49.634,613.684-48.339,616.044-48.997,618.299z
		 M-3.984,655.326c-0.659,2.252-3.018,3.548-5.272,2.892c-2.255-0.655-3.55-3.018-2.893-5.271c0.655-2.254,3.017-3.548,5.271-2.893
		C-4.624,650.711-3.33,653.071-3.984,655.326z M-48.997,618.299l25.31,7.372l13.573,24.737 M26.716,682.186
		c-1.985-1.256-2.573-3.883-1.317-5.867c1.257-1.982,3.884-2.571,5.868-1.313c1.982,1.257,2.571,3.883,1.315,5.865
		C31.323,682.855,28.697,683.443,26.716,682.186z M10.328,708.046c-1.982-1.26-2.571-3.885-1.314-5.867
		c1.257-1.983,3.884-2.574,5.867-1.317c1.981,1.258,2.571,3.884,1.314,5.869C14.938,708.711,12.311,709.302,10.328,708.046z
		 M26.716,682.186l-11.835,18.676 M50.895,735.423c-1.183-2.031-0.494-4.635,1.535-5.815c2.03-1.181,4.633-0.492,5.813,1.538
		c1.181,2.026,0.493,4.629-1.534,5.813C54.678,738.139,52.074,737.451,50.895,735.423z M111.508,717.856
		c-1.184-2.031-0.491-4.632,1.538-5.815c2.029-1.18,4.631-0.493,5.813,1.538c1.182,2.029,0.492,4.633-1.537,5.813
		C115.294,720.572,112.691,719.885,111.508,717.856z M111.508,717.856l-16.169,9.41l-20.927-5.534l-16.169,9.413 M-24.796,796.626
		c-2.347,0-4.252-1.902-4.252-4.255c0-2.345,1.905-4.25,4.252-4.25s4.25,1.905,4.25,4.25
		C-20.546,794.724-22.449,796.626-24.796,796.626z M13.574,758.256c-2.349,0-4.252-1.904-4.252-4.255c0-2.347,1.903-4.25,4.252-4.25
		s4.251,1.903,4.251,4.25C17.825,756.352,15.922,758.256,13.574,758.256z M13.574,758.256v18.704l-15.411,15.411h-18.708
		 M73.565,783.014c-0.874-2.179,0.187-4.654,2.365-5.527c2.181-0.874,4.658,0.187,5.529,2.366c0.873,2.18-0.187,4.655-2.367,5.528
		C76.914,786.252,74.438,785.194,73.565,783.014z M45.149,794.395c-0.874-2.177,0.187-4.652,2.366-5.525
		c2.18-0.874,4.653,0.187,5.528,2.364c0.872,2.181-0.188,4.657-2.366,5.528C48.497,797.635,46.023,796.576,45.149,794.395z
		 M73.565,783.014l-20.524,8.22 M-58.964,768.69c1.783,1.528,1.996,4.21,0.47,5.996c-1.528,1.785-4.211,1.994-5.994,0.47
		c-1.787-1.529-1.997-4.209-0.471-5.994C-63.435,767.375-60.75,767.166-58.964,768.69z M-102.124,772.072
		c1.785,1.529,1.995,4.209,0.469,5.996c-1.525,1.784-4.209,1.993-5.993,0.47c-1.786-1.525-1.996-4.209-0.47-5.993
		C-106.593,770.756-103.909,770.548-102.124,772.072z M-101.655,778.068l20.039,17.124l17.126-20.036 M-150.625,544.056
		c-0.657,2.252-3.016,3.55-5.271,2.891c-2.253-0.655-3.55-3.016-2.892-5.271c0.656-2.253,3.017-3.549,5.271-2.893
		C-151.262,539.44-149.969,541.802-150.625,544.056z M-105.615,581.083c-0.656,2.253-3.016,3.549-5.271,2.892
		c-2.254-0.655-3.55-3.017-2.892-5.27c0.656-2.256,3.016-3.551,5.271-2.895C-106.251,576.469-104.957,578.828-105.615,581.083z
		 M-150.625,544.056l25.311,7.374l13.571,24.736 M-188.716,807.415c1.06,2.095,0.22,4.652-1.875,5.71
		c-2.094,1.061-4.652,0.224-5.714-1.874c-1.059-2.096-0.218-4.651,1.877-5.711C-192.335,804.479-189.774,805.316-188.716,807.415z
		 M-229.849,793.914c1.061,2.094,0.219,4.651-1.874,5.712c-2.096,1.06-4.652,0.219-5.712-1.876
		c-1.062-2.094-0.221-4.653,1.875-5.713C-233.465,790.977-230.908,791.817-229.849,793.914z M-231.723,799.626l11.896,23.521
		l23.521-11.896 M-219.48,645.88c-0.268-2.333,1.405-4.443,3.737-4.71c2.334-0.27,4.442,1.405,4.71,3.737
		c0.27,2.331-1.404,4.442-3.736,4.708C-217.104,649.887-219.213,648.211-219.48,645.88z M-215.743,641.17l-3.016-26.189
		l-26.186,3.017 M-89.299,737.016c-0.768,2.216-3.19,3.393-5.41,2.625c-2.218-0.771-3.394-3.191-2.624-5.411
		c0.768-2.219,3.189-3.396,5.408-2.625S-88.531,734.796-89.299,737.016z M-147.152,716.977c-0.769,2.222-3.19,3.396-5.408,2.626
		c-2.219-0.769-3.395-3.189-2.627-5.406c0.77-2.22,3.19-3.396,5.41-2.628C-147.558,712.336-146.382,714.757-147.152,716.977z
		 M-147.152,716.977l49.819,17.253 M-138.52,624.777c-1.468,1.832-4.144,2.128-5.977,0.66c-1.833-1.466-2.129-4.143-0.66-5.976
		c1.468-1.832,4.145-2.128,5.976-0.661C-137.347,620.268-137.052,622.946-138.52,624.777z M-186.307,586.506
		c-1.467,1.832-4.143,2.129-5.976,0.659c-1.833-1.467-2.129-4.144-0.661-5.976c1.468-1.833,4.144-2.128,5.977-0.662
		C-185.133,581.997-184.838,584.673-186.307,586.506z M-186.307,586.506l41.15,32.956 M-149.541,778.477
		c-1.475,1.827-4.149,2.115-5.979,0.641c-1.827-1.477-2.112-4.151-0.639-5.98c1.474-1.828,4.15-2.111,5.979-0.637
		C-148.352,773.974-148.066,776.651-149.541,778.477z M-149.541,778.477l20.517,16.553l3.001,28.06 M-186.111,692.324
		c-1.958,1.3-4.595,0.767-5.895-1.19c-1.299-1.954-0.766-4.595,1.19-5.894c1.955-1.3,4.594-0.766,5.894,1.19
		C-183.625,688.386-184.156,691.026-186.111,692.324z M-175.378,639.133c-1.956,1.299-4.596,0.767-5.895-1.192
		c-1.299-1.954-0.765-4.594,1.189-5.892c1.956-1.3,4.596-0.767,5.896,1.188C-172.889,635.194-173.423,637.833-175.378,639.133z
		 M-175.378,639.133l10.352,15.583l-4.313,21.364l-15.582,10.351 M-205.207,717.064l-2.517,7.229 M-197.979,719.582l-2.516,7.225
		 M-190.751,722.1l-2.517,7.227 M-217.787,753.202l-2.517,7.229 M-210.56,755.72l-2.516,7.229 M-203.333,758.234l-2.516,7.228"/>
</g>
<g>
	<rect fill-rule="evenodd" clip-rule="evenodd" fill="#00C1DE" width="311.325" height="174.717"/>
</g>
<g>
	<defs>
		<rect id="SVGID_65_" width="312.267" height="173.821"/>
	</defs>
	<clipPath id="SVGID_6_">
		<use xlink:href="#SVGID_65_"  overflow="visible"/>
	</clipPath>
	<path clip-path="url(#SVGID_6_)" fill="none" stroke="#FFFFFF" stroke-width="2.4562" stroke-miterlimit="10" d="M395.021,312.81
		c0.683,2.247-0.586,4.622-2.831,5.306c-2.247,0.683-4.623-0.585-5.305-2.831c-0.684-2.247,0.585-4.623,2.832-5.306
		C391.963,309.296,394.337,310.563,395.021,312.81z M347.149,287.258c0.681,2.246-0.586,4.622-2.834,5.304
		c-2.244,0.684-4.617-0.584-5.304-2.83c-0.683-2.247,0.586-4.621,2.831-5.305C344.092,283.744,346.464,285.011,347.149,287.258z
		 M347.149,287.258l17.896-5.44l19.229,10.264l5.443,17.898 M252.62,197.884c0.758-2.224,3.176-3.412,5.398-2.653
		c2.219,0.759,3.407,3.176,2.648,5.397c-0.757,2.223-3.174,3.41-5.395,2.65C253.05,202.522,251.862,200.106,252.62,197.884z
		 M305.623,232.136c0.759-2.221,3.175-3.411,5.397-2.651c2.221,0.757,3.409,3.173,2.65,5.396c-0.758,2.223-3.173,3.41-5.396,2.652
		C306.052,236.774,304.864,234.358,305.623,232.136z M305.623,232.136l-17.704-6.04l-9.545-19.428l-17.707-6.042 M424.57,191.413
		c-0.157,2.342-2.188,4.112-4.528,3.954c-2.345-0.161-4.114-2.187-3.956-4.532c0.16-2.34,2.188-4.112,4.531-3.951
		C422.961,187.042,424.729,189.071,424.57,191.413z M364.526,171.988c-0.159,2.342-2.188,4.112-4.532,3.953
		c-2.341-0.159-4.109-2.188-3.951-4.531c0.159-2.341,2.188-4.11,4.53-3.952C362.916,167.617,364.685,169.647,364.526,171.988z
		 M364.526,171.988l18.665,1.27l14.231,16.308l18.666,1.269 M235.904,238.659c0.216-2.336-1.501-4.408-3.842-4.625
		c-2.337-0.217-4.406,1.503-4.624,3.84c-0.217,2.338,1.502,4.409,3.84,4.627C233.617,242.718,235.689,240.996,235.904,238.659z
		 M174.94,233.007c0.219-2.338-1.5-4.408-3.84-4.626c-2.337-0.216-4.408,1.501-4.627,3.841c-0.215,2.338,1.506,4.408,3.842,4.626
		C172.655,237.064,174.726,235.344,174.94,233.007z M174.94,233.007l52.498,4.868 M-95.677,51.82
		c1.029,2.11,3.575,2.985,5.685,1.955c2.111-1.03,2.986-3.576,1.954-5.685c-1.029-2.111-3.574-2.985-5.684-1.957
		C-95.833,47.165-96.708,49.71-95.677,51.82z M-47.38,11.202c1.031,2.109,3.577,2.985,5.688,1.955
		c2.109-1.03,2.984-3.576,1.953-5.686c-1.03-2.111-3.575-2.985-5.684-1.955C-47.533,6.546-48.409,9.091-47.38,11.202z
		 M-47.38,11.202L-64.19,19.41l-7.035,20.471l-16.813,8.208 M198.809,200.195c-1.108-2.069-3.687-2.847-5.755-1.738
		c-2.071,1.109-2.848,3.687-1.739,5.755c1.111,2.071,3.687,2.849,5.757,1.738C199.141,204.841,199.919,202.266,198.809,200.195z
		 M235.177,154.652c-1.109-2.07-3.686-2.848-5.755-1.739c-2.069,1.11-2.847,3.688-1.737,5.755c1.109,2.069,3.684,2.848,5.755,1.739
		C235.509,159.298,236.287,156.721,235.177,154.652z M198.809,200.195l23.233-12.454l8.16-27.011 M-96.245-151.228
		c0.221,2.338,2.297,4.053,4.634,3.831c2.338-0.222,4.053-2.296,3.83-4.634c-0.222-2.337-2.296-4.053-4.634-3.831
		C-94.752-155.64-96.468-153.565-96.245-151.228z M-96.245-151.228l-18.625,1.769l-13.791,16.684l-18.621,1.768 M-30.896-177.723
		c-1.682,1.641-1.713,4.333-0.072,6.013c1.64,1.679,4.332,1.712,6.013,0.071c1.679-1.642,1.712-4.333,0.071-6.013
		C-26.524-179.332-29.216-179.364-30.896-177.723z M-84.75-200.007c-1.683,1.641-1.713,4.332-0.071,6.01
		c1.64,1.68,4.332,1.714,6.013,0.073c1.679-1.642,1.712-4.333,0.071-6.013C-80.378-201.618-83.07-201.65-84.75-200.007z
		 M-30.896-177.723l-18.42-18.859l-28.214-0.335 M39.31,202.941c1.826,1.476,4.502,1.189,5.978-0.638
		c1.474-1.83,1.188-4.503-0.638-5.978c-1.83-1.476-4.505-1.189-5.979,0.638C37.194,198.789,37.481,201.468,39.31,202.941z
		 M65.843,145.683c1.827,1.476,4.506,1.189,5.979-0.639c1.476-1.827,1.188-4.502-0.639-5.977c-1.827-1.476-4.504-1.189-5.979,0.637
		C63.731,141.532,64.017,144.208,65.843,145.683z M65.843,145.683l-11.747,14.558l2.3,21.525l-11.749,14.558 M278.66,133.163
		c2.225-0.756,3.412-3.172,2.653-5.393c-0.755-2.223-3.17-3.412-5.395-2.654c-2.223,0.755-3.41,3.171-2.652,5.395
		C274.022,132.733,276.438,133.921,278.66,133.163z M317.661,176.475c2.225-0.759,3.412-3.173,2.655-5.395
		c-0.757-2.223-3.173-3.413-5.396-2.654c-2.222,0.756-3.411,3.17-2.654,5.395C313.024,176.044,315.44,177.233,317.661,176.475z
		 M278.66,133.163l8.499,24.954l25.316,12.456 M75.468,239.295c2.156-0.927,3.154-3.425,2.229-5.585
		c-0.928-2.155-3.428-3.153-5.586-2.227c-2.157,0.926-3.154,3.428-2.229,5.583C70.809,239.226,73.31,240.223,75.468,239.295z
		 M87.549,267.424c2.158-0.928,3.155-3.428,2.229-5.585c-0.926-2.157-3.428-3.156-5.585-2.228c-2.157,0.927-3.154,3.425-2.229,5.584
		C82.892,267.352,85.391,268.35,87.549,267.424z M75.468,239.295l8.727,20.316 M69.104,75.413c1.963,1.285,4.602,0.735,5.888-1.229
		c1.286-1.964,0.736-4.598-1.229-5.885c-1.964-1.286-4.598-0.737-5.885,1.227C66.592,71.489,67.14,74.125,69.104,75.413z
		 M52.332,101.02c1.964,1.286,4.6,0.737,5.887-1.227c1.285-1.965,0.735-4.6-1.228-5.887c-1.965-1.287-4.6-0.736-5.889,1.227
		C49.819,97.098,50.366,99.733,52.332,101.02z M69.104,75.413L56.991,93.906 M125.834,54.04c1.989-1.249,2.588-3.873,1.339-5.86
		c-1.249-1.99-3.872-2.588-5.861-1.34c-1.989,1.25-2.589,3.874-1.34,5.863C121.221,54.689,123.844,55.289,125.834,54.04z
		 M83.63,44.396c1.99-1.249,2.589-3.875,1.34-5.862c-1.249-1.989-3.873-2.588-5.861-1.338c-1.989,1.248-2.589,3.872-1.34,5.86
		C79.018,45.044,81.641,45.643,83.63,44.396z M84.97,38.534l22.324-14.017l14.018,22.323 M-76.966-38.458
		c-1.596,1.721-1.493,4.412,0.229,6.007c1.723,1.596,4.413,1.493,6.007-0.229c1.598-1.723,1.495-4.413-0.228-6.01
		C-72.681-40.286-75.37-40.182-76.966-38.458z M-76.966-38.458l-38.67-35.835 M75.589-94.005c0.069,2.346,2.028,4.193,4.375,4.125
		c2.346-0.068,4.194-2.026,4.126-4.373c-0.069-2.348-2.028-4.194-4.374-4.126C77.368-98.312,75.521-96.354,75.589-94.005z
		 M136.788-95.791c0.066,2.346,2.026,4.195,4.373,4.126c2.347-0.068,4.193-2.027,4.125-4.375c-0.066-2.348-2.026-4.194-4.373-4.126
		C138.564-100.097,136.72-98.138,136.788-95.791z M136.788-95.791l-52.699,1.538 M-13.12,107.538
		c1.513,1.795,4.195,2.024,5.99,0.514c1.796-1.514,2.027-4.196,0.512-5.992c-1.512-1.795-4.193-2.025-5.989-0.512
		C-14.402,103.06-14.634,105.742-13.12,107.538z M23.843,56.388c1.512,1.796,4.197,2.024,5.99,0.511
		c1.795-1.512,2.026-4.194,0.512-5.991c-1.514-1.795-4.193-2.024-5.99-0.511C22.56,51.909,22.328,54.59,23.843,56.388z
		 M23.843,56.388L9.536,68.44L7.69,90.007l-14.309,12.052 M140.369-20.283c-1.874,1.415-2.245,4.082-0.83,5.956
		c1.415,1.873,4.083,2.244,5.956,0.829c1.875-1.417,2.243-4.082,0.828-5.955C144.909-21.328,142.243-21.7,140.369-20.283z
		 M89.755-49.184c-1.873,1.415-2.244,4.082-0.829,5.956c1.415,1.873,4.082,2.244,5.956,0.829c1.873-1.415,2.244-4.083,0.828-5.957
		C94.296-50.229,91.629-50.6,89.755-49.184z M140.369-20.283l-15.892-21.032l-27.949-3.891 M-29.22-16.989
		c-0.225,2.337,1.488,4.415,3.825,4.64s4.415-1.487,4.64-3.823c0.226-2.338-1.486-4.416-3.823-4.641
		C-26.917-21.038-28.993-19.326-29.22-16.989z M12.663-51.496c-0.227,2.337,1.485,4.414,3.822,4.64
		c2.338,0.226,4.416-1.486,4.641-3.823c0.227-2.336-1.484-4.415-3.824-4.641C14.966-55.545,12.888-53.834,12.663-51.496z
		 M12.663-51.496l-18.621-1.798l-16.822,13.86l-1.798,18.622 M-17.293,195.545c1.104,2.072,3.681,2.855,5.751,1.751
		c2.072-1.104,2.855-3.681,1.749-5.753c-1.104-2.072-3.681-2.856-5.751-1.75C-17.617,190.899-18.398,193.475-17.293,195.545z
		 M-1.499,143.629c1.104,2.072,3.68,2.856,5.752,1.75c2.073-1.105,2.856-3.681,1.75-5.75c-1.105-2.074-3.681-2.858-5.751-1.75
		C-1.822,138.981-2.604,141.559-1.499,143.629z M-1.499,143.629l-16.508,8.806l-6.344,20.851l8.807,16.507 M-91.036,89.896
		c-0.739-2.23-3.146-3.437-5.375-2.698c-2.229,0.739-3.436,3.146-2.697,5.374c0.738,2.229,3.146,3.437,5.375,2.698
		C-91.505,94.533-90.298,92.126-91.036,89.896z M-115.388,138.391l17.758-5.884l9.781-19.479l-5.887-17.757 M-5.958-128.191
		c2.146,0.954,4.659-0.01,5.613-2.156c0.953-2.144-0.01-4.657-2.156-5.613c-2.145-0.954-4.659,0.011-5.612,2.156
		C-9.069-131.658-8.104-129.145-5.958-128.191z M-18.402-100.224c2.144,0.956,4.655-0.01,5.61-2.156
		c0.955-2.144-0.01-4.658-2.154-5.612c-2.146-0.955-4.658,0.01-5.615,2.157C-21.515-103.691-20.55-101.178-18.402-100.224z
		 M-5.958-128.191l-8.99,20.199 M-55.294,86.772c2.335-0.257,4.02-2.356,3.764-4.689c-0.256-2.334-2.354-4.02-4.688-3.764
		c-2.333,0.255-4.02,2.355-3.763,4.688C-59.728,85.342-57.628,87.028-55.294,86.772z M-51.96,117.202
		c2.334-0.255,4.019-2.354,3.763-4.688c-0.255-2.334-2.354-4.019-4.688-3.763c-2.335,0.256-4.021,2.354-3.764,4.689
		C-56.393,115.773-54.294,117.458-51.96,117.202z M-55.294,86.772l2.408,21.978 M315.425-122.699
		c-1.524,1.786-4.207,1.996-5.992,0.47c-1.787-1.525-1.997-4.208-0.47-5.993c1.526-1.785,4.206-1.996,5.993-0.471
		C316.741-127.168,316.951-124.484,315.425-122.699z M312.044-165.859c-1.525,1.787-4.209,1.996-5.994,0.471
		c-1.786-1.526-1.996-4.21-0.469-5.996c1.525-1.784,4.207-1.993,5.992-0.468C313.358-170.327,313.571-167.644,312.044-165.859z
		 M306.05-165.389l-17.127,20.039l20.038,17.127 M48.924-65.246c-2.14,0.969-4.658,0.017-5.624-2.124
		c-0.967-2.14-0.019-4.658,2.121-5.625c2.143-0.966,4.658-0.016,5.627,2.124C52.013-68.732,51.064-66.213,48.924-65.246z
		 M37.657-127.339c-2.139,0.966-4.658,0.015-5.625-2.125c-0.967-2.14-0.017-4.658,2.125-5.625c2.139-0.966,4.655-0.016,5.624,2.125
		C40.748-130.826,39.797-128.308,37.657-127.339z M37.657-127.339l7.704,17.045l-7.644,20.252l7.706,17.046 M59.659-164.281
		c0.682,2.246-0.586,4.621-2.833,5.304c-2.246,0.683-4.62-0.585-5.304-2.831c-0.684-2.247,0.584-4.622,2.832-5.306
		C56.601-167.796,58.976-166.528,59.659-164.281z M11.785-189.833c0.683,2.246-0.585,4.621-2.831,5.304
		c-2.247,0.682-4.621-0.585-5.305-2.832c-0.684-2.248,0.585-4.622,2.832-5.305C8.729-193.347,11.102-192.081,11.785-189.833z
		 M11.785-189.833l17.897-5.442l19.23,10.266l5.441,17.897 M311.54,123.744c-1.773,1.535-4.459,1.341-5.996-0.436
		c-1.535-1.777-1.342-4.461,0.436-5.997c1.779-1.536,4.46-1.341,5.997,0.435C313.513,119.523,313.315,122.209,311.54,123.744z
		 M315.474,69.621c-1.775,1.536-4.461,1.341-5.998-0.435c-1.535-1.776-1.34-4.461,0.438-5.997c1.777-1.536,4.462-1.34,5.997,0.435
		C317.445,65.401,317.248,68.087,315.474,69.621z M315.474,69.621l12.234,14.153l-1.578,21.738l-14.153,12.235 M390.653-167.272
		c2.213,0.786,3.369,3.218,2.581,5.429c-0.788,2.214-3.217,3.37-5.432,2.583c-2.211-0.787-3.367-3.219-2.581-5.431
		C386.008-166.905,388.44-168.06,390.653-167.272z M355.72-114.716c2.212,0.787,3.367,3.218,2.583,5.431
		c-0.788,2.213-3.221,3.369-5.432,2.582c-2.212-0.785-3.369-3.218-2.581-5.429C351.076-114.346,353.507-115.501,355.72-114.716z
		 M355.72-114.716l6.267-17.625l19.549-9.295l6.268-17.624 M260.509-101.122c0.771-2.217,3.194-3.388,5.412-2.617
		c2.217,0.771,3.391,3.195,2.617,5.413c-0.771,2.217-3.196,3.39-5.412,2.617C260.907-96.479,259.735-98.903,260.509-101.122z
		 M313.294-66.534c0.771-2.218,3.195-3.389,5.414-2.618c2.217,0.772,3.389,3.196,2.617,5.414s-3.195,3.39-5.415,2.617
		C313.695-61.893,312.522-64.316,313.294-66.534z M313.294-66.534l-17.666-6.152l-9.424-19.488l-17.666-6.15 M381.886-67.07
		c-2.338,0.222-4.413-1.495-4.633-3.831c-0.223-2.341,1.491-4.415,3.832-4.636c2.336-0.222,4.411,1.495,4.631,3.832
		C385.94-69.368,384.223-67.292,381.886-67.07z M364.088-11.573c-2.341,0.223-4.413-1.493-4.636-3.831
		c-0.223-2.337,1.493-4.413,3.832-4.633c2.335-0.222,4.411,1.492,4.633,3.83C368.14-13.869,366.424-11.795,364.088-11.573z
		 M381.886-67.07l2.488,26.241l-17.981,21.746 M305.563,314.991c2.2-0.818,4.646,0.3,5.467,2.499
		c0.822,2.203-0.299,4.65-2.497,5.471c-2.202,0.82-4.65-0.3-5.47-2.502C302.245,318.261,303.363,315.811,305.563,314.991z
		 M294.876,286.307c2.2-0.82,4.648,0.299,5.469,2.499c0.82,2.202-0.301,4.649-2.498,5.47c-2.202,0.819-4.65-0.3-5.471-2.502
		C291.558,289.574,292.675,287.125,294.876,286.307z M305.563,314.991l-7.719-20.716 M246.973-33.971
		c2.202-0.82,4.649,0.298,5.469,2.498c0.818,2.204-0.299,4.651-2.501,5.471c-2.197,0.818-4.648-0.302-5.467-2.502
		C243.653-30.702,244.771-33.15,246.973-33.971z M236.285-62.656c2.2-0.821,4.649,0.298,5.468,2.499
		c0.821,2.203-0.297,4.65-2.498,5.47c-2.201,0.818-4.65-0.302-5.469-2.502C232.967-59.388,234.085-61.835,236.285-62.656z
		 M246.973-33.971l-7.718-20.717 M235.298,12.984c1.538-1.774,4.223-1.968,5.998-0.432c1.775,1.538,1.967,4.223,0.43,5.998
		c-1.537,1.775-4.223,1.969-5.997,0.432C233.953,17.444,233.761,14.758,235.298,12.984z M271.563,64.632
		c1.537-1.775,4.223-1.968,5.997-0.432c1.775,1.537,1.969,4.223,0.433,5.997c-1.538,1.776-4.223,1.969-5.999,0.431
		C270.22,69.092,270.024,66.407,271.563,64.632z M271.563,64.632l-14.144-12.245l-1.551-21.592L241.726,18.55 M113.808,173.386
		c-1.471-1.832-1.181-4.506,0.647-5.979c1.829-1.473,4.507-1.183,5.977,0.647c1.474,1.829,1.184,4.507-0.646,5.978
		C117.956,175.504,115.279,175.215,113.808,173.386z M171.104,146.93c-1.474-1.828-1.183-4.506,0.646-5.977
		c1.83-1.472,4.507-1.185,5.979,0.646c1.472,1.83,1.184,4.505-0.646,5.976C175.251,149.049,172.574,148.761,171.104,146.93z
		 M171.104,146.93l-14.575,11.728l-21.521-2.33l-14.575,11.728 M159.995-69.713c0-2.349,1.904-4.252,4.25-4.252
		c2.35,0,4.252,1.904,4.252,4.252s-1.902,4.251-4.252,4.251C161.899-65.462,159.995-67.364,159.995-69.713z M198.366-31.343
		c0-2.347,1.904-4.251,4.253-4.251c2.347,0,4.251,1.904,4.251,4.251c0,2.349-1.904,4.252-4.251,4.252
		C200.271-27.09,198.366-28.994,198.366-31.343z M198.366-31.343H179.66l-15.413-15.412v-18.708 M189.346,45.353
		c2.18-0.874,4.653,0.186,5.528,2.364c0.873,2.181-0.188,4.656-2.367,5.53c-2.18,0.872-4.655-0.188-5.527-2.368
		C186.106,48.701,187.166,46.226,189.346,45.353z M177.963,16.936c2.18-0.873,4.655,0.185,5.527,2.364
		c0.874,2.181-0.184,4.657-2.365,5.53c-2.181,0.873-4.654-0.187-5.527-2.366C174.724,20.283,175.784,17.809,177.963,16.936z
		 M189.346,45.353l-8.221-20.524 M202.667-96.513c-1.525,1.785-4.208,1.997-5.993,0.472c-1.786-1.526-1.997-4.211-0.472-5.995
		c1.525-1.785,4.21-1.997,5.996-0.471C203.984-100.981,204.193-98.297,202.667-96.513z M199.285-139.671
		c-1.524,1.785-4.209,1.996-5.993,0.47c-1.787-1.526-1.996-4.21-0.469-5.994c1.524-1.785,4.207-1.995,5.992-0.47
		S200.812-141.456,199.285-139.671z M193.292-139.201l-17.126,20.04l20.036,17.125 M246.629-141.585
		c-2.22-0.767-3.395-3.189-2.626-5.407c0.768-2.219,3.191-3.396,5.408-2.626c2.219,0.767,3.394,3.189,2.627,5.409
		C251.269-141.991,248.847-140.815,246.629-141.585z M266.663-199.437c-2.217-0.77-3.395-3.19-2.624-5.409
		c0.769-2.219,3.189-3.396,5.407-2.626c2.219,0.769,3.396,3.19,2.627,5.408C271.305-199.844,268.884-198.668,266.663-199.437z
		 M266.663-199.437l-17.252,49.817 M337.96,35.904c0-2.349,1.906-4.252,4.251-4.252c2.349,0,4.252,1.904,4.252,4.252
		c0,2.348-1.903,4.252-4.252,4.252C339.866,40.156,337.96,38.252,337.96,35.904z M399.185,35.904c0-2.349,1.902-4.252,4.25-4.252
		c2.35,0,4.255,1.904,4.255,4.252c0,2.348-1.905,4.252-4.255,4.252C401.087,40.156,399.185,38.252,399.185,35.904z M399.185,35.904
		h-52.722 M128.751-201.483c0-2.348,1.904-4.251,4.252-4.251c2.349,0,4.252,1.903,4.252,4.251s-1.903,4.252-4.252,4.252
		C130.655-197.231,128.751-199.135,128.751-201.483z M128.751-201.483h-18.706l-15.307-15.306H76.03 M192.882-187.086
		c-1.826-1.476-2.114-4.151-0.638-5.98c1.472-1.827,4.149-2.113,5.978-0.641c1.828,1.476,2.115,4.152,0.64,5.98
		C197.386-185.899,194.708-185.613,192.882-187.086z M141.376-159.81c-1.827-1.474-2.115-4.15-0.64-5.977s4.15-2.115,5.978-0.64
		c1.83,1.475,2.115,4.151,0.641,5.979C145.879-158.621,143.204-158.334,141.376-159.81z M192.882-187.086l-16.551,20.516l-28.059,3
		 M366.619-208.011l-15.583,10.35l-21.365-4.313l-10.35-15.582 M110.657-137.652c1.807-1.5,4.487-1.253,5.986,0.555
		c1.502,1.806,1.253,4.486-0.553,5.987c-1.807,1.5-4.488,1.25-5.988-0.555C108.603-133.471,108.851-136.152,110.657-137.652z
		 M91.099-161.202c1.807-1.499,4.487-1.252,5.986,0.556c1.502,1.805,1.253,4.486-0.553,5.985c-1.808,1.501-4.488,1.253-5.99-0.553
		C89.044-157.021,89.292-159.702,91.099-161.202z M110.657-137.652l-14.125-17.007 M355.663,478.307
		c2.205,0.813,4.646-0.322,5.458-2.525c0.809-2.205-0.324-4.646-2.526-5.457c-2.207-0.809-4.647,0.324-5.457,2.525
		C352.327,475.057,353.458,477.497,355.663,478.307z M337.474,439.022c2.203,0.811,4.648-0.322,5.457-2.527
		c0.811-2.205-0.322-4.646-2.525-5.455c-2.205-0.809-4.646,0.322-5.456,2.525C334.14,435.772,335.271,438.213,337.474,439.022z
		 M342.931,436.495l24.745,9.086l-9.083,24.744 M315.69,367.958c0.736,2.231,3.14,3.44,5.37,2.703
		c2.229-0.736,3.44-3.139,2.704-5.37c-0.734-2.23-3.14-3.439-5.371-2.702C316.165,363.324,314.954,365.73,315.69,367.958z
		 M373.826,348.761c0.735,2.228,3.141,3.438,5.37,2.702c2.228-0.733,3.441-3.141,2.702-5.37c-0.734-2.229-3.14-3.44-5.367-2.702
		C374.301,344.126,373.088,346.529,373.826,348.761z M373.826,348.761l-50.062,16.53 M413.949,410.922
		c-1.403,1.883-1.013,4.547,0.871,5.951c1.884,1.4,4.546,1.01,5.948-0.873c1.403-1.883,1.013-4.547-0.87-5.951
		C418.014,408.648,415.351,409.036,413.949,410.922z M357.268,397.348c-1.402,1.883-1.012,4.548,0.87,5.949
		c1.886,1.402,4.549,1.012,5.951-0.872c1.403-1.883,1.011-4.546-0.873-5.949C361.332,395.074,358.671,395.463,357.268,397.348z
		 M413.949,410.922l-21.146-15.744l-27.92,4.091 M257.818,474.307c0.435,2.309,2.66,3.824,4.968,3.385
		c2.307-0.438,3.822-2.662,3.385-4.967c-0.438-2.309-2.664-3.822-4.97-3.385C258.894,469.776,257.379,472.002,257.818,474.307z
		 M288.361,429.458c0.438,2.307,2.663,3.822,4.97,3.385c2.307-0.439,3.822-2.662,3.385-4.969c-0.438-2.311-2.663-3.824-4.97-3.387
		S287.924,427.149,288.361,429.458z M288.361,429.458l-18.379,3.488l-12.271,18.012l3.489,18.381 M311.836,494.458
		c1.642,1.682,4.333,1.713,6.013,0.074c1.679-1.641,1.713-4.334,0.071-6.016c-1.64-1.678-4.333-1.713-6.013-0.072
		C310.228,490.088,310.196,492.778,311.836,494.458z M257.804,278.063c-0.005,2.348,1.894,4.254,4.244,4.259
		c2.347,0.005,4.254-1.896,4.26-4.241c0.004-2.35-1.896-4.257-4.244-4.261C259.716,273.814,257.809,275.715,257.804,278.063z
		 M204.187,300.914c-0.005,2.347,1.895,4.256,4.243,4.261c2.349,0.004,4.257-1.895,4.262-4.244c0.003-2.347-1.896-4.257-4.245-4.262
		C206.099,296.665,204.19,298.565,204.187,300.914z M257.804,278.063l-26.361-0.054l-19.99,19.912 M35.669,316.725
		c2.23-0.722,4.629,0.505,5.352,2.739c0.721,2.234-0.503,4.631-2.738,5.353c-2.235,0.721-4.632-0.504-5.354-2.738
		C32.206,319.845,33.435,317.445,35.669,316.725z M15.95,355.266c2.235-0.723,4.631,0.504,5.354,2.739
		c0.722,2.233-0.505,4.632-2.74,5.354c-2.233,0.721-4.631-0.507-5.352-2.739C12.489,358.387,13.716,355.988,15.95,355.266z
		 M21.304,358.005l25.082-8.104l-8.104-25.084 M137.657,276.271c0.545-2.284,2.841-3.694,5.124-3.148
		c2.283,0.547,3.692,2.841,3.146,5.125c-0.545,2.283-2.839,3.692-5.122,3.147C138.521,280.85,137.111,278.556,137.657,276.271z
		 M160.315,313.161c0.547-2.286,2.84-3.694,5.125-3.146c2.283,0.544,3.691,2.837,3.145,5.121c-0.545,2.284-2.838,3.695-5.122,3.147
		C161.181,317.737,159.771,315.445,160.315,313.161z M165.438,310.015l6.129-25.641l-25.639-6.126 M274.427,357.828
		c1.535,1.775,1.34,4.461-0.438,5.996c-1.775,1.538-4.462,1.343-5.997-0.437c-1.535-1.776-1.34-4.461,0.438-5.995
		C270.205,355.858,272.892,356.053,274.427,357.828z M220.306,353.896c1.533,1.776,1.34,4.461-0.438,5.997
		c-1.777,1.535-4.461,1.34-5.997-0.436c-1.536-1.776-1.341-4.461,0.437-5.997C216.084,351.924,218.769,352.12,220.306,353.896z
		 M220.306,353.896l14.15-12.233l21.736,1.579l12.237,14.151 M101.639,428.311c-2.167,0.906-4.657-0.115-5.562-2.283
		s0.119-4.656,2.287-5.561c2.166-0.908,4.656,0.119,5.561,2.285C104.827,424.918,103.806,427.409,101.639,428.311z M92.183,365.916
		c-2.166,0.906-4.656-0.118-5.559-2.284c-0.905-2.167,0.119-4.657,2.285-5.563c2.165-0.902,4.656,0.12,5.563,2.287
		C95.374,362.522,94.352,365.012,92.183,365.916z M92.183,365.916l7.206,17.265l-8.23,20.021l7.206,17.266 M83.79,299.113
		c-0.656,2.252-3.015,3.549-5.27,2.891c-2.254-0.653-3.551-3.017-2.893-5.27c0.655-2.257,3.016-3.551,5.271-2.894
		S84.448,296.858,83.79,299.113z M128.803,336.141c-0.659,2.252-3.018,3.548-5.272,2.892c-2.255-0.655-3.55-3.018-2.893-5.271
		c0.655-2.254,3.017-3.548,5.271-2.893C128.163,331.525,129.457,333.886,128.803,336.141z M83.79,299.113l25.311,7.372
		l13.573,24.737 M159.503,363c-1.985-1.256-2.572-3.883-1.316-5.867c1.257-1.982,3.883-2.571,5.867-1.313
		c1.982,1.257,2.571,3.883,1.315,5.865C164.11,363.67,161.483,364.258,159.503,363z M143.114,388.86
		c-1.982-1.26-2.57-3.885-1.313-5.867c1.257-1.983,3.884-2.574,5.867-1.317c1.981,1.258,2.571,3.884,1.313,5.869
		C147.725,389.525,145.098,390.116,143.114,388.86z M159.503,363l-11.835,18.676 M183.682,416.237
		c-1.183-2.031-0.494-4.635,1.535-5.814c2.03-1.181,4.633-0.492,5.813,1.537c1.181,2.027,0.493,4.629-1.534,5.813
		C187.466,418.954,184.861,418.266,183.682,416.237z M244.295,398.671c-1.184-2.031-0.491-4.632,1.538-5.815
		c2.029-1.18,4.631-0.493,5.813,1.538c1.182,2.029,0.492,4.633-1.537,5.813C248.081,401.387,245.478,400.699,244.295,398.671z
		 M244.295,398.671l-16.169,9.41l-20.927-5.534l-16.169,9.413 M107.991,477.44c-2.348,0-4.252-1.902-4.252-4.254
		c0-2.346,1.904-4.25,4.252-4.25c2.347,0,4.25,1.904,4.25,4.25C112.241,475.538,110.338,477.44,107.991,477.44z M146.36,439.071
		c-2.348,0-4.252-1.904-4.252-4.256c0-2.346,1.904-4.25,4.252-4.25c2.35,0,4.252,1.904,4.252,4.25
		C150.612,437.167,148.71,439.071,146.36,439.071z M146.36,439.071v18.703l-15.41,15.412h-18.709 M206.353,463.829
		c-0.873-2.18,0.188-4.654,2.365-5.527c2.18-0.875,4.657,0.186,5.529,2.365s-0.188,4.656-2.367,5.529
		C209.701,467.067,207.226,466.008,206.353,463.829z M177.937,475.209c-0.875-2.178,0.186-4.652,2.365-5.525
		c2.18-0.875,4.653,0.186,5.528,2.363c0.872,2.182-0.188,4.658-2.366,5.529C181.284,478.45,178.81,477.391,177.937,475.209z
		 M206.353,463.829l-20.523,8.219 M73.823,449.504c1.783,1.529,1.996,4.211,0.471,5.996c-1.528,1.785-4.212,1.994-5.994,0.471
		c-1.787-1.529-1.997-4.209-0.472-5.994C69.353,448.19,72.037,447.981,73.823,449.504z M30.663,452.887
		c1.785,1.529,1.995,4.209,0.469,5.996c-1.525,1.783-4.209,1.992-5.993,0.469c-1.786-1.525-1.996-4.209-0.47-5.992
		C26.194,451.571,28.878,451.362,30.663,452.887z M31.132,458.883l20.039,17.123l17.126-20.035 M-17.838,224.871
		c-0.657,2.252-3.016,3.55-5.271,2.891c-2.253-0.655-3.55-3.016-2.892-5.271c0.656-2.253,3.017-3.549,5.271-2.893
		C-18.476,220.254-17.182,222.617-17.838,224.871z M27.173,261.897c-0.656,2.253-3.017,3.549-5.271,2.892
		c-2.254-0.655-3.55-3.017-2.892-5.27c0.655-2.256,3.016-3.551,5.271-2.895C26.536,257.283,27.83,259.643,27.173,261.897z
		 M-17.838,224.871l25.312,7.374l13.57,24.736 M-55.929,488.229c1.059,2.096,0.22,4.652-1.875,5.711
		c-2.095,1.061-4.652,0.223-5.715-1.875c-1.059-2.096-0.219-4.65,1.877-5.711C-59.548,485.293-56.987,486.131-55.929,488.229z
		 M-97.062,474.729c1.061,2.094,0.219,4.65-1.875,5.711c-2.096,1.061-4.651,0.219-5.712-1.875c-1.062-2.094-0.222-4.654,1.875-5.713
		C-100.678,471.792-98.121,472.631-97.062,474.729z M-98.937,480.44l11.896,23.521l23.521-11.896 M-86.693,326.694
		c-0.269-2.333,1.405-4.443,3.737-4.71c2.334-0.27,4.442,1.405,4.71,3.737c0.271,2.331-1.404,4.442-3.736,4.708
		C-84.316,330.701-86.426,329.025-86.693,326.694z M-82.956,321.984l-3.016-26.189l-26.186,3.017 M43.488,417.831
		c-0.768,2.215-3.19,3.393-5.41,2.625c-2.218-0.771-3.394-3.191-2.624-5.412c0.768-2.219,3.189-3.395,5.408-2.625
		C43.082,413.19,44.256,415.61,43.488,417.831z M-14.364,397.791c-0.77,2.222-3.191,3.396-5.408,2.626
		c-2.22-0.769-3.395-3.189-2.627-5.406c0.77-2.22,3.189-3.396,5.409-2.628C-14.771,393.15-13.595,395.571-14.364,397.791z
		 M-14.364,397.791l49.818,17.252 M-5.732,305.592c-1.468,1.832-4.144,2.128-5.977,0.66c-1.833-1.466-2.129-4.143-0.66-5.976
		c1.468-1.832,4.145-2.128,5.976-0.661C-4.56,301.082-4.265,303.761-5.732,305.592z M-53.52,267.32
		c-1.468,1.832-4.143,2.129-5.976,0.659c-1.833-1.467-2.129-4.144-0.661-5.976c1.468-1.833,4.144-2.128,5.977-0.662
		C-52.346,262.812-52.051,265.487-53.52,267.32z M-53.52,267.32l41.15,32.956 M-16.754,459.292
		c-1.475,1.826-4.149,2.115-5.979,0.641c-1.827-1.477-2.112-4.152-0.639-5.98s4.15-2.111,5.979-0.637
		C-15.565,454.788-15.279,457.465-16.754,459.292z M-16.754,459.292l20.517,16.553l3.001,28.059 M-53.324,373.139
		c-1.958,1.3-4.595,0.767-5.895-1.19c-1.299-1.954-0.767-4.595,1.19-5.894c1.955-1.3,4.594-0.766,5.895,1.19
		C-50.837,369.2-51.369,371.841-53.324,373.139z M-42.591,319.947c-1.956,1.299-4.596,0.767-5.895-1.192
		c-1.299-1.954-0.765-4.594,1.189-5.892c1.956-1.3,4.596-0.767,5.896,1.188C-40.102,316.009-40.636,318.647-42.591,319.947z
		 M-42.591,319.947l10.352,15.583l-4.313,21.364l-15.582,10.351 M-72.419,397.879l-2.518,7.229 M-65.192,400.396l-2.516,7.225
		 M-57.964,402.914l-2.517,7.227 M-84.999,434.016l-2.518,7.229 M-77.772,436.534l-2.517,7.229 M-70.546,439.049l-2.516,7.227"/>
</g>
</svg>
