<?xml version="1.0" encoding="utf-8"?>
<!-- Generator: Adobe Illustrator 16.0.0, SVG Export Plug-In . SVG Version: 6.00 Build 0)  -->
<!DOCTYPE svg PUBLIC "-//W3C//DTD SVG 1.1//EN" "http://www.w3.org/Graphics/SVG/1.1/DTD/svg11.dtd">
<svg version="1.1" id="Layer_1" xmlns="http://www.w3.org/2000/svg" xmlns:xlink="http://www.w3.org/1999/xlink" x="0px" y="0px"
	 width="17.574px" height="17.574px" viewBox="0 0 17.574 17.574" enable-background="new 0 0 17.574 17.574" xml:space="preserve">
<g>
	<path fill-rule="evenodd" clip-rule="evenodd" fill="#2BB673" d="M9.49,0.879c-0.469,0-0.938,0-1.406,0
		c-0.012,0.01-0.023,0.022-0.036,0.026C7.48,1.079,7.225,1.43,7.225,2.03c0.002,0.344-0.003,0.688,0.004,1.033
		C7.23,3.174,7.195,3.22,7.092,3.261C6.746,3.394,6.404,3.539,6.066,3.693c-0.092,0.042-0.141,0.03-0.207-0.039
		c-0.273-0.282-0.549-0.565-0.831-0.84c-0.411-0.399-1.037-0.4-1.448-0.002C3.315,3.069,3.056,3.331,2.803,3.598
		C2.541,3.877,2.468,4.21,2.548,4.584c0.062,0.283,0.255,0.472,0.447,0.664C3.248,5.5,3.5,5.755,3.728,5.983
		C3.576,6.38,3.439,6.749,3.291,7.115c-0.017,0.043-0.09,0.091-0.139,0.091c-0.387,0.008-0.773,0.002-1.16,0.006
		C1.539,7.216,1.157,7.501,1.014,7.937C0.999,7.983,0.979,8.03,0.961,8.077c0,0.474,0,0.947,0,1.421
		C0.97,9.51,0.982,9.521,0.986,9.534c0.176,0.574,0.522,0.833,1.113,0.831c0.342-0.002,0.684,0.003,1.025-0.004
		c0.111-0.002,0.153,0.04,0.191,0.144c0.126,0.335,0.261,0.668,0.405,0.996c0.037,0.086,0.031,0.132-0.033,0.195
		c-0.284,0.281-0.565,0.564-0.843,0.853c-0.445,0.462-0.444,1.079,0.002,1.542c0.209,0.218,0.424,0.43,0.637,0.645
		c0.518,0.522,1.117,0.524,1.636,0.002c0.268-0.27,0.534-0.538,0.798-0.811c0.055-0.057,0.094-0.062,0.17-0.028
		c0.334,0.147,0.672,0.291,1.014,0.421c0.102,0.04,0.129,0.088,0.127,0.189c-0.006,0.309-0.002,0.618-0.002,0.927
		c-0.002,0.727,0.178,0.99,0.848,1.249c0.004,0.001,0.006,0.007,0.01,0.011c0.469,0,0.938,0,1.406,0
		c0.012-0.009,0.022-0.022,0.035-0.026c0.561-0.172,0.821-0.524,0.82-1.108c0-0.36-0.001-0.721,0.004-1.08
		c0.001-0.046,0.029-0.119,0.063-0.133c0.377-0.152,0.755-0.295,1.145-0.445c-0.008-0.006,0.002-0.002,0.009,0.006
		c0.295,0.298,0.589,0.598,0.887,0.894c0.438,0.434,1.065,0.434,1.503,0c0.236-0.234,0.47-0.471,0.703-0.709
		c0.449-0.46,0.449-1.093-0.002-1.552c-0.266-0.271-0.531-0.541-0.8-0.808c-0.06-0.058-0.071-0.102-0.034-0.184
		c0.154-0.351,0.301-0.706,0.439-1.063c0.037-0.092,0.076-0.126,0.176-0.125c0.385,0.006,0.771,0.008,1.159,0
		c0.461-0.009,0.839-0.308,0.974-0.751c0.012-0.039,0.028-0.075,0.042-0.112c0-0.474,0-0.947,0-1.421
		c-0.009-0.013-0.021-0.022-0.025-0.037c-0.174-0.569-0.509-0.824-1.098-0.828c-0.356-0.002-0.713,0.002-1.069-0.004
		c-0.045,0-0.117-0.028-0.131-0.063c-0.158-0.394-0.307-0.79-0.469-1.213c0.279-0.278,0.586-0.572,0.879-0.88
		c0.389-0.406,0.396-1.029,0.018-1.438c-0.26-0.282-0.531-0.555-0.811-0.818c-0.404-0.383-1.02-0.374-1.424,0.017
		c-0.262,0.251-0.514,0.513-0.768,0.773c-0.045,0.047-0.07,0.113-0.105,0.17c-0.012-0.023-0.024-0.047-0.036-0.069
		c-0.378-0.149-0.758-0.295-1.132-0.45c-0.044-0.019-0.09-0.093-0.092-0.142c-0.008-0.313-0.004-0.628-0.002-0.941
		c0.004-0.735-0.177-1.004-0.848-1.262C9.496,0.89,9.492,0.883,9.49,0.879z M8.793,11.949c-1.734,0.004-3.129-1.398-3.137-3.15
		C5.65,7.048,7.037,5.635,8.771,5.626c1.739-0.009,3.141,1.399,3.145,3.158C11.919,10.533,10.525,11.945,8.793,11.949z"/>
</g>
</svg>
