<?xml version="1.0" encoding="utf-8"?>
<!-- Generator: Adobe Illustrator 16.0.0, SVG Export Plug-In . SVG Version: 6.00 Build 0)  -->
<!DOCTYPE svg PUBLIC "-//W3C//DTD SVG 1.1//EN" "http://www.w3.org/Graphics/SVG/1.1/DTD/svg11.dtd">
<svg version="1.1" id="Layer_1" xmlns="http://www.w3.org/2000/svg" xmlns:xlink="http://www.w3.org/1999/xlink" x="0px" y="0px"
	 width="17.574px" height="17.574px" viewBox="0 0 17.574 17.574" enable-background="new 0 0 17.574 17.574" xml:space="preserve">
<g>
	<path fill-rule="evenodd" clip-rule="evenodd" fill="#00C1DE" d="M16.621,7.873c-2.201-2.182-4.387-4.379-6.581-6.567
		C9.259,0.526,8.312,0.534,7.523,1.313C7.136,1.697,6.752,2.084,6.366,2.47c-0.158,0.158-0.33,0.258-0.529,0.078
		C5.63,2.359,5.388,2.323,5.123,2.333C4.855,2.342,4.589,2.334,4.321,2.334C3.636,2.336,3.243,2.729,3.237,3.428
		c-0.004,0.524-0.015,1.048,0.004,1.57C3.257,5.413,3.124,5.736,2.82,6.023c-0.542,0.516-1.047,1.07-1.596,1.577
		c-0.357,0.33-0.611,0.691-0.652,1.184c0,0.192,0,0.385,0,0.578c0.071,0.274,0.054,0.582,0.252,0.812
		c0.447,0.516,0.988,0.803,1.699,0.647c0.467-0.103,0.518-0.056,0.52,0.429c0.004,1.165,0.037,2.329-0.01,3.493
		c-0.041,0.931,0.747,2.072,2.038,2.086c2.478,0.026,4.956,0.027,7.434,0c1.289-0.014,2.078-1.155,2.037-2.087
		c-0.048-1.121-0.011-2.244-0.011-3.365c0-0.118-0.004-0.235,0.008-0.354c0.02-0.198,0.121-0.285,0.324-0.241
		c0.146,0.034,0.289,0.077,0.439,0.085c0.877,0.044,1.52-0.522,1.698-1.505c0-0.193,0-0.386,0-0.578
		C16.912,8.466,16.891,8.14,16.621,7.873z M13.138,14.354c0,0.169-0.018,0.344-0.053,0.508c-0.065,0.312-0.281,0.47-0.585,0.514
		c-0.3,0.042-0.421-0.053-0.426-0.362c-0.011-0.685-0.004-1.368-0.007-2.054c-0.004-1.03-0.461-1.483-1.49-1.485
		c-0.14,0-0.279-0.001-0.418,0.001c-0.842,0.014-1.354,0.517-1.368,1.366c-0.013,0.694-0.001,1.39-0.005,2.086
		c-0.002,0.413-0.049,0.461-0.467,0.462c-0.994,0.002-1.988,0.005-2.982-0.001c-0.635-0.003-0.882-0.229-0.895-0.868
		c-0.018-0.866-0.004-1.733-0.004-2.599c-0.002,0-0.004,0-0.005,0c0-0.813,0.006-1.626-0.003-2.438
		C4.427,9.198,4.511,8.977,4.718,8.77C5.762,7.742,6.792,6.7,7.83,5.666c0.616-0.612,1.298-0.612,1.91-0.004
		c1.038,1.035,2.068,2.076,3.112,3.104c0.207,0.204,0.293,0.424,0.291,0.71C13.138,11.103,13.143,12.729,13.138,14.354z"/>
</g>
</svg>
