<?xml version="1.0" encoding="utf-8"?>
<!-- Generator: Adobe Illustrator 16.0.0, SVG Export Plug-In . SVG Version: 6.00 Build 0)  -->
<!DOCTYPE svg PUBLIC "-//W3C//DTD SVG 1.1//EN" "http://www.w3.org/Graphics/SVG/1.1/DTD/svg11.dtd">
<svg version="1.1" id="Layer_1" xmlns="http://www.w3.org/2000/svg" xmlns:xlink="http://www.w3.org/1999/xlink" x="0px" y="0px"
	 width="17.574px" height="17.574px" viewBox="0 0 17.574 17.574" enable-background="new 0 0 17.574 17.574" xml:space="preserve">
<g>
	<path fill-rule="evenodd" clip-rule="evenodd" fill="#D99DC6" d="M16.975,10.196c-0.165-1.598-0.871-2.93-2.092-3.979
		c-0.92-0.789-1.99-1.252-3.193-1.4c-0.539-0.066-1.08-0.014-1.545-0.032c-0.518,0-0.962,0.001-1.406-0.001c0-0.665,0-1.148,0-1.224
		C8.734,3.064,8.731,2.572,8.736,2.078C8.742,1.518,8.539,1.071,8.01,0.845C7.508,0.628,7.034,0.711,6.606,1.069
		C4.781,2.594,2.953,4.113,1.128,5.636c-0.159,0.13-0.31,0.274-0.408,0.46C0.408,6.683,0.572,7.312,1.163,7.802
		C2.025,8.52,2.887,9.238,3.749,9.955c0.97,0.808,1.938,1.617,2.913,2.42c0.412,0.342,0.881,0.418,1.365,0.188
		c0.477-0.228,0.708-0.63,0.709-1.16c0-0.471-0.001-0.946,0-1.418c0-0.11,0-0.57,0-1.195C8.771,8.788,8.8,8.785,8.846,8.786
		c0.021,0,0.042,0.003,0.063,0.003c0.345,0,0.689,0,1.034,0c0.283,0,0.565-0.016,0.848,0.004c0.253,0.02,0.512,0.011,0.763,0.091
		c1.062,0.333,1.73,1.487,1.298,2.661c-0.295,0.795-1.162,1.353-2.01,1.276c-0.52-0.046-0.969,0.326-0.982,0.858
		c-0.019,0.776-0.016,1.553,0,2.329c0.01,0.432,0.371,0.798,0.787,0.826c1.135,0.078,2.203-0.168,3.197-0.709
		c0.94-0.509,1.697-1.224,2.262-2.135C16.828,12.826,17.115,11.553,16.975,10.196z"/>
</g>
</svg>
