<?xml version="1.0" encoding="utf-8"?>
<!-- Generator: Adobe Illustrator 16.0.0, SVG Export Plug-In . SVG Version: 6.00 Build 0)  -->
<!DOCTYPE svg PUBLIC "-//W3C//DTD SVG 1.1//EN" "http://www.w3.org/Graphics/SVG/1.1/DTD/svg11.dtd">
<svg version="1.1" id="Layer_1" xmlns="http://www.w3.org/2000/svg" xmlns:xlink="http://www.w3.org/1999/xlink" x="0px" y="0px"
	 width="441.026px" height="644.011px" viewBox="0 0 441.026 644.011" enable-background="new 0 0 441.026 644.011"
	 xml:space="preserve">
<g>
	<g>
		<path fill="#6BC0DC" d="M369.127,165.522c-0.681-0.073-1.35-0.047-2.034-0.103c0.089-49.946-36.365-92.71-85.656-97.906
			c-39.17-4.129-75.38,16.673-93.773,49.914c-1.526-0.297-3.086-0.578-4.657-0.735c-31.556-3.34-59.903,20.332-63.337,52.851
			c-0.133,1.274-0.151,2.513-0.208,3.765c-1.932-0.398-3.903-0.722-5.911-0.935c-35.148-3.706-66.711,22.653-70.542,58.864
			c-3.817,36.228,21.577,68.599,56.688,72.305c3.317,0.342,246.894,26.68,251.99,27.231c44.261,4.67,84.055-28.526,88.857-74.158
			C445.377,210.969,413.394,170.205,369.127,165.522"/>
		<path fill="#00577B" d="M276.27,251.391c18.855,2.034,29.558-8.23,32.001-30.825l1.623-14.992
			c2.39-22.113-4.522-34.769-24.682-36.944c-19.097-2.062-29.803,8.198-32.245,30.792l-1.619,14.996
			C248.957,236.532,255.994,249.195,276.27,251.391"/>
		<path fill="#FFFFFF" d="M277.049,261.237c-17.443-1.885-37.432-11.699-33.543-47.66l1.617-15.003
			c4.094-37.872,28.672-40.933,42.952-39.392c17.331,1.872,37.171,11.657,33.281,47.628l-1.619,15.006
			C316.746,249.465,301.182,263.843,277.049,261.237 M285.991,178.477c-9.832-1.065-19.268,0.876-21.569,22.182l-1.621,15.007
			c-2.191,20.258,4.328,24.982,16.331,26.273c9.721,1.052,19.006-0.914,21.307-22.207l1.618-15.005
			C304.25,184.449,297.842,179.752,285.991,178.477"/>
		<path fill="#00577B" d="M183.951,241.411c18.843,2.036,29.551-8.224,31.988-30.822l1.621-14.992
			c2.391-22.114-4.516-34.77-24.674-36.947c-19.102-2.063-29.805,8.201-32.249,30.798l-1.616,14.992
			C156.633,226.553,163.667,239.222,183.951,241.411"/>
		<path fill="#FFFFFF" d="M182.901,251.06c-17.428-1.88-37.421-11.698-33.534-47.654l1.625-15.003
			c4.09-37.876,28.65-40.938,42.939-39.39c17.326,1.868,37.156,11.651,33.266,47.622l-1.621,15.005
			C222.588,239.292,207.05,253.669,182.901,251.06 M191.844,168.301c-9.849-1.068-19.27,0.88-21.57,22.187l-1.62,15.004
			c-2.187,20.258,4.333,24.982,16.335,26.28c9.714,1.05,19.002-0.92,21.307-22.212l1.612-15.005
			C210.107,174.278,203.694,169.578,191.844,168.301"/>
		<path fill="#FFFFFF" d="M344.01,11.143l-22.892-2.469c-5.755-0.627-10.933,3.537-11.552,9.282
			c-0.626,5.755,3.543,10.93,9.299,11.554l0.715,0.078l-7.258,67.133c-0.617,5.745,3.544,10.909,9.306,11.539
			c5.745,0.62,10.915-3.543,11.539-9.285l7.252-67.138l1.339,0.145c5.743,0.622,10.917-3.545,11.542-9.298
			C353.918,16.937,349.754,11.764,344.01,11.143"/>
		<path fill="#6BC0DC" d="M388.95,365.114c-17.818-13.909-39.269-22.77-61.72-25.427c-3.404-0.414-10.274-1.132-10.274-1.132
			l-6.657-0.719l-155.504-16.803l-6.802-0.736c0,0-6.741-0.754-10.153-1.078c-22.499-2.196-45.349,1.882-65.732,11.659
			c-61.79,29.633-86.74,100.285-63.586,159.838c4.858,12.515,20.191,17.219,31.475,9.933l0.024-0.013
			c8.458-5.455,12.256-16.128,8.619-25.515c-14.01-36.039-1.272-78.293,32.465-100.059c4.228-2.744,8.634-4.947,13.126-6.831
			c-0.097,0.603-0.209,1.177-0.272,1.771l-10.442,96.614c-3.277,30.322,18.647,57.559,48.967,60.836l155.513,16.807
			c30.322,3.273,57.559-18.646,60.835-48.974l10.441-96.612c0.064-0.598,0.06-1.184,0.108-1.789
			c3.964,2.797,7.781,5.892,11.351,9.471c28.307,28.477,31.723,72.475,10.358,104.693c-5.584,8.39-4.153,19.629,2.967,26.761
			l-0.006,0.017c9.468,9.528,25.455,8.21,32.896-2.975C452.258,481.613,442.987,407.266,388.95,365.114"/>
		<path fill="#6BC0DC" d="M160.615,583.257l4.443-41.094l-47.555-5.143l-4.446,41.098c-18.054,6.104-31.624,21.052-33.651,39.84
			l29.013,3.132l47.551,5.141l29.023,3.135C187.021,610.581,176.952,593.081,160.615,583.257"/>
		<path fill="#6BC0DC" d="M296.131,597.904l4.438-41.1l-47.552-5.14l-4.438,41.1c-18.06,6.102-31.631,21.047-33.664,39.838
			l29.019,3.136l47.551,5.132l29.017,3.141C322.531,625.222,312.469,607.726,296.131,597.904"/>
	</g>
</g>
</svg>
