<?xml version="1.0" encoding="utf-8"?>
<!-- Generator: Adobe Illustrator 16.0.0, SVG Export Plug-In . SVG Version: 6.00 Build 0)  -->
<!DOCTYPE svg PUBLIC "-//W3C//DTD SVG 1.1//EN" "http://www.w3.org/Graphics/SVG/1.1/DTD/svg11.dtd">
<svg version="1.1" id="Layer_1" xmlns="http://www.w3.org/2000/svg" xmlns:xlink="http://www.w3.org/1999/xlink" x="0px" y="0px"
	 width="1058px" height="202px" viewBox="0 0 1058 202" enable-background="new 0 0 1058 202" xml:space="preserve">
<g>
	<path fill="#6BC0DC" d="M185.761,88.649c-0.345,0-0.681,0.044-1.026,0.054c-2.652-25.027-23.244-44.483-48.215-44.42
		c-19.856,0.051-36.871,12.433-44.285,30.09c-0.789-0.066-1.578-0.123-2.38-0.119C73.866,74.295,60.939,87.687,60.98,104.17
		c0.002,0.643,0.058,1.266,0.099,1.898c-0.994-0.094-1.994-0.152-3.015-0.149c-17.803,0.044-32.201,14.96-32.157,33.319
		c0.047,18.354,14.519,33.202,32.326,33.157c1.674-0.003,125.163,0.009,127.737,0c22.437-0.058,40.575-18.851,40.516-41.977
		C226.427,107.292,208.195,88.594,185.761,88.649"/>
	<path fill="#00577B" d="M143.889,136.7c9.557,0,14.364-5.724,14.364-17.174v-7.606c0-11.203-4.15-17.173-14.364-17.173
		c-9.685,0-14.497,5.726-14.497,17.173v7.606C129.392,130.731,133.61,136.7,143.889,136.7"/>
	<path fill="#FFFFFF" d="M144.808,141.588c-8.843,0-19.384-3.828-19.384-22.062v-7.606c0-19.197,12.145-22.061,19.384-22.061
		c8.787,0,19.253,3.828,19.253,22.061v7.606C164.062,133.546,157.042,141.588,144.808,141.588 M144.808,99.637
		c-4.991,0-9.607,1.485-9.607,12.283v7.606c0,10.276,3.523,12.285,9.607,12.285c4.923,0,9.477-1.486,9.477-12.285v-7.606
		C154.285,101.646,150.811,99.637,144.808,99.637"/>
	<path fill="#00577B" d="M97.081,136.7c9.557,0,14.364-5.724,14.364-17.174v-7.606c0-11.203-4.148-17.173-14.364-17.173
		c-9.685,0-14.492,5.726-14.492,17.173v7.606C82.589,130.731,86.802,136.7,97.081,136.7"/>
	<path fill="#FFFFFF" d="M97.081,141.588c-8.843,0-19.384-3.828-19.384-22.062v-7.606c0-19.197,12.145-22.061,19.384-22.061
		c8.787,0,19.253,3.828,19.253,22.061v7.606C116.334,133.546,109.318,141.588,97.081,141.588 M97.081,99.637
		c-4.991,0-9.607,1.485-9.607,12.283v7.606c0,10.276,3.523,12.285,9.607,12.285c4.925,0,9.479-1.486,9.479-12.285v-7.606
		C106.56,101.646,103.083,99.637,97.081,99.637"/>
	<path fill="#00577B" d="M164.819,12.648h-11.606c-2.913,0-5.279,2.365-5.279,5.281c0,2.912,2.367,5.279,5.279,5.279h0.367v34.037
		c0,2.912,2.366,5.279,5.279,5.279c2.916,0,5.282-2.367,5.282-5.279V23.209h0.679c2.915,0,5.281-2.367,5.281-5.279
		C170.101,15.014,167.734,12.648,164.819,12.648"/>
</g>
<g>
	<path fill="#FFFFFF" d="M256.855,92.654l35.392,50.512V92.654h17.472v79.744h-15.232l-35.056-50.064v50.064h-17.584V92.654H256.855
		z"/>
	<path fill="#FFFFFF" d="M322.15,92.654h18.48v48.16c0,14.111,2.8,18.144,14.896,18.144c11.984,0,15.008-4.032,15.008-18.144v-48.16
		h18.368v48.048c0,23.185-7.504,33.712-33.376,33.712c-25.871,0-33.375-10.527-33.375-33.712V92.654z"/>
	<path fill="#FFFFFF" d="M401.334,92.654h36.623c16.688,0,24.08,6.496,24.08,19.824v1.232c0,8.176-3.248,13.663-9.855,16.463
		c7.615,2.576,12.096,8.4,12.096,18.256v2.016c0,15.345-9.52,21.953-27.328,21.953h-35.615V92.654z M418.693,106.766v17.36h15.568
		c7.279,0,9.967-2.575,9.967-8.399v-1.344c0-5.377-2.463-7.617-9.184-7.617H418.693z M418.693,158.286h16.912
		c7.951,0,10.752-2.128,10.752-9.185v-1.455c0-7.168-3.024-9.521-11.2-9.521h-16.464V158.286z"/>
	<path fill="#FFFFFF" d="M472.117,138.238V126.59c0-24.191,8.063-36.063,36.399-36.063c27.999,0,36.288,11.088,36.288,36.063v11.648
		c0,24.416-7.953,36.176-36.288,36.176C480.404,174.414,472.117,163.326,472.117,138.238z M508.068,71.039l12.768,14.895h-16.463
		l-15.904-14.895H508.068z M525.652,138.014v-11.088c0-17.472-3.248-20.943-17.136-20.943c-14,0-17.248,3.359-17.248,20.943v11.088
		c0,17.36,3.248,20.944,17.248,20.944C522.404,158.958,525.652,155.598,525.652,138.014z"/>
	<path fill="#FFFFFF" d="M620.291,92.654l-3.023,15.568h-23.969v64.176H574.82v-64.176h-26.656l2.912-15.568H620.291z"/>
	<path fill="#FFFFFF" d="M646.723,92.654v79.744h-18.479V92.654H646.723z"/>
	<path fill="#FFFFFF" d="M677.074,137.454c0,16.128,3.361,19.601,17.809,19.601c4.816,0,9.855,0.111,20.943-0.225l-3.023,15.568
		c-9.295,0.336-14,0.224-18.928,0.224c-26.656,0-35.951-9.072-35.951-35.504v-9.296c0-26.208,9.855-35.393,35.951-35.393
		c4.592,0,10.305-0.111,21.279,0.225l-3.023,15.568c-5.488-0.112-11.76-0.225-17.473-0.225c-14.672,0-17.584,3.248-17.584,19.6
		V137.454z"/>
	<path fill="#FFFFFF" d="M773.506,153.135h-28.672l-6.271,19.264h-18.592l28.783-79.744h21.729l28.895,79.744h-19.375
		L773.506,153.135z M749.314,138.686h19.711l-9.967-29.68L749.314,138.686z"/>
	<path fill="#6BC0DC" d="M806.881,96.238c7.617-0.111,15.457-0.225,25.648-0.225c16.016,0,23.184,7.281,23.184,18.816v2.128
		c0,8.399-2.799,12.656-9.072,15.681c7.168,2.688,10.641,7.728,10.641,16.575v2.464c0,13.776-8.4,20.944-27.664,20.944
		c-9.408,0-18.145,0.112-27.104-0.224l2.688-14.112c6.607,0.112,15.457,0.224,24.863,0.224c6.385,0,9.072-2.464,9.072-7.951v-1.681
		c0-5.823-2.576-8.176-9.631-8.176h-21.168l2.576-13.776h18.256c5.711,0,8.512-2.352,8.512-7.168v-1.791
		c0-5.377-2.352-7.729-8.512-7.729c-7.057,0-15.904,0-24.865,0.111L806.881,96.238z"/>
	<path fill="#6BC0DC" d="M881.473,125.582c3.248-2.352,8.064-3.472,14.225-3.472c16.574,0,24.303,6.608,24.303,24.976v2.128
		c0,17.36-8.4,24.976-27.664,24.976c-19.6,0-27.887-7.728-27.887-28.336v-17.471c0-21.057,6.16-32.369,30.799-32.369
		c5.6,0,10.752-0.111,20.385,0.225l-2.689,14.225c-7.951-0.113-12.654-0.225-18.143-0.225c-11.201,0-13.328,5.6-13.328,13.328
		V125.582z M902.977,148.766v-1.567c0-9.408-2.465-11.983-10.08-11.983c-8.4,0-11.424,2.239-11.424,12.096v1.567
		c0,9.296,3.137,11.983,10.752,11.983C900.289,160.861,902.977,158.174,902.977,148.766z"/>
	<path fill="#6BC0DC" d="M986.641,127.262v14.112c0,22.063-6.16,32.815-29.793,32.815c-23.631,0-29.791-10.752-29.791-32.815
		v-14.112c0-22.063,6.16-32.815,29.791-32.815C980.48,94.446,986.641,105.198,986.641,127.262z M945.424,140.814
		c0,15.791,1.904,19.264,11.424,19.264c9.521,0,11.424-3.473,11.424-19.264v-12.881c0-15.903-1.902-19.375-11.424-19.375
		c-9.52,0-11.424,3.472-11.424,19.375V140.814z"/>
	<path fill="#6BC0DC" d="M994.145,118.303v-6.16c0-15.232,6.607-20.944,23.408-20.944c16.688,0,23.408,5.712,23.408,20.944v6.16
		c0,15.231-6.721,20.943-23.408,20.943C1000.752,139.246,994.145,133.534,994.145,118.303z M1025.84,118.078v-5.712
		c0-7.728-1.119-9.744-8.287-9.744s-8.289,2.017-8.289,9.744v5.712c0,7.84,1.121,9.744,8.289,9.744S1025.84,125.918,1025.84,118.078
		z"/>
</g>
</svg>
