<?xml version="1.0" standalone="no"?>
<!DOCTYPE svg PUBLIC "-//W3C//DTD SVG 1.1//EN" "http://www.w3.org/Graphics/SVG/1.1/DTD/svg11.dtd" >
<svg xmlns="http://www.w3.org/2000/svg">
<metadata></metadata>
<defs>
<font id="prometobold_italic" horiz-adv-x="1218" >
<font-face units-per-em="2048" ascent="1638" descent="-410" />
<missing-glyph horiz-adv-x="473" />
<glyph unicode="&#xfb01;" horiz-adv-x="1212" d="M-6 0l209 1069q48 253 186.5 355t407.5 102q299 0 387 -6l-94 -254q-54 0 -161 2t-132 2q-140 0 -194.5 -39t-74.5 -160h277l-98 -256h-230l-158 -815h-325zM684 0l209 1071h326l-209 -1071h-326z" />
<glyph unicode="&#xfb02;" horiz-adv-x="1239" d="M-6 0l209 1069q49 252 180.5 354.5t388.5 102.5q43 0 148 -6l-93 -254q-36 4 -57 4q-123 0 -171.5 -39.5t-70.5 -159.5h265l-99 -256h-217l-158 -815h-325zM711 0l297 1522h325l-297 -1522h-325z" />
<glyph unicode="&#xfb03;" horiz-adv-x="1921" d="M-6 0l209 1069q49 252 180.5 354.5t388.5 102.5q112 0 174 -6l-92 -254q-54 4 -84 4q-123 0 -171.5 -39.5t-70.5 -159.5h281l-98 -256h-234l-158 -815h-325zM705 0l204 1069q48 253 187 355t409 102q299 0 387 -6l-94 -254q-54 0 -161 2t-132 2q-142 0 -196 -39t-74 -160 h278l-98 -256h-231l-158 -815h-321zM1393 0l209 1071h325l-209 -1071h-325z" />
<glyph unicode="&#xfb04;" horiz-adv-x="1945" d="M-6 0l209 1069q49 252 180.5 354.5t388.5 102.5q112 0 174 -6l-92 -254q-54 4 -84 4q-123 0 -171.5 -39.5t-70.5 -159.5h281l-98 -256h-234l-158 -815h-325zM700 0l209 1069q49 252 181 354.5t389 102.5q42 0 147 -6l-92 -254q-36 4 -57 4q-123 0 -171.5 -39.5 t-70.5 -159.5h264l-98 -256h-217l-158 -815h-326zM1417 0l297 1522h326l-297 -1522h-326z" />
<glyph horiz-adv-x="0" />
<glyph horiz-adv-x="682" />
<glyph horiz-adv-x="0" />
<glyph horiz-adv-x="0" />
<glyph unicode="&#x9;" horiz-adv-x="473" />
<glyph unicode=" "  horiz-adv-x="473" />
<glyph unicode="&#x09;" horiz-adv-x="473" />
<glyph unicode="&#xa0;" horiz-adv-x="473" />
<glyph unicode="!" horiz-adv-x="552" d="M18 115q0 110 48 157t157 47q162 0 162 -133q0 -110 -48 -158t-157 -48q-162 0 -162 135zM117 440l39 314q4 26 10.5 76t10 73.5t10 60.5t14.5 72l82 422h338l-84 -422q-8 -43 -18.5 -86.5t-25 -99t-24.5 -96.5l-80 -314h-272z" />
<glyph unicode="&#x22;" horiz-adv-x="858" d="M147 913l27 240q10 102 25 186l37 183h309l-33 -183q-33 -148 -45 -186l-68 -240h-252zM608 913l27 240q11 113 24 186l37 183h310l-33 -183q-33 -148 -45 -186l-68 -240h-252z" />
<glyph unicode="#" horiz-adv-x="1394" d="M4 309l94 246h176l95 283h-191l94 245h179l104 310h283l-105 -310h248l104 310h281l-104 -310h194l-94 -245h-182l-97 -283h195l-94 -246h-185l-102 -309h-281l105 309h-248l-104 -309h-281l102 309h-186zM555 555h248l96 283h-248z" />
<glyph unicode="$" d="M6 4l98 256q234 -4 363 -4l65 330l-40 12q-167 50 -241.5 131.5t-74.5 202.5q0 37 10 102q30 171 150 260t354 101l39 196h174l-39 -192q78 0 206.5 -2t150.5 -2l-101 -258q-208 4 -307 4l-59 -316l34 -10q160 -49 237 -127.5t77 -208.5q0 -49 -12 -114q-14 -64 -35 -114 t-59 -95.5t-91.5 -76t-132 -51.5t-180.5 -28l-39 -203h-174l39 201q-95 0 -253 3t-159 3zM494 985q0 -40 23 -64t73 -44l49 260q-67 -10 -96 -36t-43 -73q-6 -21 -6 -43zM643 264q67 11 95.5 39t41.5 80q6 24 6 43q0 71 -90 109z" />
<glyph unicode="%" horiz-adv-x="1974" d="M121 852q0 41 10 96l19 101q35 190 130 277t267 87q164 0 248 -73t84 -205q0 -37 -11 -97l-18 -100q-36 -186 -131.5 -275.5t-267.5 -89.5q-161 0 -245.5 72t-84.5 207zM317 0l1110 1393h289l-1110 -1393h-289zM367 860q0 -52 23.5 -71t70.5 -19q40 0 63.5 12.5 t43.5 53.5t36 122l14 70q13 70 13 98q0 54 -23 72.5t-71 18.5q-40 0 -63.5 -12.5t-44 -54t-36.5 -122.5l-12 -70q-14 -72 -14 -98zM1157 260q0 41 10 96l19 101q35 190 130 277t267 87q164 0 248 -73t84 -205q0 -42 -10 -97l-19 -100q-36 -186 -131.5 -275t-267.5 -89 q-161 0 -245.5 71.5t-84.5 206.5zM1403 268q0 -52 23.5 -71t70.5 -19q40 0 63.5 13t43.5 54t36 122l15 69q12 64 12 99q0 53 -22.5 71.5t-71.5 18.5q-40 0 -63.5 -13t-43.5 -54t-36 -122l-13 -69q-14 -72 -14 -99z" />
<glyph unicode="&#x26;" horiz-adv-x="1267" d="M23 340q0 56 12 117q25 128 89 205t175 114q-123 68 -123 238q0 54 10 98q39 185 163 268.5t368 83.5q233 0 409 -4l-96 -248q-205 5 -256 5q-139 0 -195 -28.5t-73 -109.5q-8 -31 -8 -63q0 -70 46 -96.5t148 -26.5h641l-96 -246h-96l-86 -440q-24 -112 -77 -156 t-161 -57q-118 -14 -237 -14q-280 0 -418.5 88t-138.5 272zM356 383q0 -88 62 -123t190 -35q67 0 142 11l79 411h-182q-130 0 -191 -37t-87 -135q-13 -57 -13 -92z" />
<glyph unicode="'" horiz-adv-x="397" d="M147 913l27 240q10 102 25 186l37 183h309l-33 -183q-33 -148 -45 -186l-68 -240h-252z" />
<glyph unicode="(" horiz-adv-x="776" d="M8 47q0 131 35 297l72 375q35 180 78 306t96 211t126 133.5t157.5 68.5t199.5 20h156l-97 -246h-43q-47 0 -78 -3.5t-64.5 -15t-56.5 -33t-47.5 -57t-43.5 -89t-38 -125.5t-38 -170l-74 -379q-33 -149 -33 -258q0 -61 13 -99.5t42.5 -59.5t68 -28.5t98.5 -7.5h73 l-94 -245h-45q-130 0 -220.5 27t-143.5 81t-76 126t-23 171z" />
<glyph unicode=")" horiz-adv-x="776" d="M-150 -358l97 245h43q55 0 90 5t72.5 22.5t62 49.5t50.5 87.5t47.5 135.5t43.5 194l74 379q33 149 33 258q0 116 -51.5 155t-169.5 39h-74l94 246h45q130 0 220.5 -27t143.5 -81t76 -126t23 -171q0 -131 -35 -297l-71 -375q-35 -180 -78 -306t-96.5 -211t-126.5 -133.5 t-157.5 -68.5t-199.5 -20h-156z" />
<glyph unicode="*" horiz-adv-x="913" d="M123 1090l117 229l223 -98l41 256h252l-62 -256l246 92l51 -230l-268 -71l133 -226l-225 -120l-105 217l-192 -224l-180 152l202 207z" />
<glyph unicode="+" d="M129 565l53 266h340l64 338h288l-63 -338h340l-51 -266h-342l-64 -338h-288l63 338h-340z" />
<glyph unicode="," horiz-adv-x="454" d="M-186 -336l196 369q-39 31 -39 96q0 102 47.5 151.5t155.5 49.5q162 0 162 -137q0 -62 -24.5 -114t-90.5 -145l-188 -270h-219z" />
<glyph unicode="-" horiz-adv-x="780" d="M16 457l109 282h668l-107 -282h-670z" />
<glyph unicode="." horiz-adv-x="454" d="M-29 119q0 111 47.5 160t155.5 49q162 0 162 -140q0 -111 -47.5 -159.5t-155.5 -48.5q-162 0 -162 139z" />
<glyph unicode="/" horiz-adv-x="894" d="M-80 0l793 1458h338l-793 -1458h-338z" />
<glyph unicode="0" horiz-adv-x="1245" d="M76 389q0 102 24 225l35 181q32 167 78.5 282t120 195t177 116.5t245.5 36.5q244 0 356.5 -107t112.5 -317q0 -95 -25 -223l-35 -180q-32 -168 -78.5 -283.5t-120 -195t-176.5 -116t-245 -36.5q-244 0 -356.5 107t-112.5 315zM401 387q0 -93 38.5 -127.5t127.5 -34.5 q49 0 81.5 10t60.5 33.5t49 70.5t39.5 113.5t38.5 170.5l28 143q31 164 31 240q0 93 -37.5 127t-126.5 34q-61 0 -98 -14.5t-68.5 -60.5t-53.5 -120t-48 -204l-29 -141q-33 -152 -33 -240z" />
<glyph unicode="1" horiz-adv-x="921" d="M-43 0l96 252h201l172 889h-276l98 252h557l-221 -1141h247l-96 -252h-778z" />
<glyph unicode="2" horiz-adv-x="1112" d="M-6 0l53 279q37 201 114.5 301.5t260.5 177.5l199 84q113 49 143 88q24 36 24 104q0 53 -32.5 77t-114.5 24q-276 0 -463 -7l101 263q176 6 419 6q210 0 312 -81.5t102 -232.5q0 -57 -12 -118q-29 -135 -103.5 -214t-234.5 -145l-227 -94q-83 -32 -115.5 -75.5 t-50.5 -139.5l-9 -33h644l-99 -264h-911z" />
<glyph unicode="3" horiz-adv-x="1073" d="M-68 0l99 258q230 -4 405 -4q99 0 150 37.5t61 126.5q4 28 4 41q0 67 -38 94t-119 27h-359l98 251h304q89 0 134.5 35.5t55.5 118.5q2 14 2 37q0 63 -38.5 89t-117.5 26q-65 0 -204 -1t-213 -1l100 258q53 0 181.5 2t176.5 2q228 0 336.5 -83.5t108.5 -238.5 q0 -54 -8 -90q-33 -198 -217 -272q145 -65 145 -260q0 -54 -4 -72q-31 -199 -168.5 -292t-415.5 -93q-382 0 -459 4z" />
<glyph unicode="4" horiz-adv-x="1200" d="M23 258l28 217l600 918h320l-580 -883h305l74 379l315 51l-84 -430h158l-96 -252h-111l-49 -258h-305l49 258h-624z" />
<glyph unicode="5" horiz-adv-x="1081" d="M-25 0l97 258q192 -4 348 -4q117 0 176 44t72 144q4 32 4 47q0 76 -44 108t-139 32h-380l149 764h848l-98 -258h-504l-49 -256h108q227 0 334 -92t107 -259q0 -68 -15 -139q-46 -208 -188 -300.5t-428 -92.5q-300 0 -398 4z" />
<glyph unicode="6" horiz-adv-x="1159" d="M76 375q0 83 18 178l43 223q37 181 93 301.5t140 191t188 99.5t249 29q266 0 348 -4l-98 -260q-18 0 -86.5 2t-157.5 2q-60 0 -100.5 -4.5t-83.5 -21t-71 -46.5t-52.5 -81.5t-38.5 -125.5q74 62 221 62q195 0 294 -96.5t99 -278.5q0 -47 -10 -125q-76 -453 -534 -453 q-461 0 -461 408zM381 375q0 -162 164 -162q96 0 145 45t72 164q8 47 8 96q0 86 -38.5 124t-125.5 38q-99 0 -145.5 -44t-69.5 -165q-10 -65 -10 -96z" />
<glyph unicode="7" horiz-adv-x="1079" d="M119 1124l104 269h924l-25 -213l-635 -1180h-352l627 1124h-643z" />
<glyph unicode="8" horiz-adv-x="1175" d="M31 313q0 39 6 80q42 268 280 348q-131 70 -131 240q0 21 4 57q23 189 160.5 288t370.5 99q219 0 339 -82t120 -243q0 -48 -9 -94q-23 -114 -83 -182t-160 -101q157 -77 157 -266q0 -54 -8 -95q-33 -194 -169 -294.5t-392 -100.5q-247 0 -366 93t-119 253zM348 354 q0 -75 47 -111t146 -36t152 41t73 139q8 36 8 72q0 75 -45.5 111t-146.5 36q-93 0 -148.5 -40t-77.5 -140q-8 -36 -8 -72zM481 967q0 -69 45.5 -99t135.5 -30q86 0 138 35t70 124q9 30 9 64q0 133 -183 133q-83 0 -135.5 -35.5t-71.5 -126.5q-8 -31 -8 -65z" />
<glyph unicode="9" horiz-adv-x="1155" d="M53 0l99 260q18 0 86 -2t157 -2q60 0 100.5 4.5t83.5 21t71 46.5t52.5 81.5t38.5 125.5q-74 -62 -221 -62q-195 0 -294 96.5t-99 278.5q0 47 10 125q16 102 53 181t86.5 129.5t115 83t133.5 45.5t147 13q461 0 461 -407q0 -78 -19 -178l-43 -224q-37 -181 -93 -301.5 t-140 -190.5t-188 -99t-249 -29q-266 0 -348 4zM438 874q0 -86 38.5 -123.5t125.5 -37.5q99 0 145.5 44t69.5 165q10 65 10 96q0 162 -163 162q-96 0 -145.5 -45t-72.5 -164q-8 -47 -8 -97z" />
<glyph unicode=":" horiz-adv-x="454" d="M-29 119q0 111 47.5 160t155.5 49q162 0 162 -140q0 -111 -47.5 -159.5t-155.5 -48.5q-162 0 -162 139zM117 874q0 111 47 160t155 49q162 0 162 -139q0 -111 -47 -160t-155 -49q-162 0 -162 139z" />
<glyph unicode=";" horiz-adv-x="454" d="M-186 -336l196 369q-39 31 -39 96q0 102 47.5 151.5t155.5 49.5q162 0 162 -137q0 -62 -24.5 -114t-90.5 -145l-188 -270h-219zM117 874q0 111 47 160t155 49q162 0 162 -139q0 -111 -47 -160t-155 -49q-162 0 -162 139z" />
<glyph unicode="&#x3c;" d="M162 555l55 285l973 362l-57 -289l-654 -225l565 -225l-51 -268z" />
<glyph unicode="=" d="M121 348l53 266h903l-53 -266h-903zM207 791l51 266h903l-51 -266h-903z" />
<glyph unicode="&#x3e;" d="M90 195l57 288l654 226l-565 225l51 268l831 -360l-55 -285z" />
<glyph unicode="?" horiz-adv-x="997" d="M119 115q0 110 48 157t157 47q161 0 161 -133q0 -110 -47.5 -158t-156.5 -48q-162 0 -162 135zM150 1196l100 264q104 6 366 6q220 0 327.5 -80t107.5 -247q0 -32 -7 -86q-10 -80 -37.5 -140t-76.5 -105t-106 -77t-140 -65q-69 -27 -99 -45.5t-47.5 -51t-29.5 -96.5 l-8 -39h-305l10 64q15 89 35 143.5t59 97t88 69.5t137 62q106 42 143.5 74.5t49.5 95.5q6 30 6 56q0 57 -36.5 81.5t-127.5 24.5q-251 0 -409 -6z" />
<glyph unicode="@" horiz-adv-x="1585" d="M27 123q0 147 32 299q33 174 85.5 300t122.5 209.5t169 132.5t212.5 69t264.5 20q611 0 611 -403q0 -60 -15 -134l-73 -380q-24 -116 -75.5 -158.5t-168.5 -54.5q-124 -13 -240 -13q-227 0 -328.5 65.5t-101.5 211.5q0 33 15 121q31 144 130 220.5t285 76.5t258 -66l4 25 q9 37 9 69q0 93 -74 129.5t-254 36.5q-96 0 -164.5 -11t-130 -40.5t-104 -82t-75.5 -134t-56 -197.5q-37 -185 -37 -284q0 -195 127.5 -270t455.5 -75q217 0 338 7l-96 -250q-125 -8 -322 -8q-421 0 -612.5 130t-191.5 439zM825 326q0 -57 36 -75t122 -18q64 0 150 11 l20 102q6 24 6 47q0 53 -38 73.5t-122 20.5q-82 0 -119 -22.5t-49 -87.5q-6 -30 -6 -51z" />
<glyph unicode="A" horiz-adv-x="1470" d="M-82 0l819 1458h371l238 -1458h-336l-47 352h-514l-187 -352h-344zM580 616h354l-68 537z" />
<glyph unicode="B" horiz-adv-x="1300" d="M14 0l285 1458h557q210 0 328.5 -79t118.5 -249q0 -28 -11 -100q-18 -97 -76 -167.5t-143 -106.5q160 -69 160 -279q0 -41 -6 -84q-30 -207 -174.5 -300t-395.5 -93h-643zM379 258h266q129 0 186 35t74 127q6 38 6 67q0 77 -48 108.5t-150 31.5h-262zM500 883h254 q109 0 157 32t66 111q4 15 4 53q0 66 -41.5 93.5t-130.5 27.5h-248z" />
<glyph unicode="C" horiz-adv-x="1155" d="M92 506q0 108 25 246q30 165 82 287t121.5 203t165.5 130t205.5 69.5t250.5 20.5q154 0 324 -6l-109 -285q-121 7 -235 7q-108 0 -180 -20t-127.5 -72t-90 -136t-61.5 -217q-25 -128 -25 -205q0 -140 72 -192.5t229 -52.5q67 0 169 2t161 2l-108 -285q-109 -6 -279 -6 q-162 0 -277.5 35.5t-183 103.5t-98.5 159t-31 212z" />
<glyph unicode="D" horiz-adv-x="1423" d="M14 0l285 1458h477q317 0 473 -126t156 -400q0 -83 -23 -221q-29 -169 -84.5 -294.5t-129.5 -204.5t-175.5 -127t-209.5 -66.5t-246 -18.5h-523zM406 283h169q85 0 143.5 9t113.5 36t92 76.5t66.5 128.5t49.5 194q21 114 21 193q0 147 -76 201.5t-244 54.5h-159z" />
<glyph unicode="E" horiz-adv-x="1234" d="M14 0l285 1458h1042l-108 -284h-666l-55 -289h653l-108 -285h-598l-64 -315h752l-109 -285h-1024z" />
<glyph unicode="F" horiz-adv-x="1159" d="M14 0l285 1458h1010l-109 -284h-633l-61 -320h602l-107 -285h-550l-111 -569h-326z" />
<glyph unicode="G" horiz-adv-x="1355" d="M92 504q0 104 29 252q32 169 85.5 291t124 202t169.5 127.5t211 66.5t260 19q258 0 405 -6l-108 -282q-117 6 -344 6q-111 0 -184.5 -19.5t-129.5 -71t-91 -136.5t-60 -220q-25 -128 -25 -207q0 -134 69.5 -189.5t231.5 -55.5q96 0 137 2l52 264h-211l108 278h496 l-117 -606q-20 -106 -67 -152t-140 -57q-89 -12 -309 -12q-160 0 -275 35t-184 102.5t-101 158.5t-32 210z" />
<glyph unicode="H" horiz-adv-x="1464" d="M14 0l285 1458h338l-111 -567h551l111 567h338l-285 -1458h-338l117 594h-553l-115 -594h-338z" />
<glyph unicode="I" horiz-adv-x="575" d="M14 0l285 1458h338l-285 -1458h-338z" />
<glyph unicode="J" horiz-adv-x="964" d="M-66 0l107 285q63 -2 174 -2q67 0 111.5 9t81.5 34.5t60 72.5t38 121l182 938h338l-188 -960q-27 -141 -70 -234.5t-114 -154.5t-170 -87t-242 -26q-198 0 -308 4z" />
<glyph unicode="K" horiz-adv-x="1351" d="M14 0l285 1458h319l-114 -594l581 594h390l-707 -715l496 -743h-402l-405 623l-121 -623h-322z" />
<glyph unicode="L" horiz-adv-x="1144" d="M14 0l285 1458h338l-229 -1173h659l-109 -285h-944z" />
<glyph unicode="M" horiz-adv-x="1679" d="M14 0l285 1458h344l227 -751l514 751h355l-283 -1458h-315l184 942l-364 -534h-275l-170 548l-186 -956h-316z" />
<glyph unicode="N" horiz-adv-x="1454" d="M14 0l285 1458h274l443 -936l182 936h315l-282 -1458h-279l-438 932l-180 -932h-320z" />
<glyph unicode="O" horiz-adv-x="1468" d="M92 485q0 122 27 269q37 210 100 353.5t159.5 229.5t217.5 123t285 37q287 0 428 -125.5t141 -398.5q0 -101 -27 -266q-36 -210 -100 -353.5t-160.5 -229.5t-218 -123.5t-285.5 -37.5q-286 0 -426.5 125t-140.5 397zM438 489q0 -141 58 -192t190 -51q72 0 122 11.5 t92.5 40.5t73 83.5t55 135t46.5 200.5q29 168 29 256q0 140 -58 190.5t-188 50.5q-90 0 -147.5 -18t-105.5 -70.5t-79.5 -143t-58.5 -239.5q-29 -168 -29 -254z" />
<glyph unicode="P" horiz-adv-x="1308" d="M14 0l285 1458h492q267 0 402.5 -95t135.5 -296q0 -57 -12 -121q-17 -105 -57.5 -184.5t-97 -130.5t-134.5 -82.5t-163 -44t-191 -12.5h-234l-96 -492h-330zM492 766h206q148 0 209.5 39.5t81.5 144.5q8 36 8 78q0 85 -52.5 120.5t-166.5 35.5h-205z" />
<glyph unicode="Q" horiz-adv-x="1468" d="M92 485q0 122 27 269q37 210 100 353.5t159.5 229.5t217.5 123t285 37q287 0 428 -125.5t141 -398.5q0 -101 -27 -266q-56 -316 -177 -487t-318 -224l274 -264h-389l-242 235q-242 19 -360.5 143.5t-118.5 374.5zM438 489q0 -141 58 -192t190 -51q72 0 122 11.5 t92.5 40.5t73 83.5t55 135t46.5 200.5q29 168 29 256q0 140 -58 190.5t-188 50.5q-90 0 -147.5 -18t-105.5 -70.5t-79.5 -143t-58.5 -239.5q-29 -168 -29 -254z" />
<glyph unicode="R" horiz-adv-x="1331" d="M14 0l285 1458h506q526 0 526 -385q0 -49 -10 -117q-55 -318 -346 -403l225 -553h-348l-197 512h-221l-100 -512h-320zM485 778h222q147 0 207.5 39t80.5 144q9 40 9 73q0 83 -52.5 116.5t-167.5 33.5h-221z" />
<glyph unicode="S" horiz-adv-x="1202" d="M-35 0l105 274q104 -4 440 -4q129 0 188 27t76 104q4 28 4 41q0 48 -30.5 76t-96.5 49l-174 54q-174 55 -246.5 137t-72.5 205q0 55 12 120q20 108 72.5 183t136.5 117.5t184.5 60.5t231.5 18q287 0 467 -4l-107 -272q-106 0 -240.5 1t-195.5 1q-99 0 -152 -28t-65 -89 q-6 -24 -6 -47q0 -46 27.5 -71t92.5 -44l189 -59q167 -53 239 -139t72 -209q0 -54 -12 -115q-43 -221 -191.5 -306t-449.5 -85q-54 0 -224.5 2t-273.5 2z" />
<glyph unicode="T" horiz-adv-x="1357" d="M152 1174l106 284h1245l-108 -284h-426l-230 -1174h-338l230 1174h-479z" />
<glyph unicode="U" horiz-adv-x="1421" d="M102 408q0 90 17 167l172 883h338l-180 -921q-11 -71 -11 -105q0 -98 55.5 -142t180.5 -44q139 0 203 62.5t96 230.5l180 919h338l-182 -942q-56 -296 -213 -424.5t-443 -128.5q-551 0 -551 445z" />
<glyph unicode="V" horiz-adv-x="1388" d="M199 1458h350l108 -1079l537 1079h352l-772 -1458h-381z" />
<glyph unicode="W" horiz-adv-x="1918" d="M213 1458h334l-12 -1055l454 1055h303l33 -1050l408 1050h331l-622 -1458h-355l-34 997l-432 -997h-363z" />
<glyph unicode="X" horiz-adv-x="1390" d="M-106 0l665 780l-315 678h352l197 -454l354 454h371l-590 -713l354 -745h-367l-223 520l-428 -520h-370z" />
<glyph unicode="Y" horiz-adv-x="1372" d="M188 1458h361l184 -598l434 598h373l-678 -862l-117 -596h-337l114 594z" />
<glyph unicode="Z" horiz-adv-x="1267" d="M-37 0l47 246l860 930h-677l108 282h1045l-48 -250l-856 -925h727l-108 -283h-1098z" />
<glyph unicode="[" horiz-adv-x="759" d="M-55 -358l352 1816h606l-94 -250h-256l-256 -1317h303l-96 -249h-559z" />
<glyph unicode="\" horiz-adv-x="894" d="M203 1458h307l258 -1458h-305z" />
<glyph unicode="]" horiz-adv-x="759" d="M-141 -358l94 249h256l256 1317h-303l96 250h559l-352 -1816h-606z" />
<glyph unicode="^" d="M168 809l457 649h323l213 -649h-295l-118 393l-267 -393h-313z" />
<glyph unicode="_" horiz-adv-x="1026" d="M-176 -383l53 272h1024l-53 -272h-1024z" />
<glyph unicode="`" horiz-adv-x="1024" d="M418 1503h340l162 -278h-293z" />
<glyph unicode="a" horiz-adv-x="1140" d="M29 268q0 69 12 121q34 147 140.5 223t303.5 76q198 0 273 -67l8 41q6 27 6 49q0 63 -44.5 87.5t-141.5 24.5q-292 0 -396 -4l93 252q53 4 335 4q231 0 342 -80t111 -252q0 -51 -14 -137l-76 -397q-24 -115 -76 -159t-166 -56q-144 -12 -295 -12q-212 0 -313.5 69 t-101.5 217zM334 305q0 -58 39.5 -77t136.5 -19q92 0 170 10l18 96q4 11 4 45q0 64 -43.5 86.5t-130.5 22.5q-93 0 -135.5 -24.5t-54.5 -90.5q-4 -15 -4 -49z" />
<glyph unicode="b" horiz-adv-x="1214" d="M80 358q0 94 20 191l191 973h325l-94 -480q83 62 228 62q403 0 403 -404q0 -92 -20 -198q-53 -279 -191 -407t-395 -128q-233 0 -350 93t-117 298zM403 383q0 -90 37.5 -125t122.5 -35q74 0 116.5 22.5t71.5 79.5t54 171q26 110 26 190q0 94 -40.5 129t-126.5 35 q-106 0 -154 -56t-82 -221q-25 -125 -25 -190z" />
<glyph unicode="c" horiz-adv-x="956" d="M61 379q0 81 19 186q24 125 66.5 215.5t97 147t131.5 90t158.5 45.5t189.5 12q27 0 121 -2t141 -2l-96 -256q-114 4 -191 4q-94 0 -147.5 -20t-88.5 -76t-54 -162q-21 -95 -21 -151q0 -93 46.5 -125.5t160.5 -32.5q190 0 268 4l-98 -256q-144 -4 -219 -4 q-262 0 -373 97.5t-111 285.5z" />
<glyph unicode="d" horiz-adv-x="1198" d="M61 395q0 84 21 195q22 120 61 210.5t88 147.5t113 92.5t130.5 49.5t146.5 14q168 0 249 -78l97 496h325l-256 -1313q-24 -121 -78 -164t-180 -55q-76 -8 -205 -8q-121 0 -212 20.5t-160 67.5t-104.5 128t-35.5 197zM385 412q0 -98 46 -136t144 -38q66 0 144 10l69 360 q11 64 11 92q0 82 -41.5 115t-124.5 33q-99 0 -147 -54t-80 -210q-21 -102 -21 -172z" />
<glyph unicode="e" horiz-adv-x="1112" d="M61 379q0 81 19 178q24 132 68.5 230.5t99 158t127.5 96t144.5 49.5t158.5 13q412 0 412 -301q-3 -53 -15 -111q-35 -153 -151 -217.5t-342 -64.5h-215v-33q2 -76 47 -111t149 -35q204 0 373 11l-92 -236q-105 -10 -342 -10q-123 0 -211 28t-137 81t-71 120t-22 154z M410 635h178q101 0 139.5 19t56.5 73q9 24 9 53q0 92 -140 92q-104 0 -157.5 -52t-85.5 -185z" />
<glyph unicode="f" horiz-adv-x="747" d="M-6 0l209 1069q49 252 180.5 354.5t388.5 102.5q150 0 229 -6l-92 -254q-94 4 -139 4q-123 0 -171.5 -39.5t-70.5 -159.5h336l-98 -256h-289l-158 -815h-325z" />
<glyph unicode="g" horiz-adv-x="1214" d="M31 -356l102 264q288 -6 326 -6q116 0 172 41t76 145l4 21q-83 -62 -238 -62q-195 0 -298 95.5t-103 289.5q0 100 16 172q49 263 189 381.5t393 118.5q232 0 350.5 -90.5t118.5 -286.5q0 -72 -19 -172l-88 -455q-47 -244 -181.5 -353t-385.5 -109q-287 0 -434 6zM393 461 q0 -84 41 -117t127 -33q104 0 155 46.5t79 181.5q18 91 18 151q0 84 -41 117t-127 33q-104 0 -154.5 -46.5t-78.5 -181.5q-19 -97 -19 -151z" />
<glyph unicode="h" horiz-adv-x="1191" d="M-6 0l297 1522h325l-94 -482q86 64 238 64q171 0 269.5 -81.5t98.5 -246.5q0 -65 -14 -131l-125 -645h-325l127 651q8 36 8 70q0 64 -35 91.5t-107 27.5q-102 0 -146.5 -40t-64.5 -149l-127 -651h-325z" />
<glyph unicode="i" horiz-adv-x="522" d="M-6 0l209 1071h325l-209 -1071h-325zM221 1331q0 104 55.5 147.5t155.5 43.5q82 0 123 -28.5t41 -92.5q0 -104 -53 -147.5t-158 -43.5q-164 0 -164 121z" />
<glyph unicode="j" horiz-adv-x="522" d="M-362 -358l94 254q33 -2 88 -2q86 0 127.5 40.5t62.5 151.5l193 985h325l-200 -1026q-45 -224 -155.5 -315.5t-313.5 -91.5q-173 0 -221 4zM221 1331q0 104 55.5 147.5t155.5 43.5q82 0 123 -28.5t41 -92.5q0 -104 -53 -147.5t-158 -43.5q-164 0 -164 121z" />
<glyph unicode="k" horiz-adv-x="1167" d="M-6 0l297 1522h311l-162 -838l406 387h385l-539 -508l377 -563h-373l-299 469l-90 -469h-313z" />
<glyph unicode="l" horiz-adv-x="522" d="M-6 0l297 1522h325l-297 -1522h-325z" />
<glyph unicode="m" horiz-adv-x="1761" d="M-4 0l129 668q44 228 163 332t335 104q228 0 321 -121q107 121 336 121q201 0 308.5 -84.5t107.5 -253.5q0 -53 -13 -129l-124 -637h-326l129 657q8 36 8 72q0 59 -33.5 85t-97.5 26q-78 0 -113.5 -40.5t-56.5 -142.5l-129 -657h-326l129 657q9 41 9 72q0 59 -33.5 85 t-97.5 26q-78 0 -113.5 -40.5t-56.5 -142.5l-129 -657h-326z" />
<glyph unicode="n" horiz-adv-x="1189" d="M-6 0l131 668q44 239 171.5 337.5t383.5 98.5q446 0 446 -342q0 -43 -14 -125l-123 -637h-325l127 651q8 36 8 70q0 119 -142 119q-102 0 -146.5 -40t-64.5 -149l-127 -651h-325z" />
<glyph unicode="o" horiz-adv-x="1196" d="M61 365q0 89 21 200q54 288 193.5 413.5t402.5 125.5q229 0 343 -93.5t114 -303.5q0 -79 -23 -201q-52 -288 -191.5 -413.5t-402.5 -125.5q-231 0 -344 93.5t-113 304.5zM385 381q0 -89 38.5 -123.5t123.5 -34.5q108 0 157.5 58t81.5 221q25 125 25 188q0 90 -39 124 t-125 34q-109 0 -156.5 -57.5t-80.5 -219.5q-25 -128 -25 -190z" />
<glyph unicode="p" horiz-adv-x="1214" d="M-76 -358l185 942q56 285 190.5 402.5t382.5 117.5q241 0 356 -95.5t115 -303.5q0 -80 -23 -211q-55 -277 -186 -402t-352 -125q-182 0 -262 80l-80 -405h-326zM403 385q0 -93 40.5 -127.5t129.5 -34.5q101 0 149.5 55t84.5 220q24 123 24 190q0 94 -39.5 127t-123.5 33 q-106 0 -154 -53t-84 -217q-27 -120 -27 -193z" />
<glyph unicode="q" horiz-adv-x="1216" d="M61 371q0 86 21 200q51 278 190 405.5t396 127.5q237 0 354 -92t117 -295q0 -70 -23 -195l-172 -880h-326l76 387q-85 -60 -229 -60q-404 0 -404 402zM383 385q0 -93 40.5 -127.5t129.5 -34.5q101 0 149 55t84 220q25 128 25 190q0 94 -40 127t-124 33q-106 0 -153.5 -53 t-83.5 -217q-27 -135 -27 -193z" />
<glyph unicode="r" horiz-adv-x="782" d="M-6 0l123 629q27 136 72 224.5t115 137.5t152 67.5t199 18.5q149 0 217 -6l-100 -262q-82 4 -108 4q-114 0 -157.5 -40.5t-68.5 -164.5l-119 -608h-325z" />
<glyph unicode="s" horiz-adv-x="995" d="M-45 0l84 252q100 -4 397 -4q57 0 88 7t47 26q15 21 15 47q0 25 -19 37.5t-65 23.5l-193 51q-223 65 -223 262q0 31 10 89q29 148 145.5 216t338.5 68q134 0 421 -8l-92 -250q-213 6 -368 6q-58 0 -85.5 -4t-43.5 -20q-17 -17 -17 -49q0 -23 16 -33.5t56 -22.5l174 -47 q133 -36 195.5 -97.5t62.5 -168.5q0 -50 -12 -109q-29 -142 -153.5 -209t-354.5 -67q-324 0 -424 4z" />
<glyph unicode="t" horiz-adv-x="806" d="M63 301q0 41 15 129l174 897l334 39l-58 -295h328l-98 -256h-279l-76 -393q-8 -31 -8 -70q0 -51 28.5 -74.5t96.5 -23.5q21 0 110.5 1t100.5 1l-98 -256q-7 0 -97.5 -1t-123.5 -1q-349 0 -349 303z" />
<glyph unicode="u" horiz-adv-x="1185" d="M66 309q0 67 12 125l125 637h325l-127 -651q-8 -36 -8 -70q0 -64 33.5 -91.5t103.5 -27.5q102 0 144.5 38.5t64.5 150.5l127 651h326l-129 -665q-45 -241 -172 -340t-383 -99q-442 0 -442 342z" />
<glyph unicode="v" horiz-adv-x="1132" d="M123 1071h336l67 -752l355 752h336l-564 -1071h-370z" />
<glyph unicode="w" horiz-adv-x="1601" d="M129 1071h315l13 -725l309 725h276l27 -721l297 721h315l-512 -1071h-317l-25 672l-288 -672h-316z" />
<glyph unicode="x" horiz-adv-x="1146" d="M-84 0l487 582l-249 489h335l134 -295l225 295h348l-451 -539l275 -532h-340l-152 326l-262 -326h-350z" />
<glyph unicode="y" horiz-adv-x="1187" d="M4 -356l102 264q300 -6 326 -6q114 0 170.5 41.5t79.5 148.5l4 21q-84 -66 -231 -66q-181 0 -277 81.5t-96 244.5q0 61 12 131l111 567h325l-110 -571q-8 -41 -8 -70q0 -64 33.5 -91.5t103.5 -27.5q103 0 146 38.5t65 150.5l110 571h326l-188 -965q-49 -249 -184 -358.5 t-384 -109.5q-289 0 -436 6z" />
<glyph unicode="z" horiz-adv-x="1067" d="M-16 0l34 207l580 608h-479l96 256h854l-35 -207l-579 -608h506l-97 -256h-880z" />
<glyph unicode="{" horiz-adv-x="806" d="M6 422l49 256h47q72 0 105 32t47 109l57 287q36 190 146.5 271t322.5 81h178l-94 -244h-82q-85 0 -122 -29t-54 -110l-59 -301q-18 -95 -58.5 -147t-123.5 -76q100 -37 100 -168q0 -38 -8 -74l-54 -276q-6 -34 -6 -58q0 -50 29 -70t96 -20h148l-95 -243h-124 q-182 0 -272.5 72t-90.5 204q0 37 10 92l56 289q6 24 6 45q0 42 -23 60t-78 18h-53z" />
<glyph unicode="|" horiz-adv-x="532" d="M-70 -358l363 1880h325l-362 -1880h-326z" />
<glyph unicode="}" horiz-adv-x="806" d="M-147 -358l94 243h82q85 0 122 29t54 111l59 301q18 95 58.5 147t123.5 76q-100 37 -100 168q0 38 8 74l54 276q6 35 6 57q0 50 -29 70t-96 20h-148l95 244h124q182 0 272.5 -72t90.5 -204q0 -37 -10 -92l-56 -289q-6 -24 -6 -45q0 -42 23 -60t78 -18h53l-49 -256h-47 q-72 0 -105 -32t-47 -109l-57 -287q-36 -190 -146.5 -271t-322.5 -81h-178z" />
<glyph unicode="~" d="M104 498l9 43q38 204 113 292.5t202 88.5q56 0 102 -18t125 -62l35 -19q57 -31 84.5 -42t52.5 -11q32 0 52 22t30 78l6 31h259l-9 -43q-41 -203 -115.5 -293t-199.5 -90q-53 0 -96 16.5t-113 53.5q-12 7 -18 10l-35 18q-61 33 -88 44.5t-51 11.5q-32 0 -51.5 -21.5 t-30.5 -79.5l-7 -30h-256z" />
<glyph unicode="&#xa1;" horiz-adv-x="552" d="M-68 -397l84 422q17 93 68 282l80 314h272l-39 -314q-12 -99 -45 -282l-82 -422h-338zM168 874q0 110 48 158.5t157 48.5q162 0 162 -135q0 -110 -48 -157.5t-157 -47.5q-162 0 -162 133z" />
<glyph unicode="&#xa2;" d="M166 377q0 91 20 188q25 133 68.5 225.5t111 151t153.5 89t204 40.5l39 197h174l-37 -193q93 0 195 -4l-95 -252q-31 0 -149 4l-113 -575q64 0 232 4l-92 -252q-94 -4 -189 -4l-37 -193h-174l39 199q-83 11 -146 38t-101.5 61.5t-62 81.5t-32 93t-8.5 101zM465 414 q0 -64 22.5 -101.5t77.5 -54.5l109 555q-85 -18 -127.5 -77.5t-63.5 -174.5q-18 -89 -18 -147z" />
<glyph unicode="&#xa3;" d="M2 0l98 256h105l65 328h-155l98 256h106l23 114q46 230 190.5 336.5t389.5 106.5q67 0 191.5 -2t146.5 -2l-97 -256q-73 4 -231 4q-128 0 -193.5 -48.5t-89.5 -174.5l-14 -78h389l-96 -256h-344l-64 -328h551l-96 -256h-973z" />
<glyph unicode="&#xa4;" d="M94 354l131 131q-69 109 -69 240q0 128 69 240l-131 131l174 174l140 -140q110 64 239 64q130 0 240 -64l139 140l174 -174l-131 -131q70 -113 70 -240q0 -130 -70 -240l131 -131l-176 -174l-139 139q-108 -63 -238 -63q-128 0 -239 63l-138 -139zM399 727 q0 -107 67 -175.5t181 -68.5t181 68.5t67 175.5t-67 175.5t-181 68.5t-181 -68.5t-67 -175.5z" />
<glyph unicode="&#xa5;" d="M88 248l39 205h301l23 110h-304l41 205h211l-213 625h340l140 -523l356 523h352l-465 -625h207l-39 -205h-309l-20 -110h307l-39 -205h-307l-50 -248h-319l49 248h-301z" />
<glyph unicode="&#xa6;" horiz-adv-x="532" d="M-70 -358l129 673h326l-129 -673h-326zM164 848l131 674h326l-132 -674h-325z" />
<glyph unicode="&#xa7;" horiz-adv-x="1214" d="M-57 -371l94 252q112 -4 463 -4q90 0 135.5 18t62.5 66q9 24 9 47q0 35 -25 55.5t-78 34.5l-221 58q-129 31 -211 111.5t-82 195.5q0 52 14 98q30 108 84.5 171.5t151.5 94.5q-139 72 -139 232q0 51 12 110q20 84 68.5 143t121.5 91.5t157 46.5t190 14q332 0 479 -4 l-96 -256q-133 4 -441 4q-72 0 -111 -16.5t-57 -52.5q-12 -27 -12 -58q0 -35 21 -54.5t69 -31.5l234 -57q292 -73 292 -297q0 -43 -12 -96q-24 -107 -87.5 -178.5t-151.5 -96.5q141 -78 141 -237q0 -49 -12 -101q-18 -75 -56.5 -130.5t-89 -89t-120 -53.5t-138.5 -27 t-156 -7q-38 0 -229 2t-274 2zM391 508q0 -93 119 -123l78 -18q32 -7 49 -7q73 0 118 53t64 136q4 28 4 39q0 94 -118 123l-78 18q-27 6 -49 6q-73 0 -118.5 -52.5t-64.5 -135.5q-4 -28 -4 -39z" />
<glyph unicode="&#xa8;" horiz-adv-x="1024" d="M301 1329q0 93 43 135.5t141 42.5q144 0 144 -112q0 -93 -43.5 -135.5t-141.5 -42.5q-143 0 -143 112zM717 1329q0 93 42.5 135.5t141.5 42.5q141 0 141 -112q0 -93 -42.5 -135.5t-139.5 -42.5q-143 0 -143 112z" />
<glyph unicode="&#xa9;" horiz-adv-x="1757" d="M119 729q0 218 41 363.5t136.5 240t245 135.5t373.5 41q222 0 370 -39.5t245 -132.5t138.5 -240t41.5 -368q0 -218 -41 -363.5t-136.5 -240t-245 -135.5t-372.5 -41t-371.5 39.5t-245 132.5t-138 240t-41.5 368zM350 729q0 -119 9.5 -202t35 -149.5t64.5 -106.5 t104.5 -66.5t148.5 -36.5t201 -10q120 0 203.5 10t149 36t104.5 66t64.5 106.5t35 149.5t9.5 203q0 119 -9.5 202t-35 149.5t-64.5 106.5t-104.5 66.5t-149.5 36.5t-203 10t-201.5 -10t-148 -36t-104.5 -66t-64.5 -106.5t-35 -149.5t-9.5 -203zM549 682v94q0 110 18.5 182 t66.5 124t131.5 75t211.5 23q89 0 221 -4l-45 -224q-76 2 -168 2q-51 0 -76 -4.5t-44 -24t-24 -53.5t-5 -98v-90q0 -64 5.5 -97.5t26.5 -53.5t49.5 -24.5t86.5 -4.5q133 0 192 2l-45 -225q-74 -2 -174 -2q-240 0 -334 89.5t-94 313.5z" />
<glyph unicode="&#xaa;" horiz-adv-x="905" d="M115 838q0 37 10 92q25 119 109 177t245 58q150 0 213 -47l4 17q6 27 6 51q0 46 -31.5 66t-113.5 20q-190 0 -315 -2l73 198q157 5 267 5q183 0 277.5 -60.5t94.5 -202.5q0 -50 -12 -108l-61 -320q-18 -88 -64 -123t-139 -43q-76 -8 -199 -8q-188 0 -276 54t-88 176z M371 868q0 -41 31 -57t104 -18q73 0 125 8l16 86q4 28 4 31q0 43 -32 59t-103 16q-75 0 -104 -20t-37 -70q-4 -28 -4 -35z" />
<glyph unicode="&#xab;" horiz-adv-x="1163" d="M31 373l61 325l531 326l-62 -313l-305 -183l233 -186l-57 -297zM582 373l63 325l529 326l-62 -313l-305 -183l233 -186l-57 -297z" />
<glyph unicode="&#xac;" d="M145 711l54 268h944l-115 -590h-291l62 322h-654z" />
<glyph unicode="&#xad;" horiz-adv-x="780" d="M16 457l109 282h668l-107 -282h-670z" />
<glyph unicode="&#xae;" horiz-adv-x="1241" d="M150 991q0 297 129 421t432 124t433 -124.5t130 -420.5t-130 -420.5t-433 -124.5t-432 124t-129 421zM322 991q0 -121 16.5 -193t62 -118.5t118 -63t192.5 -16.5t192.5 16.5t118 63t62 118.5t16.5 193t-16.5 193t-62 118.5t-118 63t-192.5 16.5t-192.5 -16.5t-118 -63 t-62 -118.5t-16.5 -193zM485 727v543h258q117 0 166 -42t49 -141v-24q0 -56 -19.5 -92t-66.5 -60l105 -184h-193l-77 156h-48v-156h-174zM659 1012h56q43 0 57 9.5t14 43.5v14q0 35 -14.5 45.5t-56.5 10.5h-56v-123z" />
<glyph unicode="&#xaf;" horiz-adv-x="1024" d="M322 1239l40 219h656l-43 -219h-653z" />
<glyph unicode="&#xb0;" horiz-adv-x="757" d="M160 1212q0 326 350 326q352 0 352 -326q0 -327 -352 -327q-350 0 -350 327zM375 1212q0 -77 31 -109t104 -32q74 0 104.5 31.5t30.5 109.5t-30.5 110t-104.5 32q-73 0 -104 -32.5t-31 -109.5z" />
<glyph unicode="&#xb1;" d="M43 2l53 266h910l-52 -266h-911zM154 688l53 266h340l63 338h289l-63 -338h340l-52 -266h-342l-63 -338h-289l64 338h-340z" />
<glyph unicode="&#xb2;" horiz-adv-x="798" d="M117 590l28 145q25 131 75.5 199t154.5 104l123 45q32 12 45.5 23.5t19.5 30.5q4 12 4 28q0 25 -18 36t-64 11q-193 0 -264 -4l68 183q69 4 241 4q279 0 279 -193q0 -26 -6 -61q-17 -84 -62.5 -131.5t-138.5 -83.5l-117 -43q-48 -17 -67.5 -37.5t-26.5 -61.5l-2 -8h377 l-61 -186h-588z" />
<glyph unicode="&#xb3;" horiz-adv-x="798" d="M102 590l70 182q28 0 119 -1t141 -1q55 0 76 18q27 21 27 64q0 33 -20.5 45t-65.5 12h-226l68 174h190q48 0 68 17q24 21 24 57q0 29 -19.5 41t-59.5 12q-187 0 -263 -2l74 185q72 2 252 2q123 0 189.5 -47.5t66.5 -135.5q0 -61 -20 -100q-18 -42 -43.5 -68.5 t-69.5 -44.5q94 -37 94 -153q0 -21 -4 -53q-37 -205 -340 -205q-30 0 -169 1t-159 1z" />
<glyph unicode="&#xb4;" horiz-adv-x="1024" d="M362 1225l265 278h350l-311 -278h-304z" />
<glyph unicode="&#xb5;" horiz-adv-x="1196" d="M-74 -358l277 1429h323l-127 -651q-6 -23 -6 -60q0 -66 44 -94t143 -28q67 0 135 10l162 823h325l-168 -862q-24 -118 -78.5 -162.5t-179.5 -56.5q-55 -8 -166 -8q-204 0 -288 65l-78 -405h-318z" />
<glyph unicode="&#xb6;" horiz-adv-x="1353" d="M135 903q0 61 15 135q41 217 180 319.5t377 102.5h714l-354 -1818h-250l309 1589h-172l-309 -1589h-248l178 917h-49q-86 0 -155.5 18.5t-123 58.5t-83 107.5t-29.5 159.5z" />
<glyph unicode="&#xb7;" horiz-adv-x="456" d="M78 662q0 111 47.5 159.5t155.5 48.5q161 0 161 -139q0 -111 -47 -160t-155 -49q-162 0 -162 140z" />
<glyph unicode="&#xb8;" horiz-adv-x="1024" d="M90 -457l57 152q102 -4 142 -4q37 0 53 16q20 16 20 47q0 18 -11.5 26.5t-41.5 8.5q-61 0 -110 -2l53 141q14 0 57 1t64 1q215 0 215 -155q0 -55 -29 -121q-34 -65 -102.5 -91t-188.5 -26q-123 0 -178 6z" />
<glyph unicode="&#xb9;" horiz-adv-x="798" d="M121 590l72 198h149l80 410h-178l78 195h387l-117 -605h178l-72 -198h-577z" />
<glyph unicode="&#xba;" horiz-adv-x="940" d="M139 926q0 52 17 145q39 214 146.5 314t313.5 100q187 0 281 -76.5t94 -243.5q0 -57 -16 -145q-39 -215 -147.5 -313.5t-313.5 -98.5q-188 0 -281.5 76.5t-93.5 241.5zM412 930q0 -65 27 -90t89 -25q78 0 111.5 41.5t58.5 165.5q19 93 19 141q0 65 -27.5 90t-89.5 25 q-76 0 -110.5 -42t-59.5 -165q-18 -89 -18 -141z" />
<glyph unicode="&#xbb;" horiz-adv-x="1163" d="M-8 45l61 313l305 183l-235 186l57 297l404 -326l-64 -325zM543 45l61 313l305 183l-233 186l57 297l402 -326l-64 -325z" />
<glyph unicode="&#xbc;" horiz-adv-x="1894" d="M121 590l72 198h149l80 410h-178l78 195h387l-117 -605h178l-72 -198h-577zM334 0l1110 1393h289l-1110 -1393h-289zM1083 145l25 164l338 494h235l-331 -477h157l35 178l217 31l-41 -209h97l-72 -181h-60l-28 -145h-211l29 145h-390z" />
<glyph unicode="&#xbd;" horiz-adv-x="1894" d="M121 590l72 198h149l80 410h-178l78 195h387l-117 -605h178l-72 -198h-577zM287 0l1110 1393h289l-1111 -1393h-288zM1098 0l28 145q25 131 75.5 199.5t154.5 104.5l123 45q32 12 45.5 23t19.5 30q4 12 4 28q0 26 -18 37t-64 11q-176 0 -264 -5l68 183q69 4 241 4 q279 0 279 -193q0 -26 -6 -61q-17 -84 -62.5 -131.5t-138.5 -83.5l-117 -43q-48 -17 -67.5 -37t-26.5 -61l-2 -9h377l-61 -186h-588z" />
<glyph unicode="&#xbe;" horiz-adv-x="1894" d="M102 590l70 182q28 0 119 -1t141 -1q55 0 76 18q27 21 27 64q0 33 -20.5 45t-65.5 12h-226l68 174h190q48 0 68 17q24 21 24 57q0 29 -19.5 41t-59.5 12q-187 0 -263 -2l74 185q72 2 252 2q123 0 189.5 -47.5t66.5 -135.5q0 -61 -20 -100q-18 -42 -43.5 -68.5 t-69.5 -44.5q94 -37 94 -153q0 -21 -4 -53q-37 -205 -340 -205q-30 0 -169 1t-159 1zM313 0l1110 1393h289l-1110 -1393h-289zM1085 145l25 164l338 494h235l-331 -477h157l35 178l217 31l-41 -209h97l-72 -181h-59l-29 -145h-211l29 145h-390z" />
<glyph unicode="&#xbf;" horiz-adv-x="997" d="M-53 -76q0 39 6 86q10 80 37.5 140t76.5 105t106 77t140 65q69 27 99 45.5t47.5 51t29.5 96.5l9 39h305l-10 -64q-18 -91 -37 -144.5t-57 -96t-87 -69.5t-139 -62q-104 -40 -142 -73.5t-50 -96.5q-7 -35 -7 -56q0 -57 36.5 -81.5t127.5 -24.5q252 0 410 6l-100 -264 q-104 -6 -367 -6q-220 0 -327 80t-107 247zM512 877q0 110 48 158t157 48q162 0 162 -135q0 -110 -48 -157.5t-157 -47.5q-162 0 -162 134z" />
<glyph unicode="&#xc0;" horiz-adv-x="1470" d="M-82 0l819 1458h371l238 -1458h-336l-47 352h-514l-187 -352h-344zM567 1853h351l174 -272h-293zM580 616h354l-68 537z" />
<glyph unicode="&#xc1;" horiz-adv-x="1470" d="M-82 0l819 1458h371l238 -1458h-336l-47 352h-514l-187 -352h-344zM580 616h354l-68 537zM739 1581l281 272h364l-335 -272h-310z" />
<glyph unicode="&#xc2;" horiz-adv-x="1470" d="M-82 0l819 1458h371l238 -1458h-336l-47 352h-514l-187 -352h-344zM504 1581l299 270h336l194 -270h-286l-97 127l-149 -127h-297zM580 616h354l-68 537z" />
<glyph unicode="&#xc3;" horiz-adv-x="1470" d="M-82 0l819 1458h371l238 -1458h-336l-47 352h-514l-187 -352h-344zM530 1563l7 34q28 155 86.5 214t162.5 59q80 0 177 -51l41 -21q56 -29 94 -29q25 0 38 14.5t23 59.5l4 21h197l-6 -35q-28 -153 -87 -211.5t-163 -58.5q-86 0 -176 49l-41 20q-56 29 -96 29 q-25 0 -37.5 -14.5t-22.5 -59.5l-4 -20h-197zM580 616h354l-68 537z" />
<glyph unicode="&#xc4;" horiz-adv-x="1470" d="M-82 0l819 1458h371l238 -1458h-336l-47 352h-514l-187 -352h-344zM557 1683q0 96 45 138.5t141 42.5q146 0 146 -117q0 -94 -44.5 -137t-142.5 -43q-145 0 -145 116zM580 616h354l-68 537zM991 1683q0 96 45.5 138.5t141.5 42.5q66 0 104.5 -29t38.5 -88q0 -94 -43 -137 t-141 -43q-146 0 -146 116z" />
<glyph unicode="&#xc5;" horiz-adv-x="1470" d="M-82 0l793 1415q-58 38 -58 123q0 17 4 45q36 262 316 262q118 0 184 -55t66 -158q0 -17 -4 -49q-17 -121 -103 -178l230 -1405h-336l-47 352h-514l-187 -352h-344zM580 616h354l-68 537zM825 1548q0 -41 25.5 -57t71.5 -16q63 0 88.5 23.5t36.5 80.5q4 15 4 41 q0 72 -95 72q-62 0 -87 -23.5t-38 -79.5q-6 -30 -6 -41z" />
<glyph unicode="&#xc6;" horiz-adv-x="2117" d="M-82 0l1065 1458h1241l-108 -284h-666l-55 -289h653l-109 -285h-598l-63 -315h752l-109 -285h-1024l74 381h-426l-266 -381h-361zM729 645h293l106 539h-22z" />
<glyph unicode="&#xc7;" horiz-adv-x="1155" d="M92 506q0 108 25 246q30 165 82 287t121.5 203t165.5 130t205.5 69.5t250.5 20.5q154 0 324 -6l-109 -285q-121 7 -235 7q-108 0 -180 -20t-127.5 -72t-90 -136t-61.5 -217q-25 -128 -25 -205q0 -140 72 -192.5t229 -52.5q67 0 169 2t161 2l-108 -285q-109 -6 -279 -6 q-162 0 -277.5 35.5t-183 103.5t-98.5 159t-31 212zM252 -457l57 154q110 -4 156 -4q39 0 53 14q19 19 19 47q0 33 -54 33q-72 0 -123 -2l56 143q15 0 66.5 1t74.5 1q217 0 217 -155q0 -17 -4 -45q-18 -106 -95 -149.5t-224 -43.5q-142 0 -199 6z" />
<glyph unicode="&#xc8;" horiz-adv-x="1234" d="M14 0l285 1458h1042l-108 -284h-666l-55 -289h653l-108 -285h-598l-64 -315h752l-109 -285h-1024zM524 1853h350l175 -272h-293z" />
<glyph unicode="&#xc9;" horiz-adv-x="1234" d="M14 0l285 1458h1042l-108 -284h-666l-55 -289h653l-108 -285h-598l-64 -315h752l-109 -285h-1024zM606 1581l281 272h364l-336 -272h-309z" />
<glyph unicode="&#xca;" horiz-adv-x="1234" d="M14 0l285 1458h1042l-108 -284h-666l-55 -289h653l-108 -285h-598l-64 -315h752l-109 -285h-1024zM414 1581l299 270h336l194 -270h-287l-96 127l-149 -127h-297z" />
<glyph unicode="&#xcb;" horiz-adv-x="1234" d="M14 0l285 1458h1042l-108 -284h-666l-55 -289h653l-108 -285h-598l-64 -315h752l-109 -285h-1024zM451 1683q0 96 45 138.5t141 42.5q145 0 145 -117q0 -94 -44 -137t-142 -43q-145 0 -145 116zM885 1683q0 96 45 138.5t141 42.5q66 0 104.5 -29t38.5 -88q0 -94 -43 -137 t-141 -43q-145 0 -145 116z" />
<glyph unicode="&#xcc;" horiz-adv-x="575" d="M14 0l285 1458h338l-285 -1458h-338zM137 1853h350l175 -272h-293z" />
<glyph unicode="&#xcd;" horiz-adv-x="575" d="M14 0l285 1458h338l-285 -1458h-338zM293 1581l280 272h365l-336 -272h-309z" />
<glyph unicode="&#xce;" horiz-adv-x="575" d="M14 0l285 1458h338l-285 -1458h-338zM61 1581l299 270h336l195 -270h-287l-96 127l-150 -127h-297z" />
<glyph unicode="&#xcf;" horiz-adv-x="575" d="M14 0l285 1458h338l-285 -1458h-338zM119 1683q0 96 45 138.5t141 42.5q146 0 146 -117q0 -94 -44.5 -137t-142.5 -43q-145 0 -145 116zM553 1683q0 96 45 138.5t141 42.5q66 0 105 -29t39 -88q0 -94 -43.5 -137t-141.5 -43q-145 0 -145 116z" />
<glyph unicode="&#xd0;" horiz-adv-x="1462" d="M35 618l45 236h139l119 604h477q317 0 473 -126t156 -400q0 -83 -23 -221q-29 -169 -85 -294.5t-129.5 -204.5t-175 -127t-210 -66.5t-246.5 -18.5h-522l121 618h-139zM444 283h170q70 0 121 6t100 23.5t84 48.5t66 80t54 119.5t40 166.5q21 108 21 193q0 147 -76 201.5 t-244 54.5h-159l-64 -322h270l-45 -236h-272z" />
<glyph unicode="&#xd1;" horiz-adv-x="1454" d="M14 0l285 1458h274l443 -936l182 936h315l-282 -1458h-279l-438 932l-180 -932h-320zM512 1563l6 34q28 154 87 213.5t163 59.5q79 0 176 -51l41 -21q56 -29 94 -29q25 0 38.5 14.5t23.5 59.5l4 21h196l-6 -35q-28 -153 -87 -211.5t-163 -58.5q-86 0 -176 49l-41 20 q-56 29 -96 29q-24 0 -36.5 -14.5t-22.5 -59.5l-4 -20h-197z" />
<glyph unicode="&#xd2;" horiz-adv-x="1468" d="M92 485q0 122 27 269q37 210 100 353.5t159.5 229.5t217.5 123t285 37q287 0 428 -125.5t141 -398.5q0 -101 -27 -266q-36 -210 -100 -353.5t-160.5 -229.5t-218 -123.5t-285.5 -37.5q-286 0 -426.5 125t-140.5 397zM438 489q0 -141 58 -192t190 -51q72 0 122 11.5 t92.5 40.5t73 83.5t55 135t46.5 200.5q29 168 29 256q0 140 -58 190.5t-188 50.5q-90 0 -147.5 -18t-105.5 -70.5t-79.5 -143t-58.5 -239.5q-29 -168 -29 -254zM621 1853h350l174 -272h-293z" />
<glyph unicode="&#xd3;" horiz-adv-x="1468" d="M92 485q0 122 27 269q37 210 100 353.5t159.5 229.5t217.5 123t285 37q287 0 428 -125.5t141 -398.5q0 -101 -27 -266q-36 -210 -100 -353.5t-160.5 -229.5t-218 -123.5t-285.5 -37.5q-286 0 -426.5 125t-140.5 397zM438 489q0 -141 58 -192t190 -51q72 0 122 11.5 t92.5 40.5t73 83.5t55 135t46.5 200.5q29 168 29 256q0 140 -58 190.5t-188 50.5q-90 0 -147.5 -18t-105.5 -70.5t-79.5 -143t-58.5 -239.5q-29 -168 -29 -254zM670 1581l280 272h365l-336 -272h-309z" />
<glyph unicode="&#xd4;" horiz-adv-x="1468" d="M92 485q0 122 27 269q37 210 100 353.5t159.5 229.5t217.5 123t285 37q287 0 428 -125.5t141 -398.5q0 -101 -27 -266q-36 -210 -100 -353.5t-160.5 -229.5t-218 -123.5t-285.5 -37.5q-286 0 -426.5 125t-140.5 397zM438 489q0 -141 58 -192t190 -51q72 0 122 11.5 t92.5 40.5t73 83.5t55 135t46.5 200.5q29 168 29 256q0 140 -58 190.5t-188 50.5q-90 0 -147.5 -18t-105.5 -70.5t-79.5 -143t-58.5 -239.5q-29 -168 -29 -254zM487 1581l299 270h336l195 -270h-287l-96 127l-150 -127h-297z" />
<glyph unicode="&#xd5;" horiz-adv-x="1468" d="M92 485q0 122 27 269q37 210 100 353.5t159.5 229.5t217.5 123t285 37q287 0 428 -125.5t141 -398.5q0 -101 -27 -266q-36 -210 -100 -353.5t-160.5 -229.5t-218 -123.5t-285.5 -37.5q-286 0 -426.5 125t-140.5 397zM438 489q0 -141 58 -192t190 -51q72 0 122 11.5 t92.5 40.5t73 83.5t55 135t46.5 200.5q29 168 29 256q0 140 -58 190.5t-188 50.5q-90 0 -147.5 -18t-105.5 -70.5t-79.5 -143t-58.5 -239.5q-29 -168 -29 -254zM510 1563l6 34q28 154 87 213.5t163 59.5q79 0 176 -51l41 -21q56 -29 94 -29q25 0 38.5 14.5t23.5 59.5l4 21 h196l-6 -35q-28 -153 -87 -211.5t-163 -58.5q-86 0 -176 49l-41 20q-56 29 -96 29q-24 0 -36.5 -14.5t-22.5 -59.5l-4 -20h-197z" />
<glyph unicode="&#xd6;" horiz-adv-x="1468" d="M92 485q0 122 27 269q37 210 100 353.5t159.5 229.5t217.5 123t285 37q287 0 428 -125.5t141 -398.5q0 -101 -27 -266q-36 -210 -100 -353.5t-160.5 -229.5t-218 -123.5t-285.5 -37.5q-286 0 -426.5 125t-140.5 397zM438 489q0 -141 58 -192t190 -51q72 0 122 11.5 t92.5 40.5t73 83.5t55 135t46.5 200.5q29 168 29 256q0 140 -58 190.5t-188 50.5q-90 0 -147.5 -18t-105.5 -70.5t-79.5 -143t-58.5 -239.5q-29 -168 -29 -254zM537 1683q0 96 45 138.5t141 42.5q145 0 145 -117q0 -94 -44 -137t-142 -43q-145 0 -145 116zM971 1683 q0 96 45 138.5t141 42.5q66 0 104.5 -29t38.5 -88q0 -94 -43 -137t-141 -43q-145 0 -145 116z" />
<glyph unicode="&#xd7;" d="M123 432l326 275l-220 278l222 182l219 -274l325 274l168 -202l-329 -279l219 -272l-222 -183l-219 271l-319 -271z" />
<glyph unicode="&#xd8;" horiz-adv-x="1468" d="M31 -184l192 282q-131 125 -131 387q0 122 27 269q37 210 100 353.5t159.5 229.5t217.5 123t285 37q158 0 270 -37l125 185h242l-197 -287q129 -126 129 -385q0 -101 -27 -266q-36 -210 -100 -353.5t-160.5 -229.5t-218 -123.5t-285.5 -37.5q-148 0 -264 35l-123 -182 h-241zM438 489q0 -54 4 -69l533 782q-49 12 -117 12q-90 0 -147.5 -18t-105.5 -70.5t-79.5 -143t-58.5 -239.5q-29 -168 -29 -254zM571 256q41 -10 115 -10q72 0 122 11.5t92.5 40.5t73 83.5t55 135t46.5 200.5q29 168 29 256q0 23 -4 59z" />
<glyph unicode="&#xd9;" horiz-adv-x="1421" d="M102 408q0 90 17 167l172 883h338l-180 -921q-11 -71 -11 -105q0 -98 55.5 -142t180.5 -44q139 0 203 62.5t96 230.5l180 919h338l-182 -942q-56 -296 -213 -424.5t-443 -128.5q-551 0 -551 445zM582 1853h350l174 -272h-293z" />
<glyph unicode="&#xda;" horiz-adv-x="1421" d="M102 408q0 90 17 167l172 883h338l-180 -921q-11 -71 -11 -105q0 -98 55.5 -142t180.5 -44q139 0 203 62.5t96 230.5l180 919h338l-182 -942q-56 -296 -213 -424.5t-443 -128.5q-551 0 -551 445zM662 1581l280 272h365l-336 -272h-309z" />
<glyph unicode="&#xdb;" horiz-adv-x="1421" d="M102 408q0 90 17 167l172 883h338l-180 -921q-11 -71 -11 -105q0 -98 55.5 -142t180.5 -44q139 0 203 62.5t96 230.5l180 919h338l-182 -942q-56 -296 -213 -424.5t-443 -128.5q-551 0 -551 445zM487 1581l299 270h336l195 -270h-287l-96 127l-150 -127h-297z" />
<glyph unicode="&#xdc;" horiz-adv-x="1421" d="M102 408q0 90 17 167l172 883h338l-180 -921q-11 -71 -11 -105q0 -98 55.5 -142t180.5 -44q139 0 203 62.5t96 230.5l180 919h338l-182 -942q-56 -296 -213 -424.5t-443 -128.5q-551 0 -551 445zM541 1683q0 96 45 138.5t141 42.5q145 0 145 -117q0 -94 -44 -137 t-142 -43q-145 0 -145 116zM975 1683q0 96 45 138.5t141 42.5q66 0 105 -29t39 -88q0 -94 -43.5 -137t-141.5 -43q-145 0 -145 116z" />
<glyph unicode="&#xdd;" horiz-adv-x="1372" d="M188 1458h361l184 -598l434 598h373l-678 -862l-117 -596h-337l114 594zM629 1581l280 272h365l-336 -272h-309z" />
<glyph unicode="&#xde;" horiz-adv-x="1302" d="M14 0l285 1458h330l-47 -239h161q267 0 403 -95.5t136 -296.5q0 -55 -12 -120q-17 -105 -57.5 -184.5t-97 -130.5t-134.5 -82.5t-163.5 -44.5t-190.5 -13h-234l-49 -252h-330zM444 526h207q148 0 209.5 40t81.5 145q8 36 8 77q0 85 -52.5 120.5t-166.5 35.5h-205z" />
<glyph unicode="&#xdf;" horiz-adv-x="1222" d="M-4 0l207 1073q45 232 179 346.5t382 114.5q94 0 174.5 -20t144 -59.5t100 -106.5t36.5 -154q0 -44 -13 -104q-20 -101 -71.5 -165t-141.5 -106q156 -70 156 -289q0 -53 -8 -100q-35 -224 -170.5 -328t-374.5 -104q-105 0 -176 12l94 248q36 -4 76 -4q33 0 55.5 2t49 9 t45 21t36.5 36.5t30.5 58.5t20.5 84q7 40 7 63q0 72 -37 110t-125 38h-111l84 256h53q145 0 185 104q20 47 20 119q0 64 -40.5 92.5t-121.5 28.5q-100 0 -149 -49.5t-74 -179.5l-203 -1047h-319z" />
<glyph unicode="&#xe0;" horiz-adv-x="1140" d="M29 268q0 69 12 121q34 147 140.5 223t303.5 76q198 0 273 -67l8 41q6 27 6 49q0 63 -44.5 87.5t-141.5 24.5q-292 0 -396 -4l93 252q53 4 335 4q231 0 342 -80t111 -252q0 -51 -14 -137l-76 -397q-24 -115 -76 -159t-166 -56q-144 -12 -295 -12q-212 0 -313.5 69 t-101.5 217zM334 305q0 -58 39.5 -77t136.5 -19q92 0 170 10l18 96q4 11 4 45q0 64 -43.5 86.5t-130.5 22.5q-93 0 -135.5 -24.5t-54.5 -90.5q-4 -15 -4 -49zM403 1503h340l162 -278h-293z" />
<glyph unicode="&#xe1;" horiz-adv-x="1140" d="M29 268q0 69 12 121q34 147 140.5 223t303.5 76q198 0 273 -67l8 41q6 27 6 49q0 63 -44.5 87.5t-141.5 24.5q-292 0 -396 -4l93 252q53 4 335 4q231 0 342 -80t111 -252q0 -51 -14 -137l-76 -397q-24 -115 -76 -159t-166 -56q-144 -12 -295 -12q-212 0 -313.5 69 t-101.5 217zM334 305q0 -58 39.5 -77t136.5 -19q92 0 170 10l18 96q4 11 4 45q0 64 -43.5 86.5t-130.5 22.5q-93 0 -135.5 -24.5t-54.5 -90.5q-4 -15 -4 -49zM477 1225l264 278h351l-312 -278h-303z" />
<glyph unicode="&#xe2;" horiz-adv-x="1140" d="M29 268q0 69 12 121q34 147 140.5 223t303.5 76q198 0 273 -67l8 41q6 27 6 49q0 63 -44.5 87.5t-141.5 24.5q-292 0 -396 -4l93 252q53 4 335 4q231 0 342 -80t111 -252q0 -51 -14 -137l-76 -397q-24 -115 -76 -159t-166 -56q-144 -12 -295 -12q-212 0 -313.5 69 t-101.5 217zM305 1225l285 284h317l172 -284h-266l-88 139l-139 -139h-281zM334 305q0 -58 39.5 -77t136.5 -19q92 0 170 10l18 96q4 11 4 45q0 64 -43.5 86.5t-130.5 22.5q-93 0 -135.5 -24.5t-54.5 -90.5q-4 -15 -4 -49z" />
<glyph unicode="&#xe3;" horiz-adv-x="1140" d="M29 268q0 69 12 121q34 147 140.5 223t303.5 76q198 0 273 -67l8 41q6 27 6 49q0 63 -44.5 87.5t-141.5 24.5q-292 0 -396 -4l93 252q53 4 335 4q231 0 342 -80t111 -252q0 -51 -14 -137l-76 -397q-24 -115 -76 -159t-166 -56q-144 -12 -295 -12q-212 0 -313.5 69 t-101.5 217zM297 1217l6 34q24 144 81.5 202t158.5 58q80 0 170 -47l39 -18q56 -29 90 -29q24 0 35.5 14t21.5 56l4 18h195l-6 -35q-24 -147 -80.5 -203.5t-159.5 -56.5q-79 0 -170 45l-39 21q-52 27 -90 27q-25 0 -37 -12.5t-22 -53.5l-5 -20h-192zM334 305q0 -58 39.5 -77 t136.5 -19q92 0 170 10l18 96q4 11 4 45q0 64 -43.5 86.5t-130.5 22.5q-93 0 -135.5 -24.5t-54.5 -90.5q-4 -15 -4 -49z" />
<glyph unicode="&#xe4;" horiz-adv-x="1140" d="M29 268q0 69 12 121q34 147 140.5 223t303.5 76q198 0 273 -67l8 41q6 27 6 49q0 63 -44.5 87.5t-141.5 24.5q-292 0 -396 -4l93 252q53 4 335 4q231 0 342 -80t111 -252q0 -51 -14 -137l-76 -397q-24 -115 -76 -159t-166 -56q-144 -12 -295 -12q-212 0 -313.5 69 t-101.5 217zM330 1329q0 93 43 135.5t141 42.5q143 0 143 -112q0 -93 -43 -135.5t-141 -42.5q-143 0 -143 112zM334 305q0 -58 39.5 -77t136.5 -19q92 0 170 10l18 96q4 11 4 45q0 64 -43.5 86.5t-130.5 22.5q-93 0 -135.5 -24.5t-54.5 -90.5q-4 -15 -4 -49zM745 1329 q0 93 43 135.5t142 42.5q141 0 141 -112q0 -93 -42.5 -135.5t-139.5 -42.5q-144 0 -144 112z" />
<glyph unicode="&#xe5;" horiz-adv-x="1140" d="M29 268q0 69 12 121q34 147 140.5 223t303.5 76q198 0 273 -67l8 41q6 27 6 49q0 63 -44.5 87.5t-141.5 24.5q-292 0 -396 -4l93 252q53 4 335 4q231 0 342 -80t111 -252q0 -51 -14 -137l-76 -397q-24 -115 -76 -159t-166 -56q-144 -12 -295 -12q-212 0 -313.5 69 t-101.5 217zM334 305q0 -58 39.5 -77t136.5 -19q92 0 170 10l18 96q4 11 4 45q0 64 -43.5 86.5t-130.5 22.5q-93 0 -135.5 -24.5t-54.5 -90.5q-4 -15 -4 -49zM442 1366q0 13 4 49q18 122 94 189t212 67q109 0 174 -52.5t65 -154.5q0 -13 -4 -49q-18 -122 -93.5 -189 t-211.5 -67q-109 0 -174.5 52.5t-65.5 154.5zM610 1380q0 -40 23.5 -54.5t66.5 -14.5q62 0 86 21.5t35 74.5q4 15 4 41q0 40 -23.5 55t-66.5 15q-62 0 -86 -21.5t-35 -75.5q-4 -15 -4 -41z" />
<glyph unicode="&#xe6;" horiz-adv-x="1755" d="M29 287q0 35 10 100q27 145 134 217t316 72h279q4 28 4 39q0 63 -46.5 85.5t-147.5 22.5q-284 0 -388 -4l93 252q59 4 327 4q243 0 334 -104q133 125 373 125q88 0 160 -15.5t131 -48.5t92 -91.5t33 -137.5q0 -39 -9 -80q-29 -151 -148 -215t-347 -64h-215q-2 -18 -2 -49 q0 -91 43.5 -127.5t148.5 -36.5q208 0 377 11l-92 -236q-100 -10 -330 -10q-247 0 -344 123q-120 -123 -373 -123q-413 0 -413 291zM332 317q1 -50 38.5 -70t123.5 -20q193 0 217 140l16 90h-213q-93 0 -131.5 -24t-46.5 -77q-4 -28 -4 -39zM1059 651h172q99 0 137.5 17 t56.5 63q9 24 9 51q-3 82 -142 82q-100 0 -151 -50.5t-82 -162.5z" />
<glyph unicode="&#xe7;" horiz-adv-x="956" d="M61 379q0 81 19 186q24 125 66.5 215.5t97 147t131.5 90t158.5 45.5t189.5 12q27 0 121 -2t141 -2l-96 -256q-114 4 -191 4q-94 0 -147.5 -20t-88.5 -76t-54 -162q-21 -95 -21 -151q0 -93 46.5 -125.5t160.5 -32.5q190 0 268 4l-98 -256q-144 -4 -219 -4 q-262 0 -373 97.5t-111 285.5zM139 -457l58 152q102 -4 141 -4q37 0 53 16q21 17 21 47q0 35 -54 35q-61 0 -110 -2l53 141q15 0 58 1t63 1q215 0 215 -155q0 -55 -29 -121q-34 -65 -102.5 -91t-188.5 -26q-123 0 -178 6z" />
<glyph unicode="&#xe8;" horiz-adv-x="1112" d="M61 379q0 81 19 178q24 132 68.5 230.5t99 158t127.5 96t144.5 49.5t158.5 13q412 0 412 -301q-3 -53 -15 -111q-35 -153 -151 -217.5t-342 -64.5h-215v-33q2 -76 47 -111t149 -35q204 0 373 11l-92 -236q-105 -10 -342 -10q-123 0 -211 28t-137 81t-71 120t-22 154z M406 1503h339l162 -278h-293zM410 635h178q101 0 139.5 19t56.5 73q9 24 9 53q0 92 -140 92q-104 0 -157.5 -52t-85.5 -185z" />
<glyph unicode="&#xe9;" horiz-adv-x="1112" d="M61 379q0 81 19 178q24 132 68.5 230.5t99 158t127.5 96t144.5 49.5t158.5 13q412 0 412 -301q-3 -53 -15 -111q-35 -153 -151 -217.5t-342 -64.5h-215v-33q2 -76 47 -111t149 -35q204 0 373 11l-92 -236q-105 -10 -342 -10q-123 0 -211 28t-137 81t-71 120t-22 154z M410 635h178q101 0 139.5 19t56.5 73q9 24 9 53q0 92 -140 92q-104 0 -157.5 -52t-85.5 -185zM510 1225l264 278h350l-311 -278h-303z" />
<glyph unicode="&#xea;" horiz-adv-x="1112" d="M61 379q0 81 19 178q24 132 68.5 230.5t99 158t127.5 96t144.5 49.5t158.5 13q412 0 412 -301q-3 -53 -15 -111q-35 -153 -151 -217.5t-342 -64.5h-215v-33q2 -76 47 -111t149 -35q204 0 373 11l-92 -236q-105 -10 -342 -10q-123 0 -211 28t-137 81t-71 120t-22 154z M289 1225l284 284h318l172 -284h-266l-88 139l-140 -139h-280zM410 635h178q101 0 139.5 19t56.5 73q9 24 9 53q0 92 -140 92q-104 0 -157.5 -52t-85.5 -185z" />
<glyph unicode="&#xeb;" horiz-adv-x="1112" d="M61 379q0 81 19 178q24 132 68.5 230.5t99 158t127.5 96t144.5 49.5t158.5 13q412 0 412 -301q-3 -53 -15 -111q-35 -153 -151 -217.5t-342 -64.5h-215v-33q2 -76 47 -111t149 -35q204 0 373 11l-92 -236q-105 -10 -342 -10q-123 0 -211 28t-137 81t-71 120t-22 154z M326 1329q0 93 43 135.5t141 42.5q143 0 143 -112q0 -93 -43 -135.5t-141 -42.5q-143 0 -143 112zM410 635h178q101 0 139.5 19t56.5 73q9 24 9 53q0 92 -140 92q-104 0 -157.5 -52t-85.5 -185zM741 1329q0 93 43 135.5t142 42.5q141 0 141 -112q0 -93 -42.5 -135.5 t-139.5 -42.5q-144 0 -144 112z" />
<glyph unicode="&#xec;" horiz-adv-x="522" d="M-6 0l209 1071h325l-209 -1071h-325zM66 1503h340l161 -278h-293z" />
<glyph unicode="&#xed;" horiz-adv-x="522" d="M-6 0l209 1071h325l-209 -1071h-325zM197 1225l264 278h350l-311 -278h-303z" />
<glyph unicode="&#xee;" horiz-adv-x="522" d="M-14 1225l284 284h318l172 -284h-266l-88 139l-140 -139h-280zM-6 0l209 1071h325l-209 -1071h-325z" />
<glyph unicode="&#xef;" horiz-adv-x="522" d="M-6 0l209 1071h325l-209 -1071h-325zM33 1329q0 93 43 135.5t141 42.5q143 0 143 -112q0 -93 -43 -135.5t-141 -42.5q-143 0 -143 112zM449 1329q0 93 42.5 135.5t141.5 42.5q141 0 141 -112q0 -93 -42.5 -135.5t-139.5 -42.5q-143 0 -143 112z" />
<glyph unicode="&#xf0;" horiz-adv-x="1216" d="M61 356q0 90 17 162q47 240 187.5 353.5t342.5 113.5q169 0 244 -72v31q0 86 -29 178l-213 -80l-55 158l190 72q-43 58 -100 112l258 168q74 -69 137 -170l162 62l55 -158l-145 -55q55 -155 55 -330q0 -206 -61 -465q-23 -92 -52 -160.5t-75 -129t-107 -98.5 t-148.5 -59.5t-199.5 -21.5q-463 0 -463 389zM385 371q0 -84 40.5 -116t127.5 -32q103 0 151 48.5t76 177.5q17 67 17 135q0 82 -40.5 113.5t-125.5 31.5q-106 0 -153.5 -46.5t-76.5 -178.5q-16 -88 -16 -133z" />
<glyph unicode="&#xf1;" horiz-adv-x="1189" d="M-6 0l131 668q44 239 171.5 337.5t383.5 98.5q446 0 446 -342q0 -43 -14 -125l-123 -637h-325l127 651q8 36 8 70q0 119 -142 119q-102 0 -146.5 -40t-64.5 -149l-127 -651h-325zM313 1208l6 35q24 144 81.5 202t158.5 58q80 0 170 -47l39 -18q56 -29 90 -29 q24 0 35.5 14t21.5 56l5 18h194l-6 -35q-24 -147 -80.5 -203.5t-159.5 -56.5q-79 0 -170 45l-39 21q-50 26 -90 26q-25 0 -37 -12t-22 -53l-4 -21h-193z" />
<glyph unicode="&#xf2;" horiz-adv-x="1196" d="M61 365q0 89 21 200q54 288 193.5 413.5t402.5 125.5q229 0 343 -93.5t114 -303.5q0 -79 -23 -201q-52 -288 -191.5 -413.5t-402.5 -125.5q-231 0 -344 93.5t-113 304.5zM385 381q0 -89 38.5 -123.5t123.5 -34.5q108 0 157.5 58t81.5 221q25 125 25 188q0 90 -39 124 t-125 34q-109 0 -156.5 -57.5t-80.5 -219.5q-25 -128 -25 -190zM401 1503h340l162 -278h-293z" />
<glyph unicode="&#xf3;" horiz-adv-x="1196" d="M61 365q0 89 21 200q54 288 193.5 413.5t402.5 125.5q229 0 343 -93.5t114 -303.5q0 -79 -23 -201q-52 -288 -191.5 -413.5t-402.5 -125.5q-231 0 -344 93.5t-113 304.5zM385 381q0 -89 38.5 -123.5t123.5 -34.5q108 0 157.5 58t81.5 221q25 125 25 188q0 90 -39 124 t-125 34q-109 0 -156.5 -57.5t-80.5 -219.5q-25 -128 -25 -190zM498 1225l264 278h350l-311 -278h-303z" />
<glyph unicode="&#xf4;" horiz-adv-x="1196" d="M61 365q0 89 21 200q54 288 193.5 413.5t402.5 125.5q229 0 343 -93.5t114 -303.5q0 -79 -23 -201q-52 -288 -191.5 -413.5t-402.5 -125.5q-231 0 -344 93.5t-113 304.5zM326 1225l284 284h318l172 -284h-266l-89 139l-139 -139h-280zM385 381q0 -89 38.5 -123.5 t123.5 -34.5q108 0 157.5 58t81.5 221q25 125 25 188q0 90 -39 124t-125 34q-109 0 -156.5 -57.5t-80.5 -219.5q-25 -128 -25 -190z" />
<glyph unicode="&#xf5;" horiz-adv-x="1196" d="M61 365q0 89 21 200q54 288 193.5 413.5t402.5 125.5q229 0 343 -93.5t114 -303.5q0 -79 -23 -201q-52 -288 -191.5 -413.5t-402.5 -125.5q-231 0 -344 93.5t-113 304.5zM330 1217l6 34q24 144 81 202t158 58q80 0 170 -47l39 -18q56 -29 90 -29q24 0 36 14t22 56l4 18 h194l-6 -35q-24 -147 -80 -203.5t-159 -56.5q-79 0 -170 45l-39 21q-52 27 -90 27q-25 0 -37.5 -12.5t-22.5 -53.5l-4 -20h-192zM385 381q0 -89 38.5 -123.5t123.5 -34.5q108 0 157.5 58t81.5 221q25 125 25 188q0 90 -39 124t-125 34q-109 0 -156.5 -57.5t-80.5 -219.5 q-25 -128 -25 -190z" />
<glyph unicode="&#xf6;" horiz-adv-x="1196" d="M61 365q0 89 21 200q54 288 193.5 413.5t402.5 125.5q229 0 343 -93.5t114 -303.5q0 -79 -23 -201q-52 -288 -191.5 -413.5t-402.5 -125.5q-231 0 -344 93.5t-113 304.5zM365 1329q0 93 43 135.5t141 42.5q143 0 143 -112q0 -93 -43 -135.5t-141 -42.5q-143 0 -143 112z M385 381q0 -89 38.5 -123.5t123.5 -34.5q108 0 157.5 58t81.5 221q25 125 25 188q0 90 -39 124t-125 34q-109 0 -156.5 -57.5t-80.5 -219.5q-25 -128 -25 -190zM780 1329q0 93 43 135.5t142 42.5q141 0 141 -112q0 -93 -42.5 -135.5t-139.5 -42.5q-144 0 -144 112z" />
<glyph unicode="&#xf7;" d="M137 565l51 266h955l-53 -266h-953zM403 299q0 94 42.5 136t140.5 42q147 0 147 -119q0 -94 -43 -136t-141 -42q-146 0 -146 119zM547 1038q0 94 43 136.5t141 42.5q146 0 146 -119q0 -94 -43.5 -136t-141.5 -42q-145 0 -145 118z" />
<glyph unicode="&#xf8;" horiz-adv-x="1196" d="M6 -137l152 213q-97 97 -97 289q0 89 21 200q54 288 193.5 413.5t402.5 125.5q111 0 203 -25l92 129h221l-156 -217q97 -97 97 -284q0 -79 -23 -201q-52 -288 -191.5 -413.5t-402.5 -125.5q-104 0 -201 23l-90 -127h-221zM373 373l344 479q-30 6 -68 6q-117 0 -166.5 -58 t-83.5 -227q-23 -127 -26 -200zM481 217q36 -4 64 -4q60 0 99 12.5t68 48t47.5 87t37.5 139.5q23 117 26 192z" />
<glyph unicode="&#xf9;" horiz-adv-x="1185" d="M66 309q0 67 12 125l125 637h325l-127 -651q-8 -36 -8 -70q0 -64 33.5 -91.5t103.5 -27.5q102 0 144.5 38.5t64.5 150.5l127 651h326l-129 -665q-45 -241 -172 -340t-383 -99q-442 0 -442 342zM418 1503h340l162 -278h-293z" />
<glyph unicode="&#xfa;" horiz-adv-x="1185" d="M66 309q0 67 12 125l125 637h325l-127 -651q-8 -36 -8 -70q0 -64 33.5 -91.5t103.5 -27.5q102 0 144.5 38.5t64.5 150.5l127 651h326l-129 -665q-45 -241 -172 -340t-383 -99q-442 0 -442 342zM485 1225l265 278h350l-312 -278h-303z" />
<glyph unicode="&#xfb;" horiz-adv-x="1185" d="M66 309q0 67 12 125l125 637h325l-127 -651q-8 -36 -8 -70q0 -64 33.5 -91.5t103.5 -27.5q102 0 144.5 38.5t64.5 150.5l127 651h326l-129 -665q-45 -241 -172 -340t-383 -99q-442 0 -442 342zM326 1225l284 284h318l172 -284h-266l-89 139l-139 -139h-280z" />
<glyph unicode="&#xfc;" horiz-adv-x="1185" d="M66 309q0 67 12 125l125 637h325l-127 -651q-8 -36 -8 -70q0 -64 33.5 -91.5t103.5 -27.5q102 0 144.5 38.5t64.5 150.5l127 651h326l-129 -665q-45 -241 -172 -340t-383 -99q-442 0 -442 342zM365 1329q0 93 43 135.5t141 42.5q143 0 143 -112q0 -93 -43 -135.5 t-141 -42.5q-143 0 -143 112zM780 1329q0 93 43 135.5t142 42.5q141 0 141 -112q0 -93 -42.5 -135.5t-139.5 -42.5q-144 0 -144 112z" />
<glyph unicode="&#xfd;" horiz-adv-x="1187" d="M4 -356l102 264q300 -6 326 -6q114 0 170.5 41.5t79.5 148.5l4 21q-84 -66 -231 -66q-181 0 -277 81.5t-96 244.5q0 61 12 131l111 567h325l-110 -571q-8 -41 -8 -70q0 -64 33.5 -91.5t103.5 -27.5q103 0 146 38.5t65 150.5l110 571h326l-188 -965q-49 -249 -184 -358.5 t-384 -109.5q-289 0 -436 6zM494 1225l264 278h350l-311 -278h-303z" />
<glyph unicode="&#xfe;" horiz-adv-x="1214" d="M-76 -358l365 1880h325l-92 -482q80 62 230 62q200 0 300.5 -97.5t100.5 -299.5q0 -96 -20 -205q-53 -278 -185.5 -405.5t-355.5 -127.5q-182 0 -262 80l-80 -405h-326zM406 385q0 -93 40 -127.5t129 -34.5q101 0 149.5 55t84.5 220q25 125 25 188q0 96 -40 129t-126 33 q-68 0 -108 -19t-72 -78t-56 -173q-26 -130 -26 -193z" />
<glyph unicode="&#xff;" horiz-adv-x="1187" d="M4 -356l102 264q300 -6 326 -6q114 0 170.5 41.5t79.5 148.5l4 21q-84 -66 -231 -66q-181 0 -277 81.5t-96 244.5q0 61 12 131l111 567h325l-110 -571q-8 -41 -8 -70q0 -64 33.5 -91.5t103.5 -27.5q103 0 146 38.5t65 150.5l110 571h326l-188 -965q-49 -249 -184 -358.5 t-384 -109.5q-289 0 -436 6zM369 1329q0 93 43 135.5t141 42.5q143 0 143 -112q0 -93 -43 -135.5t-141 -42.5q-143 0 -143 112zM784 1329q0 93 43 135.5t142 42.5q141 0 141 -112q0 -93 -42.5 -135.5t-139.5 -42.5q-144 0 -144 112z" />
<glyph unicode="&#x152;" horiz-adv-x="2035" d="M92 504q0 94 27 246q29 164 79 285t117 202t160.5 130.5t200.5 70t246 20.5h1220l-108 -284h-666l-55 -289h653l-108 -285h-598l-64 -315h752l-109 -285h-1141q-313 0 -459.5 121t-146.5 383zM440 518q0 -136 65 -185.5t214 -49.5h151l174 893h-149q-68 0 -115.5 -6 t-92 -24t-75 -48t-58.5 -79.5t-48.5 -118t-38.5 -163.5q-27 -152 -27 -219z" />
<glyph unicode="&#x153;" horiz-adv-x="1835" d="M59 365q0 78 23 200q53 285 189.5 412t400.5 127q250 0 340 -143q132 143 389 143q411 0 411 -301q0 -43 -14 -111q-35 -153 -151 -217.5t-342 -64.5h-215v-33q2 -76 47 -111t149 -35q204 0 373 11l-92 -236q-100 -10 -324 -10q-244 0 -342 125q-65 -77 -158.5 -111.5 t-228.5 -34.5q-236 0 -345.5 93.5t-109.5 296.5zM383 381q0 -92 38.5 -125t125.5 -33q109 0 154.5 55t82.5 224q25 125 25 190q0 90 -39 123t-125 33q-108 0 -156.5 -56.5t-80.5 -220.5q-25 -128 -25 -190zM1133 635h178q101 0 139.5 19t56.5 73q9 24 9 53q0 92 -140 92 q-104 0 -157.5 -52t-85.5 -185z" />
<glyph unicode="&#x178;" horiz-adv-x="1372" d="M188 1458h361l184 -598l434 598h373l-678 -862l-117 -596h-337l114 594zM502 1683q0 96 45 138.5t141 42.5q146 0 146 -117q0 -94 -44.5 -137t-142.5 -43q-145 0 -145 116zM936 1683q0 96 45 138.5t141 42.5q66 0 105 -29t39 -88q0 -94 -43.5 -137t-141.5 -43 q-145 0 -145 116z" />
<glyph unicode="&#x2c6;" horiz-adv-x="1024" d="M256 1225l285 284h317l172 -284h-266l-88 139l-139 -139h-281z" />
<glyph unicode="&#x2dc;" horiz-adv-x="1024" d="M272 1217l7 34q24 144 81 202t158 58q80 0 170 -47l39 -18q56 -29 90 -29q24 0 35.5 14t21.5 56l5 18h194l-6 -35q-24 -147 -80.5 -203.5t-159.5 -56.5q-79 0 -170 45l-39 21q-52 27 -90 27q-25 0 -37 -12.5t-22 -53.5l-4 -20h-193z" />
<glyph unicode="&#x2000;" horiz-adv-x="935" />
<glyph unicode="&#x2001;" horiz-adv-x="1870" />
<glyph unicode="&#x2002;" horiz-adv-x="935" />
<glyph unicode="&#x2003;" horiz-adv-x="1870" />
<glyph unicode="&#x2004;" horiz-adv-x="623" />
<glyph unicode="&#x2005;" horiz-adv-x="467" />
<glyph unicode="&#x2006;" horiz-adv-x="311" />
<glyph unicode="&#x2007;" horiz-adv-x="311" />
<glyph unicode="&#x2008;" horiz-adv-x="233" />
<glyph unicode="&#x2009;" horiz-adv-x="374" />
<glyph unicode="&#x200a;" horiz-adv-x="103" />
<glyph unicode="&#x2010;" horiz-adv-x="780" d="M16 457l109 282h668l-107 -282h-670z" />
<glyph unicode="&#x2011;" horiz-adv-x="780" d="M16 457l109 282h668l-107 -282h-670z" />
<glyph unicode="&#x2012;" horiz-adv-x="780" d="M16 457l109 282h668l-107 -282h-670z" />
<glyph unicode="&#x2013;" horiz-adv-x="1024" d="M-25 434l56 283h1024l-56 -283h-1024z" />
<glyph unicode="&#x2014;" horiz-adv-x="2048" d="M-25 434l56 283h2048l-56 -283h-2048z" />
<glyph unicode="&#x2018;" horiz-adv-x="512" d="M154 1020q0 61 32 123.5t107 169.5l147 209h205l-186 -344q43 -30 43 -97q0 -103 -47.5 -149.5t-147.5 -46.5q-153 0 -153 135z" />
<glyph unicode="&#x2019;" horiz-adv-x="512" d="M121 893l186 344q-43 30 -43 96q0 103 47.5 150t147.5 47q153 0 153 -135q0 -61 -32 -123.5t-107 -169.5l-147 -209h-205z" />
<glyph unicode="&#x201a;" horiz-adv-x="444" d="M-164 -330l187 342q-41 31 -41 99q0 103 46.5 149.5t145.5 46.5q156 0 156 -135q0 -61 -32 -123t-108 -170l-147 -209h-207z" />
<glyph unicode="&#x201c;" horiz-adv-x="980" d="M154 1020q0 61 32 123.5t107 169.5l147 209h205l-186 -344q43 -30 43 -97q0 -103 -47.5 -149.5t-147.5 -46.5q-153 0 -153 135zM623 1020q0 61 32 123.5t107 169.5l147 209h205l-186 -344q43 -30 43 -97q0 -103 -47.5 -149.5t-147.5 -46.5q-153 0 -153 135z" />
<glyph unicode="&#x201d;" horiz-adv-x="980" d="M121 893l186 344q-43 30 -43 96q0 103 47.5 150t147.5 47q153 0 153 -135q0 -61 -32 -123.5t-107 -169.5l-147 -209h-205zM590 893l186 344q-43 30 -43 96q0 103 47.5 150t147.5 47q153 0 153 -135q0 -61 -32 -123.5t-107 -169.5l-147 -209h-205z" />
<glyph unicode="&#x201e;" horiz-adv-x="903" d="M-162 -328l187 344q-43 30 -43 97q0 103 47 149.5t147 46.5q154 0 154 -135q0 -61 -32 -123t-108 -170l-147 -209h-205zM297 -328l186 344q-43 30 -43 97q0 103 47.5 149.5t147.5 46.5q153 0 153 -135q0 -61 -32 -123.5t-107 -169.5l-147 -209h-205z" />
<glyph unicode="&#x2022;" horiz-adv-x="878" d="M133 573q0 159 72.5 234.5t236.5 75.5t237 -76t73 -234t-73 -233.5t-237 -75.5t-236.5 75.5t-72.5 233.5z" />
<glyph unicode="&#x2026;" horiz-adv-x="2048" d="M82 119q0 111 47.5 160t155.5 49q161 0 161 -140q0 -111 -47 -159.5t-155 -48.5q-162 0 -162 139zM768 119q0 111 47.5 160t155.5 49q162 0 162 -140q0 -111 -47.5 -159.5t-155.5 -48.5q-162 0 -162 139zM1450 119q0 111 47.5 160t155.5 49q162 0 162 -140 q0 -111 -47.5 -159.5t-155.5 -48.5q-162 0 -162 139z" />
<glyph unicode="&#x202f;" horiz-adv-x="374" />
<glyph unicode="&#x2039;" horiz-adv-x="681" d="M31 373l61 325l602 326l-61 -315l-348 -181l276 -186l-57 -297z" />
<glyph unicode="&#x203a;" horiz-adv-x="681" d="M-10 45l61 313l346 181l-276 188l57 297l475 -328l-63 -325z" />
<glyph unicode="&#x205f;" horiz-adv-x="467" />
<glyph unicode="&#x20ac;" d="M35 420l82 207h110q7 43 25 133h-143l75 207h125q45 124 110.5 208t156.5 132.5t199 69t253 20.5q123 0 264 -8l-98 -259q-93 7 -215 7q-140 0 -218 -37t-128 -133h463l-78 -207h-459q-15 -66 -24 -133h493l-80 -207h-418q13 -90 78.5 -127t202.5 -37q76 0 272 4 l-94 -256q-55 -4 -237 -4q-268 0 -396.5 105.5t-140.5 314.5h-180z" />
<glyph unicode="&#x2122;" horiz-adv-x="1810" d="M147 1247l86 211h711l-86 -211h-211l-106 -551h-246l106 551h-254zM879 696l149 762h260l101 -336l219 336h276l-147 -762h-232l86 445l-178 -275h-143l-76 275l-86 -445h-229z" />
<glyph unicode="&#x25fc;" horiz-adv-x="1075" d="M0 0v1075h1075v-1075h-1075z" />
</font>
</defs>
</svg>
