<?xml version="1.0" standalone="no"?>
<!DOCTYPE svg PUBLIC "-//W3C//DTD SVG 1.1//EN" "http://www.w3.org/Graphics/SVG/1.1/DTD/svg11.dtd" >
<svg xmlns="http://www.w3.org/2000/svg">
<metadata></metadata>
<defs>
<font id="prometomedium" horiz-adv-x="1218" >
<font-face units-per-em="2048" ascent="1638" descent="-410" />
<missing-glyph horiz-adv-x="493" />
<glyph unicode="&#xfb01;" horiz-adv-x="1157" d="M109 0v1044q0 256 120.5 369t405.5 113q212 0 332 -4l-45 -219q-160 4 -287 4q-148 0 -201.5 -50.5t-58.5 -191.5h311l-41 -219h-270v-846h-266zM782 0v1065h267v-1065h-267z" />
<glyph unicode="&#xfb02;" d="M109 0v1032q0 275 113 384.5t396 109.5q54 0 132 -4l-45 -219q-62 4 -84 4q-73 0 -116 -9t-73 -36t-42.5 -73.5t-14.5 -123.5h307l-41 -219h-266v-846h-266zM844 0v1522h266v-1522h-266z" />
<glyph unicode="&#xfb03;" horiz-adv-x="1853" d="M109 0v1032q0 275 113 384.5t396 109.5q106 0 162 -4l-41 -219q-62 4 -118 4q-73 0 -116 -9t-73 -36t-42.5 -73.5t-14.5 -123.5h332l-41 -219h-291v-846h-266zM805 0v1044q0 256 120.5 369t405.5 113q212 0 332 -4l-45 -219q-160 4 -287 4q-148 0 -201.5 -50.5 t-58.5 -191.5h311l-41 -219h-270v-846h-266zM1479 0v1065h266v-1065h-266z" />
<glyph unicode="&#xfb04;" horiz-adv-x="1914" d="M109 0v1032q0 275 113 384.5t396 109.5q106 0 162 -4l-41 -219q-62 4 -118 4q-73 0 -116 -9t-73 -36t-42.5 -73.5t-14.5 -123.5h332l-41 -219h-291v-846h-266zM805 0v1032q0 275 113.5 384.5t396.5 109.5q53 0 131 -4l-45 -219q-62 4 -84 4q-73 0 -116 -9t-73 -36 t-42.5 -73.5t-14.5 -123.5h307l-41 -219h-266v-846h-266zM1540 0v1522h266v-1522h-266z" />
<glyph horiz-adv-x="0" />
<glyph horiz-adv-x="682" />
<glyph horiz-adv-x="0" />
<glyph horiz-adv-x="0" />
<glyph unicode="&#x9;" horiz-adv-x="493" />
<glyph unicode=" "  horiz-adv-x="493" />
<glyph unicode="&#x09;" horiz-adv-x="493" />
<glyph unicode="&#xa0;" horiz-adv-x="493" />
<glyph unicode="!" horiz-adv-x="514" d="M98 137q0 77 37 114.5t121 37.5q86 0 123 -37.5t37 -114.5q0 -80 -37 -116.5t-123 -36.5q-85 0 -121.5 37t-36.5 116zM119 1010v448h276v-448q0 -121 -8 -228l-22 -368h-213l-25 368q-8 107 -8 228z" />
<glyph unicode="&#x22;" horiz-adv-x="788" d="M53 1360v162h262v-162q0 -95 -8 -158l-18 -244h-209l-21 244q-6 47 -6 158zM473 1360v162h262v-162q0 -95 -8 -158l-18 -244h-209l-21 244q-6 47 -6 158z" />
<glyph unicode="#" horiz-adv-x="1388" d="M59 330l43 205h181l47 323h-195l43 205h180l50 330h235l-49 -330h297l49 330h236l-50 -330h203l-43 -205h-188l-47 -323h202l-43 -205h-190l-47 -330h-236l47 330h-297l-47 -330h-235l47 330h-193zM518 535h297l47 323h-297z" />
<glyph unicode="$" d="M84 999v27q3 329 420 367v188h174v-184q280 0 375 -4l-41 -213q-67 4 -334 4v-369l55 -10q199 -36 284.5 -123t90.5 -248v-41q0 -184 -109.5 -277.5t-320.5 -111.5v-207h-174v203q-238 0 -414 4l41 215q64 -4 373 -4v393l-39 6q-91 15 -157.5 41.5t-118.5 70.5 t-78.5 112.5t-26.5 160.5zM342 1014q0 -85 32.5 -117.5t129.5 -50.5v334q-97 -11 -129.5 -52t-32.5 -114zM678 217q98 13 133 54t35 124q0 88 -34 127.5t-134 59.5v-365z" />
<glyph unicode="%" horiz-adv-x="1845" d="M33 948v86q0 76 9 131t32.5 104t63.5 78.5t103.5 46.5t151.5 17q109 0 181.5 -24.5t111 -76t53.5 -116.5t15 -160v-86q0 -95 -15 -160t-53.5 -116.5t-111 -76t-181.5 -24.5q-88 0 -151.5 17t-103.5 46.5t-63.5 78.5t-32.5 104t-9 131zM250 969q0 -58 2.5 -91t10 -62.5 t23.5 -42.5t41.5 -20.5t65.5 -7.5q50 0 78 9.5t43 38.5t19 66.5t4 109.5v45q0 72 -4 109.5t-19 66t-43 38t-78 9.5q-40 0 -65.5 -7t-41.5 -20.5t-23.5 -42.5t-10 -62t-2.5 -91v-45zM381 0l850 1393h233l-850 -1393h-233zM1092 358v86q0 76 9 131t32.5 104t63.5 78.5 t103.5 46.5t151.5 17t151.5 -17t103.5 -46.5t63.5 -78.5t32.5 -104t9 -131v-86q0 -76 -9 -131t-32.5 -103.5t-63.5 -78t-103.5 -46.5t-151.5 -17t-151.5 17t-103.5 46.5t-63.5 78t-32.5 103.5t-9 131zM1309 379q0 -58 2.5 -91t10 -62t23.5 -42.5t41.5 -20.5t65.5 -7t65.5 7 t41.5 20.5t23.5 42.5t10 62t2.5 91v45q0 58 -2.5 91t-10 62t-23.5 42.5t-41.5 20.5t-65.5 7t-65.5 -7t-41.5 -20.5t-23.5 -42.5t-10 -62t-2.5 -91v-45z" />
<glyph unicode="&#x26;" horiz-adv-x="1308" d="M74 387v51q0 261 209 328q-93 43 -137 118.5t-44 196.5v31q0 165 110 258.5t327 93.5q114 0 430 -4l-39 -213q-200 4 -377 4q-101 0 -141.5 -42.5t-40.5 -137.5v-29q0 -82 46 -123.5t148 -41.5h717l-39 -213h-113v-471q0 -98 -38 -145.5t-121 -47.5h-418 q-248 0 -363.5 97t-115.5 290zM344 416q0 -102 46.5 -152.5t148.5 -50.5h333v451h-317q-113 0 -162 -52t-49 -159v-37z" />
<glyph unicode="'" horiz-adv-x="368" d="M53 1360v162h262v-162q0 -95 -8 -158l-18 -244h-209l-21 244q-6 47 -6 158z" />
<glyph unicode="(" horiz-adv-x="753" d="M115 348v404q0 147 11 253.5t38 186.5t65 130t99 81t134 43t175 12h86l-43 -211h-31q-49 0 -81.5 -2.5t-63.5 -12t-50 -23.5t-36 -41.5t-25.5 -61.5t-15 -87.5t-8.5 -116t-2 -150.5v-404q0 -88 2 -150.5t8.5 -116t15 -87.5t25.5 -61.5t36 -41.5t50 -23.5t63.5 -12 t81.5 -2.5h74l-43 -211h-43q-103 0 -176 11.5t-134.5 42.5t-99.5 80.5t-64 130t-37 187t-11 254.5z" />
<glyph unicode=")" horiz-adv-x="753" d="M31 -358l43 211h30q48 0 80 2.5t63.5 12t50 23.5t36 41t26.5 61.5t16 88t9 116.5t2 150v404q0 87 -2 150t-9 116.5t-16 88t-26.5 61.5t-36 41t-50 23.5t-63.5 12t-80 2.5h-73l43 211h43q103 0 176 -11.5t134.5 -42.5t99.5 -80.5t64 -130t37 -187t11 -254.5v-404 q0 -147 -11 -254t-38 -186.5t-65 -130t-99 -81t-134 -42.5t-175 -12h-86z" />
<glyph unicode="*" horiz-adv-x="903" d="M41 1102l63 196l248 -96l-12 264h223l-10 -264l246 96l63 -196l-256 -74l164 -211l-170 -123l-147 219l-152 -219l-168 123l164 209z" />
<glyph unicode="+" d="M143 588v219h346v362h240v-362h346v-219h-346v-361h-240v361h-346z" />
<glyph unicode="," horiz-adv-x="440" d="M6 -336l123 354q-70 37 -70 129q0 152 160 152q77 0 119.5 -40.5t42.5 -113.5q0 -51 -19 -105.5t-67 -148.5l-115 -227h-174z" />
<glyph unicode="-" horiz-adv-x="733" d="M35 475l45 236h618l-47 -236h-616z" />
<glyph unicode="." horiz-adv-x="440" d="M59 139q0 81 38 119.5t122 38.5q85 0 123.5 -38.5t38.5 -119.5q0 -79 -38.5 -117t-123.5 -38q-84 0 -122 38t-38 117z" />
<glyph unicode="/" horiz-adv-x="849" d="M33 0l516 1458h268l-516 -1458h-268z" />
<glyph unicode="0" horiz-adv-x="1247" d="M92 584v225q0 105 9 185t31.5 152t61.5 121.5t97.5 86t141 54t190.5 17.5q129 0 222.5 -26.5t153 -74.5t94.5 -126.5t48.5 -170.5t13.5 -218v-225q0 -126 -13.5 -218t-48.5 -170.5t-94.5 -127t-153 -75t-222.5 -26.5q-108 0 -190.5 17.5t-141 54.5t-97.5 86.5 t-61.5 121.5t-31.5 152t-9 185zM367 598q0 -107 7 -175t22.5 -117.5t46.5 -74.5t73 -36t107 -11t107 11t73 36t46.5 74.5t22.5 117.5t7 175v195q0 108 -7 176.5t-22.5 118t-46.5 74.5t-72.5 35.5t-107.5 10.5t-107.5 -10.5t-72.5 -35.5t-46.5 -74.5t-22.5 -118t-7 -176.5 v-195z" />
<glyph unicode="1" horiz-adv-x="962" d="M88 1174l41 219h498v-1184h262l-41 -209h-758l41 209h225v965h-268z" />
<glyph unicode="2" horiz-adv-x="1103" d="M72 0v227q0 207 69 317.5t238 180.5l233 100q78 33 104.5 69t26.5 116q0 94 -39 130t-143 36q-91 0 -459 -5l35 222q125 4 432 4q230 0 336.5 -87.5t106.5 -269.5v-28q0 -143 -62 -235t-200 -148l-275 -115q-84 -37 -109.5 -82t-25.5 -156v-53h672l-39 -223h-901z" />
<glyph unicode="3" horiz-adv-x="1099" d="M47 0l39 219q104 -4 463 -4q98 0 143 40.5t45 127.5v41q0 98 -47 138t-158 40h-382l38 217h347q178 0 178 150v43q0 88 -42 127t-136 39q-355 0 -459 -4l39 219q230 4 452 4q206 0 313 -92t107 -250v-39q0 -119 -44 -185t-138 -104q106 -33 157.5 -106.5t51.5 -196.5v-53 q0 -182 -121.5 -278.5t-368.5 -96.5q-342 0 -477 4z" />
<glyph unicode="4" horiz-adv-x="1183" d="M63 268v193l515 932h266l-506 -910h391v414l256 45v-459h164l-41 -215h-123v-268h-256v268h-666z" />
<glyph unicode="5" horiz-adv-x="1103" d="M76 0l41 221q141 -6 370 -6q148 0 199 42.5t51 166.5v29q0 126 -49 164t-201 38h-376v738h843l-41 -219h-555v-300h168q270 0 377 -89.5t107 -321.5v-49q0 -153 -49.5 -242.5t-164 -132.5t-311.5 -43q-201 0 -409 4z" />
<glyph unicode="6" horiz-adv-x="1142" d="M88 496v319q0 110 12.5 194t47 159.5t91.5 124t148.5 76.5t216.5 28q71 0 379 -4l-41 -219q-104 4 -346 4q-64 0 -110 -15.5t-72.5 -39.5t-42 -63t-20.5 -77t-5 -90v-53q96 78 279 78q232 0 338 -105t106 -350v-41q0 -232 -117 -343.5t-372 -111.5q-267 0 -379.5 120 t-112.5 409zM346 430q0 -147 53 -202.5t179 -55.5q133 0 182 54t49 206v23q0 155 -45.5 207.5t-167.5 52.5q-72 0 -116.5 -10t-76 -39t-44.5 -80t-13 -133v-23z" />
<glyph unicode="7" horiz-adv-x="1085" d="M31 1174l45 219h915v-199l-446 -1194h-285l453 1174h-682z" />
<glyph unicode="8" horiz-adv-x="1179" d="M86 360v52q0 238 207 319q-178 85 -178 295v31q0 188 113.5 278t365.5 90q255 0 367 -90t112 -278v-31q0 -210 -178 -295q207 -79 207 -319v-52q0 -206 -121.5 -299.5t-386.5 -93.5t-386.5 93.5t-121.5 299.5zM350 389q0 -122 50 -170.5t194 -48.5q145 0 195.5 49 t50.5 170v17q0 122 -51 172.5t-195 50.5q-143 0 -193.5 -50.5t-50.5 -172.5v-17zM367 1016q0 -110 48.5 -151.5t178.5 -41.5q131 0 180 41.5t49 151.5v31q0 101 -50 143.5t-177 42.5t-178 -41.5t-51 -144.5v-31z" />
<glyph unicode="9" horiz-adv-x="1142" d="M76 930v41q0 232 117 343t372 111q267 0 379.5 -119.5t112.5 -408.5v-319q0 -110 -12.5 -194t-47 -159.5t-91.5 -124t-148.5 -76.5t-216.5 -28q-71 0 -379 4l41 219q103 -4 346 -4q64 0 110 15.5t72.5 39.5t42 63t20.5 77t5 90v53q-96 -78 -279 -78q-232 0 -338 105 t-106 350zM336 938q0 -155 45.5 -207.5t167.5 -52.5q72 0 116.5 10t76 39t44.5 80t13 133v23q0 147 -53 202.5t-179 55.5q-133 0 -182 -54t-49 -206v-23z" />
<glyph unicode=":" horiz-adv-x="440" d="M59 139q0 81 38 119.5t122 38.5q85 0 123.5 -38.5t38.5 -119.5q0 -79 -38.5 -117t-123.5 -38q-84 0 -122 38t-38 117zM59 924q0 80 38 118.5t122 38.5q85 0 123.5 -38t38.5 -119q0 -79 -38.5 -117.5t-123.5 -38.5q-84 0 -122 38.5t-38 117.5z" />
<glyph unicode=";" horiz-adv-x="440" d="M6 -336l123 354q-70 37 -70 129q0 152 160 152q77 0 119.5 -40.5t42.5 -113.5q0 -51 -19 -105.5t-67 -148.5l-115 -227h-174zM59 924q0 80 38 118.5t122 38.5q85 0 123.5 -38t38.5 -119q0 -79 -38.5 -117.5t-123.5 -38.5q-84 0 -122 38.5t-38 117.5z" />
<glyph unicode="&#x3c;" d="M143 582v229l932 358v-227l-663 -246l663 -245v-228z" />
<glyph unicode="=" d="M143 381v215h932v-215h-932zM143 799v215h932v-215h-932z" />
<glyph unicode="&#x3e;" d="M143 223v228l664 245l-664 246v227l932 -358v-229z" />
<glyph unicode="?" horiz-adv-x="954" d="M16 1241l37 217q328 4 398 4q231 0 336.5 -88t105.5 -276v-45q0 -137 -52 -213.5t-171 -132.5l-99 -48q-71 -33 -92.5 -68.5t-21.5 -125.5v-47h-258v47q0 152 50 227t167 131l94 45q69 32 93 70.5t24 116.5q0 103 -39 146.5t-150 43.5q-82 0 -422 -4zM168 137 q0 77 38 114.5t122 37.5t121.5 -37.5t37.5 -114.5q0 -79 -37 -116t-122 -37t-122.5 37t-37.5 116z" />
<glyph unicode="@" horiz-adv-x="1550" d="M96 231v289q0 340 170 486.5t563 146.5q325 0 469 -109t144 -360v-469q0 -104 -46 -146t-167 -42h-303q-197 0 -291 75t-94 240v47q0 164 96.5 241t288.5 77q171 0 268 -56v33q0 150 -80.5 204t-286.5 54q-146 0 -238 -20.5t-147.5 -72t-76.5 -129t-21 -200.5v-291 q0 -94 9.5 -159.5t35 -118.5t66 -85.5t107.5 -54t153.5 -30t208.5 -8.5q274 0 389 6l-41 -209q-153 -8 -350 -8q-161 0 -280 13.5t-213.5 45.5t-156 81.5t-102 126t-57.5 173.5t-17 229zM788 356q0 -74 36 -104.5t126 -30.5h244v166q0 76 -43.5 104.5t-163.5 28.5 q-85 0 -127.5 -12.5t-57 -38.5t-14.5 -78v-35z" />
<glyph unicode="A" horiz-adv-x="1454" d="M29 0l542 1458h312l542 -1458h-286l-138 387h-565l-135 -387h-272zM510 608h418l-209 594z" />
<glyph unicode="B" horiz-adv-x="1304" d="M133 0v1458h629q228 0 332 -87.5t104 -274.5v-21q0 -231 -190 -305q110 -32 171.5 -116.5t61.5 -221.5v-33q0 -399 -483 -399h-625zM406 223h339q122 0 171 42.5t49 152.5v26q0 115 -52.5 160t-181.5 45h-325v-426zM406 866h309q116 0 163.5 42.5t47.5 140.5v26 q0 86 -44.5 123t-148.5 37h-327v-369z" />
<glyph unicode="C" horiz-adv-x="1177" d="M96 651v158q0 187 32.5 310t108.5 200.5t193 110t295 32.5q260 0 381 -4l-45 -235q-184 4 -330 4q-77 0 -128.5 -6t-93.5 -24.5t-65 -46t-39 -77t-21 -111t-5 -153.5v-160q0 -134 14.5 -212t56.5 -126t107 -64t178 -16q230 0 383 5l-45 -236q-108 -4 -346 -4 q-183 0 -302 33.5t-193.5 113.5t-105 201t-30.5 307z" />
<glyph unicode="D" horiz-adv-x="1429" d="M133 0v1458h563q185 0 309 -38.5t196.5 -122t102 -198.5t29.5 -284v-170q0 -165 -30 -280.5t-101.5 -200t-195.5 -124.5t-306 -40h-567zM406 236h278q106 0 172 17t112 63.5t64.5 127.5t18.5 211v150q0 131 -18.5 211.5t-64.5 127t-111.5 63t-172.5 16.5h-278v-987z" />
<glyph unicode="E" horiz-adv-x="1241" d="M133 0v1458h1032l-47 -235h-712v-359h700l-45 -235h-655v-393h761l-45 -236h-989z" />
<glyph unicode="F" horiz-adv-x="1171" d="M133 0v1458h1000l-46 -235h-681v-377h649l-45 -236h-604v-610h-273z" />
<glyph unicode="G" horiz-adv-x="1343" d="M96 629v202q0 109 12.5 192.5t41.5 156.5t78.5 123.5t122.5 87t173.5 54t231.5 17.5q134 0 446 -4l-43 -235q-163 4 -420 4q-78 0 -130 -6t-94.5 -23.5t-67 -44t-41 -73.5t-22 -106.5t-5.5 -146.5v-192q0 -89 6.5 -151t24 -107.5t41 -72t65.5 -42.5t89.5 -21t119.5 -5 h250v335h-248l45 217h475v-583q0 -104 -35.5 -151t-117.5 -52q-8 0 -181.5 -1t-181.5 -1q-149 0 -257 24.5t-181.5 71.5t-116.5 124.5t-61.5 175.5t-18.5 233z" />
<glyph unicode="H" horiz-adv-x="1466" d="M133 0v1458h273v-596h655v596h272v-1458h-272v627h-655v-627h-273z" />
<glyph unicode="I" horiz-adv-x="538" d="M133 0v1458h273v-1458h-273z" />
<glyph unicode="J" horiz-adv-x="964" d="M35 0l45 233q74 -2 239 -2q53 0 85 3.5t63.5 15.5t48 34t30 60.5t18.5 93t5 133.5v887h273v-921q0 -153 -23.5 -253t-80.5 -166t-149 -94t-233 -28q-177 0 -321 4z" />
<glyph unicode="K" horiz-adv-x="1353" d="M133 0v1458h275v-620l565 620h313l-637 -690l709 -768h-359l-591 659v-659h-275z" />
<glyph unicode="L" horiz-adv-x="1155" d="M133 0v1458h273v-1222h714l-45 -236h-942z" />
<glyph unicode="M" horiz-adv-x="1703" d="M133 0v1458h301l428 -792l406 792h303v-1458h-273v1042l-331 -630h-228l-333 616v-1028h-273z" />
<glyph unicode="N" horiz-adv-x="1470" d="M133 0v1458h236l698 -1012v1012h270v-1458h-237l-694 1004v-1004h-273z" />
<glyph unicode="O" horiz-adv-x="1476" d="M96 631v198q0 137 16.5 236.5t59 184.5t114.5 137t184 81t267 29q154 0 265 -27t184 -77.5t116 -134.5t60.5 -186t17.5 -243v-198q0 -113 -11.5 -200t-39 -165t-75 -132t-118 -93.5t-170 -58.5t-229.5 -19q-128 0 -226 17.5t-169 55.5t-118.5 91t-75.5 130.5t-40 167 t-12 206.5zM379 637q0 -97 5.5 -162.5t22 -117.5t40.5 -81.5t66.5 -48.5t94.5 -25.5t129 -6.5t128.5 6t94.5 25t67.5 48.5t41.5 81t23 118t6 163.5v186q0 96 -6 162.5t-23 118t-41.5 81.5t-67 49t-94.5 25.5t-129 6.5q-78 0 -129.5 -6.5t-94 -25t-66.5 -48t-40.5 -81.5 t-22 -118t-5.5 -164v-186z" />
<glyph unicode="P" horiz-adv-x="1298" d="M133 0v1458h565q279 0 404 -101.5t125 -318.5v-90q0 -217 -127 -318.5t-402 -101.5h-295v-528h-270zM403 760h287q152 0 208 43.5t56 175.5v29q0 132 -56 175.5t-208 43.5h-287v-467z" />
<glyph unicode="Q" horiz-adv-x="1476" d="M96 631v198q0 137 16.5 236.5t59 184.5t114.5 137t184 81t267 29q154 0 265 -27t184 -77.5t116 -134.5t60.5 -186t17.5 -243v-198q0 -106 -10 -189t-34 -158t-64.5 -129.5t-103 -95.5t-146.5 -63l317 -264h-350l-266 231q-149 2 -257 30t-179.5 79t-114 134.5 t-59.5 184.5t-17 240zM379 637q0 -97 5.5 -162.5t22 -117.5t40.5 -81.5t66.5 -48.5t94.5 -25.5t129 -6.5t128.5 6t94.5 25t67.5 48.5t41.5 81t23 118t6 163.5v186q0 96 -6 162.5t-23 118t-41.5 81.5t-67 49t-94.5 25.5t-129 6.5q-78 0 -129.5 -6.5t-94 -25t-66.5 -48 t-40.5 -81.5t-22 -118t-5.5 -164v-186z" />
<glyph unicode="R" horiz-adv-x="1325" d="M133 0v1458h567q277 0 402 -100.5t125 -327.5v-61q0 -159 -69.5 -255.5t-207.5 -138.5l342 -575h-303l-301 539h-282v-539h-273zM406 768h288q62 0 103 5.5t73 19.5t49.5 40t26 64t8.5 94v15q0 71 -12 113.5t-44.5 67t-79 32.5t-124.5 8h-288v-459z" />
<glyph unicode="S" horiz-adv-x="1196" d="M63 0l43 231q145 -4 474 -4q116 0 175.5 16.5t82 53.5t22.5 109q0 49 -6 78t-26 51.5t-55 35.5t-95 23l-248 41q-109 18 -181 50t-112 83t-55.5 112.5t-15.5 149.5v37q0 194 126.5 294.5t415.5 100.5q329 0 486 -4l-43 -231q-137 4 -457 4q-152 0 -204 -35.5t-52 -134.5 q0 -59 12 -91t49.5 -53t112.5 -32l266 -45q199 -36 279 -129t80 -275v-33q0 -143 -51 -229.5t-175.5 -132t-335.5 -45.5q-339 0 -512 4z" />
<glyph unicode="T" horiz-adv-x="1351" d="M35 1223l45 235h1237l-45 -235h-465v-1223h-272v1223h-500z" />
<glyph unicode="U" horiz-adv-x="1415" d="M123 584v874h272v-874q0 -118 12.5 -188.5t48.5 -116.5t94.5 -63t156.5 -17q78 0 130.5 11.5t89.5 36.5t56.5 71.5t28 109t8.5 156.5v874h272v-874q0 -129 -16 -223t-55 -172t-105.5 -126t-167.5 -74t-241 -26q-139 0 -240 26t-167.5 74t-105.5 126t-55 172t-16 223z" />
<glyph unicode="V" horiz-adv-x="1370" d="M25 1458h299l368 -1130l369 1130h285l-504 -1458h-310z" />
<glyph unicode="W" horiz-adv-x="1882" d="M43 1458h281l211 -1110l286 1110h254l283 -1112l215 1112h266l-328 -1458h-299l-268 1079l-274 -1079h-303z" />
<glyph unicode="X" horiz-adv-x="1376" d="M8 0l524 770l-469 688h310l321 -489l314 489h305l-475 -688l530 -770h-319l-369 565l-367 -565h-305z" />
<glyph unicode="Y" horiz-adv-x="1366" d="M16 1458h303l371 -627l365 627h295l-529 -852v-606h-272v604z" />
<glyph unicode="Z" horiz-adv-x="1273" d="M70 0v211l747 1012h-731l47 235h1016v-213l-746 -1009h801l-49 -236h-1085z" />
<glyph unicode="[" horiz-adv-x="751" d="M133 -358v1816h584l-43 -215h-291v-1386h334l-43 -215h-541z" />
<glyph unicode="\" horiz-adv-x="849" d="M33 1458h274l510 -1458h-276z" />
<glyph unicode="]" horiz-adv-x="751" d="M35 -358l43 215h291v1386h-334l43 215h540v-1816h-583z" />
<glyph unicode="^" d="M143 817l330 641h272l332 -641h-258l-211 412l-207 -412h-258z" />
<glyph unicode="_" horiz-adv-x="1024" d="M0 -152h1024v-229h-1024v229z" />
<glyph unicode="`" horiz-adv-x="1024" d="M256 1495h289l213 -268h-252z" />
<glyph unicode="a" horiz-adv-x="1138" d="M76 317v45q0 170 99 247t314 77q197 0 283 -57v37q0 112 -48.5 150t-188.5 38q-52 0 -181.5 -2t-181.5 -2l43 215q152 4 332 4q251 0 367 -87.5t116 -276.5v-512q0 -108 -48.5 -150.5t-170.5 -42.5h-334q-214 0 -307.5 79t-93.5 238zM334 322q0 -68 39 -98.5t139 -30.5 h260v165q0 53 -14.5 80t-60 41.5t-134.5 14.5h-31q-115 0 -156.5 -29t-41.5 -105v-38z" />
<glyph unicode="b" horiz-adv-x="1212" d="M109 471v1051h266v-498q93 74 284 74q249 0 357 -120t108 -386v-117q0 -136 -24.5 -228.5t-84 -157t-159 -93.5t-248.5 -29q-269 0 -384 112t-115 392zM375 471q0 -79 6.5 -127.5t20.5 -83t43.5 -51t67.5 -23t101 -6.5q75 0 116.5 9t72 40.5t41 87.5t10.5 154v115 q0 99 -10 156t-39.5 90t-71 43t-115.5 10q-77 0 -122.5 -10.5t-73.5 -41.5t-37.5 -78t-9.5 -128v-156z" />
<glyph unicode="c" horiz-adv-x="978" d="M88 477v111q0 265 114 373t396 108q114 0 301 -6l-43 -215q-115 6 -252 6q-64 0 -103 -6t-69.5 -21t-45 -46t-21.5 -76t-7 -117v-111q0 -71 7.5 -116.5t23 -76.5t46 -46t69 -21t100.5 -6q123 0 299 4l-43 -215q-176 -4 -262 -4q-145 0 -241.5 25t-157 84t-86 148 t-25.5 224z" />
<glyph unicode="d" horiz-adv-x="1204" d="M88 506v86q0 135 24 227.5t78.5 156t144.5 93t222 29.5q86 0 159.5 -19.5t112.5 -50.5v494h267v-1329q0 -106 -48 -149.5t-171 -43.5h-291q-144 0 -238.5 26.5t-153 88t-82.5 155t-24 236.5zM358 510q0 -66 3.5 -110t14 -79t26 -54.5t44 -32.5t62.5 -17t86 -4h235v434 q0 145 -47.5 191.5t-191.5 46.5q-77 0 -120 -10.5t-69.5 -44.5t-34.5 -86t-8 -146v-88z" />
<glyph unicode="e" horiz-adv-x="1126" d="M88 477v115q0 128 23 218t78.5 157t152.5 99t240 32q131 0 223.5 -29.5t145 -84.5t75.5 -124.5t23 -159.5v-34q0 -94 -16 -142t-49 -65t-97 -17h-533q0 -78 8 -121.5t34.5 -72t69.5 -38t120 -9.5q271 0 391 4l-41 -205q-101 -4 -363 -4q-114 0 -198.5 21.5t-139.5 60 t-88 99.5t-46 133t-13 167zM354 637h441v47q0 120 -46.5 166.5t-173.5 46.5q-72 0 -113.5 -11t-66.5 -42.5t-33 -78t-8 -128.5z" />
<glyph unicode="f" horiz-adv-x="772" d="M109 0v1032q0 275 113 384.5t396 109.5q156 0 220 -4l-43 -219q-114 4 -174 4q-73 0 -116 -9t-73 -36t-42.5 -73.5t-14.5 -123.5h383l-43 -219h-340v-846h-266z" />
<glyph unicode="g" horiz-adv-x="1204" d="M88 541v57q0 127 22.5 215t78 154.5t155 98.5t248.5 32q101 0 180 -14.5t134 -44.5t92.5 -69.5t58.5 -94.5t30 -114t9 -134v-529q0 -248 -116.5 -354t-391.5 -106q-262 0 -393 4l43 213q128 -5 337 -5q143 0 198.5 52t55.5 198v15q-95 -74 -274 -74q-131 0 -221 30.5 t-144.5 94.5t-78 154.5t-23.5 220.5zM358 549q0 -65 2.5 -105.5t11.5 -77t24 -55.5t42.5 -33.5t64 -19t91.5 -4.5q75 0 119.5 10.5t71 39t35.5 71t9 114.5v101q0 66 -2.5 105.5t-11 77t-23 56t-42 33t-64.5 19t-92 4.5t-92 -4.5t-64.5 -19t-42.5 -33.5t-23.5 -55.5 t-11 -76.5t-2.5 -106v-41z" />
<glyph unicode="h" horiz-adv-x="1189" d="M109 0v1522h266v-508q92 84 293 84q413 0 413 -353v-745h-266v692q0 42 -3.5 68t-15.5 51t-34.5 38.5t-60.5 21.5t-93 8q-138 0 -185.5 -51.5t-47.5 -186.5v-641h-266z" />
<glyph unicode="i" horiz-adv-x="483" d="M86 1366q0 76 36 110.5t122 34.5t121.5 -34t35.5 -111q0 -79 -35 -112t-122 -33t-122.5 33t-35.5 112zM109 0v1065h266v-1065h-266z" />
<glyph unicode="j" horiz-adv-x="483" d="M-213 -358l41 202q43 -2 125 -2q49 0 76 6t46.5 25.5t26.5 54.5t7 95v1042h266v-1042q0 -113 -20 -186.5t-67.5 -118t-118.5 -62.5t-181 -18q-91 0 -201 4zM86 1366q0 76 36 110.5t122 34.5t121.5 -34t35.5 -111q0 -79 -35 -112t-122 -33t-122.5 33t-35.5 112z" />
<glyph unicode="k" horiz-adv-x="1144" d="M109 0v1522h266v-860l403 403h322l-490 -475l537 -590h-332l-440 492v-492h-266z" />
<glyph unicode="l" horiz-adv-x="483" d="M109 0v1522h266v-1522h-266z" />
<glyph unicode="m" horiz-adv-x="1755" d="M109 0v729q0 198 109 283.5t331 85.5q110 0 195.5 -31t132.5 -88q99 119 331 119q219 0 329 -86t110 -283v-729h-267v692q0 53 -5 83t-23.5 56.5t-56.5 37t-101 10.5q-110 0 -146 -37.5t-36 -126.5v-715h-267v692q0 35 -2 57.5t-8.5 46t-19 37t-33 25t-51 16.5t-72.5 5 q-63 0 -100.5 -10.5t-55.5 -37t-23 -56.5t-5 -83v-692h-266z" />
<glyph unicode="n" horiz-adv-x="1189" d="M109 0v725q0 200 115.5 286.5t371.5 86.5t370.5 -86t114.5 -287v-725h-266v692q0 54 -6 83.5t-27.5 56t-66 37t-119.5 10.5t-120 -10.5t-67 -37t-28 -56.5t-6 -83v-692h-266z" />
<glyph unicode="o" horiz-adv-x="1193" d="M88 477v111q0 149 27 246t90 156.5t157 83.5t236 24t235 -24t156 -83.5t90 -157t27 -245.5v-111q0 -148 -27 -245.5t-90 -157t-156 -83.5t-235 -24t-236 24t-157 83.5t-90 156.5t-27 246zM358 471q0 -65 4 -109t15 -78t27 -53t44.5 -31t63 -16t86.5 -4q78 0 120.5 9.5 t71 42t37.5 87t9 152.5v121q0 99 -9 153.5t-37.5 87.5t-71 42.5t-120.5 9.5q-52 0 -86.5 -4t-63 -16t-44.5 -31t-27 -53.5t-15 -78.5t-4 -110v-121z" />
<glyph unicode="p" horiz-adv-x="1204" d="M109 -358v950q0 282 116.5 394t392.5 112q137 0 228 -24.5t153 -84.5t89.5 -159.5t27.5 -249.5v-97q0 -143 -23.5 -238t-79.5 -158.5t-147.5 -91.5t-230.5 -28q-173 0 -260 74v-399h-266zM375 446q0 -160 48 -213t187 -53q52 0 86 4t62.5 17t44 32.5t26 54.5t14 79.5 t3.5 111.5v105q0 67 -4 113t-15.5 81t-27 55t-44 32t-61.5 16t-84 4q-75 0 -116.5 -9.5t-70.5 -42t-38.5 -88t-9.5 -153.5v-146z" />
<glyph unicode="q" horiz-adv-x="1204" d="M88 475v113q0 137 23.5 229t81.5 157t157 94.5t248 29.5q135 0 226.5 -25.5t153.5 -85t90 -156t28 -239.5v-950h-267v399q-93 -74 -282 -74q-249 0 -354 120t-105 388zM358 479q0 -80 6.5 -130.5t20 -86t41.5 -52t64.5 -23.5t95.5 -7q78 0 123.5 10.5t73 41.5t37 78 t9.5 128v154q0 99 -8.5 153.5t-37 87.5t-71.5 42.5t-122 9.5q-74 0 -114 -9t-69.5 -41t-39 -88t-9.5 -155v-113z" />
<glyph unicode="r" horiz-adv-x="790" d="M109 0v700q0 197 108.5 283t321.5 86q169 0 241 -2l-43 -221q-110 4 -172 4q-63 0 -102 -11t-58 -38t-24.5 -58.5t-5.5 -85.5v-657h-266z" />
<glyph unicode="s" horiz-adv-x="1069" d="M74 0l41 217q278 -4 436 -4q102 0 140 22t38 80q0 48 -26 72t-103 31l-225 18q-151 11 -223 93.5t-72 201.5v31q0 151 103 229t331 78q41 0 451 -4l-41 -217q-161 4 -432 4q-91 0 -125.5 -19t-34.5 -69t25 -70.5t108 -27.5l215 -21q72 -7 127 -27t88.5 -47.5t54.5 -65.5 t29 -76.5t8 -84.5v-31q0 -317 -446 -317q-359 0 -467 4z" />
<glyph unicode="t" horiz-adv-x="794" d="M109 401v912l266 43v-291h383l-43 -219h-340v-430q0 -124 33.5 -160.5t146.5 -36.5h190l-43 -219h-165q-132 0 -212.5 18t-130 66t-67.5 121.5t-18 195.5z" />
<glyph unicode="u" horiz-adv-x="1181" d="M109 340v725h266v-690q0 -34 2.5 -57t9.5 -46.5t21.5 -37.5t38.5 -26t60 -17t85 -5q58 0 98 8.5t63 22t35 39.5t15.5 51.5t3.5 67.5v690h266v-725q0 -203 -114.5 -288t-366.5 -85q-253 0 -368 85t-115 288z" />
<glyph unicode="v" horiz-adv-x="1130" d="M25 1065h286l258 -793l267 793h270l-391 -1065h-297z" />
<glyph unicode="w" horiz-adv-x="1603" d="M33 1065h268l184 -786l203 786h242l192 -791l195 791h254l-316 -1065h-266l-186 743l-189 -743h-270z" />
<glyph unicode="x" horiz-adv-x="1126" d="M27 0l385 553l-351 512h299l207 -334l215 334h281l-352 -502l391 -563h-301l-244 377l-248 -377h-282z" />
<glyph unicode="y" horiz-adv-x="1181" d="M109 389v676h266v-623q0 -43 2.5 -67.5t13.5 -51t32 -39.5t58 -21.5t92 -8.5q75 0 120 10t71 36t34.5 62.5t8.5 98.5v604h266v-967q0 -248 -116.5 -354t-391.5 -106q-262 0 -393 4l43 213q128 -5 338 -5q143 0 198.5 52t55.5 198v21q-50 -41 -109 -60.5t-182 -19.5 q-205 0 -306 81.5t-101 266.5z" />
<glyph unicode="z" horiz-adv-x="1054" d="M68 848l43 217h856v-191l-568 -659h598l-43 -215h-884v188l565 660h-567z" />
<glyph unicode="{" horiz-adv-x="860" d="M82 442v217h37q79 0 109 33t30 92v359q0 74 17.5 128.5t60.5 98t122 66t195 22.5h156l-41 -211h-109q-89 0 -122 -35t-33 -112v-340q0 -144 -127 -209q127 -65 127 -209v-342q0 -77 33 -112t122 -35h150l-41 -211h-115q-116 0 -195 22.5t-122 66t-60.5 98t-17.5 128.5 v360q0 59 -30 92t-109 33h-37z" />
<glyph unicode="|" horiz-adv-x="485" d="M113 -358v1880h260v-1880h-260z" />
<glyph unicode="}" horiz-adv-x="860" d="M51 -358l41 211h109q89 0 122 35t33 112v342q0 144 127 209q-127 65 -127 209v340q0 77 -33 112t-122 35h-150l41 211h115q116 0 195 -22.5t122 -66t60.5 -98t17.5 -128.5v-359q0 -59 30 -92t109 -33h37v-217h-37q-79 0 -109 -33t-30 -92v-360q0 -74 -17.5 -128.5 t-60.5 -98t-122 -66t-195 -22.5h-156z" />
<glyph unicode="~" d="M125 522v35q0 183 60 262.5t177 79.5q41 0 86 -12.5t73.5 -25t86.5 -40.5l41 -20q63 -31 94.5 -42t59.5 -11q37 0 53 21t16 79v29h222v-35q0 -183 -60.5 -263.5t-177.5 -80.5q-55 0 -108 17t-138 60l-43 21q-49 24 -68.5 32.5t-41.5 15.5t-41 7q-37 0 -53.5 -21 t-16.5 -79v-29h-221z" />
<glyph unicode="&#xa1;" horiz-adv-x="514" d="M98 924q0 80 37 116.5t123 36.5q85 0 121.5 -37t36.5 -116q0 -77 -37 -114.5t-121 -37.5q-86 0 -123 37.5t-37 114.5zM119 51q0 121 8 228l23 368h212l25 -368q8 -107 8 -228v-448h-276v448z" />
<glyph unicode="&#xa2;" d="M190 477v111q0 246 103.5 357.5t335.5 119.5v197h174v-195q46 0 122.5 -2t90.5 -2l-43 -215l-172 6v-643q125 0 219 4l-43 -215q-70 -4 -176 -4v-193h-172v195q-128 6 -213.5 38t-135 94t-70 145t-20.5 202zM461 477q0 -145 34 -198.5t134 -65.5v639q-96 -8 -132 -63.5 t-36 -200.5v-111z" />
<glyph unicode="&#xa3;" d="M117 0l43 219h104v383h-145l43 219h102v90q0 257 119.5 371.5t394.5 114.5q257 0 334 -4l-41 -217q-121 2 -293 2q-149 0 -202.5 -56t-53.5 -211v-90h434l-43 -219h-391v-383h598l-43 -219h-960z" />
<glyph unicode="&#xa4;" d="M82 352l125 127q-78 116 -78 246t78 246l-125 127l145 143l129 -129q115 74 252 74q134 0 252 -74l129 129l146 -143l-125 -127q75 -115 75 -246t-75 -246l125 -127l-146 -143l-131 129q-115 -74 -250 -74q-137 0 -252 74l-129 -129zM328 725q0 -113 78.5 -191.5 t201.5 -78.5t202 78.5t79 191.5q0 116 -78.5 194t-202.5 78t-202 -78t-78 -194z" />
<glyph unicode="&#xa5;" d="M25 1393h292l293 -551l303 551h283l-367 -625h226v-193h-318v-129h318v-192h-318v-254h-262v254h-317v192h317v129h-317v193h227z" />
<glyph unicode="&#xa6;" horiz-adv-x="483" d="M113 291h258v-649h-258v649zM113 872v650h258v-650h-258z" />
<glyph unicode="&#xa7;" horiz-adv-x="1214" d="M104 520q2 100 40 180t118 119q-48 24 -80 56t-47 69.5t-20.5 71t-5.5 74.5q0 374 440 374q398 0 518 -4l-41 -213q-274 4 -481 4q-59 0 -97.5 -10t-57 -30t-24.5 -42t-6 -55q0 -70 41 -105t142 -42q96 -9 146.5 -14.5t122 -18.5t107.5 -29t79.5 -43t63.5 -64t34 -89.5 t14 -120.5q0 -101 -33.5 -176.5t-109.5 -130.5q70 -41 104.5 -113t34.5 -156v-24q0 -172 -117.5 -268.5t-359.5 -96.5q-400 0 -508 4l41 213q262 -4 471 -4q116 0 162.5 33.5t46.5 120.5q0 66 -29.5 101t-101.5 42l-265 27q-162 17 -241 82.5t-96 199.5q-5 21 -5 78z M352 547q0 -42 7 -71.5t23.5 -49t36 -31.5t54 -19t68 -11t85.5 -8q10 -1 15 -1q62 -4 76 -4q147 3 147 201q0 50 -11 82.5t-29.5 51.5t-54.5 30t-74 15.5t-100 9.5q-11 1 -17 1q-11 1 -28 2t-28.5 2t-19.5 1q-150 -3 -150 -201z" />
<glyph unicode="&#xa8;" horiz-adv-x="1024" d="M182 1352q0 68 32 100.5t105 32.5q74 0 107 -32.5t33 -100.5q0 -67 -33 -99t-107 -32q-72 0 -104.5 32t-32.5 99zM563 1352q0 69 32.5 101t106.5 32t107 -32.5t33 -100.5q0 -67 -33 -99t-107 -32t-106.5 32t-32.5 99z" />
<glyph unicode="&#xa9;" horiz-adv-x="1712" d="M74 729q0 213 39.5 355t133 234.5t240.5 132.5t369 40q175 0 302 -25t220.5 -78.5t149.5 -144t83 -216t27 -298.5q0 -213 -40 -355t-134 -234.5t-241 -132.5t-367 -40t-365.5 38.5t-240.5 129t-135.5 234t-40.5 360.5zM270 729q0 -121 9.5 -205t35.5 -152.5t66.5 -109.5 t108 -68.5t154 -38t210.5 -10.5t211.5 10.5t155 38t108 68t66.5 109t35.5 152.5t9.5 206q0 121 -9.5 204.5t-35.5 152t-66.5 109.5t-108 69t-155 38.5t-211.5 10.5t-210.5 -10.5t-154 -38t-108 -68t-66.5 -109t-35.5 -152.5t-9.5 -206zM506 682v92q0 108 16.5 178.5 t60 124.5t123 78.5t201.5 24.5q109 0 219 -4l-36 -191q-72 2 -168 2q-62 0 -94 -6t-54.5 -29.5t-28.5 -63.5t-6 -114v-88q0 -49 3 -81t12 -58t22 -39.5t38 -22.5t55 -11.5t77 -2.5q129 0 178 2l-37 -190q-114 -4 -178 -4q-116 0 -193 22t-124 72.5t-66.5 124t-19.5 184.5z " />
<glyph unicode="&#xaa;" horiz-adv-x="894" d="M57 872v35q0 137 78.5 195.5t249.5 58.5q143 0 213 -45v39q0 41 -5 63t-22.5 41.5t-53.5 27t-97 7.5q-109 0 -285 -4l35 174q59 2 262 2q193 0 285 -65.5t92 -220.5v-408q0 -151 -127 -151h-303q-163 0 -242.5 59.5t-79.5 191.5zM266 877q0 -57 33 -77t104 -20h193v119 q0 45 -9.5 65.5t-42.5 31t-102 10.5h-18q-92 0 -125 -22.5t-33 -82.5v-24z" />
<glyph unicode="&#xab;" horiz-adv-x="1157" d="M76 401v263l456 344v-267l-284 -209l284 -208v-265zM621 401v263l456 344v-267l-284 -209l284 -208v-265z" />
<glyph unicode="&#xac;" d="M127 752v219h913v-559h-241v340h-672z" />
<glyph unicode="&#xad;" horiz-adv-x="733" d="M35 475l45 236h618l-47 -236h-616z" />
<glyph unicode="&#xae;" horiz-adv-x="1214" d="M55 991q0 292 127 414.5t426 122.5q297 0 424 -122.5t127 -414.5t-126.5 -414t-424.5 -122q-299 0 -426 122t-127 414zM229 991q0 -119 16 -190t60.5 -116t115 -61t187.5 -16q93 0 155 11t107 35t69 70t35 109t11 158q0 117 -16 188t-60 116.5t-114.5 62t-186.5 16.5 q-117 0 -187.5 -16.5t-115 -62t-60.5 -116.5t-16 -188zM389 729v541h262q103 0 148 -40.5t45 -131.5v-29q0 -58 -18.5 -92t-65.5 -57l110 -191h-176l-86 162h-59v-162h-160zM547 1014h65q43 0 58.5 11.5t15.5 45.5v16q0 36 -15.5 47t-58.5 11h-65v-131z" />
<glyph unicode="&#xaf;" horiz-adv-x="1024" d="M201 1255v191h620v-191h-620z" />
<glyph unicode="&#xb0;" horiz-adv-x="729" d="M25 1219q0 319 340 319t340 -319q0 -160 -87 -240t-253 -80t-253 80t-87 240zM215 1219q0 -86 34.5 -120t115.5 -34t114 33.5t33 120.5q0 85 -33.5 119t-113.5 34q-81 0 -115.5 -34t-34.5 -119z" />
<glyph unicode="&#xb1;" d="M143 2v219h932v-219h-932zM143 662v219h346v362h240v-362h346v-219h-346v-361h-240v361h-346z" />
<glyph unicode="&#xb2;" horiz-adv-x="786" d="M94 590v151q0 133 46 203t163 105l98 30q55 17 69.5 31t14.5 49q0 42 -19.5 56t-78.5 14q-128 0 -272 -4l26 166q144 4 250 4q162 0 232.5 -51.5t70.5 -163.5v-27q0 -89 -38 -137t-140 -78l-119 -35q-45 -15 -62 -25.5t-24.5 -31t-7.5 -66.5v-20h393l-28 -170h-574z" />
<glyph unicode="&#xb3;" horiz-adv-x="786" d="M86 592l27 166q144 -4 274 -4q58 0 79 14t21 59v11q0 46 -21.5 61.5t-78.5 15.5h-231l26 162h183q65 0 86.5 15.5t21.5 58.5v10q0 41 -21 53.5t-87 12.5q-110 0 -254 -4l26 168q176 4 258 4q151 0 219 -51.5t68 -157.5v-10q0 -62 -25 -102t-84 -62q64 -20 96.5 -67 t32.5 -111v-19q0 -114 -75 -170.5t-242 -56.5q-230 0 -299 4z" />
<glyph unicode="&#xb4;" horiz-adv-x="1024" d="M260 1227l215 268h289l-252 -268h-252z" />
<glyph unicode="&#xb5;" horiz-adv-x="1181" d="M109 -358v1423h266v-614q0 -134 50.5 -183t192.5 -49h189v846h266v-872q0 -106 -50 -149.5t-183 -43.5h-201q-103 0 -165.5 14.5t-98.5 48.5v-421h-266z" />
<glyph unicode="&#xb6;" horiz-adv-x="1345" d="M72 981v63q0 80 24.5 152t73 131.5t130.5 95t187 35.5h734v-1816h-211v1620h-187v-1620h-209v917h-94q-100 0 -179.5 26.5t-129 69t-82 99.5t-45 113t-12.5 114z" />
<glyph unicode="&#xb7;" horiz-adv-x="440" d="M59 698q0 81 38 119.5t122 38.5q85 0 123.5 -38.5t38.5 -119.5q0 -79 -38.5 -117t-123.5 -38q-84 0 -122 38t-38 117z" />
<glyph unicode="&#xb8;" horiz-adv-x="1024" d="M299 -430l39 137q94 -4 129 -4t48 10.5t13 36.5q0 27 -13 38t-48 11q-71 0 -102 -2l34 131q47 2 121 2q117 0 165 -38t48 -130v-16q0 -101 -54 -141.5t-192 -40.5q-141 0 -188 6z" />
<glyph unicode="&#xb9;" horiz-adv-x="786" d="M127 590l29 176h157v457h-182l33 170h366v-627h183l-29 -176h-557z" />
<glyph unicode="&#xba;" horiz-adv-x="976" d="M76 991v105q0 213 93 298t318 85q228 0 321 -84.5t93 -298.5v-105q0 -214 -93 -298.5t-321 -84.5q-225 0 -318 85t-93 298zM307 999q0 -132 32.5 -172.5t147.5 -40.5q116 0 149.5 40.5t33.5 172.5v91q0 68 -6 105.5t-26.5 63t-55 33.5t-95.5 8q-115 0 -147.5 -40 t-32.5 -170v-91z" />
<glyph unicode="&#xbb;" horiz-adv-x="1157" d="M80 59v265l285 208l-285 209v267l457 -344v-263zM625 59v265l284 208l-284 209v267l456 -344v-263z" />
<glyph unicode="&#xbc;" horiz-adv-x="1845" d="M127 590l29 176h157v457h-182l33 170h366v-627h183l-29 -176h-557zM389 0l850 1393h234l-850 -1393h-234zM1122 150v157l271 496h211l-277 -492h186v193l199 28v-221h100l-32 -161h-68v-150h-199v150h-391z" />
<glyph unicode="&#xbd;" horiz-adv-x="1845" d="M127 590l29 176h157v457h-182l33 170h366v-627h183l-29 -176h-557zM383 0l850 1393h233l-850 -1393h-233zM1153 0v152q0 133 46 202.5t163 104.5l98 30q55 17 69.5 31t14.5 49q0 42 -19.5 56t-78.5 14q-128 0 -272 -4l26 166q144 4 250 4q162 0 232.5 -51.5t70.5 -163.5 v-27q0 -89 -38 -137t-140 -78l-119 -35q-45 -15 -62 -25.5t-24.5 -31t-7.5 -66.5v-20h393l-29 -170h-573z" />
<glyph unicode="&#xbe;" horiz-adv-x="1845" d="M86 592l27 166q144 -4 274 -4q58 0 79 14t21 59v11q0 46 -21.5 61.5t-78.5 15.5h-231l26 162h183q65 0 86.5 15.5t21.5 58.5v10q0 41 -21 53.5t-87 12.5q-110 0 -254 -4l26 168q176 4 258 4q151 0 219 -51.5t68 -157.5v-10q0 -62 -25 -102t-84 -62q64 -20 96.5 -67 t32.5 -111v-19q0 -114 -75 -170.5t-242 -56.5q-230 0 -299 4zM422 0l850 1393h233l-850 -1393h-233zM1122 150v157l271 496h211l-277 -492h186v193l199 28v-221h100l-32 -161h-68v-150h-199v150h-391z" />
<glyph unicode="&#xbf;" horiz-adv-x="954" d="M61 12q0 137 52 213.5t172 132.5l98 48q71 33 93 68.5t22 125.5v47h258v-47q0 -152 -50 -227t-167 -131l-95 -45q-69 -32 -92.5 -70.5t-23.5 -116.5q0 -103 38.5 -146.5t149.5 -43.5q82 0 422 4l-37 -217q-328 -4 -397 -4q-232 0 -337.5 88.5t-105.5 275.5v45zM467 928 q0 79 37.5 116t122.5 37t122 -37t37 -116q0 -77 -37.5 -114.5t-121.5 -37.5t-122 37.5t-38 114.5z" />
<glyph unicode="&#xc0;" horiz-adv-x="1454" d="M29 0l542 1458h312l542 -1458h-286l-138 387h-565l-135 -387h-272zM346 1839h311l234 -256h-260zM510 608h418l-209 594z" />
<glyph unicode="&#xc1;" horiz-adv-x="1454" d="M29 0l542 1458h312l542 -1458h-286l-138 387h-565l-135 -387h-272zM510 608h418l-209 594zM569 1583l234 256h311l-285 -256h-260z" />
<glyph unicode="&#xc2;" horiz-adv-x="1454" d="M29 0l542 1458h312l542 -1458h-286l-138 387h-565l-135 -387h-272zM338 1583l244 256h284l246 -256h-252l-137 129l-133 -129h-252zM510 608h418l-209 594z" />
<glyph unicode="&#xc3;" horiz-adv-x="1454" d="M29 0l542 1458h312l542 -1458h-286l-138 387h-565l-135 -387h-272zM356 1563v30q0 252 183 252q76 0 186 -45l31 -12q53 -22 74.5 -28.5t43.5 -6.5q26 0 39 13t13 51v28h172v-30q0 -252 -183 -252q-76 0 -186 45l-31 12q-53 22 -74.5 28.5t-43.5 6.5q-26 0 -39 -13 t-13 -51v-28h-172zM510 608h418l-209 594z" />
<glyph unicode="&#xc4;" horiz-adv-x="1454" d="M29 0l542 1458h312l542 -1458h-286l-138 387h-565l-135 -387h-272zM383 1708q0 69 32.5 102t108.5 33q74 0 108 -33.5t34 -101.5t-34 -101.5t-108 -33.5q-76 0 -108.5 33t-32.5 102zM510 608h418l-209 594zM791 1708q0 69 32.5 102t106.5 33q76 0 108.5 -33t32.5 -102 t-32.5 -102t-108.5 -33q-74 0 -106.5 33t-32.5 102z" />
<glyph unicode="&#xc5;" horiz-adv-x="1454" d="M29 0l514 1382q-94 64 -94 211q0 129 71.5 193.5t206.5 64.5t207 -64.5t72 -193.5q0 -146 -95 -211l514 -1382h-286l-138 387h-565l-135 -387h-272zM510 608h418l-209 594zM616 1593q0 -62 24.5 -86t86.5 -24t86.5 24t24.5 86q0 63 -24.5 87t-86.5 24t-86.5 -24 t-24.5 -87z" />
<glyph unicode="&#xc6;" horiz-adv-x="2056" d="M8 0l797 1458h1175l-47 -235h-712v-359h700l-45 -235h-655v-393h761l-45 -236h-989v418h-440l-219 -418h-281zM621 639h327v588h-16z" />
<glyph unicode="&#xc7;" horiz-adv-x="1177" d="M96 651v158q0 187 32.5 310t108.5 200.5t193 110t295 32.5q260 0 381 -4l-45 -235q-184 4 -330 4q-77 0 -128.5 -6t-93.5 -24.5t-65 -46t-39 -77t-21 -111t-5 -153.5v-160q0 -134 14.5 -212t56.5 -126t107 -64t178 -16q230 0 383 5l-45 -236q-108 -4 -346 -4 q-183 0 -302 33.5t-193.5 113.5t-105 201t-30.5 307zM424 -430l39 139q82 -4 141 -4q36 0 49 9t13 38q0 26 -13 34.5t-49 8.5q-70 0 -117 -2l35 135q41 2 148 2q117 0 165 -39.5t48 -128.5v-18q0 -102 -54 -141t-194 -39q-143 0 -211 6z" />
<glyph unicode="&#xc8;" horiz-adv-x="1241" d="M133 0v1458h1032l-47 -235h-712v-359h700l-45 -235h-655v-393h761l-45 -236h-989zM322 1839h311l233 -256h-260z" />
<glyph unicode="&#xc9;" horiz-adv-x="1241" d="M133 0v1458h1032l-47 -235h-712v-359h700l-45 -235h-655v-393h761l-45 -236h-989zM451 1583l233 256h311l-284 -256h-260z" />
<glyph unicode="&#xca;" horiz-adv-x="1241" d="M133 0v1458h1032l-47 -235h-712v-359h700l-45 -235h-655v-393h761l-45 -236h-989zM260 1583l244 256h284l246 -256h-252l-137 129l-133 -129h-252z" />
<glyph unicode="&#xcb;" horiz-adv-x="1241" d="M133 0v1458h1032l-47 -235h-712v-359h700l-45 -235h-655v-393h761l-45 -236h-989zM287 1708q0 69 32.5 102t108.5 33q74 0 107.5 -33t33.5 -102t-33.5 -102t-107.5 -33q-76 0 -108.5 33t-32.5 102zM694 1708q0 69 33 102t107 33q76 0 108.5 -33t32.5 -102t-32.5 -102 t-108.5 -33q-74 0 -107 33t-33 102z" />
<glyph unicode="&#xcc;" horiz-adv-x="538" d="M-90 1839h311l234 -256h-260zM133 0v1458h273v-1458h-273z" />
<glyph unicode="&#xcd;" horiz-adv-x="538" d="M111 1583l233 256h311l-284 -256h-260zM133 0v1458h273v-1458h-273z" />
<glyph unicode="&#xce;" horiz-adv-x="538" d="M-115 1583l244 256h285l245 -256h-251l-138 129l-133 -129h-252zM133 0v1458h273v-1458h-273z" />
<glyph unicode="&#xcf;" horiz-adv-x="538" d="M-74 1708q0 69 33 102t109 33q74 0 107.5 -33t33.5 -102t-33.5 -102t-107.5 -33q-76 0 -109 33t-33 102zM133 0v1458h273v-1458h-273zM334 1708q0 69 32.5 102t106.5 33q76 0 108.5 -33t32.5 -102t-32.5 -102t-108.5 -33q-74 0 -106.5 33t-32.5 102z" />
<glyph unicode="&#xd0;" horiz-adv-x="1472" d="M41 635v201h135v622h563q185 0 309 -38.5t196.5 -122t102 -198.5t29.5 -284v-170q0 -165 -30 -280.5t-101.5 -200t-195.5 -124.5t-306 -40h-567v635h-135zM449 236h278q106 0 172 17t112 63.5t64.5 127.5t18.5 211v150q0 131 -18.5 211.5t-64.5 127t-111.5 63 t-172.5 16.5h-278v-387h305v-201h-305v-399z" />
<glyph unicode="&#xd1;" horiz-adv-x="1470" d="M133 0v1458h236l698 -1012v1012h270v-1458h-237l-694 1004v-1004h-273zM379 1563v30q0 252 182 252q77 0 187 -45l30 -12q86 -35 119 -35q26 0 38.5 13t12.5 51v28h172v-30q0 -252 -182 -252q-76 0 -186 45l-31 12q-86 35 -119 35q-26 0 -38.5 -13t-12.5 -51v-28h-172z " />
<glyph unicode="&#xd2;" horiz-adv-x="1476" d="M96 631v198q0 137 16.5 236.5t59 184.5t114.5 137t184 81t267 29q154 0 265 -27t184 -77.5t116 -134.5t60.5 -186t17.5 -243v-198q0 -113 -11.5 -200t-39 -165t-75 -132t-118 -93.5t-170 -58.5t-229.5 -19q-128 0 -226 17.5t-169 55.5t-118.5 91t-75.5 130.5t-40 167 t-12 206.5zM379 637q0 -97 5.5 -162.5t22 -117.5t40.5 -81.5t66.5 -48.5t94.5 -25.5t129 -6.5t128.5 6t94.5 25t67.5 48.5t41.5 81t23 118t6 163.5v186q0 96 -6 162.5t-23 118t-41.5 81.5t-67 49t-94.5 25.5t-129 6.5q-78 0 -129.5 -6.5t-94 -25t-66.5 -48t-40.5 -81.5 t-22 -118t-5.5 -164v-186zM414 1839h311l233 -256h-260z" />
<glyph unicode="&#xd3;" horiz-adv-x="1476" d="M96 631v198q0 137 16.5 236.5t59 184.5t114.5 137t184 81t267 29q154 0 265 -27t184 -77.5t116 -134.5t60.5 -186t17.5 -243v-198q0 -113 -11.5 -200t-39 -165t-75 -132t-118 -93.5t-170 -58.5t-229.5 -19q-128 0 -226 17.5t-169 55.5t-118.5 91t-75.5 130.5t-40 167 t-12 206.5zM379 637q0 -97 5.5 -162.5t22 -117.5t40.5 -81.5t66.5 -48.5t94.5 -25.5t129 -6.5t128.5 6t94.5 25t67.5 48.5t41.5 81t23 118t6 163.5v186q0 96 -6 162.5t-23 118t-41.5 81.5t-67 49t-94.5 25.5t-129 6.5q-78 0 -129.5 -6.5t-94 -25t-66.5 -48t-40.5 -81.5 t-22 -118t-5.5 -164v-186zM518 1583l234 256h311l-285 -256h-260z" />
<glyph unicode="&#xd4;" horiz-adv-x="1476" d="M96 631v198q0 137 16.5 236.5t59 184.5t114.5 137t184 81t267 29q154 0 265 -27t184 -77.5t116 -134.5t60.5 -186t17.5 -243v-198q0 -113 -11.5 -200t-39 -165t-75 -132t-118 -93.5t-170 -58.5t-229.5 -19q-128 0 -226 17.5t-169 55.5t-118.5 91t-75.5 130.5t-40 167 t-12 206.5zM352 1583l244 256h285l245 -256h-252l-137 129l-133 -129h-252zM379 637q0 -97 5.5 -162.5t22 -117.5t40.5 -81.5t66.5 -48.5t94.5 -25.5t129 -6.5t128.5 6t94.5 25t67.5 48.5t41.5 81t23 118t6 163.5v186q0 96 -6 162.5t-23 118t-41.5 81.5t-67 49t-94.5 25.5 t-129 6.5q-78 0 -129.5 -6.5t-94 -25t-66.5 -48t-40.5 -81.5t-22 -118t-5.5 -164v-186z" />
<glyph unicode="&#xd5;" horiz-adv-x="1476" d="M96 631v198q0 137 16.5 236.5t59 184.5t114.5 137t184 81t267 29q154 0 265 -27t184 -77.5t116 -134.5t60.5 -186t17.5 -243v-198q0 -113 -11.5 -200t-39 -165t-75 -132t-118 -93.5t-170 -58.5t-229.5 -19q-128 0 -226 17.5t-169 55.5t-118.5 91t-75.5 130.5t-40 167 t-12 206.5zM367 1563v30q0 252 182 252q76 0 186 -45l31 -12q86 -35 119 -35q26 0 38.5 13t12.5 51v28h172v-30q0 -252 -182 -252q-77 0 -187 45l-30 12q-86 35 -119 35q-26 0 -38.5 -13t-12.5 -51v-28h-172zM379 637q0 -97 5.5 -162.5t22 -117.5t40.5 -81.5t66.5 -48.5 t94.5 -25.5t129 -6.5t128.5 6t94.5 25t67.5 48.5t41.5 81t23 118t6 163.5v186q0 96 -6 162.5t-23 118t-41.5 81.5t-67 49t-94.5 25.5t-129 6.5q-78 0 -129.5 -6.5t-94 -25t-66.5 -48t-40.5 -81.5t-22 -118t-5.5 -164v-186z" />
<glyph unicode="&#xd6;" horiz-adv-x="1476" d="M96 631v198q0 137 16.5 236.5t59 184.5t114.5 137t184 81t267 29q154 0 265 -27t184 -77.5t116 -134.5t60.5 -186t17.5 -243v-198q0 -113 -11.5 -200t-39 -165t-75 -132t-118 -93.5t-170 -58.5t-229.5 -19q-128 0 -226 17.5t-169 55.5t-118.5 91t-75.5 130.5t-40 167 t-12 206.5zM379 637q0 -97 5.5 -162.5t22 -117.5t40.5 -81.5t66.5 -48.5t94.5 -25.5t129 -6.5t128.5 6t94.5 25t67.5 48.5t41.5 81t23 118t6 163.5v186q0 96 -6 162.5t-23 118t-41.5 81.5t-67 49t-94.5 25.5t-129 6.5q-78 0 -129.5 -6.5t-94 -25t-66.5 -48t-40.5 -81.5 t-22 -118t-5.5 -164v-186zM393 1708q0 69 33 102t109 33q74 0 107.5 -33t33.5 -102t-33.5 -102t-107.5 -33q-76 0 -109 33t-33 102zM801 1708q0 69 32.5 102t106.5 33q76 0 108.5 -33t32.5 -102t-32.5 -102t-108.5 -33q-74 0 -106.5 33t-32.5 102z" />
<glyph unicode="&#xd7;" d="M160 412l284 286l-278 279l168 164l278 -279l273 273l168 -164l-277 -277l281 -278l-166 -168l-279 280l-282 -282z" />
<glyph unicode="&#xd8;" horiz-adv-x="1476" d="M96 631v198q0 137 16.5 236.5t59 184.5t114.5 137t184 81t267 29q139 0 264 -27l93 175h223l-133 -252q108 -76 152 -212.5t44 -351.5v-198q0 -113 -11.5 -200t-39 -165t-75 -132t-118 -93.5t-170 -58.5t-229.5 -19q-175 0 -284 33l-95 -180h-223l139 264 q-99 78 -138.5 211t-39.5 340zM379 637q0 -208 33 -295l477 913q-56 11 -152 11q-78 0 -129.5 -6.5t-94 -25t-66.5 -48t-40.5 -81.5t-22 -118t-5.5 -164v-186zM565 209q60 -14 172 -14q77 0 128.5 6t94.5 25t67.5 48.5t41.5 81t23 118t6 163.5v186q0 227 -45 320z" />
<glyph unicode="&#xd9;" horiz-adv-x="1415" d="M123 584v874h272v-874q0 -118 12.5 -188.5t48.5 -116.5t94.5 -63t156.5 -17q78 0 130.5 11.5t89.5 36.5t56.5 71.5t28 109t8.5 156.5v874h272v-874q0 -129 -16 -223t-55 -172t-105.5 -126t-167.5 -74t-241 -26q-139 0 -240 26t-167.5 74t-105.5 126t-55 172t-16 223z M362 1839h312l233 -256h-260z" />
<glyph unicode="&#xda;" horiz-adv-x="1415" d="M123 584v874h272v-874q0 -118 12.5 -188.5t48.5 -116.5t94.5 -63t156.5 -17q78 0 130.5 11.5t89.5 36.5t56.5 71.5t28 109t8.5 156.5v874h272v-874q0 -129 -16 -223t-55 -172t-105.5 -126t-167.5 -74t-241 -26q-139 0 -240 26t-167.5 74t-105.5 126t-55 172t-16 223z M504 1583l233 256h312l-285 -256h-260z" />
<glyph unicode="&#xdb;" horiz-adv-x="1415" d="M123 584v874h272v-874q0 -118 12.5 -188.5t48.5 -116.5t94.5 -63t156.5 -17q78 0 130.5 11.5t89.5 36.5t56.5 71.5t28 109t8.5 156.5v874h272v-874q0 -129 -16 -223t-55 -172t-105.5 -126t-167.5 -74t-241 -26q-139 0 -240 26t-167.5 74t-105.5 126t-55 172t-16 223z M317 1583l244 256h285l246 -256h-252l-138 129l-133 -129h-252z" />
<glyph unicode="&#xdc;" horiz-adv-x="1415" d="M123 584v874h272v-874q0 -118 12.5 -188.5t48.5 -116.5t94.5 -63t156.5 -17q78 0 130.5 11.5t89.5 36.5t56.5 71.5t28 109t8.5 156.5v874h272v-874q0 -129 -16 -223t-55 -172t-105.5 -126t-167.5 -74t-241 -26q-139 0 -240 26t-167.5 74t-105.5 126t-55 172t-16 223z M362 1708q0 69 33 102t109 33q74 0 107.5 -33t33.5 -102t-33.5 -102t-107.5 -33q-76 0 -109 33t-33 102zM770 1708q0 69 32.5 102t106.5 33q76 0 109 -33t33 -102t-33 -102t-109 -33q-74 0 -106.5 33t-32.5 102z" />
<glyph unicode="&#xdd;" horiz-adv-x="1366" d="M16 1458h303l371 -627l365 627h295l-529 -852v-606h-272v604zM473 1583l234 256h311l-285 -256h-260z" />
<glyph unicode="&#xde;" horiz-adv-x="1288" d="M133 0v1458h270v-258h295q279 0 404 -101.5t125 -318.5v-90q0 -217 -127 -318.5t-402 -101.5h-295v-270h-270zM403 502h287q152 0 208 43.5t56 175.5v29q0 132 -56 175.5t-208 43.5h-287v-467z" />
<glyph unicode="&#xdf;" horiz-adv-x="1193" d="M109 0v1053q0 246 120 364.5t375 118.5q241 0 348 -94.5t107 -282.5v-26q0 -106 -49 -182t-131 -109q126 -29 184.5 -118t58.5 -245v-53q0 -218 -114.5 -324t-374.5 -106q-87 0 -137 4l43 209q33 -2 90 -2q123 0 175 46.5t52 176.5v53q0 125 -49 178.5t-174 53.5h-129 l37 211h67q104 0 149.5 42.5t45.5 145.5v27q0 99 -48 144.5t-157 45.5q-122 0 -172.5 -61t-50.5 -203v-1067h-266z" />
<glyph unicode="&#xe0;" horiz-adv-x="1138" d="M76 317v45q0 170 99 247t314 77q197 0 283 -57v37q0 112 -48.5 150t-188.5 38q-52 0 -181.5 -2t-181.5 -2l43 215q152 4 332 4q251 0 367 -87.5t116 -276.5v-512q0 -108 -48.5 -150.5t-170.5 -42.5h-334q-214 0 -307.5 79t-93.5 238zM272 1495h289l213 -268h-252z M334 322q0 -68 39 -98.5t139 -30.5h260v165q0 53 -14.5 80t-60 41.5t-134.5 14.5h-31q-115 0 -156.5 -29t-41.5 -105v-38z" />
<glyph unicode="&#xe1;" horiz-adv-x="1138" d="M76 317v45q0 170 99 247t314 77q197 0 283 -57v37q0 112 -48.5 150t-188.5 38q-52 0 -181.5 -2t-181.5 -2l43 215q152 4 332 4q251 0 367 -87.5t116 -276.5v-512q0 -108 -48.5 -150.5t-170.5 -42.5h-334q-214 0 -307.5 79t-93.5 238zM334 322q0 -68 39 -98.5t139 -30.5 h260v165q0 53 -14.5 80t-60 41.5t-134.5 14.5h-31q-115 0 -156.5 -29t-41.5 -105v-38zM395 1227l215 268h289l-252 -268h-252z" />
<glyph unicode="&#xe2;" horiz-adv-x="1138" d="M76 317v45q0 170 99 247t314 77q197 0 283 -57v37q0 112 -48.5 150t-188.5 38q-52 0 -181.5 -2t-181.5 -2l43 215q152 4 332 4q251 0 367 -87.5t116 -276.5v-512q0 -108 -48.5 -150.5t-170.5 -42.5h-334q-214 0 -307.5 79t-93.5 238zM215 1227l223 270h269l221 -270h-232 l-125 143l-125 -143h-231zM334 322q0 -68 39 -98.5t139 -30.5h260v165q0 53 -14.5 80t-60 41.5t-134.5 14.5h-31q-115 0 -156.5 -29t-41.5 -105v-38z" />
<glyph unicode="&#xe3;" horiz-adv-x="1138" d="M76 317v45q0 170 99 247t314 77q197 0 283 -57v37q0 112 -48.5 150t-188.5 38q-52 0 -181.5 -2t-181.5 -2l43 215q152 4 332 4q251 0 367 -87.5t116 -276.5v-512q0 -108 -48.5 -150.5t-170.5 -42.5h-334q-214 0 -307.5 79t-93.5 238zM213 1223v26q0 138 49 192t144 54 q76 0 163 -43l54 -25q4 -2 17 -8t17 -7.5t14 -5t17.5 -4.5t16.5 -1q26 0 38.5 14.5t12.5 54.5v23h170v-27q0 -139 -48 -193t-145 -54q-71 0 -162 45l-55 24q-48 25 -80 25q-26 0 -38.5 -14t-12.5 -54v-22h-172zM334 322q0 -68 39 -98.5t139 -30.5h260v165q0 53 -14.5 80 t-60 41.5t-134.5 14.5h-31q-115 0 -156.5 -29t-41.5 -105v-38z" />
<glyph unicode="&#xe4;" horiz-adv-x="1138" d="M76 317v45q0 170 99 247t314 77q197 0 283 -57v37q0 112 -48.5 150t-188.5 38q-52 0 -181.5 -2t-181.5 -2l43 215q152 4 332 4q251 0 367 -87.5t116 -276.5v-512q0 -108 -48.5 -150.5t-170.5 -42.5h-334q-214 0 -307.5 79t-93.5 238zM256 1352q0 68 32 100.5t105 32.5 q74 0 106.5 -32t32.5 -101q0 -67 -32.5 -99t-106.5 -32q-72 0 -104.5 32t-32.5 99zM334 322q0 -68 39 -98.5t139 -30.5h260v165q0 53 -14.5 80t-60 41.5t-134.5 14.5h-31q-115 0 -156.5 -29t-41.5 -105v-38zM637 1352q0 69 32.5 101t106.5 32t106.5 -32t32.5 -101 q0 -67 -32.5 -99t-106.5 -32t-106.5 32t-32.5 99z" />
<glyph unicode="&#xe5;" horiz-adv-x="1138" d="M76 317v45q0 170 99 247t314 77q197 0 283 -57v37q0 112 -48.5 150t-188.5 38q-52 0 -181.5 -2t-181.5 -2l43 215q152 4 332 4q251 0 367 -87.5t116 -276.5v-512q0 -108 -48.5 -150.5t-170.5 -42.5h-334q-214 0 -307.5 79t-93.5 238zM291 1413q0 127 70.5 190.5 t203.5 63.5t204 -63.5t71 -190.5q0 -128 -71 -191t-204 -63q-274 0 -274 254zM334 322q0 -68 39 -98.5t139 -30.5h260v165q0 53 -14.5 80t-60 41.5t-134.5 14.5h-31q-115 0 -156.5 -29t-41.5 -105v-38zM457 1413q0 -62 23.5 -85t84.5 -23t85 23t24 85q0 61 -24.5 85 t-84.5 24t-84 -24t-24 -85z" />
<glyph unicode="&#xe6;" horiz-adv-x="1810" d="M76 322v16q0 170 95 242.5t282 72.5h319v31q0 100 -54 135t-194 35t-352 -4l43 215q152 4 338 4q278 0 354 -113q100 142 359 142q131 0 223.5 -29.5t145 -84.5t75.5 -124.5t23 -159.5v-16q0 -93 -17 -141.5t-50.5 -65t-96.5 -16.5h-531q0 -85 8 -132t34.5 -78 t69.5 -40.5t120 -9.5q271 0 391 4l-41 -205q-103 -4 -373 -4q-137 0 -217 26.5t-131 100.5q-53 -68 -132 -95.5t-214 -27.5h-76q-203 0 -302 76t-99 246zM334 324q0 -73 41 -102t131 -29h29q78 0 121 8.5t71 36.5t36.5 73t8.5 125v31h-280q-90 0 -124 -25.5t-34 -101.5v-16z M1038 655h441v33q0 119 -46 164t-173 45q-134 0 -178 -48.5t-44 -193.5z" />
<glyph unicode="&#xe7;" horiz-adv-x="978" d="M88 477v111q0 265 114 373t396 108q114 0 301 -6l-43 -215q-115 6 -252 6q-64 0 -103 -6t-69.5 -21t-45 -46t-21.5 -76t-7 -117v-111q0 -71 7.5 -116.5t23 -76.5t46 -46t69 -21t100.5 -6q123 0 299 4l-43 -215q-176 -4 -262 -4q-145 0 -241.5 25t-157 84t-86 148 t-25.5 224zM299 -430l39 137q94 -4 129 -4t48 10.5t13 36.5q0 27 -13 38t-48 11q-71 0 -102 -2l34 131q47 2 121 2q117 0 165 -38t48 -130v-16q0 -101 -54 -141.5t-192 -40.5q-141 0 -188 6z" />
<glyph unicode="&#xe8;" horiz-adv-x="1126" d="M88 477v115q0 128 23 218t78.5 157t152.5 99t240 32q131 0 223.5 -29.5t145 -84.5t75.5 -124.5t23 -159.5v-34q0 -94 -16 -142t-49 -65t-97 -17h-533q0 -78 8 -121.5t34.5 -72t69.5 -38t120 -9.5q271 0 391 4l-41 -205q-101 -4 -363 -4q-114 0 -198.5 21.5t-139.5 60 t-88 99.5t-46 133t-13 167zM283 1495h288l213 -268h-252zM354 637h441v47q0 120 -46.5 166.5t-173.5 46.5q-72 0 -113.5 -11t-66.5 -42.5t-33 -78t-8 -128.5z" />
<glyph unicode="&#xe9;" horiz-adv-x="1126" d="M88 477v115q0 128 23 218t78.5 157t152.5 99t240 32q131 0 223.5 -29.5t145 -84.5t75.5 -124.5t23 -159.5v-34q0 -94 -16 -142t-49 -65t-97 -17h-533q0 -78 8 -121.5t34.5 -72t69.5 -38t120 -9.5q271 0 391 4l-41 -205q-101 -4 -363 -4q-114 0 -198.5 21.5t-139.5 60 t-88 99.5t-46 133t-13 167zM354 637h441v47q0 120 -46.5 166.5t-173.5 46.5q-72 0 -113.5 -11t-66.5 -42.5t-33 -78t-8 -128.5zM377 1227l215 268h289l-252 -268h-252z" />
<glyph unicode="&#xea;" horiz-adv-x="1126" d="M88 477v115q0 128 23 218t78.5 157t152.5 99t240 32q131 0 223.5 -29.5t145 -84.5t75.5 -124.5t23 -159.5v-34q0 -94 -16 -142t-49 -65t-97 -17h-533q0 -78 8 -121.5t34.5 -72t69.5 -38t120 -9.5q271 0 391 4l-41 -205q-101 -4 -363 -4q-114 0 -198.5 21.5t-139.5 60 t-88 99.5t-46 133t-13 167zM215 1227l223 270h269l221 -270h-232l-125 143l-125 -143h-231zM354 637h441v47q0 120 -46.5 166.5t-173.5 46.5q-72 0 -113.5 -11t-66.5 -42.5t-33 -78t-8 -128.5z" />
<glyph unicode="&#xeb;" horiz-adv-x="1126" d="M88 477v115q0 128 23 218t78.5 157t152.5 99t240 32q131 0 223.5 -29.5t145 -84.5t75.5 -124.5t23 -159.5v-34q0 -94 -16 -142t-49 -65t-97 -17h-533q0 -78 8 -121.5t34.5 -72t69.5 -38t120 -9.5q271 0 391 4l-41 -205q-101 -4 -363 -4q-114 0 -198.5 21.5t-139.5 60 t-88 99.5t-46 133t-13 167zM254 1352q0 68 32 100.5t105 32.5q74 0 106.5 -32t32.5 -101q0 -67 -32.5 -99t-106.5 -32q-72 0 -104.5 32t-32.5 99zM354 637h441v47q0 120 -46.5 166.5t-173.5 46.5q-72 0 -113.5 -11t-66.5 -42.5t-33 -78t-8 -128.5zM635 1352q0 69 32.5 101 t106.5 32t106.5 -32t32.5 -101q0 -67 -32.5 -99t-106.5 -32t-106.5 32t-32.5 99z" />
<glyph unicode="&#xec;" horiz-adv-x="483" d="M-98 1495h288l213 -268h-251zM109 0v1065h266v-1065h-266z" />
<glyph unicode="&#xed;" horiz-adv-x="483" d="M86 1227l215 268h289l-252 -268h-252zM109 0v1065h266v-1065h-266z" />
<glyph unicode="&#xee;" horiz-adv-x="483" d="M-113 1227l224 270h268l221 -270h-231l-125 143l-125 -143h-232zM109 0v1065h266v-1065h-266z" />
<glyph unicode="&#xef;" horiz-adv-x="483" d="M-86 1352q0 68 32 100.5t105 32.5q74 0 106.5 -32t32.5 -101q0 -67 -32.5 -99t-106.5 -32q-72 0 -104.5 32t-32.5 99zM109 0v1065h266v-1065h-266zM295 1352q0 69 32.5 101t106.5 32t106.5 -32t32.5 -101q0 -67 -32.5 -99t-106.5 -32t-106.5 32t-32.5 99z" />
<glyph unicode="&#xf0;" horiz-adv-x="1210" d="M88 426v96q0 248 111.5 352.5t353.5 104.5q184 0 281 -72q-9 137 -72 234l-256 -92l-51 137l198 74q-63 51 -157 96l159 180q88 -50 145.5 -89.5t100.5 -88.5l154 59l53 -143l-115 -41q59 -102 86 -237.5t27 -327.5v-242q0 -94 -12.5 -162.5t-46 -127t-90 -94t-146 -55.5 t-213.5 -20q-103 0 -182 13t-135 40.5t-94 64.5t-59.5 90.5t-30.5 113t-9 137.5zM358 442q0 -56 2.5 -90.5t11.5 -66.5t24.5 -48.5t43 -29t65 -17t93.5 -4.5t93.5 4t65 17t42.5 29.5t23.5 48.5t11 66t2.5 91v99q0 68 -8.5 107.5t-35.5 66t-72 36t-122 9.5q-62 0 -100 -6 t-68 -20.5t-44 -44.5t-21 -73t-7 -112v-62z" />
<glyph unicode="&#xf1;" horiz-adv-x="1189" d="M109 0v725q0 200 115.5 286.5t371.5 86.5t370.5 -86t114.5 -287v-725h-266v692q0 54 -6 83.5t-27.5 56t-66 37t-119.5 10.5t-120 -10.5t-67 -37t-28 -56.5t-6 -83v-692h-266zM238 1223v26q0 138 48.5 192t143.5 54q77 0 164 -43l53 -25q4 -2 17 -8t17 -7.5t14 -5 t17.5 -4.5t16.5 -1q26 0 38.5 14.5t12.5 54.5v23h170v-27q0 -139 -47.5 -193t-144.5 -54q-71 0 -162 45l-55 24q-48 25 -80 25q-26 0 -38.5 -14t-12.5 -54v-22h-172z" />
<glyph unicode="&#xf2;" horiz-adv-x="1193" d="M88 477v111q0 149 27 246t90 156.5t157 83.5t236 24t235 -24t156 -83.5t90 -157t27 -245.5v-111q0 -148 -27 -245.5t-90 -157t-156 -83.5t-235 -24t-236 24t-157 83.5t-90 156.5t-27 246zM287 1495h288l213 -268h-251zM358 471q0 -65 4 -109t15 -78t27 -53t44.5 -31 t63 -16t86.5 -4q78 0 120.5 9.5t71 42t37.5 87t9 152.5v121q0 99 -9 153.5t-37.5 87.5t-71 42.5t-120.5 9.5q-52 0 -86.5 -4t-63 -16t-44.5 -31t-27 -53.5t-15 -78.5t-4 -110v-121z" />
<glyph unicode="&#xf3;" horiz-adv-x="1193" d="M88 477v111q0 149 27 246t90 156.5t157 83.5t236 24t235 -24t156 -83.5t90 -157t27 -245.5v-111q0 -148 -27 -245.5t-90 -157t-156 -83.5t-235 -24t-236 24t-157 83.5t-90 156.5t-27 246zM358 471q0 -65 4 -109t15 -78t27 -53t44.5 -31t63 -16t86.5 -4q78 0 120.5 9.5 t71 42t37.5 87t9 152.5v121q0 99 -9 153.5t-37.5 87.5t-71 42.5t-120.5 9.5q-52 0 -86.5 -4t-63 -16t-44.5 -31t-27 -53.5t-15 -78.5t-4 -110v-121zM403 1227l215 268h289l-252 -268h-252z" />
<glyph unicode="&#xf4;" horiz-adv-x="1193" d="M88 477v111q0 149 27 246t90 156.5t157 83.5t236 24t235 -24t156 -83.5t90 -157t27 -245.5v-111q0 -148 -27 -245.5t-90 -157t-156 -83.5t-235 -24t-236 24t-157 83.5t-90 156.5t-27 246zM240 1227l223 270h268l221 -270h-231l-125 143l-125 -143h-231zM358 471 q0 -65 4 -109t15 -78t27 -53t44.5 -31t63 -16t86.5 -4q78 0 120.5 9.5t71 42t37.5 87t9 152.5v121q0 99 -9 153.5t-37.5 87.5t-71 42.5t-120.5 9.5q-52 0 -86.5 -4t-63 -16t-44.5 -31t-27 -53.5t-15 -78.5t-4 -110v-121z" />
<glyph unicode="&#xf5;" horiz-adv-x="1193" d="M88 477v111q0 149 27 246t90 156.5t157 83.5t236 24t235 -24t156 -83.5t90 -157t27 -245.5v-111q0 -148 -27 -245.5t-90 -157t-156 -83.5t-235 -24t-236 24t-157 83.5t-90 156.5t-27 246zM240 1223v26q0 138 48.5 192t143.5 54q77 0 164 -43l53 -25q4 -2 17 -8t17 -7.5 t14 -5t17.5 -4.5t16.5 -1q26 0 38.5 14.5t12.5 54.5v23h170v-27q0 -139 -47.5 -193t-144.5 -54q-71 0 -162 45l-55 24q-48 25 -80 25q-26 0 -38.5 -14t-12.5 -54v-22h-172zM358 471q0 -65 4 -109t15 -78t27 -53t44.5 -31t63 -16t86.5 -4q78 0 120.5 9.5t71 42t37.5 87 t9 152.5v121q0 99 -9 153.5t-37.5 87.5t-71 42.5t-120.5 9.5q-52 0 -86.5 -4t-63 -16t-44.5 -31t-27 -53.5t-15 -78.5t-4 -110v-121z" />
<glyph unicode="&#xf6;" horiz-adv-x="1193" d="M88 477v111q0 149 27 246t90 156.5t157 83.5t236 24t235 -24t156 -83.5t90 -157t27 -245.5v-111q0 -148 -27 -245.5t-90 -157t-156 -83.5t-235 -24t-236 24t-157 83.5t-90 156.5t-27 246zM266 1352q0 68 32 100.5t105 32.5q74 0 107 -32.5t33 -100.5q0 -67 -33 -99 t-107 -32q-72 0 -104.5 32t-32.5 99zM358 471q0 -65 4 -109t15 -78t27 -53t44.5 -31t63 -16t86.5 -4q78 0 120.5 9.5t71 42t37.5 87t9 152.5v121q0 99 -9 153.5t-37.5 87.5t-71 42.5t-120.5 9.5q-52 0 -86.5 -4t-63 -16t-44.5 -31t-27 -53.5t-15 -78.5t-4 -110v-121z M647 1352q0 69 32.5 101t106.5 32t107 -32.5t33 -100.5q0 -67 -33 -99t-107 -32t-106.5 32t-32.5 99z" />
<glyph unicode="&#xf7;" d="M143 588v219h932v-219h-932zM465 352q0 71 30.5 104t112.5 33t114 -33.5t32 -103.5t-32 -104.5t-114 -34.5t-112.5 34t-30.5 105zM465 1044q0 71 30.5 104.5t112.5 33.5t114 -34t32 -104t-32 -104.5t-114 -34.5t-112.5 34t-30.5 105z" />
<glyph unicode="&#xf8;" horiz-adv-x="1193" d="M88 477v111q0 149 27 246t90 156.5t157 83.5t236 24q112 0 188 -15l66 123h190l-96 -182q85 -55 122.5 -158.5t37.5 -277.5v-111q0 -148 -27 -245.5t-90 -157t-156 -83.5t-235 -24q-95 0 -195 17l-63 -123h-190l94 182q-82 55 -119 158.5t-37 275.5zM358 471 q0 -128 17 -180l307 590q-50 4 -84 4q-52 0 -86.5 -4t-63 -16t-44.5 -31t-27 -53.5t-15 -78.5t-4 -110v-121zM508 184q18 -4 90 -4q78 0 120.5 9.5t71 42t37.5 87t9 152.5v121q0 126 -19 184z" />
<glyph unicode="&#xf9;" horiz-adv-x="1181" d="M109 340v725h266v-690q0 -34 2.5 -57t9.5 -46.5t21.5 -37.5t38.5 -26t60 -17t85 -5q58 0 98 8.5t63 22t35 39.5t15.5 51.5t3.5 67.5v690h266v-725q0 -203 -114.5 -288t-366.5 -85q-253 0 -368 85t-115 288zM289 1495h289l213 -268h-252z" />
<glyph unicode="&#xfa;" horiz-adv-x="1181" d="M109 340v725h266v-690q0 -34 2.5 -57t9.5 -46.5t21.5 -37.5t38.5 -26t60 -17t85 -5q58 0 98 8.5t63 22t35 39.5t15.5 51.5t3.5 67.5v690h266v-725q0 -203 -114.5 -288t-366.5 -85q-253 0 -368 85t-115 288zM395 1227l215 268h289l-252 -268h-252z" />
<glyph unicode="&#xfb;" horiz-adv-x="1181" d="M109 340v725h266v-690q0 -34 2.5 -57t9.5 -46.5t21.5 -37.5t38.5 -26t60 -17t85 -5q58 0 98 8.5t63 22t35 39.5t15.5 51.5t3.5 67.5v690h266v-725q0 -203 -114.5 -288t-366.5 -85q-253 0 -368 85t-115 288zM233 1227l224 270h268l221 -270h-231l-125 143l-125 -143h-232z " />
<glyph unicode="&#xfc;" horiz-adv-x="1181" d="M109 340v725h266v-690q0 -34 2.5 -57t9.5 -46.5t21.5 -37.5t38.5 -26t60 -17t85 -5q58 0 98 8.5t63 22t35 39.5t15.5 51.5t3.5 67.5v690h266v-725q0 -203 -114.5 -288t-366.5 -85q-253 0 -368 85t-115 288zM260 1352q0 68 32 100.5t105 32.5q74 0 107 -32.5t33 -100.5 q0 -67 -33 -99t-107 -32q-72 0 -104.5 32t-32.5 99zM641 1352q0 69 32.5 101t106.5 32t107 -32.5t33 -100.5q0 -67 -33 -99t-107 -32t-106.5 32t-32.5 99z" />
<glyph unicode="&#xfd;" horiz-adv-x="1181" d="M109 389v676h266v-623q0 -43 2.5 -67.5t13.5 -51t32 -39.5t58 -21.5t92 -8.5q75 0 120 10t71 36t34.5 62.5t8.5 98.5v604h266v-967q0 -248 -116.5 -354t-391.5 -106q-262 0 -393 4l43 213q128 -5 338 -5q143 0 198.5 52t55.5 198v21q-50 -41 -109 -60.5t-182 -19.5 q-205 0 -306 81.5t-101 266.5zM403 1227l215 268h289l-252 -268h-252z" />
<glyph unicode="&#xfe;" horiz-adv-x="1204" d="M109 -358v1880h266v-492q93 68 276 68q249 0 357 -120.5t108 -387.5v-107q0 -143 -23.5 -238t-79.5 -158.5t-147.5 -91.5t-230.5 -28q-173 0 -260 74v-399h-266zM375 446q0 -160 48 -213t187 -53q52 0 86 4t62.5 17t44 32.5t26 54.5t14 79.5t3.5 111.5v107 q0 98 -10 155.5t-39 90.5t-70 43t-113 10q-147 0 -193 -51t-46 -207v-181z" />
<glyph unicode="&#xff;" horiz-adv-x="1181" d="M109 389v676h266v-623q0 -43 2.5 -67.5t13.5 -51t32 -39.5t58 -21.5t92 -8.5q75 0 120 10t71 36t34.5 62.5t8.5 98.5v604h266v-967q0 -248 -116.5 -354t-391.5 -106q-262 0 -393 4l43 213q128 -5 338 -5q143 0 198.5 52t55.5 198v21q-50 -41 -109 -60.5t-182 -19.5 q-205 0 -306 81.5t-101 266.5zM264 1352q0 68 32 100.5t105 32.5q74 0 107 -32.5t33 -100.5q0 -67 -33 -99t-107 -32q-72 0 -104.5 32t-32.5 99zM645 1352q0 69 32.5 101t106.5 32t107 -32.5t33 -100.5q0 -67 -33 -99t-107 -32t-106.5 32t-32.5 99z" />
<glyph unicode="&#x152;" horiz-adv-x="2043" d="M96 645v170q0 127 17 223.5t59.5 178t112 133t177 80t253.5 28.5h1253l-47 -235h-713v-359h701l-45 -235h-656v-393h762l-45 -236h-989h-219q-123 0 -217.5 18t-163 55.5t-115 89.5t-74 126.5t-39.5 160t-12 195.5zM379 649q0 -133 15 -212t57 -126.5t104.5 -63.5 t169.5 -16h211v994h-211q-72 0 -120.5 -6t-89.5 -23.5t-65.5 -46t-41 -76.5t-23 -111t-6.5 -153v-160z" />
<glyph unicode="&#x153;" horiz-adv-x="1873" d="M88 477v111q0 149 27 246t90 156.5t157 83.5t236 24q131 0 222 -30t151 -105q56 72 142 103.5t212 31.5q105 0 186 -19.5t134.5 -54t87.5 -85.5t48.5 -109.5t14.5 -129.5v-34q0 -94 -16 -142t-49 -65t-97 -17h-532q0 -78 8 -121.5t34 -72.5t69 -38t120 -9q271 0 391 4 l-41 -205q-101 -4 -362 -4q-139 0 -217.5 24.5t-128.5 88.5q-58 -81 -147.5 -111.5t-229.5 -30.5q-142 0 -236 24t-157 83.5t-90 156.5t-27 246zM358 471q0 -65 4 -109t15 -78t27 -53t44.5 -31t63 -16t86.5 -4q78 0 120.5 9.5t71 42t37.5 87t9 152.5v121q0 99 -9 153.5 t-37.5 87.5t-71 42.5t-120.5 9.5q-52 0 -86.5 -4t-63 -16t-44.5 -31t-27 -53.5t-15 -78.5t-4 -110v-121zM1102 637h440v47q0 120 -46 166.5t-173 46.5q-72 0 -113.5 -11t-66.5 -42.5t-33 -78t-8 -128.5z" />
<glyph unicode="&#x178;" horiz-adv-x="1366" d="M16 1458h303l371 -627l365 627h295l-529 -852v-606h-272v604zM338 1708q0 69 32.5 102t108.5 33q74 0 108 -33.5t34 -101.5t-34 -101.5t-108 -33.5q-76 0 -108.5 33t-32.5 102zM745 1708q0 69 33 102t107 33q76 0 108.5 -33t32.5 -102t-32.5 -102t-108.5 -33 q-74 0 -107 33t-33 102z" />
<glyph unicode="&#x2c6;" horiz-adv-x="1024" d="M156 1227l223 270h268l221 -270h-231l-125 143l-125 -143h-231z" />
<glyph unicode="&#x2dc;" horiz-adv-x="1024" d="M156 1223v26q0 138 48.5 192t143.5 54q77 0 164 -43l53 -25q4 -2 17 -8t17 -7.5t14 -5t17.5 -4.5t16.5 -1q26 0 38.5 14.5t12.5 54.5v23h170v-27q0 -139 -47.5 -193t-144.5 -54q-71 0 -162 45l-55 24q-48 25 -80 25q-26 0 -38.5 -14t-12.5 -54v-22h-172z" />
<glyph unicode="&#x2000;" horiz-adv-x="925" />
<glyph unicode="&#x2001;" horiz-adv-x="1851" />
<glyph unicode="&#x2002;" horiz-adv-x="925" />
<glyph unicode="&#x2003;" horiz-adv-x="1851" />
<glyph unicode="&#x2004;" horiz-adv-x="617" />
<glyph unicode="&#x2005;" horiz-adv-x="462" />
<glyph unicode="&#x2006;" horiz-adv-x="308" />
<glyph unicode="&#x2007;" horiz-adv-x="308" />
<glyph unicode="&#x2008;" horiz-adv-x="231" />
<glyph unicode="&#x2009;" horiz-adv-x="370" />
<glyph unicode="&#x200a;" horiz-adv-x="102" />
<glyph unicode="&#x2010;" horiz-adv-x="733" d="M35 475l45 236h618l-47 -236h-616z" />
<glyph unicode="&#x2011;" horiz-adv-x="733" d="M35 475l45 236h618l-47 -236h-616z" />
<glyph unicode="&#x2012;" horiz-adv-x="733" d="M35 475l45 236h618l-47 -236h-616z" />
<glyph unicode="&#x2013;" horiz-adv-x="1024" d="M0 457v233h1024v-233h-1024z" />
<glyph unicode="&#x2014;" horiz-adv-x="2048" d="M0 457v233h2048v-233h-2048z" />
<glyph unicode="&#x2018;" horiz-adv-x="505" d="M82 1073q0 46 19.5 100t64.5 140l113 209h165l-122 -326q65 -30 65 -121q0 -147 -151 -147q-77 0 -115.5 37.5t-38.5 107.5z" />
<glyph unicode="&#x2019;" horiz-adv-x="505" d="M61 932l123 325q-65 30 -65 121q0 148 151 148q77 0 115.5 -38t38.5 -108q0 -45 -19.5 -99t-64.5 -140l-113 -209h-166z" />
<glyph unicode="&#x201a;" horiz-adv-x="423" d="M2 -326l123 326q-66 31 -66 121q0 147 152 147q77 0 115.5 -37.5t38.5 -107.5q0 -46 -19.5 -100t-64.5 -140l-113 -209h-166z" />
<glyph unicode="&#x201c;" horiz-adv-x="958" d="M82 1073q0 46 19.5 100t64.5 140l113 209h165l-122 -326q65 -30 65 -121q0 -147 -151 -147q-77 0 -115.5 37.5t-38.5 107.5zM535 1073q0 81 83 240l113 209h166l-123 -326q66 -31 66 -121q0 -147 -152 -147q-153 0 -153 145z" />
<glyph unicode="&#x201d;" horiz-adv-x="958" d="M61 932l123 325q-65 30 -65 121q0 148 151 148q77 0 115.5 -38t38.5 -108q0 -45 -19.5 -99t-64.5 -140l-113 -209h-166zM514 932l123 325q-66 31 -66 121q0 148 152 148q77 0 115.5 -38t38.5 -108q0 -45 -19.5 -99t-64.5 -140l-113 -209h-166z" />
<glyph unicode="&#x201e;" horiz-adv-x="876" d="M4 -324l123 326q-66 31 -66 121q0 147 152 147q77 0 115.5 -37.5t38.5 -107.5q0 -46 -19.5 -100t-64.5 -140l-113 -209h-166zM455 -324l123 326q-66 31 -66 121q0 147 152 147q153 0 153 -145q0 -46 -19.5 -100t-64.5 -140l-112 -209h-166z" />
<glyph unicode="&#x2022;" horiz-adv-x="868" d="M154 573q0 144 65.5 212.5t214.5 68.5q151 0 216 -68.5t65 -212.5t-65 -212t-216 -68q-149 0 -214.5 68t-65.5 212z" />
<glyph unicode="&#x2026;" horiz-adv-x="2048" d="M180 139q0 81 38 119.5t122 38.5q85 0 123.5 -38.5t38.5 -119.5q0 -79 -38.5 -117t-123.5 -38q-84 0 -122 38t-38 117zM866 139q0 81 38 119.5t122 38.5q85 0 123.5 -38.5t38.5 -119.5q0 -79 -38.5 -117t-123.5 -38q-84 0 -122 38t-38 117zM1546 139q0 81 38 119.5 t122 38.5q85 0 123.5 -38.5t38.5 -119.5q0 -79 -38.5 -117t-123.5 -38q-84 0 -122 38t-38 117z" />
<glyph unicode="&#x202f;" horiz-adv-x="370" />
<glyph unicode="&#x2039;" horiz-adv-x="661" d="M76 397v271l506 340v-267l-318 -209l318 -208v-265z" />
<glyph unicode="&#x203a;" horiz-adv-x="661" d="M80 59v267l317 209l-317 208v265l506 -338v-271z" />
<glyph unicode="&#x205f;" horiz-adv-x="462" />
<glyph unicode="&#x20ac;" d="M72 432l34 184h123v162h-157l34 185h127q15 109 51 186.5t102 134.5t170.5 85t250.5 28q230 0 305 -4l-43 -219q-208 4 -262 4q-163 0 -227 -43t-84 -172h512l-35 -185h-492v-162h527l-35 -184h-477q17 -127 89.5 -172t237.5 -45q59 0 305 4l-43 -219q-73 -4 -268 -4 q-295 0 -427 103.5t-157 332.5h-161z" />
<glyph unicode="&#x2122;" horiz-adv-x="1761" d="M12 1284l35 174h701l-35 -174h-232v-588h-205v588h-264zM836 696v762h223l201 -356l192 356h219v-762h-194v475l-162 -284h-127l-160 284v-475h-192z" />
<glyph unicode="&#x25fc;" horiz-adv-x="1064" d="M0 0v1065h1065v-1065h-1065z" />
</font>
</defs>
</svg>
