<?xml version="1.0" standalone="no"?>
<!DOCTYPE svg PUBLIC "-//W3C//DTD SVG 1.1//EN" "http://www.w3.org/Graphics/SVG/1.1/DTD/svg11.dtd" >
<svg xmlns="http://www.w3.org/2000/svg">
<metadata></metadata>
<defs>
<font id="prometoxbold" horiz-adv-x="1218" >
<font-face units-per-em="2048" ascent="1638" descent="-410" />
<missing-glyph horiz-adv-x="454" />
<glyph unicode="&#xfb01;" horiz-adv-x="1298" d="M88 0v1036q0 264 133 377t455 113q243 0 381 -4l-51 -291q-176 4 -314 4q-122 0 -169.5 -31.5t-51.5 -126.5h281l-56 -291h-225v-786h-383zM827 0v1077h383v-1077h-383z" />
<glyph unicode="&#xfb02;" horiz-adv-x="1320" d="M88 0v1032q0 265 119.5 379.5t406.5 114.5q101 0 160 -2l-53 -291q-35 2 -62 2q-107 0 -145 -32t-43 -126h260l-55 -291h-205v-786h-383zM850 0v1522h383v-1522h-383z" />
<glyph unicode="&#xfb03;" horiz-adv-x="2045" d="M88 0v1032q0 265 119.5 379.5t406.5 114.5q141 0 205 -4l-53 -289q-39 2 -107 2q-107 0 -145 -32t-43 -126h285l-56 -291h-229v-786h-383zM836 0v1036q0 177 56.5 282.5t184.5 156.5t346 51q243 0 381 -4l-51 -291q-176 4 -313 4q-122 0 -169.5 -31.5t-51.5 -126.5h280 l-55 -291h-225v-786h-383zM1575 0v1077h383v-1077h-383z" />
<glyph unicode="&#xfb04;" horiz-adv-x="2070" d="M88 0v1032q0 265 119.5 379.5t406.5 114.5q141 0 205 -4l-53 -289q-39 2 -107 2q-107 0 -145 -32t-43 -126h285l-56 -291h-229v-786h-383zM838 0v1032q0 265 119.5 379.5t406.5 114.5q101 0 160 -2l-54 -291q-35 2 -61 2q-107 0 -145 -32t-43 -126h260l-56 -291h-204 v-786h-383zM1599 0v1522h383v-1522h-383z" />
<glyph horiz-adv-x="0" />
<glyph horiz-adv-x="682" />
<glyph horiz-adv-x="0" />
<glyph horiz-adv-x="0" />
<glyph unicode="&#x9;" horiz-adv-x="454" />
<glyph unicode=" "  horiz-adv-x="454" />
<glyph unicode="&#x09;" horiz-adv-x="454" />
<glyph unicode="&#xa0;" horiz-adv-x="454" />
<glyph unicode="!" horiz-adv-x="581" d="M86 162q0 184 205 184t205 -184q0 -90 -47.5 -137.5t-157.5 -47.5t-157.5 47.5t-47.5 137.5zM92 1049v409h397v-409q0 -160 -14 -332l-22 -260h-322l-22 260q-17 209 -17 332z" />
<glyph unicode="&#x22;" horiz-adv-x="921" d="M33 1319v203h354v-203q0 -141 -10 -213l-21 -236h-293l-20 236q-10 72 -10 213zM535 1319v203h354v-203q0 -141 -10 -213l-21 -236h-293l-20 236q-10 72 -10 213z" />
<glyph unicode="#" horiz-adv-x="1423" d="M33 289l53 284h170l35 246h-187l54 285h172l41 289h329l-41 -289h215l39 289h330l-41 -289h189l-54 -285h-174l-35 -246h191l-53 -284h-179l-38 -289h-326l39 289h-217l-39 -289h-328l39 289h-184zM586 573h215l35 246h-215z" />
<glyph unicode="$" d="M41 977v29q0 182 108.5 280.5t319.5 110.5v215h268v-215q260 0 363 -4l-56 -306q-322 7 -479 7q-92 0 -123.5 -22.5t-31.5 -80.5q0 -52 27.5 -77t101.5 -35l200 -29q225 -32 326.5 -125t101.5 -262v-33q0 -214 -107 -312t-325 -116v-221h-268v217q-242 0 -410 4l56 303 q60 0 235 -1t270 -1q109 0 144 22.5t35 90.5q0 57 -26 80.5t-103 33.5l-232 31q-210 26 -302.5 123t-92.5 293z" />
<glyph unicode="%" horiz-adv-x="1939" d="M29 934v115q0 192 83.5 277t293.5 85t293 -85t83 -277v-115q0 -192 -83 -277.5t-293 -85.5t-293.5 85.5t-83.5 277.5zM311 940q0 -93 17.5 -121t77.5 -28q59 0 76.5 28t17.5 121v102q0 93 -17.5 121.5t-76.5 28.5q-60 0 -77.5 -28.5t-17.5 -121.5v-102zM395 0l826 1393 h323l-825 -1393h-324zM1157 344v115q0 192 83.5 277t293.5 85t293.5 -85t83.5 -277v-115q0 -192 -83.5 -277t-293.5 -85t-293.5 85t-83.5 277zM1440 350q0 -93 17.5 -121t76.5 -28t76.5 28t17.5 121v103q0 93 -17.5 121t-76.5 28t-76.5 -28t-17.5 -121v-103z" />
<glyph unicode="&#x26;" horiz-adv-x="1341" d="M53 389v33q0 270 205 336q-95 43 -136.5 121t-41.5 198v29q0 356 498 356q297 0 417 -4l-51 -280q-85 4 -338 4q-85 0 -115 -28t-30 -103v-19q0 -70 32 -97.5t117 -27.5h717l-53 -280h-92v-398q0 -126 -54 -177.5t-174 -51.5h-399q-268 0 -385 95.5t-117 293.5zM444 436 q0 -86 35.5 -120.5t122.5 -34.5h213v346h-207q-91 0 -127.5 -36.5t-36.5 -123.5v-31z" />
<glyph unicode="'" horiz-adv-x="419" d="M33 1319v203h354v-203q0 -141 -10 -213l-21 -236h-293l-20 236q-10 72 -10 213z" />
<glyph unicode="(" horiz-adv-x="808" d="M76 344v412q0 204 30 336t102.5 215t184.5 117t285 34h113l-54 -280h-35q-58 0 -94.5 -5t-68.5 -22t-49 -44.5t-29.5 -76.5t-16.5 -113.5t-4 -160.5v-412q0 -96 4 -160.5t16.5 -113.5t29.5 -76.5t49 -44.5t68.5 -22t94.5 -5h89l-54 -280h-61q-118 0 -204 13.5t-155 46.5 t-113.5 84.5t-73.5 131.5t-41.5 183t-12.5 243z" />
<glyph unicode=")" horiz-adv-x="808" d="M18 -358l54 280h34q58 0 94.5 5t68.5 22t49.5 44.5t30 76.5t16.5 113.5t4 160.5v412q0 96 -4 160.5t-16.5 113.5t-30 76.5t-49.5 44.5t-68.5 22t-94.5 5h-88l54 280h61q118 0 204 -13.5t155 -46.5t113.5 -84.5t73.5 -131.5t41.5 -183t12.5 -243v-412q0 -204 -30 -336 t-102.5 -215t-184.5 -117t-285 -34h-113z" />
<glyph unicode="*" horiz-adv-x="950" d="M14 1065l88 266l230 -92l-13 248h312l-10 -246l229 90l86 -266l-246 -70l156 -194l-240 -170l-131 194l-131 -194l-240 170l156 192z" />
<glyph unicode="+" d="M135 543v311h307v315h334v-315h307v-311h-307v-316h-334v316h-307z" />
<glyph unicode="," horiz-adv-x="473" d="M-31 -334l127 373q-61 46 -61 141q0 180 201 180q200 0 200 -180q0 -58 -27.5 -130.5t-89.5 -192.5l-96 -191h-254z" />
<glyph unicode="-" horiz-adv-x="825" d="M20 438l62 330h723l-64 -330h-721z" />
<glyph unicode="." horiz-adv-x="473" d="M31 168q0 98 48.5 144t156.5 46t157 -46t49 -144t-49 -144.5t-157 -46.5t-156.5 46.5t-48.5 144.5z" />
<glyph unicode="/" horiz-adv-x="913" d="M14 0l500 1458h385l-500 -1458h-385z" />
<glyph unicode="0" horiz-adv-x="1261" d="M76 553v287q0 158 27 265t91 180.5t170.5 106.5t266.5 33t266.5 -33t170.5 -106.5t91 -180.5t27 -265v-287q0 -158 -27 -265t-91 -181t-170.5 -107t-266.5 -33t-266.5 33t-170.5 107t-91 181t-27 265zM467 559q0 -76 4 -123t13.5 -83t29 -53.5t47 -25.5t70.5 -8t70.5 8 t47 25.5t29 53.5t13.5 83t4 123v275q0 95 -5.5 147.5t-24.5 87.5t-49.5 46t-84.5 11t-84.5 -11t-49.5 -46t-24.5 -87.5t-5.5 -147.5v-275z" />
<glyph unicode="1" horiz-adv-x="974" d="M47 0l55 293h203v807h-252l56 293h581v-1100h252l-55 -293h-840z" />
<glyph unicode="2" horiz-adv-x="1142" d="M59 0v262q0 208 68.5 315.5t239.5 182.5l217 96q71 32 92.5 56t21.5 77q0 60 -28.5 82.5t-100.5 22.5q-59 0 -232 -2t-255 -2l53 303q115 4 481 4q239 0 349 -89.5t110 -267.5v-34q0 -146 -63 -243.5t-211 -158.5l-266 -110q-56 -24 -76.5 -58.5t-20.5 -101.5v-31h643 l-55 -303h-967z" />
<glyph unicode="3" horiz-adv-x="1120" d="M31 0l53 297q86 -4 448 -4q77 0 110.5 28.5t33.5 92.5v20q0 67 -33.5 96t-116.5 29h-387l51 285h324q71 0 104 27.5t33 84.5v25q0 61 -32.5 90t-104.5 29q-107 0 -451 -4l54 297q278 4 489 4q430 0 430 -348v-39q0 -104 -35.5 -170t-117.5 -113q90 -42 135 -115.5 t45 -187.5v-37q0 -203 -123.5 -297t-398.5 -94q-391 0 -510 4z" />
<glyph unicode="4" horiz-adv-x="1208" d="M49 248v246l418 899h373l-412 -856h262v344l352 55v-399h148l-55 -289h-93v-248h-352v248h-641z" />
<glyph unicode="5" horiz-adv-x="1132" d="M47 0l53 297q93 -4 394 -4q102 0 140 31.5t38 111.5v19q0 82 -38 112.5t-140 30.5h-406v795h911l-53 -297h-510v-211h111q280 0 393 -91.5t113 -324.5v-43q0 -159 -52.5 -251t-176 -135.5t-341.5 -43.5q-349 0 -436 4z" />
<glyph unicode="6" horiz-adv-x="1181" d="M74 479v320q0 162 28.5 270.5t98.5 184t186.5 109.5t292.5 34q237 0 364 -4l-55 -299q-274 4 -315 4q-135 0 -186.5 -51t-51.5 -152v-25q82 54 240 54q231 0 338.5 -107t107.5 -356v-33q0 -243 -125.5 -352t-394.5 -109q-277 0 -402.5 118.5t-125.5 393.5zM436 430 q0 -102 36.5 -141t125.5 -39q92 0 127 38.5t35 141.5v35q0 104 -34.5 143t-121.5 39q-94 0 -131 -39t-37 -143v-35z" />
<glyph unicode="7" horiz-adv-x="1093" d="M25 1081l57 312h956v-260l-405 -1133h-402l410 1081h-616z" />
<glyph unicode="8" horiz-adv-x="1206" d="M63 367v39q0 231 199 323q-80 45 -124 120t-44 171v31q0 181 121 277.5t389 96.5t389 -96.5t121 -277.5v-31q0 -97 -43.5 -171.5t-124.5 -119.5q199 -92 199 -323v-39q0 -205 -126.5 -302.5t-414.5 -97.5q-290 0 -415.5 97t-125.5 303zM432 401q0 -89 35.5 -124 t136.5 -35q102 0 138 35t36 124v23q0 89 -36 124.5t-138 35.5q-101 0 -136.5 -35.5t-35.5 -124.5v-23zM442 991q0 -78 35 -108.5t127 -30.5t127 30.5t35 108.5v31q0 73 -35.5 104t-126.5 31q-87 0 -124.5 -31.5t-37.5 -103.5v-31z" />
<glyph unicode="9" horiz-adv-x="1179" d="M59 932v33q0 246 125 353t396 107q277 0 402.5 -118.5t125.5 -393.5v-319q0 -162 -28.5 -270.5t-98.5 -184t-186.5 -109.5t-292.5 -34q-247 0 -367 4l55 299q278 -4 318 -4q135 0 186 50t51 153v24q-86 -53 -241 -53q-229 0 -337 107.5t-108 355.5zM420 928 q0 -105 34 -144t121 -39q94 0 132 39t38 144v35q0 102 -36.5 141t-126.5 39q-92 0 -127 -38.5t-35 -141.5v-35z" />
<glyph unicode=":" horiz-adv-x="473" d="M31 168q0 98 48.5 144t156.5 46t157 -46t49 -144t-49 -144.5t-157 -46.5t-156.5 46.5t-48.5 144.5zM31 899q0 98 48.5 144.5t156.5 46.5t157 -46.5t49 -144.5t-49 -144t-157 -46t-156.5 46t-48.5 144z" />
<glyph unicode=";" horiz-adv-x="473" d="M-31 -334l127 373q-61 46 -61 141q0 180 201 180q200 0 200 -180q0 -58 -27.5 -130.5t-89.5 -192.5l-96 -191h-254zM31 899q0 98 48.5 144.5t156.5 46.5t157 -46.5t49 -144.5t-49 -144t-157 -46t-156.5 46t-48.5 144z" />
<glyph unicode="&#x3c;" d="M135 524v348l948 330v-328l-583 -176l583 -176v-327z" />
<glyph unicode="=" d="M135 307v299h948v-299h-948zM135 778v299h948v-299h-948z" />
<glyph unicode="&#x3e;" d="M135 195v327l584 176l-584 176v328l948 -330v-348z" />
<glyph unicode="?" horiz-adv-x="987" d="M10 1155l56 307q109 4 421 4q246 0 356.5 -95t110.5 -300v-22q0 -140 -46 -221t-156 -132l-93 -43q-75 -34 -98.5 -64.5t-23.5 -107.5v-32h-363v32q0 174 48 258.5t177 141.5l90 41q48 24 64 47.5t16 72.5q0 68 -28.5 92.5t-112.5 24.5q-311 0 -418 -4zM150 162 q0 88 47 136t157 48q205 0 205 -184q0 -90 -47.5 -137.5t-157.5 -47.5t-157 47.5t-47 137.5z" />
<glyph unicode="@" horiz-adv-x="1669" d="M68 240v252q0 186 47 312t151 204t257.5 111.5t377.5 33.5q366 0 530 -112.5t164 -372.5v-441q0 -127 -54.5 -177t-186.5 -50h-383q-211 0 -301 85.5t-90 248.5v35q0 166 95 243.5t294 77.5q147 0 262 -53v29q0 76 -27.5 116t-100.5 59t-212 19q-112 0 -187 -10.5 t-130 -34t-85 -67.5t-43.5 -105t-13.5 -151v-252q0 -83 8 -140.5t29 -104.5t55 -76t89 -48.5t127 -27t173 -7.5q361 0 543 6l-53 -293q-180 -6 -479 -6q-158 0 -276.5 13.5t-217 45.5t-164.5 84t-111.5 130t-66 182t-20.5 242zM948 350q0 -54 26 -76t89 -22h164v108 q0 60 -31.5 83.5t-112.5 23.5q-82 0 -108.5 -20.5t-26.5 -73.5v-23z" />
<glyph unicode="A" horiz-adv-x="1533" d="M16 0l510 1458h480l512 -1458h-418l-101 319h-485l-98 -319h-400zM602 625h307l-153 493z" />
<glyph unicode="B" horiz-adv-x="1347" d="M102 0v1458h707q230 0 337 -89.5t107 -272.5v-27q0 -212 -170 -295q213 -79 213 -332v-36q0 -212 -127 -309t-389 -97h-678zM469 299h274q95 0 133.5 30.5t38.5 110.5v27q0 85 -39 115t-139 30h-268v-313zM469 891h254q84 0 117.5 29t33.5 98v20q0 66 -33 93.5t-112 27.5 h-260v-268z" />
<glyph unicode="C" horiz-adv-x="1224" d="M82 639v182q0 349 155 495t523 146q250 0 399 -4l-61 -336q-87 4 -312 4q-94 0 -148.5 -12.5t-88 -48.5t-44.5 -91.5t-11 -152.5v-184q0 -96 11.5 -152t46 -92t89 -48.5t147.5 -12.5q238 0 383 4l-61 -336q-123 -4 -348 -4q-190 0 -316 32t-209 108.5t-119 198t-36 304.5 z" />
<glyph unicode="D" horiz-adv-x="1476" d="M102 0v1458h639q191 0 318.5 -37.5t201.5 -120t104 -196.5t30 -283v-182q0 -161 -31 -275t-103.5 -198t-198.5 -125t-310 -41h-650zM494 336h206q110 0 168.5 25t86.5 91t28 191v174q0 124 -28 189.5t-86.5 90.5t-168.5 25h-206v-786z" />
<glyph unicode="E" horiz-adv-x="1255" d="M102 0v1458h1100l-59 -315h-656v-246h641l-59 -315h-582v-267h727l-59 -315h-1053z" />
<glyph unicode="F" horiz-adv-x="1179" d="M102 0v1458h1063l-59 -319h-619v-283h584l-57 -309h-527v-547h-385z" />
<glyph unicode="G" horiz-adv-x="1404" d="M82 631v198q0 172 37 289t123 195.5t225.5 113.5t347.5 35q349 0 479 -4l-59 -336q-181 4 -444 4q-94 0 -147.5 -11t-89.5 -45t-48 -89.5t-12 -151.5v-196q0 -95 12 -151.5t45.5 -90t82.5 -44.5t132 -11h182v211h-209l58 301h536v-619q0 -124 -55.5 -176.5t-185.5 -52.5 h-316q-197 0 -327 32t-213 108t-118.5 194t-35.5 297z" />
<glyph unicode="H" horiz-adv-x="1497" d="M102 0v1458h400v-549h493v549h400v-1458h-400v559h-493v-559h-400z" />
<glyph unicode="I" horiz-adv-x="604" d="M102 0v1458h400v-1458h-400z" />
<glyph unicode="J" horiz-adv-x="987" d="M18 0l62 336q126 -4 199 -4q87 0 129.5 17t61.5 64t19 144v901h400v-901q0 -307 -113 -434t-379 -127q-290 0 -379 4z" />
<glyph unicode="K" horiz-adv-x="1456" d="M102 0v1458h396v-573l436 573h457l-549 -692l614 -766h-504l-454 588v-588h-396z" />
<glyph unicode="L" horiz-adv-x="1181" d="M102 0v1458h398v-1122h663l-65 -336h-996z" />
<glyph unicode="M" horiz-adv-x="1712" d="M102 0v1458h422l338 -698l330 698h418v-1458h-369v872l-227 -469h-314l-229 463v-866h-369z" />
<glyph unicode="N" horiz-adv-x="1495" d="M102 0v1458h320l592 -831v831h379v-1458h-326l-586 817v-817h-379z" />
<glyph unicode="O" horiz-adv-x="1531" d="M82 618v226q0 176 34.5 296.5t115 202.5t211 119t323.5 37q192 0 321.5 -36.5t210.5 -117.5t116.5 -202t35.5 -299v-226q0 -176 -34.5 -296.5t-115 -202.5t-211 -119t-323.5 -37q-256 0 -405 67.5t-214 208.5t-65 379zM494 621q0 -69 4.5 -116.5t17 -85.5t31.5 -60 t50.5 -36.5t71.5 -20t97 -5.5q87 0 136.5 12.5t81 50t42 97.5t10.5 164v221q0 104 -10.5 163.5t-42 97t-81.5 50t-136 12.5q-58 0 -97.5 -5t-71 -19.5t-50.5 -37t-31.5 -60t-17 -85t-4.5 -116.5v-221z" />
<glyph unicode="P" horiz-adv-x="1345" d="M102 0v1458h609q316 0 450.5 -107.5t134.5 -355.5v-82q0 -234 -139 -349t-450 -115h-205v-449h-400zM502 766h182q123 0 168 36t45 138v27q0 100 -45.5 137t-167.5 37h-182v-375z" />
<glyph unicode="Q" horiz-adv-x="1531" d="M82 618v226q0 176 34.5 296.5t115 202.5t211 119t323.5 37q192 0 321.5 -36.5t210.5 -117.5t116.5 -202t35.5 -299v-226q0 -258 -79 -404.5t-261 -205.5l309 -276h-465l-247 233q-176 6 -295 45t-192.5 119.5t-105.5 198.5t-32 290zM494 621q0 -69 4.5 -116.5t17 -85.5 t31.5 -60t50.5 -36.5t71.5 -20t97 -5.5q87 0 136.5 12.5t81 50t42 97.5t10.5 164v221q0 104 -10.5 163.5t-42 97t-81.5 50t-136 12.5q-58 0 -97.5 -5t-71 -19.5t-50.5 -37t-31.5 -60t-17 -85t-4.5 -116.5v-221z" />
<glyph unicode="R" horiz-adv-x="1368" d="M102 0v1458h611q314 0 446.5 -106.5t132.5 -358.5v-49q0 -293 -248 -397l312 -547h-426l-240 475h-194v-475h-394zM496 788h200q114 0 158 35.5t45 132.5v17q-1 97 -45 132.5t-158 35.5h-200v-353z" />
<glyph unicode="S" horiz-adv-x="1230" d="M45 0l55 319q143 -4 496 -4q104 0 138 20t34 87q0 61 -24.5 86t-102.5 37l-182 30q-126 22 -206.5 55t-126.5 85.5t-63.5 119t-17.5 166.5v35q0 211 131.5 318.5t429.5 107.5q376 0 541 -4l-57 -319q-446 4 -480 4q-96 0 -127.5 -20.5t-31.5 -80.5q0 -57 21.5 -77.5 t96.5 -32.5l230 -41q113 -21 187.5 -54.5t119 -86.5t62.5 -120t18 -163v-35q0 -158 -55 -251t-185 -139t-354 -46q-361 0 -547 4z" />
<glyph unicode="T" horiz-adv-x="1390" d="M18 1122l64 336h1290l-63 -336h-414v-1122h-397v1122h-480z" />
<glyph unicode="U" horiz-adv-x="1466" d="M98 575v883h398v-885q0 -160 48 -218t189 -58t189.5 58t48.5 218v885h397v-883q0 -133 -20.5 -231t-66 -172t-120 -119t-180 -67.5t-248.5 -22.5t-248.5 22.5t-180 67.5t-120 119t-66 172t-20.5 231z" />
<glyph unicode="V" horiz-adv-x="1452" d="M16 1458h433l284 -1009l285 1009h418l-475 -1458h-467z" />
<glyph unicode="W" horiz-adv-x="1992" d="M23 1458h415l168 -1001l221 1001h361l221 -1003l170 1003h391l-342 -1458h-430l-197 893l-194 -893h-445z" />
<glyph unicode="X" horiz-adv-x="1482" d="M2 0l514 774l-459 684h451l244 -407l239 407h434l-460 -684l516 -774h-455l-295 489l-291 -489h-438z" />
<glyph unicode="Y" horiz-adv-x="1439" d="M10 1458h441l276 -555l270 555h433l-510 -874v-584h-396v580z" />
<glyph unicode="Z" horiz-adv-x="1306" d="M51 0v276l674 863h-668l60 319h1100v-284l-672 -855h719l-60 -319h-1153z" />
<glyph unicode="[" horiz-adv-x="819" d="M104 -358v1816h699l-53 -284h-287v-1248h340l-53 -284h-646z" />
<glyph unicode="\" horiz-adv-x="913" d="M14 1458h387l498 -1458h-387z" />
<glyph unicode="]" horiz-adv-x="819" d="M16 -358l54 284h286v1248h-340l54 284h645v-1816h-699z" />
<glyph unicode="^" d="M72 805l338 653h399l338 -653h-359l-180 364l-178 -364h-358z" />
<glyph unicode="_" horiz-adv-x="1024" d="M0 -70h1024v-317h-1024v317z" />
<glyph unicode="`" horiz-adv-x="1024" d="M184 1516h400l223 -293h-344z" />
<glyph unicode="a" horiz-adv-x="1179" d="M55 324v34q0 166 99 246t309 80q169 0 262 -49v20q0 81 -35 115.5t-141 34.5q-279 0 -399 -4l53 276q160 4 379 4q264 0 387 -92.5t123 -314.5v-445q0 -128 -57 -178.5t-189 -50.5h-385q-115 0 -195 22.5t-125.5 66.5t-65.5 101t-20 134zM422 342q0 -50 30 -72t99 -22 h172v102q0 62 -29.5 86.5t-113.5 24.5h-25q-75 0 -104 -21t-29 -75v-23z" />
<glyph unicode="b" horiz-adv-x="1247" d="M88 469v1053h383v-467q86 55 244 55q113 0 195 -26t143 -85t91 -160t30 -245v-113q0 -279 -127.5 -396.5t-421.5 -117.5q-291 0 -414 115.5t-123 386.5zM471 469q0 -128 31.5 -166.5t126.5 -38.5q63 0 94.5 14.5t47 58.5t15.5 132v135q0 88 -14 132t-46 60.5t-95 16.5 q-95 0 -127.5 -38t-32.5 -154v-152z" />
<glyph unicode="c" horiz-adv-x="1011" d="M74 483v111q0 263 123 375t421 112q210 0 334 -4l-55 -297q-123 4 -258 4q-108 0 -143 -36.5t-35 -153.5v-111q0 -116 35 -153t143 -37q125 0 317 4l-55 -297q-87 -4 -276 -4q-158 0 -262.5 26t-169.5 86t-92 150t-27 225z" />
<glyph unicode="d" horiz-adv-x="1245" d="M74 494v100q0 145 30.5 245.5t92 159.5t145.5 85t201 26q67 0 131 -14.5t102 -38.5v465h381v-1293q0 -129 -54.5 -179t-189.5 -50h-299q-160 0 -262 24.5t-165 84t-88 151t-25 234.5zM461 504q0 -128 31 -167.5t126 -39.5h158v332q0 113 -33 148.5t-127 35.5 q-93 0 -124 -40t-31 -163v-106z" />
<glyph unicode="e" horiz-adv-x="1153" d="M74 483v113q0 270 122 392t400 122q256 0 375 -101t119 -313v-45q0 -130 -40.5 -179.5t-156.5 -49.5h-451q1 -85 41 -115.5t146 -30.5q304 0 405 5l-51 -281q-246 -4 -393 -4q-285 0 -400.5 112.5t-115.5 374.5zM442 659h308q-1 108 -34 145.5t-120 37.5 q-89 0 -121.5 -37.5t-32.5 -145.5z" />
<glyph unicode="f" horiz-adv-x="794" d="M88 0v1032q0 265 119.5 379.5t406.5 114.5q108 0 256 -4l-53 -289q-96 2 -158 2q-107 0 -145 -32t-43 -126h338l-55 -291h-283v-786h-383z" />
<glyph unicode="g" horiz-adv-x="1243" d="M74 543v82q0 259 125.5 372t418.5 113q152 0 256.5 -29t166 -89.5t88 -144.5t26.5 -202v-559q0 -120 -27.5 -202.5t-91.5 -138.5t-168.5 -81.5t-259.5 -25.5q-250 0 -434 4l53 284q153 -4 346 -4q113 0 157 36.5t44 137.5v10q-88 -51 -242 -51q-115 0 -197.5 25 t-142.5 81t-89 151t-29 231zM461 535q0 -118 29.5 -154.5t125.5 -36.5q93 0 125.5 34t32.5 136v115q0 118 -30 154t-128 36q-97 0 -126 -35.5t-29 -154.5v-94z" />
<glyph unicode="h" horiz-adv-x="1224" d="M88 0v1522h383v-473q86 61 258 61q201 0 304.5 -90t103.5 -281v-739h-383v662q0 81 -27 111t-111 30q-86 0 -115.5 -33.5t-29.5 -126.5v-643h-383z" />
<glyph unicode="i" horiz-adv-x="559" d="M68 1364q0 90 45.5 130t165.5 40t165 -40t45 -130q0 -91 -43.5 -129.5t-166.5 -38.5q-121 0 -166 38.5t-45 129.5zM88 0v1077h383v-1077h-383z" />
<glyph unicode="j" horiz-adv-x="559" d="M-205 -358l51 305q33 -2 105 -2q77 0 107 25.5t30 95.5v1011h383v-1011q0 -126 -23.5 -208.5t-77.5 -131.5t-130 -68.5t-191 -19.5q-172 0 -254 4zM68 1364q0 90 45.5 130t165.5 40t165 -40t45 -130q0 -91 -43.5 -129.5t-166.5 -38.5q-121 0 -166 38.5t-45 129.5z" />
<glyph unicode="k" horiz-adv-x="1241" d="M88 0v1522h381v-820l311 375h434l-432 -485l469 -592h-444l-338 444v-444h-381z" />
<glyph unicode="l" horiz-adv-x="559" d="M88 0v1522h383v-1522h-383z" />
<glyph unicode="m" horiz-adv-x="1812" d="M88 0v684q0 120 32 204.5t95.5 132t146.5 68.5t195 21q237 0 350 -119q113 119 357 119q111 0 192 -21t143 -68.5t93.5 -131.5t31.5 -205v-684h-383v662q0 82 -23.5 111.5t-98.5 29.5q-73 0 -97 -30t-24 -111v-662h-383v662q0 81 -24 111t-99 30q-73 0 -97 -30t-24 -111 v-662h-383z" />
<glyph unicode="n" horiz-adv-x="1224" d="M88 0v676q0 125 28 207.5t92.5 133.5t161 72t242.5 21t242.5 -21t161.5 -72t93 -133.5t28 -207.5v-676h-383v662q0 78 -28.5 109.5t-113.5 31.5q-87 0 -114 -30t-27 -111v-662h-383z" />
<glyph unicode="o" horiz-adv-x="1236" d="M74 483v111q0 148 28.5 245.5t95 158.5t167.5 86.5t253 25.5t253 -25.5t168 -86t95.5 -158.5t28.5 -246v-111q0 -147 -29 -245t-95.5 -159t-167.5 -86.5t-253 -25.5t-253 25.5t-167.5 86.5t-95 158.5t-28.5 245.5zM461 469q0 -88 14.5 -131t46 -58.5t96.5 -15.5 q95 0 126.5 38.5t31.5 166.5v139q0 128 -31.5 166.5t-126.5 38.5q-65 0 -96.5 -15.5t-46 -58.5t-14.5 -131v-139z" />
<glyph unicode="p" horiz-adv-x="1245" d="M88 -358v966q0 271 127.5 386.5t423.5 115.5q286 0 409 -116t123 -402v-107q0 -147 -30.5 -248.5t-92.5 -160.5t-146.5 -85t-203.5 -26q-140 0 -227 49v-372h-383zM471 459q0 -118 33.5 -157.5t124.5 -39.5q94 0 124.5 40t30.5 169v133q0 91 -14.5 135t-45.5 59t-95 15 q-95 0 -126.5 -38.5t-31.5 -166.5v-149z" />
<glyph unicode="q" horiz-adv-x="1245" d="M74 481v113q0 281 126.5 398.5t420.5 117.5q291 0 413.5 -115.5t122.5 -386.5v-966h-383v378q-86 -55 -244 -55q-114 0 -196 26t-142 85t-89 159.5t-29 245.5zM461 471q0 -129 30.5 -169t122.5 -40q95 0 127.5 38.5t32.5 154.5v153q0 128 -31.5 166.5t-126.5 38.5 q-93 0 -124 -38.5t-31 -166.5v-137z" />
<glyph unicode="r" horiz-adv-x="817" d="M88 0v647q0 126 29 210.5t92 134.5t152.5 70.5t220.5 20.5q166 0 249 -4l-57 -307q-66 4 -151 4q-93 0 -122.5 -33.5t-29.5 -124.5v-618h-383z" />
<glyph unicode="s" horiz-adv-x="1085" d="M49 0l49 268q63 0 218.5 -2t220.5 -2q68 0 90 12t22 52q0 34 -17.5 45t-74.5 16l-184 14q-89 6 -150.5 31.5t-96.5 70t-50 98.5t-15 126v25q0 164 111.5 245.5t372.5 81.5q286 0 465 -4l-49 -270q-106 1 -205 2t-149.5 1.5t-74.5 0.5q-58 0 -78 -10.5t-20 -44.5 q0 -31 17.5 -42.5t74.5 -15.5l158 -12q181 -13 262.5 -89t81.5 -220v-39q0 -183 -115.5 -263.5t-373.5 -80.5q-318 0 -490 6z" />
<glyph unicode="t" horiz-adv-x="866" d="M88 440v883l383 51v-297h363l-54 -291h-309v-335q0 -94 29.5 -125t124.5 -31q155 0 196 2l-55 -297q-41 -2 -207 -2q-149 0 -237 18.5t-142.5 71.5t-73 133.5t-18.5 218.5z" />
<glyph unicode="u" horiz-adv-x="1222" d="M88 403v674h383v-661q0 -79 27.5 -110.5t111.5 -31.5t113 31.5t29 110.5v661h383v-674q0 -126 -28.5 -209t-93.5 -134t-161.5 -72t-241.5 -21t-240.5 21t-160.5 72t-93 134t-28 209z" />
<glyph unicode="v" horiz-adv-x="1183" d="M10 1077h416l174 -702l178 702h396l-353 -1077h-456z" />
<glyph unicode="w" horiz-adv-x="1662" d="M14 1077h392l122 -680l154 680h317l150 -680l125 680h375l-310 -1077h-366l-137 612l-138 -612h-376z" />
<glyph unicode="x" horiz-adv-x="1216" d="M16 0l375 555l-346 522h428l143 -266l150 266h403l-350 -514l381 -563h-424l-176 293l-174 -293h-410z" />
<glyph unicode="y" horiz-adv-x="1222" d="M88 420v657h383v-575q0 -79 26 -109.5t107 -30.5q87 0 117.5 30.5t30.5 115.5v569h383v-991q0 -120 -27.5 -202.5t-91.5 -138.5t-168.5 -81.5t-259.5 -25.5q-250 0 -434 4l53 284q153 -4 346 -4q113 0 157 36.5t44 137.5v10q-88 -51 -260 -51q-205 0 -305.5 87 t-100.5 278z" />
<glyph unicode="z" horiz-adv-x="1089" d="M49 780l55 297h910v-239l-457 -541h485l-55 -297h-930v238l459 542h-467z" />
<glyph unicode="{" horiz-adv-x="905" d="M72 403v295h53q65 0 90 33t25 94v265q0 132 43.5 210.5t148 118t283.5 39.5h170l-54 -278h-86q-88 0 -119.5 -32.5t-31.5 -113.5v-246q0 -166 -152 -237q81 -38 116.5 -102t35.5 -136v-247q0 -81 31.5 -113.5t119.5 -32.5h140l-54 -278h-116q-179 0 -283.5 39.5t-148 118 t-43.5 210.5v266q0 61 -25 94t-90 33h-53z" />
<glyph unicode="|" horiz-adv-x="577" d="M96 -358v1880h385v-1880h-385z" />
<glyph unicode="}" horiz-adv-x="905" d="M20 -358l52 278h88q88 0 119.5 32.5t31.5 113.5v247q0 72 35.5 136t116.5 102q-152 71 -152 237v246q0 81 -31.5 113.5t-119.5 32.5h-140l52 278h118q179 0 283.5 -39.5t148.5 -118t44 -210.5v-265q0 -61 25 -94t89 -33h54v-295h-54q-64 0 -89 -33t-25 -94v-266 q0 -132 -44 -210.5t-148.5 -118t-283.5 -39.5h-170z" />
<glyph unicode="~" d="M80 473v51q0 221 74 320.5t215 99.5q32 0 61 -4.5t59 -15.5t45.5 -17.5t49 -23.5t41.5 -21l30 -16q80 -45 121 -45q37 0 53.5 20t16.5 72v33h291v-52q0 -221 -74 -320t-215 -99q-49 0 -95.5 12t-76 26t-70.5 36q-9 5 -14 8l-31 16q-80 45 -121 45q-37 0 -53 -20t-16 -72 v-33h-291z" />
<glyph unicode="&#xa1;" horiz-adv-x="581" d="M86 903q0 90 47.5 137t157.5 47t157.5 -47t47.5 -137q0 -184 -205 -184t-205 184zM92 16q0 160 14 332l23 260h322l22 -260q16 -197 16 -332v-409h-397v409z" />
<glyph unicode="&#xa2;" d="M162 481v119q0 230 86 339t293 134v205h260v-197q45 0 127.5 -1t122.5 -1l-56 -291q-42 0 -135 1.5t-170 1.5q-109 0 -138.5 -34.5t-29.5 -156.5v-119q0 -60 5 -92.5t23 -57t50.5 -32.5t89.5 -8q76 0 191 2t176 2l-53 -293q-98 -4 -203 -4v-197h-260v203 q-210 25 -294.5 132t-84.5 345z" />
<glyph unicode="&#xa3;" d="M76 0l55 289h107v280h-160l53 281h107v78q0 244 130.5 356.5t438.5 112.5q278 0 342 -4l-49 -281q-123 2 -281 2q-121 0 -164 -38.5t-43 -153.5v-72h387l-53 -281h-334v-280h551l-53 -289h-1034z" />
<glyph unicode="&#xa4;" d="M33 354l135 138q-62 114 -62 233t62 233l-135 138l200 200l148 -147q99 51 229 51q128 0 230 -51l147 147l201 -200l-137 -138q63 -105 63 -233t-63 -233l137 -138l-203 -200l-149 147q-99 -51 -226 -51q-128 0 -227 51l-147 -147zM391 727q0 -100 56 -157.5t163 -57.5 q104 0 161.5 57.5t57.5 157.5t-57.5 158.5t-161.5 58.5q-106 0 -162.5 -58t-56.5 -159z" />
<glyph unicode="&#xa5;" d="M-10 1393h424l190 -478l205 478h420l-332 -623h197v-209h-303v-106h303v-209h-303v-246h-375v246h-301v209h301v106h-301v209h198z" />
<glyph unicode="&#xa6;" horiz-adv-x="577" d="M96 340h385v-698h-385v698zM96 823v699h385v-699h-385z" />
<glyph unicode="&#xa7;" horiz-adv-x="1208" d="M59 461v14q0 112 44 192.5t126 118.5q-93 51 -130.5 122t-37.5 171v19q0 173 124 268.5t376 95.5q412 0 549 -4l-53 -293q-141 4 -506 4q-69 0 -94 -20t-25 -64q0 -45 20.5 -66.5t79.5 -27.5l234 -22q195 -18 284.5 -98t90.5 -248v-11q0 -220 -164 -313q162 -77 162 -272 v-21q0 -188 -131.5 -285.5t-391.5 -97.5q-43 0 -255 2t-298 2l54 289q57 0 211 -2t280 -2q75 0 105 21.5t30 80.5q0 45 -20 69t-74 28l-227 22q-185 17 -272 93.5t-91 234.5zM414 545q0 -71 27.5 -101t97.5 -38l51 -7q50 -4 72 -4q68 0 99.5 36t31.5 124q0 71 -28 99t-99 36 l-50 6q-46 4 -73 4q-69 0 -99 -33.5t-30 -121.5z" />
<glyph unicode="&#xa8;" horiz-adv-x="1024" d="M106 1354q0 77 42 117t137 40t137.5 -40t42.5 -117q0 -158 -180 -158q-95 0 -137 40.5t-42 117.5zM557 1354q0 77 41.5 117t136.5 40q183 0 183 -157q0 -158 -183 -158q-95 0 -136.5 40.5t-41.5 117.5z" />
<glyph unicode="&#xa9;" horiz-adv-x="1738" d="M59 729q0 222 42.5 371t140 245t249.5 137.5t379 41.5q180 0 311 -26.5t228 -83t155.5 -151t86.5 -225t28 -309.5q0 -222 -42.5 -371t-140.5 -245t-249.5 -137.5t-376.5 -41.5q-150 0 -265.5 17.5t-207.5 57.5t-155 101t-104.5 150.5t-60 204.5t-18.5 264zM301 729 q0 -122 9.5 -207t35.5 -152.5t65.5 -108.5t105 -67.5t149 -36.5t202.5 -10q120 0 204 10t150 36.5t105.5 67t65.5 108t35.5 152.5t9.5 208q0 122 -9.5 207t-35.5 153t-65.5 108.5t-105.5 67t-150 36.5t-204 10q-119 0 -202.5 -10t-149 -36.5t-105 -67t-65.5 -108 t-35.5 -152.5t-9.5 -208zM496 682v94q0 113 19.5 186t70 124t136 72.5t218.5 21.5q75 0 223 -4l-47 -246q-80 2 -170 2q-79 0 -104 -28t-25 -128v-92q0 -100 26.5 -128t110.5 -28q141 0 207 2l-47 -245q-33 -1 -71.5 -2t-61 -1.5t-41.5 -0.5q-253 0 -348.5 85.5t-95.5 315.5 z" />
<glyph unicode="&#xaa;" horiz-adv-x="927" d="M41 870v29q0 135 79 197.5t249 62.5q133 0 204 -41v25q0 63 -28.5 88.5t-112.5 25.5q-240 0 -315 -4l41 222q126 4 303 4q210 0 309.5 -74t99.5 -254v-356q0 -101 -42 -142t-138 -41h-319q-178 0 -254 64.5t-76 193.5zM338 879q0 -41 23.5 -57.5t74.5 -16.5h135v86 q0 47 -23 64.5t-85 17.5h-21q-58 0 -81 -17.5t-23 -56.5v-20z" />
<glyph unicode="&#xab;" horiz-adv-x="1179" d="M61 348v377l480 317v-344l-260 -161l260 -162v-344zM629 348v377l479 317v-344l-262 -161l262 -162v-344z" />
<glyph unicode="&#xac;" d="M98 674v311h977v-618h-338v307h-639z" />
<glyph unicode="&#xad;" horiz-adv-x="825" d="M20 438l62 330h723l-64 -330h-721z" />
<glyph unicode="&#xae;" horiz-adv-x="1228" d="M41 991q0 301 132 428t441 127t441.5 -127t132.5 -428t-132.5 -428t-441.5 -127t-441 127t-132 428zM225 991q0 -82 7 -139.5t25 -102.5t45 -72.5t72.5 -45.5t102 -24.5t137.5 -6.5q122 0 194 16t118 61.5t62 118t16 195.5q0 80 -7 137t-25 102.5t-45.5 73t-72.5 46 t-102 25.5t-138 7q-121 0 -193.5 -16.5t-118 -63t-61.5 -118.5t-16 -193zM383 723v549h252q129 0 180 -44t51 -153v-18q0 -106 -80 -150l99 -184h-205l-70 151h-43v-151h-184zM565 1010h56q37 0 51 9.5t14 39.5v12q0 33 -13.5 42t-51.5 9h-56v-112z" />
<glyph unicode="&#xaf;" horiz-adv-x="1024" d="M168 1227v248h686v-248h-686z" />
<glyph unicode="&#xb0;" horiz-adv-x="765" d="M23 1206q0 173 92 253.5t268 80.5q360 0 360 -334t-360 -334q-176 0 -268 80.5t-92 253.5zM260 1206q0 -71 28 -100t95 -29q66 0 93.5 28.5t27.5 100.5q0 69 -27.5 98t-93.5 29t-94.5 -29t-28.5 -98z" />
<glyph unicode="&#xb1;" d="M135 2v311h948v-311h-948zM135 745v312h307v315h334v-315h307v-312h-307v-315h-334v315h-307z" />
<glyph unicode="&#xb2;" horiz-adv-x="811" d="M86 590v164q0 121 41 188.5t147 101.5l117 39q37 12 47.5 23.5t10.5 36.5q0 29 -14.5 40t-55.5 11q-202 0 -273 -4l33 199q129 6 269 6q161 0 236 -53.5t75 -174.5v-26q0 -88 -39 -137.5t-137 -81.5l-113 -35q-42 -14 -57 -30t-15 -50v-12h367l-35 -205h-604z" />
<glyph unicode="&#xb3;" horiz-adv-x="811" d="M74 590l37 198q72 -2 272 -2q40 0 56 11.5t16 42.5v10q0 30 -15.5 41.5t-56.5 11.5h-240l33 187h197q42 0 57.5 10t15.5 39v10q0 29 -15.5 38t-57.5 9q-111 0 -275 -4l37 201q82 2 299 2q148 0 215.5 -50.5t67.5 -156.5v-10q0 -66 -21 -103.5t-71 -60.5q112 -46 112 -178 v-19q0 -116 -70 -172.5t-241 -56.5q-19 0 -180.5 1t-171.5 1z" />
<glyph unicode="&#xb4;" horiz-adv-x="1024" d="M201 1223l223 293h401l-280 -293h-344z" />
<glyph unicode="&#xb5;" horiz-adv-x="1239" d="M88 -358v1435h383v-620q0 -93 30 -125.5t120 -32.5h143v778h387v-848q0 -130 -63.5 -179.5t-229.5 -49.5h-168q-164 0 -225 43v-401h-377z" />
<glyph unicode="&#xb6;" horiz-adv-x="1380" d="M33 981v63q0 79 25 151.5t73.5 132t130.5 95t187 35.5h831v-1816h-291v1552h-164v-1552h-288v917h-56q-100 0 -179.5 26.5t-129 69t-82 99.5t-45 113t-12.5 114z" />
<glyph unicode="&#xb7;" horiz-adv-x="473" d="M31 698q0 98 48.5 144.5t156.5 46.5t157 -46.5t49 -144.5t-49 -144t-157 -46t-156.5 46t-48.5 144z" />
<glyph unicode="&#xb8;" horiz-adv-x="1024" d="M274 -483l35 166q63 -2 146 -2q38 0 51.5 10t13.5 39q0 27 -14 38t-51 11q-58 0 -113 -2l31 149q78 4 153 4q136 0 192 -43.5t56 -148.5v-14q0 -118 -60 -165.5t-210 -47.5q-148 0 -230 6z" />
<glyph unicode="&#xb9;" horiz-adv-x="811" d="M94 590l39 223h143v358h-170l39 222h422v-580h170l-39 -223h-604z" />
<glyph unicode="&#xba;" horiz-adv-x="964" d="M41 987v119q0 203 103 293t337 90q235 0 339 -90t104 -293v-119q0 -203 -104 -293t-339 -90q-234 0 -337 90t-103 293zM360 987q0 -87 23.5 -116t97.5 -29t98.5 29t24.5 116v119q0 87 -24.5 116t-98.5 29t-97.5 -29t-23.5 -116v-119z" />
<glyph unicode="&#xbb;" horiz-adv-x="1179" d="M72 31v344l262 162l-262 161v344l479 -317v-377zM639 31v344l262 162l-262 161v344l479 -317v-377z" />
<glyph unicode="&#xbc;" horiz-adv-x="1939" d="M94 590l39 223h143v358h-170l39 222h422v-580h170l-39 -223h-604zM424 0l825 1393h324l-825 -1393h-324zM1169 139v193l240 471h264l-250 -461h144v162l245 35v-197h99l-39 -203h-60v-139h-245v139h-398z" />
<glyph unicode="&#xbd;" horiz-adv-x="1939" d="M94 590l39 223h143v358h-170l39 222h422v-580h170l-39 -223h-604zM403 0l826 1393h323l-825 -1393h-324zM1214 0v164q0 121 41.5 189t147.5 102l117 39q37 11 47 22.5t10 36.5q0 29 -14.5 40t-55.5 11q-201 0 -272 -4l33 199q129 6 268 6q161 0 236 -53t75 -174v-27 q0 -88 -39 -137.5t-137 -81.5l-112 -35q-42 -14 -57 -30t-15 -50v-12h366l-34 -205h-605z" />
<glyph unicode="&#xbe;" horiz-adv-x="1939" d="M74 592l37 199q108 -3 272 -3q40 0 56 11.5t16 42.5v10q0 30 -15.5 41.5t-56.5 11.5h-240l33 187h197q42 0 57.5 10t15.5 39v10q0 29 -15.5 38t-57.5 9q-111 0 -275 -4l37 201q82 2 299 2q148 0 215.5 -50.5t67.5 -156.5v-10q0 -66 -21 -103.5t-71 -60.5 q112 -46 112 -178v-19q0 -116 -70 -172.5t-241 -56.5q-19 0 -180.5 1t-171.5 1zM436 0l826 1393h323l-825 -1393h-324zM1169 139v193l240 471h264l-250 -461h144v162l245 35v-197h99l-39 -203h-60v-139h-245v139h-398z" />
<glyph unicode="&#xbf;" horiz-adv-x="987" d="M33 -4v22q0 140 46.5 221t156.5 132l92 43q53 24 76 40.5t35 46.5t12 85v32h362v-32q0 -120 -21 -193t-68 -120t-136 -87l-90 -41q-48 -24 -64 -47.5t-16 -72.5q0 -68 28.5 -92.5t112.5 -24.5q311 0 418 4l-55 -307q-109 -4 -422 -4q-246 0 -356.5 95t-110.5 300z M428 905q0 185 205 185t205 -185q0 -90 -47.5 -137t-157.5 -47t-157.5 47t-47.5 137z" />
<glyph unicode="&#xc0;" horiz-adv-x="1533" d="M16 0l510 1458h480l512 -1458h-418l-101 319h-485l-98 -319h-400zM356 1868h404l233 -287h-342zM602 625h307l-153 493z" />
<glyph unicode="&#xc1;" horiz-adv-x="1533" d="M16 0l510 1458h480l512 -1458h-418l-101 319h-485l-98 -319h-400zM555 1581l233 287h404l-295 -287h-342zM602 625h307l-153 493z" />
<glyph unicode="&#xc2;" horiz-adv-x="1533" d="M16 0l510 1458h480l512 -1458h-418l-101 319h-485l-98 -319h-400zM317 1581l256 287h385l256 -287h-329l-119 129l-119 -129h-330zM602 625h307l-153 493z" />
<glyph unicode="&#xc3;" horiz-adv-x="1533" d="M16 0l510 1458h480l512 -1458h-418l-101 319h-485l-98 -319h-400zM358 1563v18q0 165 54.5 237t162.5 72q90 0 195 -51l18 -8q48 -22 68 -28.5t45 -6.5q26 0 39 14.5t14 55.5v16h220v-16q0 -163 -55 -236.5t-163 -73.5q-73 0 -194 52l-19 8q-80 35 -112 35 q-27 0 -40 -13.5t-13 -56.5v-18h-220zM602 625h307l-153 493z" />
<glyph unicode="&#xc4;" horiz-adv-x="1533" d="M16 0l510 1458h480l512 -1458h-418l-101 319h-485l-98 -319h-400zM352 1720q0 162 180 162q185 0 185 -162q0 -161 -185 -161q-180 0 -180 161zM602 625h307l-153 493zM817 1720q0 162 182 162q183 0 183 -162q0 -161 -183 -161q-96 0 -139 41.5t-43 119.5z" />
<glyph unicode="&#xc5;" horiz-adv-x="1533" d="M16 0l490 1403q-45 62 -45 168q0 134 79 205t222 71t223 -71.5t80 -204.5q0 -98 -43 -162l496 -1409h-418l-101 319h-485l-98 -319h-400zM602 625h307l-153 493zM657 1571q0 -48 28 -77.5t77 -29.5t76.5 29.5t27.5 77.5t-27.5 77t-76.5 29t-77 -29t-28 -77z" />
<glyph unicode="&#xc6;" horiz-adv-x="2156" d="M10 0l772 1458h1321l-59 -315h-655v-246h641l-60 -315h-581v-267h727l-60 -315h-1052v344h-406l-168 -344h-420zM739 649h265v492h-25z" />
<glyph unicode="&#xc7;" horiz-adv-x="1224" d="M82 639v182q0 349 155 495t523 146q250 0 399 -4l-61 -336q-87 4 -312 4q-94 0 -148.5 -12.5t-88 -48.5t-44.5 -91.5t-11 -152.5v-184q0 -96 11.5 -152t46 -92t89 -48.5t147.5 -12.5q238 0 383 4l-61 -336q-123 -4 -348 -4q-190 0 -316 32t-209 108.5t-119 198t-36 304.5 zM418 -483l35 170q110 -4 157 -4q39 0 52.5 9t13.5 38q0 26 -14 35.5t-52 9.5q-72 0 -127 -2l35 153q48 4 176 4q138 0 192 -44t54 -150v-12q0 -118 -60 -165.5t-208 -47.5q-156 0 -254 6z" />
<glyph unicode="&#xc8;" horiz-adv-x="1255" d="M102 0v1458h1100l-59 -315h-656v-246h641l-59 -315h-582v-267h727l-59 -315h-1053zM272 1868h404l233 -287h-342z" />
<glyph unicode="&#xc9;" horiz-adv-x="1255" d="M102 0v1458h1100l-59 -315h-656v-246h641l-59 -315h-582v-267h727l-59 -315h-1053zM410 1581l233 287h404l-295 -287h-342z" />
<glyph unicode="&#xca;" horiz-adv-x="1255" d="M102 0v1458h1100l-59 -315h-656v-246h641l-59 -315h-582v-267h727l-59 -315h-1053zM190 1581l256 287h385l256 -287h-329l-119 129l-119 -129h-330z" />
<glyph unicode="&#xcb;" horiz-adv-x="1255" d="M102 0v1458h1100l-59 -315h-656v-246h641l-59 -315h-582v-267h727l-59 -315h-1053zM221 1720q0 162 180 162q185 0 185 -162q0 -161 -185 -161q-180 0 -180 161zM686 1720q0 162 182 162q183 0 183 -162q0 -161 -183 -161q-96 0 -139 41.5t-43 119.5z" />
<glyph unicode="&#xcc;" horiz-adv-x="604" d="M-96 1868h403l234 -287h-342zM102 0v1458h400v-1458h-400z" />
<glyph unicode="&#xcd;" horiz-adv-x="604" d="M90 1581l234 287h403l-295 -287h-342zM102 0v1458h400v-1458h-400z" />
<glyph unicode="&#xce;" horiz-adv-x="604" d="M-145 1581l256 287h385l256 -287h-330l-119 129l-119 -129h-329zM102 0v1458h400v-1458h-400z" />
<glyph unicode="&#xcf;" horiz-adv-x="604" d="M-111 1720q0 162 181 162q184 0 184 -162q0 -161 -184 -161q-181 0 -181 161zM102 0v1458h400v-1458h-400zM354 1720q0 162 183 162q182 0 182 -162q0 -161 -182 -161q-183 0 -183 161z" />
<glyph unicode="&#xd0;" horiz-adv-x="1544" d="M31 604v266h139v588h639q154 0 265.5 -25.5t186.5 -74t119.5 -127.5t63 -177.5t18.5 -232.5v-182q0 -161 -31 -275t-103.5 -198t-198.5 -125t-310 -41h-649v604h-139zM561 336h207q110 0 168.5 25t86.5 91t28 191v174q0 124 -28 189.5t-86.5 90.5t-168.5 25h-207v-252 h248v-266h-248v-268z" />
<glyph unicode="&#xd1;" horiz-adv-x="1495" d="M102 0v1458h320l592 -831v831h379v-1458h-326l-586 817v-817h-379zM350 1563v18q0 165 54.5 237t162.5 72q90 0 195 -51l18 -8q48 -22 68 -28.5t45 -6.5q26 0 39 14.5t14 55.5v16h219v-16q0 -163 -54.5 -236.5t-162.5 -73.5q-73 0 -194 52l-19 8q-80 35 -112 35 q-27 0 -40.5 -13.5t-13.5 -56.5v-18h-219z" />
<glyph unicode="&#xd2;" horiz-adv-x="1531" d="M82 618v226q0 176 34.5 296.5t115 202.5t211 119t323.5 37q192 0 321.5 -36.5t210.5 -117.5t116.5 -202t35.5 -299v-226q0 -176 -34.5 -296.5t-115 -202.5t-211 -119t-323.5 -37q-256 0 -405 67.5t-214 208.5t-65 379zM358 1868h404l233 -287h-342zM494 621 q0 -69 4.5 -116.5t17 -85.5t31.5 -60t50.5 -36.5t71.5 -20t97 -5.5q87 0 136.5 12.5t81 50t42 97.5t10.5 164v221q0 104 -10.5 163.5t-42 97t-81.5 50t-136 12.5q-58 0 -97.5 -5t-71 -19.5t-50.5 -37t-31.5 -60t-17 -85t-4.5 -116.5v-221z" />
<glyph unicode="&#xd3;" horiz-adv-x="1531" d="M82 618v226q0 176 34.5 296.5t115 202.5t211 119t323.5 37q192 0 321.5 -36.5t210.5 -117.5t116.5 -202t35.5 -299v-226q0 -176 -34.5 -296.5t-115 -202.5t-211 -119t-323.5 -37q-256 0 -405 67.5t-214 208.5t-65 379zM494 621q0 -69 4.5 -116.5t17 -85.5t31.5 -60 t50.5 -36.5t71.5 -20t97 -5.5q87 0 136.5 12.5t81 50t42 97.5t10.5 164v221q0 104 -10.5 163.5t-42 97t-81.5 50t-136 12.5q-58 0 -97.5 -5t-71 -19.5t-50.5 -37t-31.5 -60t-17 -85t-4.5 -116.5v-221zM510 1581l233 287h404l-295 -287h-342z" />
<glyph unicode="&#xd4;" horiz-adv-x="1531" d="M82 618v226q0 176 34.5 296.5t115 202.5t211 119t323.5 37q192 0 321.5 -36.5t210.5 -117.5t116.5 -202t35.5 -299v-226q0 -176 -34.5 -296.5t-115 -202.5t-211 -119t-323.5 -37q-256 0 -405 67.5t-214 208.5t-65 379zM317 1581l256 287h385l256 -287h-329l-119 129 l-119 -129h-330zM494 621q0 -69 4.5 -116.5t17 -85.5t31.5 -60t50.5 -36.5t71.5 -20t97 -5.5q87 0 136.5 12.5t81 50t42 97.5t10.5 164v221q0 104 -10.5 163.5t-42 97t-81.5 50t-136 12.5q-58 0 -97.5 -5t-71 -19.5t-50.5 -37t-31.5 -60t-17 -85t-4.5 -116.5v-221z" />
<glyph unicode="&#xd5;" horiz-adv-x="1531" d="M82 618v226q0 176 34.5 296.5t115 202.5t211 119t323.5 37q192 0 321.5 -36.5t210.5 -117.5t116.5 -202t35.5 -299v-226q0 -176 -34.5 -296.5t-115 -202.5t-211 -119t-323.5 -37q-256 0 -405 67.5t-214 208.5t-65 379zM358 1563v18q0 165 54.5 237t162.5 72q90 0 195 -51 l18 -8q48 -22 68 -28.5t45 -6.5q26 0 39 14.5t14 55.5v16h220v-16q0 -163 -55 -236.5t-163 -73.5q-73 0 -194 52l-19 8q-80 35 -112 35q-27 0 -40 -13.5t-13 -56.5v-18h-220zM494 621q0 -69 4.5 -116.5t17 -85.5t31.5 -60t50.5 -36.5t71.5 -20t97 -5.5q87 0 136.5 12.5 t81 50t42 97.5t10.5 164v221q0 104 -10.5 163.5t-42 97t-81.5 50t-136 12.5q-58 0 -97.5 -5t-71 -19.5t-50.5 -37t-31.5 -60t-17 -85t-4.5 -116.5v-221z" />
<glyph unicode="&#xd6;" horiz-adv-x="1531" d="M82 618v226q0 176 34.5 296.5t115 202.5t211 119t323.5 37q192 0 321.5 -36.5t210.5 -117.5t116.5 -202t35.5 -299v-226q0 -176 -34.5 -296.5t-115 -202.5t-211 -119t-323.5 -37q-256 0 -405 67.5t-214 208.5t-65 379zM352 1720q0 162 180 162q185 0 185 -162 q0 -161 -185 -161q-180 0 -180 161zM494 621q0 -69 4.5 -116.5t17 -85.5t31.5 -60t50.5 -36.5t71.5 -20t97 -5.5q87 0 136.5 12.5t81 50t42 97.5t10.5 164v221q0 104 -10.5 163.5t-42 97t-81.5 50t-136 12.5q-58 0 -97.5 -5t-71 -19.5t-50.5 -37t-31.5 -60t-17 -85 t-4.5 -116.5v-221zM817 1720q0 162 182 162q183 0 183 -162q0 -161 -183 -161q-96 0 -139 41.5t-43 119.5z" />
<glyph unicode="&#xd7;" d="M106 432l271 273l-260 262l229 229l264 -262l260 260l232 -229l-262 -263l270 -268l-231 -231l-269 270l-272 -272z" />
<glyph unicode="&#xd8;" horiz-adv-x="1531" d="M82 618v226q0 176 34.5 296.5t115 202.5t211 119t323.5 37q139 0 258 -22l88 168h254l-131 -250q114 -73 164.5 -207.5t50.5 -343.5v-226q0 -176 -34.5 -296.5t-115 -202.5t-211 -119t-323.5 -37q-149 0 -268 25l-90 -172h-254l133 254q-109 77 -157 209t-48 339z M494 621q0 -90 8 -142l356 680q-41 6 -92 6q-58 0 -97.5 -5t-71 -19.5t-50.5 -37t-31.5 -60t-17 -85t-4.5 -116.5v-221zM664 303q44 -6 102 -6q87 0 136.5 12.5t81 50t42 97.5t10.5 164v221q0 85 -10 153z" />
<glyph unicode="&#xd9;" horiz-adv-x="1466" d="M98 575v883h398v-885q0 -160 48 -218t189 -58t189.5 58t48.5 218v885h397v-883q0 -133 -20.5 -231t-66 -172t-120 -119t-180 -67.5t-248.5 -22.5t-248.5 22.5t-180 67.5t-120 119t-66 172t-20.5 231zM360 1868h404l233 -287h-342z" />
<glyph unicode="&#xda;" horiz-adv-x="1466" d="M98 575v883h398v-885q0 -160 48 -218t189 -58t189.5 58t48.5 218v885h397v-883q0 -133 -20.5 -231t-66 -172t-120 -119t-180 -67.5t-248.5 -22.5t-248.5 22.5t-180 67.5t-120 119t-66 172t-20.5 231zM485 1581l234 287h403l-295 -287h-342z" />
<glyph unicode="&#xdb;" horiz-adv-x="1466" d="M98 575v883h398v-885q0 -160 48 -218t189 -58t189.5 58t48.5 218v885h397v-883q0 -133 -20.5 -231t-66 -172t-120 -119t-180 -67.5t-248.5 -22.5t-248.5 22.5t-180 67.5t-120 119t-66 172t-20.5 231zM283 1581l256 287h385l256 -287h-330l-119 129l-119 -129h-329z" />
<glyph unicode="&#xdc;" horiz-adv-x="1466" d="M98 575v883h398v-885q0 -160 48 -218t189 -58t189.5 58t48.5 218v885h397v-883q0 -133 -20.5 -231t-66 -172t-120 -119t-180 -67.5t-248.5 -22.5t-248.5 22.5t-180 67.5t-120 119t-66 172t-20.5 231zM317 1720q0 162 181 162q184 0 184 -162q0 -161 -184 -161 q-181 0 -181 161zM782 1720q0 162 183 162q182 0 182 -162q0 -161 -182 -161q-183 0 -183 161z" />
<glyph unicode="&#xdd;" horiz-adv-x="1439" d="M10 1458h441l276 -555l270 555h433l-510 -874v-584h-396v580zM471 1581l234 287h403l-295 -287h-342z" />
<glyph unicode="&#xde;" horiz-adv-x="1339" d="M102 0v1458h392v-219h217q316 0 450.5 -107.5t134.5 -355.5v-82q0 -235 -139 -350t-450 -115h-205v-229h-400zM502 547h182q123 0 168 36t45 138v27q0 100 -45.5 137t-167.5 37h-182v-375z" />
<glyph unicode="&#xdf;" horiz-adv-x="1273" d="M88 0v1010q0 281 132 403.5t433 122.5q506 0 506 -393v-17q0 -204 -162 -290q224 -73 224 -369v-33q0 -222 -118.5 -329t-387.5 -107q-9 0 -86 1t-82 1l53 291q25 -2 72 -2q89 0 126.5 36.5t37.5 133.5v22q0 91 -41 128.5t-144 37.5h-94l41 291h33q83 0 116 30t33 111v21 q0 77 -38 111t-117 34q-87 0 -120.5 -44t-33.5 -154v-1047h-383z" />
<glyph unicode="&#xe0;" horiz-adv-x="1179" d="M55 324v34q0 166 99 246t309 80q169 0 262 -49v20q0 81 -35 115.5t-141 34.5q-279 0 -399 -4l53 276q160 4 379 4q264 0 387 -92.5t123 -314.5v-445q0 -128 -57 -178.5t-189 -50.5h-385q-115 0 -195 22.5t-125.5 66.5t-65.5 101t-20 134zM240 1516h399l223 -293h-344z M422 342q0 -50 30 -72t99 -22h172v102q0 62 -29.5 86.5t-113.5 24.5h-25q-75 0 -104 -21t-29 -75v-23z" />
<glyph unicode="&#xe1;" horiz-adv-x="1179" d="M55 324v34q0 166 99 246t309 80q169 0 262 -49v20q0 81 -35 115.5t-141 34.5q-279 0 -399 -4l53 276q160 4 379 4q264 0 387 -92.5t123 -314.5v-445q0 -128 -57 -178.5t-189 -50.5h-385q-115 0 -195 22.5t-125.5 66.5t-65.5 101t-20 134zM393 1223l223 293h402l-281 -293 h-344zM422 342q0 -50 30 -72t99 -22h172v102q0 62 -29.5 86.5t-113.5 24.5h-25q-75 0 -104 -21t-29 -75v-23z" />
<glyph unicode="&#xe2;" horiz-adv-x="1179" d="M55 324v34q0 166 99 246t309 80q169 0 262 -49v20q0 81 -35 115.5t-141 34.5q-279 0 -399 -4l53 276q160 4 379 4q264 0 387 -92.5t123 -314.5v-445q0 -128 -57 -178.5t-189 -50.5h-385q-115 0 -195 22.5t-125.5 66.5t-65.5 101t-20 134zM172 1223l242 299h364l238 -299 h-314l-110 135l-107 -135h-313zM422 342q0 -50 30 -72t99 -22h172v102q0 62 -29.5 86.5t-113.5 24.5h-25q-75 0 -104 -21t-29 -75v-23z" />
<glyph unicode="&#xe3;" horiz-adv-x="1179" d="M55 324v34q0 166 99 246t309 80q169 0 262 -49v20q0 81 -35 115.5t-141 34.5q-279 0 -399 -4l53 276q160 4 379 4q264 0 387 -92.5t123 -314.5v-445q0 -128 -57 -178.5t-189 -50.5h-385q-115 0 -195 22.5t-125.5 66.5t-65.5 101t-20 134zM203 1212v17q0 162 54.5 232.5 t164.5 70.5q84 0 186 -51l27 -13q56 -30 96 -30q55 0 55 69v15h218v-17q0 -161 -56 -231t-166 -70q-84 0 -184 49l-29 15q-53 30 -94 30q-27 0 -41 -15t-14 -54v-17h-217zM422 342q0 -50 30 -72t99 -22h172v102q0 62 -29.5 86.5t-113.5 24.5h-25q-75 0 -104 -21t-29 -75v-23 z" />
<glyph unicode="&#xe4;" horiz-adv-x="1179" d="M55 324v34q0 166 99 246t309 80q169 0 262 -49v20q0 81 -35 115.5t-141 34.5q-279 0 -399 -4l53 276q160 4 379 4q264 0 387 -92.5t123 -314.5v-445q0 -128 -57 -178.5t-189 -50.5h-385q-115 0 -195 22.5t-125.5 66.5t-65.5 101t-20 134zM193 1354q0 77 41.5 117 t136.5 40t137.5 -40t42.5 -117q0 -158 -180 -158q-95 0 -136.5 40.5t-41.5 117.5zM422 342q0 -50 30 -72t99 -22h172v102q0 62 -29.5 86.5t-113.5 24.5h-25q-75 0 -104 -21t-29 -75v-23zM643 1354q0 77 41.5 117t136.5 40q183 0 183 -157q0 -158 -183 -158 q-95 0 -136.5 40.5t-41.5 117.5z" />
<glyph unicode="&#xe5;" horiz-adv-x="1179" d="M55 324v34q0 166 99 246t309 80q169 0 262 -49v20q0 81 -35 115.5t-141 34.5q-279 0 -399 -4l53 276q160 4 379 4q264 0 387 -92.5t123 -314.5v-445q0 -128 -57 -178.5t-189 -50.5h-385q-115 0 -195 22.5t-125.5 66.5t-65.5 101t-20 134zM311 1419q0 123 74.5 189.5 t206.5 66.5t207 -66.5t75 -189.5t-75 -189.5t-207 -66.5t-206.5 66.5t-74.5 189.5zM422 342q0 -50 30 -72t99 -22h172v102q0 62 -29.5 86.5t-113.5 24.5h-25q-75 0 -104 -21t-29 -75v-23zM498 1419q0 -96 94 -96q50 0 72 23t22 73q0 49 -22 73t-72 24q-94 0 -94 -97z" />
<glyph unicode="&#xe6;" horiz-adv-x="1783" d="M55 332v20q0 172 100 249t296 77h264q0 70 -40 98.5t-143 28.5q-292 0 -382 -4l53 276q148 4 358 4q123 0 201 -20.5t123 -71.5q103 121 342 121q255 0 374 -101t119 -313v-45q0 -131 -40 -180t-156 -49h-451q1 -85 41 -115.5t146 -30.5q289 0 405 5l-51 -281 q-242 -4 -406 -4q-120 0 -197 22.5t-126 79.5q-89 -102 -287 -102h-133q-223 0 -316.5 80t-93.5 256zM422 338q0 -50 29.5 -72t93.5 -22h14q90 0 124 30.5t34 116.5v64h-176q-66 0 -92.5 -22t-26.5 -77v-18zM1073 659h307q-1 108 -33.5 145.5t-119.5 37.5 q-89 0 -121.5 -37.5t-32.5 -145.5z" />
<glyph unicode="&#xe7;" horiz-adv-x="1011" d="M74 483v111q0 263 123 375t421 112q210 0 334 -4l-55 -297q-123 4 -258 4q-108 0 -143 -36.5t-35 -153.5v-111q0 -116 35 -153t143 -37q125 0 317 4l-55 -297q-87 -4 -276 -4q-158 0 -262.5 26t-169.5 86t-92 150t-27 225zM303 -483l35 166q63 -2 145 -2q39 0 52.5 10 t13.5 39q0 27 -14.5 38t-51.5 11q-57 0 -112 -2l30 149q78 4 154 4q136 0 192 -43.5t56 -148.5v-14q0 -118 -60.5 -165.5t-210.5 -47.5q-147 0 -229 6z" />
<glyph unicode="&#xe8;" horiz-adv-x="1153" d="M74 483v113q0 270 122 392t400 122q256 0 375 -101t119 -313v-45q0 -130 -40.5 -179.5t-156.5 -49.5h-451q1 -85 41 -115.5t146 -30.5q304 0 405 5l-51 -281q-246 -4 -393 -4q-285 0 -400.5 112.5t-115.5 374.5zM215 1516h399l224 -293h-344zM442 659h308 q-1 108 -34 145.5t-120 37.5q-89 0 -121.5 -37.5t-32.5 -145.5z" />
<glyph unicode="&#xe9;" horiz-adv-x="1153" d="M74 483v113q0 270 122 392t400 122q256 0 375 -101t119 -313v-45q0 -130 -40.5 -179.5t-156.5 -49.5h-451q1 -85 41 -115.5t146 -30.5q304 0 405 5l-51 -281q-246 -4 -393 -4q-285 0 -400.5 112.5t-115.5 374.5zM313 1223l224 293h401l-281 -293h-344zM442 659h308 q-1 108 -34 145.5t-120 37.5q-89 0 -121.5 -37.5t-32.5 -145.5z" />
<glyph unicode="&#xea;" horiz-adv-x="1153" d="M74 483v113q0 270 122 392t400 122q256 0 375 -101t119 -313v-45q0 -130 -40.5 -179.5t-156.5 -49.5h-451q1 -85 41 -115.5t146 -30.5q304 0 405 5l-51 -281q-246 -4 -393 -4q-285 0 -400.5 112.5t-115.5 374.5zM164 1223l242 299h364l238 -299h-314l-110 135l-107 -135 h-313zM442 659h308q-1 108 -34 145.5t-120 37.5q-89 0 -121.5 -37.5t-32.5 -145.5z" />
<glyph unicode="&#xeb;" horiz-adv-x="1153" d="M74 483v113q0 270 122 392t400 122q256 0 375 -101t119 -313v-45q0 -130 -40.5 -179.5t-156.5 -49.5h-451q1 -85 41 -115.5t146 -30.5q304 0 405 5l-51 -281q-246 -4 -393 -4q-285 0 -400.5 112.5t-115.5 374.5zM178 1354q0 77 41.5 117t136.5 40q181 0 181 -157 q0 -158 -181 -158q-95 0 -136.5 40.5t-41.5 117.5zM442 659h308q-1 108 -34 145.5t-120 37.5q-89 0 -121.5 -37.5t-32.5 -145.5zM629 1354q0 77 41.5 117t136.5 40q182 0 182 -157q0 -158 -182 -158q-95 0 -136.5 40.5t-41.5 117.5z" />
<glyph unicode="&#xec;" horiz-adv-x="559" d="M-125 1516h399l224 -293h-344zM88 0v1077h383v-1077h-383z" />
<glyph unicode="&#xed;" horiz-adv-x="559" d="M70 1223l223 293h401l-280 -293h-344zM88 0v1077h383v-1077h-383z" />
<glyph unicode="&#xee;" horiz-adv-x="559" d="M-141 1223l241 299h365l237 -299h-313l-110 135l-107 -135h-313zM88 0v1077h383v-1077h-383z" />
<glyph unicode="&#xef;" horiz-adv-x="559" d="M-125 1354q0 77 41.5 117t136.5 40t137.5 -40t42.5 -117q0 -158 -180 -158q-95 0 -136.5 40.5t-41.5 117.5zM88 0v1077h383v-1077h-383zM326 1354q0 77 41.5 117t136.5 40q182 0 182 -157q0 -158 -182 -158q-95 0 -136.5 40.5t-41.5 117.5z" />
<glyph unicode="&#xf0;" horiz-adv-x="1249" d="M74 432v98q0 127 32 217t94.5 142t145.5 75t195 23q149 0 229 -45q-20 96 -70 172l-180 -80l-69 156l120 55q-26 20 -114 72l243 254q151 -99 220 -168l137 61l73 -159l-98 -45q131 -216 131 -582v-246q0 -169 -49.5 -268t-168.5 -148t-327 -49t-327 49t-168 148t-49 268 zM461 432q0 -103 29.5 -135.5t127.5 -32.5t128 32.5t30 135.5v105q0 93 -31.5 123t-126.5 30q-94 0 -125.5 -32t-31.5 -136v-90z" />
<glyph unicode="&#xf1;" horiz-adv-x="1224" d="M88 0v676q0 125 28 207.5t92.5 133.5t161 72t242.5 21t242.5 -21t161.5 -72t93 -133.5t28 -207.5v-676h-383v662q0 78 -28.5 109.5t-113.5 31.5q-87 0 -114 -30t-27 -111v-662h-383zM213 1212v17q0 162 54.5 232.5t164.5 70.5q84 0 186 -51l27 -13q56 -30 96 -30 q56 0 56 69v15h217v-17q0 -162 -55.5 -231.5t-165.5 -69.5q-85 0 -185 49l-28 15q-53 30 -95 30q-27 0 -41 -15t-14 -54v-17h-217z" />
<glyph unicode="&#xf2;" horiz-adv-x="1236" d="M74 483v111q0 148 28.5 245.5t95 158.5t167.5 86.5t253 25.5t253 -25.5t168 -86t95.5 -158.5t28.5 -246v-111q0 -147 -29 -245t-95.5 -159t-167.5 -86.5t-253 -25.5t-253 25.5t-167.5 86.5t-95 158.5t-28.5 245.5zM240 1516h399l223 -293h-344zM461 469q0 -88 14.5 -131 t46 -58.5t96.5 -15.5q95 0 126.5 38.5t31.5 166.5v139q0 128 -31.5 166.5t-126.5 38.5q-65 0 -96.5 -15.5t-46 -58.5t-14.5 -131v-139z" />
<glyph unicode="&#xf3;" horiz-adv-x="1236" d="M74 483v111q0 148 28.5 245.5t95 158.5t167.5 86.5t253 25.5t253 -25.5t168 -86t95.5 -158.5t28.5 -246v-111q0 -147 -29 -245t-95.5 -159t-167.5 -86.5t-253 -25.5t-253 25.5t-167.5 86.5t-95 158.5t-28.5 245.5zM375 1223l223 293h401l-280 -293h-344zM461 469 q0 -88 14.5 -131t46 -58.5t96.5 -15.5q95 0 126.5 38.5t31.5 166.5v139q0 128 -31.5 166.5t-126.5 38.5q-65 0 -96.5 -15.5t-46 -58.5t-14.5 -131v-139z" />
<glyph unicode="&#xf4;" horiz-adv-x="1236" d="M74 483v111q0 148 28.5 245.5t95 158.5t167.5 86.5t253 25.5t253 -25.5t168 -86t95.5 -158.5t28.5 -246v-111q0 -147 -29 -245t-95.5 -159t-167.5 -86.5t-253 -25.5t-253 25.5t-167.5 86.5t-95 158.5t-28.5 245.5zM197 1223l241 299h365l237 -299h-313l-111 135 l-106 -135h-313zM461 469q0 -88 14.5 -131t46 -58.5t96.5 -15.5q95 0 126.5 38.5t31.5 166.5v139q0 128 -31.5 166.5t-126.5 38.5q-65 0 -96.5 -15.5t-46 -58.5t-14.5 -131v-139z" />
<glyph unicode="&#xf5;" horiz-adv-x="1236" d="M74 483v111q0 148 28.5 245.5t95 158.5t167.5 86.5t253 25.5t253 -25.5t168 -86t95.5 -158.5t28.5 -246v-111q0 -147 -29 -245t-95.5 -159t-167.5 -86.5t-253 -25.5t-253 25.5t-167.5 86.5t-95 158.5t-28.5 245.5zM219 1212v17q0 162 54.5 232.5t164.5 70.5q85 0 187 -51 l26 -13q56 -30 97 -30q55 0 55 69v15h217v-17q0 -162 -55.5 -231.5t-165.5 -69.5q-85 0 -185 49l-28 15q-53 30 -94 30q-27 0 -41.5 -15t-14.5 -54v-17h-217zM461 469q0 -88 14.5 -131t46 -58.5t96.5 -15.5q95 0 126.5 38.5t31.5 166.5v139q0 128 -31.5 166.5t-126.5 38.5 q-65 0 -96.5 -15.5t-46 -58.5t-14.5 -131v-139z" />
<glyph unicode="&#xf6;" horiz-adv-x="1236" d="M74 483v111q0 148 28.5 245.5t95 158.5t167.5 86.5t253 25.5t253 -25.5t168 -86t95.5 -158.5t28.5 -246v-111q0 -147 -29 -245t-95.5 -159t-167.5 -86.5t-253 -25.5t-253 25.5t-167.5 86.5t-95 158.5t-28.5 245.5zM215 1354q0 77 41.5 117t136.5 40t137.5 -40t42.5 -117 q0 -158 -180 -158q-95 0 -136.5 40.5t-41.5 117.5zM461 469q0 -88 14.5 -131t46 -58.5t96.5 -15.5q95 0 126.5 38.5t31.5 166.5v139q0 128 -31.5 166.5t-126.5 38.5q-65 0 -96.5 -15.5t-46 -58.5t-14.5 -131v-139zM666 1354q0 77 41.5 117t136.5 40q182 0 182 -157 q0 -158 -182 -158q-95 0 -136.5 40.5t-41.5 117.5z" />
<glyph unicode="&#xf7;" d="M135 543v311h948v-311h-948zM420 303q0 164 190 164q191 0 191 -164q0 -168 -191 -168q-190 0 -190 168zM420 1098q0 164 190 164q191 0 191 -164q0 -168 -191 -168q-190 0 -190 168z" />
<glyph unicode="&#xf8;" horiz-adv-x="1236" d="M74 483v111q0 148 28.5 245.5t95 158.5t167.5 86.5t253 25.5q128 0 222 -18l71 120h205l-110 -188q84 -56 120.5 -159t36.5 -271v-111q0 -147 -29 -245t-95.5 -159t-167.5 -86.5t-253 -25.5q-123 0 -223 19l-69 -119h-205l108 184q-83 59 -119 161.5t-36 270.5zM446 422 l236 399q-36 4 -64 4q-102 0 -137 -41t-35 -172v-190zM553 256q12 -4 65 -4q102 0 137.5 41t35.5 172v192z" />
<glyph unicode="&#xf9;" horiz-adv-x="1222" d="M88 403v674h383v-661q0 -79 27.5 -110.5t111.5 -31.5t113 31.5t29 110.5v661h383v-674q0 -126 -28.5 -209t-93.5 -134t-161.5 -72t-241.5 -21t-240.5 21t-160.5 72t-93 134t-28 209zM233 1516h400l223 -293h-344z" />
<glyph unicode="&#xfa;" horiz-adv-x="1222" d="M88 403v674h383v-661q0 -79 27.5 -110.5t111.5 -31.5t113 31.5t29 110.5v661h383v-674q0 -126 -28.5 -209t-93.5 -134t-161.5 -72t-241.5 -21t-240.5 21t-160.5 72t-93 134t-28 209zM362 1223l224 293h401l-280 -293h-345z" />
<glyph unicode="&#xfb;" horiz-adv-x="1222" d="M88 403v674h383v-661q0 -79 27.5 -110.5t111.5 -31.5t113 31.5t29 110.5v661h383v-674q0 -126 -28.5 -209t-93.5 -134t-161.5 -72t-241.5 -21t-240.5 21t-160.5 72t-93 134t-28 209zM190 1223l242 299h365l237 -299h-313l-111 135l-106 -135h-314z" />
<glyph unicode="&#xfc;" horiz-adv-x="1222" d="M88 403v674h383v-661q0 -79 27.5 -110.5t111.5 -31.5t113 31.5t29 110.5v661h383v-674q0 -126 -28.5 -209t-93.5 -134t-161.5 -72t-241.5 -21t-240.5 21t-160.5 72t-93 134t-28 209zM207 1354q0 77 41.5 117t136.5 40t137.5 -40t42.5 -117q0 -158 -180 -158 q-95 0 -136.5 40.5t-41.5 117.5zM657 1354q0 77 42 117t137 40q182 0 182 -157q0 -158 -182 -158q-95 0 -137 40.5t-42 117.5z" />
<glyph unicode="&#xfd;" horiz-adv-x="1222" d="M88 420v657h383v-575q0 -79 26 -109.5t107 -30.5q87 0 117.5 30.5t30.5 115.5v569h383v-991q0 -120 -27.5 -202.5t-91.5 -138.5t-168.5 -81.5t-259.5 -25.5q-250 0 -434 4l53 284q153 -4 346 -4q113 0 157 36.5t44 137.5v10q-88 -51 -260 -51q-205 0 -305.5 87 t-100.5 278zM383 1223l223 293h402l-281 -293h-344z" />
<glyph unicode="&#xfe;" horiz-adv-x="1245" d="M88 -358v1880h383v-469q86 55 242 55q113 0 195 -26t142.5 -85t90.5 -160t30 -245v-107q0 -147 -30.5 -248.5t-92.5 -160.5t-146.5 -85t-203.5 -26q-140 0 -227 49v-372h-383zM471 459q0 -118 33.5 -157.5t124.5 -39.5q94 0 124.5 40t30.5 169v131q0 129 -30.5 169 t-122.5 40q-95 0 -127.5 -38.5t-32.5 -154.5v-159z" />
<glyph unicode="&#xff;" horiz-adv-x="1222" d="M88 420v657h383v-575q0 -79 26 -109.5t107 -30.5q87 0 117.5 30.5t30.5 115.5v569h383v-991q0 -120 -27.5 -202.5t-91.5 -138.5t-168.5 -81.5t-259.5 -25.5q-250 0 -434 4l53 284q153 -4 346 -4q113 0 157 36.5t44 137.5v10q-88 -51 -260 -51q-205 0 -305.5 87 t-100.5 278zM215 1354q0 77 41.5 117t136.5 40t137.5 -40t42.5 -117q0 -158 -180 -158q-95 0 -136.5 40.5t-41.5 117.5zM666 1354q0 77 41.5 117t136.5 40q182 0 182 -157q0 -158 -182 -158q-95 0 -136.5 40.5t-41.5 117.5z" />
<glyph unicode="&#x152;" horiz-adv-x="2103" d="M82 639v180q0 158 30 271t101.5 198.5t197.5 127.5t310 42h1329l-59 -315h-656v-246h641l-59 -315h-582v-267h727l-59 -315h-1274q-152 0 -262.5 25.5t-184.5 74.5t-118.5 128t-63 178t-18.5 233zM494 635q0 -97 11.5 -153t44 -90.5t82.5 -46t136 -11.5h182v790h-182 q-115 0 -170.5 -23.5t-79.5 -87t-24 -194.5v-184z" />
<glyph unicode="&#x153;" horiz-adv-x="1867" d="M74 485v109q0 194 53.5 306t168 161t310.5 49q262 0 371 -104q104 104 334 104q255 0 374 -101t119 -313v-45q0 -131 -40 -180t-156 -49h-451q1 -85 41 -115.5t145 -30.5q290 0 406 5l-51 -281q-242 -4 -404 -4q-112 0 -185 19.5t-128 66.5q-56 -61 -147 -88t-228 -27 q-291 0 -411.5 115.5t-120.5 402.5zM461 469q0 -88 14.5 -131t46 -58.5t96.5 -15.5q98 0 128 39.5t30 167.5v135q0 128 -30 167.5t-128 39.5q-65 0 -96.5 -15.5t-46 -58.5t-14.5 -131v-139zM1157 659h307q-1 108 -33.5 145.5t-119.5 37.5q-89 0 -121.5 -37.5t-32.5 -145.5z " />
<glyph unicode="&#x178;" horiz-adv-x="1439" d="M10 1458h441l276 -555l270 555h433l-510 -874v-584h-396v580zM305 1720q0 162 180 162q185 0 185 -162q0 -161 -185 -161q-180 0 -180 161zM770 1720q0 162 182 162q183 0 183 -162q0 -161 -183 -161q-96 0 -139 41.5t-43 119.5z" />
<glyph unicode="&#x2c6;" horiz-adv-x="1024" d="M90 1223l242 299h364l238 -299h-313l-111 135l-107 -135h-313z" />
<glyph unicode="&#x2dc;" horiz-adv-x="1024" d="M113 1212v17q0 162 54.5 232.5t164.5 70.5q84 0 186 -51l27 -13q56 -30 96 -30q55 0 55 69v15h217v-17q0 -162 -55.5 -231.5t-165.5 -69.5q-84 0 -184 49l-29 15q-53 30 -94 30q-27 0 -41 -15t-14 -54v-17h-217z" />
<glyph unicode="&#x2000;" horiz-adv-x="945" />
<glyph unicode="&#x2001;" horiz-adv-x="1890" />
<glyph unicode="&#x2002;" horiz-adv-x="945" />
<glyph unicode="&#x2003;" horiz-adv-x="1890" />
<glyph unicode="&#x2004;" horiz-adv-x="630" />
<glyph unicode="&#x2005;" horiz-adv-x="472" />
<glyph unicode="&#x2006;" horiz-adv-x="315" />
<glyph unicode="&#x2007;" horiz-adv-x="315" />
<glyph unicode="&#x2008;" horiz-adv-x="236" />
<glyph unicode="&#x2009;" horiz-adv-x="378" />
<glyph unicode="&#x200a;" horiz-adv-x="105" />
<glyph unicode="&#x2010;" horiz-adv-x="825" d="M20 438l62 330h723l-64 -330h-721z" />
<glyph unicode="&#x2011;" horiz-adv-x="825" d="M20 438l62 330h723l-64 -330h-721z" />
<glyph unicode="&#x2012;" horiz-adv-x="825" d="M20 438l62 330h723l-64 -330h-721z" />
<glyph unicode="&#x2013;" horiz-adv-x="1024" d="M0 412v331h1024v-331h-1024z" />
<glyph unicode="&#x2014;" horiz-adv-x="2048" d="M0 412v331h2048v-331h-2048z" />
<glyph unicode="&#x2018;" horiz-adv-x="524" d="M41 1014q0 104 113 325l94 183h239l-129 -367q68 -41 68 -139q0 -88 -46 -132t-147 -44q-192 0 -192 174z" />
<glyph unicode="&#x2019;" horiz-adv-x="524" d="M37 856l127 363q-34 24 -50 56.5t-16 84.5q0 87 46 130.5t147 43.5q192 0 192 -174q0 -106 -112 -322l-95 -182h-239z" />
<glyph unicode="&#x201a;" horiz-adv-x="456" d="M-23 -334l127 363q-34 24 -49.5 56.5t-15.5 84.5q0 88 46.5 132t147.5 44q191 0 191 -176q0 -101 -113 -322l-94 -182h-240z" />
<glyph unicode="&#x201c;" horiz-adv-x="1028" d="M41 1014q0 104 113 325l94 183h239l-129 -367q68 -41 68 -139q0 -88 -46 -132t-147 -44q-192 0 -192 174zM545 1014q0 106 112 325l95 183h239l-129 -367q68 -41 68 -139q0 -88 -46 -132t-147 -44q-192 0 -192 174z" />
<glyph unicode="&#x201d;" horiz-adv-x="1028" d="M37 856l127 363q-34 24 -50 56.5t-16 84.5q0 87 46 130.5t147 43.5q192 0 192 -174q0 -106 -112 -322l-95 -182h-239zM541 856l127 363q-34 24 -50 56.5t-16 84.5q0 87 46 130.5t147 43.5q192 0 192 -174q0 -104 -113 -322l-94 -182h-239z" />
<glyph unicode="&#x201e;" horiz-adv-x="960" d="M-20 -332l126 363q-34 24 -49.5 56.5t-15.5 84.5q0 87 46 130.5t146 43.5q193 0 193 -174q0 -104 -113 -322l-94 -182h-239zM481 -332l127 363q-34 24 -49.5 56.5t-15.5 84.5q0 87 46 130.5t146 43.5q193 0 193 -174q0 -104 -113 -322l-94 -182h-240z" />
<glyph unicode="&#x2022;" horiz-adv-x="897" d="M113 573q0 171 78.5 253.5t257.5 82.5t257 -82t78 -254q0 -171 -78 -253t-257 -82t-257.5 82t-78.5 253z" />
<glyph unicode="&#x2026;" horiz-adv-x="2048" d="M135 168q0 98 48.5 144t156.5 46t157.5 -46t49.5 -144t-49.5 -144.5t-157.5 -46.5t-156.5 46.5t-48.5 144.5zM821 168q0 98 48.5 144t156.5 46t157.5 -46t49.5 -144t-49.5 -144.5t-157.5 -46.5t-156.5 46.5t-48.5 144.5zM1501 168q0 98 48.5 144t156.5 46t157.5 -46 t49.5 -144t-49.5 -144.5t-157.5 -46.5t-156.5 46.5t-48.5 144.5z" />
<glyph unicode="&#x202f;" horiz-adv-x="378" />
<glyph unicode="&#x2039;" horiz-adv-x="708" d="M61 348v377l576 317v-346l-318 -159l318 -160v-346z" />
<glyph unicode="&#x203a;" horiz-adv-x="708" d="M72 31v346l315 160l-315 159v346l575 -317v-377z" />
<glyph unicode="&#x205f;" horiz-adv-x="472" />
<glyph unicode="&#x20ac;" d="M66 420l32 207h107v133h-139l32 207h113q20 145 84.5 237.5t193 142.5t326.5 50q32 0 76 -0.5t122 -1.5t146 -2l-55 -297q-108 4 -289 4q-115 0 -165.5 -28t-67.5 -105h446l-33 -207h-426v-133h459l-33 -207h-413q18 -76 70 -101.5t169 -25.5q27 0 69.5 0.5t119.5 1.5 t151 2l-57 -297q-126 -4 -285 -4q-296 0 -437.5 98.5t-170.5 325.5h-145z" />
<glyph unicode="&#x2122;" horiz-adv-x="1884" d="M6 1210l47 248h754l-47 -248h-213v-514h-283v514h-258zM889 696v762h323l138 -303l135 303h315v-762h-266v394l-111 -244h-159l-111 244v-394h-264z" />
<glyph unicode="&#x25fc;" horiz-adv-x="1075" d="M0 0v1075h1075v-1075h-1075z" />
</font>
</defs>
</svg>
