<?xml version="1.0" standalone="no"?>
<!DOCTYPE svg PUBLIC "-//W3C//DTD SVG 1.1//EN" "http://www.w3.org/Graphics/SVG/1.1/DTD/svg11.dtd" >
<svg xmlns="http://www.w3.org/2000/svg">
<metadata></metadata>
<defs>
<font id="prometolight_italic" horiz-adv-x="1218" >
<font-face units-per-em="2048" ascent="1638" descent="-410" />
<missing-glyph horiz-adv-x="512" />
<glyph unicode="&#xfb01;" horiz-adv-x="1032" d="M45 0l209 1069q25 131 68 218t114 140.5t165.5 76t229.5 22.5q37 0 122.5 -2t103.5 -2l-41 -105q-102 4 -193 4q-70 0 -118.5 -4.5t-97.5 -18.5t-83 -39t-64.5 -65.5t-52.5 -100t-38 -140.5h383l-41 -103h-363l-184 -950h-119zM664 0l204 1053h119l-205 -1053h-118z" />
<glyph unicode="&#xfb02;" horiz-adv-x="1046" d="M45 0l209 1069q49 257 156.5 357t328.5 100q92 0 146 -4l-39 -105q-62 4 -101 4q-69 0 -116 -7.5t-91 -30t-73.5 -63.5t-53.5 -106.5t-42 -160.5h383l-41 -103h-363l-184 -950h-119zM678 0l297 1522h119l-297 -1522h-119z" />
<glyph unicode="&#xfb03;" horiz-adv-x="1662" d="M45 0l209 1069q49 258 159.5 357.5t342.5 99.5q87 0 149 -4l-39 -105q-66 4 -121 4q-69 0 -116 -7.5t-91 -30t-73.5 -63.5t-53.5 -106.5t-42 -160.5h393l-41 -103h-373l-184 -950h-119zM676 0l209 1069q25 131 68 218t114 140.5t165.5 76t229.5 22.5q37 0 122.5 -2 t103.5 -2l-41 -105q-102 4 -193 4q-84 0 -140 -7t-110.5 -28.5t-90.5 -62t-65 -107t-49 -163.5h383l-41 -103h-362l-184 -950h-119zM1294 0l205 1053h119l-205 -1053h-119z" />
<glyph unicode="&#xfb04;" horiz-adv-x="1677" d="M45 0l209 1069q49 258 159.5 357.5t342.5 99.5q87 0 149 -4l-39 -105q-66 4 -121 4q-69 0 -116 -7.5t-91 -30t-73.5 -63.5t-53.5 -106.5t-42 -160.5h393l-41 -103h-373l-184 -950h-119zM676 0l209 1069q49 257 156.5 357t328.5 100q92 0 146 -4l-39 -105q-62 4 -101 4 q-69 0 -116 -7.5t-91 -30t-73.5 -63.5t-54 -106.5t-42.5 -160.5h383l-41 -103h-362l-184 -950h-119zM1309 0l297 1522h118l-297 -1522h-118z" />
<glyph horiz-adv-x="0" />
<glyph horiz-adv-x="682" />
<glyph horiz-adv-x="0" />
<glyph horiz-adv-x="0" />
<glyph unicode="&#x9;" horiz-adv-x="512" />
<glyph unicode=" "  horiz-adv-x="512" />
<glyph unicode="&#x09;" horiz-adv-x="512" />
<glyph unicode="&#xa0;" horiz-adv-x="512" />
<glyph unicode="!" horiz-adv-x="432" d="M45 72q0 112 102 112q82 0 82 -82q0 -112 -102 -112q-82 0 -82 82zM135 360l64 377q17 121 65 344l72 377h123l-74 -381q-30 -157 -70 -340l-82 -377h-98z" />
<glyph unicode="&#x22;" horiz-adv-x="659" d="M207 997l35 242q19 137 28 174l23 109h123l-21 -109q-5 -22 -17 -82.5t-20 -91.5l-57 -242h-94zM547 997l35 242q19 137 28 174l23 109h123l-21 -109q-5 -22 -17 -82.5t-20 -91.5l-57 -242h-94z" />
<glyph unicode="#" horiz-adv-x="1351" d="M66 377l40 100h213l150 438h-219l41 101h211l129 377h108l-127 -377h408l129 377h108l-127 -377h224l-39 -101h-219l-148 -438h221l-39 -100h-217l-127 -377h-108l127 377h-410l-127 -377h-108l127 377h-221zM430 477h408l149 438h-409z" />
<glyph unicode="$" d="M61 6l43 103q198 -7 291 -7h62l110 568l-53 16q-146 42 -215.5 117t-69.5 186q0 34 15 107q38 153 149.5 224t315.5 77l32 159h97l-33 -159q154 0 350 -8l-41 -105q-177 8 -330 8l-104 -536l65 -19q144 -44 215.5 -113.5t71.5 -187.5q0 -46 -12 -108q-35 -171 -149 -242 t-336 -84l-39 -199h-97l37 195h-61q-161 0 -314 8zM346 1001q0 -45 15.5 -80t45.5 -58t59.5 -37t70.5 -27l53 -17l98 506q-152 -6 -227.5 -53t-102.5 -148q-12 -49 -12 -86zM555 104q161 11 242.5 62.5t109.5 175.5q11 57 11 80q0 76 -48 123.5t-145 77.5l-66 20z" />
<glyph unicode="%" horiz-adv-x="1763" d="M129 829q0 53 12 115l19 105q36 191 122 276.5t250 85.5q289 0 289 -258q0 -53 -12 -115l-18 -104q-36 -191 -122.5 -277t-250.5 -86q-289 0 -289 258zM236 834q0 -94 47 -130t141 -36q57 0 94.5 10t71 39t55.5 83t39 140l18 98q13 70 13 111q0 94 -47.5 130t-141.5 36 q-57 0 -94.5 -10.5t-70.5 -39.5t-55.5 -83t-39.5 -140l-18 -98q-12 -64 -12 -110zM285 0l1134 1393h123l-1134 -1393h-123zM1010 240q0 52 12 114l18 105q36 191 122.5 276.5t250.5 85.5q289 0 289 -258q0 -53 -12 -114l-19 -105q-36 -191 -122.5 -276.5t-250.5 -85.5 q-288 0 -288 258zM1116 244q0 -94 47.5 -130t141.5 -36q57 0 94.5 10t71 39t55.5 83t39 140l18 99q12 65 12 110q0 94 -47 130t-141 36q-57 0 -94.5 -10t-71 -39t-55.5 -83t-39 -140l-19 -99q-12 -64 -12 -110z" />
<glyph unicode="&#x26;" horiz-adv-x="1277" d="M88 317q0 71 21 150q32 130 98.5 205t189.5 106q-143 55 -143 238q0 55 10 104q37 184 160 264t369 80q250 0 315 -4l-45 -108q-144 4 -238 4q-114 0 -183.5 -8.5t-124.5 -33.5t-85 -69t-49 -117q-16 -49 -16 -110q0 -110 76.5 -153.5t213.5 -43.5h603l-43 -106h-119 l-115 -609q-10 -51 -35 -71.5t-88 -32.5q-106 -20 -260 -20q-88 0 -160.5 9t-139.5 32.5t-112.5 60.5t-72.5 96t-27 137zM209 332q0 -58 19.5 -101.5t53 -71t85 -44t108 -23t129.5 -6.5q151 0 260 20l119 609h-328q-206 0 -295.5 -51t-130.5 -197q-20 -73 -20 -135z" />
<glyph unicode="'" horiz-adv-x="319" d="M207 997l35 242q19 137 28 174l23 109h123l-21 -109q-5 -22 -17 -82.5t-20 -91.5l-57 -242h-94z" />
<glyph unicode="(" horiz-adv-x="643" d="M27 2q0 144 49 391l57 293q31 160 61.5 274.5t69 203t81 143t101 89.5t125.5 48.5t158 13.5h55l-43 -106h-22q-73 0 -124 -9.5t-97.5 -38t-79 -73.5t-64 -121.5t-57 -177.5t-53.5 -246l-58 -295q-47 -249 -47 -381q0 -148 57.5 -205t190.5 -57h57l-41 -106h-28 q-186 0 -267 87t-81 273z" />
<glyph unicode=")" horiz-adv-x="643" d="M-141 -358l43 106h22q73 0 124 9.5t97.5 38t79 73.5t64 121.5t57 177.5t53.5 246l58 295q47 249 47 381q0 146 -58.5 204t-189.5 58h-57l41 106h28q186 0 267 -87t81 -273q0 -144 -49 -391l-57 -293q-33 -162 -63.5 -275t-69 -202.5t-80 -143.5t-100 -89t-125 -48.5 t-158.5 -13.5h-55z" />
<glyph unicode="*" horiz-adv-x="827" d="M188 1151l45 92l250 -94l56 289h102l-63 -291l278 96l18 -96l-288 -86l137 -244l-92 -51l-123 250l-217 -250l-76 63l225 238z" />
<glyph unicode="+" d="M201 643l20 107h375l76 389h112l-73 -389h374l-20 -107h-375l-76 -389h-114l75 389h-374z" />
<glyph unicode="," horiz-adv-x="356" d="M-141 -311l176 313q-33 18 -33 72q0 110 100 110q84 0 84 -82q0 -34 -12 -62.5t-49 -84.5l-174 -266h-92z" />
<glyph unicode="-" horiz-adv-x="735" d="M76 547l43 108h571l-43 -108h-571z" />
<glyph unicode="." horiz-adv-x="356" d="M2 72q0 112 102 112q82 0 82 -82q0 -112 -102 -112q-82 0 -82 82z" />
<glyph unicode="/" horiz-adv-x="776" d="M-35 0l799 1458h123l-799 -1458h-123z" />
<glyph unicode="0" horiz-adv-x="1222" d="M119 358q0 107 28 256l35 181q32 170 73.5 283t107.5 194t160 117t227 36q217 0 316 -98.5t99 -294.5q0 -105 -28 -254l-35 -180q-32 -170 -73.5 -283.5t-107.5 -194.5t-160 -117t-226 -36q-220 0 -318 98t-98 293zM240 358q0 -162 73 -223t228 -61q97 0 160 19.5t117 77 t91 159.5t70 268l37 190q28 119 28 246q0 162 -74 223.5t-227 61.5q-98 0 -161.5 -19.5t-118 -76.5t-91 -159.5t-67.5 -268.5l-37 -193q-28 -156 -28 -244z" />
<glyph unicode="1" horiz-adv-x="837" d="M-8 0l41 102h254l231 1188h-282l43 103h378l-251 -1291h282l-43 -102h-653z" />
<glyph unicode="2" horiz-adv-x="1064" d="M31 0l43 221q36 197 120 294.5t273 172.5l197 80q117 46 173 100t76 140q11 45 11 98q0 92 -58.5 138t-203.5 46q-222 0 -375 -8l41 107q183 8 344 8q377 0 377 -281q0 -50 -13 -110q-26 -132 -106 -208t-228 -132l-200 -80q-154 -63 -217 -136.5t-92 -232.5l-23 -111 h698l-41 -106h-796z" />
<glyph unicode="3" horiz-adv-x="999" d="M-51 0l41 106q294 -4 391 -4q164 0 254 66.5t108 216.5q7 47 7 74q0 114 -64 160.5t-207 46.5h-297l43 106h305q140 0 219 61t97 199q6 38 6 70q0 103 -60.5 145.5t-193.5 42.5q-284 0 -367 -4l43 107q91 4 334 4q187 0 276 -70t89 -219q0 -40 -6 -86q-34 -247 -256 -309 q161 -56 161 -258q0 -37 -6 -84q-26 -183 -145.5 -279t-351.5 -96q-190 0 -420 4z" />
<glyph unicode="4" horiz-adv-x="1075" d="M27 319l16 91l725 983h131l-717 -969h539l98 491l119 21l-100 -512h180l-41 -105h-160l-61 -319h-117l61 319h-673z" />
<glyph unicode="5" horiz-adv-x="1015" d="M4 0l41 106q152 -4 340 -4q175 0 268 72.5t117 239.5q8 41 8 90q0 120 -71.5 169.5t-227.5 49.5h-313l131 670h723l-43 -105h-586l-90 -461h199q205 0 302 -77.5t97 -237.5q0 -58 -14 -129q-40 -209 -167 -298t-349 -89q-262 0 -365 4z" />
<glyph unicode="6" horiz-adv-x="1101" d="M109 336q0 61 18 164l51 266q25 129 55.5 226t71.5 167t88 116t110.5 73t132.5 38t159 11q118 0 266 -4l-43 -107q-136 4 -230 4q-59 0 -101.5 -4t-89 -17t-80.5 -36t-68.5 -61.5t-61 -94t-50 -133t-42.5 -178.5q90 121 307 121q205 0 299 -96.5t94 -268.5q0 -61 -8 -116 q-18 -128 -63.5 -217t-112.5 -136t-139.5 -66.5t-161.5 -19.5q-210 0 -305.5 99t-95.5 270zM225 338q0 -140 72 -204t221 -64q151 0 233 70.5t113 248.5q13 80 13 131q0 138 -73 201t-224 63q-148 0 -226.5 -65t-113.5 -240q-15 -83 -15 -141z" />
<glyph unicode="7" horiz-adv-x="958" d="M141 0l742 1288h-725l43 105h827l-12 -86l-742 -1307h-133z" />
<glyph unicode="8" horiz-adv-x="1110" d="M59 297q0 46 13 106q55 284 315 340q-168 62 -168 254q0 40 10 95q61 333 457 333q196 0 302 -75t106 -226q0 -30 -11 -102q-51 -253 -292 -299q194 -59 194 -287q0 -59 -10 -108q-68 -361 -488 -361q-216 0 -322 86t-106 244zM180 305q0 -120 77 -177.5t241 -57.5 q159 0 245 64.5t115 209.5q10 65 10 96q0 242 -311 242q-162 0 -248.5 -62.5t-115.5 -211.5q-13 -60 -13 -103zM336 991q0 -108 72.5 -158.5t226.5 -50.5q143 0 224.5 58.5t107.5 187.5q10 55 10 92q0 105 -71.5 155t-229.5 50q-142 0 -223.5 -54.5t-106.5 -187.5 q-10 -55 -10 -92z" />
<glyph unicode="9" horiz-adv-x="1101" d="M106 0l44 106q136 -4 229 -4q59 0 101.5 4t89 17t80.5 36t68.5 62t61 94t50 133t42.5 179q-90 -121 -307 -121q-393 0 -393 364q0 62 8 117q18 128 63.5 217t112.5 135.5t139.5 66t161.5 19.5q210 0 306 -98.5t96 -269.5q0 -56 -19 -164l-51 -266q-29 -155 -69 -264 t-90 -181t-120 -113t-149 -57t-188 -16q-119 0 -267 4zM291 872q0 -138 73 -201t224 -63q148 0 226.5 65t113.5 240q14 77 14 142q0 140 -72 204t-221 64q-151 0 -233 -70.5t-113 -248.5q-12 -74 -12 -132z" />
<glyph unicode=":" horiz-adv-x="356" d="M2 72q0 112 102 112q82 0 82 -82q0 -112 -102 -112q-82 0 -82 82zM174 950q0 113 102 113q82 0 82 -82q0 -113 -102 -113q-82 0 -82 82z" />
<glyph unicode=";" horiz-adv-x="356" d="M-141 -311l176 313q-33 18 -33 72q0 110 100 110q84 0 84 -82q0 -34 -12 -62.5t-49 -84.5l-174 -266h-92zM174 950q0 113 102 113q82 0 82 -82q0 -113 -102 -113q-82 0 -82 82z" />
<glyph unicode="&#x3c;" d="M244 639l20 106l848 371l-22 -117l-721 -311l604 -289l-21 -108z" />
<glyph unicode="=" d="M184 436l23 107h813l-23 -107h-813zM266 856l23 107h813l-23 -107h-813z" />
<glyph unicode="&#x3e;" d="M176 291l23 119l721 309l-605 291l21 106l711 -346l-21 -108z" />
<glyph unicode="?" horiz-adv-x="929" d="M150 72q0 112 102 112q82 0 82 -82q0 -112 -103 -112q-81 0 -81 82zM211 1352l43 102q113 6 309 6q191 0 290 -69.5t99 -225.5q0 -29 -6 -73q-10 -69 -33 -124.5t-52 -92t-75 -69t-86 -52.5t-102 -45q-60 -25 -89 -39.5t-57.5 -33.5t-41.5 -43.5t-23.5 -56t-21.5 -85.5 l-19 -93h-117l21 113q27 149 86 211t215 121q136 51 193 109.5t77 177.5q6 43 6 73q0 106 -65 149.5t-211 43.5q-235 0 -340 -4z" />
<glyph unicode="@" horiz-adv-x="1478" d="M72 98q0 139 41 338q78 393 247 555t502 162q512 0 512 -358q0 -55 -12 -119l-100 -526q-10 -55 -33.5 -75.5t-81.5 -31.5q-128 -18 -252 -18q-198 0 -299.5 63t-101.5 209q0 59 14 119q35 155 130.5 229t283.5 74q242 0 311 -129l16 80q11 56 11 112q0 134 -94 200.5 t-310 66.5q-146 0 -246 -30t-175 -103t-122.5 -186.5t-85.5 -289.5q-45 -193 -45 -342q0 -156 60.5 -247.5t196 -134t366.5 -42.5q159 0 262 7l-43 -105q-104 -6 -246 -6q-372 0 -539 121t-167 407zM612 311q0 -57 20.5 -94.5t63 -56t91 -25t120.5 -6.5q118 0 240 16l39 201 q8 24 8 80q0 103 -66 147.5t-208 44.5q-133 0 -202 -47.5t-97 -173.5q-9 -49 -9 -86z" />
<glyph unicode="A" horiz-adv-x="1327" d="M-59 0l845 1458h121l271 -1458h-121l-82 467h-643l-264 -467h-127zM393 575h563l-133 748z" />
<glyph unicode="B" horiz-adv-x="1241" d="M63 0l285 1458h453q409 0 409 -305q0 -54 -8 -106q-42 -227 -260 -291q188 -60 188 -285q0 -57 -10 -106q-37 -187 -173 -276t-394 -89h-490zM203 109h362q195 0 300.5 59.5t133.5 206.5q11 54 11 102q0 123 -80 175.5t-242 52.5h-369zM340 813h350q182 0 274 53.5 t119 188.5q9 47 9 86q0 114 -74.5 161.5t-222.5 47.5h-349z" />
<glyph unicode="C" horiz-adv-x="1157" d="M139 461q0 135 33 291q34 168 83 290t111.5 203t148.5 129t184.5 68t228.5 20q215 0 291 -6l-45 -110q-92 6 -256 6q-109 0 -188.5 -15.5t-150.5 -55.5t-122 -110t-92 -178t-70 -260q-31 -158 -31 -264q0 -104 26 -174.5t82 -112t135 -59t193 -17.5q92 0 277 5l-45 -111 q-42 -4 -248 -4q-291 0 -418 116.5t-127 348.5z" />
<glyph unicode="D" horiz-adv-x="1363" d="M63 0l285 1458h414q283 0 414 -117t131 -366q0 -106 -29 -264q-30 -164 -79.5 -285t-115.5 -202.5t-155.5 -131.5t-193 -71t-236.5 -21h-435zM205 111h307q146 0 247.5 29t179 100.5t127 185.5t85.5 289q31 155 31 260q0 201 -101.5 287t-324.5 86h-310z" />
<glyph unicode="E" horiz-adv-x="1204" d="M63 0l285 1458h909l-45 -110h-766l-106 -543h743l-43 -111h-721l-114 -583h813l-43 -111h-912z" />
<glyph unicode="F" horiz-adv-x="1112" d="M63 0l285 1458h875l-43 -110h-734l-108 -553h690l-43 -111h-668l-135 -684h-119z" />
<glyph unicode="G" horiz-adv-x="1296" d="M139 457q0 125 35 297q41 208 103.5 345.5t157.5 217.5t212.5 112.5t282.5 32.5q233 0 364 -6l-43 -110q-154 6 -329 6q-109 0 -188.5 -15t-151.5 -55t-123.5 -109.5t-93 -177.5t-70.5 -260q-31 -161 -31 -266q0 -107 28 -177.5t89 -110.5t144 -56t206 -16q140 0 238 12 l96 495h-305l43 111h405l-118 -602q-12 -61 -35.5 -84t-77.5 -29q-96 -14 -264 -14q-128 0 -225.5 20t-163.5 57t-107.5 94t-59.5 127.5t-18 160.5z" />
<glyph unicode="H" horiz-adv-x="1406" d="M63 0l285 1458h119l-129 -655h838l129 655h118l-284 -1458h-119l135 692h-838l-135 -692h-119z" />
<glyph unicode="I" horiz-adv-x="450" d="M63 0l285 1458h119l-285 -1458h-119z" />
<glyph unicode="J" horiz-adv-x="880" d="M-41 2l43 111q88 -2 219 -2q168 0 250 69t113 230l204 1048h119l-202 -1044q-45 -224 -155 -320t-331 -96q-192 0 -260 4z" />
<glyph unicode="K" horiz-adv-x="1249" d="M63 0l285 1458h119l-127 -655l827 655h156l-883 -700l690 -758h-157l-649 717l-142 -717h-119z" />
<glyph unicode="L" horiz-adv-x="1085" d="M63 0l285 1458h119l-262 -1347h743l-45 -111h-840z" />
<glyph unicode="M" horiz-adv-x="1622" d="M63 0l285 1458h127l344 -895l694 895h125l-284 -1458h-117l244 1257l-631 -813h-98l-324 834l-248 -1278h-117z" />
<glyph unicode="N" horiz-adv-x="1404" d="M63 0l285 1458h111l598 -1270l248 1270h114l-282 -1458h-109l-602 1272l-246 -1272h-117z" />
<glyph unicode="O" horiz-adv-x="1421" d="M137 434q0 128 31 316q49 280 138.5 444t224 233.5t339.5 69.5q255 0 373.5 -109t118.5 -362q0 -127 -31 -315q-49 -281 -138.5 -445t-224 -233.5t-339.5 -69.5q-255 0 -373.5 109t-118.5 362zM258 428q0 -106 23.5 -176.5t74 -109.5t117 -54.5t164.5 -15.5 q97 0 167.5 15t135.5 56t112 113.5t86 186.5t68 276q35 190 35 313q0 106 -23.5 176.5t-74 110t-117.5 55t-166 15.5q-96 0 -166 -15.5t-134.5 -57t-111.5 -114.5t-86.5 -186.5t-68.5 -274.5q-35 -190 -35 -313z" />
<glyph unicode="P" horiz-adv-x="1224" d="M63 0l285 1458h418q235 0 353 -80t118 -256q0 -43 -10 -108q-18 -117 -64 -196.5t-120.5 -124.5t-165.5 -64t-213 -19h-361l-121 -610h-119zM324 721h348q211 0 305.5 61.5t126.5 221.5q14 72 14 110q0 129 -88 181.5t-268 52.5h-318z" />
<glyph unicode="Q" horiz-adv-x="1419" d="M137 434q0 128 31 316q49 280 138.5 444t224 233.5t339.5 69.5q255 0 373.5 -109t118.5 -362q0 -127 -31 -315q-41 -235 -110.5 -387t-170 -234t-245.5 -110l254 -248h-168l-234 231h-28q-255 0 -373.5 109t-118.5 362zM258 428q0 -106 23.5 -176.5t74 -109.5t117 -54.5 t164.5 -15.5q97 0 167.5 15t135.5 56t112 113.5t86 186.5t68 276q35 190 35 313q0 106 -23.5 176.5t-74 110t-117.5 55t-166 15.5q-96 0 -166 -15.5t-134.5 -57t-111.5 -114.5t-86.5 -186.5t-68.5 -274.5q-35 -190 -35 -313z" />
<glyph unicode="R" horiz-adv-x="1267" d="M63 0l285 1458h416q235 0 354 -80t119 -256q0 -43 -10 -108q-31 -182 -127 -272.5t-262 -116.5l280 -625h-133l-270 612h-414l-119 -612h-119zM324 723h348q211 0 305.5 61t126.5 220q12 61 12 110q0 129 -87.5 181.5t-266.5 52.5h-318z" />
<glyph unicode="S" horiz-adv-x="1103" d="M0 2l43 113q197 -9 375 -9q132 0 217 22.5t129 62t70 104.5q30 79 30 151q0 84 -47 134.5t-151 83.5l-193 61q-147 47 -211.5 118.5t-64.5 182.5q0 69 16 123q43 170 169 241.5t359 71.5q264 0 394 -4l-45 -110q-103 4 -367 4q-184 0 -273 -49t-118 -166q-15 -62 -15 -97 q0 -84 49.5 -129t143.5 -75l203 -64q141 -44 207.5 -120t66.5 -193q0 -99 -39 -197q-39 -96 -102.5 -153t-169.5 -85t-268 -28q-277 0 -408 6z" />
<glyph unicode="T" horiz-adv-x="1255" d="M215 1348l45 110h1120l-43 -110h-489l-262 -1348h-121l262 1348h-512z" />
<glyph unicode="U" horiz-adv-x="1349" d="M135 350q0 71 17 168l182 940h119l-183 -946q-18 -99 -18 -156q0 -159 88.5 -221.5t271.5 -62.5q101 0 171.5 18.5t128.5 66t96 131t63 210.5l186 960h119l-190 -987q-28 -144 -76.5 -242.5t-121.5 -157t-164 -83.5t-214 -25q-236 0 -355.5 94t-119.5 293z" />
<glyph unicode="V" horiz-adv-x="1273" d="M229 1458h121l211 -1311l721 1311h125l-813 -1458h-123z" />
<glyph unicode="W" horiz-adv-x="1751" d="M248 1458h119l36 -1300l598 1300h115l80 -1298l551 1298h121l-637 -1458h-129l-78 1282l-588 -1282h-129z" />
<glyph unicode="X" horiz-adv-x="1261" d="M-80 0l690 768l-362 690h127l319 -612l541 612h139l-629 -706l388 -752h-127l-344 674l-601 -674h-141z" />
<glyph unicode="Y" horiz-adv-x="1241" d="M213 1458h125l313 -723l598 723h140l-691 -827l-123 -631h-118l123 631z" />
<glyph unicode="Z" horiz-adv-x="1183" d="M-12 0l20 106l1073 1242h-805l43 110h924l-20 -106l-1073 -1241h868l-43 -111h-987z" />
<glyph unicode="[" horiz-adv-x="675" d="M20 -358l353 1816h444l-41 -108h-309l-313 -1600h331l-41 -108h-424z" />
<glyph unicode="\" horiz-adv-x="776" d="M250 1458h112l240 -1458h-113z" />
<glyph unicode="]" horiz-adv-x="675" d="M-131 -358l41 108h309l313 1600h-331l41 108h424l-353 -1816h-444z" />
<glyph unicode="^" d="M281 838l448 620h119l209 -620h-119l-166 510l-364 -510h-127z" />
<glyph unicode="_" horiz-adv-x="1024" d="M-166 -365l23 111h1020l-23 -111h-1020z" />
<glyph unicode="`" horiz-adv-x="1024" d="M506 1485h135l197 -258h-117z" />
<glyph unicode="a" horiz-adv-x="1095" d="M61 258q0 46 13 113q35 153 139 226t285 73q268 0 342 -129l20 106q14 72 14 113q0 100 -64.5 146t-215.5 46q-245 0 -326 -4l41 105q31 4 295 4q201 0 291 -74.5t90 -214.5q0 -49 -14 -131l-105 -528q-10 -57 -34 -77.5t-84 -31.5q-113 -18 -271 -18q-206 0 -311 64.5 t-105 211.5zM178 270q0 -47 15.5 -80.5t41 -53.5t67.5 -31.5t85.5 -15t104.5 -3.5q111 0 262 18l37 191q8 41 8 82q0 106 -72 149t-225 43q-146 0 -221 -48.5t-95 -168.5q-8 -36 -8 -82z" />
<glyph unicode="b" horiz-adv-x="1179" d="M129 334q0 93 23 211l190 977h119l-113 -578q56 72 139.5 106.5t206.5 34.5q193 0 293 -87.5t100 -286.5q0 -105 -22 -215q-27 -140 -67.5 -237t-104 -164t-153 -97.5t-212.5 -30.5q-198 0 -298.5 86t-100.5 281zM246 340q0 -147 69 -207.5t224 -60.5q122 0 197 36.5 t124 125.5t82 253q27 148 27 226q0 148 -70.5 208t-224.5 60q-86 0 -147.5 -19.5t-111 -67t-83 -127t-58.5 -200.5q-28 -154 -28 -227z" />
<glyph unicode="c" horiz-adv-x="921" d="M88 352q0 89 25 211q24 122 62.5 209.5t87.5 142.5t118 86.5t143.5 43.5t175.5 12q67 0 203 -4l-43 -105q-94 4 -176 4q-106 0 -175.5 -16t-125 -60t-90.5 -120t-60 -197q-24 -120 -24 -201q0 -147 76.5 -202.5t238.5 -55.5q48 0 228 4l-43 -104q-37 -4 -195 -4 q-226 0 -326 89.5t-100 266.5z" />
<glyph unicode="d" horiz-adv-x="1155" d="M92 365q0 85 21 196q24 128 64 223t87 152t110.5 91t125 46t139.5 12q128 0 213 -39t117 -112l114 588h119l-274 -1407q-12 -61 -40 -85t-87 -32q-126 -16 -240 -16q-240 0 -354.5 88.5t-114.5 294.5zM213 371q0 -157 83 -221t271 -64q120 0 240 18l104 535q13 76 13 104 q0 238 -291 238q-82 0 -139.5 -16t-109.5 -59.5t-88 -126.5t-60 -212q-23 -131 -23 -196z" />
<glyph unicode="e" horiz-adv-x="1052" d="M88 354q0 100 25 213q35 149 84 250t117 159.5t148 83.5t187 25q182 0 268.5 -66.5t86.5 -184.5q0 -41 -13 -95q-28 -135 -128 -197.5t-300 -62.5h-344q-10 -54 -10 -117q0 -134 68 -198t233 -64q186 0 303 9l-41 -105q-90 -8 -266 -8q-223 0 -320.5 92.5t-97.5 265.5z M236 580h327q109 0 171 18t92 52.5t51 99.5q10 42 10 77q0 158 -244 158q-172 0 -265 -91t-142 -314z" />
<glyph unicode="f" horiz-adv-x="665" d="M45 0l209 1069q49 258 159.5 357.5t342.5 99.5q100 0 162 -4l-39 -105q-66 4 -134 4q-69 0 -116 -7.5t-91 -30t-73.5 -63.5t-53.5 -106.5t-42 -160.5h405l-41 -103h-385l-184 -950h-119z" />
<glyph unicode="g" horiz-adv-x="1171" d="M74 -358l43 106q121 -6 321 -6q177 0 261.5 78.5t121.5 269.5l17 84q-110 -137 -349 -137q-194 0 -294.5 85.5t-100.5 276.5q0 89 21 191q50 265 170 380t360 115q200 0 301 -82.5t101 -271.5q0 -83 -21 -194l-86 -443q-23 -119 -57.5 -200t-92.5 -141t-145 -87.5 t-209 -27.5q-100 0 -362 4zM213 401q0 -143 70 -201.5t227 -58.5q115 0 189.5 33t126.5 118.5t81 235.5q23 131 23 197q0 139 -70.5 197.5t-226.5 58.5q-179 0 -266 -82t-131 -301q-23 -131 -23 -197z" />
<glyph unicode="h" horiz-adv-x="1153" d="M45 0l297 1522h119l-109 -555q100 118 326 118q366 0 366 -301q0 -63 -14 -129l-127 -655h-117l127 662q13 63 13 110q0 114 -66.5 161.5t-200.5 47.5q-166 0 -248 -70.5t-118 -248.5l-129 -662h-119z" />
<glyph unicode="i" horiz-adv-x="413" d="M45 0l205 1053h119l-205 -1053h-119zM272 1333q0 107 99 107q75 0 75 -74q0 -106 -98 -106q-76 0 -76 73z" />
<glyph unicode="j" horiz-adv-x="413" d="M-352 -360l41 102q31 -2 90 -2q125 0 181.5 57.5t88.5 222.5l201 1033h119l-203 -1043q-22 -112 -52 -183t-77.5 -113.5t-108.5 -59t-153 -16.5q-94 0 -127 2zM272 1333q0 107 99 107q75 0 75 -74q0 -106 -98 -106q-76 0 -76 73z" />
<glyph unicode="k" horiz-adv-x="1044" d="M45 0l297 1522h119l-176 -906l614 437h166l-680 -482l535 -571h-148l-504 539l-104 -539h-119z" />
<glyph unicode="l" horiz-adv-x="413" d="M45 0l297 1522h119l-297 -1522h-119z" />
<glyph unicode="m" horiz-adv-x="1693" d="M45 0l139 711q38 195 137 284.5t279 89.5q257 0 311 -165q51 86 132.5 125.5t205.5 39.5q175 0 257.5 -70t82.5 -212q0 -45 -14 -127l-131 -676h-117l133 684q10 65 10 107q0 105 -57 147.5t-174 42.5q-129 0 -199 -66t-102 -225l-135 -690h-117l133 684q10 51 10 107 q0 105 -57 147.5t-172 42.5q-130 0 -200.5 -68.5t-102.5 -228.5l-133 -684h-119z" />
<glyph unicode="n" horiz-adv-x="1155" d="M45 0l133 680q41 216 153 310.5t326 94.5q387 0 387 -307q0 -58 -12 -123l-127 -655h-119l129 662q13 67 13 106q0 116 -69.5 164.5t-205.5 48.5q-162 0 -243.5 -67t-114.5 -242l-131 -672h-119z" />
<glyph unicode="o" horiz-adv-x="1138" d="M90 342q0 80 23 215q50 279 173 403.5t365 124.5q198 0 298 -86t100 -286q0 -100 -23 -215q-55 -282 -176 -406.5t-361 -124.5q-199 0 -299 86.5t-100 288.5zM209 340q0 -148 69.5 -208t223.5 -60q180 0 269.5 91.5t133.5 328.5q27 149 27 223q0 146 -69.5 206t-225.5 60 q-182 0 -269.5 -90.5t-131.5 -329.5q-27 -149 -27 -221z" />
<glyph unicode="p" horiz-adv-x="1173" d="M-25 -358l179 921q54 282 175 402t349 120q201 0 303 -89t102 -287q0 -104 -22 -217q-53 -277 -174.5 -401t-347.5 -124q-283 0 -349 180l-98 -505h-117zM244 342q0 -149 70.5 -209.5t226.5 -60.5q119 0 192.5 36.5t123.5 126.5t83 254q25 134 25 218q0 150 -70.5 212 t-222.5 62q-120 0 -194.5 -37t-124.5 -127t-83 -252q-26 -143 -26 -223z" />
<glyph unicode="q" horiz-adv-x="1169" d="M86 344q0 97 23 215q55 277 175.5 401.5t356.5 124.5q200 0 300.5 -85.5t100.5 -282.5q0 -92 -24 -215l-168 -860h-117l90 467q-115 -142 -344 -142q-194 0 -293.5 88.5t-99.5 288.5zM203 342q0 -149 70.5 -209.5t226.5 -60.5q84 0 144 19.5t109.5 67t84 128t59.5 202.5 q25 134 25 218q0 149 -70 211.5t-221 62.5q-120 0 -194.5 -37t-124.5 -127t-83 -252q-26 -143 -26 -223z" />
<glyph unicode="r" horiz-adv-x="759" d="M45 0l129 662q16 83 40 146t57 106t70.5 71.5t87.5 44t101 21.5t117 6q78 0 160 -4l-41 -105q-78 4 -131 4q-78 0 -130 -11.5t-96 -43.5t-72 -92t-46 -154l-127 -651h-119z" />
<glyph unicode="s" horiz-adv-x="964" d="M-6 0l41 104q121 -4 350 -4q113 0 180 19t94.5 50t38.5 83q7 40 7 59q0 55 -34.5 89t-113.5 57l-223 63q-115 32 -160 82.5t-45 142.5q0 40 8 76q30 130 132 183t284 53q177 0 373 -8l-41 -105q-177 8 -365 8q-127 0 -190 -32.5t-80 -110.5q-8 -24 -8 -53q0 -54 27.5 -80 t111.5 -51l205 -60q127 -36 182 -93t55 -146q0 -48 -12 -97q-13 -56 -39.5 -96.5t-74.5 -72.5t-127 -48t-189 -16q-294 0 -387 4z" />
<glyph unicode="t" horiz-adv-x="763" d="M106 246q0 64 15 141l182 936l123 18l-57 -288h403l-41 -103h-383l-112 -583q-13 -70 -13 -107q0 -88 47.5 -122t155.5 -34h176l-41 -104h-143q-159 0 -235.5 57t-76.5 189z" />
<glyph unicode="u" horiz-adv-x="1142" d="M111 274q0 60 12 125l127 654h119l-129 -662q-13 -67 -13 -108q0 -116 67 -163.5t202 -47.5q158 0 238 70.5t116 248.5l129 662h119l-131 -674q-43 -220 -154 -316t-324 -96q-180 0 -279 74.5t-99 232.5z" />
<glyph unicode="v" horiz-adv-x="1015" d="M141 1053h121l168 -928l526 928h125l-604 -1053h-133z" />
<glyph unicode="w" horiz-adv-x="1482" d="M152 1053h114l82 -912l438 912h117l78 -910l438 910h117l-520 -1053h-121l-80 897l-430 -897h-123z" />
<glyph unicode="x" horiz-adv-x="991" d="M-72 0l508 565l-258 488h123l215 -416l365 416h133l-451 -504l295 -549h-123l-250 477l-424 -477h-133z" />
<glyph unicode="y" horiz-adv-x="1153" d="M55 -358l41 106q160 -6 324 -6q176 0 261 79t122 269l12 64q-103 -117 -321 -117q-369 0 -369 305q0 56 12 127l113 584h119l-115 -592q-12 -61 -12 -111q0 -116 65.5 -162.5t200.5 -46.5q165 0 249.5 69.5t116.5 244.5l115 598h119l-184 -953q-24 -120 -59 -202.5 t-93.5 -143t-145 -88.5t-208.5 -28q-85 0 -363 4z" />
<glyph unicode="z" horiz-adv-x="985" d="M-4 0l12 88l801 862h-629l41 103h754l-14 -88l-799 -861h665l-41 -104h-790z" />
<glyph unicode="{" horiz-adv-x="763" d="M41 498l20 102h45q102 0 144 40.5t67 160.5l70 352q21 109 59.5 172.5t117 98t206.5 34.5h117l-45 -104h-80q-91 0 -143.5 -21t-77.5 -62t-39 -118l-74 -369q-20 -108 -57 -159.5t-109 -75.5q82 -34 82 -158q0 -49 -8 -90l-66 -340q-8 -33 -8 -76q0 -73 46 -106t155 -33 h115l-46 -104h-86q-299 0 -299 233q0 32 11 96l65 338q8 41 8 76q0 61 -32 87t-109 26h-49z" />
<glyph unicode="|" horiz-adv-x="425" d="M-18 -358l364 1880h117l-363 -1880h-118z" />
<glyph unicode="}" horiz-adv-x="763" d="M-111 -358l45 104h80q91 0 143.5 21t77.5 62t39 118l74 368q23 113 58.5 164t107.5 74q-82 34 -82 156q0 49 8 90l66 340q8 33 8 75q0 73 -46 106.5t-155 33.5h-114l45 104h86q299 0 299 -233q0 -33 -11 -97l-65 -337q-8 -36 -8 -76q0 -61 32 -87t109 -26h49l-20 -102 h-45q-102 0 -144 -40.5t-67 -160.5l-70 -352q-17 -82 -41.5 -135.5t-67.5 -93.5t-110 -58t-164 -18h-117z" />
<glyph unicode="~" d="M180 547l10 55q24 132 82 192t152 60q56 0 101.5 -20.5t115.5 -69.5l27 -19q54 -38 76 -52t54 -27t62 -13q50 0 81 32.5t48 111.5l10 55h107l-10 -55q-24 -132 -82 -192t-152 -60q-56 0 -101.5 20.5t-115.5 69.5l-27 18q-54 38 -76 52t-54 27t-62 13q-50 0 -81 -32.5 t-48 -110.5l-10 -55h-107z" />
<glyph unicode="&#xa1;" horiz-adv-x="432" d="M-27 -412l74 381q30 157 70 340l82 377h98l-64 -377q-18 -131 -65 -344l-72 -377h-123zM203 944q0 113 102 113q82 0 82 -82q0 -113 -102 -113q-82 0 -82 82z" />
<glyph unicode="&#xa2;" d="M233 352q0 80 23 211q26 130 67.5 221t101 146.5t131 83.5t167.5 37l39 204h98l-39 -198h45q57 0 183 -4l-39 -105q-82 4 -160 4h-49l-166 -850q18 -2 59 -2q55 0 203 4l-39 -104q-31 -4 -172 -4q-56 0 -72 2l-36 -195h-97l39 203q-152 29 -219.5 114t-67.5 232zM352 362 q0 -117 47 -175t142 -76l161 833q-140 -21 -213.5 -104.5t-113.5 -280.5q-23 -131 -23 -197z" />
<glyph unicode="&#xa3;" d="M25 0l43 109h141l110 565h-163l43 104h141l22 111q30 148 75.5 243.5t121.5 156t180 84.5t258 24q75 0 189 -4l-43 -109q-136 4 -172 4q-84 0 -144 -6.5t-112 -24.5t-87 -46t-64.5 -74.5t-49.5 -107.5t-37 -146l-20 -105h477l-43 -104h-457l-108 -565h628l-43 -109h-886z " />
<glyph unicode="&#xa4;" d="M176 326l139 137q-90 117 -90 262t90 262l-139 137l74 72l139 -137q114 90 264 90q151 0 265 -90l141 137l71 -72l-139 -137q90 -117 90 -262t-90 -262l139 -137l-71 -72l-141 137q-118 -90 -265 -90q-146 0 -264 90l-139 -137zM326 725q0 -139 89 -231.5t238 -92.5 t238.5 92.5t89.5 231.5t-89.5 231.5t-238.5 92.5t-238 -92.5t-89 -231.5z" />
<glyph unicode="&#xa5;" d="M158 326l18 100h354l39 197h-354l21 98h311l-268 672h118l250 -656l506 656h131l-528 -672h307l-19 -98h-356l-41 -197h357l-19 -100h-356l-64 -326h-116l63 326h-354z" />
<glyph unicode="&#xa6;" horiz-adv-x="425" d="M-16 -358l120 626h117l-119 -626h-118zM227 895l121 627h117l-121 -627h-117z" />
<glyph unicode="&#xa7;" horiz-adv-x="1130" d="M-43 -373l41 105q230 -4 416 -4q125 0 200 23.5t106.5 60.5t49.5 100q10 52 10 76q0 135 -178 178l-207 51q-270 64 -270 281q0 58 27 141q63 200 254 250q-173 65 -173 225q0 42 9 82q31 144 149 206t330 62q153 0 385 -8l-39 -104q-175 8 -379 8q-155 0 -234.5 -41 t-99.5 -133q-6 -38 -6 -68q0 -63 43 -103.5t144 -64.5l213 -51q270 -64 270 -281q0 -59 -27 -145q-30 -94 -96.5 -159.5t-161.5 -88.5q162 -72 162 -231q0 -47 -16 -109q-38 -135 -147 -198.5t-331 -63.5q-166 0 -444 4zM242 510q0 -148 194 -195l70 -16q56 -12 106 -12 q98 0 169 56t102 155q18 53 18 108q0 149 -194 193l-68 16q-52 14 -109 14q-97 0 -167 -56t-101 -155q-20 -56 -20 -108z" />
<glyph unicode="&#xa8;" horiz-adv-x="1024" d="M438 1329q0 103 97 103q71 0 71 -70q0 -51 -22 -76.5t-72 -25.5q-74 0 -74 69zM739 1329q0 103 97 103q71 0 71 -70q0 -51 -22 -76.5t-72 -25.5q-74 0 -74 69z" />
<glyph unicode="&#xa9;" horiz-adv-x="1677" d="M135 729q0 160 23.5 276.5t76 205t140 142t211 79.5t293.5 26q169 0 292 -25.5t210 -78.5t139.5 -141t76 -205t23.5 -279q0 -201 -36.5 -335t-123 -224.5t-228 -130t-353.5 -39.5q-211 0 -351.5 39t-229 128.5t-126 225t-37.5 336.5zM238 729q0 -123 11 -212t39.5 -162.5 t74.5 -120.5t118.5 -80t169 -46.5t228.5 -13.5q131 0 227 14t168.5 46t119 79.5t75 121t40 162.5t11.5 212q0 122 -11.5 211t-40 162.5t-75 121t-119 80t-168.5 46.5t-227 14q-132 0 -228.5 -13.5t-169 -46t-118.5 -79.5t-74.5 -121t-39.5 -163t-11 -212zM559 680v98 q0 216 87 309t290 93q84 0 182 -4l-20 -97q-55 2 -158 2q-78 0 -126 -12t-82 -45t-48 -92t-14 -154v-96q0 -182 59 -243.5t236 -61.5q106 0 153 2l-22 -96q-82 -4 -152 -4q-216 0 -300.5 94.5t-84.5 306.5z" />
<glyph unicode="&#xaa;" horiz-adv-x="892" d="M160 831q0 36 10 91q26 116 104 174.5t230 58.5q203 0 266 -90l14 74q9 50 9 86q0 79 -48 112t-170 33q-172 0 -256 -2l35 92q68 2 232 2q165 0 236 -57.5t71 -167.5q0 -55 -10 -104l-82 -410q-10 -49 -33 -67.5t-76 -26.5q-118 -15 -205 -15q-163 0 -245 51.5t-82 165.5 zM260 846q0 -85 58.5 -113t181.5 -28q108 0 200 12l29 139q8 31 8 68q0 77 -53 109t-176 32q-118 0 -170.5 -33t-69.5 -123q-8 -33 -8 -63z" />
<glyph unicode="&#xab;" horiz-adv-x="1019" d="M53 475l23 113l479 364l-29 -141l-366 -285l256 -284l-25 -129zM502 475l22 113l480 364l-29 -141l-367 -285l256 -284l-24 -129z" />
<glyph unicode="&#xac;" d="M215 834l21 106h841l-94 -496h-117l76 390h-727z" />
<glyph unicode="&#xad;" horiz-adv-x="735" d="M76 547l43 108h571l-43 -108h-571z" />
<glyph unicode="&#xae;" horiz-adv-x="1196" d="M168 991q0 283 120 397.5t400 114.5q140 0 236 -26t161.5 -86.5t95 -158t29.5 -241.5t-29.5 -241.5t-95 -158t-161.5 -86.5t-236 -26q-280 0 -400 114.5t-120 397.5zM262 991q0 -125 21 -205t72 -130.5t130 -70.5t203 -20t203.5 20t131 70.5t72.5 130.5t21 205t-21 205 t-72.5 130.5t-131 70.5t-203.5 20t-203 -20t-130 -70.5t-72 -130.5t-21 -205zM494 731v539h215q99 0 143.5 -39.5t44.5 -126.5v-19q0 -113 -94 -147l119 -207h-107l-104 193h-121v-193h-96zM588 1004h106q64 0 86.5 16t22.5 65v15q0 53 -22.5 71.5t-86.5 18.5h-106v-186z " />
<glyph unicode="&#xaf;" horiz-adv-x="1024" d="M397 1282l19 98h526l-18 -98h-527z" />
<glyph unicode="&#xb0;" horiz-adv-x="731" d="M193 1225q0 143 78.5 219t230.5 76t231.5 -76t79.5 -219t-79.5 -219t-231.5 -76t-230.5 76t-78.5 219zM293 1225q0 -107 50 -157t159 -50t159 50t50 157t-50 157t-159 50t-159 -50t-50 -157z" />
<glyph unicode="&#xb1;" d="M84 2l20 107h852l-20 -107h-852zM203 655l20 107h375l76 389h112l-73 -389h374l-20 -107h-375l-76 -389h-114l76 389h-375z" />
<glyph unicode="&#xb2;" horiz-adv-x="761" d="M133 590l25 129q25 124 75 182.5t173 108.5l114 45q58 24 83.5 42t35.5 44q12 36 12 69q0 48 -32.5 70.5t-110.5 22.5q-170 0 -238 -5l35 93q69 4 213 4q238 0 238 -174q0 -62 -23 -109q-20 -51 -58.5 -82.5t-117.5 -62.5l-117 -45q-92 -37 -126.5 -74t-51.5 -121l-8 -43 h418l-35 -94h-504z" />
<glyph unicode="&#xb3;" horiz-adv-x="761" d="M127 592l35 92q76 -2 229 -2q100 0 149 28.5t66 104.5q6 24 6 49q0 56 -33 79.5t-106 23.5h-209l35 90h182q144 0 176 96q9 24 9 55q0 48 -33 70t-107 22q-28 0 -117.5 -1t-125.5 -1l39 95q72 2 210 2q238 0 238 -168q0 -51 -12 -88q-36 -98 -144 -125q103 -35 103 -152 q0 -38 -10 -76q-26 -103 -104.5 -150.5t-219.5 -47.5q-195 0 -256 4z" />
<glyph unicode="&#xb4;" horiz-adv-x="1024" d="M453 1227l288 258h152l-309 -258h-131z" />
<glyph unicode="&#xb5;" horiz-adv-x="1144" d="M-23 -358l273 1411h119l-127 -650q-13 -60 -13 -100q0 -119 78 -168t242 -49q120 0 248 16l186 951h119l-187 -947q-10 -56 -33.5 -76.5t-86.5 -31.5q-114 -16 -250 -16q-152 0 -238.5 35.5t-122.5 109.5l-92 -485h-115z" />
<glyph unicode="&#xb6;" horiz-adv-x="1304" d="M152 922q0 58 12 129q41 212 174 309.5t364 97.5h623l-354 -1816h-107l334 1722h-278l-334 -1722h-109l185 952h-125q-385 0 -385 328z" />
<glyph unicode="&#xb7;" horiz-adv-x="356" d="M121 684q0 113 102 113q82 0 82 -82q0 -113 -102 -113q-82 0 -82 82z" />
<glyph unicode="&#xb8;" horiz-adv-x="1024" d="M139 -403l37 86q78 -5 139 -5q69 0 101.5 23.5t32.5 81.5q0 31 -20 42t-64 11q-86 0 -121 -2l37 84q31 2 106 2q170 0 170 -129q0 -199 -252 -199q-83 0 -166 5z" />
<glyph unicode="&#xb9;" horiz-adv-x="761" d="M158 590l37 94h178l121 616h-207l37 93h290l-139 -709h209l-35 -94h-491z" />
<glyph unicode="&#xba;" horiz-adv-x="925" d="M186 899q0 66 19 166q42 220 134.5 314t285.5 94q156 0 234.5 -66.5t78.5 -220.5q0 -72 -18 -166q-42 -219 -136 -313.5t-286 -94.5q-154 0 -233 67t-79 220zM295 899q0 -108 51 -151t166 -43q135 0 196.5 65.5t98.5 245.5q20 97 20 172q0 106 -51 149t-164 43 q-135 0 -197.5 -66t-99.5 -245q-20 -97 -20 -170z" />
<glyph unicode="&#xbb;" horiz-adv-x="1019" d="M20 113l29 139l365 285l-254 286l24 129l338 -364l-24 -113zM467 113l29 139l366 285l-256 286l25 129l338 -364l-23 -113z" />
<glyph unicode="&#xbc;" horiz-adv-x="1718" d="M158 590l37 94h178l121 616h-207l37 93h290l-139 -709h209l-35 -94h-491zM311 0l1135 1393h123l-1135 -1393h-123zM954 184l17 82l393 537h111l-385 -529h305l45 238l102 16l-49 -254h123l-37 -90h-104l-35 -184h-99l35 184h-422z" />
<glyph unicode="&#xbd;" horiz-adv-x="1718" d="M158 590l37 94h178l121 616h-207l37 93h290l-139 -709h209l-35 -94h-491zM266 0l1135 1393h123l-1135 -1393h-123zM975 0l24 129q25 124 75 182.5t173 108.5l115 45q58 24 83.5 42t35.5 44q12 36 12 70q0 48 -32.5 70t-110.5 22q-183 0 -238 -4l35 92q69 4 213 4 q122 0 179.5 -43.5t57.5 -130.5q0 -64 -22 -109q-20 -51 -58.5 -82.5t-117.5 -62.5l-117 -45q-92 -37 -126.5 -74t-51.5 -121l-8 -43h417l-34 -94h-504z" />
<glyph unicode="&#xbe;" horiz-adv-x="1718" d="M127 592l35 92q76 -2 229 -2q100 0 149 28.5t66 104.5q6 24 6 49q0 56 -33 79.5t-106 23.5h-209l35 90h182q144 0 176 96q9 24 9 55q0 48 -33 70t-107 22q-28 0 -117.5 -1t-125.5 -1l39 95q72 2 210 2q238 0 238 -168q0 -51 -12 -88q-36 -98 -144 -125q103 -35 103 -152 q0 -38 -10 -76q-26 -103 -104.5 -150.5t-219.5 -47.5q-195 0 -256 4zM303 0l1135 1393h123l-1135 -1393h-123zM954 184l17 82l393 537h111l-385 -529h305l45 238l102 16l-49 -254h123l-37 -90h-104l-35 -184h-99l35 184h-422z" />
<glyph unicode="&#xbf;" horiz-adv-x="929" d="M-27 -119q0 23 7 74q10 69 33 124.5t52 92t75 69t86 52.5t102 45q51 21 75.5 32.5t53 28.5t40.5 31t26.5 39.5t21.5 53.5t16 73l19 92h116l-20 -113q-32 -150 -89 -211.5t-212 -119.5q-137 -52 -195.5 -111t-75.5 -176q-6 -43 -6 -74q0 -106 65.5 -149t211.5 -43 q235 0 340 4l-43 -103q-113 -6 -310 -6q-192 0 -290.5 68.5t-98.5 226.5zM592 944q0 113 102 113q82 0 82 -82q0 -113 -102 -113q-82 0 -82 82z" />
<glyph unicode="&#xc0;" horiz-adv-x="1327" d="M-59 0l845 1458h121l271 -1458h-121l-82 467h-643l-264 -467h-127zM393 575h563l-133 748zM639 1827h145l197 -244h-121z" />
<glyph unicode="&#xc1;" horiz-adv-x="1327" d="M-59 0l845 1458h121l271 -1458h-121l-82 467h-643l-264 -467h-127zM393 575h563l-133 748zM743 1583l283 244h164l-309 -244h-138z" />
<glyph unicode="&#xc2;" horiz-adv-x="1327" d="M-59 0l845 1458h121l271 -1458h-121l-82 467h-643l-264 -467h-127zM393 575h563l-133 748zM551 1583l289 236h127l200 -236h-123l-147 162l-213 -162h-133z" />
<glyph unicode="&#xc3;" horiz-adv-x="1327" d="M-59 0l845 1458h121l271 -1458h-121l-82 467h-643l-264 -467h-127zM393 575h563l-133 748zM547 1577l4 22q25 101 65.5 147t122.5 46q69 0 138 -47l61 -39q55 -35 90 -35q31 0 50.5 19.5t35.5 76.5l6 25h94l-4 -23q-25 -101 -65.5 -146.5t-122.5 -45.5q-68 0 -137 47 l-62 39q-55 35 -90 35q-31 0 -50.5 -19.5t-35.5 -76.5l-6 -25h-94z" />
<glyph unicode="&#xc4;" horiz-adv-x="1327" d="M-59 0l845 1458h121l271 -1458h-121l-82 467h-643l-264 -467h-127zM393 575h563l-133 748zM641 1655q0 104 96 104q74 0 74 -71q0 -105 -94 -105q-76 0 -76 72zM952 1655q0 104 97 104q73 0 73 -71q0 -105 -94 -105q-76 0 -76 72z" />
<glyph unicode="&#xc5;" horiz-adv-x="1327" d="M-59 0l815 1405q-59 19 -92 63.5t-33 108.5q0 13 4 45q41 229 268 229q100 0 159.5 -47t59.5 -137q0 -13 -4 -45q-36 -191 -200 -223l260 -1399h-121l-82 467h-643l-264 -467h-127zM393 575h563l-133 748zM727 1581q0 -57 33 -79.5t98 -22.5q74 0 108 28.5t52 94.5 q8 27 8 61q0 57 -33 79.5t-98 22.5q-74 0 -108 -28.5t-52 -94.5q-8 -27 -8 -61z" />
<glyph unicode="&#xc6;" horiz-adv-x="1957" d="M-86 0l1128 1458h969l-45 -110h-766l-106 -543h743l-43 -111h-721l-115 -583h814l-43 -111h-912l92 477h-495l-365 -477h-135zM496 586h436l143 739h-10z" />
<glyph unicode="&#xc7;" horiz-adv-x="1157" d="M139 461q0 135 33 291q34 168 83 290t111.5 203t148.5 129t184.5 68t228.5 20q215 0 291 -6l-45 -110q-92 6 -256 6q-109 0 -188.5 -15.5t-150.5 -55.5t-122 -110t-92 -178t-70 -260q-31 -158 -31 -264q0 -104 26 -174.5t82 -112t135 -59t193 -17.5q92 0 277 5l-45 -111 q-42 -4 -248 -4q-291 0 -418 116.5t-127 348.5zM293 -401l37 88q62 -4 143 -4q68 0 101.5 23t33.5 77q0 30 -20.5 40.5t-65.5 10.5q-90 0 -125 -2l37 86q31 2 111 2q174 0 174 -129q0 -13 -4 -41q-12 -75 -77 -116.5t-175 -41.5q-55 0 -170 7z" />
<glyph unicode="&#xc8;" horiz-adv-x="1204" d="M63 0l285 1458h909l-45 -110h-766l-106 -543h743l-43 -111h-721l-114 -583h813l-43 -111h-912zM639 1827h145l197 -244h-121z" />
<glyph unicode="&#xc9;" horiz-adv-x="1204" d="M63 0l285 1458h909l-45 -110h-766l-106 -543h743l-43 -111h-721l-114 -583h813l-43 -111h-912zM670 1583l282 244h164l-309 -244h-137z" />
<glyph unicode="&#xca;" horiz-adv-x="1204" d="M63 0l285 1458h909l-45 -110h-766l-106 -543h743l-43 -111h-721l-114 -583h813l-43 -111h-912zM516 1583l289 236h127l201 -236h-123l-148 162l-213 -162h-133z" />
<glyph unicode="&#xcb;" horiz-adv-x="1204" d="M63 0l285 1458h909l-45 -110h-766l-106 -543h743l-43 -111h-721l-114 -583h813l-43 -111h-912zM600 1655q0 104 96 104q74 0 74 -71q0 -105 -94 -105q-76 0 -76 72zM911 1655q0 104 97 104q73 0 73 -71q0 -105 -94 -105q-76 0 -76 72z" />
<glyph unicode="&#xcc;" horiz-adv-x="450" d="M63 0l285 1458h119l-285 -1458h-119zM174 1827h145l197 -244h-121z" />
<glyph unicode="&#xcd;" horiz-adv-x="450" d="M63 0l285 1458h119l-285 -1458h-119zM334 1583l282 244h164l-309 -244h-137z" />
<glyph unicode="&#xce;" horiz-adv-x="450" d="M63 0l285 1458h119l-285 -1458h-119zM109 1583l288 236h127l201 -236h-123l-147 162l-213 -162h-133z" />
<glyph unicode="&#xcf;" horiz-adv-x="450" d="M63 0l285 1458h119l-285 -1458h-119zM207 1655q0 104 96 104q74 0 74 -71q0 -105 -94 -105q-76 0 -76 72zM518 1655q0 104 96 104q74 0 74 -71q0 -105 -94 -105q-76 0 -76 72z" />
<glyph unicode="&#xd0;" horiz-adv-x="1404" d="M92 684l19 102h147l131 672h414q283 0 414 -117t131 -366q0 -106 -29 -264q-30 -164 -79.5 -285t-115.5 -202.5t-155.5 -131.5t-193 -71t-236.5 -21h-435l134 684h-146zM246 111h307q146 0 247.5 29t179 100.5t127 185.5t85.5 289q31 155 31 260q0 201 -101.5 287 t-324.5 86h-310l-110 -562h381l-21 -102h-381z" />
<glyph unicode="&#xd1;" horiz-adv-x="1404" d="M63 0l285 1458h111l598 -1270l248 1270h114l-282 -1458h-109l-602 1272l-246 -1272h-117zM573 1577l5 22q25 101 65.5 147t122.5 46q68 0 137 -47l62 -39q55 -35 90 -35q31 0 50.5 19.5t35.5 76.5l6 25h94l-4 -23q-25 -101 -65.5 -146.5t-122.5 -45.5q-69 0 -138 47 l-61 39q-55 35 -90 35q-31 0 -50.5 -19.5t-35.5 -76.5l-6 -25h-95z" />
<glyph unicode="&#xd2;" horiz-adv-x="1421" d="M137 434q0 128 31 316q49 280 138.5 444t224 233.5t339.5 69.5q255 0 373.5 -109t118.5 -362q0 -127 -31 -315q-49 -281 -138.5 -445t-224 -233.5t-339.5 -69.5q-255 0 -373.5 109t-118.5 362zM258 428q0 -106 23.5 -176.5t74 -109.5t117 -54.5t164.5 -15.5 q97 0 167.5 15t135.5 56t112 113.5t86 186.5t68 276q35 190 35 313q0 106 -23.5 176.5t-74 110t-117.5 55t-166 15.5q-96 0 -166 -15.5t-134.5 -57t-111.5 -114.5t-86.5 -186.5t-68.5 -274.5q-35 -190 -35 -313zM729 1827h145l197 -244h-121z" />
<glyph unicode="&#xd3;" horiz-adv-x="1421" d="M137 434q0 128 31 316q49 280 138.5 444t224 233.5t339.5 69.5q255 0 373.5 -109t118.5 -362q0 -127 -31 -315q-49 -281 -138.5 -445t-224 -233.5t-339.5 -69.5q-255 0 -373.5 109t-118.5 362zM258 428q0 -106 23.5 -176.5t74 -109.5t117 -54.5t164.5 -15.5 q97 0 167.5 15t135.5 56t112 113.5t86 186.5t68 276q35 190 35 313q0 106 -23.5 176.5t-74 110t-117.5 55t-166 15.5q-96 0 -166 -15.5t-134.5 -57t-111.5 -114.5t-86.5 -186.5t-68.5 -274.5q-35 -190 -35 -313zM739 1583l283 244h164l-309 -244h-138z" />
<glyph unicode="&#xd4;" horiz-adv-x="1421" d="M137 434q0 128 31 316q49 280 138.5 444t224 233.5t339.5 69.5q255 0 373.5 -109t118.5 -362q0 -127 -31 -315q-49 -281 -138.5 -445t-224 -233.5t-339.5 -69.5q-255 0 -373.5 109t-118.5 362zM258 428q0 -106 23.5 -176.5t74 -109.5t117 -54.5t164.5 -15.5 q97 0 167.5 15t135.5 56t112 113.5t86 186.5t68 276q35 190 35 313q0 106 -23.5 176.5t-74 110t-117.5 55t-166 15.5q-96 0 -166 -15.5t-134.5 -57t-111.5 -114.5t-86.5 -186.5t-68.5 -274.5q-35 -190 -35 -313zM594 1583l289 236h127l200 -236h-123l-147 162l-213 -162 h-133z" />
<glyph unicode="&#xd5;" horiz-adv-x="1421" d="M137 434q0 128 31 316q49 280 138.5 444t224 233.5t339.5 69.5q255 0 373.5 -109t118.5 -362q0 -127 -31 -315q-49 -281 -138.5 -445t-224 -233.5t-339.5 -69.5q-255 0 -373.5 109t-118.5 362zM258 428q0 -106 23.5 -176.5t74 -109.5t117 -54.5t164.5 -15.5 q97 0 167.5 15t135.5 56t112 113.5t86 186.5t68 276q35 190 35 313q0 106 -23.5 176.5t-74 110t-117.5 55t-166 15.5q-96 0 -166 -15.5t-134.5 -57t-111.5 -114.5t-86.5 -186.5t-68.5 -274.5q-35 -190 -35 -313zM584 1577l4 22q25 101 65.5 147t122.5 46q68 0 137 -47 l62 -39q55 -35 90 -35q31 0 50.5 19.5t35.5 76.5l6 25h94l-4 -23q-25 -101 -65.5 -146.5t-122.5 -45.5q-68 0 -137 47l-62 39q-55 35 -90 35q-31 0 -50.5 -19.5t-35.5 -76.5l-6 -25h-94z" />
<glyph unicode="&#xd6;" horiz-adv-x="1421" d="M137 434q0 128 31 316q49 280 138.5 444t224 233.5t339.5 69.5q255 0 373.5 -109t118.5 -362q0 -127 -31 -315q-49 -281 -138.5 -445t-224 -233.5t-339.5 -69.5q-255 0 -373.5 109t-118.5 362zM258 428q0 -106 23.5 -176.5t74 -109.5t117 -54.5t164.5 -15.5 q97 0 167.5 15t135.5 56t112 113.5t86 186.5t68 276q35 190 35 313q0 106 -23.5 176.5t-74 110t-117.5 55t-166 15.5q-96 0 -166 -15.5t-134.5 -57t-111.5 -114.5t-86.5 -186.5t-68.5 -274.5q-35 -190 -35 -313zM678 1655q0 104 96 104q74 0 74 -71q0 -105 -94 -105 q-76 0 -76 72zM989 1655q0 104 96 104q74 0 74 -71q0 -105 -94 -105q-76 0 -76 72z" />
<glyph unicode="&#xd7;" d="M219 406l346 294l-235 304l86 71l237 -299l351 299l71 -84l-354 -301l233 -295l-90 -71l-229 292l-346 -292z" />
<glyph unicode="&#xd8;" horiz-adv-x="1421" d="M47 -182l191 270q-101 113 -101 346q0 128 31 316q49 280 138.5 444t224 233.5t339.5 69.5t316 -65l149 210h117l-192 -272q102 -114 102 -344q0 -147 -33 -315q-49 -281 -138.5 -445t-223.5 -233.5t-338 -69.5q-199 0 -316 66l-149 -211h-117zM258 428q0 -158 51 -238 l809 1145q-87 54 -258 54q-96 0 -166 -15.5t-134.5 -57t-111.5 -114.5t-86.5 -186.5t-68.5 -274.5q-35 -190 -35 -313zM379 123q82 -51 258 -51q96 0 166 15t135.5 56t112.5 113.5t86 187t67 275.5q35 190 35 313q0 156 -51 236z" />
<glyph unicode="&#xd9;" horiz-adv-x="1349" d="M135 350q0 71 17 168l182 940h119l-183 -946q-18 -99 -18 -156q0 -159 88.5 -221.5t271.5 -62.5q101 0 171.5 18.5t128.5 66t96 131t63 210.5l186 960h119l-190 -987q-28 -144 -76.5 -242.5t-121.5 -157t-164 -83.5t-214 -25q-236 0 -355.5 94t-119.5 293zM664 1827h145 l197 -244h-121z" />
<glyph unicode="&#xda;" horiz-adv-x="1349" d="M135 350q0 71 17 168l182 940h119l-183 -946q-18 -99 -18 -156q0 -159 88.5 -221.5t271.5 -62.5q101 0 171.5 18.5t128.5 66t96 131t63 210.5l186 960h119l-190 -987q-28 -144 -76.5 -242.5t-121.5 -157t-164 -83.5t-214 -25q-236 0 -355.5 94t-119.5 293zM686 1583 l283 244h164l-310 -244h-137z" />
<glyph unicode="&#xdb;" horiz-adv-x="1349" d="M135 350q0 71 17 168l182 940h119l-183 -946q-18 -99 -18 -156q0 -159 88.5 -221.5t271.5 -62.5q101 0 171.5 18.5t128.5 66t96 131t63 210.5l186 960h119l-190 -987q-28 -144 -76.5 -242.5t-121.5 -157t-164 -83.5t-214 -25q-236 0 -355.5 94t-119.5 293zM567 1583 l289 236h127l201 -236h-123l-148 162l-213 -162h-133z" />
<glyph unicode="&#xdc;" horiz-adv-x="1349" d="M135 350q0 71 17 168l182 940h119l-183 -946q-18 -99 -18 -156q0 -159 88.5 -221.5t271.5 -62.5q101 0 171.5 18.5t128.5 66t96 131t63 210.5l186 960h119l-190 -987q-28 -144 -76.5 -242.5t-121.5 -157t-164 -83.5t-214 -25q-236 0 -355.5 94t-119.5 293zM641 1655 q0 104 96 104q74 0 74 -71q0 -105 -94 -105q-76 0 -76 72zM952 1655q0 104 97 104q73 0 73 -71q0 -105 -94 -105q-76 0 -76 72z" />
<glyph unicode="&#xdd;" horiz-adv-x="1241" d="M213 1458h125l313 -723l598 723h140l-691 -827l-123 -631h-118l123 631zM655 1583l283 244h164l-309 -244h-138z" />
<glyph unicode="&#xde;" horiz-adv-x="1220" d="M61 0l287 1458h119l-57 -284h299q235 0 353 -80t118 -256q0 -38 -11 -109q-18 -116 -64 -196t-120.5 -124.5t-165 -63.5t-213.5 -19h-360l-64 -326h-121zM266 436h348q211 0 306 62t127 221q14 72 14 110q0 129 -88 181.5t-268 52.5h-316z" />
<glyph unicode="&#xdf;" horiz-adv-x="1124" d="M47 0l211 1096q43 225 157.5 332.5t321.5 107.5q190 0 279.5 -83.5t89.5 -223.5q0 -38 -8 -90q-43 -244 -256 -308q188 -68 188 -301q0 -40 -6 -84q-16 -124 -60 -212.5t-113.5 -139.5t-153.5 -74.5t-189 -23.5q-79 0 -133 10l37 100q46 -6 98 -6q57 0 103.5 6.5t98 29 t89 60t68 103.5t42.5 156q4 18 4 80q0 114 -59 179.5t-201 65.5h-123l41 107h91q63 0 112 11.5t92.5 39.5t73 80t43.5 127q6 33 6 80q0 209 -266 209q-154 0 -234 -80t-116 -277l-211 -1077h-117z" />
<glyph unicode="&#xe0;" horiz-adv-x="1095" d="M61 258q0 46 13 113q35 153 139 226t285 73q268 0 342 -129l20 106q14 72 14 113q0 100 -64.5 146t-215.5 46q-245 0 -326 -4l41 105q31 4 295 4q201 0 291 -74.5t90 -214.5q0 -49 -14 -131l-105 -528q-10 -57 -34 -77.5t-84 -31.5q-113 -18 -271 -18q-206 0 -311 64.5 t-105 211.5zM178 270q0 -47 15.5 -80.5t41 -53.5t67.5 -31.5t85.5 -15t104.5 -3.5q111 0 262 18l37 191q8 41 8 82q0 106 -72 149t-225 43q-146 0 -221 -48.5t-95 -168.5q-8 -36 -8 -82zM481 1485h135l197 -258h-117z" />
<glyph unicode="&#xe1;" horiz-adv-x="1095" d="M61 258q0 46 13 113q35 153 139 226t285 73q268 0 342 -129l20 106q14 72 14 113q0 100 -64.5 146t-215.5 46q-245 0 -326 -4l41 105q31 4 295 4q201 0 291 -74.5t90 -214.5q0 -49 -14 -131l-105 -528q-10 -57 -34 -77.5t-84 -31.5q-113 -18 -271 -18q-206 0 -311 64.5 t-105 211.5zM178 270q0 -47 15.5 -80.5t41 -53.5t67.5 -31.5t85.5 -15t104.5 -3.5q111 0 262 18l37 191q8 41 8 82q0 106 -72 149t-225 43q-146 0 -221 -48.5t-95 -168.5q-8 -36 -8 -82zM520 1227l289 258h152l-310 -258h-131z" />
<glyph unicode="&#xe2;" horiz-adv-x="1095" d="M61 258q0 46 13 113q35 153 139 226t285 73q268 0 342 -129l20 106q14 72 14 113q0 100 -64.5 146t-215.5 46q-245 0 -326 -4l41 105q31 4 295 4q201 0 291 -74.5t90 -214.5q0 -49 -14 -131l-105 -528q-10 -57 -34 -77.5t-84 -31.5q-113 -18 -271 -18q-206 0 -311 64.5 t-105 211.5zM178 270q0 -47 15.5 -80.5t41 -53.5t67.5 -31.5t85.5 -15t104.5 -3.5q111 0 262 18l37 191q8 41 8 82q0 106 -72 149t-225 43q-146 0 -221 -48.5t-95 -168.5q-8 -36 -8 -82zM379 1227l276 254h123l176 -254h-118l-129 176l-201 -176h-127z" />
<glyph unicode="&#xe3;" horiz-adv-x="1095" d="M61 258q0 46 13 113q35 153 139 226t285 73q268 0 342 -129l20 106q14 72 14 113q0 100 -64.5 146t-215.5 46q-245 0 -326 -4l41 105q31 4 295 4q201 0 291 -74.5t90 -214.5q0 -49 -14 -131l-105 -528q-10 -57 -34 -77.5t-84 -31.5q-113 -18 -271 -18q-206 0 -311 64.5 t-105 211.5zM178 270q0 -47 15.5 -80.5t41 -53.5t67.5 -31.5t85.5 -15t104.5 -3.5q111 0 262 18l37 191q8 41 8 82q0 106 -72 149t-225 43q-146 0 -221 -48.5t-95 -168.5q-8 -36 -8 -82zM360 1223l5 18q23 102 66 147.5t108 45.5q64 0 137 -45l59 -35q26 -15 36 -20.5 t26.5 -11t33.5 -5.5q58 0 80 98l4 19h91l-5 -19q-22 -102 -65 -147t-109 -45q-64 0 -137 45l-59 35q-24 14 -35.5 20t-27.5 11t-33 5q-58 0 -80 -98l-4 -18h-91z" />
<glyph unicode="&#xe4;" horiz-adv-x="1095" d="M61 258q0 46 13 113q35 153 139 226t285 73q268 0 342 -129l20 106q14 72 14 113q0 100 -64.5 146t-215.5 46q-245 0 -326 -4l41 105q31 4 295 4q201 0 291 -74.5t90 -214.5q0 -49 -14 -131l-105 -528q-10 -57 -34 -77.5t-84 -31.5q-113 -18 -271 -18q-206 0 -311 64.5 t-105 211.5zM178 270q0 -47 15.5 -80.5t41 -53.5t67.5 -31.5t85.5 -15t104.5 -3.5q111 0 262 18l37 191q8 41 8 82q0 106 -72 149t-225 43q-146 0 -221 -48.5t-95 -168.5q-8 -36 -8 -82zM457 1329q0 103 96 103q72 0 72 -70q0 -102 -95 -102q-37 0 -55 16t-18 53zM758 1329 q0 103 96 103q72 0 72 -70q0 -102 -95 -102q-37 0 -55 16t-18 53z" />
<glyph unicode="&#xe5;" horiz-adv-x="1095" d="M61 258q0 46 13 113q35 153 139 226t285 73q268 0 342 -129l20 106q14 72 14 113q0 100 -64.5 146t-215.5 46q-245 0 -326 -4l41 105q31 4 295 4q201 0 291 -74.5t90 -214.5q0 -49 -14 -131l-105 -528q-10 -57 -34 -77.5t-84 -31.5q-113 -18 -271 -18q-206 0 -311 64.5 t-105 211.5zM178 270q0 -47 15.5 -80.5t41 -53.5t67.5 -31.5t85.5 -15t104.5 -3.5q111 0 262 18l37 191q8 41 8 82q0 106 -72 149t-225 43q-146 0 -221 -48.5t-95 -168.5q-8 -36 -8 -82zM465 1348q0 13 4 45q41 229 268 229q100 0 159.5 -47t59.5 -137q0 -13 -4 -45 q-41 -230 -268 -230q-100 0 -159.5 47.5t-59.5 137.5zM561 1352q0 -57 33.5 -80t97.5 -23q74 0 108 28.5t52 94.5q8 27 8 62q0 57 -33 79.5t-98 22.5q-74 0 -108 -28.5t-52 -94.5q-8 -27 -8 -61z" />
<glyph unicode="&#xe6;" horiz-adv-x="1785" d="M61 248q0 45 13 108q31 143 133.5 210t300.5 67h350q16 72 16 125q0 104 -64 149t-216 45q-245 0 -326 -4l41 105q31 4 295 4q303 0 359 -195q83 124 187 168.5t247 44.5q174 0 258 -61.5t84 -171.5q0 -30 -10 -82q-28 -120 -125.5 -175t-298.5 -55h-347 q-18 -89 -18 -163q0 -139 71 -203t238 -64q133 0 297 9l-41 -105q-117 -8 -262 -8q-322 0 -391 213q-108 -227 -428 -227q-179 0 -271 70t-92 196zM178 258q0 -172 252 -172q170 0 260.5 70t126.5 245l27 131h-336q-150 0 -224 -42.5t-98 -149.5q-8 -41 -8 -82zM981 631h322 q157 0 219.5 29t87.5 110q10 42 10 64q0 68 -54 103.5t-173 35.5q-174 0 -266 -75.5t-146 -266.5z" />
<glyph unicode="&#xe7;" horiz-adv-x="921" d="M88 352q0 89 25 211q24 122 62.5 209.5t87.5 142.5t118 86.5t143.5 43.5t175.5 12q67 0 203 -4l-43 -105q-94 4 -176 4q-106 0 -175.5 -16t-125 -60t-90.5 -120t-60 -197q-24 -120 -24 -201q0 -147 76.5 -202.5t238.5 -55.5q48 0 228 4l-43 -104q-37 -4 -195 -4 q-226 0 -326 89.5t-100 266.5zM152 -403l36 86q77 -5 140 -5q69 0 101 23.5t32 81.5q0 31 -20 42t-64 11q-86 0 -121 -2l37 84q31 2 106 2q170 0 170 -129q0 -199 -252 -199q-83 0 -165 5z" />
<glyph unicode="&#xe8;" horiz-adv-x="1052" d="M88 354q0 100 25 213q35 149 84 250t117 159.5t148 83.5t187 25q182 0 268.5 -66.5t86.5 -184.5q0 -41 -13 -95q-28 -135 -128 -197.5t-300 -62.5h-344q-10 -54 -10 -117q0 -134 68 -198t233 -64q186 0 303 9l-41 -105q-90 -8 -266 -8q-223 0 -320.5 92.5t-97.5 265.5z M236 580h327q109 0 171 18t92 52.5t51 99.5q10 42 10 77q0 158 -244 158q-172 0 -265 -91t-142 -314zM487 1485h136l196 -258h-117z" />
<glyph unicode="&#xe9;" horiz-adv-x="1052" d="M88 354q0 100 25 213q35 149 84 250t117 159.5t148 83.5t187 25q182 0 268.5 -66.5t86.5 -184.5q0 -41 -13 -95q-28 -135 -128 -197.5t-300 -62.5h-344q-10 -54 -10 -117q0 -134 68 -198t233 -64q186 0 303 9l-41 -105q-90 -8 -266 -8q-223 0 -320.5 92.5t-97.5 265.5z M236 580h327q109 0 171 18t92 52.5t51 99.5q10 42 10 77q0 158 -244 158q-172 0 -265 -91t-142 -314zM549 1227l289 258h151l-309 -258h-131z" />
<glyph unicode="&#xea;" horiz-adv-x="1052" d="M88 354q0 100 25 213q35 149 84 250t117 159.5t148 83.5t187 25q182 0 268.5 -66.5t86.5 -184.5q0 -41 -13 -95q-28 -135 -128 -197.5t-300 -62.5h-344q-10 -54 -10 -117q0 -134 68 -198t233 -64q186 0 303 9l-41 -105q-90 -8 -266 -8q-223 0 -320.5 92.5t-97.5 265.5z M236 580h327q109 0 171 18t92 52.5t51 99.5q10 42 10 77q0 158 -244 158q-172 0 -265 -91t-142 -314zM377 1227l276 254h123l176 -254h-118l-129 176l-201 -176h-127z" />
<glyph unicode="&#xeb;" horiz-adv-x="1052" d="M88 354q0 100 25 213q35 149 84 250t117 159.5t148 83.5t187 25q182 0 268.5 -66.5t86.5 -184.5q0 -41 -13 -95q-28 -135 -128 -197.5t-300 -62.5h-344q-10 -54 -10 -117q0 -134 68 -198t233 -64q186 0 303 9l-41 -105q-90 -8 -266 -8q-223 0 -320.5 92.5t-97.5 265.5z M236 580h327q109 0 171 18t92 52.5t51 99.5q10 42 10 77q0 158 -244 158q-172 0 -265 -91t-142 -314zM453 1329q0 103 96 103q72 0 72 -70q0 -102 -95 -102q-37 0 -55 16t-18 53zM754 1329q0 103 96 103q72 0 72 -70q0 -102 -95 -102q-37 0 -55 16t-18 53z" />
<glyph unicode="&#xec;" horiz-adv-x="413" d="M45 0l205 1053h119l-205 -1053h-119zM92 1485h135l197 -258h-117z" />
<glyph unicode="&#xed;" horiz-adv-x="413" d="M45 0l205 1053h119l-205 -1053h-119zM244 1227l288 258h152l-309 -258h-131z" />
<glyph unicode="&#xee;" horiz-adv-x="413" d="M35 1227l276 254h123l176 -254h-118l-130 176l-200 -176h-127zM45 0l205 1053h119l-205 -1053h-119z" />
<glyph unicode="&#xef;" horiz-adv-x="413" d="M45 0l205 1053h119l-205 -1053h-119zM119 1329q0 103 96 103q72 0 72 -70q0 -51 -22 -76.5t-72 -25.5q-74 0 -74 69zM420 1329q0 103 96 103q72 0 72 -70q0 -51 -22 -76.5t-72 -25.5q-74 0 -74 69z" />
<glyph unicode="&#xf0;" horiz-adv-x="1165" d="M84 324q0 68 16 174q43 248 167 362.5t354 114.5q265 0 335 -174q9 65 9 125q0 155 -45 262l-306 -105l-26 82l293 103q-53 88 -146 168l94 67q105 -91 162 -196l199 69l29 -84l-193 -67q51 -120 51 -305q0 -200 -73 -523q-23 -106 -60 -182.5t-97 -134t-149.5 -85.5 t-210.5 -28q-201 0 -302 85.5t-101 271.5zM203 324q0 -138 71 -195t228 -57q179 0 267 80.5t124 287.5q20 103 20 181q0 137 -71 193t-228 56q-179 0 -265.5 -80t-127.5 -288q-18 -105 -18 -178z" />
<glyph unicode="&#xf1;" horiz-adv-x="1155" d="M45 0l133 680q41 216 153 310.5t326 94.5q387 0 387 -307q0 -58 -12 -123l-127 -655h-119l129 662q13 67 13 106q0 116 -69.5 164.5t-205.5 48.5q-162 0 -243.5 -67t-114.5 -242l-131 -672h-119zM377 1219l4 18q23 102 66 147.5t108 45.5q62 0 137 -46l60 -34 q26 -15 36 -20.5t26.5 -11t33.5 -5.5q58 0 80 98l4 19h90l-4 -19q-22 -102 -65 -147t-109 -45q-64 0 -137 45l-60 34q-26 15 -36 20.5t-26.5 11t-33.5 5.5q-58 0 -80 -98l-4 -18h-90z" />
<glyph unicode="&#xf2;" horiz-adv-x="1138" d="M90 342q0 80 23 215q50 279 173 403.5t365 124.5q198 0 298 -86t100 -286q0 -100 -23 -215q-55 -282 -176 -406.5t-361 -124.5q-199 0 -299 86.5t-100 288.5zM209 340q0 -148 69.5 -208t223.5 -60q180 0 269.5 91.5t133.5 328.5q27 149 27 223q0 146 -69.5 206t-225.5 60 q-182 0 -269.5 -90.5t-131.5 -329.5q-27 -149 -27 -221zM481 1485h135l197 -258h-117z" />
<glyph unicode="&#xf3;" horiz-adv-x="1138" d="M90 342q0 80 23 215q50 279 173 403.5t365 124.5q198 0 298 -86t100 -286q0 -100 -23 -215q-55 -282 -176 -406.5t-361 -124.5q-199 0 -299 86.5t-100 288.5zM209 340q0 -148 69.5 -208t223.5 -60q180 0 269.5 91.5t133.5 328.5q27 149 27 223q0 146 -69.5 206t-225.5 60 q-182 0 -269.5 -90.5t-131.5 -329.5q-27 -149 -27 -221zM545 1227l289 258h151l-309 -258h-131z" />
<glyph unicode="&#xf4;" horiz-adv-x="1138" d="M90 342q0 80 23 215q50 279 173 403.5t365 124.5q198 0 298 -86t100 -286q0 -100 -23 -215q-55 -282 -176 -406.5t-361 -124.5q-199 0 -299 86.5t-100 288.5zM209 340q0 -148 69.5 -208t223.5 -60q180 0 269.5 91.5t133.5 328.5q27 149 27 223q0 146 -69.5 206t-225.5 60 q-182 0 -269.5 -90.5t-131.5 -329.5q-27 -149 -27 -221zM395 1227l277 254h123l176 -254h-119l-129 176l-201 -176h-127z" />
<glyph unicode="&#xf5;" horiz-adv-x="1138" d="M90 342q0 80 23 215q50 279 173 403.5t365 124.5q198 0 298 -86t100 -286q0 -100 -23 -215q-55 -282 -176 -406.5t-361 -124.5q-199 0 -299 86.5t-100 288.5zM209 340q0 -148 69.5 -208t223.5 -60q180 0 269.5 91.5t133.5 328.5q27 149 27 223q0 146 -69.5 206t-225.5 60 q-182 0 -269.5 -90.5t-131.5 -329.5q-27 -149 -27 -221zM381 1223l4 18q23 102 66 147.5t108 45.5q64 0 137 -45l60 -35q26 -15 36 -20.5t26.5 -11t33.5 -5.5q58 0 80 98l4 19h90l-4 -19q-22 -102 -65 -147t-109 -45q-64 0 -137 45l-60 35q-24 14 -35.5 20t-27.5 11t-33 5 q-58 0 -80 -98l-4 -18h-90z" />
<glyph unicode="&#xf6;" horiz-adv-x="1138" d="M90 342q0 80 23 215q50 279 173 403.5t365 124.5q198 0 298 -86t100 -286q0 -100 -23 -215q-55 -282 -176 -406.5t-361 -124.5q-199 0 -299 86.5t-100 288.5zM209 340q0 -148 69.5 -208t223.5 -60q180 0 269.5 91.5t133.5 328.5q27 149 27 223q0 146 -69.5 206t-225.5 60 q-182 0 -269.5 -90.5t-131.5 -329.5q-27 -149 -27 -221zM471 1329q0 103 96 103q72 0 72 -70q0 -51 -22 -76.5t-72 -25.5q-74 0 -74 69zM772 1329q0 103 96 103q72 0 72 -70q0 -51 -22 -76.5t-72 -25.5q-74 0 -74 69z" />
<glyph unicode="&#xf7;" d="M205 647l20 107h854l-20 -107h-854zM481 348q0 109 99 109q79 0 79 -78q0 -109 -100 -109q-78 0 -78 78zM612 1022q0 108 99 108q77 0 77 -77q0 -109 -98 -109q-78 0 -78 78z" />
<glyph unicode="&#xf8;" horiz-adv-x="1138" d="M16 -143l158 213q-84 90 -84 272q0 80 23 215q50 279 173 403.5t365 124.5q146 0 238 -47l121 164h110l-159 -217q88 -91 88 -272q0 -100 -23 -215q-55 -282 -176 -406.5t-361 -124.5q-151 0 -243 47l-117 -157h-113zM209 340q0 -109 37 -170l575 776q-68 35 -184 35 q-182 0 -269.5 -90.5t-131.5 -329.5q-27 -149 -27 -221zM313 106q67 -34 189 -34q180 0 269.5 91.5t133.5 328.5q27 149 27 223q0 113 -43 174z" />
<glyph unicode="&#xf9;" horiz-adv-x="1142" d="M111 274q0 60 12 125l127 654h119l-129 -662q-13 -67 -13 -108q0 -116 67 -163.5t202 -47.5q158 0 238 70.5t116 248.5l129 662h119l-131 -674q-43 -220 -154 -316t-324 -96q-180 0 -279 74.5t-99 232.5zM489 1485h136l196 -258h-116z" />
<glyph unicode="&#xfa;" horiz-adv-x="1142" d="M111 274q0 60 12 125l127 654h119l-129 -662q-13 -67 -13 -108q0 -116 67 -163.5t202 -47.5q158 0 238 70.5t116 248.5l129 662h119l-131 -674q-43 -220 -154 -316t-324 -96q-180 0 -279 74.5t-99 232.5zM543 1227l288 258h152l-309 -258h-131z" />
<glyph unicode="&#xfb;" horiz-adv-x="1142" d="M111 274q0 60 12 125l127 654h119l-129 -662q-13 -67 -13 -108q0 -116 67 -163.5t202 -47.5q158 0 238 70.5t116 248.5l129 662h119l-131 -674q-43 -220 -154 -316t-324 -96q-180 0 -279 74.5t-99 232.5zM403 1227l277 254h123l176 -254h-119l-129 176l-201 -176h-127z " />
<glyph unicode="&#xfc;" horiz-adv-x="1142" d="M111 274q0 60 12 125l127 654h119l-129 -662q-13 -67 -13 -108q0 -116 67 -163.5t202 -47.5q158 0 238 70.5t116 248.5l129 662h119l-131 -674q-43 -220 -154 -316t-324 -96q-180 0 -279 74.5t-99 232.5zM475 1329q0 103 96 103q72 0 72 -70q0 -51 -22 -76.5t-72 -25.5 q-74 0 -74 69zM776 1329q0 103 96 103q72 0 72 -70q0 -51 -22 -76.5t-72 -25.5q-74 0 -74 69z" />
<glyph unicode="&#xfd;" horiz-adv-x="1153" d="M55 -358l41 106q160 -6 324 -6q176 0 261 79t122 269l12 64q-103 -117 -321 -117q-369 0 -369 305q0 56 12 127l113 584h119l-115 -592q-12 -61 -12 -111q0 -116 65.5 -162.5t200.5 -46.5q165 0 249.5 69.5t116.5 244.5l115 598h119l-184 -953q-24 -120 -59 -202.5 t-93.5 -143t-145 -88.5t-208.5 -28q-85 0 -363 4zM543 1227l288 258h152l-309 -258h-131z" />
<glyph unicode="&#xfe;" horiz-adv-x="1173" d="M-25 -358l365 1880h119l-115 -580q113 143 340 143q399 0 399 -374q0 -106 -22 -219q-53 -277 -174.5 -401t-347.5 -124q-283 0 -349 180l-98 -505h-117zM244 342q0 -149 70.5 -209.5t226.5 -60.5q119 0 192.5 36.5t123.5 126.5t83 254q25 134 25 224q0 145 -70.5 206.5 t-222.5 61.5q-172 0 -263 -90t-139 -326q-26 -143 -26 -223z" />
<glyph unicode="&#xff;" horiz-adv-x="1153" d="M55 -358l41 106q160 -6 324 -6q176 0 261 79t122 269l12 64q-103 -117 -321 -117q-369 0 -369 305q0 56 12 127l113 584h119l-115 -592q-12 -61 -12 -111q0 -116 65.5 -162.5t200.5 -46.5q165 0 249.5 69.5t116.5 244.5l115 598h119l-184 -953q-24 -120 -59 -202.5 t-93.5 -143t-145 -88.5t-208.5 -28q-85 0 -363 4zM479 1329q0 103 96 103q72 0 72 -70q0 -51 -22 -76.5t-72 -25.5q-74 0 -74 69zM780 1329q0 103 97 103q71 0 71 -70q0 -51 -22 -76.5t-72 -25.5q-74 0 -74 69z" />
<glyph unicode="&#x152;" horiz-adv-x="2039" d="M139 479q0 114 31 269q39 205 103 342.5t162.5 218.5t221.5 115t293 34h1143l-45 -110h-766l-106 -543h743l-43 -111h-721l-115 -583h813l-43 -111h-1126q-285 0 -415 116t-130 363zM264 477q0 -198 101.5 -283t326.5 -85h228l241 1241h-227q-147 0 -249.5 -29.5 t-180 -101.5t-127 -186.5t-82.5 -289.5q-31 -158 -31 -266z" />
<glyph unicode="&#x153;" horiz-adv-x="1857" d="M90 348q0 71 23 209q25 139 65 235t103.5 163t153 98.5t212.5 31.5q162 0 254 -60t121 -191q70 139 175 195t257 56q182 0 268 -66.5t86 -184.5q0 -46 -12 -95q-30 -136 -128.5 -198t-299.5 -62h-346q-10 -54 -10 -114q0 -139 71 -202t238 -63q180 0 297 9l-41 -105 q-88 -8 -260 -8q-333 0 -389 221q-61 -120 -168 -178.5t-273 -58.5q-199 0 -298 83.5t-99 284.5zM209 344q0 -143 70 -201.5t223 -58.5q180 0 266 87t135 321q27 149 27 223q0 146 -69.5 206t-225.5 60q-179 0 -264.5 -89.5t-134.5 -330.5q-27 -149 -27 -217zM1040 580h328 q108 0 170.5 18.5t92 52.5t50.5 99q11 42 11 77q0 158 -244 158q-172 0 -265.5 -91t-142.5 -314z" />
<glyph unicode="&#x178;" horiz-adv-x="1241" d="M213 1458h125l313 -723l598 723h140l-691 -827l-123 -631h-118l123 631zM588 1655q0 104 96 104q74 0 74 -71q0 -105 -94 -105q-76 0 -76 72zM899 1655q0 104 96 104q74 0 74 -71q0 -105 -94 -105q-76 0 -76 72z" />
<glyph unicode="&#x2c6;" horiz-adv-x="1024" d="M360 1227l277 254h123l176 -254h-119l-129 176l-201 -176h-127z" />
<glyph unicode="&#x2dc;" horiz-adv-x="1024" d="M348 1223l4 18q23 102 66 147.5t108 45.5t138 -45l59 -35q26 -15 36 -20.5t26.5 -11t33.5 -5.5q58 0 80 98l4 19h90l-4 -19q-22 -102 -65 -147t-109 -45q-64 0 -137 45l-60 35q-24 14 -35.5 20t-27.5 11t-33 5q-58 0 -80 -98l-4 -18h-90z" />
<glyph unicode="&#x2000;" horiz-adv-x="925" />
<glyph unicode="&#x2001;" horiz-adv-x="1851" />
<glyph unicode="&#x2002;" horiz-adv-x="925" />
<glyph unicode="&#x2003;" horiz-adv-x="1851" />
<glyph unicode="&#x2004;" horiz-adv-x="617" />
<glyph unicode="&#x2005;" horiz-adv-x="462" />
<glyph unicode="&#x2006;" horiz-adv-x="308" />
<glyph unicode="&#x2007;" horiz-adv-x="308" />
<glyph unicode="&#x2008;" horiz-adv-x="231" />
<glyph unicode="&#x2009;" horiz-adv-x="370" />
<glyph unicode="&#x200a;" horiz-adv-x="102" />
<glyph unicode="&#x2010;" horiz-adv-x="735" d="M76 547l43 108h571l-43 -108h-571z" />
<glyph unicode="&#x2011;" horiz-adv-x="735" d="M76 547l43 108h571l-43 -108h-571z" />
<glyph unicode="&#x2012;" horiz-adv-x="735" d="M76 547l43 108h571l-43 -108h-571z" />
<glyph unicode="&#x2013;" horiz-adv-x="1024" d="M-6 514l22 109h1024l-22 -109h-1024z" />
<glyph unicode="&#x2014;" horiz-adv-x="2048" d="M-6 514l22 109h2048l-22 -109h-2048z" />
<glyph unicode="&#x2018;" horiz-adv-x="368" d="M201 1085q0 33 12 59.5t49 84.5l154 237h86l-160 -284q33 -17 33 -70q0 -104 -96 -104q-78 0 -78 77z" />
<glyph unicode="&#x2019;" horiz-adv-x="368" d="M147 1014l160 284q-33 17 -33 70q0 105 97 105q78 0 78 -78q0 -23 -8 -45.5t-17.5 -39.5t-36.5 -59l-154 -237h-86z" />
<glyph unicode="&#x201a;" horiz-adv-x="356" d="M-115 -279l160 285q-33 17 -33 70q0 104 97 104q77 0 77 -78q0 -33 -12 -59t-49 -84l-156 -238h-84z" />
<glyph unicode="&#x201c;" horiz-adv-x="706" d="M201 1085q0 33 12 59.5t49 84.5l154 237h86l-160 -284q33 -17 33 -70q0 -104 -96 -104q-78 0 -78 77zM539 1085q0 33 12 59.5t49 84.5l154 237h86l-160 -284q33 -17 33 -70q0 -104 -97 -104q-77 0 -77 77z" />
<glyph unicode="&#x201d;" horiz-adv-x="704" d="M147 1014l160 284q-33 17 -33 70q0 105 97 105q78 0 78 -78q0 -23 -8 -45.5t-17.5 -39.5t-36.5 -59l-154 -237h-86zM483 1014l160 284q-33 17 -33 70q0 105 97 105q77 0 77 -78q0 -33 -12 -59.5t-49 -84.5l-154 -237h-86z" />
<glyph unicode="&#x201e;" horiz-adv-x="692" d="M-113 -276l160 284q-33 17 -33 70q0 104 97 104q77 0 77 -78q0 -33 -12 -59t-49 -84l-154 -237h-86zM221 -276l160 284q-33 17 -33 70q0 104 96 104q78 0 78 -78q0 -33 -12 -59t-49 -84l-154 -237h-86z" />
<glyph unicode="&#x2022;" horiz-adv-x="708" d="M162 573q0 103 46 152t152 49q108 0 154.5 -49t46.5 -152q0 -102 -46.5 -151t-154.5 -49q-106 0 -152 49t-46 151z" />
<glyph unicode="&#x2026;" horiz-adv-x="2048" d="M158 72q0 112 102 112q82 0 82 -82q0 -112 -102 -112q-82 0 -82 82zM854 72q0 112 102 112q82 0 82 -82q0 -112 -102 -112q-82 0 -82 82zM1530 72q0 112 102 112q82 0 82 -82q0 -112 -102 -112q-82 0 -82 82z" />
<glyph unicode="&#x202f;" horiz-adv-x="370" />
<glyph unicode="&#x2039;" horiz-adv-x="626" d="M53 473l23 115l530 348l-28 -141l-412 -271l307 -270l-24 -129z" />
<glyph unicode="&#x203a;" horiz-adv-x="626" d="M23 125l28 141l412 271l-307 272l24 127l395 -348l-22 -115z" />
<glyph unicode="&#x205f;" horiz-adv-x="462" />
<glyph unicode="&#x20ac;" d="M76 477l41 98h149q13 86 45 246h-166l39 99h154q43 138 100.5 230t139.5 147t183 77.5t240 22.5q171 0 224 -4l-41 -109q-102 6 -199 6q-88 0 -153 -9.5t-124.5 -33.5t-103.5 -66t-81 -106t-66 -155h590l-39 -99h-578q-33 -133 -47 -246h596l-39 -98h-567v-33 q0 -99 23.5 -165.5t76 -105.5t126 -55t181.5 -16q168 0 224 4l-43 -106q-47 -4 -191 -4q-126 0 -217 22t-147.5 60t-90 100.5t-45.5 132.5t-12 166h-182z" />
<glyph unicode="&#x2122;" horiz-adv-x="1685" d="M178 1368l37 90h631l-37 -90h-256l-131 -672h-100l131 672h-275zM834 696l147 762h98l183 -436l342 436h110l-147 -762h-97l119 613l-309 -387h-72l-161 389l-119 -615h-94z" />
<glyph unicode="&#x25fc;" horiz-adv-x="1054" d="M0 0v1055h1055v-1055h-1055z" />
</font>
</defs>
</svg>
