<?xml version="1.0" standalone="no"?>
<!DOCTYPE svg PUBLIC "-//W3C//DTD SVG 1.1//EN" "http://www.w3.org/Graphics/SVG/1.1/DTD/svg11.dtd" >
<svg xmlns="http://www.w3.org/2000/svg">
<metadata></metadata>
<defs>
<font id="prometomedium_italic" horiz-adv-x="1218" >
<font-face units-per-em="2048" ascent="1638" descent="-410" />
<missing-glyph horiz-adv-x="493" />
<glyph unicode="&#xfb01;" horiz-adv-x="1130" d="M6 0l213 1098q46 231 173.5 329.5t383.5 98.5q255 0 359 -6l-80 -217q-4 0 -83 2t-181 2q-165 0 -223 -40.5t-87 -179.5l-4 -22h291l-82 -219h-252l-164 -846h-264zM655 0l207 1065h264l-206 -1065h-265z" />
<glyph unicode="&#xfb02;" horiz-adv-x="1169" d="M6 0l213 1098q46 231 173.5 329.5t383.5 98.5q59 0 121 -4l-80 -219q-54 4 -82 4q-126 0 -175.5 -41.5t-78.5 -178.5l-4 -22h289l-82 -219h-250l-164 -846h-264zM694 0l295 1522h264l-295 -1522h-264z" />
<glyph unicode="&#xfb03;" horiz-adv-x="1806" d="M6 0l213 1098q46 231 173.5 329.5t383.5 98.5q92 0 156 -6l-80 -217q-62 4 -88 4q-61 0 -100.5 -5.5t-71 -18t-51 -39t-34 -63t-26.5 -94.5l-4 -22h318l-82 -219h-279l-164 -846h-264zM682 0l213 1098q46 231 173.5 329.5t383.5 98.5q254 0 358 -6l-79 -217q-4 0 -83.5 2 t-181.5 2q-86 0 -135.5 -7.5t-86 -33t-54.5 -66t-33 -113.5l-4 -22h291l-82 -219h-252l-164 -846h-264zM1331 0l207 1065h264l-207 -1065h-264z" />
<glyph unicode="&#xfb04;" horiz-adv-x="1845" d="M6 0l213 1098q46 231 173.5 329.5t383.5 98.5q92 0 156 -6l-80 -217q-62 4 -88 4q-61 0 -100.5 -5.5t-71 -18t-51 -39t-34 -63t-26.5 -94.5l-4 -22h318l-82 -219h-279l-164 -846h-264zM682 0l213 1098q46 231 173.5 329.5t383.5 98.5q59 0 121 -4l-80 -219q-54 4 -82 4 q-126 0 -175.5 -41.5t-78.5 -178.5l-4 -22h289l-82 -219h-250l-164 -846h-264zM1370 0l295 1522h264l-295 -1522h-264z" />
<glyph horiz-adv-x="0" />
<glyph horiz-adv-x="682" />
<glyph horiz-adv-x="0" />
<glyph horiz-adv-x="0" />
<glyph unicode="&#x9;" horiz-adv-x="493" />
<glyph unicode=" "  horiz-adv-x="493" />
<glyph unicode="&#x09;" horiz-adv-x="493" />
<glyph unicode="&#xa0;" horiz-adv-x="493" />
<glyph unicode="!" horiz-adv-x="518" d="M23 109q0 99 41 141.5t139 42.5q141 0 141 -121q0 -98 -42 -142t-136 -44q-143 0 -143 123zM121 414l51 379q9 61 39 227l84 438h274l-86 -438q-7 -42 -14.5 -74.5t-19 -75t-19.5 -77.5l-92 -379h-217z" />
<glyph unicode="&#x22;" horiz-adv-x="790" d="M166 958l27 244q11 103 22 158l31 162h262l-29 -162q-10 -54 -39 -158l-67 -244h-207zM586 958l26 244q10 92 23 158l31 162h262l-29 -162q-10 -54 -39 -158l-67 -244h-207z" />
<glyph unicode="#" horiz-adv-x="1370" d="M23 330l77 205h185l110 323h-194l78 205h184l112 330h232l-111 -330h285l113 330h233l-113 -330h199l-78 -205h-190l-111 -323h201l-78 -205h-190l-113 -330h-231l110 330h-287l-110 -330h-234l113 330h-192zM516 535h287l110 323h-286z" />
<glyph unicode="$" d="M27 4l82 213q264 -6 340 -6l77 403l-16 7q-169 50 -244.5 131t-75.5 202q0 28 11 99q31 171 148 250.5t329 91.5l37 186h174l-37 -184h18q169 0 314 -8l-82 -213q-131 8 -291 8l-72 -379l25 -6q157 -46 238 -125t81 -213q0 -47 -12 -109q-33 -166 -146.5 -249.5 t-342.5 -100.5l-39 -205h-174l39 203q-54 0 -206 2t-175 2zM446 995q0 -53 32 -86.5t95 -54.5l64 324q-91 -11 -130 -43t-52 -88q-9 -27 -9 -52zM625 217q67 8 107.5 30t58 50.5t30.5 75.5q6 24 6 49q0 57 -33.5 89t-101.5 54z" />
<glyph unicode="%" horiz-adv-x="1939" d="M131 850q0 33 10 98l19 101q35 189 129.5 276.5t261.5 87.5q154 0 235.5 -70.5t81.5 -205.5q0 -34 -10 -99l-18 -100q-35 -190 -129.5 -277.5t-261.5 -87.5q-154 0 -236 71t-82 206zM319 0l1123 1393h244l-1125 -1393h-242zM344 858q0 -64 28 -87t87 -23q72 0 109.5 40 t60.5 166l14 76q12 62 12 98q0 64 -28 87.5t-86 23.5q-72 0 -109.5 -40.5t-60.5 -166.5l-15 -76q-12 -62 -12 -98zM1130 258q0 26 11 98l18 101q35 189 129.5 276.5t261.5 87.5q154 0 236 -70.5t82 -205.5q0 -34 -10 -99l-19 -100q-35 -189 -129.5 -276.5t-261.5 -87.5 q-154 0 -236 70.5t-82 205.5zM1343 266q0 -64 28 -87t87 -23q72 0 109.5 40t60.5 166l14 76q13 67 13 99q0 64 -28 87t-87 23q-72 0 -109.5 -40.5t-60.5 -166.5l-14 -75q-13 -67 -13 -99z" />
<glyph unicode="&#x26;" horiz-adv-x="1241" d="M27 336q0 61 14 121q25 128 89 206t175 115q-123 64 -123 236q0 48 11 102q37 184 160.5 266t369.5 82q217 0 381 -4l-82 -213q-164 4 -258 4q-167 0 -229.5 -30.5t-83.5 -128.5q-9 -40 -9 -74q0 -81 53.5 -111t172.5 -30h630l-79 -213h-109l-92 -476 q-21 -104 -70.5 -143.5t-156.5 -52.5q-105 -12 -218 -12q-127 0 -224.5 19t-171 60t-112 110.5t-38.5 166.5zM299 373q0 -103 74 -144t221 -41q91 0 174 13l88 463h-225q-152 0 -221.5 -41t-98.5 -154q-12 -55 -12 -96z" />
<glyph unicode="'" horiz-adv-x="370" d="M166 958l27 244q11 103 22 158l31 162h262l-29 -162q-10 -54 -39 -158l-67 -244h-207z" />
<glyph unicode="(" horiz-adv-x="751" d="M20 37q0 125 35 309l70 354q36 188 80.5 319t96.5 217.5t123 135t149.5 67.5t187.5 19h133l-82 -211h-47q-38 0 -64 -2t-56 -8t-50.5 -17.5t-44 -31t-41 -49t-36.5 -69.5t-35.5 -93.5t-33 -122t-32.5 -154.5l-72 -360q-33 -162 -33 -274q0 -67 14 -109.5t45.5 -65 t71.5 -30.5t103 -8h61l-80 -211h-30q-121 0 -205 26t-134 77.5t-72 122.5t-22 169z" />
<glyph unicode=")" horiz-adv-x="751" d="M-137 -358l82 211h47q49 0 81 3.5t68 15t60.5 35t51 63t47.5 98.5t42.5 141t42.5 192l72 361q32 157 32 274q0 67 -13.5 109.5t-45 64.5t-71 29.5t-103.5 7.5h-61l79 211h31q235 0 333.5 -98t98.5 -295q0 -125 -35 -309l-69 -355q-32 -157 -67 -273t-78 -201 t-90.5 -139.5t-110.5 -87.5t-131.5 -45.5t-159.5 -12.5h-133z" />
<glyph unicode="*" horiz-adv-x="890" d="M135 1108l98 195l232 -99l45 262h211l-64 -264l258 98l43 -196l-278 -74l137 -229l-192 -103l-107 224l-201 -230l-153 127l211 217z" />
<glyph unicode="+" d="M150 588l43 219h348l71 362h240l-72 -362h355l-43 -219h-353l-69 -361h-240l70 361h-350z" />
<glyph unicode="," horiz-adv-x="438" d="M-172 -336l195 359q-39 31 -39 88q0 98 41.5 143t136.5 45q143 0 143 -127q0 -57 -23 -102.5t-96 -151.5l-178 -254h-180z" />
<glyph unicode="-" horiz-adv-x="741" d="M29 475l90 236h622l-90 -236h-622z" />
<glyph unicode="." horiz-adv-x="438" d="M-16 109q0 98 42 143t136 45q143 0 143 -125q0 -99 -43 -143.5t-137 -44.5q-141 0 -141 125z" />
<glyph unicode="/" horiz-adv-x="860" d="M-70 0l803 1458h275l-803 -1458h-275z" />
<glyph unicode="0" horiz-adv-x="1241" d="M84 387q0 96 25 227l34 181q32 168 77.5 282.5t117.5 194.5t173 116.5t241 36.5q236 0 346 -106t110 -313q0 -102 -24 -228l-35 -180q-63 -336 -199.5 -483.5t-408.5 -147.5q-239 0 -348 106t-109 314zM354 383q0 -114 48.5 -156.5t156.5 -42.5q95 0 148.5 33t93.5 124.5 t76 274.5l30 156q31 158 31 238q0 114 -48.5 156t-156.5 42q-71 0 -116 -16t-82.5 -64.5t-64 -130.5t-54.5 -221l-31 -155q-31 -158 -31 -238z" />
<glyph unicode="1" horiz-adv-x="899" d="M-23 0l80 209h209l187 965h-291l86 219h518l-229 -1184h251l-79 -209h-732z" />
<glyph unicode="2" horiz-adv-x="1107" d="M12 0l49 250q40 213 117.5 314t261.5 177l197 80q122 50 158 101q32 39 32 131q0 67 -40.5 95t-141.5 28q-295 0 -422 -5l84 218q235 8 371 8q420 0 420 -310q0 -49 -13 -116q-29 -133 -105.5 -211.5t-236.5 -143.5l-211 -86q-104 -44 -142.5 -95t-63.5 -173l-9 -39h664 l-86 -223h-883z" />
<glyph unicode="3" horiz-adv-x="1058" d="M-66 0l84 219q212 -4 408 -4q118 0 178.5 44.5t73.5 148.5q2 18 2 49q0 82 -44.5 113.5t-141.5 31.5h-353l84 217h310q104 0 156 41.5t65 138.5q2 14 2 41q0 75 -46.5 106.5t-138.5 31.5q-157 0 -407 -4l86 219q230 4 338 4q225 0 331.5 -79.5t106.5 -240.5q0 -61 -4 -82 q-34 -208 -227 -282q155 -61 155 -262q0 -35 -6 -72q-33 -201 -163.5 -292t-413.5 -91q-342 0 -435 4z" />
<glyph unicode="4" horiz-adv-x="1193" d="M37 268l24 189l627 936h266l-608 -910h363l82 414l264 45l-92 -459h172l-82 -215h-131l-52 -268h-256l52 268h-629z" />
<glyph unicode="5" horiz-adv-x="1060" d="M-10 0l82 219q176 -4 344 -4q131 0 198 51t84 172q2 18 2 54q0 93 -50.5 128t-164.5 35h-362l143 738h805l-82 -219h-522l-59 -300h137q218 0 325 -91t107 -261q0 -68 -14 -137q-44 -210 -180.5 -299.5t-413.5 -89.5q-278 0 -379 4z" />
<glyph unicode="6" horiz-adv-x="1148" d="M86 360q0 99 16 166l62 310q24 128 66 224.5t97 160.5t128.5 103.5t154.5 56t181 16.5q250 0 337 -4l-84 -219q-18 0 -95 2t-161 2q-56 0 -97 -5.5t-88.5 -25.5t-80 -55.5t-60.5 -98.5t-42 -151q82 76 252 76q192 0 290.5 -97.5t98.5 -277.5q0 -51 -10 -123 q-74 -453 -525 -453q-227 0 -333.5 103.5t-106.5 289.5zM338 362q0 -98 47 -144t150 -46q113 0 172.5 53t83.5 191q10 68 10 110q0 189 -195 189q-119 0 -176.5 -50.5t-81.5 -191.5q-10 -68 -10 -111z" />
<glyph unicode="7" horiz-adv-x="1081" d="M150 0l657 1174h-649l84 219h886l-20 -174l-666 -1219h-292z" />
<glyph unicode="8" horiz-adv-x="1163" d="M37 311q0 39 6 80q24 146 97 229.5t192 120.5q-137 70 -137 244q0 13 4 59q21 181 153.5 281t364.5 100q212 0 329 -81.5t117 -239.5q0 -35 -10 -90q-43 -229 -252 -293q166 -81 166 -268q0 -39 -10 -97q-70 -389 -547 -389q-237 0 -355 91.5t-118 252.5zM303 340 q0 -87 53.5 -128.5t173.5 -41.5q114 0 178.5 47t86.5 160q8 41 8 80q0 89 -54 130.5t-174 41.5q-108 0 -174.5 -45t-89.5 -162q-8 -36 -8 -82zM442 973q0 -82 52.5 -116t156.5 -34q103 0 165.5 40t84.5 143q8 31 8 73q0 78 -52.5 116t-162.5 38q-99 0 -159.5 -40t-83.5 -146 q-9 -41 -9 -74z" />
<glyph unicode="9" horiz-adv-x="1146" d="M70 0l84 219q16 0 94.5 -2t161.5 -2q56 0 97 5.5t88.5 25.5t80 55.5t60.5 98.5t42 151q-82 -76 -252 -76q-192 0 -290.5 97.5t-98.5 277.5q0 51 10 123q74 452 525 452q227 0 333.5 -103.5t106.5 -289.5q0 -99 -16 -166l-62 -309q-30 -160 -86 -270.5t-138 -173.5 t-179 -90t-223 -27q-251 0 -338 4zM397 866q0 -188 195 -188q119 0 176.5 50.5t81.5 191.5q10 68 10 110q0 99 -47 145t-149 46q-113 0 -172.5 -53t-83.5 -191q-11 -75 -11 -111z" />
<glyph unicode=":" horiz-adv-x="438" d="M-16 109q0 98 42 143t136 45q143 0 143 -125q0 -99 -43 -143.5t-137 -44.5q-141 0 -141 125zM135 893q0 98 42 143t136 45q144 0 144 -125q0 -99 -43.5 -143.5t-137.5 -44.5q-141 0 -141 125z" />
<glyph unicode=";" horiz-adv-x="438" d="M-172 -336l195 359q-39 31 -39 88q0 98 41.5 143t136.5 45q143 0 143 -127q0 -57 -23 -102.5t-96 -151.5l-178 -254h-180zM135 893q0 98 42 143t136 45q144 0 144 -125q0 -99 -43.5 -143.5t-137.5 -44.5q-141 0 -141 125z" />
<glyph unicode="&#x3c;" d="M180 584l45 227l946 358l-47 -239l-675 -242l581 -242l-43 -221z" />
<glyph unicode="=" d="M137 381l43 215h885l-41 -215h-887zM217 799l43 215h885l-41 -215h-887z" />
<glyph unicode="&#x3e;" d="M111 225l47 242l673 240l-579 241l43 221l805 -358l-43 -227z" />
<glyph unicode="?" horiz-adv-x="978" d="M129 109q0 98 42 141t136 43q144 0 144 -121q0 -99 -42.5 -142.5t-138.5 -43.5q-141 0 -141 123zM158 1239l84 215q141 8 344 8q224 0 330 -77t106 -242q0 -41 -6 -88q-10 -78 -37.5 -136.5t-76.5 -103t-107 -76.5t-144 -65q-58 -23 -84 -36t-48.5 -37t-32 -52.5 t-21.5 -83.5l-8 -47h-252l14 80q29 158 88 224t221 128q116 44 159.5 83.5t60.5 115.5q8 31 8 69q0 67 -46 97t-155 30q-241 0 -397 -6z" />
<glyph unicode="@" horiz-adv-x="1515" d="M35 117q0 141 33 309q31 173 82.5 299t119.5 208.5t162 131.5t199 68.5t243 19.5q576 0 576 -389q0 -65 -14 -131l-80 -406q-19 -102 -65.5 -139.5t-149.5 -50.5q-126 -14 -232 -14q-215 0 -313 65.5t-98 206.5q0 63 14 123q31 141 130 215t284 74q195 0 266 -74l6 31 q8 44 8 79q0 106 -81 152.5t-271 46.5q-78 0 -136 -7.5t-113.5 -28t-96.5 -56.5t-77.5 -92t-64 -136t-49.5 -188q-38 -178 -38 -297q0 -137 56 -215t179.5 -112.5t339.5 -34.5q228 0 322 6l-82 -211q-123 -8 -301 -8q-398 0 -578 128t-180 427zM748 328q0 -66 41.5 -86.5 t146.5 -20.5q66 0 176 12l23 117q6 34 6 53q0 64 -45 90.5t-144 26.5q-96 0 -139.5 -28.5t-60.5 -106.5q-4 -46 -4 -57z" />
<glyph unicode="A" horiz-adv-x="1439" d="M-76 0l844 1458h287l254 -1458h-273l-57 387h-561l-215 -387h-279zM537 608h413l-86 588z" />
<glyph unicode="B" horiz-adv-x="1273" d="M31 0l282 1458h512q443 0 443 -328q0 -51 -8 -92q-17 -103 -74.5 -174t-145.5 -108q160 -75 160 -281q0 -48 -8 -92q-61 -383 -567 -383h-594zM340 223h285q150 0 215.5 41t87.5 148q6 27 6 75q0 91 -54.5 126.5t-174.5 35.5h-281zM465 866h276q127 0 183.5 36t76.5 130 q7 29 7 62q0 77 -49.5 109t-151.5 32h-270z" />
<glyph unicode="C" horiz-adv-x="1136" d="M102 494q0 114 27 258q31 166 82.5 288t119.5 202.5t161 129.5t199 69.5t243 20.5q119 0 307 -8l-90 -235q-101 8 -223 8q-101 0 -172 -13.5t-128.5 -45.5t-97 -90t-68.5 -140.5t-52 -204.5q-29 -148 -29 -229q0 -152 81.5 -212.5t268.5 -60.5q61 0 154 2.5t147 2.5 l-90 -236q-65 -4 -260 -4q-159 0 -272.5 34.5t-180 101t-97 155.5t-30.5 207z" />
<glyph unicode="D" horiz-adv-x="1400" d="M31 0l282 1458h449q307 0 459.5 -124.5t152.5 -391.5q0 -93 -22 -231q-29 -168 -83.5 -293t-126 -204.5t-170 -127.5t-204.5 -67t-240 -19h-497zM344 236h215q94 0 157.5 10t123.5 39.5t100.5 84t74.5 142t58 215.5q23 135 23 211q0 87 -22 144t-70 87.5t-109 42 t-154 11.5h-204z" />
<glyph unicode="E" horiz-adv-x="1236" d="M31 0l282 1458h1010l-90 -235h-696l-70 -359h680l-90 -235h-637l-76 -393h776l-90 -236h-999z" />
<glyph unicode="F" horiz-adv-x="1148" d="M31 0l282 1458h979l-92 -235h-663l-74 -377h635l-90 -236h-592l-117 -610h-268z" />
<glyph unicode="G" horiz-adv-x="1325" d="M102 492q0 111 29 266q43 206 110 342.5t169.5 216.5t231 112.5t310.5 32.5q204 0 389 -8l-88 -233q-106 6 -321 6q-131 0 -213.5 -20t-145.5 -76.5t-100.5 -150t-66.5 -247.5q-27 -155 -27 -231q0 -150 80 -208t272 -58q109 0 172 2l66 333h-250l84 217h475l-111 -579 q-20 -104 -63.5 -147.5t-130.5 -51.5q-117 -10 -291 -10q-159 0 -272.5 33.5t-180 99.5t-97 154t-30.5 205z" />
<glyph unicode="H" horiz-adv-x="1445" d="M31 0l282 1458h269l-117 -596h643l117 596h268l-283 -1458h-268l121 627h-643l-121 -627h-268z" />
<glyph unicode="I" horiz-adv-x="534" d="M31 0l282 1458h269l-283 -1458h-268z" />
<glyph unicode="J" horiz-adv-x="948" d="M-53 0l88 233q66 -2 186 -2q81 0 130 9.5t88 38t61.5 80t38.5 137.5l188 962h268l-186 -954q-29 -149 -70 -243.5t-109.5 -155t-163 -85t-235.5 -24.5q-182 0 -284 4z" />
<glyph unicode="K" horiz-adv-x="1306" d="M31 0l282 1458h269l-119 -610l649 610h313l-747 -713l543 -745h-332l-465 645l-125 -645h-268z" />
<glyph unicode="L" horiz-adv-x="1128" d="M31 0l282 1458h269l-238 -1222h688l-88 -236h-913z" />
<glyph unicode="M" horiz-adv-x="1667" d="M31 0l282 1458h285l264 -803l565 803h287l-282 -1458h-261l199 1024l-432 -612h-233l-211 635l-203 -1047h-260z" />
<glyph unicode="N" horiz-adv-x="1437" d="M31 0l282 1458h238l469 -1016l197 1016h268l-283 -1458h-233l-473 1024l-197 -1024h-268z" />
<glyph unicode="O" horiz-adv-x="1445" d="M100 477q0 121 27 277q36 210 99 353.5t157.5 229.5t212 123t276.5 37q275 0 411 -121.5t136 -392.5q0 -126 -26 -276q-36 -209 -99 -353.5t-157.5 -230t-213 -123t-276.5 -37.5q-275 0 -411 121.5t-136 392.5zM379 469q0 -82 17.5 -136.5t56 -84.5t89.5 -41.5t126 -11.5 q103 0 168 19.5t119 77.5t89 158.5t66 266.5q31 175 31 274q0 83 -18 137t-56 84t-89 42t-126 12q-68 0 -117.5 -8.5t-94 -30.5t-76.5 -58.5t-60.5 -96t-50.5 -139t-43 -190.5q-31 -155 -31 -274z" />
<glyph unicode="P" horiz-adv-x="1286" d="M31 0l282 1458h473q517 0 517 -377q0 -47 -13 -114q-24 -126 -77 -213t-134.5 -136t-178 -69.5t-224.5 -20.5h-275l-102 -528h-268zM446 760h252q164 0 234 45t90 164q10 55 10 86q0 95 -59.5 133.5t-188.5 38.5h-247z" />
<glyph unicode="Q" horiz-adv-x="1445" d="M100 477q0 121 27 277q36 210 99 353.5t157.5 229.5t212 123t276.5 37q275 0 411 -121.5t136 -392.5q0 -126 -26 -276q-61 -326 -183.5 -496.5t-324.5 -220.5l266 -258h-328l-235 233q-247 12 -367.5 133.5t-120.5 378.5zM379 469q0 -82 17.5 -136.5t56 -84.5t89.5 -41.5 t126 -11.5q103 0 168 19.5t119 77.5t89 158.5t66 266.5q31 175 31 274q0 83 -18 137t-56 84t-89 42t-126 12q-68 0 -117.5 -8.5t-94 -30.5t-76.5 -58.5t-60.5 -96t-50.5 -139t-43 -190.5q-31 -155 -31 -274z" />
<glyph unicode="R" horiz-adv-x="1312" d="M31 0l282 1458h480q241 0 374 -91.5t133 -281.5q0 -61 -10 -112q-30 -173 -119 -269t-233 -133l246 -571h-289l-217 539h-275l-104 -539h-268zM449 768h251q164 0 234 44.5t90 160.5q10 55 10 84q0 95 -59 132.5t-189 37.5h-247z" />
<glyph unicode="S" horiz-adv-x="1179" d="M-20 0l88 231q86 -4 417 -4q151 0 225.5 34t92.5 128q6 24 6 49q0 59 -36 94t-116 60l-172 53q-169 51 -241 133t-72 205q0 55 12 119q35 195 187.5 277.5t410.5 82.5q266 0 437 -4l-89 -229q-92 0 -217 1t-196 1q-123 0 -188 -35.5t-78 -114.5q-7 -35 -7 -55 q0 -54 32.5 -84.5t107.5 -54.5l188 -60q164 -52 236.5 -137.5t72.5 -206.5q0 -57 -10 -106q-18 -91 -53.5 -157t-87 -109t-126 -68.5t-159.5 -36t-199 -10.5q-47 0 -217.5 2t-248.5 2z" />
<glyph unicode="T" horiz-adv-x="1331" d="M168 1223l90 235h1217l-91 -235h-452l-238 -1223h-268l238 1223h-496z" />
<glyph unicode="U" horiz-adv-x="1394" d="M106 381q0 67 17 147l180 930h268l-180 -930q-14 -77 -14 -122q0 -114 66.5 -160.5t211.5 -46.5q157 0 235 70.5t114 258.5l180 930h268l-186 -962q-56 -286 -208 -409.5t-419 -123.5q-263 0 -398 106.5t-135 311.5z" />
<glyph unicode="V" horiz-adv-x="1351" d="M207 1458h280l138 -1147l594 1147h284l-788 -1458h-301z" />
<glyph unicode="W" horiz-adv-x="1865" d="M223 1458h269l-7 -1124l506 1124h248l51 -1116l445 1116h266l-623 -1458h-284l-52 1083l-489 -1083h-287z" />
<glyph unicode="X" horiz-adv-x="1331" d="M-100 0l661 780l-325 678h282l232 -506l401 506h299l-588 -713l357 -745h-289l-256 573l-475 -573h-299z" />
<glyph unicode="Y" horiz-adv-x="1337" d="M195 1458h286l224 -635l491 635h301l-690 -856l-117 -602h-268l117 600z" />
<glyph unicode="Z" horiz-adv-x="1247" d="M-27 0l41 213l908 1010h-709l90 235h1010l-41 -215l-910 -1007h768l-90 -236h-1067z" />
<glyph unicode="[" horiz-adv-x="716" d="M-39 -358l352 1816h537l-80 -215h-252l-270 -1386h293l-82 -215h-498z" />
<glyph unicode="\" horiz-adv-x="860" d="M213 1458h250l262 -1458h-252z" />
<glyph unicode="]" horiz-adv-x="716" d="M-125 -358l80 215h252l270 1386h-293l82 215h498l-352 -1816h-537z" />
<glyph unicode="^" d="M205 817l452 641h256l215 -641h-243l-133 416l-287 -416h-260z" />
<glyph unicode="_" horiz-adv-x="1026" d="M-176 -381l45 229h1024l-45 -229h-1024z" />
<glyph unicode="`" horiz-adv-x="1024" d="M444 1495h281l166 -268h-244z" />
<glyph unicode="a" horiz-adv-x="1116" d="M37 262q0 69 14 129q65 295 434 295q205 0 297 -88l6 29q13 67 13 94q0 70 -49.5 101.5t-165.5 31.5q-272 0 -379 -4l82 215q59 4 319 4q224 0 328 -79t104 -240q0 -36 -16 -134l-80 -428q-20 -100 -70 -140.5t-153 -51.5q-126 -14 -270 -14q-212 0 -313 67.5t-101 212.5 zM285 291q0 -70 47 -93.5t162 -23.5q123 0 202 10l21 99q10 44 10 84q0 71 -50 102t-161 31q-107 0 -157.5 -33.5t-67.5 -118.5q-6 -34 -6 -57z" />
<glyph unicode="b" horiz-adv-x="1206" d="M92 354q0 87 21 195l188 973h264l-98 -500q88 76 260 76q201 0 304.5 -96.5t103.5 -301.5q0 -91 -23 -206q-58 -279 -189 -403t-380 -124q-227 0 -339 93t-112 294zM356 373q0 -107 46.5 -150t152.5 -43q68 0 111 12t78 46.5t58 92.5t44 154q26 116 26 203 q0 112 -51.5 154.5t-158.5 42.5q-66 0 -109 -13.5t-76.5 -49.5t-55 -94.5t-40.5 -152.5q-25 -131 -25 -202z" />
<glyph unicode="c" horiz-adv-x="942" d="M74 371q0 91 20 194q24 123 64.5 212t93.5 145.5t127.5 89t156.5 45t193 12.5q13 0 229 -6l-84 -213q-98 4 -174 4q-86 0 -140 -12t-95.5 -45t-65 -89t-39.5 -147q-20 -103 -20 -170q0 -105 52 -142.5t175 -37.5q181 0 264 4l-79 -215q-126 -4 -205 -4q-253 0 -363 95 t-110 280z" />
<glyph unicode="d" horiz-adv-x="1191" d="M78 401q0 85 18 187q21 120 59.5 210t86.5 146.5t112 91.5t130 48.5t147 13.5q195 0 276 -97l101 521h264l-258 -1334q-21 -106 -70 -146t-166 -52q-91 -8 -205 -8q-256 0 -375.5 101.5t-119.5 317.5zM340 406q0 -120 59 -165.5t179 -45.5q94 0 176 12l75 397 q13 67 13 103q0 98 -52.5 138t-152.5 40q-120 0 -179.5 -62t-95.5 -235q-22 -102 -22 -182z" />
<glyph unicode="e" horiz-adv-x="1095" d="M74 375q0 91 20 188q26 129 70 225t97 154.5t122.5 94t137 48.5t149.5 13q201 0 299 -75t98 -210q0 -47 -12 -102q-32 -147 -144 -212t-338 -65h-241q-4 -36 -4 -49q0 -98 50 -141t167 -43q262 0 360 8l-78 -203q-110 -10 -321 -10q-120 0 -205.5 28t-134 80t-70.5 118.5 t-22 152.5zM367 629h206q84 0 130.5 10.5t69 32.5t36.5 65q10 31 10 58q0 50 -39 76t-129 26q-122 0 -184.5 -58.5t-99.5 -209.5z" />
<glyph unicode="f" horiz-adv-x="716" d="M6 0l213 1098q46 231 173.5 329.5t383.5 98.5q154 0 197 -6l-80 -217q-82 4 -129 4q-61 0 -100.5 -5.5t-71 -18t-51 -39t-34 -63t-26.5 -94.5l-4 -22h359l-82 -219h-320l-164 -846h-264z" />
<glyph unicode="g" horiz-adv-x="1208" d="M61 -358l82 215q5 0 131 -3.5t195 -3.5q127 0 190.5 54t92.5 184l6 29q-85 -76 -269 -76q-196 0 -300.5 94.5t-104.5 288.5q0 79 18 178q54 264 188.5 380t381.5 116q226 0 338 -89t112 -282q0 -83 -20 -180l-86 -447q-50 -245 -175.5 -353.5t-369.5 -108.5 q-313 0 -410 4zM346 438q0 -105 49 -144.5t158 -39.5q66 0 109 10.5t78 40.5t57.5 83.5t38.5 139.5q20 103 20 177q0 101 -47 141.5t-154 40.5q-130 0 -191.5 -56t-94.5 -217q-23 -118 -23 -176z" />
<glyph unicode="h" horiz-adv-x="1175" d="M6 0l295 1522h264l-96 -496q84 72 264 72q167 0 268 -82.5t101 -243.5q0 -56 -12 -121l-127 -651h-263l125 655q11 57 11 78q0 79 -42.5 112.5t-131.5 33.5q-130 0 -185 -46t-80 -180l-127 -653h-264z" />
<glyph unicode="i" horiz-adv-x="481" d="M6 0l207 1065h264l-207 -1065h-264zM231 1335q0 96 48.5 136t134.5 40q137 0 137 -112q0 -93 -45 -135.5t-137 -42.5q-138 0 -138 114z" />
<glyph unicode="j" horiz-adv-x="481" d="M-358 -358l77 202q33 -2 86 -2q99 0 143.5 46t69.5 175l195 1002h264l-201 -1034q-22 -115 -60 -192.5t-96 -121t-128 -61.5t-166 -18q-151 0 -184 4zM231 1335q0 96 48.5 136t134.5 40q137 0 137 -112q0 -93 -45 -135.5t-137 -42.5q-138 0 -138 114z" />
<glyph unicode="k" horiz-adv-x="1122" d="M6 0l295 1522h264l-164 -848l449 391h324l-574 -496l422 -569h-305l-352 485l-95 -485h-264z" />
<glyph unicode="l" horiz-adv-x="481" d="M6 0l295 1522h264l-295 -1522h-264z" />
<glyph unicode="m" horiz-adv-x="1730" d="M6 0l131 678q43 219 157.5 319.5t319.5 100.5q226 0 320 -125q104 125 332 125q189 0 290 -81.5t101 -248.5q0 -54 -12 -121l-125 -647h-265l127 655q11 59 11 86q0 76 -38.5 107t-119.5 31q-97 0 -142.5 -48.5t-70.5 -175.5l-127 -655h-264l127 657q8 41 8 86 q0 75 -38.5 105.5t-117.5 30.5q-97 0 -142.5 -48.5t-70.5 -175.5l-127 -655h-264z" />
<glyph unicode="n" horiz-adv-x="1175" d="M6 0l131 678q44 229 169 324.5t370 95.5q207 0 316.5 -84t109.5 -252q0 -54 -12 -115l-125 -647h-265l127 655q11 61 11 78q0 78 -43 112t-131 34q-132 0 -187.5 -45.5t-79.5 -178.5l-127 -655h-264z" />
<glyph unicode="o" horiz-adv-x="1185" d="M72 358q0 81 22 207q53 283 187 408t391 125q221 0 331.5 -91.5t110.5 -299.5q0 -81 -22 -207q-54 -285 -187.5 -409t-390.5 -124q-221 0 -331.5 91.5t-110.5 299.5zM336 371q0 -107 47.5 -149t155.5 -42q132 0 190.5 66t95.5 248q25 131 25 200q0 107 -48.5 149 t-156.5 42q-133 0 -190.5 -65.5t-94.5 -248.5q-24 -126 -24 -200z" />
<glyph unicode="p" horiz-adv-x="1206" d="M-68 -358l183 944q28 145 78 245.5t123.5 158.5t162.5 83t207 25q234 0 339 -99.5t105 -287.5q0 -112 -26 -228q-59 -273 -186.5 -394.5t-344.5 -121.5q-212 0 -294 101l-84 -426h-263zM350 377q0 -112 51.5 -154.5t161.5 -42.5q82 0 132 24t86.5 91.5t60.5 193.5 q26 136 26 209q0 100 -44 143.5t-146 43.5q-67 0 -111 -12t-81.5 -46t-62.5 -93t-46 -154q-27 -123 -27 -203z" />
<glyph unicode="q" horiz-adv-x="1208" d="M76 365q0 92 20 206q54 277 188.5 402t383.5 125q229 0 339.5 -90.5t110.5 -290.5q0 -85 -22 -201l-168 -874h-264l77 397q-87 -72 -258 -72q-201 0 -304 96.5t-103 301.5zM336 377q0 -112 51.5 -154.5t161.5 -42.5q83 0 132 24.5t84 91t62 193.5q27 126 27 201 q0 111 -51.5 153t-153.5 42q-65 0 -107 -12t-76 -46.5t-57 -92.5t-44 -154q-29 -135 -29 -203z" />
<glyph unicode="r" horiz-adv-x="788" d="M6 0l123 635q21 107 54.5 183t76 125t104.5 77t130.5 38.5t164.5 10.5q82 0 187 -6l-84 -217q-82 4 -109 4q-132 0 -183.5 -45.5t-80.5 -188.5l-121 -616h-262z" />
<glyph unicode="s" horiz-adv-x="974" d="M-39 0l78 217q112 -4 350 -4q122 0 163 12.5t52 63.5q4 20 4 33q0 32 -22 53.5t-74 34.5l-197 53q-107 31 -163 91t-56 163q0 43 8 84q27 136 136.5 202t318.5 66q168 0 408 -8l-80 -215q-190 6 -357 6q-89 0 -124 -11.5t-52 -52.5q-8 -19 -8 -40q0 -28 20 -45t64 -29 l174 -49q142 -42 203 -102t61 -163q0 -33 -10 -98q-25 -135 -143 -200.5t-344 -65.5q-312 0 -410 4z" />
<glyph unicode="t" horiz-adv-x="790" d="M72 287q0 45 14 127l176 911l268 31l-55 -291h340l-82 -219h-301l-88 -451q-8 -41 -8 -80q0 -50 31 -73t102 -23h225l-84 -219h-204q-334 0 -334 287z" />
<glyph unicode="u" horiz-adv-x="1167" d="M74 301q0 47 12 117l125 647h262l-127 -655q-8 -41 -8 -80q0 -78 41.5 -111t130.5 -33q128 0 181.5 46t78.5 180l127 653h264l-131 -678q-44 -229 -168.5 -324.5t-365.5 -95.5q-205 0 -313.5 84t-108.5 250z" />
<glyph unicode="v" horiz-adv-x="1097" d="M129 1065h272l99 -799l403 799h273l-576 -1065h-291z" />
<glyph unicode="w" horiz-adv-x="1572" d="M137 1065h258l35 -776l342 776h236l34 -768l342 768h258l-520 -1065h-260l-35 737l-325 -737h-260z" />
<glyph unicode="x" horiz-adv-x="1097" d="M-78 0l492 571l-256 494h272l160 -338l266 338h281l-449 -528l279 -537h-275l-180 379l-307 -379h-283z" />
<glyph unicode="y" horiz-adv-x="1165" d="M18 -358l82 213q245 -5 322 -5q127 0 192.5 52.5t94.5 185.5l6 31q-90 -78 -250 -78q-183 0 -281 81t-98 243q0 40 14 122l111 578h262l-111 -582q-10 -58 -10 -80q0 -82 41.5 -115.5t130.5 -33.5q127 0 182 48.5t80 182.5l111 580h264l-186 -959q-50 -251 -176 -359.5 t-371 -108.5q-312 0 -410 4z" />
<glyph unicode="z" horiz-adv-x="1048" d="M-8 0l26 180l635 668h-524l84 217h819l-26 -180l-639 -670h563l-82 -215h-856z" />
<glyph unicode="{" horiz-adv-x="778" d="M18 442l41 217h41q80 0 114 32t52 116l64 323q35 177 135 252.5t297 75.5h158l-80 -211h-88q-87 0 -125.5 -26.5t-55.5 -104.5l-67 -354q-18 -88 -56.5 -138t-111.5 -73q90 -33 90 -160q0 -36 -8 -72l-62 -321q-6 -30 -6 -53q0 -52 29.5 -72t97.5 -20h156l-82 -211h-119 q-167 0 -249.5 68t-82.5 194q0 32 11 92l61 326q6 30 6 43q0 42 -24.5 59.5t-83.5 17.5h-52z" />
<glyph unicode="|" horiz-adv-x="485" d="M-59 -358l362 1880h260l-360 -1880h-262z" />
<glyph unicode="}" horiz-adv-x="778" d="M-135 -358l80 211h88q87 0 125 26.5t55 104.5l68 354q18 88 56.5 138t111.5 73q-91 33 -91 160q0 31 9 71l61 322q6 30 6 53q0 52 -29.5 72t-97.5 20h-155l81 211h119q167 0 249.5 -68t82.5 -194q0 -37 -10 -92l-62 -326q-6 -30 -6 -43q0 -42 25 -60t84 -18h51l-41 -217 h-41q-80 0 -114 -31.5t-52 -115.5l-63 -324q-35 -177 -135 -252t-297 -75h-158z" />
<glyph unicode="~" d="M133 522l6 35q35 185 104 263.5t187 78.5q52 0 97.5 -17t123.5 -59l39 -22q64 -35 92.5 -46.5t53.5 -11.5q31 0 51 23.5t31 83.5l4 27h223l-6 -35q-35 -186 -104 -265t-187 -79q-53 0 -101 18t-122 59l-37 21q-60 34 -89.5 45.5t-56.5 11.5q-33 0 -52 -21t-30 -83l-6 -27 h-221z" />
<glyph unicode="&#xa1;" horiz-adv-x="518" d="M-49 -399l86 438q7 42 14.5 74.5t19 75t19.5 77.5l92 379h217l-51 -379q-9 -61 -39 -227l-84 -438h-274zM176 887q0 98 42 142t136 44q144 0 144 -123q0 -99 -41.5 -141.5t-139.5 -42.5q-141 0 -141 121z" />
<glyph unicode="&#xa2;" d="M180 371q0 76 23 194q27 132 69 223t104.5 148t140.5 86.5t185 40.5l39 199h174l-38 -193q162 0 215 -4l-78 -211q-20 1 -86 2t-92 2l-125 -651q166 0 233 4l-76 -211q-126 -4 -198 -4l-37 -193h-174l39 205q-171 28 -244.5 118.5t-73.5 244.5zM432 393q0 -138 107 -172 l120 625q-87 -21 -135.5 -85.5t-72.5 -199.5q-19 -111 -19 -168z" />
<glyph unicode="&#xa3;" d="M25 0l86 219h102l74 383h-148l86 219h105l26 135q44 234 193 337.5t424 103.5q148 0 262 -4l-82 -219q-71 4 -229 4q-146 0 -217 -51t-99 -197l-22 -109h409l-84 -219h-368l-74 -383h567l-80 -219h-931z" />
<glyph unicode="&#xa4;" d="M125 352l125 127q-78 116 -78 246t78 246l-125 127l145 143l129 -129q115 74 252 74q134 0 252 -74l129 129l146 -143l-125 -127q75 -115 75 -246t-75 -246l125 -127l-146 -143l-131 129q-115 -74 -250 -74q-137 0 -252 74l-129 -129zM371 725q0 -113 78.5 -191.5 t201.5 -78.5t202 78.5t79 191.5q0 116 -78.5 194t-202.5 78t-202 -78t-78 -194z" />
<glyph unicode="&#xa5;" d="M111 254l36 192h310l24 129h-309l37 193h227l-231 625h266l186 -564l416 564h285l-484 -625h224l-37 -193h-316l-24 -129h315l-37 -192h-317l-49 -254h-262l49 254h-309z" />
<glyph unicode="&#xa6;" horiz-adv-x="485" d="M-59 -358l122 649h263l-123 -649h-262zM176 872l127 650h260l-125 -650h-262z" />
<glyph unicode="&#xa7;" horiz-adv-x="1216" d="M-29 -373l80 213q79 0 247.5 -2t184.5 -2q119 0 178.5 23t77.5 82q9 24 9 51q0 47 -29 73t-94 44l-224 55q-286 71 -286 301q0 36 10 88q46 222 250 299q-77 36 -112.5 91t-35.5 134q0 46 13 103q35 153 168 218.5t354 65.5q290 0 440 -4l-80 -213q-94 0 -225.5 2 t-194.5 2q-97 0 -147.5 -24.5t-67.5 -79.5q-8 -19 -8 -51q0 -44 24 -67.5t79 -35.5l243 -61q283 -70 283 -299q0 -42 -10 -101q-20 -103 -89 -180t-159 -104q147 -78 147 -234q0 -51 -10 -90q-17 -73 -54 -127t-85.5 -87t-116 -53t-136 -27t-155.5 -7q-37 0 -218.5 2 t-250.5 2zM365 506q0 -57 34.5 -89t108.5 -57q94 -30 156 -30q54 0 100 43t70 103t24 116q0 57 -34 88.5t-109 56.5q-97 31 -156 31q-54 0 -100 -43t-70 -103t-24 -116z" />
<glyph unicode="&#xa8;" horiz-adv-x="1024" d="M338 1321q0 82 38 123t126 41q123 0 123 -101q0 -81 -38 -122t-126 -41q-123 0 -123 100zM719 1321q0 82 38 123t126 41q123 0 123 -101q0 -81 -38 -122t-126 -41q-123 0 -123 100z" />
<glyph unicode="&#xa9;" horiz-adv-x="1728" d="M117 729q0 213 39.5 355t133 234.5t240.5 132.5t369 40q175 0 302 -25t220.5 -78.5t149.5 -144t83 -216t27 -298.5q0 -213 -40 -355t-134 -234.5t-241 -132.5t-367 -40t-365.5 38.5t-240.5 129t-135.5 234t-40.5 360.5zM313 729q0 -121 9.5 -205t35.5 -152.5t66.5 -109.5 t108 -68.5t154 -38t210.5 -10.5t211.5 10.5t155 38t108 68t66.5 109t35.5 152.5t9.5 206q0 121 -9.5 204.5t-35.5 152t-66.5 109.5t-108 69t-155 38.5t-211.5 10.5t-210.5 -10.5t-154 -38t-108 -68t-66.5 -109t-35.5 -152.5t-9.5 -206zM549 682v92q0 108 16.5 178.5 t60 124.5t123 78.5t201.5 24.5q109 0 219 -4l-36 -191q-72 2 -168 2q-62 0 -94 -6t-54.5 -29.5t-28.5 -63.5t-6 -114v-88q0 -49 3 -81t12 -58t22 -39.5t38 -22.5t55 -11.5t77 -2.5q129 0 178 2l-37 -190q-114 -4 -178 -4q-116 0 -193 22t-124 72.5t-66.5 124t-19.5 184.5z " />
<glyph unicode="&#xaa;" horiz-adv-x="890" d="M125 836q0 48 10 92q24 114 106.5 173.5t237.5 59.5q161 0 230 -57l4 20q6 23 6 66q0 56 -36.5 80t-131.5 24q-168 0 -291 -2l64 170q48 4 247 4q191 0 274 -59.5t83 -185.5q0 -57 -10 -109l-66 -342q-17 -79 -57 -109t-125 -38q-119 -13 -197 -13q-178 0 -263 54 t-85 172zM332 860q0 -52 37 -71t127 -19q69 0 147 10l21 97q4 28 4 32q0 52 -40 74.5t-122 22.5q-90 0 -124 -25t-46 -82q-4 -28 -4 -39z" />
<glyph unicode="&#xab;" horiz-adv-x="1155" d="M41 397l51 271l522 340l-53 -273l-321 -209l241 -209l-51 -258zM582 397l53 271l520 340l-53 -273l-322 -209l242 -209l-49 -258z" />
<glyph unicode="&#xac;" d="M168 752l43 219h913l-110 -559h-240l66 340h-672z" />
<glyph unicode="&#xad;" horiz-adv-x="741" d="M29 475l90 236h622l-90 -236h-622z" />
<glyph unicode="&#xae;" horiz-adv-x="1224" d="M152 991q0 292 127 414.5t426 122.5q297 0 423.5 -122.5t126.5 -414.5t-126.5 -414t-423.5 -122q-299 0 -426 122t-127 414zM326 991q0 -119 16 -190t60.5 -116t115 -61t187.5 -16q78 0 133 7t98 24.5t70 44.5t44.5 71.5t24 100.5t6.5 135q0 78 -6.5 133.5t-24 100 t-44.5 72t-70 45.5t-98.5 25t-132.5 7q-117 0 -187.5 -16.5t-115 -62t-60.5 -116.5t-16 -188zM485 729v541h263q102 0 147 -40.5t45 -131.5v-29q0 -58 -18.5 -92t-65.5 -57l111 -191h-176l-86 162h-60v-162h-160zM643 1014h66q42 0 57.5 11.5t15.5 45.5v16q0 36 -15 47 t-58 11h-66v-131z" />
<glyph unicode="&#xaf;" horiz-adv-x="1024" d="M342 1255l37 191h620l-34 -191h-623z" />
<glyph unicode="&#xb0;" horiz-adv-x="735" d="M162 1219q0 319 340 319t340 -319q0 -160 -87 -240t-253 -80t-253 80t-87 240zM352 1219q0 -86 34.5 -120t115.5 -34t114 33.5t33 120.5q0 85 -33.5 119t-113.5 34q-81 0 -115.5 -34t-34.5 -119z" />
<glyph unicode="&#xb1;" d="M63 2l43 219h893l-43 -219h-893zM164 662l43 219h348l72 362h239l-71 -362h354l-43 -219h-352l-70 -361h-240l70 361h-350z" />
<glyph unicode="&#xb2;" horiz-adv-x="786" d="M123 590l24 139q25 130 76 197t160 108l121 45q42 17 58 31.5t20 38.5q4 28 4 29q0 29 -22 40t-79 11q-189 0 -256 -4l62 166q75 4 233 4q269 0 269 -191q0 -21 -7 -61q-17 -82 -61.5 -127t-136.5 -82l-121 -47q-56 -21 -77.5 -43t-31.5 -74l-2 -10h394l-58 -170h-569z " />
<glyph unicode="&#xb3;" horiz-adv-x="786" d="M111 590l63 166q63 -2 260 -2q64 0 90 20q31 22 31 76q0 36 -25.5 50.5t-76.5 14.5h-220l62 162h188q53 0 80 21q29 23 29 67q0 34 -22.5 48t-71.5 14q-186 0 -258 -2l67 168q84 2 230 2q124 0 191 -46t67 -137q0 -72 -27 -118q-35 -71 -109 -95q101 -35 101 -155 q0 -33 -6 -60q-39 -196 -334 -196q-42 0 -160 1t-149 1z" />
<glyph unicode="&#xb4;" horiz-adv-x="1024" d="M391 1227l260 268h295l-297 -268h-258z" />
<glyph unicode="&#xb5;" horiz-adv-x="1173" d="M-63 -358l276 1423h264l-129 -662q-6 -37 -6 -61q0 -78 52.5 -112.5t174.5 -34.5q79 0 168 14l166 856h264l-170 -877q-20 -103 -70 -144.5t-165 -53.5q-65 -8 -178 -8q-116 0 -191 18t-117 63l-83 -421h-256z" />
<glyph unicode="&#xb6;" horiz-adv-x="1341" d="M154 903q0 49 14 135q40 217 179.5 318.5t377.5 101.5h672l-355 -1816h-206l315 1620h-188l-316 -1620h-207l178 917h-67q-87 0 -156.5 18.5t-125 58t-85.5 107.5t-30 160z" />
<glyph unicode="&#xb7;" horiz-adv-x="438" d="M92 666q0 98 42 143t136 45q144 0 144 -125q0 -99 -43.5 -143.5t-137.5 -44.5q-141 0 -141 125z" />
<glyph unicode="&#xb8;" horiz-adv-x="1024" d="M113 -430l53 137q86 -4 135 -4q30 0 43.5 7t20.5 30q6 15 6 27q0 32 -52 32q-59 0 -102 -2l49 131q16 0 58 1t57 1q192 0 192 -145q0 -15 -4 -43q-17 -101 -84.5 -139.5t-201.5 -38.5q-131 0 -170 6z" />
<glyph unicode="&#xb9;" horiz-adv-x="786" d="M135 590l64 176h159l91 457h-187l68 170h362l-123 -627h185l-64 -176h-555z" />
<glyph unicode="&#xba;" horiz-adv-x="935" d="M154 920q0 74 14 151q39 213 144 310.5t304 97.5q355 0 355 -310q0 -65 -15 -151q-42 -215 -147 -311.5t-303 -96.5q-175 0 -263.5 74t-88.5 236zM381 922q0 -76 33.5 -106t107.5 -30q90 0 129.5 47.5t69.5 184.5q20 90 20 151q0 76 -33 105t-108 29q-91 0 -131 -48 t-68 -184q-20 -84 -20 -149z" />
<glyph unicode="&#xbb;" horiz-adv-x="1155" d="M0 59l53 273l322 207l-242 211l51 258l389 -340l-51 -271zM541 59l55 273l322 207l-242 211l49 258l391 -340l-53 -271z" />
<glyph unicode="&#xbc;" horiz-adv-x="1845" d="M135 590l64 176h159l91 457h-187l68 170h362l-123 -627h185l-64 -176h-555zM338 0l1122 1393h244l-1124 -1393h-242zM1057 150l26 151l353 502h206l-348 -492h181l36 193l195 28l-43 -221h98l-63 -161h-66l-30 -150h-189l31 150h-387z" />
<glyph unicode="&#xbd;" horiz-adv-x="1845" d="M135 590l64 176h159l91 457h-187l68 170h362l-123 -627h185l-64 -176h-555zM283 0l1122 1393h244l-1125 -1393h-241zM1067 0l25 139q25 130 76 197t159 108l121 45q42 17 58 31.5t20 38.5q4 28 4 29q0 29 -21.5 40t-78.5 11q-189 0 -256 -4l61 166q75 4 233 4 q269 0 269 -191q0 -26 -6 -61q-17 -82 -62 -127t-137 -82l-121 -47q-56 -21 -77 -43t-31 -74l-3 -10h394l-58 -170h-569z" />
<glyph unicode="&#xbe;" horiz-adv-x="1845" d="M111 590l63 166q63 -2 260 -2q64 0 90 20q31 22 31 76q0 36 -25.5 50.5t-76.5 14.5h-220l62 162h188q53 0 80 21q29 23 29 67q0 34 -22.5 48t-71.5 14q-186 0 -258 -2l67 168q84 2 230 2q124 0 191 -46t67 -137q0 -72 -27 -118q-35 -71 -109 -95q101 -35 101 -155 q0 -33 -6 -60q-39 -196 -334 -196q-42 0 -160 1t-149 1zM311 0l1123 1393h243l-1124 -1393h-242zM1057 150l26 151l353 502h206l-348 -492h181l36 193l195 28l-43 -221h98l-63 -161h-66l-30 -150h-189l31 150h-387z" />
<glyph unicode="&#xbf;" horiz-adv-x="978" d="M-43 -82q0 42 6 88q10 78 37.5 136.5t76.5 103t107 76.5t144 65q58 23 84 36t48.5 37t32 52.5t21.5 83.5l8 47h252l-14 -80q-29 -158 -88 -224t-221 -128q-116 -44 -159.5 -83.5t-60.5 -115.5q-8 -31 -8 -69q0 -67 46 -97t155 -30q241 0 397 6l-84 -215q-141 -8 -344 -8 q-224 0 -330 77t-106 242zM528 889q0 99 42.5 142.5t138.5 43.5q141 0 141 -123q0 -98 -42 -141t-136 -43q-144 0 -144 121z" />
<glyph unicode="&#xc0;" horiz-adv-x="1439" d="M-76 0l844 1458h287l254 -1458h-273l-57 387h-561l-215 -387h-279zM537 608h413l-86 588zM580 1839h299l180 -256h-248z" />
<glyph unicode="&#xc1;" horiz-adv-x="1439" d="M-76 0l844 1458h287l254 -1458h-273l-57 387h-561l-215 -387h-279zM537 608h413l-86 588zM748 1583l280 256h320l-332 -256h-268z" />
<glyph unicode="&#xc2;" horiz-adv-x="1439" d="M-76 0l844 1458h287l254 -1458h-273l-57 387h-561l-215 -387h-279zM518 1583l293 254h285l192 -254h-248l-106 129l-160 -129h-256zM537 608h413l-86 588z" />
<glyph unicode="&#xc3;" horiz-adv-x="1439" d="M-76 0l844 1458h287l254 -1458h-273l-57 387h-561l-215 -387h-279zM530 1563l9 45q23 135 79 187t150 52q81 0 170 -47l53 -28q56 -29 88 -29q25 0 39.5 15.5t24.5 60.5l6 26h172l-8 -45q-23 -135 -80 -187t-150 -52q-81 0 -170 47l-53 28q-52 27 -88 27q-25 0 -39 -14.5 t-24 -59.5l-7 -26h-172zM537 608h413l-86 588z" />
<glyph unicode="&#xc4;" horiz-adv-x="1439" d="M-76 0l844 1458h287l254 -1458h-273l-57 387h-561l-215 -387h-279zM537 608h413l-86 588zM578 1677q0 164 163 164q127 0 127 -106q0 -82 -40 -122t-126 -40q-124 0 -124 104zM983 1677q0 164 164 164q127 0 127 -106q0 -82 -40 -122t-126 -40q-125 0 -125 104z" />
<glyph unicode="&#xc5;" horiz-adv-x="1439" d="M-76 0l797 1378q-74 55 -74 166q0 13 4 49q18 128 93.5 193t218.5 65q110 0 175.5 -51.5t65.5 -157.5q0 -13 -4 -49q-21 -153 -131 -219l240 -1374h-273l-57 387h-561l-215 -387h-279zM537 608h413l-86 588zM807 1554q0 -71 94 -71q68 0 97 24t40 78q6 30 6 47 q0 72 -94 72q-68 0 -97 -24t-40 -78q-6 -30 -6 -48z" />
<glyph unicode="&#xc6;" horiz-adv-x="2064" d="M-76 0l1057 1458h1169l-90 -235h-696l-70 -359h680l-90 -235h-637l-76 -393h777l-90 -236h-1000l80 418h-426l-295 -418h-293zM664 639h319l115 588h-19z" />
<glyph unicode="&#xc7;" horiz-adv-x="1136" d="M102 494q0 114 27 258q31 166 82.5 288t119.5 202.5t161 129.5t199 69.5t243 20.5q119 0 307 -8l-90 -235q-101 8 -223 8q-101 0 -172 -13.5t-128.5 -45.5t-97 -90t-68.5 -140.5t-52 -204.5q-29 -148 -29 -229q0 -152 81.5 -212.5t268.5 -60.5q61 0 154 2.5t147 2.5 l-90 -236q-65 -4 -260 -4q-159 0 -272.5 34.5t-180 101t-97 155.5t-30.5 207zM268 -430l54 137q86 -4 153 -4q33 0 47 14q17 17 17 45q0 35 -54 35q-67 0 -114 -2l51 133q72 2 135 2q197 0 197 -145q0 -15 -4 -43q-16 -99 -87.5 -138.5t-203.5 -39.5q-150 0 -191 6z" />
<glyph unicode="&#xc8;" horiz-adv-x="1236" d="M31 0l282 1458h1010l-90 -235h-696l-70 -359h680l-90 -235h-637l-76 -393h776l-90 -236h-999zM543 1839h299l180 -256h-248z" />
<glyph unicode="&#xc9;" horiz-adv-x="1236" d="M31 0l282 1458h1010l-90 -235h-696l-70 -359h680l-90 -235h-637l-76 -393h776l-90 -236h-999zM618 1583l281 256h320l-332 -256h-269z" />
<glyph unicode="&#xca;" horiz-adv-x="1236" d="M31 0l282 1458h1010l-90 -235h-696l-70 -359h680l-90 -235h-637l-76 -393h776l-90 -236h-999zM440 1583l293 254h285l192 -254h-247l-107 129l-160 -129h-256z" />
<glyph unicode="&#xcb;" horiz-adv-x="1236" d="M31 0l282 1458h1010l-90 -235h-696l-70 -359h680l-90 -235h-637l-76 -393h776l-90 -236h-999zM481 1677q0 164 164 164q127 0 127 -106q0 -82 -40 -122t-126 -40q-125 0 -125 104zM887 1677q0 164 164 164q127 0 127 -106q0 -82 -40 -122t-126 -40q-125 0 -125 104z" />
<glyph unicode="&#xcc;" horiz-adv-x="534" d="M31 0l282 1458h269l-283 -1458h-268zM137 1839h299l180 -256h-247z" />
<glyph unicode="&#xcd;" horiz-adv-x="534" d="M31 0l282 1458h269l-283 -1458h-268zM293 1583l280 256h320l-332 -256h-268z" />
<glyph unicode="&#xce;" horiz-adv-x="534" d="M31 0l282 1458h269l-283 -1458h-268zM72 1583l293 254h284l193 -254h-248l-107 129l-159 -129h-256z" />
<glyph unicode="&#xcf;" horiz-adv-x="534" d="M31 0l282 1458h269l-283 -1458h-268zM131 1677q0 164 164 164q127 0 127 -106q0 -82 -40 -122t-126 -40q-125 0 -125 104zM537 1677q0 164 163 164q127 0 127 -106q0 -83 -39.5 -122.5t-125.5 -39.5q-125 0 -125 104z" />
<glyph unicode="&#xd0;" horiz-adv-x="1443" d="M61 635l37 201h138l120 622h449q307 0 459.5 -124.5t152.5 -391.5q0 -93 -22 -231q-29 -168 -83.5 -293t-126 -204.5t-170 -127.5t-204.5 -67t-240 -19h-497l123 635h-136zM387 236h215q94 0 157.5 10t123.5 39.5t100.5 84t74.5 142t58 215.5q23 135 23 211q0 87 -22 144 t-70 87.5t-109 42t-154 11.5h-204l-76 -387h307l-39 -201h-307z" />
<glyph unicode="&#xd1;" horiz-adv-x="1437" d="M31 0l282 1458h238l469 -1016l197 1016h268l-283 -1458h-233l-473 1024l-197 -1024h-268zM520 1563l8 45q23 135 79 187t151 52q81 0 170 -47l53 -28q56 -29 88 -29q25 0 39.5 15.5t24.5 60.5l6 26h172l-8 -45q-23 -135 -80 -187t-150 -52q-81 0 -170 47l-53 28 q-52 27 -88 27q-25 0 -39.5 -14.5t-24.5 -59.5l-6 -26h-172z" />
<glyph unicode="&#xd2;" horiz-adv-x="1445" d="M100 477q0 121 27 277q36 210 99 353.5t157.5 229.5t212 123t276.5 37q275 0 411 -121.5t136 -392.5q0 -126 -26 -276q-36 -209 -99 -353.5t-157.5 -230t-213 -123t-276.5 -37.5q-275 0 -411 121.5t-136 392.5zM379 469q0 -82 17.5 -136.5t56 -84.5t89.5 -41.5t126 -11.5 q103 0 168 19.5t119 77.5t89 158.5t66 266.5q31 175 31 274q0 83 -18 137t-56 84t-89 42t-126 12q-68 0 -117.5 -8.5t-94 -30.5t-76.5 -58.5t-60.5 -96t-50.5 -139t-43 -190.5q-31 -155 -31 -274zM641 1839h299l180 -256h-248z" />
<glyph unicode="&#xd3;" horiz-adv-x="1445" d="M100 477q0 121 27 277q36 210 99 353.5t157.5 229.5t212 123t276.5 37q275 0 411 -121.5t136 -392.5q0 -126 -26 -276q-36 -209 -99 -353.5t-157.5 -230t-213 -123t-276.5 -37.5q-275 0 -411 121.5t-136 392.5zM379 469q0 -82 17.5 -136.5t56 -84.5t89.5 -41.5t126 -11.5 q103 0 168 19.5t119 77.5t89 158.5t66 266.5q31 175 31 274q0 83 -18 137t-56 84t-89 42t-126 12q-68 0 -117.5 -8.5t-94 -30.5t-76.5 -58.5t-60.5 -96t-50.5 -139t-43 -190.5q-31 -155 -31 -274zM688 1583l281 256h319l-332 -256h-268z" />
<glyph unicode="&#xd4;" horiz-adv-x="1445" d="M100 477q0 121 27 277q36 210 99 353.5t157.5 229.5t212 123t276.5 37q275 0 411 -121.5t136 -392.5q0 -126 -26 -276q-36 -209 -99 -353.5t-157.5 -230t-213 -123t-276.5 -37.5q-275 0 -411 121.5t-136 392.5zM379 469q0 -82 17.5 -136.5t56 -84.5t89.5 -41.5t126 -11.5 q103 0 168 19.5t119 77.5t89 158.5t66 266.5q31 175 31 274q0 83 -18 137t-56 84t-89 42t-126 12q-68 0 -117.5 -8.5t-94 -30.5t-76.5 -58.5t-60.5 -96t-50.5 -139t-43 -190.5q-31 -155 -31 -274zM514 1583l293 254h285l192 -254h-248l-106 129l-160 -129h-256z" />
<glyph unicode="&#xd5;" horiz-adv-x="1445" d="M100 477q0 121 27 277q36 210 99 353.5t157.5 229.5t212 123t276.5 37q275 0 411 -121.5t136 -392.5q0 -126 -26 -276q-36 -209 -99 -353.5t-157.5 -230t-213 -123t-276.5 -37.5q-275 0 -411 121.5t-136 392.5zM379 469q0 -82 17.5 -136.5t56 -84.5t89.5 -41.5t126 -11.5 q103 0 168 19.5t119 77.5t89 158.5t66 266.5q31 175 31 274q0 83 -18 137t-56 84t-89 42t-126 12q-68 0 -117.5 -8.5t-94 -30.5t-76.5 -58.5t-60.5 -96t-50.5 -139t-43 -190.5q-31 -155 -31 -274zM522 1563l8 45q23 135 79 187t151 52q81 0 170 -47l53 -28q56 -29 88 -29 q25 0 39.5 15.5t24.5 60.5l6 26h172l-8 -45q-23 -135 -80 -187t-150 -52q-81 0 -170 47l-53 28q-52 27 -88 27q-25 0 -39.5 -14.5t-24.5 -59.5l-6 -26h-172z" />
<glyph unicode="&#xd6;" horiz-adv-x="1445" d="M100 477q0 121 27 277q36 210 99 353.5t157.5 229.5t212 123t276.5 37q275 0 411 -121.5t136 -392.5q0 -126 -26 -276q-36 -209 -99 -353.5t-157.5 -230t-213 -123t-276.5 -37.5q-275 0 -411 121.5t-136 392.5zM379 469q0 -82 17.5 -136.5t56 -84.5t89.5 -41.5t126 -11.5 q103 0 168 19.5t119 77.5t89 158.5t66 266.5q31 175 31 274q0 83 -18 137t-56 84t-89 42t-126 12q-68 0 -117.5 -8.5t-94 -30.5t-76.5 -58.5t-60.5 -96t-50.5 -139t-43 -190.5q-31 -155 -31 -274zM569 1677q0 164 164 164q127 0 127 -106q0 -82 -40 -122t-126 -40 q-125 0 -125 104zM975 1677q0 164 164 164q127 0 127 -106q0 -82 -40 -122t-126 -40q-125 0 -125 104z" />
<glyph unicode="&#xd7;" d="M137 416l344 289l-223 280l182 152l224 -281l333 281l144 -172l-338 -281l231 -287l-184 -151l-229 284l-340 -284z" />
<glyph unicode="&#xd8;" horiz-adv-x="1445" d="M20 -184l197 286q-117 123 -117 375q0 121 27 277q36 210 99 353.5t157.5 229.5t212 123t276.5 37q176 0 277 -41l131 189h223l-200 -291q116 -122 116 -371q0 -126 -26 -276q-36 -209 -99 -353.5t-157.5 -230t-213 -123t-276.5 -37.5q-167 0 -274 39l-129 -186h-224z M379 469q0 -76 10 -117l617 893q-62 21 -154 21q-68 0 -117.5 -8.5t-94 -30.5t-76.5 -58.5t-60.5 -96t-50.5 -139t-43 -190.5q-31 -155 -31 -274zM516 213q53 -18 152 -18q103 0 168 19.5t119 77.5t89 158.5t66 266.5q31 175 31 274q0 47 -11 111z" />
<glyph unicode="&#xd9;" horiz-adv-x="1394" d="M106 381q0 67 17 147l180 930h268l-180 -930q-14 -77 -14 -122q0 -114 66.5 -160.5t211.5 -46.5q157 0 235 70.5t114 258.5l180 930h268l-186 -962q-56 -286 -208 -409.5t-419 -123.5q-263 0 -398 106.5t-135 311.5zM588 1839h299l180 -256h-248z" />
<glyph unicode="&#xda;" horiz-adv-x="1394" d="M106 381q0 67 17 147l180 930h268l-180 -930q-14 -77 -14 -122q0 -114 66.5 -160.5t211.5 -46.5q157 0 235 70.5t114 258.5l180 930h268l-186 -962q-56 -286 -208 -409.5t-419 -123.5q-263 0 -398 106.5t-135 311.5zM666 1583l280 256h320l-332 -256h-268z" />
<glyph unicode="&#xdb;" horiz-adv-x="1394" d="M106 381q0 67 17 147l180 930h268l-180 -930q-14 -77 -14 -122q0 -114 66.5 -160.5t211.5 -46.5q157 0 235 70.5t114 258.5l180 930h268l-186 -962q-56 -286 -208 -409.5t-419 -123.5q-263 0 -398 106.5t-135 311.5zM502 1583l293 254h284l193 -254h-248l-106 129 l-160 -129h-256z" />
<glyph unicode="&#xdc;" horiz-adv-x="1394" d="M106 381q0 67 17 147l180 930h268l-180 -930q-14 -77 -14 -122q0 -114 66.5 -160.5t211.5 -46.5q157 0 235 70.5t114 258.5l180 930h268l-186 -962q-56 -286 -208 -409.5t-419 -123.5q-263 0 -398 106.5t-135 311.5zM559 1677q0 164 164 164q127 0 127 -106 q0 -82 -40 -122t-126 -40q-125 0 -125 104zM965 1677q0 164 163 164q127 0 127 -106q0 -83 -39.5 -122.5t-125.5 -39.5q-125 0 -125 104z" />
<glyph unicode="&#xdd;" horiz-adv-x="1337" d="M195 1458h286l224 -635l491 635h301l-690 -856l-117 -602h-268l117 600zM633 1583l280 256h320l-332 -256h-268z" />
<glyph unicode="&#xde;" horiz-adv-x="1280" d="M31 0l282 1458h269l-52 -258h205q516 0 516 -379q0 -53 -12 -114q-19 -101 -58.5 -177t-92.5 -125.5t-126.5 -79.5t-154 -42.5t-182.5 -12.5h-275l-51 -270h-268zM395 502h252q164 0 234 45t90 162q10 55 10 86q0 96 -59.5 135t-188.5 39h-248z" />
<glyph unicode="&#xdf;" horiz-adv-x="1189" d="M6 0l211 1092q42 222 171.5 333t363.5 111q214 0 319 -88t105 -242q0 -46 -9 -96q-38 -209 -225 -283q166 -71 166 -292q0 -61 -8 -97q-36 -232 -167.5 -337t-357.5 -105q-101 0 -184 14l84 203q27 -6 98 -6q42 0 72.5 4.5t64 20.5t57 43.5t44 75t31.5 114.5q6 37 6 72 q0 178 -178 178h-129l75 211h72q99 0 156.5 44t73.5 152q2 23 2 56q0 153 -191 153q-114 0 -169 -61t-85 -211l-205 -1059h-264z" />
<glyph unicode="&#xe0;" horiz-adv-x="1116" d="M37 262q0 69 14 129q65 295 434 295q205 0 297 -88l6 29q13 67 13 94q0 70 -49.5 101.5t-165.5 31.5q-272 0 -379 -4l82 215q59 4 319 4q224 0 328 -79t104 -240q0 -36 -16 -134l-80 -428q-20 -100 -70 -140.5t-153 -51.5q-126 -14 -270 -14q-212 0 -313 67.5t-101 212.5 zM285 291q0 -70 47 -93.5t162 -23.5q123 0 202 10l21 99q10 44 10 84q0 71 -50 102t-161 31q-107 0 -157.5 -33.5t-67.5 -118.5q-6 -34 -6 -57zM424 1495h281l165 -268h-243z" />
<glyph unicode="&#xe1;" horiz-adv-x="1116" d="M37 262q0 69 14 129q65 295 434 295q205 0 297 -88l6 29q13 67 13 94q0 70 -49.5 101.5t-165.5 31.5q-272 0 -379 -4l82 215q59 4 319 4q224 0 328 -79t104 -240q0 -36 -16 -134l-80 -428q-20 -100 -70 -140.5t-153 -51.5q-126 -14 -270 -14q-212 0 -313 67.5t-101 212.5 zM285 291q0 -70 47 -93.5t162 -23.5q123 0 202 10l21 99q10 44 10 84q0 71 -50 102t-161 31q-107 0 -157.5 -33.5t-67.5 -118.5q-6 -34 -6 -57zM487 1227l261 268h294l-297 -268h-258z" />
<glyph unicode="&#xe2;" horiz-adv-x="1116" d="M37 262q0 69 14 129q65 295 434 295q205 0 297 -88l6 29q13 67 13 94q0 70 -49.5 101.5t-165.5 31.5q-272 0 -379 -4l82 215q59 4 319 4q224 0 328 -79t104 -240q0 -36 -16 -134l-80 -428q-20 -100 -70 -140.5t-153 -51.5q-126 -14 -270 -14q-212 0 -313 67.5t-101 212.5 zM285 291q0 -70 47 -93.5t162 -23.5q123 0 202 10l21 99q10 44 10 84q0 71 -50 102t-161 31q-107 0 -157.5 -33.5t-67.5 -118.5q-6 -34 -6 -57zM322 1227l276 270h268l168 -270h-227l-94 143l-152 -143h-239z" />
<glyph unicode="&#xe3;" horiz-adv-x="1116" d="M37 262q0 69 14 129q65 295 434 295q205 0 297 -88l6 29q13 67 13 94q0 70 -49.5 101.5t-165.5 31.5q-272 0 -379 -4l82 215q59 4 319 4q224 0 328 -79t104 -240q0 -36 -16 -134l-80 -428q-20 -100 -70 -140.5t-153 -51.5q-126 -14 -270 -14q-212 0 -313 67.5t-101 212.5 zM285 291q0 -70 47 -93.5t162 -23.5q123 0 202 10l21 99q10 44 10 84q0 71 -50 102t-161 31q-107 0 -157.5 -33.5t-67.5 -118.5q-6 -34 -6 -57zM307 1223l8 43q25 130 76.5 179.5t143.5 49.5q75 0 157 -43l51 -25q54 -26 84 -26q25 0 36.5 12t21.5 53l6 27h172l-8 -43 q-25 -130 -76 -179.5t-143 -49.5q-76 0 -158 43l-51 24q-56 27 -84 27q-24 0 -36 -13t-22 -53l-6 -26h-172z" />
<glyph unicode="&#xe4;" horiz-adv-x="1116" d="M37 262q0 69 14 129q65 295 434 295q205 0 297 -88l6 29q13 67 13 94q0 70 -49.5 101.5t-165.5 31.5q-272 0 -379 -4l82 215q59 4 319 4q224 0 328 -79t104 -240q0 -36 -16 -134l-80 -428q-20 -100 -70 -140.5t-153 -51.5q-126 -14 -270 -14q-212 0 -313 67.5t-101 212.5 zM285 291q0 -70 47 -93.5t162 -23.5q123 0 202 10l21 99q10 44 10 84q0 71 -50 102t-161 31q-107 0 -157.5 -33.5t-67.5 -118.5q-6 -34 -6 -57zM352 1321q0 82 38 123t126 41q123 0 123 -101q0 -81 -38 -122t-126 -41q-123 0 -123 100zM733 1321q0 82 38 123t126 41 q123 0 123 -101q0 -81 -38 -122t-126 -41q-123 0 -123 100z" />
<glyph unicode="&#xe5;" horiz-adv-x="1116" d="M37 262q0 69 14 129q65 295 434 295q205 0 297 -88l6 29q13 67 13 94q0 70 -49.5 101.5t-165.5 31.5q-272 0 -379 -4l82 215q59 4 319 4q224 0 328 -79t104 -240q0 -36 -16 -134l-80 -428q-20 -100 -70 -140.5t-153 -51.5q-126 -14 -270 -14q-212 0 -313 67.5t-101 212.5 zM285 291q0 -70 47 -93.5t162 -23.5q123 0 202 10l21 99q10 44 10 84q0 71 -50 102t-161 31q-107 0 -157.5 -33.5t-67.5 -118.5q-6 -34 -6 -57zM432 1364q0 37 10 78q28 111 98 168t205 57q108 0 174 -50t66 -155q0 -37 -10 -78q-28 -111 -98 -168t-205 -57 q-109 0 -174.5 50.5t-65.5 154.5zM598 1374q0 -69 90 -69q63 0 88 23t37 75q6 30 6 49q0 70 -90 70q-63 0 -88 -23.5t-37 -75.5q-6 -30 -6 -49z" />
<glyph unicode="&#xe6;" horiz-adv-x="1759" d="M37 266q0 46 12 105q29 144 127 213t303 69h316q8 33 8 70q0 74 -49.5 102.5t-173.5 28.5q-268 0 -373 -4l82 215q60 4 309 4q267 0 352 -119q133 144 377 144q194 0 299 -69.5t105 -203.5q0 -49 -11 -94q-31 -143 -146 -210.5t-341 -67.5h-238q-4 -17 -4 -66 q0 -98 52.5 -140t175.5 -42q245 0 350 8l-78 -203q-110 -10 -301 -10q-261 0 -361 143q-121 -157 -391 -157q-401 0 -401 284zM285 289q0 -62 42 -88.5t144 -26.5q229 0 264 182l21 111h-264q-102 0 -146 -32t-57 -103q-4 -28 -4 -43zM1032 643h201q124 0 172.5 21.5 t69.5 80.5q8 24 8 54q0 94 -176 94q-115 0 -177 -53.5t-98 -196.5z" />
<glyph unicode="&#xe7;" horiz-adv-x="942" d="M74 371q0 91 20 194q24 123 64.5 212t93.5 145.5t127.5 89t156.5 45t193 12.5q13 0 229 -6l-84 -213q-98 4 -174 4q-86 0 -140 -12t-95.5 -45t-65 -89t-39.5 -147q-20 -103 -20 -170q0 -105 52 -142.5t175 -37.5q181 0 264 4l-79 -215q-126 -4 -205 -4q-253 0 -363 95 t-110 280zM152 -430l53 137q86 -4 135 -4q30 0 43 7t20 30q7 18 7 27q0 32 -52 32q-59 0 -102 -2l49 131q15 0 57 1t58 1q192 0 192 -145q0 -15 -4 -43q-17 -101 -84.5 -139.5t-201.5 -38.5q-131 0 -170 6z" />
<glyph unicode="&#xe8;" horiz-adv-x="1095" d="M74 375q0 91 20 188q26 129 70 225t97 154.5t122.5 94t137 48.5t149.5 13q201 0 299 -75t98 -210q0 -47 -12 -102q-32 -147 -144 -212t-338 -65h-241q-4 -36 -4 -49q0 -98 50 -141t167 -43q262 0 360 8l-78 -203q-110 -10 -321 -10q-120 0 -205.5 28t-134 80t-70.5 118.5 t-22 152.5zM367 629h206q84 0 130.5 10.5t69 32.5t36.5 65q10 31 10 58q0 50 -39 76t-129 26q-122 0 -184.5 -58.5t-99.5 -209.5zM459 1495h280l166 -268h-243z" />
<glyph unicode="&#xe9;" horiz-adv-x="1095" d="M74 375q0 91 20 188q26 129 70 225t97 154.5t122.5 94t137 48.5t149.5 13q201 0 299 -75t98 -210q0 -47 -12 -102q-32 -147 -144 -212t-338 -65h-241q-4 -36 -4 -49q0 -98 50 -141t167 -43q262 0 360 8l-78 -203q-110 -10 -321 -10q-120 0 -205.5 28t-134 80t-70.5 118.5 t-22 152.5zM367 629h206q84 0 130.5 10.5t69 32.5t36.5 65q10 31 10 58q0 50 -39 76t-129 26q-122 0 -184.5 -58.5t-99.5 -209.5zM557 1227l260 268h295l-297 -268h-258z" />
<glyph unicode="&#xea;" horiz-adv-x="1095" d="M74 375q0 91 20 188q26 129 70 225t97 154.5t122.5 94t137 48.5t149.5 13q201 0 299 -75t98 -210q0 -47 -12 -102q-32 -147 -144 -212t-338 -65h-241q-4 -36 -4 -49q0 -98 50 -141t167 -43q262 0 360 8l-78 -203q-110 -10 -321 -10q-120 0 -205.5 28t-134 80t-70.5 118.5 t-22 152.5zM344 1227l277 270h268l168 -270h-228l-94 143l-151 -143h-240zM367 629h206q84 0 130.5 10.5t69 32.5t36.5 65q10 31 10 58q0 50 -39 76t-129 26q-122 0 -184.5 -58.5t-99.5 -209.5z" />
<glyph unicode="&#xeb;" horiz-adv-x="1095" d="M74 375q0 91 20 188q26 129 70 225t97 154.5t122.5 94t137 48.5t149.5 13q201 0 299 -75t98 -210q0 -47 -12 -102q-32 -147 -144 -212t-338 -65h-241q-4 -36 -4 -49q0 -98 50 -141t167 -43q262 0 360 8l-78 -203q-110 -10 -321 -10q-120 0 -205.5 28t-134 80t-70.5 118.5 t-22 152.5zM367 629h206q84 0 130.5 10.5t69 32.5t36.5 65q10 31 10 58q0 50 -39 76t-129 26q-122 0 -184.5 -58.5t-99.5 -209.5zM385 1321q0 82 38 123t126 41q123 0 123 -101q0 -81 -38 -122t-126 -41q-123 0 -123 100zM766 1321q0 82 38 123t126 41q123 0 123 -101 q0 -81 -38 -122t-126 -41q-123 0 -123 100z" />
<glyph unicode="&#xec;" horiz-adv-x="481" d="M6 0l207 1065h264l-207 -1065h-264zM80 1495h280l166 -268h-243z" />
<glyph unicode="&#xed;" horiz-adv-x="481" d="M6 0l207 1065h264l-207 -1065h-264zM201 1227l260 268h295l-297 -268h-258z" />
<glyph unicode="&#xee;" horiz-adv-x="481" d="M0 1227l276 270h269l168 -270h-228l-94 143l-151 -143h-240zM6 0l207 1065h264l-207 -1065h-264z" />
<glyph unicode="&#xef;" horiz-adv-x="481" d="M6 0l207 1065h264l-207 -1065h-264zM51 1321q0 82 38 123t126 41q123 0 123 -101q0 -81 -38 -122t-126 -41q-123 0 -123 100zM432 1321q0 82 38 123t126 41q123 0 123 -101q0 -81 -38 -122t-126 -41q-123 0 -123 100z" />
<glyph unicode="&#xf0;" horiz-adv-x="1198" d="M68 350q0 93 16 158q48 239 185 355t345 116q89 0 161 -25.5t110 -72.5q6 46 6 80q0 95 -33 174l-235 -82l-48 139l213 76q-47 70 -104 127l205 141q91 -88 145 -182l176 63l50 -143l-162 -57q47 -136 47 -299q0 -198 -68 -490q-19 -84 -44 -148.5t-68.5 -125.5 t-102.5 -100.5t-146.5 -63t-199.5 -23.5q-448 0 -448 383zM332 356q0 -98 50 -134t157 -36q130 0 187 53t89 201q16 67 16 148q0 98 -49 135t-155 37q-132 0 -190 -54t-87 -202q-18 -88 -18 -148z" />
<glyph unicode="&#xf1;" horiz-adv-x="1175" d="M6 0l131 678q44 229 169 324.5t370 95.5q207 0 316.5 -84t109.5 -252q0 -54 -12 -115l-125 -647h-265l127 655q11 61 11 78q0 78 -43 112t-131 34q-132 0 -187.5 -45.5t-79.5 -178.5l-127 -655h-264zM324 1210l8 43q25 130 76 180t143 50q76 0 158 -43l51 -25 q54 -26 84 -26q24 0 35.5 12t21.5 53l6 27h172l-8 -43q-25 -130 -76 -180t-143 -50q-76 0 -158 43l-51 25q-56 27 -84 27q-24 0 -35.5 -13t-21.5 -53l-6 -27h-172z" />
<glyph unicode="&#xf2;" horiz-adv-x="1185" d="M72 358q0 81 22 207q53 283 187 408t391 125q221 0 331.5 -91.5t110.5 -299.5q0 -81 -22 -207q-54 -285 -187.5 -409t-390.5 -124q-221 0 -331.5 91.5t-110.5 299.5zM336 371q0 -107 47.5 -149t155.5 -42q132 0 190.5 66t95.5 248q25 131 25 200q0 107 -48.5 149 t-156.5 42q-133 0 -190.5 -65.5t-94.5 -248.5q-24 -126 -24 -200zM426 1495h281l165 -268h-243z" />
<glyph unicode="&#xf3;" horiz-adv-x="1185" d="M72 358q0 81 22 207q53 283 187 408t391 125q221 0 331.5 -91.5t110.5 -299.5q0 -81 -22 -207q-54 -285 -187.5 -409t-390.5 -124q-221 0 -331.5 91.5t-110.5 299.5zM336 371q0 -107 47.5 -149t155.5 -42q132 0 190.5 66t95.5 248q25 131 25 200q0 107 -48.5 149 t-156.5 42q-133 0 -190.5 -65.5t-94.5 -248.5q-24 -126 -24 -200zM514 1227l260 268h295l-297 -268h-258z" />
<glyph unicode="&#xf4;" horiz-adv-x="1185" d="M72 358q0 81 22 207q53 283 187 408t391 125q221 0 331.5 -91.5t110.5 -299.5q0 -81 -22 -207q-54 -285 -187.5 -409t-390.5 -124q-221 0 -331.5 91.5t-110.5 299.5zM336 371q0 -107 47.5 -149t155.5 -42q132 0 190.5 66t95.5 248q25 131 25 200q0 107 -48.5 149 t-156.5 42q-133 0 -190.5 -65.5t-94.5 -248.5q-24 -126 -24 -200zM350 1227l277 270h268l168 -270h-227l-95 143l-151 -143h-240z" />
<glyph unicode="&#xf5;" horiz-adv-x="1185" d="M72 358q0 81 22 207q53 283 187 408t391 125q221 0 331.5 -91.5t110.5 -299.5q0 -81 -22 -207q-54 -285 -187.5 -409t-390.5 -124q-221 0 -331.5 91.5t-110.5 299.5zM336 371q0 -107 47.5 -149t155.5 -42q132 0 190.5 66t95.5 248q25 131 25 200q0 107 -48.5 149 t-156.5 42q-133 0 -190.5 -65.5t-94.5 -248.5q-24 -126 -24 -200zM346 1223l8 43q25 130 76 179.5t143 49.5q76 0 158 -43l51 -25q54 -26 84 -26q25 0 36.5 12t21.5 53l6 27h172l-8 -43q-25 -130 -76.5 -179.5t-143.5 -49.5q-75 0 -157 43l-51 24q-56 27 -84 27 q-24 0 -36 -13t-22 -53l-6 -26h-172z" />
<glyph unicode="&#xf6;" horiz-adv-x="1185" d="M72 358q0 81 22 207q53 283 187 408t391 125q221 0 331.5 -91.5t110.5 -299.5q0 -81 -22 -207q-54 -285 -187.5 -409t-390.5 -124q-221 0 -331.5 91.5t-110.5 299.5zM336 371q0 -107 47.5 -149t155.5 -42q132 0 190.5 66t95.5 248q25 131 25 200q0 107 -48.5 149 t-156.5 42q-133 0 -190.5 -65.5t-94.5 -248.5q-24 -126 -24 -200zM395 1321q0 82 38 123t126 41q123 0 123 -101q0 -81 -38 -122t-126 -41q-123 0 -123 100zM776 1321q0 82 38 123t126 41q123 0 123 -101q0 -81 -38 -122t-126 -41q-123 0 -123 100z" />
<glyph unicode="&#xf7;" d="M172 588l43 219h893l-43 -219h-893zM426 322q0 88 38 126.5t124 38.5q129 0 129 -108q0 -88 -38 -127t-124 -39q-129 0 -129 109zM563 1016q0 87 38 126.5t124 39.5q129 0 129 -111q0 -87 -38 -126.5t-124 -39.5q-129 0 -129 111z" />
<glyph unicode="&#xf8;" horiz-adv-x="1185" d="M23 -139l147 209q-98 91 -98 288q0 81 22 207q53 283 187 408t391 125q122 0 207 -27l96 135h190l-149 -213q98 -94 98 -286q0 -81 -22 -207q-54 -285 -187.5 -409t-390.5 -124q-124 0 -207 27l-94 -133h-190zM336 371q0 -50 4 -62l399 565q-57 11 -94 11 q-133 0 -190.5 -65.5t-94.5 -248.5q-24 -126 -24 -200zM446 190q31 -10 93 -10q132 0 190.5 66t95.5 248q25 131 25 200q0 28 -4 60z" />
<glyph unicode="&#xf9;" horiz-adv-x="1167" d="M74 301q0 47 12 117l125 647h262l-127 -655q-8 -41 -8 -80q0 -78 41.5 -111t130.5 -33q128 0 181.5 46t78.5 180l127 653h264l-131 -678q-44 -229 -168.5 -324.5t-365.5 -95.5q-205 0 -313.5 84t-108.5 250zM440 1495h281l166 -268h-244z" />
<glyph unicode="&#xfa;" horiz-adv-x="1167" d="M74 301q0 47 12 117l125 647h262l-127 -655q-8 -41 -8 -80q0 -78 41.5 -111t130.5 -33q128 0 181.5 46t78.5 180l127 653h264l-131 -678q-44 -229 -168.5 -324.5t-365.5 -95.5q-205 0 -313.5 84t-108.5 250zM496 1227l260 268h295l-297 -268h-258z" />
<glyph unicode="&#xfb;" horiz-adv-x="1167" d="M74 301q0 47 12 117l125 647h262l-127 -655q-8 -41 -8 -80q0 -78 41.5 -111t130.5 -33q128 0 181.5 46t78.5 180l127 653h264l-131 -678q-44 -229 -168.5 -324.5t-365.5 -95.5q-205 0 -313.5 84t-108.5 250zM344 1227l277 270h268l168 -270h-228l-94 143l-151 -143h-240z " />
<glyph unicode="&#xfc;" horiz-adv-x="1167" d="M74 301q0 47 12 117l125 647h262l-127 -655q-8 -41 -8 -80q0 -78 41.5 -111t130.5 -33q128 0 181.5 46t78.5 180l127 653h264l-131 -678q-44 -229 -168.5 -324.5t-365.5 -95.5q-205 0 -313.5 84t-108.5 250zM389 1321q0 82 38 123t126 41q123 0 123 -101q0 -81 -38 -122 t-126 -41q-123 0 -123 100zM770 1321q0 82 38 123t126 41q123 0 123 -101q0 -81 -38 -122t-126 -41q-123 0 -123 100z" />
<glyph unicode="&#xfd;" horiz-adv-x="1165" d="M18 -358l82 213q245 -5 322 -5q127 0 192.5 52.5t94.5 185.5l6 31q-90 -78 -250 -78q-183 0 -281 81t-98 243q0 40 14 122l111 578h262l-111 -582q-10 -58 -10 -80q0 -82 41.5 -115.5t130.5 -33.5q127 0 182 48.5t80 182.5l111 580h264l-186 -959q-50 -251 -176 -359.5 t-371 -108.5q-312 0 -410 4zM502 1227l260 268h295l-297 -268h-258z" />
<glyph unicode="&#xfe;" horiz-adv-x="1206" d="M-63 -358l364 1880h264l-96 -500q86 74 256 74q202 0 306 -96t104 -300q0 -82 -27 -217q-55 -272 -183.5 -394t-346.5 -122q-213 0 -295 101l-84 -426h-262zM354 377q0 -112 51.5 -154.5t161.5 -42.5q62 0 103 12.5t75.5 47t57.5 94t43 155.5q24 126 24 201 q0 112 -51 153.5t-160 41.5q-126 0 -182.5 -62t-93.5 -243q-29 -149 -29 -203z" />
<glyph unicode="&#xff;" horiz-adv-x="1165" d="M18 -358l82 213q245 -5 322 -5q127 0 192.5 52.5t94.5 185.5l6 31q-90 -78 -250 -78q-183 0 -281 81t-98 243q0 40 14 122l111 578h262l-111 -582q-10 -58 -10 -80q0 -82 41.5 -115.5t130.5 -33.5q127 0 182 48.5t80 182.5l111 580h264l-186 -959q-50 -251 -176 -359.5 t-371 -108.5q-312 0 -410 4zM389 1321q0 82 38 123t126 41q123 0 123 -101q0 -81 -38 -122t-126 -41q-123 0 -123 100zM770 1321q0 82 38 123t126 41q123 0 123 -101q0 -81 -38 -122t-126 -41q-123 0 -123 100z" />
<glyph unicode="&#x152;" horiz-adv-x="2023" d="M100 498q0 105 25 252q31 168 81.5 290t117 202.5t160 128.5t200 67.5t246.5 19.5h1179l-90 -235h-696l-70 -359h680l-90 -235h-637l-76 -393h777l-90 -236h-1115q-313 0 -457.5 118.5t-144.5 379.5zM381 502q0 -155 78 -213t258 -58h145l191 994h-148q-80 0 -136 -7 t-109 -26.5t-89 -53.5t-68 -89t-55 -132t-42 -184q-25 -147 -25 -231z" />
<glyph unicode="&#x153;" horiz-adv-x="1837" d="M72 362q0 77 22 203q53 283 187 408t391 125q249 0 338 -148q145 148 401 148q201 0 299 -75t98 -210q0 -47 -12 -102q-32 -147 -143.5 -212t-337.5 -65h-242q-4 -36 -4 -49q0 -98 50 -141t167 -43q263 0 361 8l-78 -203q-110 -10 -322 -10q-249 0 -354 121 q-65 -77 -156.5 -111.5t-222.5 -34.5q-221 0 -331.5 91.5t-110.5 299.5zM336 375q0 -107 47.5 -149t155.5 -42q132 0 190.5 64t95.5 246q25 131 25 200q0 107 -48.5 149t-156.5 42q-133 0 -190.5 -65.5t-94.5 -248.5q-24 -126 -24 -196zM1108 629h207q84 0 130 10.5 t68.5 32.5t36.5 65q11 34 11 58q0 50 -39 76t-129 26q-122 0 -185.5 -58.5t-99.5 -209.5z" />
<glyph unicode="&#x178;" horiz-adv-x="1337" d="M195 1458h286l224 -635l491 635h301l-690 -856l-117 -602h-268l117 600zM518 1677q0 164 164 164q127 0 127 -106q0 -82 -40 -122t-126 -40q-125 0 -125 104zM924 1677q0 164 163 164q127 0 127 -106q0 -83 -40 -122.5t-125 -39.5q-125 0 -125 104z" />
<glyph unicode="&#x2c6;" horiz-adv-x="1024" d="M287 1227l276 270h268l168 -270h-227l-94 143l-152 -143h-239z" />
<glyph unicode="&#x2dc;" horiz-adv-x="1024" d="M297 1223l8 43q25 130 76 179.5t143 49.5q76 0 158 -43l51 -25q54 -26 84 -26q24 0 35.5 12t21.5 53l7 27h172l-9 -43q-25 -130 -76 -179.5t-143 -49.5q-75 0 -157 43l-52 24q-56 27 -84 27q-24 0 -35.5 -13t-21.5 -53l-6 -26h-172z" />
<glyph unicode="&#x2000;" horiz-adv-x="925" />
<glyph unicode="&#x2001;" horiz-adv-x="1851" />
<glyph unicode="&#x2002;" horiz-adv-x="925" />
<glyph unicode="&#x2003;" horiz-adv-x="1851" />
<glyph unicode="&#x2004;" horiz-adv-x="617" />
<glyph unicode="&#x2005;" horiz-adv-x="462" />
<glyph unicode="&#x2006;" horiz-adv-x="308" />
<glyph unicode="&#x2007;" horiz-adv-x="308" />
<glyph unicode="&#x2008;" horiz-adv-x="231" />
<glyph unicode="&#x2009;" horiz-adv-x="370" />
<glyph unicode="&#x200a;" horiz-adv-x="102" />
<glyph unicode="&#x2010;" horiz-adv-x="741" d="M29 475l90 236h622l-90 -236h-622z" />
<glyph unicode="&#x2011;" horiz-adv-x="741" d="M29 475l90 236h622l-90 -236h-622z" />
<glyph unicode="&#x2012;" horiz-adv-x="741" d="M29 475l90 236h622l-90 -236h-622z" />
<glyph unicode="&#x2013;" horiz-adv-x="1024" d="M-20 457l45 233h1024l-48 -233h-1021z" />
<glyph unicode="&#x2014;" horiz-adv-x="2048" d="M-20 457l45 233h2048l-48 -233h-2045z" />
<glyph unicode="&#x2018;" horiz-adv-x="503" d="M176 1049q0 57 27 110.5t98 153.5l150 209h167l-180 -324q43 -31 43 -92q0 -94 -40 -136t-130 -42q-135 0 -135 121z" />
<glyph unicode="&#x2019;" horiz-adv-x="503" d="M143 932l181 323q-43 31 -43 93q0 94 40 136t130 42q135 0 135 -121q0 -57 -27 -110.5t-98 -153.5l-150 -209h-168z" />
<glyph unicode="&#x201a;" horiz-adv-x="415" d="M-156 -326l176 324q-40 28 -40 92q0 93 41 135.5t129 42.5q135 0 135 -121q0 -57 -26.5 -111.5t-96.5 -152.5l-150 -209h-168z" />
<glyph unicode="&#x201c;" horiz-adv-x="942" d="M176 1049q0 57 27 110.5t98 153.5l150 209h167l-180 -324q43 -31 43 -92q0 -94 -40 -136t-130 -42q-135 0 -135 121zM614 1049q0 57 27 110.5t98 153.5l150 209h168l-180 -324q43 -31 43 -92q0 -94 -40 -136t-130 -42q-136 0 -136 121z" />
<glyph unicode="&#x201d;" horiz-adv-x="942" d="M143 932l181 323q-43 31 -43 93q0 94 40 136t130 42q135 0 135 -121q0 -57 -27 -110.5t-98 -153.5l-150 -209h-168zM582 932l180 323q-43 31 -43 93q0 94 40 136t130 42q135 0 135 -121q0 -57 -27 -110.5t-98 -153.5l-149 -209h-168z" />
<glyph unicode="&#x201e;" horiz-adv-x="856" d="M-154 -324l181 324q-43 31 -43 92q0 94 40 136t130 42q135 0 135 -120q0 -57 -27 -111.5t-98 -153.5l-150 -209h-168zM283 -324l180 324q-43 31 -43 92q0 94 40 136t130 42q135 0 135 -120q0 -57 -27 -111.5t-98 -153.5l-149 -209h-168z" />
<glyph unicode="&#x2022;" horiz-adv-x="868" d="M156 573q0 144 65 212.5t215 68.5q151 0 216 -68.5t65 -212.5t-65 -212t-216 -68t-215.5 68t-64.5 212z" />
<glyph unicode="&#x2026;" horiz-adv-x="2048" d="M102 109q0 98 42.5 143t136.5 45q143 0 143 -125q0 -99 -43 -143.5t-137 -44.5q-142 0 -142 125zM786 109q0 98 42.5 143t136.5 45q143 0 143 -125q0 -99 -43 -143.5t-137 -44.5q-142 0 -142 125zM1468 109q0 98 42.5 143t136.5 45q143 0 143 -125q0 -99 -43 -143.5 t-137 -44.5q-142 0 -142 125z" />
<glyph unicode="&#x202f;" horiz-adv-x="370" />
<glyph unicode="&#x2039;" horiz-adv-x="659" d="M41 397l51 271l572 338l-54 -271l-356 -209l276 -209l-51 -258z" />
<glyph unicode="&#x203a;" horiz-adv-x="659" d="M-2 59l53 273l357 207l-277 211l51 256l439 -338l-52 -271z" />
<glyph unicode="&#x205f;" horiz-adv-x="462" />
<glyph unicode="&#x20ac;" d="M49 432l72 184h112q11 82 31 162h-145l69 185h127q45 126 107 209.5t149 133.5t192.5 70.5t250.5 20.5q183 0 256 -4l-82 -219q-55 4 -209 4q-168 0 -260.5 -46.5t-143.5 -168.5h508l-71 -185h-498q-16 -53 -31 -162h533l-72 -184h-471q12 -122 85 -169.5t239 -47.5 q53 0 136.5 2t129.5 2l-80 -219q-55 -4 -225 -4q-279 0 -405.5 111.5t-131.5 324.5h-172z" />
<glyph unicode="&#x2122;" horiz-adv-x="1755" d="M164 1284l69 174h680l-67 -174h-223l-115 -588h-205l115 588h-254zM854 696l147 762h209l125 -354l254 354h230l-150 -762h-194l94 480l-211 -289h-121l-98 289l-95 -480h-190z" />
<glyph unicode="&#x25fc;" horiz-adv-x="1064" d="M0 0v1065h1065v-1065h-1065z" />
</font>
</defs>
</svg>
