<?xml version="1.0" standalone="no"?>
<!DOCTYPE svg PUBLIC "-//W3C//DTD SVG 1.1//EN" "http://www.w3.org/Graphics/SVG/1.1/DTD/svg11.dtd" >
<svg xmlns="http://www.w3.org/2000/svg">
<metadata></metadata>
<defs>
<font id="prometothin_italic" horiz-adv-x="1218" >
<font-face units-per-em="2048" ascent="1638" descent="-410" />
<missing-glyph horiz-adv-x="512" />
<glyph unicode="&#xfb01;" horiz-adv-x="1015" d="M57 0l205 1049q27 140 71.5 231.5t117 146t167 77t230.5 22.5q33 0 106 -2t86 -2l-30 -74q-78 4 -166 4q-79 0 -136 -6t-110.5 -21.5t-90.5 -43.5t-70 -73t-56 -108t-41 -149h418l-31 -72h-401l-191 -979h-78zM676 0l205 1051h77l-204 -1051h-78z" />
<glyph unicode="&#xfb02;" horiz-adv-x="1015" d="M57 0l205 1049q27 140 64.5 230.5t96 146t135 78t187.5 22.5q94 0 144 -4l-31 -74q-54 4 -117 4q-95 0 -154 -15t-108 -59t-80.5 -121.5t-58.5 -205.5h418l-31 -72h-401l-191 -979h-78zM676 0l297 1522h78l-297 -1522h-78z" />
<glyph unicode="&#xfb03;" horiz-adv-x="1638" d="M57 0l205 1049q27 140 64.5 230.5t96 146t135 78t187.5 22.5q27 0 87.5 -2t72.5 -2l-31 -74q-62 4 -133 4q-95 0 -154 -15t-108 -59t-80.5 -121.5t-58.5 -205.5h418l-31 -72h-401l-191 -979h-78zM680 0l205 1049q27 140 71.5 231.5t116.5 146t166.5 77t230.5 22.5 q33 0 106.5 -2t86.5 -2l-31 -74q-78 4 -166 4q-95 0 -160 -9t-123.5 -33t-97.5 -69t-69.5 -116t-52.5 -174h417l-30 -72h-402l-190 -979h-78zM1298 0l205 1051h78l-205 -1051h-78z" />
<glyph unicode="&#xfb04;" horiz-adv-x="1638" d="M57 0l205 1049q27 140 64.5 230.5t96 146t135 78t187.5 22.5q27 0 87.5 -2t72.5 -2l-31 -74q-62 4 -133 4q-95 0 -154 -15t-108 -59t-80.5 -121.5t-58.5 -205.5h418l-31 -72h-401l-191 -979h-78zM680 0l205 1049q27 140 64.5 230.5t96 146t135 78t187.5 22.5q93 0 143 -4 l-30 -74q-54 4 -117 4q-95 0 -154 -15t-108 -59t-80.5 -121.5t-58.5 -205.5h417l-30 -72h-402l-190 -979h-78zM1298 0l297 1522h78l-297 -1522h-78z" />
<glyph horiz-adv-x="0" />
<glyph horiz-adv-x="682" />
<glyph horiz-adv-x="0" />
<glyph horiz-adv-x="0" />
<glyph unicode="&#x9;" horiz-adv-x="512" />
<glyph unicode=" "  horiz-adv-x="512" />
<glyph unicode="&#x09;" horiz-adv-x="512" />
<glyph unicode="&#xa0;" horiz-adv-x="512" />
<glyph unicode="!" horiz-adv-x="346" d="M18 59q0 88 80 88q64 0 64 -67q0 -88 -80 -88q-64 0 -64 67zM102 340l66 360q5 38 40 210t40 202l65 346h80l-65 -350q-43 -236 -82 -408l-76 -360h-68z" />
<glyph unicode="&#x22;" horiz-adv-x="626" d="M217 997l37 240q18 114 35 190l18 95h82l-18 -95q-5 -23 -12.5 -63.5t-14 -71.5t-12.5 -55l-53 -240h-62zM537 997l36 240q18 114 35 190l19 95h82l-19 -95q-5 -23 -12.5 -63.5t-14 -71.5t-12.5 -55l-53 -240h-61z" />
<glyph unicode="#" horiz-adv-x="1351" d="M78 389l28 70h228l160 475h-232l29 70h227l131 389h74l-131 -389h446l131 389h74l-131 -389h229l-28 -70h-226l-159 -475h229l-29 -70h-223l-131 -389h-74l131 389h-446l-131 -389h-74l131 389h-233zM408 459h446l160 475h-447z" />
<glyph unicode="$" d="M70 6l30 74q183 -8 295 -8h64l119 612l-68 21q-268 83 -268 290q0 44 16 113q41 148 148.5 213.5t310.5 71.5l31 159h69l-31 -159q260 0 371 -4l-31 -74q-98 4 -354 4l-113 -578l89 -24q138 -42 204 -109.5t66 -175.5q0 -38 -14 -110q-16 -72 -45 -125t-69 -88.5 t-97.5 -58t-122.5 -34t-154 -16.5l-39 -197h-69l36 195h-57q-134 0 -317 8zM319 1001q0 -51 18.5 -90.5t52 -64.5t66.5 -39.5t76 -26.5l62 -18l108 555q-168 -6 -252.5 -56.5t-115.5 -162.5q-15 -52 -15 -97zM530 74q179 8 273 64t125 194q12 50 12 90q0 84 -54.5 134 t-170.5 87l-70 21z" />
<glyph unicode="%" horiz-adv-x="1699" d="M123 823q0 53 12 121l21 105q38 192 121 277t245 85q144 0 211.5 -63.5t67.5 -188.5q0 -51 -13 -121l-20 -104q-38 -194 -119.5 -278.5t-245.5 -84.5q-145 0 -212.5 63t-67.5 189zM197 825q0 -104 53.5 -144t159.5 -40q61 0 101.5 11t77.5 42.5t62 91t43 152.5l21 104 q12 68 12 117q0 102 -53.5 142t-155.5 40q-63 0 -105.5 -11t-79 -42.5t-61.5 -90t-43 -150.5l-20 -107q-12 -64 -12 -115zM268 0l1135 1393h90l-1135 -1393h-90zM967 233q0 53 12 121l20 105q38 192 121 277t246 85q144 0 211.5 -63.5t67.5 -188.5q0 -50 -13 -120l-20 -105 q-38 -193 -119.5 -277.5t-245.5 -84.5q-145 0 -212.5 63t-67.5 188zM1040 236q0 -104 53.5 -144.5t159.5 -40.5q61 0 102 11t77.5 42.5t62 91t43.5 152.5l21 105q12 67 12 116q0 102 -53.5 142.5t-155.5 40.5q-63 0 -105.5 -11.5t-79 -43t-61.5 -90t-43 -150.5l-20 -107 q-13 -70 -13 -114z" />
<glyph unicode="&#x26;" horiz-adv-x="1304" d="M113 311q0 79 22 160q34 130 102 203.5t197 101.5q-153 56 -153 240q0 55 10 104q32 184 156.5 264t371.5 80q228 0 297 -4l-33 -78q-126 4 -229 4q-95 0 -159.5 -5.5t-122 -20.5t-94 -43t-63 -71.5t-42.5 -106.5q-19 -74 -19 -121q0 -62 24 -105.5t68.5 -66t96.5 -32 t119 -9.5h593l-32 -76h-119l-123 -649q-6 -33 -21.5 -47.5t-58.5 -24.5q-137 -26 -287 -26q-86 0 -157 9t-136.5 31.5t-110 59t-71 95t-26.5 134.5zM193 317q0 -62 21 -108t57 -75.5t90.5 -47t114.5 -24.5t136 -7q152 0 287 23l127 651h-354q-222 0 -320 -54.5t-137 -207.5 q-22 -78 -22 -150z" />
<glyph unicode="'" horiz-adv-x="307" d="M217 997l37 240q18 114 35 190l18 95h82l-18 -95q-5 -23 -12.5 -63.5t-14 -71.5t-12.5 -55l-53 -240h-62z" />
<glyph unicode="(" horiz-adv-x="612" d="M29 -8q0 146 53 422l53 272q32 160 60.5 270.5t65 201t77 144.5t97.5 91t125 51t161 14h31l-31 -74h-10q-80 0 -137 -11.5t-105.5 -44.5t-82.5 -80.5t-65.5 -130t-56 -182.5t-53.5 -249l-53 -272q-54 -278 -54 -420q0 -153 57.5 -216t192.5 -63h60l-31 -73h-33 q-171 0 -246 83t-75 267z" />
<glyph unicode=")" horiz-adv-x="612" d="M-127 -358l31 73h10q80 0 137 12t105.5 44.5t82.5 80.5t65.5 130.5t56 182.5t53.5 249l53 272q53 273 53 420q0 152 -57.5 215t-192.5 63h-59l31 74h32q170 0 246 -84t76 -266q0 -146 -53 -422l-54 -272q-31 -161 -59.5 -271.5t-65 -201t-77 -144.5t-97.5 -90.5 t-125 -50.5t-161 -14h-31z" />
<glyph unicode="*" horiz-adv-x="808" d="M207 1163l29 60l256 -90l57 294h72l-66 -299l285 95l10 -66l-289 -88l137 -250l-63 -35l-129 256l-219 -256l-54 45l228 246z" />
<glyph unicode="+" d="M215 657l14 76h381l78 400h80l-78 -400h381l-14 -76h-381l-78 -399h-80l78 399h-381z" />
<glyph unicode="," horiz-adv-x="327" d="M-123 -301l168 299q-31 9 -31 63q0 86 78 86q66 0 66 -69q0 -25 -7.5 -43.5t-29.5 -57.5l-174 -278h-70z" />
<glyph unicode="-" horiz-adv-x="747" d="M90 569l31 74h567l-31 -74h-567z" />
<glyph unicode="." horiz-adv-x="327" d="M4 59q0 88 80 88q63 0 63 -67q0 -88 -79 -88q-64 0 -64 67z" />
<glyph unicode="/" horiz-adv-x="753" d="M-20 0l792 1458h82l-793 -1458h-81z" />
<glyph unicode="0" d="M133 348q0 97 31 266l35 181q32 171 72 283t104 193.5t156 117.5t223 36q211 0 306 -96t95 -287q0 -95 -31 -264l-34 -180q-26 -136 -56 -233t-73.5 -176t-102 -126t-138.5 -71.5t-185 -24.5q-214 0 -308 95t-94 286zM211 348q0 -90 21.5 -151t66 -95t102 -47.5 t138.5 -13.5q83 0 141 13t110.5 47t90 96.5t69.5 158.5t60 236l39 201q28 119 28 249q0 90 -21.5 151.5t-66 95t-101.5 47.5t-138 14q-84 0 -142 -13t-111 -47t-90.5 -96.5t-69.5 -158.5t-58 -236l-39 -201q-29 -158 -29 -250z" />
<glyph unicode="1" horiz-adv-x="819" d="M-10 0l30 72h271l244 1249h-285l31 72h344l-258 -1321h292l-30 -72h-639z" />
<glyph unicode="2" horiz-adv-x="1046" d="M31 0l43 221q36 186 121.5 281t273.5 170l201 80q131 52 192.5 114t79.5 166q8 44 8 90q0 98 -63 149.5t-221 51.5q-232 0 -363 -8l29 74q172 8 344 8q356 0 356 -271q0 -52 -12 -108q-14 -71 -42 -123.5t-73.5 -91.5t-92.5 -64.5t-120 -56.5l-200 -80q-114 -46 -178 -92 t-103 -116.5t-61 -184.5l-27 -135h708l-30 -74h-770z" />
<glyph unicode="3" horiz-adv-x="978" d="M-47 0l31 74q32 0 170 -2t211 -2q178 0 276 72t121 235q6 46 6 84q0 125 -68.5 174t-226.5 49h-276l30 74h301q154 0 240 66t106 216q7 54 7 82q0 113 -63 157t-208 44q-267 0 -354 -4l31 74q93 4 338 4q172 0 254 -68t82 -209q0 -32 -7 -90q-38 -260 -266 -317 q158 -49 158 -256q0 -41 -6 -90q-24 -177 -138.5 -274t-324.5 -97q-198 0 -424 4z" />
<glyph unicode="4" horiz-adv-x="1028" d="M18 336l13 59l757 998h93l-752 -983h594l100 510l78 12l-102 -522h180l-31 -74h-164l-65 -336h-76l66 336h-691z" />
<glyph unicode="5" horiz-adv-x="1003" d="M4 0l31 74q35 0 163.5 -2t170.5 -2q186 0 284.5 76.5t130.5 256.5q11 71 11 105q0 125 -77.5 177t-244.5 52h-293l127 656h703l-31 -72h-608l-99 -510h215q202 0 294.5 -74t92.5 -229q0 -54 -12 -125q-67 -387 -491 -387q-264 0 -367 4z" />
<glyph unicode="6" horiz-adv-x="1089" d="M119 330q0 64 18 170l56 295q27 146 63 247.5t84 171.5t116.5 109.5t152 56.5t198.5 17q73 0 237 -4l-30 -74q-66 4 -213 4q-67 0 -115.5 -4t-99 -17t-87 -36t-72.5 -61t-62.5 -92.5t-50 -130.5t-42.5 -175l-12 -68q93 135 322 135q395 0 395 -360q0 -60 -8 -115 q-14 -101 -46 -177.5t-73.5 -124.5t-98 -77.5t-114 -41t-127.5 -11.5q-391 0 -391 363zM195 332q0 -152 79.5 -221.5t241.5 -69.5q160 0 247.5 75t123.5 265q14 69 14 135q0 147 -82 216t-248 69q-75 0 -130 -14.5t-102 -50t-78.5 -98.5t-49.5 -157q-16 -88 -16 -149z" />
<glyph unicode="7" horiz-adv-x="909" d="M133 0l768 1321h-745l30 72h809l-12 -64l-762 -1329h-88z" />
<glyph unicode="8" horiz-adv-x="1091" d="M68 293q0 55 12 117q62 285 328 333q-181 65 -181 258q0 49 13 109q36 164 144 239.5t292 75.5q395 0 395 -292q0 -49 -12 -111q-25 -124 -102.5 -200.5t-204.5 -96.5q206 -57 206 -295q0 -62 -10 -113q-67 -350 -469 -350q-411 0 -411 326zM145 295q0 -130 82 -192 t260 -62q172 0 265 71.5t122 221.5q11 71 11 100q0 262 -334 262q-178 0 -271 -69.5t-122 -223.5q-13 -63 -13 -108zM305 997q0 -115 78 -171t248 -56q157 0 241.5 64t110.5 200q10 65 10 99q0 112 -77 165.5t-248 53.5q-154 0 -239.5 -58.5t-113.5 -199.5q-10 -65 -10 -97z " />
<glyph unicode="9" horiz-adv-x="1089" d="M115 0l30 74q39 -4 213 -4q67 0 114 4t98 16.5t87 35t73 60.5t63.5 92.5t50.5 131t43 176.5l12 65q-91 -133 -321 -133q-396 0 -396 361q0 59 8 114q14 101 46 177.5t73.5 124.5t98 77.5t114 41t127.5 11.5q391 0 391 -364q0 -74 -16 -168l-57 -295q-28 -147 -64.5 -249 t-84.5 -172t-116.5 -109t-151 -55.5t-198.5 -16.5q-139 0 -237 4zM258 877q0 -147 82 -216t248 -69q76 0 131.5 14.5t102.5 49.5t78.5 98t49.5 157q15 77 15 148q0 152 -80 222.5t-242 70.5q-161 0 -248 -75.5t-123 -264.5q-14 -66 -14 -135z" />
<glyph unicode=":" horiz-adv-x="327" d="M4 59q0 88 80 88q63 0 63 -67q0 -88 -79 -88q-64 0 -64 67zM182 971q0 88 80 88q64 0 64 -68q0 -88 -80 -88q-64 0 -64 68z" />
<glyph unicode=";" horiz-adv-x="327" d="M-123 -301l168 299q-31 9 -31 63q0 86 78 86q66 0 66 -69q0 -25 -7.5 -43.5t-29.5 -57.5l-174 -278h-70zM182 971q0 88 80 88q64 0 64 -68q0 -88 -80 -88q-64 0 -64 68z" />
<glyph unicode="&#x3c;" d="M268 651l15 78l807 373l-17 -82l-723 -332l600 -301l-14 -76z" />
<glyph unicode="=" d="M199 446l16 76h789l-17 -76h-788zM283 877l16 75h788l-16 -75h-788z" />
<glyph unicode="&#x3e;" d="M203 311l16 82l721 332l-598 301l14 76l668 -340l-14 -78z" />
<glyph unicode="?" horiz-adv-x="917" d="M156 59q0 88 80 88q63 0 63 -67q0 -88 -80 -88q-63 0 -63 67zM229 1384l33 74q54 0 141.5 2t159.5 2q178 0 273.5 -66t95.5 -222q0 -50 -4 -68q-7 -53 -22 -97.5t-32 -77t-45.5 -62t-51.5 -48.5t-61 -39.5t-62.5 -31.5t-67.5 -29q-62 -26 -93 -41.5t-62 -36.5t-45.5 -46 t-27 -59.5t-22.5 -88.5l-21 -109h-79l22 119q9 53 21 92t31 70.5t39 52.5t54.5 42t67.5 36t88 36q72 29 115.5 54t80.5 61t57 84t30 117q6 40 6 72q0 118 -71 165.5t-226 47.5q-189 0 -322 -5z" />
<glyph unicode="@" horiz-adv-x="1486" d="M86 94q0 142 41 344q40 194 94.5 323t141 220t210 131.5t297.5 40.5q500 0 500 -350q0 -53 -12 -115l-107 -567q-7 -42 -23.5 -57t-58.5 -23q-115 -21 -264 -21q-196 0 -299.5 63.5t-103.5 211.5q0 57 14 117q33 159 129.5 233t284.5 74q266 0 327 -148l21 105 q12 65 12 119q0 142 -98 213t-322 71q-129 0 -224 -23t-165.5 -68.5t-122 -124t-87 -178.5t-66.5 -243q-45 -202 -45 -356q0 -241 145.5 -341.5t499.5 -100.5q154 0 244 6l-31 -76q-77 -4 -232 -4q-370 0 -535 119t-165 405zM584 303q0 -53 16.5 -91t44 -60.5t71 -35.5 t88.5 -17.5t107 -4.5q125 0 258 19l43 229q11 61 11 90q0 114 -72.5 164.5t-226.5 50.5q-144 0 -223 -52.5t-107 -195.5q-10 -49 -10 -96z" />
<glyph unicode="A" horiz-adv-x="1292" d="M-51 0l837 1458h80l273 -1458h-80l-90 487h-660l-276 -487h-84zM352 563h604l-147 799z" />
<glyph unicode="B" horiz-adv-x="1236" d="M72 0l284 1458h445q395 0 395 -297q0 -51 -12 -112q-50 -239 -273 -293q201 -54 201 -287q0 -62 -10 -111q-36 -185 -171.5 -271.5t-398.5 -86.5h-460zM166 74h379q209 0 326.5 66t148.5 225q12 61 12 108q0 134 -87.5 191t-262.5 57h-391zM305 795h367q197 0 302 59.5 t132 204.5q10 58 10 94q0 125 -83 178t-245 53h-366z" />
<glyph unicode="C" horiz-adv-x="1161" d="M139 451q0 116 37 301q34 169 82 290.5t109 202.5t144.5 129t179.5 68t224 20q63 0 169 -2t122 -2l-30 -76q-52 0 -152 2t-123 2q-106 0 -186 -16t-155 -58.5t-130 -115.5t-100 -188t-76 -275q-31 -161 -31 -270q0 -112 28.5 -188.5t88.5 -121t141.5 -63t198.5 -18.5 q47 0 147 2t127 2l-30 -76q-102 -4 -250 -4q-286 0 -410.5 113.5t-124.5 341.5z" />
<glyph unicode="D" horiz-adv-x="1351" d="M72 0l284 1458h410q271 0 395.5 -117t124.5 -356q0 -116 -31 -274q-39 -202 -102.5 -339t-159.5 -219.5t-218 -117.5t-290 -35h-413zM166 76h332q154 0 264 34t190.5 112t132 195.5t86.5 293.5q33 149 33 274q0 208 -106.5 302.5t-339.5 94.5h-338z" />
<glyph unicode="E" horiz-adv-x="1193" d="M72 0l284 1458h881l-31 -76h-784l-117 -594h758l-31 -75h-741l-125 -637h817l-31 -76h-880z" />
<glyph unicode="F" horiz-adv-x="1099" d="M72 0l284 1458h844l-31 -76h-747l-119 -604h701l-31 -76h-684l-137 -702h-80z" />
<glyph unicode="G" horiz-adv-x="1275" d="M139 446q0 121 37 306q34 169 82 290.5t109 202.5t144.5 129t179.5 68t224 20q228 0 361 -6l-31 -76q-147 6 -342 6q-107 0 -187 -15.5t-155.5 -58t-130.5 -115t-100 -187.5t-76 -275q-31 -164 -31 -272q0 -117 31 -194.5t97 -120t153.5 -59.5t216.5 -17q162 0 256 16 l106 547h-317l31 76h383l-121 -619q-7 -42 -24.5 -58t-59.5 -22q-96 -16 -260 -16q-161 0 -273 29t-178 88t-95.5 140t-29.5 193z" />
<glyph unicode="H" horiz-adv-x="1396" d="M72 0l284 1458h80l-133 -674h889l133 674h80l-285 -1458h-80l138 711h-889l-137 -711h-80z" />
<glyph unicode="I" horiz-adv-x="428" d="M72 0l284 1458h80l-284 -1458h-80z" />
<glyph unicode="J" horiz-adv-x="862" d="M-41 4l31 78q64 -4 229 -4q97 0 162.5 18.5t107 59.5t63.5 93t38 132l211 1077h80l-211 -1077q-25 -138 -74 -218.5t-140.5 -121.5t-238.5 -41q-173 0 -258 4z" />
<glyph unicode="K" horiz-adv-x="1241" d="M72 0l284 1458h80l-129 -661l877 661h112l-923 -696l735 -762h-109l-704 733l-143 -733h-80z" />
<glyph unicode="L" horiz-adv-x="1073" d="M72 0l284 1458h80l-270 -1382h758l-31 -76h-821z" />
<glyph unicode="M" horiz-adv-x="1607" d="M72 0l284 1458h84l365 -915l729 915h82l-285 -1458h-76l256 1325l-690 -868h-57l-356 886l-261 -1343h-75z" />
<glyph unicode="N" horiz-adv-x="1394" d="M72 0l284 1458h72l639 -1337l260 1337h76l-285 -1458h-71l-641 1335l-259 -1335h-75z" />
<glyph unicode="O" horiz-adv-x="1406" d="M143 420q0 143 33 328q37 212 93.5 355t141.5 230.5t194.5 125.5t260.5 38q249 0 362 -105t113 -352q0 -148 -32 -327q-49 -281 -137 -445.5t-220.5 -234.5t-333.5 -70q-251 0 -363 105t-112 352zM223 418q0 -113 25 -187.5t78.5 -116.5t124 -58.5t174.5 -16.5 q99 0 172.5 16t144 60t121 119.5t93 196t71.5 288.5q35 199 35 323q0 113 -25 187.5t-78.5 116.5t-124 58.5t-174.5 16.5q-99 0 -172.5 -16t-144 -60t-121 -119.5t-93 -196t-71.5 -288.5q-35 -199 -35 -323z" />
<glyph unicode="P" horiz-adv-x="1206" d="M72 0l284 1458h402q234 0 348.5 -76.5t114.5 -246.5q0 -39 -11 -111q-18 -113 -62 -191t-116 -122t-161.5 -63t-211.5 -19h-385l-122 -629h-80zM289 705h373q223 0 325 67t139 240q15 81 15 116q0 142 -97.5 198t-293.5 56h-330z" />
<glyph unicode="Q" horiz-adv-x="1406" d="M143 420q0 143 33 328q37 212 93.5 355t141.5 230.5t194.5 125.5t260.5 38q249 0 362 -105t113 -352q0 -148 -32 -327q-61 -357 -187.5 -529t-345.5 -209l252 -243h-115l-237 233q-18 -2 -58 -2q-251 0 -363 105t-112 352zM223 418q0 -113 25 -187.5t78.5 -116.5 t124 -58.5t174.5 -16.5q99 0 172.5 16t144 60t121 119.5t93 196t71.5 288.5q35 199 35 323q0 113 -25 187.5t-78.5 116.5t-124 58.5t-174.5 16.5q-99 0 -172.5 -16t-144 -60t-121 -119.5t-93 -196t-71.5 -288.5q-35 -199 -35 -323z" />
<glyph unicode="R" horiz-adv-x="1255" d="M72 0l284 1458h402q234 0 348.5 -76.5t114.5 -246.5q0 -39 -11 -111q-31 -185 -128.5 -275.5t-268.5 -111.5l289 -637h-88l-285 631q-23 -2 -70 -2h-385l-122 -629h-80zM289 705h373q223 0 325 67t139 240q15 81 15 116q0 142 -97.5 198t-293.5 56h-330z" />
<glyph unicode="S" horiz-adv-x="1081" d="M4 4l31 74q191 -8 364 -8q224 0 325 60.5t138 213.5q15 56 15 107q0 89 -50.5 143t-158.5 90l-203 66q-136 43 -200 112.5t-64 173.5q0 58 18 125q44 165 162.5 233t347.5 68q268 0 383 -4l-31 -74q-123 5 -356 5q-204 0 -296.5 -52t-129.5 -182q-16 -56 -16 -108 q0 -49 16.5 -87.5t47.5 -64t64 -42t78 -30.5l209 -67q132 -42 197.5 -114.5t65.5 -186.5q0 -59 -15 -117q-44 -189 -169.5 -265.5t-379.5 -76.5q-202 0 -393 8z" />
<glyph unicode="T" horiz-adv-x="1230" d="M229 1382l31 76h1092l-31 -76h-500l-268 -1382h-80l268 1382h-512z" />
<glyph unicode="U" horiz-adv-x="1343" d="M145 342q0 74 19 182l182 934h80l-184 -944q-19 -100 -19 -168q0 -170 95 -239.5t284 -69.5q107 0 182 19.5t137.5 70t104 140t68.5 225.5l188 966h80l-193 -985q-28 -146 -75.5 -244.5t-118.5 -157t-159.5 -83.5t-209.5 -25q-232 0 -346.5 90t-114.5 289z" />
<glyph unicode="V" horiz-adv-x="1253" d="M236 1458h77l232 -1356l753 1356h84l-817 -1458h-78z" />
<glyph unicode="W" horiz-adv-x="1722" d="M254 1458h78l55 -1352l619 1352h77l84 -1352l584 1352h82l-641 -1458h-88l-84 1333l-610 -1333h-88z" />
<glyph unicode="X" horiz-adv-x="1255" d="M-72 0l701 764l-375 694h88l344 -643l586 643h94l-643 -708l399 -750h-88l-370 698l-639 -698h-97z" />
<glyph unicode="Y" horiz-adv-x="1210" d="M219 1458h84l336 -747l623 747h94l-686 -819l-123 -639h-80l125 639z" />
<glyph unicode="Z" horiz-adv-x="1165" d="M-10 0l14 72l1108 1310h-817l31 76h899l-15 -74l-1106 -1308h881l-31 -76h-964z" />
<glyph unicode="[" horiz-adv-x="677" d="M33 -358l354 1816h430l-31 -76h-335l-326 -1665h354l-30 -75h-416z" />
<glyph unicode="\" horiz-adv-x="753" d="M266 1458h74l229 -1458h-73z" />
<glyph unicode="]" horiz-adv-x="677" d="M-129 -358l31 75h336l325 1665h-354l31 76h415l-354 -1816h-430z" />
<glyph unicode="^" d="M301 842l447 616h86l204 -616h-84l-176 544l-387 -544h-90z" />
<glyph unicode="_" horiz-adv-x="1024" d="M-164 -358l14 77h1020l-14 -77h-1020z" />
<glyph unicode="`" horiz-adv-x="1024" d="M522 1485h96l207 -258h-80z" />
<glyph unicode="a" horiz-adv-x="1095" d="M70 258q0 49 12 107q34 158 138 229.5t282 71.5q287 0 356 -148l27 135q14 75 14 117q0 110 -69.5 160.5t-231.5 50.5q-240 0 -311 -4l30 74q54 4 289 4q194 0 280.5 -72.5t86.5 -208.5q0 -62 -15 -133l-110 -559q-10 -42 -26 -57t-58 -23q-114 -20 -277 -20 q-206 0 -311.5 63t-105.5 213zM150 264q0 -53 17.5 -91t46.5 -60.5t75.5 -35.5t94 -17.5t112.5 -4.5q103 0 274 19l41 215q10 55 10 90q0 118 -79.5 166.5t-241.5 48.5q-151 0 -231 -56.5t-109 -185.5q-10 -55 -10 -88z" />
<glyph unicode="b" horiz-adv-x="1167" d="M137 326q0 86 25 217l190 979h78l-119 -609q118 170 375 170q189 0 287 -86t98 -282q0 -104 -22 -217q-25 -141 -64.5 -237.5t-101.5 -164t-150.5 -98.5t-210.5 -31q-189 0 -287 83t-98 276zM215 330q0 -157 75 -223t242 -66q129 0 211.5 42t136.5 140t87 271 q26 143 26 227q0 157 -75 223t-242 66q-179 0 -282.5 -101.5t-151.5 -351.5q-27 -148 -27 -227z" />
<glyph unicode="c" horiz-adv-x="921" d="M94 346q0 93 25 215q24 122 62.5 210t86.5 143t115.5 86.5t139 43t167.5 11.5q55 0 203 -4l-31 -74q-94 4 -182 4q-87 0 -149.5 -10.5t-117.5 -37.5t-93.5 -75.5t-68.5 -122t-52 -178.5q-25 -125 -25 -205q0 -83 22.5 -139.5t69.5 -87t107 -43t145 -12.5q69 0 213 4 l-31 -74q-37 -4 -196 -4q-218 0 -314 88.5t-96 261.5z" />
<glyph unicode="d" horiz-adv-x="1144" d="M96 352q0 88 21 199q24 133 64.5 230.5t87.5 154.5t111 91t124 45t137 11q133 0 222.5 -46.5t119.5 -125.5l119 611h78l-281 -1438q-10 -46 -27.5 -60.5t-56.5 -21.5q-110 -20 -254 -20q-244 0 -354.5 85.5t-110.5 284.5zM178 356q0 -163 90 -232t297 -69q115 0 254 19 l115 581q10 65 10 101q0 130 -80.5 192t-228.5 62q-69 0 -120 -10t-102.5 -38.5t-89 -78t-69.5 -131t-53 -195.5q-23 -131 -23 -201z" />
<glyph unicode="e" horiz-adv-x="1048" d="M94 348q0 101 27 215q65 286 187 403t341 117q177 0 259.5 -64t82.5 -177q0 -44 -12 -94q-30 -130 -123.5 -189t-284.5 -59h-387q-14 -77 -14 -146q0 -144 79.5 -214t260.5 -70q191 0 283 6l-31 -74q-88 -6 -250 -6q-221 0 -319.5 90t-98.5 262zM199 569h370 q160 0 232.5 41.5t97.5 147.5q10 52 10 80q0 84 -61 129t-201 45q-186 0 -291 -101t-157 -342z" />
<glyph unicode="f" horiz-adv-x="649" d="M57 0l205 1049q27 140 64.5 230.5t96 146t135 78t187.5 22.5q27 0 87.5 -2t72.5 -2l-31 -74q-62 4 -133 4q-95 0 -154 -15t-108 -59t-80.5 -121.5t-58.5 -205.5h418l-31 -72h-401l-191 -979h-78z" />
<glyph unicode="g" horiz-adv-x="1169" d="M80 -358l31 73q55 0 180 -2t143 -2q193 0 285 86.5t129 294.5l20 105q-118 -160 -372 -160q-193 0 -292.5 82.5t-99.5 273.5q0 82 21 193q26 133 63.5 223t98 153t148 92t210.5 29q192 0 289.5 -80.5t97.5 -269.5q0 -95 -20 -198l-86 -443q-19 -94 -42 -161t-61 -125.5 t-90 -93.5t-127 -54.5t-174 -19.5q-20 0 -147.5 2t-204.5 2zM184 389q0 -151 76.5 -214.5t245.5 -63.5q181 0 280.5 92t147.5 327q22 126 22 201q0 151 -76 215t-245 64q-192 0 -285.5 -90t-142.5 -330q-23 -131 -23 -201z" />
<glyph unicode="h" horiz-adv-x="1150" d="M57 0l297 1522h78l-113 -570q110 131 347 131q194 0 279 -73.5t85 -218.5q0 -72 -14 -138l-127 -653h-78l129 664q12 68 12 120q0 125 -73 175.5t-222 50.5q-171 0 -263 -76t-128 -260l-131 -674h-78z" />
<glyph unicode="i" horiz-adv-x="397" d="M57 0l205 1051h78l-205 -1051h-78zM287 1337q0 82 73 82q58 0 58 -61q0 -82 -72 -82q-59 0 -59 61z" />
<glyph unicode="j" horiz-adv-x="397" d="M-352 -360l30 73q27 -2 93 -2q131 0 191.5 61.5t96.5 237.5l201 1041h78l-201 -1041q-21 -110 -48 -179t-71 -113.5t-104 -62t-150 -17.5q-83 0 -116 2zM285 1337q0 82 73 82q58 0 58 -61q0 -82 -72 -82q-59 0 -59 61z" />
<glyph unicode="k" horiz-adv-x="1026" d="M57 0l297 1522h78l-178 -916l664 445h120l-714 -480l567 -571h-100l-549 551l-107 -551h-78z" />
<glyph unicode="l" horiz-adv-x="397" d="M57 0l297 1522h78l-297 -1522h-78z" />
<glyph unicode="m" horiz-adv-x="1687" d="M57 0l142 729q37 189 129.5 271.5t269.5 82.5q267 0 309 -182q51 96 132.5 139t209.5 43q172 0 248 -66.5t76 -199.5q0 -67 -14 -133l-134 -684h-77l135 694q12 64 12 111q0 113 -63.5 159t-188.5 46q-147 0 -220 -67.5t-105 -237.5l-138 -705h-78l136 694q12 64 12 111 q0 113 -63.5 159t-188.5 46q-148 0 -221 -67.5t-105 -237.5l-137 -705h-78z" />
<glyph unicode="n" horiz-adv-x="1150" d="M57 0l131 678q41 216 149 310.5t314 94.5q198 0 288.5 -76t90.5 -221q0 -51 -14 -133l-127 -653h-78l129 664q12 64 12 114q0 127 -77 179.5t-228 52.5q-173 0 -258.5 -75t-122.5 -261l-131 -674h-78z" />
<glyph unicode="o" horiz-adv-x="1126" d="M96 336q0 99 23 217q25 141 64 237.5t101 163.5t150.5 98t210.5 31q189 0 287 -86t98 -282q0 -104 -22 -217q-25 -141 -64.5 -237.5t-101.5 -164t-150.5 -98.5t-210.5 -31q-189 0 -287 86.5t-98 282.5zM174 330q0 -157 75.5 -223t242.5 -66q129 0 211 42t136 140t87 271 q26 143 26 227q0 157 -75 223t-242 66q-129 0 -211 -42t-136 -140t-87 -271q-27 -148 -27 -227z" />
<glyph unicode="p" horiz-adv-x="1167" d="M-12 -358l178 911q28 143 66.5 240t99.5 163.5t146 96.5t204 30q191 0 290 -85.5t99 -284.5q0 -102 -22 -215q-51 -280 -169.5 -405.5t-351.5 -125.5q-142 0 -233 48t-125 159l-104 -532h-78zM215 330q0 -157 75 -223t242 -66q129 0 211.5 42t136.5 140t87 271 q24 129 24 219q0 159 -75.5 228t-239.5 69q-129 0 -211 -42t-136 -140t-87 -271q-27 -148 -27 -227z" />
<glyph unicode="q" horiz-adv-x="1167" d="M94 336q0 99 23 217q25 140 64.5 237t101.5 164t149 98t207 31q190 0 288.5 -84t98.5 -280q0 -90 -25 -221l-167 -856h-78l96 493q-119 -168 -373 -168q-189 0 -287 86.5t-98 282.5zM172 330q0 -157 75 -223t242 -66q179 0 282 101.5t151 351.5q24 126 24 219 q0 158 -75 227.5t-238 69.5q-129 0 -211 -42t-136 -140t-87 -271q-27 -148 -27 -227z" />
<glyph unicode="r" horiz-adv-x="757" d="M57 0l131 670q19 97 50.5 166t70 111t92.5 66.5t109 33t129 8.5q24 0 84.5 -2t75.5 -2l-31 -74q-70 4 -137 4q-62 0 -107 -7t-89.5 -27t-75.5 -55t-56 -92.5t-39 -137.5l-129 -662h-78z" />
<glyph unicode="s" horiz-adv-x="966" d="M4 0l31 74q121 -4 356 -4q96 0 159.5 11.5t98.5 36.5t50.5 51.5t27.5 68.5q10 45 10 71q0 117 -164 164l-233 66q-201 58 -201 215q0 40 8 71q16 69 51 115.5t90.5 71t119 34t151.5 9.5q168 0 361 -8l-29 -74q-153 8 -371 8q-137 0 -207 -37t-90 -127q-8 -31 -8 -59 q0 -55 36 -90.5t122 -59.5l219 -61q120 -35 171.5 -89.5t51.5 -140.5q0 -40 -14 -98q-11 -42 -26.5 -73.5t-46 -61t-74 -48t-110.5 -29.5t-155 -11q-294 0 -385 4z" />
<glyph unicode="t" horiz-adv-x="765" d="M115 236q0 69 14 135l184 952l80 14l-55 -286h428l-31 -72h-411l-119 -617q-12 -68 -12 -114q0 -97 53 -135.5t174 -38.5h155l-30 -74h-123q-157 0 -232 52.5t-75 183.5z" />
<glyph unicode="u" horiz-adv-x="1140" d="M121 264q0 67 14 133l127 654h78l-129 -664q-12 -65 -12 -117q0 -127 75 -178t224 -51q172 0 255.5 74.5t120.5 261.5l132 674h77l-131 -674q-44 -225 -147 -317.5t-311 -92.5q-373 0 -373 297z" />
<glyph unicode="v" horiz-adv-x="993" d="M143 1051h80l187 -967l561 967h84l-611 -1051h-96z" />
<glyph unicode="w" horiz-adv-x="1454" d="M154 1051h75l95 -951l464 951h84l93 -951l460 951h80l-516 -1051h-86l-92 942l-461 -942h-86z" />
<glyph unicode="x" horiz-adv-x="962" d="M-72 0l516 563l-258 488h82l230 -437l391 437h92l-451 -496l299 -555h-81l-269 504l-459 -504h-92z" />
<glyph unicode="y" horiz-adv-x="1150" d="M59 -358l31 73q55 0 180.5 -2t143.5 -2q192 0 284 87.5t129 293.5l15 76q-101 -131 -344 -131q-190 0 -277.5 76t-87.5 221q0 51 14 133l113 584h78l-115 -594q-12 -67 -12 -121q0 -125 73 -175t222 -50q171 0 263 75.5t128 259.5l117 605h78l-185 -955 q-25 -120 -56.5 -198.5t-87 -140.5t-141.5 -90.5t-210 -28.5q-20 0 -148 2t-205 2z" />
<glyph unicode="z" horiz-adv-x="966" d="M-6 0l10 59l844 920h-651l30 72h736l-11 -60l-843 -919h688l-31 -72h-772z" />
<glyph unicode="{" horiz-adv-x="768" d="M49 514l14 70h50q108 0 154 45.5t71 173.5l70 352q12 66 28.5 111.5t44 84t67.5 61t98.5 34.5t137.5 12h105l-33 -72h-74q-83 0 -134.5 -12t-83.5 -42.5t-47.5 -70t-29.5 -108.5l-71 -354q-24 -123 -60.5 -176t-111.5 -78q84 -38 84 -158q0 -25 -11 -96l-63 -332 q-10 -58 -10 -84q0 -82 53.5 -122t179.5 -40h92l-32 -71h-74q-157 0 -227 57t-70 170q0 33 10 98l64 328q10 65 10 92q0 68 -35 97.5t-117 29.5h-49z" />
<glyph unicode="|" horiz-adv-x="415" d="M-4 -358l364 1880h80l-364 -1880h-80z" />
<glyph unicode="}" horiz-adv-x="768" d="M-111 -358l33 71h74q82 0 133.5 12.5t84 43.5t48 71t29.5 109l71 354q24 123 61 176t112 78q-84 38 -84 158q0 31 10 96l63 332q11 64 11 84q0 82 -53.5 120.5t-180.5 38.5h-92l33 72h73q157 0 227 -56.5t70 -168.5q0 -33 -10 -98l-63 -328q-11 -71 -11 -92 q0 -68 35 -97.5t117 -29.5h49l-14 -70h-49q-108 0 -154.5 -45.5t-71.5 -173.5l-69 -352q-14 -67 -30 -112t-43.5 -84.5t-67 -61.5t-98 -34.5t-138.5 -12.5h-105z" />
<glyph unicode="~" d="M190 547l15 69q45 228 215 228q61 0 105 -21t114 -75l20 -17q6 -5 26 -20t26.5 -20t24 -17.5t26 -16.5t24 -12.5t27 -11.5t26 -5.5t29.5 -2.5q57 0 93.5 36.5t54.5 120.5l14 70h70l-15 -70q-45 -227 -215 -227q-61 0 -105 21t-114 75l-20 17q-6 5 -26 20t-26.5 20 t-24 17.5t-26 16.5t-24 12.5t-27 11.5t-26 5.5t-29.5 2.5q-57 0 -93.5 -37t-54.5 -121l-14 -69h-70z" />
<glyph unicode="&#xa1;" horiz-adv-x="346" d="M-47 -414l65 351q42 231 82 407l76 361h68l-66 -361q-5 -38 -40 -210t-40 -202l-65 -346h-80zM184 971q0 88 80 88q64 0 64 -68q0 -88 -80 -88q-64 0 -64 68z" />
<glyph unicode="&#xa2;" d="M250 346q0 98 24 215q27 131 68.5 222.5t100 146.5t126.5 82.5t158 36.5l41 206h70l-39 -200h47q55 0 203 -4l-31 -74q-94 4 -182 4h-52l-178 -909q23 -2 68 -2q69 0 213 4l-31 -74q-37 -4 -197 -4q-44 0 -67 2l-37 -195h-70l39 203q-147 25 -210.5 109.5t-63.5 230.5z M330 352q0 -128 52 -190t157 -82l174 893q-102 -14 -168 -54.5t-114 -128t-77 -233.5q-24 -120 -24 -205z" />
<glyph unicode="&#xa3;" d="M14 0l33 76h158l121 618h-174l30 72h158l18 94q25 128 59 216t83.5 152t121.5 100t164.5 52.5t221.5 16.5q48 0 166 -4l-31 -76q-110 4 -148 4q-96 0 -164.5 -7.5t-127.5 -27.5t-99 -52.5t-73 -85t-55 -122t-40 -166.5l-18 -94h500l-31 -72h-484l-120 -618h649l-33 -76 h-885z" />
<glyph unicode="&#xa4;" d="M188 313l148 146q-94 115 -94 266t94 266l-148 146l52 51l147 -146q117 93 266 93q150 0 267 -93l147 146l51 -51l-147 -146q94 -115 94 -266t-94 -266l147 -146l-51 -51l-147 146q-117 -93 -267 -93q-149 0 -266 93l-147 -146zM317 725q0 -146 90.5 -241t245.5 -95 t245.5 95t90.5 241t-90.5 241t-245.5 95t-245.5 -95t-90.5 -241z" />
<glyph unicode="&#xa5;" d="M168 344l12 72h369l43 215h-369l15 71h342l-277 691h82l262 -678l522 678h88l-538 -691h336l-15 -71h-368l-43 -215h368l-12 -72h-369l-67 -344h-80l68 344h-369z" />
<glyph unicode="&#xa6;" horiz-adv-x="415" d="M-4 -358l121 626h80l-121 -626h-80zM240 895l120 627h80l-121 -627h-79z" />
<glyph unicode="&#xa7;" horiz-adv-x="1093" d="M-59 -371l28 74q242 -4 420 -4q84 0 146 10t101 26.5t65.5 44.5t40 55.5t24.5 68.5q12 47 12 86q0 152 -194 198l-197 48q-143 34 -205.5 102t-62.5 170q0 75 35 168q63 182 252 221q-181 65 -181 227q0 43 8 74q31 144 143.5 204t321.5 60q120 0 377 -10l-28 -74 q-211 11 -369 11q-168 0 -256 -45.5t-111 -149.5q-8 -31 -8 -70q0 -70 49 -116t168 -74l199 -47q268 -65 268 -273q0 -75 -35 -168q-66 -181 -258 -221q164 -71 164 -231q0 -70 -18 -123q-17 -60 -45 -101.5t-78 -76t-132 -51.5t-198 -17q-343 0 -446 4zM199 512 q0 -161 211 -207l55 -12q60 -14 129 -14q219 0 287 196q26 71 26 135q0 161 -211 207l-55 12q-65 15 -129 15q-219 0 -287 -197q-26 -71 -26 -135z" />
<glyph unicode="&#xa8;" horiz-adv-x="1024" d="M467 1337q0 82 74 82q57 0 57 -61q0 -82 -72 -82q-59 0 -59 61zM748 1337q0 82 73 82q58 0 58 -61q0 -82 -72 -82q-59 0 -59 61z" />
<glyph unicode="&#xa9;" horiz-adv-x="1667" d="M143 729q0 197 35.5 329.5t121 222t225 129.5t349.5 40t349.5 -40t225 -129.5t121.5 -222t36 -329.5t-36 -329.5t-121.5 -222t-225 -129.5t-349.5 -40t-349.5 40t-225 129.5t-121 222t-35.5 329.5zM213 729q0 -124 12 -214.5t41.5 -166.5t77.5 -125.5t122.5 -84 t174 -49.5t233.5 -15t234 15t174 49.5t122.5 84t78 125.5t41.5 166.5t12 214.5t-12 214.5t-41.5 166.5t-78 125.5t-122.5 84t-174 49.5t-234 15t-233.5 -15t-174 -49.5t-122.5 -84t-77.5 -125.5t-41.5 -166.5t-12 -214.5zM565 680v100q0 220 88.5 310t284.5 90q70 0 168 -4 l-14 -68q-98 4 -154 4q-81 0 -134.5 -14.5t-92.5 -51t-56.5 -101.5t-17.5 -165v-100q0 -191 67.5 -262.5t251.5 -71.5q56 0 150 4l-14 -67q-78 -4 -144 -4q-111 0 -184.5 23t-117.5 73.5t-62.5 123.5t-18.5 181z" />
<glyph unicode="&#xaa;" horiz-adv-x="899" d="M172 829q0 31 10 89q25 120 102 177.5t228 57.5q119 0 184 -25t95 -77l18 94q10 65 10 92q0 86 -52 123t-179 37q-182 0 -250 -2l27 65q66 2 231 2q156 0 224.5 -56.5t68.5 -164.5q0 -43 -12 -104l-86 -430q-7 -41 -24.5 -56.5t-59.5 -21.5q-88 -15 -211 -15 q-160 0 -242 51t-82 164zM244 840q0 -41 13 -70t34.5 -46.5t56 -27.5t70.5 -13t86 -3q98 0 217 14l31 156q8 41 8 80q0 86 -57 121.5t-191 35.5q-122 0 -181 -38t-79 -140q-8 -41 -8 -69z" />
<glyph unicode="&#xab;" horiz-adv-x="966" d="M55 500l15 65l462 371l-20 -100l-381 -310l260 -307l-16 -90zM467 500l14 65l463 371l-20 -100l-381 -310l260 -307l-17 -90z" />
<glyph unicode="&#xac;" d="M225 854l15 76h825l-92 -479h-80l78 403h-746z" />
<glyph unicode="&#xad;" horiz-adv-x="747" d="M90 569l31 74h567l-31 -74h-567z" />
<glyph unicode="&#xae;" horiz-adv-x="1191" d="M172 991q0 143 30 240t95 156t159 84.5t230 25.5t230 -25.5t159 -84.5t95 -156t30 -240t-30 -240t-95 -156t-159 -84.5t-230 -25.5t-230 25.5t-159 84.5t-95 156t-30 240zM242 991q0 -103 14.5 -175.5t45.5 -125t84 -82.5t125 -43.5t175 -13.5t175 13.5t125 43.5t84 82.5 t45.5 125t14.5 175.5q0 129 -22 212t-75.5 135t-136 73t-210.5 21t-210.5 -21t-136 -73t-75.5 -135t-22 -212zM498 731v539h194q104 0 148.5 -38t44.5 -130v-12q0 -116 -97 -146l121 -213h-84l-110 201h-144v-201h-73zM571 997h121q69 0 94 19.5t25 73.5v12q0 61 -24.5 81.5 t-94.5 20.5h-121v-207z" />
<glyph unicode="&#xaf;" horiz-adv-x="1024" d="M412 1296l14 70h500l-15 -70h-499z" />
<glyph unicode="&#xb0;" horiz-adv-x="739" d="M207 1225q0 137 77 211.5t224 74.5t224 -74.5t77 -211.5q0 -138 -77 -212.5t-224 -74.5t-224 74.5t-77 212.5zM279 1225q0 -224 229 -224t229 224q0 112 -56 167.5t-173 55.5t-173 -55.5t-56 -167.5z" />
<glyph unicode="&#xb1;" d="M88 2l14 76h842l-14 -76h-842zM215 657l14 76h381l78 400h80l-78 -400h381l-14 -76h-381l-78 -399h-80l78 399h-381z" />
<glyph unicode="&#xb2;" horiz-adv-x="755" d="M135 590l25 127q25 117 76.5 175t175.5 107l112 45q108 41 131 89q17 43 17 88q0 55 -35 80.5t-119 25.5q-73 0 -233 -4l26 68q184 4 207 4q117 0 172 -41t55 -127q0 -82 -28 -129q-23 -38 -59.5 -64t-108.5 -55l-113 -45q-105 -42 -145.5 -84.5t-57.5 -132.5l-10 -60 h422l-29 -67h-481z" />
<glyph unicode="&#xb3;" horiz-adv-x="755" d="M129 594l27 65q23 0 107.5 -1t109.5 -1q121 0 180 37.5t72 132.5q4 32 4 45q0 61 -35.5 87t-114.5 26h-205l27 66h178q170 0 205 114q8 24 8 60q0 53 -35.5 77.5t-119.5 24.5q-14 0 -107.5 -1t-132.5 -1l29 68q45 0 124 1t89 1q120 0 173.5 -39.5t53.5 -122.5 q0 -47 -12 -84q-17 -48 -57 -82t-95 -47q103 -35 103 -150q0 -9 -5 -49q-34 -233 -329 -233q-176 0 -242 6z" />
<glyph unicode="&#xb4;" horiz-adv-x="1024" d="M469 1227l301 258h111l-320 -258h-92z" />
<glyph unicode="&#xb5;" horiz-adv-x="1142" d="M-12 -358l274 1409h78l-127 -648q-12 -62 -12 -110q0 -131 85.5 -184.5t258.5 -53.5q103 0 270 19l193 977h77l-190 -971q-10 -42 -25 -56t-57 -22q-114 -20 -276 -20q-164 0 -254 41t-121 124l-96 -505h-78z" />
<glyph unicode="&#xb6;" horiz-adv-x="1292" d="M141 930q0 51 13 127q41 208 172.5 304.5t357.5 96.5h619l-355 -1816h-78l340 1749h-313l-340 -1749h-80l187 960h-144q-83 0 -150 18t-119.5 55.5t-81 102t-28.5 152.5z" />
<glyph unicode="&#xb7;" horiz-adv-x="327" d="M127 688q0 88 80 88q63 0 63 -67q0 -88 -80 -88q-63 0 -63 67z" />
<glyph unicode="&#xb8;" horiz-adv-x="1024" d="M141 -397l33 67q98 -4 148 -4q77 0 110.5 20.5t44.5 71.5q2 6 2 25q0 35 -23 50t-69 15q-90 0 -139 -2l33 68q18 2 118 2q77 0 116.5 -33t39.5 -92q0 -21 -2 -35q-13 -88 -72 -122.5t-170 -34.5q-100 0 -170 4z" />
<glyph unicode="&#xb9;" horiz-adv-x="755" d="M162 590l28 67h183l131 668h-215l28 68h271l-144 -736h218l-29 -67h-471z" />
<glyph unicode="&#xba;" horiz-adv-x="921" d="M197 893q0 71 18 170q21 111 50.5 184.5t78 125t117.5 74.5t168 23q149 0 225 -64.5t76 -213.5q0 -66 -19 -170q-21 -111 -50.5 -184.5t-77.5 -125.5t-117 -75t-168 -23q-151 0 -226 64.5t-75 214.5zM270 891q0 -115 56.5 -163t183.5 -48q149 0 219 72t107 266 q20 97 20 176q0 115 -56.5 163t-183.5 48q-149 0 -218.5 -72t-106.5 -266q-21 -102 -21 -176z" />
<glyph unicode="&#xbb;" horiz-adv-x="966" d="M25 129l20 100l379 308l-258 309l16 90l320 -371l-15 -65zM436 129l21 100l379 308l-258 309l16 90l319 -371l-14 -65z" />
<glyph unicode="&#xbc;" horiz-adv-x="1683" d="M162 590l28 67h183l131 668h-215l28 68h271l-144 -736h218l-29 -67h-471zM299 0l1135 1393h90l-1135 -1393h-90zM924 197l10 57l405 549h78l-393 -539h350l49 252l70 12l-51 -264h133l-29 -67h-119l-36 -197h-68l37 197h-436z" />
<glyph unicode="&#xbd;" horiz-adv-x="1683" d="M162 590l28 67h183l131 668h-215l28 68h271l-144 -736h218l-29 -67h-471zM260 0l1135 1393h90l-1135 -1393h-90zM948 0l25 127q25 117 76.5 175.5t175.5 107.5l112 45q60 23 89.5 43t41.5 45q17 43 17 88q0 55 -35 80.5t-119 25.5q-73 0 -233 -4l26 68q184 4 207 4 q118 0 173 -41.5t55 -126.5q0 -80 -29 -129q-23 -38 -59.5 -64t-108.5 -55l-113 -45q-105 -42 -145 -84t-57 -133l-11 -59h422l-28 -68h-482z" />
<glyph unicode="&#xbe;" horiz-adv-x="1683" d="M129 594l27 65q23 0 107.5 -1t109.5 -1q121 0 180 37.5t72 132.5q4 32 4 45q0 61 -35.5 87t-114.5 26h-205l27 66h178q170 0 205 114q8 24 8 60q0 53 -35.5 77.5t-119.5 24.5q-14 0 -107.5 -1t-132.5 -1l29 68q45 0 124 1t89 1q120 0 173.5 -39.5t53.5 -122.5 q0 -47 -12 -84q-17 -48 -57 -82t-95 -47q103 -35 103 -150q0 -9 -5 -49q-34 -233 -329 -233q-176 0 -242 6zM299 0l1135 1393h90l-1135 -1393h-90zM924 197l10 57l405 549h78l-393 -539h350l49 252l70 12l-51 -264h133l-29 -67h-119l-36 -197h-68l37 197h-436z" />
<glyph unicode="&#xbf;" horiz-adv-x="919" d="M-12 -129q0 50 4 68q7 53 22 97.5t32 77t45.5 62t51.5 48.5t61 39.5t62.5 31.5t67.5 29q62 26 93 41.5t62 36.5t45.5 46t27 59.5t22.5 88.5l20 109h80l-22 -119q-13 -64 -29.5 -108t-37 -76t-56.5 -57.5t-74.5 -44t-104.5 -44.5q-72 -29 -115.5 -53.5t-80.5 -60.5 t-56.5 -84t-29.5 -117q-6 -40 -6 -72q0 -118 71 -165.5t226 -47.5q214 0 321 4l-33 -74q-55 0 -142.5 -2t-158.5 -2q-177 0 -272.5 66.5t-95.5 222.5zM621 971q0 88 79 88q64 0 64 -68q0 -88 -80 -88q-63 0 -63 68z" />
<glyph unicode="&#xc0;" horiz-adv-x="1292" d="M-51 0l837 1458h80l273 -1458h-80l-90 487h-660l-276 -487h-84zM352 563h604l-147 799zM659 1827h101l201 -244h-84z" />
<glyph unicode="&#xc1;" horiz-adv-x="1292" d="M-51 0l837 1458h80l273 -1458h-80l-90 487h-660l-276 -487h-84zM352 563h604l-147 799zM741 1583l283 244h113l-301 -244h-95z" />
<glyph unicode="&#xc2;" horiz-adv-x="1292" d="M-51 0l837 1458h80l273 -1458h-80l-90 487h-660l-276 -487h-84zM352 563h604l-147 799zM561 1583l289 232h80l203 -232h-84l-160 176l-234 -176h-94z" />
<glyph unicode="&#xc3;" horiz-adv-x="1292" d="M-51 0l837 1458h80l273 -1458h-80l-90 487h-660l-276 -487h-84zM352 563h604l-147 799zM559 1583q23 110 69 151.5t109 41.5q59 0 125 -47l60 -39q39 -25 55.5 -33t38.5 -8q40 0 60.5 26.5t39.5 100.5h70q-23 -110 -69 -151.5t-109 -41.5q-61 0 -127 47l-58 39 q-39 25 -55.5 33t-38.5 8q-40 0 -60.5 -26.5t-39.5 -100.5h-70z" />
<glyph unicode="&#xc4;" horiz-adv-x="1292" d="M-51 0l837 1458h80l273 -1458h-80l-90 487h-660l-276 -487h-84zM352 563h604l-147 799zM662 1657q0 84 75 84q60 0 60 -64q0 -84 -74 -84q-61 0 -61 64zM942 1657q0 84 76 84q59 0 59 -64q0 -84 -73 -84q-62 0 -62 64z" />
<glyph unicode="&#xc5;" horiz-adv-x="1292" d="M-51 0l813 1417q-133 37 -133 166q0 13 4 45q18 104 81.5 162.5t172.5 58.5q99 0 157 -46.5t58 -131.5q0 -15 -4 -43q-37 -201 -224 -221l265 -1407h-80l-90 487h-660l-276 -487h-84zM352 563h604l-147 799zM702 1589q0 -116 148 -116q76 0 118.5 35.5t55.5 119.5 q4 28 4 39q0 117 -147 117q-76 0 -118.5 -36t-55.5 -120q-5 -35 -5 -39z" />
<glyph unicode="&#xc6;" horiz-adv-x="1927" d="M-92 0l1155 1458h907l-31 -76h-784l-117 -594h758l-31 -75h-741l-125 -637h817l-30 -76h-881l94 487h-516l-383 -487h-92zM442 563h473l154 787h-8z" />
<glyph unicode="&#xc7;" horiz-adv-x="1161" d="M139 451q0 116 37 301q34 169 82 290.5t109 202.5t144.5 129t179.5 68t224 20q63 0 169 -2t122 -2l-30 -76q-52 0 -152 2t-123 2q-106 0 -186 -16t-155 -58.5t-130 -115.5t-100 -188t-76 -275q-31 -161 -31 -270q0 -112 28.5 -188.5t88.5 -121t141.5 -63t198.5 -18.5 q47 0 147 2t127 2l-30 -76q-102 -4 -250 -4q-286 0 -410.5 113.5t-124.5 341.5zM293 -399l33 71q54 -4 145 -4q140 0 160 96q2 14 2 21q0 36 -25 47.5t-78 11.5q-96 0 -131 -2l33 72q31 2 103 2q172 0 172 -127q0 -4 -5 -39q-11 -69 -73.5 -111t-169.5 -42q-96 0 -166 4z " />
<glyph unicode="&#xc8;" horiz-adv-x="1193" d="M72 0l284 1458h881l-31 -76h-784l-117 -594h758l-31 -75h-741l-125 -637h817l-31 -76h-880zM668 1827h100l201 -244h-84z" />
<glyph unicode="&#xc9;" horiz-adv-x="1193" d="M72 0l284 1458h881l-31 -76h-784l-117 -594h758l-31 -75h-741l-125 -637h817l-31 -76h-880zM686 1583l283 244h112l-301 -244h-94z" />
<glyph unicode="&#xca;" horiz-adv-x="1193" d="M72 0l284 1458h881l-31 -76h-784l-117 -594h758l-31 -75h-741l-125 -637h817l-31 -76h-880zM537 1583l288 232h80l203 -232h-84l-160 176l-233 -176h-94z" />
<glyph unicode="&#xcb;" horiz-adv-x="1193" d="M72 0l284 1458h881l-31 -76h-784l-117 -594h758l-31 -75h-741l-125 -637h817l-31 -76h-880zM635 1657q0 84 76 84q59 0 59 -64q0 -84 -74 -84q-61 0 -61 64zM915 1657q0 84 76 84q60 0 60 -64q0 -84 -74 -84q-62 0 -62 64z" />
<glyph unicode="&#xcc;" horiz-adv-x="428" d="M72 0l284 1458h80l-284 -1458h-80zM184 1827h101l200 -244h-84z" />
<glyph unicode="&#xcd;" horiz-adv-x="428" d="M72 0l284 1458h80l-284 -1458h-80zM352 1583l283 244h113l-302 -244h-94z" />
<glyph unicode="&#xce;" horiz-adv-x="428" d="M72 0l284 1458h80l-284 -1458h-80zM119 1583l289 232h79l203 -232h-84l-160 176l-233 -176h-94z" />
<glyph unicode="&#xcf;" horiz-adv-x="428" d="M72 0l284 1458h80l-284 -1458h-80zM229 1657q0 84 76 84q60 0 60 -64q0 -84 -74 -84q-62 0 -62 64zM510 1657q0 84 76 84q59 0 59 -64q0 -84 -74 -84q-61 0 -61 64z" />
<glyph unicode="&#xd0;" horiz-adv-x="1388" d="M94 698l15 74h149l135 686h410q271 0 395.5 -117t124.5 -356q0 -116 -31 -274q-39 -202 -102.5 -339t-159.5 -219.5t-218 -117.5t-290 -35h-413l135 698h-150zM203 76h332q154 0 264 34t190.5 112t132 195.5t86.5 293.5q33 149 33 274q0 208 -106.5 302.5t-339.5 94.5 h-338l-119 -610h399l-14 -74h-399z" />
<glyph unicode="&#xd1;" horiz-adv-x="1394" d="M72 0l284 1458h72l639 -1337l260 1337h76l-285 -1458h-71l-641 1335l-259 -1335h-75zM592 1583q23 110 69 151.5t109 41.5q59 0 125 -47l59 -39q38 -25 55.5 -33t39.5 -8q40 0 60.5 26.5t39.5 100.5h70q-23 -110 -69.5 -151.5t-109.5 -41.5q-61 0 -127 47l-57 39 q-39 25 -55.5 33t-38.5 8q-40 0 -60.5 -26.5t-39.5 -100.5h-70z" />
<glyph unicode="&#xd2;" horiz-adv-x="1406" d="M143 420q0 143 33 328q37 212 93.5 355t141.5 230.5t194.5 125.5t260.5 38q249 0 362 -105t113 -352q0 -148 -32 -327q-49 -281 -137 -445.5t-220.5 -234.5t-333.5 -70q-251 0 -363 105t-112 352zM223 418q0 -113 25 -187.5t78.5 -116.5t124 -58.5t174.5 -16.5 q99 0 172.5 16t144 60t121 119.5t93 196t71.5 288.5q35 199 35 323q0 113 -25 187.5t-78.5 116.5t-124 58.5t-174.5 16.5q-99 0 -172.5 -16t-144 -60t-121 -119.5t-93 -196t-71.5 -288.5q-35 -199 -35 -323zM758 1827h100l201 -244h-84z" />
<glyph unicode="&#xd3;" horiz-adv-x="1406" d="M143 420q0 143 33 328q37 212 93.5 355t141.5 230.5t194.5 125.5t260.5 38q249 0 362 -105t113 -352q0 -148 -32 -327q-49 -281 -137 -445.5t-220.5 -234.5t-333.5 -70q-251 0 -363 105t-112 352zM223 418q0 -113 25 -187.5t78.5 -116.5t124 -58.5t174.5 -16.5 q99 0 172.5 16t144 60t121 119.5t93 196t71.5 288.5q35 199 35 323q0 113 -25 187.5t-78.5 116.5t-124 58.5t-174.5 16.5q-99 0 -172.5 -16t-144 -60t-121 -119.5t-93 -196t-71.5 -288.5q-35 -199 -35 -323zM758 1583l282 244h113l-301 -244h-94z" />
<glyph unicode="&#xd4;" horiz-adv-x="1406" d="M143 420q0 143 33 328q37 212 93.5 355t141.5 230.5t194.5 125.5t260.5 38q249 0 362 -105t113 -352q0 -148 -32 -327q-49 -281 -137 -445.5t-220.5 -234.5t-333.5 -70q-251 0 -363 105t-112 352zM223 418q0 -113 25 -187.5t78.5 -116.5t124 -58.5t174.5 -16.5 q99 0 172.5 16t144 60t121 119.5t93 196t71.5 288.5q35 199 35 323q0 113 -25 187.5t-78.5 116.5t-124 58.5t-174.5 16.5q-99 0 -172.5 -16t-144 -60t-121 -119.5t-93 -196t-71.5 -288.5q-35 -199 -35 -323zM621 1583l288 232h80l203 -232h-84l-160 176l-233 -176h-94z" />
<glyph unicode="&#xd5;" horiz-adv-x="1406" d="M143 420q0 143 33 328q37 212 93.5 355t141.5 230.5t194.5 125.5t260.5 38q249 0 362 -105t113 -352q0 -148 -32 -327q-49 -281 -137 -445.5t-220.5 -234.5t-333.5 -70q-251 0 -363 105t-112 352zM223 418q0 -113 25 -187.5t78.5 -116.5t124 -58.5t174.5 -16.5 q99 0 172.5 16t144 60t121 119.5t93 196t71.5 288.5q35 199 35 323q0 113 -25 187.5t-78.5 116.5t-124 58.5t-174.5 16.5q-99 0 -172.5 -16t-144 -60t-121 -119.5t-93 -196t-71.5 -288.5q-35 -199 -35 -323zM608 1583q23 110 69 151.5t109 41.5q59 0 125 -47l60 -39 q39 -25 55.5 -33t38.5 -8q40 0 60.5 26.5t39.5 100.5h70q-23 -110 -69 -151.5t-109 -41.5q-61 0 -127 47l-58 39q-39 25 -55.5 33t-38.5 8q-40 0 -60.5 -26.5t-39.5 -100.5h-70z" />
<glyph unicode="&#xd6;" horiz-adv-x="1406" d="M143 420q0 143 33 328q37 212 93.5 355t141.5 230.5t194.5 125.5t260.5 38q249 0 362 -105t113 -352q0 -148 -32 -327q-49 -281 -137 -445.5t-220.5 -234.5t-333.5 -70q-251 0 -363 105t-112 352zM223 418q0 -113 25 -187.5t78.5 -116.5t124 -58.5t174.5 -16.5 q99 0 172.5 16t144 60t121 119.5t93 196t71.5 288.5q35 199 35 323q0 113 -25 187.5t-78.5 116.5t-124 58.5t-174.5 16.5q-99 0 -172.5 -16t-144 -60t-121 -119.5t-93 -196t-71.5 -288.5q-35 -199 -35 -323zM713 1657q0 84 75 84q60 0 60 -64q0 -84 -74 -84q-61 0 -61 64z M993 1657q0 84 76 84q59 0 59 -64q0 -84 -73 -84q-62 0 -62 64z" />
<glyph unicode="&#xd7;" d="M240 399l350 301l-240 310l60 49l241 -305l355 305l49 -58l-359 -307l238 -301l-64 -49l-233 297l-350 -299z" />
<glyph unicode="&#xd8;" horiz-adv-x="1406" d="M47 -180l191 266q-95 109 -95 334q0 143 33 328q37 212 93.5 355t141.5 230.5t194.5 125.5t260.5 38q212 0 328 -78l158 221h88l-193 -268q94 -107 94 -332q0 -148 -32 -327q-49 -281 -137 -445.5t-220.5 -234.5t-333.5 -70q-212 0 -325 76l-158 -219h-88zM223 418 q0 -182 64 -264l860 1202q-90 65 -287 65q-99 0 -172.5 -16t-144 -60t-121 -119.5t-93 -196t-71.5 -288.5q-35 -199 -35 -323zM338 102q91 -63 287 -63q99 0 172.5 16t144 60t121 119.5t93 196t71.5 288.5q35 199 35 323q0 175 -64 263z" />
<glyph unicode="&#xd9;" horiz-adv-x="1343" d="M145 342q0 74 19 182l182 934h80l-184 -944q-19 -100 -19 -168q0 -170 95 -239.5t284 -69.5q107 0 182 19.5t137.5 70t104 140t68.5 225.5l188 966h80l-193 -985q-28 -146 -75.5 -244.5t-118.5 -157t-159.5 -83.5t-209.5 -25q-232 0 -346.5 90t-114.5 289zM692 1827h101 l200 -244h-84z" />
<glyph unicode="&#xda;" horiz-adv-x="1343" d="M145 342q0 74 19 182l182 934h80l-184 -944q-19 -100 -19 -168q0 -170 95 -239.5t284 -69.5q107 0 182 19.5t137.5 70t104 140t68.5 225.5l188 966h80l-193 -985q-28 -146 -75.5 -244.5t-118.5 -157t-159.5 -83.5t-209.5 -25q-232 0 -346.5 90t-114.5 289zM694 1583 l283 244h113l-302 -244h-94z" />
<glyph unicode="&#xdb;" horiz-adv-x="1343" d="M145 342q0 74 19 182l182 934h80l-184 -944q-19 -100 -19 -168q0 -170 95 -239.5t284 -69.5q107 0 182 19.5t137.5 70t104 140t68.5 225.5l188 966h80l-193 -985q-28 -146 -75.5 -244.5t-118.5 -157t-159.5 -83.5t-209.5 -25q-232 0 -346.5 90t-114.5 289zM590 1583 l289 232h79l203 -232h-84l-159 176l-234 -176h-94z" />
<glyph unicode="&#xdc;" horiz-adv-x="1343" d="M145 342q0 74 19 182l182 934h80l-184 -944q-19 -100 -19 -168q0 -170 95 -239.5t284 -69.5q107 0 182 19.5t137.5 70t104 140t68.5 225.5l188 966h80l-193 -985q-28 -146 -75.5 -244.5t-118.5 -157t-159.5 -83.5t-209.5 -25q-232 0 -346.5 90t-114.5 289zM670 1657 q0 84 75 84q60 0 60 -64q0 -84 -74 -84q-61 0 -61 64zM950 1657q0 84 76 84q59 0 59 -64q0 -84 -73 -84q-62 0 -62 64z" />
<glyph unicode="&#xdd;" horiz-adv-x="1210" d="M219 1458h84l336 -747l623 747h94l-686 -819l-123 -639h-80l125 639zM666 1583l282 244h113l-301 -244h-94z" />
<glyph unicode="&#xde;" horiz-adv-x="1206" d="M72 0l284 1458h80l-57 -289h323q234 0 348.5 -76.5t114.5 -246.5q0 -46 -10 -111q-18 -113 -62 -191t-116 -122t-161.5 -63t-211.5 -19h-387l-65 -340h-80zM231 416h375q223 0 324.5 67t138.5 240q14 75 14 117q0 142 -97.5 198t-291.5 56h-329z" />
<glyph unicode="&#xdf;" horiz-adv-x="1105" d="M57 0l213 1092q45 231 154.5 337.5t308.5 106.5q183 0 270 -81t87 -218q0 -34 -11 -98q-49 -256 -264 -310q195 -64 195 -303q0 -23 -4 -77q-52 -451 -521 -451q-58 0 -110 8l22 70q31 -6 88 -6q64 0 116 7.5t110 32t100.5 65t75.5 111.5t45 167q4 18 4 77 q0 267 -291 267h-110l28 73h90q68 0 121 12.5t101.5 42.5t81.5 87.5t49 140.5q8 36 8 84q0 227 -289 227q-163 0 -250.5 -86t-128.5 -297l-211 -1081h-78z" />
<glyph unicode="&#xe0;" horiz-adv-x="1095" d="M70 258q0 49 12 107q34 158 138 229.5t282 71.5q287 0 356 -148l27 135q14 75 14 117q0 110 -69.5 160.5t-231.5 50.5q-240 0 -311 -4l30 74q54 4 289 4q194 0 280.5 -72.5t86.5 -208.5q0 -62 -15 -133l-110 -559q-10 -42 -26 -57t-58 -23q-114 -20 -277 -20 q-206 0 -311.5 63t-105.5 213zM150 264q0 -53 17.5 -91t46.5 -60.5t75.5 -35.5t94 -17.5t112.5 -4.5q103 0 274 19l41 215q10 55 10 90q0 118 -79.5 166.5t-241.5 48.5q-151 0 -231 -56.5t-109 -185.5q-10 -55 -10 -88zM498 1485h96l207 -258h-80z" />
<glyph unicode="&#xe1;" horiz-adv-x="1095" d="M70 258q0 49 12 107q34 158 138 229.5t282 71.5q287 0 356 -148l27 135q14 75 14 117q0 110 -69.5 160.5t-231.5 50.5q-240 0 -311 -4l30 74q54 4 289 4q194 0 280.5 -72.5t86.5 -208.5q0 -62 -15 -133l-110 -559q-10 -42 -26 -57t-58 -23q-114 -20 -277 -20 q-206 0 -311.5 63t-105.5 213zM150 264q0 -53 17.5 -91t46.5 -60.5t75.5 -35.5t94 -17.5t112.5 -4.5q103 0 274 19l41 215q10 55 10 90q0 118 -79.5 166.5t-241.5 48.5q-151 0 -231 -56.5t-109 -185.5q-10 -55 -10 -88zM530 1227l301 258h111l-319 -258h-93z" />
<glyph unicode="&#xe2;" horiz-adv-x="1095" d="M70 258q0 49 12 107q34 158 138 229.5t282 71.5q287 0 356 -148l27 135q14 75 14 117q0 110 -69.5 160.5t-231.5 50.5q-240 0 -311 -4l30 74q54 4 289 4q194 0 280.5 -72.5t86.5 -208.5q0 -62 -15 -133l-110 -559q-10 -42 -26 -57t-58 -23q-114 -20 -277 -20 q-206 0 -311.5 63t-105.5 213zM150 264q0 -53 17.5 -91t46.5 -60.5t75.5 -35.5t94 -17.5t112.5 -4.5q103 0 274 19l41 215q10 55 10 90q0 118 -79.5 166.5t-241.5 48.5q-151 0 -231 -56.5t-109 -185.5q-10 -55 -10 -88zM397 1227l279 252h80l180 -252h-86l-141 188 l-217 -188h-95z" />
<glyph unicode="&#xe3;" horiz-adv-x="1095" d="M70 258q0 49 12 107q34 158 138 229.5t282 71.5q287 0 356 -148l27 135q14 75 14 117q0 110 -69.5 160.5t-231.5 50.5q-240 0 -311 -4l30 74q54 4 289 4q194 0 280.5 -72.5t86.5 -208.5q0 -62 -15 -133l-110 -559q-10 -42 -26 -57t-58 -23q-114 -20 -277 -20 q-206 0 -311.5 63t-105.5 213zM150 264q0 -53 17.5 -91t46.5 -60.5t75.5 -35.5t94 -17.5t112.5 -4.5q103 0 274 19l41 215q10 55 10 90q0 118 -79.5 166.5t-241.5 48.5q-151 0 -231 -56.5t-109 -185.5q-10 -55 -10 -88zM379 1227q23 112 65 152t101 40q32 0 59.5 -9 t71.5 -38l59 -39q39 -25 55.5 -33t38.5 -8q36 0 59.5 28.5t41.5 98.5h63q-23 -111 -65.5 -151.5t-98.5 -40.5q-67 0 -135 47l-57 39q-33 24 -52 32.5t-42 8.5q-36 0 -59.5 -28.5t-41.5 -98.5h-63z" />
<glyph unicode="&#xe4;" horiz-adv-x="1095" d="M70 258q0 49 12 107q34 158 138 229.5t282 71.5q287 0 356 -148l27 135q14 75 14 117q0 110 -69.5 160.5t-231.5 50.5q-240 0 -311 -4l30 74q54 4 289 4q194 0 280.5 -72.5t86.5 -208.5q0 -62 -15 -133l-110 -559q-10 -42 -26 -57t-58 -23q-114 -20 -277 -20 q-206 0 -311.5 63t-105.5 213zM150 264q0 -53 17.5 -91t46.5 -60.5t75.5 -35.5t94 -17.5t112.5 -4.5q103 0 274 19l41 215q10 55 10 90q0 118 -79.5 166.5t-241.5 48.5q-151 0 -231 -56.5t-109 -185.5q-10 -55 -10 -88zM492 1337q0 82 73 82q58 0 58 -61q0 -82 -72 -82 q-59 0 -59 61zM772 1337q0 82 74 82q57 0 57 -61q0 -82 -72 -82q-59 0 -59 61z" />
<glyph unicode="&#xe5;" horiz-adv-x="1095" d="M70 258q0 49 12 107q34 158 138 229.5t282 71.5q287 0 356 -148l27 135q14 75 14 117q0 110 -69.5 160.5t-231.5 50.5q-240 0 -311 -4l30 74q54 4 289 4q194 0 280.5 -72.5t86.5 -208.5q0 -62 -15 -133l-110 -559q-10 -42 -26 -57t-58 -23q-114 -20 -277 -20 q-206 0 -311.5 63t-105.5 213zM150 264q0 -53 17.5 -91t46.5 -60.5t75.5 -35.5t94 -17.5t112.5 -4.5q103 0 274 19l41 215q10 55 10 90q0 118 -79.5 166.5t-241.5 48.5q-151 0 -231 -56.5t-109 -185.5q-10 -55 -10 -88zM475 1350q0 15 4 43q18 104 81.5 162.5t172.5 58.5 q99 0 157 -46.5t58 -131.5q0 -15 -4 -43q-18 -104 -81.5 -163t-172.5 -59q-98 0 -156.5 47t-58.5 132zM549 1354q0 -117 147 -117q76 0 118.5 36t55.5 120q4 28 4 39q0 116 -147 116q-76 0 -118.5 -35.5t-55.5 -119.5q-4 -28 -4 -39z" />
<glyph unicode="&#xe6;" horiz-adv-x="1800" d="M70 242q0 42 14 110q32 142 136.5 208.5t299.5 66.5h363l6 26q14 75 14 117q0 110 -69.5 160.5t-231.5 50.5q-141 0 -218.5 -2t-90.5 -2l31 74q55 4 286 4q321 0 365 -215q75 126 185.5 176.5t262.5 50.5q165 0 244.5 -58t79.5 -161q0 -26 -10 -78 q-30 -114 -121.5 -165.5t-282.5 -51.5h-387q-24 -108 -24 -195q0 -144 79.5 -215t260.5 -71q190 0 282 6l-31 -74q-88 -6 -249 -6q-180 0 -278 59.5t-128 173.5q-99 -247 -438 -247q-181 0 -265.5 68t-84.5 190zM152 246q0 -92 63 -141.5t205 -49.5q92 0 157.5 16.5 t119 57.5t89 113t58.5 180l26 135h-348q-164 0 -246 -47.5t-112 -167.5q-12 -52 -12 -96zM963 623h368q161 0 231 34t95 123q8 27 8 62q0 153 -242 153q-192 0 -297.5 -84.5t-162.5 -287.5z" />
<glyph unicode="&#xe7;" horiz-adv-x="921" d="M94 346q0 93 25 215q24 122 62.5 210t86.5 143t115.5 86.5t139 43t167.5 11.5q55 0 203 -4l-31 -74q-94 4 -182 4q-87 0 -149.5 -10.5t-117.5 -37.5t-93.5 -75.5t-68.5 -122t-52 -178.5q-25 -125 -25 -205q0 -83 22.5 -139.5t69.5 -87t107 -43t145 -12.5q69 0 213 4 l-31 -74q-37 -4 -196 -4q-218 0 -314 88.5t-96 261.5zM152 -397l32 67q98 -4 148 -4q77 0 110.5 20.5t44.5 71.5q2 6 2 25q0 35 -23 50t-69 15q-90 0 -139 -2l33 68q18 2 119 2q77 0 116 -33t39 -92q0 -21 -2 -35q-13 -88 -71.5 -122.5t-169.5 -34.5q-100 0 -170 4z" />
<glyph unicode="&#xe8;" horiz-adv-x="1048" d="M94 348q0 101 27 215q65 286 187 403t341 117q177 0 259.5 -64t82.5 -177q0 -44 -12 -94q-30 -130 -123.5 -189t-284.5 -59h-387q-14 -77 -14 -146q0 -144 79.5 -214t260.5 -70q191 0 283 6l-31 -74q-88 -6 -250 -6q-221 0 -319.5 90t-98.5 262zM199 569h370 q160 0 232.5 41.5t97.5 147.5q10 52 10 80q0 84 -61 129t-201 45q-186 0 -291 -101t-157 -342zM508 1485h96l207 -258h-80z" />
<glyph unicode="&#xe9;" horiz-adv-x="1048" d="M94 348q0 101 27 215q65 286 187 403t341 117q177 0 259.5 -64t82.5 -177q0 -44 -12 -94q-30 -130 -123.5 -189t-284.5 -59h-387q-14 -77 -14 -146q0 -144 79.5 -214t260.5 -70q191 0 283 6l-31 -74q-88 -6 -250 -6q-221 0 -319.5 90t-98.5 262zM199 569h370 q160 0 232.5 41.5t97.5 147.5q10 52 10 80q0 84 -61 129t-201 45q-186 0 -291 -101t-157 -342zM557 1227l301 258h111l-320 -258h-92z" />
<glyph unicode="&#xea;" horiz-adv-x="1048" d="M94 348q0 101 27 215q65 286 187 403t341 117q177 0 259.5 -64t82.5 -177q0 -44 -12 -94q-30 -130 -123.5 -189t-284.5 -59h-387q-14 -77 -14 -146q0 -144 79.5 -214t260.5 -70q191 0 283 6l-31 -74q-88 -6 -250 -6q-221 0 -319.5 90t-98.5 262zM199 569h370 q160 0 232.5 41.5t97.5 147.5q10 52 10 80q0 84 -61 129t-201 45q-186 0 -291 -101t-157 -342zM399 1227l279 252h80l180 -252h-86l-141 188l-217 -188h-95z" />
<glyph unicode="&#xeb;" horiz-adv-x="1048" d="M94 348q0 101 27 215q65 286 187 403t341 117q177 0 259.5 -64t82.5 -177q0 -44 -12 -94q-30 -130 -123.5 -189t-284.5 -59h-387q-14 -77 -14 -146q0 -144 79.5 -214t260.5 -70q191 0 283 6l-31 -74q-88 -6 -250 -6q-221 0 -319.5 90t-98.5 262zM199 569h370 q160 0 232.5 41.5t97.5 147.5q10 52 10 80q0 84 -61 129t-201 45q-186 0 -291 -101t-157 -342zM489 1337q0 82 74 82q58 0 58 -61q0 -82 -72 -82q-60 0 -60 61zM770 1337q0 82 74 82q57 0 57 -61q0 -82 -72 -82q-59 0 -59 61z" />
<glyph unicode="&#xec;" horiz-adv-x="397" d="M57 0l205 1051h78l-205 -1051h-78zM92 1485h96l207 -258h-80z" />
<glyph unicode="&#xed;" horiz-adv-x="397" d="M57 0l205 1051h78l-205 -1051h-78zM260 1227l301 258h111l-320 -258h-92z" />
<glyph unicode="&#xee;" horiz-adv-x="397" d="M43 1227l279 252h79l181 -252h-86l-142 188l-217 -188h-94zM57 0l205 1051h78l-205 -1051h-78z" />
<glyph unicode="&#xef;" horiz-adv-x="397" d="M57 0l205 1051h78l-205 -1051h-78zM139 1337q0 82 74 82q57 0 57 -61q0 -82 -71 -82q-60 0 -60 61zM420 1337q0 82 74 82q57 0 57 -61q0 -82 -72 -82q-59 0 -59 61z" />
<glyph unicode="&#xf0;" horiz-adv-x="1159" d="M88 313q0 80 18 185q24 127 61 214.5t98 148t148.5 88.5t209.5 28q288 0 356 -201q6 68 6 129q0 174 -53 301l-320 -112l-20 61l311 111q-60 103 -160 184l62 47q112 -93 170 -205l207 74l22 -61l-203 -72q58 -141 58 -322q0 -187 -76 -524q-51 -222 -165.5 -321 t-338.5 -99q-194 0 -292.5 80t-98.5 266zM166 313q0 -149 76.5 -210.5t246.5 -61.5q192 0 286 87t138 316q23 122 23 189q0 146 -77.5 208t-246.5 62q-191 0 -287 -87.5t-139 -315.5q-20 -97 -20 -187z" />
<glyph unicode="&#xf1;" horiz-adv-x="1150" d="M57 0l131 678q41 216 149 310.5t314 94.5q198 0 288.5 -76t90.5 -221q0 -51 -14 -133l-127 -653h-78l129 664q12 64 12 114q0 127 -77 179.5t-228 52.5q-173 0 -258.5 -75t-122.5 -261l-131 -674h-78zM391 1227q23 112 65 152t101 40q32 0 59.5 -9t71.5 -38l60 -39 q39 -25 55.5 -33t38.5 -8q36 0 59 28t41 99h64q-23 -111 -65.5 -151.5t-98.5 -40.5q-67 0 -135 47l-58 39q-33 24 -52 32.5t-42 8.5q-36 0 -59 -28t-41 -99h-64z" />
<glyph unicode="&#xf2;" horiz-adv-x="1126" d="M96 336q0 99 23 217q25 141 64 237.5t101 163.5t150.5 98t210.5 31q189 0 287 -86t98 -282q0 -104 -22 -217q-25 -141 -64.5 -237.5t-101.5 -164t-150.5 -98.5t-210.5 -31q-189 0 -287 86.5t-98 282.5zM174 330q0 -157 75.5 -223t242.5 -66q129 0 211 42t136 140t87 271 q26 143 26 227q0 157 -75 223t-242 66q-129 0 -211 -42t-136 -140t-87 -271q-27 -148 -27 -227zM496 1485h96l207 -258h-80z" />
<glyph unicode="&#xf3;" horiz-adv-x="1126" d="M96 336q0 99 23 217q25 141 64 237.5t101 163.5t150.5 98t210.5 31q189 0 287 -86t98 -282q0 -104 -22 -217q-25 -141 -64.5 -237.5t-101.5 -164t-150.5 -98.5t-210.5 -31q-189 0 -287 86.5t-98 282.5zM174 330q0 -157 75.5 -223t242.5 -66q129 0 211 42t136 140t87 271 q26 143 26 227q0 157 -75 223t-242 66q-129 0 -211 -42t-136 -140t-87 -271q-27 -148 -27 -227zM553 1227l301 258h111l-320 -258h-92z" />
<glyph unicode="&#xf4;" horiz-adv-x="1126" d="M96 336q0 99 23 217q25 141 64 237.5t101 163.5t150.5 98t210.5 31q189 0 287 -86t98 -282q0 -104 -22 -217q-25 -141 -64.5 -237.5t-101.5 -164t-150.5 -98.5t-210.5 -31q-189 0 -287 86.5t-98 282.5zM174 330q0 -157 75.5 -223t242.5 -66q129 0 211 42t136 140t87 271 q26 143 26 227q0 157 -75 223t-242 66q-129 0 -211 -42t-136 -140t-87 -271q-27 -148 -27 -227zM406 1227l278 252h80l180 -252h-86l-141 188l-217 -188h-94z" />
<glyph unicode="&#xf5;" horiz-adv-x="1126" d="M96 336q0 99 23 217q25 141 64 237.5t101 163.5t150.5 98t210.5 31q189 0 287 -86t98 -282q0 -104 -22 -217q-25 -141 -64.5 -237.5t-101.5 -164t-150.5 -98.5t-210.5 -31q-189 0 -287 86.5t-98 282.5zM174 330q0 -157 75.5 -223t242.5 -66q129 0 211 42t136 140t87 271 q26 143 26 227q0 157 -75 223t-242 66q-129 0 -211 -42t-136 -140t-87 -271q-27 -148 -27 -227zM387 1227q23 112 65 152t101 40q32 0 59.5 -9t71.5 -38l59 -39q38 -25 55.5 -33t39.5 -8q36 0 59 28t41 99h63q-23 -111 -65 -151.5t-98 -40.5q-68 0 -136 47l-57 39 q-33 24 -52 32.5t-42 8.5q-36 0 -59 -28t-41 -99h-64z" />
<glyph unicode="&#xf6;" horiz-adv-x="1126" d="M96 336q0 99 23 217q25 141 64 237.5t101 163.5t150.5 98t210.5 31q189 0 287 -86t98 -282q0 -104 -22 -217q-25 -141 -64.5 -237.5t-101.5 -164t-150.5 -98.5t-210.5 -31q-189 0 -287 86.5t-98 282.5zM174 330q0 -157 75.5 -223t242.5 -66q129 0 211 42t136 140t87 271 q26 143 26 227q0 157 -75 223t-242 66q-129 0 -211 -42t-136 -140t-87 -271q-27 -148 -27 -227zM492 1337q0 82 73 82q58 0 58 -61q0 -82 -72 -82q-59 0 -59 61zM772 1337q0 82 74 82q57 0 57 -61q0 -82 -72 -82q-59 0 -59 61z" />
<glyph unicode="&#xf7;" d="M215 664l14 75h842l-14 -75h-842zM496 350q0 88 79 88q64 0 64 -67q0 -88 -80 -88q-63 0 -63 67zM627 1032q0 88 80 88q63 0 63 -67q0 -88 -80 -88q-63 0 -63 67z" />
<glyph unicode="&#xf8;" horiz-adv-x="1126" d="M6 -143l166 217q-76 92 -76 262q0 99 23 217q25 141 64 237.5t101 163.5t150.5 98t210.5 31q158 0 250 -57l135 176h86l-168 -221q82 -85 82 -266q0 -104 -22 -217q-25 -141 -64.5 -237.5t-101.5 -164t-150.5 -98.5t-210.5 -31q-167 0 -258 62l-131 -172h-86zM174 330 q0 -126 47 -191l627 826q-74 45 -213 45q-129 0 -211 -42t-136 -140t-87 -271q-27 -148 -27 -227zM270 90q71 -49 222 -49q129 0 211 42t136 140t87 271q26 143 26 227q0 126 -53 197z" />
<glyph unicode="&#xf9;" horiz-adv-x="1140" d="M121 264q0 67 14 133l127 654h78l-129 -664q-12 -65 -12 -117q0 -127 75 -178t224 -51q172 0 255.5 74.5t120.5 261.5l132 674h77l-131 -674q-44 -225 -147 -317.5t-311 -92.5q-373 0 -373 297zM502 1485h96l207 -258h-80z" />
<glyph unicode="&#xfa;" horiz-adv-x="1140" d="M121 264q0 67 14 133l127 654h78l-129 -664q-12 -65 -12 -117q0 -127 75 -178t224 -51q172 0 255.5 74.5t120.5 261.5l132 674h77l-131 -674q-44 -225 -147 -317.5t-311 -92.5q-373 0 -373 297zM557 1227l301 258h111l-320 -258h-92z" />
<glyph unicode="&#xfb;" horiz-adv-x="1140" d="M121 264q0 67 14 133l127 654h78l-129 -664q-12 -65 -12 -117q0 -127 75 -178t224 -51q172 0 255.5 74.5t120.5 261.5l132 674h77l-131 -674q-44 -225 -147 -317.5t-311 -92.5q-373 0 -373 297zM420 1227l278 252h80l180 -252h-86l-141 188l-217 -188h-94z" />
<glyph unicode="&#xfc;" horiz-adv-x="1140" d="M121 264q0 67 14 133l127 654h78l-129 -664q-12 -65 -12 -117q0 -127 75 -178t224 -51q172 0 255.5 74.5t120.5 261.5l132 674h77l-131 -674q-44 -225 -147 -317.5t-311 -92.5q-373 0 -373 297zM500 1337q0 82 73 82q58 0 58 -61q0 -82 -72 -82q-59 0 -59 61zM780 1337 q0 82 74 82q57 0 57 -61q0 -82 -71 -82q-60 0 -60 61z" />
<glyph unicode="&#xfd;" horiz-adv-x="1150" d="M59 -358l31 73q55 0 180.5 -2t143.5 -2q192 0 284 87.5t129 293.5l15 76q-101 -131 -344 -131q-190 0 -277.5 76t-87.5 221q0 51 14 133l113 584h78l-115 -594q-12 -67 -12 -121q0 -125 73 -175t222 -50q171 0 263 75.5t128 259.5l117 605h78l-185 -955 q-25 -120 -56.5 -198.5t-87 -140.5t-141.5 -90.5t-210 -28.5q-20 0 -148 2t-205 2zM549 1227l301 258h111l-320 -258h-92z" />
<glyph unicode="&#xfe;" horiz-adv-x="1167" d="M-12 -358l366 1880h78l-119 -609q118 170 373 170q189 0 287 -86t98 -282q0 -104 -22 -217q-51 -280 -169.5 -405.5t-351.5 -125.5q-142 0 -233 48t-125 159l-104 -532h-78zM215 330q0 -157 75 -223t242 -66q129 0 211.5 42t136.5 140t87 271q26 143 26 227 q0 157 -75 223t-242 66q-178 0 -282 -102t-152 -351q-27 -148 -27 -227z" />
<glyph unicode="&#xff;" horiz-adv-x="1150" d="M59 -358l31 73q55 0 180.5 -2t143.5 -2q192 0 284 87.5t129 293.5l15 76q-101 -131 -344 -131q-190 0 -277.5 76t-87.5 221q0 51 14 133l113 584h78l-115 -594q-12 -67 -12 -121q0 -125 73 -175t222 -50q171 0 263 75.5t128 259.5l117 605h78l-185 -955 q-25 -120 -56.5 -198.5t-87 -140.5t-141.5 -90.5t-210 -28.5q-20 0 -148 2t-205 2zM502 1337q0 82 73 82q58 0 58 -61q0 -82 -72 -82q-59 0 -59 61zM782 1337q0 82 74 82q57 0 57 -61q0 -82 -71 -82q-60 0 -60 61z" />
<glyph unicode="&#x152;" horiz-adv-x="2045" d="M143 473q0 117 31 275q39 202 102.5 339t159.5 219t218 117t290 35h1145l-31 -76h-784l-117 -594h758l-31 -75h-741l-125 -637h817l-31 -76h-1140q-271 0 -396 117t-125 356zM225 473q0 -208 107 -302.5t340 -94.5h266l256 1306h-262q-155 0 -265 -34t-190.5 -111.5 t-132 -195t-86.5 -293.5q-33 -149 -33 -275z" />
<glyph unicode="&#x153;" horiz-adv-x="1867" d="M96 344q0 71 23 209q25 141 64 237.5t101 163.5t150.5 98t210.5 31q168 0 261 -67.5t116 -214.5q47 108 117 172t147.5 87t181.5 23q177 0 259.5 -64t82.5 -177q0 -44 -12 -94q-30 -130 -123 -189t-284 -59h-387q-15 -83 -15 -146q0 -144 79.5 -214t260.5 -70 q191 0 283 6l-31 -74q-88 -6 -250 -6q-186 0 -281.5 63t-119.5 185q-58 -131 -166.5 -195.5t-282.5 -64.5q-193 0 -289 82.5t-96 277.5zM176 338q0 -153 74.5 -217t241.5 -64q192 0 288.5 95t145.5 342q26 143 26 227q0 157 -75 223t-242 66q-129 0 -211 -42t-136 -140 t-87 -271q-25 -134 -25 -219zM1018 569h371q160 0 232 41.5t97 147.5q11 57 11 80q0 84 -61.5 129t-201.5 45q-186 0 -291 -101t-157 -342z" />
<glyph unicode="&#x178;" horiz-adv-x="1210" d="M219 1458h84l336 -747l623 747h94l-686 -819l-123 -639h-80l125 639zM610 1657q0 84 76 84q59 0 59 -64q0 -84 -73 -84q-62 0 -62 64zM891 1657q0 84 76 84q59 0 59 -64q0 -84 -74 -84q-61 0 -61 64z" />
<glyph unicode="&#x2c6;" horiz-adv-x="1024" d="M381 1227l278 252h80l181 -252h-86l-142 188l-217 -188h-94z" />
<glyph unicode="&#x2dc;" horiz-adv-x="1024" d="M360 1227q23 112 65 152t101 40q32 0 59.5 -9t71.5 -38l60 -39q39 -25 55.5 -33t38.5 -8q36 0 59 28t41 99h64q-23 -111 -65.5 -151.5t-98.5 -40.5q-67 0 -135 47l-58 39q-33 24 -52 32.5t-42 8.5q-36 0 -59 -28t-41 -99h-64z" />
<glyph unicode="&#x2000;" horiz-adv-x="924" />
<glyph unicode="&#x2001;" horiz-adv-x="1849" />
<glyph unicode="&#x2002;" horiz-adv-x="924" />
<glyph unicode="&#x2003;" horiz-adv-x="1849" />
<glyph unicode="&#x2004;" horiz-adv-x="616" />
<glyph unicode="&#x2005;" horiz-adv-x="462" />
<glyph unicode="&#x2006;" horiz-adv-x="308" />
<glyph unicode="&#x2007;" horiz-adv-x="308" />
<glyph unicode="&#x2008;" horiz-adv-x="231" />
<glyph unicode="&#x2009;" horiz-adv-x="369" />
<glyph unicode="&#x200a;" horiz-adv-x="102" />
<glyph unicode="&#x2010;" horiz-adv-x="747" d="M90 569l31 74h567l-31 -74h-567z" />
<glyph unicode="&#x2011;" horiz-adv-x="747" d="M90 569l31 74h567l-31 -74h-567z" />
<glyph unicode="&#x2012;" horiz-adv-x="747" d="M90 569l31 74h567l-31 -74h-567z" />
<glyph unicode="&#x2013;" horiz-adv-x="1024" d="M0 530l14 74h1024l-14 -74h-1024z" />
<glyph unicode="&#x2014;" horiz-adv-x="2048" d="M0 530l14 74h2048l-14 -74h-2048z" />
<glyph unicode="&#x2018;" horiz-adv-x="317" d="M203 1090q0 37 41 102l155 250h64l-156 -277q31 -9 31 -61q0 -80 -74 -80q-61 0 -61 66z" />
<glyph unicode="&#x2019;" horiz-adv-x="317" d="M131 1034l156 277q-31 9 -31 61q0 80 74 80q61 0 61 -66q0 -37 -41 -102l-155 -250h-64z" />
<glyph unicode="&#x201a;" horiz-adv-x="309" d="M-127 -260l156 276q-31 9 -31 62q0 80 74 80q61 0 61 -66q0 -37 -41 -102l-155 -250h-64z" />
<glyph unicode="&#x201c;" horiz-adv-x="604" d="M203 1090q0 37 41 102l155 250h64l-156 -277q31 -9 31 -61q0 -80 -74 -80q-61 0 -61 66zM492 1090q0 38 40 102l156 250h64l-156 -277q31 -9 31 -61q0 -80 -74 -80q-61 0 -61 66z" />
<glyph unicode="&#x201d;" horiz-adv-x="604" d="M131 1034l156 277q-31 9 -31 61q0 80 74 80q61 0 61 -66q0 -37 -41 -102l-155 -250h-64zM420 1034l155 277q-30 9 -30 61q0 80 73 80q62 0 62 -66q0 -37 -41 -102l-156 -250h-63z" />
<glyph unicode="&#x201e;" horiz-adv-x="598" d="M-125 -258l156 276q-31 9 -31 62q0 80 74 80q61 0 61 -66q0 -37 -41 -102l-155 -250h-64zM162 -258l155 276q-30 9 -30 62q0 80 73 80q62 0 62 -66q0 -37 -41 -102l-156 -250h-63z" />
<glyph unicode="&#x2022;" horiz-adv-x="643" d="M156 573q0 90 41 133.5t135 43.5t135 -43.5t41 -133.5t-40.5 -133t-135.5 -43t-135.5 43t-40.5 133z" />
<glyph unicode="&#x2026;" horiz-adv-x="2048" d="M180 59q0 88 80 88q64 0 64 -67q0 -88 -80 -88q-64 0 -64 67zM877 59q0 88 79 88q64 0 64 -67q0 -88 -80 -88q-63 0 -63 67zM1550 59q0 88 80 88q64 0 64 -67q0 -88 -80 -88q-64 0 -64 67z" />
<glyph unicode="&#x202f;" horiz-adv-x="369" />
<glyph unicode="&#x2039;" horiz-adv-x="620" d="M55 496l15 69l524 348l-21 -102l-432 -287l320 -288l-17 -89z" />
<glyph unicode="&#x203a;" horiz-adv-x="620" d="M29 147l20 103l432 287l-319 288l16 88l389 -348l-14 -69z" />
<glyph unicode="&#x205f;" horiz-adv-x="462" />
<glyph unicode="&#x20ac;" d="M84 492l29 71h166l24 154q5 27 14 67t11 50h-176l28 71h166q33 115 76.5 198t98.5 139t128.5 89.5t157.5 47.5t194 14q171 0 213 -4l-30 -76q-118 4 -197 4q-118 0 -198 -16t-151 -60t-121 -126t-89 -210h608l-28 -71h-598q-13 -50 -27 -119q-11 -56 -25 -152h611 l-29 -71h-590q-2 -23 -2 -64q0 -198 100.5 -277t327.5 -79q157 0 209 4l-31 -76q-42 -4 -182 -4q-139 0 -237 28t-155.5 84.5t-83.5 133.5t-26 182q0 45 2 68h-188z" />
<glyph unicode="&#x2122;" horiz-adv-x="1675" d="M178 1389l29 69h620l-28 -69h-267l-135 -693h-71l135 693h-283zM834 696l147 762h72l198 -459l367 459h76l-148 -762h-65l127 658l-344 -424h-54l-182 426l-129 -660h-65z" />
<glyph unicode="&#x25fc;" horiz-adv-x="1054" d="M0 0v1055h1055v-1055h-1055z" />
</font>
</defs>
</svg>
