<?xml version="1.0" standalone="no"?>
<!DOCTYPE svg PUBLIC "-//W3C//DTD SVG 1.1//EN" "http://www.w3.org/Graphics/SVG/1.1/DTD/svg11.dtd" >
<svg xmlns="http://www.w3.org/2000/svg">
<metadata></metadata>
<defs>
<font id="prometoitalic" horiz-adv-x="1218" >
<font-face units-per-em="2048" ascent="1638" descent="-410" />
<missing-glyph horiz-adv-x="512" />
<glyph unicode="&#xfb01;" horiz-adv-x="1064" d="M16 0l217 1118q41 222 167.5 315t390.5 93q44 0 156 -2t143 -2l-62 -179q-46 0 -139.5 2.5t-116.5 2.5q-88 0 -140.5 -9t-93 -37t-62 -77t-36.5 -133l-6 -33h301l-67 -178h-269l-172 -881h-211zM633 0l205 1059h211l-205 -1059h-211z" />
<glyph unicode="&#xfb02;" horiz-adv-x="1114" d="M16 0l217 1118q42 217 154 312.5t334 95.5q91 0 153 -4l-61 -179q-83 5 -111 5q-66 0 -106.5 -9.5t-72 -38.5t-50 -77.5t-33.5 -130.5l-6 -33h305l-67 -178h-273l-172 -881h-211zM682 0l295 1522h211l-295 -1522h-211z" />
<glyph unicode="&#xfb03;" horiz-adv-x="1714" d="M16 0l217 1118q40 217 158.5 312.5t353.5 95.5q94 0 160 -4l-61 -179q-88 5 -119 5q-74 0 -117.5 -9t-77.5 -37.5t-53.5 -77.5t-36.5 -134l-6 -31h336l-68 -178h-303l-172 -881h-211zM666 0l217 1118q41 222 167 315t390 93q44 0 156 -2t143 -2l-62 -179 q-46 0 -139.5 2.5t-116.5 2.5q-88 0 -140 -9t-92.5 -37t-62 -77t-36.5 -133l-7 -33h301l-67 -178h-268l-172 -881h-211zM1282 0l205 1059h211l-205 -1059h-211z" />
<glyph unicode="&#xfb04;" horiz-adv-x="1763" d="M16 0l217 1118q40 217 158.5 312.5t353.5 95.5q94 0 160 -4l-61 -179q-88 5 -119 5q-74 0 -117.5 -9t-77.5 -37.5t-53.5 -77.5t-36.5 -134l-6 -31h336l-68 -178h-303l-172 -881h-211zM666 0l217 1118q42 217 153.5 312.5t333.5 95.5q92 0 154 -4l-62 -179q-82 5 -110 5 q-66 0 -106.5 -9.5t-72 -38.5t-50 -77.5t-33.5 -130.5l-7 -33h306l-68 -178h-272l-172 -881h-211zM1331 0l295 1522h211l-295 -1522h-211z" />
<glyph horiz-adv-x="0" />
<glyph horiz-adv-x="682" />
<glyph horiz-adv-x="0" />
<glyph horiz-adv-x="0" />
<glyph unicode="&#x9;" horiz-adv-x="512" />
<glyph unicode=" "  horiz-adv-x="512" />
<glyph unicode="&#x09;" horiz-adv-x="512" />
<glyph unicode="&#xa0;" horiz-adv-x="512" />
<glyph unicode="!" horiz-adv-x="489" d="M27 98q0 91 36 130.5t121 39.5q125 0 125 -112q0 -91 -36 -130.5t-121 -39.5q-125 0 -125 112zM127 410l59 415q1 7 33 183l88 452h221l-90 -452q-22 -115 -41 -183l-100 -415h-170z" />
<glyph unicode="&#x22;" horiz-adv-x="733" d="M182 997l29 248q1 5 6.5 54t11.5 79l27 144h221l-26 -144q-16 -90 -31 -133l-68 -248h-170zM567 997l29 248q1 5 6.5 54t11.5 79l27 144h221l-26 -144q-16 -90 -31 -133l-68 -248h-170z" />
<glyph unicode="#" horiz-adv-x="1349" d="M39 348l65 170h189l123 356h-197l66 170h188l119 349h190l-118 -349h319l119 349h190l-118 -349h204l-65 -170h-197l-123 -356h205l-65 -170h-197l-119 -348h-190l118 348h-319l-119 -348h-190l119 348h-197zM483 518h320l123 356h-320z" />
<glyph unicode="$" d="M45 4l66 174q37 0 167.5 -2t172.5 -2l90 461l-17 6q-166 49 -243.5 130.5t-77.5 203.5q0 37 10 92q31 165 148.5 240.5t326.5 83.5l31 161h160l-33 -159q29 0 307 -4l-66 -175q-260 5 -274 5l-84 -433l14 -4q75 -22 129.5 -48t100.5 -65t69 -95t23 -128q0 -55 -10 -104 q-32 -162 -145.5 -243.5t-331.5 -94.5l-39 -201h-160l37 197q-55 0 -197 2t-174 2zM408 1001q0 -66 43.5 -106.5t126.5 -65.5l75 385q-115 -7 -166.5 -42t-70.5 -111q-8 -27 -8 -60zM610 178q121 12 174.5 53.5t71.5 130.5q6 30 6 58q0 69 -42 107t-130 65z" />
<glyph unicode="%" horiz-adv-x="1912" d="M143 848q0 36 11 100l18 101q35 189 128.5 276.5t254.5 87.5q156 0 233.5 -73.5t77.5 -202.5q0 -41 -10 -99l-18 -100q-36 -183 -129.5 -274t-257.5 -91q-149 0 -228.5 71t-79.5 204zM322 0l1134 1393h203l-1135 -1393h-202zM324 854q0 -74 34 -101.5t103 -27.5 q81 0 124.5 45t71.5 180l17 84q12 62 12 101q0 74 -33 100.5t-104 26.5q-82 0 -125.5 -45t-71.5 -181l-16 -84q-12 -58 -12 -98zM1110 258q0 42 10 100l19 101q35 189 128.5 276.5t254.5 87.5q156 0 233.5 -73.5t77.5 -202.5q0 -40 -10 -98l-19 -101q-36 -183 -129.5 -273.5 t-257.5 -90.5q-149 0 -228 70.5t-79 203.5zM1290 264q0 -74 34 -101.5t103 -27.5q54 0 88 16t62 66t47 143l16 84q13 67 13 101q0 74 -33 100.5t-104 26.5q-82 0 -125.5 -45t-71.5 -181l-16 -84q-13 -63 -13 -98z" />
<glyph unicode="&#x26;" horiz-adv-x="1216" d="M31 332q0 63 14 123q27 132 91 211t175 114q-123 58 -123 234q0 52 11 106q32 184 155 264t373 80q198 0 358 -4l-69 -180q-164 4 -260 4q-190 0 -259.5 -34.5t-93.5 -145.5q-10 -41 -10 -84q0 -89 60.5 -124.5t193.5 -35.5h623l-70 -182h-115l-98 -508 q-20 -95 -66 -131.5t-155 -48.5q-92 -10 -197 -10q-94 0 -170.5 9.5t-146.5 34t-117.5 63t-75.5 101t-28 144.5zM248 362q0 -60 23 -101t69 -63t103.5 -31t138.5 -9q112 0 200 12l99 508h-265q-172 0 -249.5 -44t-104.5 -169q-14 -52 -14 -103z" />
<glyph unicode="'" horiz-adv-x="348" d="M182 997l29 248q1 5 6.5 54t11.5 79l27 144h221l-26 -144q-16 -90 -31 -133l-68 -248h-170z" />
<glyph unicode="(" horiz-adv-x="729" d="M31 29q0 122 37 317l65 340q38 194 83 329t96 222.5t120 136.5t143.5 67.5t178.5 18.5h112l-69 -180h-52q-35 0 -59 -1.5t-52.5 -6t-48 -14t-42.5 -25t-40 -38.5t-36.5 -56t-35.5 -75.5t-33.5 -98.5t-34 -125t-33.5 -154l-68 -346q-35 -172 -35 -291q0 -72 15 -117.5 t48 -69.5t74.5 -32t106.5 -8h53l-67 -180h-19q-221 0 -314 96.5t-93 290.5z" />
<glyph unicode=")" horiz-adv-x="729" d="M-135 -358l69 180h52q39 0 64.5 2t57 8t52 18.5t45.5 33t43.5 52t39 75.5t38.5 102.5t37 133.5t38 169l68 346q35 172 35 291q0 72 -15 117.5t-48 69.5t-74.5 32t-106.5 8h-53l67 180h19q221 0 314 -96.5t93 -290.5q0 -128 -36 -317l-66 -340q-37 -194 -82 -329.5 t-96 -222.5t-120.5 -136t-144 -67.5t-178.5 -18.5h-112z" />
<glyph unicode="*" horiz-adv-x="870" d="M145 1124l82 164l240 -98l47 270h176l-63 -272l268 100l37 -168l-287 -76l137 -233l-161 -86l-111 231l-207 -235l-129 106l215 224z" />
<glyph unicode="+" d="M166 608l35 178h360l70 367h194l-69 -367h362l-35 -178h-362l-72 -366h-194l71 366h-360z" />
<glyph unicode="," horiz-adv-x="423" d="M-158 -336l191 348q-39 30 -39 88q0 91 36.5 130.5t121.5 39.5q124 0 124 -112q0 -55 -23 -102t-95 -150l-170 -242h-146z" />
<glyph unicode="-" horiz-adv-x="706" d="M41 492l74 192h581l-73 -192h-582z" />
<glyph unicode="." horiz-adv-x="423" d="M-6 98q0 91 36.5 130.5t121.5 39.5q124 0 124 -112q0 -91 -36 -130.5t-121 -39.5q-125 0 -125 112z" />
<glyph unicode="/" horiz-adv-x="829" d="M-61 0l811 1458h219l-811 -1458h-219z" />
<glyph unicode="0" horiz-adv-x="1239" d="M92 385q0 98 25 229l35 181q32 168 77 282.5t115 194.5t169.5 116.5t236.5 36.5q230 0 338 -105.5t108 -313.5q0 -97 -25 -228l-34 -180q-32 -169 -77 -283.5t-115 -194.5t-169.5 -116.5t-236.5 -36.5q-233 0 -340 105t-107 313zM313 379q0 -130 58 -179.5t184 -49.5 q81 0 132 17t94.5 68t73 139.5t58.5 235.5l33 168q29 155 29 236q0 130 -58 179.5t-184 49.5q-81 0 -132.5 -17t-94.5 -68.5t-72.5 -140t-58.5 -235.5l-33 -168q-29 -155 -29 -235z" />
<glyph unicode="1" horiz-adv-x="878" d="M-6 0l65 172h217l203 1049h-274l67 172h459l-235 -1221h256l-66 -172h-692z" />
<glyph unicode="2" horiz-adv-x="1105" d="M31 0l43 223q28 154 70 243t113.5 147t201.5 112l190 80q130 51 171.5 105t41.5 159q0 76 -48 109.5t-165 33.5q-256 0 -403 -6l69 183q229 8 344 8q424 0 424 -305q0 -56 -12 -117q-29 -132 -105.5 -207t-240.5 -143l-197 -80q-63 -25 -102 -50t-65 -63.5t-40.5 -81.5 t-29.5 -117l-10 -49h675l-69 -184h-856z" />
<glyph unicode="3" horiz-adv-x="1046" d="M-63 0l69 184q43 0 184.5 -2t225.5 -2q134 0 201.5 50.5t84.5 170.5q1 8 2 20t2 20.5t1 15.5q0 91 -52 128.5t-161 37.5h-349l72 184h315q116 0 173.5 46.5t74.5 156.5q2 16 2 45q0 87 -52.5 122t-158.5 35q-177 0 -395 -4l72 185q250 4 321 4q220 0 327.5 -76.5 t107.5 -241.5q0 -53 -5 -75q-13 -109 -74 -182.5t-161 -106.5q166 -59 166 -266q0 -53 -4 -70q-20 -133 -79 -214.5t-181 -125t-318 -43.5q-161 0 -411 4z" />
<glyph unicode="4" horiz-adv-x="1183" d="M47 279l23 161l649 953h221l-637 -938h416l88 450l219 39l-96 -489h180l-68 -176h-147l-53 -279h-211l53 279h-637z" />
<glyph unicode="5" horiz-adv-x="1044" d="M2 0l70 184q152 -4 340 -4q145 0 219 58.5t92 195.5q4 46 4 62q0 106 -59.5 149t-186.5 43h-346l137 705h770l-69 -185h-537l-67 -344h159q426 0 426 -346q0 -69 -14 -135q-44 -209 -176 -298t-399 -89q-258 0 -363 4z" />
<glyph unicode="6" horiz-adv-x="1138" d="M94 350q0 70 15 152l84 430q95 465 581 465q239 0 332 -4l-72 -185q-110 4 -268 4q-55 0 -97.5 -6t-88 -23.5t-78.5 -48t-60 -81.5t-41 -121l-20 -103q86 86 276 86q191 0 288 -99t97 -277q0 -51 -10 -119q-72 -453 -516 -453q-218 0 -320 102.5t-102 280.5zM301 350 q0 -110 54 -161.5t171 -51.5q129 0 195.5 58t93.5 215q12 68 12 122q0 111 -53 162t-170 51q-135 0 -199.5 -57t-91.5 -215q-12 -67 -12 -123z" />
<glyph unicode="7" horiz-adv-x="1075" d="M162 0l680 1208h-680l71 185h873l-16 -142l-695 -1251h-233z" />
<glyph unicode="8" horiz-adv-x="1150" d="M43 309q0 39 6 80q24 149 97.5 232t195.5 120q-141 66 -141 248q0 14 4 60q18 171 149 273.5t359 102.5q206 0 320 -82t114 -235q0 -47 -8 -88q-24 -126 -88.5 -197.5t-171.5 -101.5q170 -82 170 -272q0 -27 -11 -99q-34 -180 -165 -281.5t-369 -101.5q-229 0 -345 89.5 t-116 252.5zM262 330q0 -99 62 -146t196 -47q124 0 199.5 53t99.5 177q10 55 10 90q0 98 -62.5 144t-197.5 46q-58 0 -102 -9.5t-84.5 -33.5t-68.5 -70.5t-42 -115.5q-10 -55 -10 -88zM408 977q0 -94 60 -132t177 -38q116 0 188 44.5t95 162.5q10 52 10 80q0 90 -59 131 t-185 41q-53 0 -94.5 -9t-79.5 -30.5t-64 -63.5t-38 -104q-10 -52 -10 -82z" />
<glyph unicode="9" horiz-adv-x="1138" d="M80 0l72 184q110 -4 186 -4q81 0 135 5t104 20.5t82.5 41t61.5 69.5t48.5 103.5t37.5 145.5q-88 -88 -279 -88q-187 0 -286 101.5t-99 281.5q0 41 11 113q17 107 56.5 189t89 131t114.5 79.5t126 41.5t130 11q214 0 317 -105.5t103 -287.5q0 -58 -17 -158l-51 -268 q-30 -152 -70.5 -256.5t-94.5 -174.5t-132 -109t-169.5 -54.5t-221.5 -15.5q-195 0 -254 4zM358 858q0 -111 55 -161t169 -50q127 0 194.5 62t95.5 221q13 70 13 114q0 111 -55.5 161t-170.5 50q-122 0 -191 -62t-97 -220q-13 -70 -13 -115z" />
<glyph unicode=":" horiz-adv-x="423" d="M-6 98q0 91 36.5 130.5t121.5 39.5q124 0 124 -112q0 -91 -36 -130.5t-121 -39.5q-125 0 -125 112zM150 903q0 91 36 130.5t121 39.5q125 0 125 -112q0 -91 -36.5 -130.5t-121.5 -39.5q-124 0 -124 112z" />
<glyph unicode=";" horiz-adv-x="423" d="M-158 -336l191 348q-39 30 -39 88q0 91 36.5 130.5t121.5 39.5q124 0 124 -112q0 -55 -23 -102t-95 -150l-170 -242h-146zM150 903q0 91 36 130.5t121 39.5q125 0 125 -112q0 -91 -36.5 -130.5t-121.5 -39.5q-124 0 -124 112z" />
<glyph unicode="&#x3c;" d="M186 608l35 178l946 363l-39 -199l-716 -262l614 -262l-35 -180z" />
<glyph unicode="=" d="M152 410l34 178h871l-35 -178h-870zM227 807l35 178h871l-35 -178h-871z" />
<glyph unicode="&#x3e;" d="M115 246l39 198l716 263l-614 262l35 180l805 -363l-35 -178z" />
<glyph unicode="?" horiz-adv-x="960" d="M137 98q0 91 36.5 130.5t121.5 39.5q125 0 125 -112q0 -91 -36.5 -130.5t-121.5 -39.5q-125 0 -125 112zM166 1276l70 180q182 10 325 10q222 0 329 -78.5t107 -240.5q0 -41 -6 -90q-24 -149 -107.5 -229.5t-258.5 -145.5q-45 -18 -64 -26t-44.5 -23t-34 -26.5t-21 -34 t-18 -48t-13.5 -67.5l-10 -54h-207l18 97q29 147 86 211.5t213 122.5q132 50 179.5 93t64.5 130q8 36 8 80q0 79 -51.5 112t-179.5 33q-229 0 -385 -6z" />
<glyph unicode="@" horiz-adv-x="1456" d="M41 111q0 129 35 319q32 172 83.5 298t117.5 207.5t155 130t186 68t222 19.5q546 0 546 -375q0 -65 -14 -131l-84 -428q-21 -92 -60 -125t-132 -45q-110 -14 -226 -14q-204 0 -299.5 64t-95.5 204q0 45 17 125q64 287 409 287q92 0 166 -21t109 -59l4 22q10 65 10 99 q0 118 -85.5 169.5t-285.5 51.5q-76 0 -132.5 -7.5t-112 -29t-96.5 -59.5t-78.5 -98t-67 -146t-53.5 -203q-41 -187 -41 -309q0 -207 126.5 -292t438.5 -85q223 0 307 6l-70 -176q-123 -8 -280 -8q-381 0 -550 126t-169 415zM678 332q0 -74 49 -97.5t168 -23.5q81 0 199 12 l26 131q6 34 6 60q0 72 -51 101.5t-164 29.5q-111 0 -160.5 -31.5t-66.5 -120.5q-6 -37 -6 -61z" />
<glyph unicode="A" horiz-adv-x="1413" d="M-72 0l867 1458h213l270 -1458h-217l-68 418h-600l-239 -418h-226zM498 602h465l-101 631z" />
<glyph unicode="B" horiz-adv-x="1253" d="M45 0l285 1458h473q440 0 440 -325q0 -48 -8 -89q-17 -103 -75 -176.5t-146 -109.5q160 -71 160 -283q0 -46 -9 -98q-62 -377 -565 -377h-555zM291 188h321q167 0 240 45.5t98 165.5q8 41 8 84q0 102 -61.5 142.5t-194.5 40.5h-317zM422 854h311q143 0 209 41.5t86 146.5 q6 27 6 68q0 88 -55 124t-170 36h-307z" />
<glyph unicode="C" horiz-adv-x="1118" d="M109 483q0 117 28 269q32 167 83.5 289.5t117.5 203t157.5 128.5t194 67.5t236.5 19.5q154 0 291 -6l-74 -192q-92 6 -213 6q-96 0 -164.5 -8.5t-127.5 -32t-99 -60.5t-74 -99t-58 -141.5t-47 -193.5q-30 -167 -30 -252q0 -163 88 -225.5t303 -62.5q58 0 143 2t135 2 l-73 -193q-65 -4 -244 -4q-308 0 -440.5 121.5t-132.5 361.5z" />
<glyph unicode="D" horiz-adv-x="1384" d="M45 0l285 1458h424q301 0 449.5 -122t148.5 -386q0 -102 -25 -239q-31 -168 -84.5 -292.5t-122.5 -204t-164 -128t-198 -67.5t-234 -19h-479zM297 193h250q83 0 142.5 7t119 27.5t101.5 57.5t80.5 96t66.5 144.5t49 201.5q24 132 24 225q0 95 -24 157.5t-75 96.5 t-117.5 47t-165.5 13h-242z" />
<glyph unicode="E" horiz-adv-x="1228" d="M45 0l283 1458h975l-74 -192h-727l-82 -420h713l-74 -193h-676l-90 -460h805l-74 -193h-979z" />
<glyph unicode="F" horiz-adv-x="1138" d="M45 0l283 1458h948l-74 -192h-700l-84 -432h667l-73 -193h-631l-125 -641h-211z" />
<glyph unicode="G" horiz-adv-x="1312" d="M109 481q0 129 30 279q39 202 103.5 337.5t164.5 215.5t227 113.5t304 33.5q244 0 375 -6l-74 -192q-96 6 -301 6q-97 0 -166.5 -8.5t-129.5 -32t-100.5 -61t-75 -99t-59 -141t-47.5 -193.5q-30 -167 -30 -252q0 -163 89.5 -225.5t307.5 -62.5q113 0 193 2l75 385h-276 l69 184h457l-108 -565q-21 -103 -60.5 -142t-122.5 -47q-127 -10 -272 -10q-159 0 -271.5 33t-177.5 97.5t-94.5 150t-29.5 200.5z" />
<glyph unicode="H" horiz-adv-x="1433" d="M45 0l283 1458h211l-121 -616h717l120 616h211l-282 -1458h-211l125 649h-717l-125 -649h-211z" />
<glyph unicode="I" horiz-adv-x="505" d="M45 0l283 1458h211l-283 -1458h-211z" />
<glyph unicode="J" horiz-adv-x="937" d="M-41 2l72 191q108 -3 196 -3q72 0 117 5.5t84.5 22t63.5 49t43 82.5t34 128l191 981h211l-189 -971q-39 -196 -99.5 -298.5t-167 -146.5t-292.5 -44q-170 0 -264 4z" />
<glyph unicode="K" horiz-adv-x="1267" d="M45 0l283 1458h211l-125 -639l714 639h254l-782 -710l582 -748h-271l-524 676l-131 -676h-211z" />
<glyph unicode="L" horiz-adv-x="1112" d="M45 0l283 1458h211l-246 -1265h711l-74 -193h-885z" />
<glyph unicode="M" horiz-adv-x="1656" d="M45 0l283 1458h229l295 -850l616 850h224l-285 -1458h-211l215 1098l-491 -682h-197l-248 710l-219 -1126h-211z" />
<glyph unicode="N" horiz-adv-x="1427" d="M45 0l283 1458h202l504 -1112l215 1112h211l-282 -1458h-195l-510 1124l-217 -1124h-211z" />
<glyph unicode="O" horiz-adv-x="1425" d="M106 469q0 114 29 285q36 210 98 353.5t154 229.5t207 123t270 37q268 0 399.5 -118.5t131.5 -387.5q0 -113 -29 -284q-29 -168 -75 -293.5t-108 -211.5t-145 -139t-180.5 -76.5t-220.5 -23.5q-268 0 -399.5 118.5t-131.5 387.5zM328 453q0 -92 19.5 -152t63 -93 t100 -45.5t142.5 -12.5q89 0 151 14t116 49t92.5 100t70 163t58.5 241q33 174 33 291q0 92 -20 152t-63.5 93t-100 45.5t-142.5 12.5q-89 0 -151 -14t-116 -49.5t-92.5 -100.5t-70 -163t-58.5 -241q-32 -168 -32 -290z" />
<glyph unicode="P" horiz-adv-x="1267" d="M45 0l283 1458h454q496 0 496 -362q0 -44 -10 -109q-16 -97 -53 -170t-89 -120t-123.5 -76t-150 -40.5t-176.5 -11.5h-309l-111 -569h-211zM403 762h293q180 0 256 47.5t101 175.5q10 65 10 92q0 103 -65.5 146t-206.5 43h-289z" />
<glyph unicode="Q" horiz-adv-x="1425" d="M106 467q0 111 29 287q36 210 98 353.5t154 229.5t207 123t270 37q268 0 399.5 -118.5t131.5 -387.5q0 -113 -29 -284q-61 -333 -183.5 -502t-328.5 -219l262 -254h-289l-233 233q-245 8 -366.5 126.5t-121.5 375.5zM328 453q0 -92 19.5 -152t63 -93t100 -45.5 t142.5 -12.5q89 0 151 14t116 49t92.5 100t70 163t58.5 241q33 174 33 291q0 92 -20 152t-63.5 93t-100 45.5t-142.5 12.5q-89 0 -151 -14t-116 -49.5t-92.5 -100.5t-70 -163t-58.5 -241q-32 -168 -32 -290z" />
<glyph unicode="R" horiz-adv-x="1296" d="M45 0l281 1458h454q236 0 366 -88t130 -274q0 -44 -10 -109q-31 -176 -126 -270t-247 -127l264 -590h-237l-242 569h-313l-111 -569h-209zM401 762h293q180 0 256 47.5t101 175.5q10 65 10 92q0 103 -66 146t-207 43h-288z" />
<glyph unicode="S" horiz-adv-x="1159" d="M-10 0l73 193q58 0 218.5 -2.5t181.5 -2.5q171 0 259 40.5t107 148.5q7 35 7 57q0 68 -40.5 108t-133.5 70l-168 54q-167 53 -238.5 132.5t-71.5 200.5q0 49 13 119q35 184 180.5 264t394.5 80q252 0 412 -4l-74 -190q-82 0 -196.5 1t-196.5 1q-142 0 -218 -42.5 t-93 -135.5q-7 -44 -7 -64q0 -65 35.5 -100t122.5 -62l188 -59q162 -52 234 -135.5t72 -202.5q0 -48 -11 -102q-17 -91 -54 -157t-87.5 -107t-124.5 -65t-153.5 -33t-186.5 -9q-38 0 -213 2t-231 2z" />
<glyph unicode="T" horiz-adv-x="1310" d="M184 1266l74 192h1192l-74 -192h-467l-247 -1266h-218l248 1266h-508z" />
<glyph unicode="U" horiz-adv-x="1372" d="M115 369q0 60 14 135l184 954h211l-182 -950q-14 -75 -14 -127q0 -127 75 -179t238 -52q118 0 190 30t120.5 108.5t74.5 221.5l182 948h211l-190 -989q-57 -275 -203.5 -390.5t-398.5 -115.5q-245 0 -378.5 102.5t-133.5 303.5z" />
<glyph unicode="V" horiz-adv-x="1318" d="M213 1458h221l162 -1204l645 1204h223l-802 -1458h-230z" />
<glyph unicode="W" horiz-adv-x="1820" d="M233 1458h211v-1184l549 1184h199l68 -1171l477 1171h209l-623 -1458h-223l-68 1159l-536 -1159h-224z" />
<glyph unicode="X" horiz-adv-x="1277" d="M-96 0l659 782l-334 676h222l260 -549l442 549h238l-586 -710l358 -748h-223l-283 621l-516 -621h-237z" />
<glyph unicode="Y" horiz-adv-x="1306" d="M201 1458h221l258 -667l541 667h241l-698 -848l-119 -610h-215l119 608z" />
<glyph unicode="Z" horiz-adv-x="1228" d="M-16 0l34 184l975 1082h-760l74 192h977l-35 -184l-981 -1081h828l-74 -193h-1038z" />
<glyph unicode="[" horiz-adv-x="679" d="M-25 -358l353 1816h477l-70 -184h-246l-282 -1448h280l-69 -184h-443z" />
<glyph unicode="\" horiz-adv-x="829" d="M221 1458h203l262 -1458h-203z" />
<glyph unicode="]" horiz-adv-x="679" d="M-125 -358l70 184h245l283 1448h-280l69 184h443l-353 -1816h-477z" />
<glyph unicode="^" d="M236 823l452 635h195l217 -635h-199l-145 439l-307 -439h-213z" />
<glyph unicode="_" horiz-adv-x="1026" d="M-174 -379l37 191h1024l-37 -191h-1024z" />
<glyph unicode="`" horiz-adv-x="1024" d="M469 1485h227l168 -258h-198z" />
<glyph unicode="a" horiz-adv-x="1099" d="M43 260q0 59 14 125q66 295 430 295q235 0 310 -86l8 41q12 55 12 98q0 81 -53 116.5t-182 35.5q-250 0 -357 -4l68 178q61 4 307 4q218 0 315 -78t97 -231q0 -41 -15 -129l-86 -455q-21 -93 -63.5 -127t-140.5 -47q-98 -14 -252 -14q-212 0 -312 66.5t-100 211.5z M244 285q0 -81 53.5 -107t183.5 -26q106 0 232 14l28 141q7 40 7 62q0 78 -57.5 110.5t-184.5 32.5q-124 0 -181.5 -35t-74.5 -127q-6 -38 -6 -65z" />
<glyph unicode="b" horiz-adv-x="1196" d="M100 350q0 77 23 199l188 973h211l-100 -514q90 84 283 84q201 0 306 -94.5t105 -299.5q0 -101 -22 -211q-54 -274 -184 -397t-373 -123q-220 0 -328.5 92t-108.5 291zM313 362q0 -121 54 -170t178 -49q79 0 129.5 13.5t90.5 51t65.5 100.5t48.5 167q28 137 28 215 q0 128 -60.5 176.5t-187.5 48.5q-148 0 -213.5 -69t-105.5 -268q-27 -126 -27 -216z" />
<glyph unicode="c" horiz-adv-x="921" d="M78 365q0 84 22 200q24 123 62.5 210t89 143t123.5 88t155 44.5t195 12.5q91 0 201 -4l-68 -176q-86 4 -164 4q-99 0 -159 -12.5t-105 -50.5t-70.5 -98.5t-46.5 -164.5q-22 -119 -22 -186q0 -117 57.5 -160t190.5 -43q169 0 260 4l-68 -176q-29 0 -99 -2t-91 -2 q-246 0 -354.5 92t-108.5 277z" />
<glyph unicode="d" horiz-adv-x="1175" d="M82 393q0 96 20 193q23 118 61.5 206.5t86 145t110.5 91.5t128.5 49t144.5 14q221 0 301 -113l104 543h211l-262 -1352q-20 -94 -64 -131t-151 -49q-107 -8 -207 -8q-112 0 -196.5 20.5t-151 67t-101 128t-34.5 195.5zM295 401q0 -139 68.5 -191t207.5 -52q117 0 205 14 l86 430q12 62 12 111q0 112 -62 157t-181 45q-139 0 -206 -67t-108 -256q-22 -104 -22 -191z" />
<glyph unicode="e" horiz-adv-x="1073" d="M78 371q0 83 22 196q26 127 69.5 221.5t95 152t118.5 92t131 47t141 12.5q195 0 290 -73.5t95 -203.5q0 -45 -12 -98q-33 -144 -140.5 -210.5t-332.5 -66.5h-266q-4 -36 -4 -61q0 -107 54.5 -157t180.5 -50q225 0 352 10l-67 -176q-115 -10 -303 -10q-117 0 -200.5 27 t-131.5 78.5t-70 118t-22 151.5zM317 604h238q141 0 193.5 26t74.5 99q13 44 13 74q0 59 -45.5 89t-147.5 30q-138 0 -212.5 -71t-113.5 -247z" />
<glyph unicode="f" horiz-adv-x="700" d="M16 0l217 1118q40 218 164 313t379 95q100 0 170 -4l-61 -179q-97 5 -131 5q-161 0 -223 -49t-91 -207l-6 -33h377l-68 -178h-344l-172 -881h-211z" />
<glyph unicode="g" horiz-adv-x="1198" d="M80 -358l70 182q131 -8 321 -8q139 0 213 63t98 209l6 35q-89 -86 -292 -86q-408 0 -408 379q0 84 21 186q54 264 184 377t373 113q220 0 327 -87.5t107 -277.5q0 -84 -21 -186l-86 -443q-50 -244 -170.5 -352t-355.5 -108q-289 0 -387 4zM299 428q0 -120 56.5 -167.5 t183.5 -47.5q77 0 126.5 12t90 46t65.5 93.5t43 155.5q23 125 23 189q0 114 -54.5 160t-181.5 46q-152 0 -222.5 -62t-106.5 -239q-23 -122 -23 -186z" />
<glyph unicode="h" horiz-adv-x="1163" d="M16 0l297 1522h211l-100 -512q82 82 287 82q165 0 267.5 -81.5t102.5 -242.5q0 -52 -12 -111l-127 -657h-211l127 657q10 55 10 88q0 91 -50 129.5t-152 38.5q-154 0 -218.5 -52t-93.5 -206l-127 -655h-211z" />
<glyph unicode="i" horiz-adv-x="448" d="M16 0l205 1059h211l-205 -1059h-211zM240 1339q0 160 155 160q115 0 115 -102q0 -84 -38 -122t-118 -38q-114 0 -114 102z" />
<glyph unicode="j" horiz-adv-x="448" d="M-354 -358l67 178q33 -2 84 -2q110 0 156.5 48t75.5 191l192 1002h211l-199 -1030q-22 -115 -60.5 -192.5t-95 -120t-122.5 -59.5t-156 -17q-114 0 -153 2zM240 1339q0 160 155 160q115 0 115 -102q0 -84 -38 -122t-118 -38q-114 0 -114 102z" />
<glyph unicode="k" horiz-adv-x="1083" d="M16 0l295 1522h211l-170 -879l504 416h268l-598 -490l455 -569h-252l-403 510l-99 -510h-211z" />
<glyph unicode="l" horiz-adv-x="448" d="M16 0l295 1522h211l-295 -1522h-211z" />
<glyph unicode="m" horiz-adv-x="1710" d="M16 0l134 688q41 208 152 306t304 98q228 0 318 -129q102 129 327 129q177 0 277 -80t100 -240q0 -54 -12 -115l-127 -657h-211l127 657q10 58 10 97q0 89 -44.5 124t-139.5 35q-113 0 -164.5 -56t-81.5 -202l-127 -655h-211l127 657q10 49 10 99q0 87 -45 122t-137 35 q-112 0 -165 -56.5t-83 -201.5l-127 -655h-211z" />
<glyph unicode="n" horiz-adv-x="1163" d="M16 0l134 686q40 220 164.5 313t355.5 93q194 0 301.5 -83.5t107.5 -246.5q0 -40 -10 -105l-127 -657h-211l127 657q10 55 10 88q0 90 -50 129t-152 39q-154 0 -218.5 -52t-93.5 -206l-127 -655h-211z" />
<glyph unicode="o" horiz-adv-x="1169" d="M78 354q0 83 22 209q53 280 183.5 404.5t380.5 124.5q213 0 320.5 -90t107.5 -297q0 -78 -23 -209q-53 -280 -183.5 -404.5t-379.5 -124.5q-213 0 -320.5 90t-107.5 297zM289 360q0 -121 56 -169t183 -48q80 0 132 16.5t89.5 59t60.5 104.5t44 164q27 149 27 211 q0 121 -56.5 169t-183.5 48q-80 0 -132 -16.5t-89.5 -59t-60.5 -104.5t-44 -164q-26 -143 -26 -211z" />
<glyph unicode="p" horiz-adv-x="1196" d="M-51 -358l182 948q29 145 77.5 244.5t118.5 155t152 79t191 23.5q228 0 338 -97t110 -299q0 -88 -26 -221q-56 -271 -182.5 -389.5t-344.5 -118.5q-239 0 -319 117l-86 -442h-211zM313 369q0 -127 61 -176.5t189 -49.5q72 0 119 13.5t85.5 51t65 103t48.5 170.5 q26 127 26 211q0 129 -58.5 176t-180.5 47q-72 0 -121 -14t-89.5 -51t-67.5 -101t-48 -165q-29 -142 -29 -215z" />
<glyph unicode="q" horiz-adv-x="1196" d="M80 360q0 101 22 211q54 274 184.5 397.5t372.5 123.5q223 0 330 -90.5t107 -286.5q0 -80 -23 -205l-168 -868h-211l78 407q-91 -82 -280 -82q-202 0 -307 94t-105 299zM289 369q0 -127 61 -176.5t189 -49.5q72 0 118.5 13.5t85.5 51t65 102.5t48 171q27 132 27 211 q0 129 -59 176t-181 47q-72 0 -121 -14t-89.5 -51t-67.5 -101t-48 -165q-28 -137 -28 -215z" />
<glyph unicode="r" horiz-adv-x="761" d="M18 0l123 641q20 106 52.5 180.5t75 121.5t104.5 74t129.5 36.5t161.5 9.5q96 0 159 -6l-67 -176q-86 4 -111 4q-101 0 -156 -21t-87 -76t-52 -165l-121 -623h-211z" />
<glyph unicode="s" horiz-adv-x="958" d="M-31 0l66 178q123 -4 336 -4q134 0 191 22t67 87q2 14 2 30q0 41 -25.5 65.5t-85.5 41.5l-198 57q-109 31 -164.5 89t-55.5 159q0 37 9 84q49 254 430 254q201 0 397 -8l-66 -176q-180 6 -352 6q-105 0 -151.5 -21.5t-59.5 -77.5q-4 -20 -4 -38q0 -34 21.5 -53t70.5 -33 l176 -52q147 -44 209 -104.5t62 -159.5q0 -37 -10 -92q-24 -128 -135.5 -193t-333.5 -65q-301 0 -396 4z" />
<glyph unicode="t" horiz-adv-x="753" d="M80 272q0 45 14 127l180 926l215 23l-55 -289h348l-67 -178h-316l-98 -506q-10 -65 -10 -88q0 -61 32 -87t107 -26h227l-65 -174h-189q-323 0 -323 272z" />
<glyph unicode="u" horiz-adv-x="1153" d="M84 295q0 54 10 106l127 658h211l-127 -658q-10 -65 -10 -90q0 -90 48.5 -128t150.5 -38q151 0 213.5 52t91.5 206l127 656h211l-133 -686q-44 -221 -165 -313.5t-352 -92.5q-190 0 -296.5 83t-106.5 245z" />
<glyph unicode="v" horiz-adv-x="1069" d="M135 1059h217l125 -840l447 840h217l-588 -1059h-221z" />
<glyph unicode="w" horiz-adv-x="1548" d="M145 1059h209l54 -821l370 821h199l45 -815l381 815h207l-531 -1059h-207l-45 793l-358 -793h-213z" />
<glyph unicode="x" horiz-adv-x="1056" d="M-74 0l492 569l-256 490h217l180 -371l299 371h229l-446 -522l281 -537h-217l-205 418l-344 -418h-230z" />
<glyph unicode="y" horiz-adv-x="1153" d="M37 -358l69 182q131 -8 318 -8q137 0 207.5 60.5t105.5 211.5l8 35q-89 -86 -266 -86q-183 0 -283 81.5t-100 239.5q0 46 13 113l112 588h211l-113 -588q-10 -65 -10 -90q0 -90 48.5 -128t150.5 -38q151 0 213.5 52t91.5 206l113 586h211l-185 -953 q-50 -253 -169.5 -360.5t-358.5 -107.5q-289 0 -387 4z" />
<glyph unicode="z" horiz-adv-x="1030" d="M0 0l20 156l697 725h-576l68 178h792l-20 -156l-696 -725h616l-67 -178h-834z" />
<glyph unicode="{" horiz-adv-x="751" d="M23 461l34 180h35q87 0 124 32.5t54 123.5l70 354q33 166 123 236.5t276 70.5h142l-70 -180h-94q-87 0 -125 -25.5t-55 -101.5l-78 -401q-18 -81 -54 -128.5t-102 -70.5q82 -34 82 -152q0 -29 -8 -73l-70 -357q-6 -30 -6 -53q0 -52 31.5 -73t99.5 -21h162l-70 -180h-116 q-152 0 -229 64.5t-77 184.5q0 31 11 91l69 358q4 32 4 43q0 42 -26 60t-88 18h-49z" />
<glyph unicode="|" horiz-adv-x="444" d="M-51 -358l360 1880h207l-360 -1880h-207z" />
<glyph unicode="}" horiz-adv-x="751" d="M-127 -358l70 180h94q87 0 125 25.5t55 101.5l78 401q18 81 54 128.5t102 70.5q-82 34 -82 151q0 30 8 74l69 356q7 35 7 54q0 52 -31.5 73t-99.5 21h-162l69 180h117q152 0 228.5 -65t76.5 -185q0 -35 -10 -90l-70 -358q-4 -32 -4 -43q0 -42 26.5 -60t88.5 -18h49 l-35 -180h-34q-88 0 -125 -32.5t-54 -123.5l-69 -354q-33 -166 -123.5 -236.5t-276.5 -70.5h-141z" />
<glyph unicode="~" d="M158 545l4 26q32 166 97 238t173 72q50 0 96.5 -17.5t120.5 -58.5l41 -23q67 -36 96 -47.5t56 -11.5q33 0 52 22.5t30 85.5l4 23h192l-4 -27q-32 -166 -96.5 -237.5t-173.5 -71.5q-50 0 -96.5 17.5t-120.5 58.5l-41 22q-68 37 -97 48.5t-55 11.5q-33 0 -52 -22t-30 -87 l-4 -22h-192z" />
<glyph unicode="&#xa1;" horiz-adv-x="489" d="M-35 -403l88 452q7 38 21 94.5t20 87.5l101 416h170l-60 -416q-9 -62 -33 -182l-88 -452h-219zM182 901q0 91 36.5 130.5t121.5 39.5q125 0 125 -113q0 -91 -36.5 -130.5t-121.5 -39.5q-125 0 -125 113z" />
<glyph unicode="&#xa2;" d="M193 369q0 83 22 196q27 131 68.5 220.5t103.5 146.5t139.5 86t184.5 39l39 198h159l-39 -192q87 0 181 -4l-62 -176q-78 4 -151 4l-140 -715q151 0 226 4l-62 -176q-102 -4 -184 -4h-12l-37 -193h-160l39 205q-164 29 -239.5 117t-75.5 244zM403 383q0 -91 34 -137 t106 -64l133 695q-113 -20 -167.5 -89.5t-84.5 -226.5q-21 -108 -21 -178z" />
<glyph unicode="&#xa3;" d="M45 0l72 184h104l84 439h-141l69 184h109l29 149q43 235 190.5 338t411.5 103q131 0 241 -4l-69 -185q-69 4 -230 4q-81 0 -135 -11.5t-98 -42t-70.5 -84.5t-42.5 -140l-24 -127h426l-70 -184h-393l-84 -439h584l-70 -184h-893z" />
<glyph unicode="&#xa4;" d="M147 352l121 121q-84 122 -84 252t84 252l-121 121l121 119l121 -121q122 84 262 84t262 -84l121 121l121 -119l-121 -121q84 -122 84 -252t-84 -252l121 -121l-121 -119l-121 121q-122 -84 -262 -84t-262 84l-121 -121zM344 725q0 -123 87 -210t220 -87t220 87t87 210 t-87 210t-220 87t-220 -87t-87 -210z" />
<glyph unicode="&#xa5;" d="M133 283l33 163h321l31 156h-321l30 164h240l-248 627h205l225 -600l467 600h227l-499 -627h237l-30 -164h-328l-31 -156h328l-33 -163h-328l-55 -283h-205l56 283h-322z" />
<glyph unicode="&#xa6;" horiz-adv-x="444" d="M-51 -358l119 626h206l-118 -626h-207zM188 895l121 627h207l-121 -627h-207z" />
<glyph unicode="&#xa7;" d="M-4 -371l67 178q61 0 223 -2t183 -2q147 0 218.5 27.5t88.5 99.5q6 27 6 52q0 55 -33 84t-106 49l-227 57q-275 70 -275 301q0 41 9 82q49 236 253 317q-79 35 -115 88t-36 132q0 33 10 98q53 272 510 272q254 0 408 -4l-68 -176q-82 0 -200.5 1t-200.5 1 q-230 0 -254 -119q-6 -35 -6 -59q0 -49 25.5 -74t88.5 -43l252 -63q275 -69 275 -301q0 -29 -11 -90q-23 -110 -93.5 -194.5t-162.5 -113.5q154 -80 154 -231q0 -45 -8 -76q-18 -90 -64 -149.5t-120 -90.5t-157 -43t-196 -12q-37 0 -210 2t-228 2zM342 502q0 -63 38.5 -100 t117.5 -62l100 -27q24 -8 57 -8q63 0 114.5 40.5t78 93t37.5 108.5q4 12 4 49q0 63 -38.5 100t-117.5 62l-100 26q-27 9 -58 9q-48 0 -89.5 -23t-69 -60t-45 -77.5t-25.5 -81.5q-4 -12 -4 -49z" />
<glyph unicode="&#xa8;" horiz-adv-x="1024" d="M373 1337q0 152 145 152q107 0 107 -90q0 -152 -146 -152q-106 0 -106 90zM725 1337q0 152 145 152q107 0 107 -90q0 -152 -146 -152q-106 0 -106 90z" />
<glyph unicode="&#xa9;" horiz-adv-x="1703" d="M117 729q0 210 38.5 348.5t129.5 230t236.5 130.5t365.5 39q144 0 253.5 -16t197 -53t146.5 -94t98.5 -141t57 -193t17.5 -251q0 -210 -38.5 -348.5t-129.5 -229.5t-236.5 -130t-365.5 -39q-216 0 -359 37t-237 125.5t-134 229.5t-40 355zM295 729q0 -120 9.5 -204 t35.5 -152.5t67.5 -110t109 -69.5t156.5 -39t214 -11q126 0 214 10.5t156.5 38t109.5 68.5t67 110t35.5 153t9.5 206q0 120 -9.5 203.5t-35.5 152t-67.5 110t-109 70t-156.5 39.5t-214 11q-126 0 -214 -10.5t-156.5 -38t-109.5 -68.5t-67 -110t-35.5 -153t-9.5 -206z M547 682v92q0 83 9.5 143t34 112t67.5 83.5t110.5 49.5t161.5 18q121 0 219 -4l-39 -166q-72 2 -162 2q-47 0 -76 -2.5t-54.5 -12t-38 -24t-22 -43t-12 -65t-2.5 -93.5v-86q0 -56 3 -92t13.5 -64.5t25 -43.5t44 -25t63.5 -12.5t89 -2.5q101 0 166 3l-39 -166q-94 -4 -176 -4 q-110 0 -184.5 24t-118.5 76t-63 125t-19 178z" />
<glyph unicode="&#xaa;" horiz-adv-x="878" d="M133 838q0 48 10 92q27 112 104.5 171.5t233.5 59.5q170 0 240 -61l4 22q8 41 8 74q0 62 -40 88.5t-146 26.5q-45 0 -127 -1t-146 -1l58 151q49 4 231 4q186 0 264 -58.5t78 -178.5q0 -58 -10 -107l-70 -360q-13 -71 -49 -98t-114 -35q-102 -13 -193 -13 q-168 0 -252 54.5t-84 169.5zM301 858q0 -58 42.5 -78t145.5 -20q81 0 166 10l23 102q4 28 4 39q0 58 -44 80.5t-140 22.5q-107 0 -143.5 -25t-49.5 -88q-4 -32 -4 -43z" />
<glyph unicode="&#xab;" horiz-adv-x="1146" d="M49 420l43 223l516 348l-47 -235l-336 -232l248 -229l-43 -223zM582 420l43 223l516 348l-47 -235l-336 -232l248 -229l-43 -223z" />
<glyph unicode="&#xac;" d="M188 786l35 179h885l-104 -535h-199l69 356h-686z" />
<glyph unicode="&#xad;" horiz-adv-x="706" d="M41 492l74 192h581l-73 -192h-582z" />
<glyph unicode="&#xae;" horiz-adv-x="1208" d="M160 991q0 288 123 406.5t415 118.5t415.5 -118.5t123.5 -406.5t-123.5 -406t-415.5 -118t-415 118t-123 406zM311 991q0 -80 7.5 -138t25.5 -103t46 -73t72.5 -46.5t100.5 -25.5t135 -7t135 7t100.5 25.5t72.5 46.5t46 73t25.5 103t7.5 138q0 120 -17 193t-62.5 119.5 t-117.5 63.5t-190 17t-190 -17t-117.5 -63.5t-62.5 -119.5t-17 -193zM489 731v539h263q89 0 132.5 -38.5t43.5 -123.5v-33q0 -61 -19.5 -94.5t-70.5 -56.5l116 -193h-161l-91 170h-67v-170h-146zM633 1016h72q48 0 63.5 11.5t15.5 49.5v17q0 38 -15.5 49.5t-63.5 11.5h-72 v-139z" />
<glyph unicode="&#xaf;" horiz-adv-x="1024" d="M360 1268l31 166h592l-31 -166h-592z" />
<glyph unicode="&#xb0;" horiz-adv-x="714" d="M162 1225q0 154 85.5 233.5t246.5 79.5t246 -79.5t85 -233.5t-85 -234t-246 -80t-246.5 80t-85.5 234zM334 1225q0 -95 36 -130.5t124 -35.5t123.5 35.5t35.5 130.5q0 93 -36 129.5t-123 36.5t-123.5 -36.5t-36.5 -129.5z" />
<glyph unicode="&#xb1;" d="M74 2l35 178h876l-35 -178h-876zM174 649l35 178h360l70 367h195l-70 -367h362l-34 -178h-363l-72 -366h-194l72 366h-361z" />
<glyph unicode="&#xb2;" horiz-adv-x="774" d="M127 590l25 133q25 136 75 201t164 106l119 45q47 18 65 36t23 48q2 14 2 25q0 35 -24.5 49t-90.5 14q-188 0 -249 -4l55 148q81 4 227 4q260 0 260 -187q0 -26 -6 -61q-16 -80 -61 -124t-136 -83l-124 -49q-60 -22 -84.5 -49.5t-36.5 -89.5l-2 -11h405l-51 -151h-555z " />
<glyph unicode="&#xb3;" horiz-adv-x="774" d="M119 590l57 149q26 0 119 -1t141 -1q70 0 103.5 25.5t33.5 83.5q0 42 -29.5 60t-86.5 18h-217l57 147h186q123 0 123 100q0 40 -25 56t-81 16q-184 0 -252 -2l61 152q59 2 211 2q121 0 190.5 -46t69.5 -137q0 -80 -35 -136.5t-102 -76.5q102 -34 102 -157 q0 -254 -331 -254q-55 0 -156 1t-139 1z" />
<glyph unicode="&#xb4;" horiz-adv-x="1024" d="M416 1227l256 258h248l-285 -258h-219z" />
<glyph unicode="&#xb5;" horiz-adv-x="1150" d="M-51 -358l272 1417h211l-127 -658q-8 -41 -8 -77q0 -88 61 -127t201 -39q113 0 193 14l174 887h211l-174 -889q-21 -96 -63 -132t-152 -48q-73 -8 -189 -8q-126 0 -203 21t-118 75l-84 -436h-205z" />
<glyph unicode="&#xb6;" horiz-adv-x="1331" d="M172 903q0 66 14 135q41 217 180 319.5t377 102.5h633l-354 -1818h-172l321 1652h-200l-322 -1652h-172l178 919h-84q-70 0 -128.5 11t-109 36.5t-86 64.5t-55.5 97.5t-20 132.5z" />
<glyph unicode="&#xb7;" horiz-adv-x="423" d="M104 670q0 91 36.5 130.5t121.5 39.5q125 0 125 -113q0 -91 -36.5 -130.5t-121.5 -39.5q-125 0 -125 113z" />
<glyph unicode="&#xb8;" horiz-adv-x="1024" d="M133 -408l49 125q70 -4 129 -4q32 0 46 10t20 37q2 6 2 17q0 30 -49 30q-60 0 -99 -2l48 123q14 0 55 1t53 1q174 0 174 -137q0 -13 -4 -41q-16 -95 -79 -130.5t-183 -35.5q-81 0 -162 6z" />
<glyph unicode="&#xb9;" horiz-adv-x="774" d="M147 590l56 151h170l98 508h-192l57 144h340l-127 -652h190l-55 -151h-537z" />
<glyph unicode="&#xba;" horiz-adv-x="931" d="M164 915q0 63 16 154q38 215 140 310.5t296 95.5q165 0 251.5 -72t86.5 -232q0 -62 -16 -153q-41 -215 -143.5 -310.5t-294.5 -95.5q-166 0 -251 71.5t-85 231.5zM354 915q0 -87 38 -120t124 -33q103 0 149 53t76 199q21 94 21 160q0 85 -38.5 118t-123.5 33 q-103 0 -149 -53.5t-76 -198.5q-21 -95 -21 -158z" />
<glyph unicode="&#xbb;" horiz-adv-x="1146" d="M8 72l47 235l336 232l-248 229l43 223l381 -348l-43 -223zM541 72l47 235l336 232l-248 229l43 223l381 -348l-43 -223z" />
<glyph unicode="&#xbc;" horiz-adv-x="1802" d="M145 590l56 151h170l98 508h-193l58 144h340l-127 -652h190l-55 -151h-537zM342 0l1135 1393h202l-1134 -1393h-203zM1034 158l27 135l364 510h185l-365 -508h199l41 209l176 24l-47 -233h102l-55 -137h-74l-31 -158h-170l31 158h-383z" />
<glyph unicode="&#xbd;" horiz-adv-x="1802" d="M145 590l56 151h170l98 508h-193l58 144h340l-127 -652h190l-55 -151h-537zM279 0l1134 1393h203l-1135 -1393h-202zM1040 0l25 133q25 136 75 201t165 106l118 45q47 18 65 36t23 48q2 14 2 25q0 36 -24.5 49.5t-89.5 13.5q-189 0 -250 -4l55 148q81 4 228 4 q260 0 260 -187q0 -26 -6 -61q-16 -80 -61 -124t-136 -83l-125 -49q-60 -22 -84.5 -49.5t-36.5 -89.5l-2 -10h406l-52 -152h-555z" />
<glyph unicode="&#xbe;" horiz-adv-x="1802" d="M119 590l57 149q26 0 119 -1t141 -1q70 0 103.5 25.5t33.5 83.5q0 42 -29.5 60t-86.5 18h-217l57 147h186q123 0 123 100q0 40 -25 56t-81 16q-184 0 -252 -2l61 152q59 2 211 2q121 0 190.5 -46t69.5 -137q0 -80 -35 -136.5t-102 -76.5q102 -34 102 -157 q0 -254 -331 -254q-55 0 -156 1t-139 1zM311 0l1135 1393h203l-1135 -1393h-203zM1034 158l27 135l364 510h185l-365 -508h199l41 209l176 24l-47 -233h102l-55 -137h-74l-31 -158h-170l31 158h-383z" />
<glyph unicode="&#xbf;" horiz-adv-x="960" d="M-35 -88q0 40 6 90q24 149 108 229.5t259 145.5q60 22 88.5 36t52 39.5t33 57t20.5 92.5l11 53h207l-19 -96q-29 -147 -86 -211.5t-213 -122.5q-132 -50 -179.5 -93t-64.5 -130q-8 -36 -8 -80q0 -79 52 -112t180 -33q229 0 385 6l-70 -180q-200 -11 -326 -11 q-222 0 -329 79t-107 241zM543 903q0 91 36 130.5t121 39.5q125 0 125 -112q0 -91 -36 -130.5t-121 -39.5q-125 0 -125 112z" />
<glyph unicode="&#xc0;" horiz-adv-x="1413" d="M-72 0l867 1458h213l270 -1458h-217l-68 418h-600l-239 -418h-226zM498 602h465l-101 631zM592 1827h256l186 -244h-209z" />
<glyph unicode="&#xc1;" horiz-adv-x="1413" d="M-72 0l867 1458h213l270 -1458h-217l-68 418h-600l-239 -418h-226zM498 602h465l-101 631zM756 1583l280 244h283l-328 -244h-235z" />
<glyph unicode="&#xc2;" horiz-adv-x="1413" d="M-72 0l867 1458h213l270 -1458h-217l-68 418h-600l-239 -418h-226zM498 602h465l-101 631zM532 1583l287 242h240l192 -242h-213l-116 129l-168 -129h-222z" />
<glyph unicode="&#xc3;" horiz-adv-x="1413" d="M-72 0l867 1458h213l270 -1458h-217l-68 418h-600l-239 -418h-226zM498 602h465l-101 631zM532 1563l11 53q24 122 73.5 167.5t139.5 45.5q78 0 162 -47l65 -35q41 -25 82 -25q25 0 40 15.5t25 60.5l7 31h151l-10 -53q-24 -121 -74.5 -167t-138.5 -46q-78 0 -162 47 l-65 35q-39 24 -82 24q-25 0 -40.5 -15.5t-25.5 -60.5l-6 -30h-152z" />
<glyph unicode="&#xc4;" horiz-adv-x="1413" d="M-72 0l867 1458h213l270 -1458h-217l-68 418h-600l-239 -418h-226zM498 602h465l-101 631zM596 1673q0 77 38.5 114.5t108.5 37.5q109 0 109 -96q0 -75 -35 -112.5t-112 -37.5q-109 0 -109 94zM977 1673q0 77 38.5 114.5t108.5 37.5q109 0 109 -96q0 -75 -35.5 -112.5 t-112.5 -37.5q-108 0 -108 94z" />
<glyph unicode="&#xc5;" horiz-adv-x="1413" d="M-72 0l824 1386q-21 9 -39 21q-66 48 -66 152q0 15 4 51q19 122 91.5 185t209.5 63q110 0 171 -53t61 -146q0 -17 -4 -49q-18 -117 -90 -183q-27 -27 -70 -43l258 -1384h-217l-68 418h-600l-239 -418h-226zM498 602h465l-101 631zM793 1567q0 -44 26 -60t76 -16 q71 0 98.5 24.5t38.5 83.5q6 27 6 54q0 44 -26 60t-76 16q-49 0 -77.5 -14t-39.5 -34.5t-20 -60.5q-6 -27 -6 -53z" />
<glyph unicode="&#xc6;" horiz-adv-x="2027" d="M-72 0l1069 1458h1104l-73 -192h-728l-81 -420h712l-73 -193h-676l-90 -460h804l-73 -193h-979l86 451h-443l-323 -451h-236zM621 635h346l123 631h-15z" />
<glyph unicode="&#xc7;" horiz-adv-x="1118" d="M109 483q0 117 28 269q32 167 83.5 289.5t117.5 203t157.5 128.5t194 67.5t236.5 19.5q154 0 291 -6l-74 -192q-92 6 -213 6q-96 0 -164.5 -8.5t-127.5 -32t-99 -60.5t-74 -99t-58 -141.5t-47 -193.5q-30 -167 -30 -252q0 -163 88 -225.5t303 -62.5q58 0 143 2t135 2 l-73 -193q-65 -4 -244 -4q-308 0 -440.5 121.5t-132.5 361.5zM266 -408l49 125q18 0 73.5 -2t70.5 -2q32 0 45.5 10t19.5 37q2 6 2 17q0 30 -49 30q-73 0 -112 -2l47 123q15 0 66.5 1t64.5 1q178 0 178 -137q0 -13 -4 -41q-16 -93 -82 -129.5t-186 -36.5q-34 0 -104.5 3 t-78.5 3z" />
<glyph unicode="&#xc8;" horiz-adv-x="1228" d="M45 0l283 1458h975l-74 -192h-727l-82 -420h713l-74 -193h-676l-90 -460h805l-74 -193h-979zM565 1827h256l187 -244h-209z" />
<glyph unicode="&#xc9;" horiz-adv-x="1228" d="M45 0l283 1458h975l-74 -192h-727l-82 -420h713l-74 -193h-676l-90 -460h805l-74 -193h-979zM637 1583l281 244h282l-328 -244h-235z" />
<glyph unicode="&#xca;" horiz-adv-x="1228" d="M45 0l283 1458h975l-74 -192h-727l-82 -420h713l-74 -193h-676l-90 -460h805l-74 -193h-979zM471 1583l287 242h239l193 -242h-213l-117 129l-168 -129h-221z" />
<glyph unicode="&#xcb;" horiz-adv-x="1228" d="M45 0l283 1458h975l-74 -192h-727l-82 -420h713l-74 -193h-676l-90 -460h805l-74 -193h-979zM514 1673q0 77 39 114.5t109 37.5q108 0 108 -96q0 -75 -35 -112.5t-112 -37.5q-109 0 -109 94zM895 1673q0 77 38.5 114.5t108.5 37.5q109 0 109 -96q0 -75 -35 -112.5 t-112 -37.5q-109 0 -109 94z" />
<glyph unicode="&#xcc;" horiz-adv-x="505" d="M45 0l283 1458h211l-283 -1458h-211zM145 1827h256l187 -244h-209z" />
<glyph unicode="&#xcd;" horiz-adv-x="505" d="M45 0l283 1458h211l-283 -1458h-211zM297 1583l281 244h282l-328 -244h-235z" />
<glyph unicode="&#xce;" horiz-adv-x="505" d="M45 0l283 1458h211l-283 -1458h-211zM86 1583l287 242h239l193 -242h-213l-117 129l-168 -129h-221z" />
<glyph unicode="&#xcf;" horiz-adv-x="505" d="M45 0l283 1458h211l-283 -1458h-211zM150 1673q0 77 38.5 114.5t108.5 37.5q109 0 109 -96q0 -75 -35.5 -112.5t-112.5 -37.5q-108 0 -108 94zM530 1673q0 77 39 114.5t109 37.5q108 0 108 -96q0 -75 -35 -112.5t-112 -37.5q-109 0 -109 94z" />
<glyph unicode="&#xd0;" horiz-adv-x="1400" d="M51 647l33 174h137l125 637h424q301 0 449.5 -122t148.5 -386q0 -102 -25 -239q-31 -168 -84 -292.5t-122.5 -204t-164 -128t-197.5 -67.5t-234 -19h-480l125 647h-135zM313 193h250q83 0 142.5 7t119 27.5t101.5 57.5t80.5 96t66.5 144.5t49 201.5q25 137 25 225 q0 95 -24 157.5t-75.5 96.5t-118 47t-165.5 13h-242l-86 -445h332l-33 -174h-334z" />
<glyph unicode="&#xd1;" horiz-adv-x="1427" d="M45 0l283 1458h202l504 -1112l215 1112h211l-282 -1458h-195l-510 1124l-217 -1124h-211zM537 1563l10 53q24 122 73.5 167.5t139.5 45.5q78 0 162 -47l65 -35q41 -25 82 -25q25 0 40.5 15.5t25.5 60.5l6 31h151l-10 -53q-24 -121 -74.5 -167t-138.5 -46q-78 0 -162 47 l-65 35q-39 24 -82 24q-25 0 -40.5 -15.5t-25.5 -60.5l-6 -30h-151z" />
<glyph unicode="&#xd2;" horiz-adv-x="1425" d="M106 469q0 114 29 285q36 210 98 353.5t154 229.5t207 123t270 37q268 0 399.5 -118.5t131.5 -387.5q0 -113 -29 -284q-29 -168 -75 -293.5t-108 -211.5t-145 -139t-180.5 -76.5t-220.5 -23.5q-268 0 -399.5 118.5t-131.5 387.5zM328 453q0 -92 19.5 -152t63 -93 t100 -45.5t142.5 -12.5q89 0 151 14t116 49t92.5 100t70 163t58.5 241q33 174 33 291q0 92 -20 152t-63.5 93t-100 45.5t-142.5 12.5q-89 0 -151 -14t-116 -49.5t-92.5 -100.5t-70 -163t-58.5 -241q-32 -168 -32 -290zM643 1827h256l186 -244h-208z" />
<glyph unicode="&#xd3;" horiz-adv-x="1425" d="M106 469q0 114 29 285q36 210 98 353.5t154 229.5t207 123t270 37q268 0 399.5 -118.5t131.5 -387.5q0 -113 -29 -284q-29 -168 -75 -293.5t-108 -211.5t-145 -139t-180.5 -76.5t-220.5 -23.5q-268 0 -399.5 118.5t-131.5 387.5zM328 453q0 -92 19.5 -152t63 -93 t100 -45.5t142.5 -12.5q89 0 151 14t116 49t92.5 100t70 163t58.5 241q33 174 33 291q0 92 -20 152t-63.5 93t-100 45.5t-142.5 12.5q-89 0 -151 -14t-116 -49.5t-92.5 -100.5t-70 -163t-58.5 -241q-32 -168 -32 -290zM688 1583l281 244h282l-327 -244h-236z" />
<glyph unicode="&#xd4;" horiz-adv-x="1425" d="M106 469q0 114 29 285q36 210 98 353.5t154 229.5t207 123t270 37q268 0 399.5 -118.5t131.5 -387.5q0 -113 -29 -284q-29 -168 -75 -293.5t-108 -211.5t-145 -139t-180.5 -76.5t-220.5 -23.5q-268 0 -399.5 118.5t-131.5 387.5zM328 453q0 -92 19.5 -152t63 -93 t100 -45.5t142.5 -12.5q89 0 151 14t116 49t92.5 100t70 163t58.5 241q33 174 33 291q0 92 -20 152t-63.5 93t-100 45.5t-142.5 12.5q-89 0 -151 -14t-116 -49.5t-92.5 -100.5t-70 -163t-58.5 -241q-32 -168 -32 -290zM522 1583l287 242h240l192 -242h-213l-117 129 l-168 -129h-221z" />
<glyph unicode="&#xd5;" horiz-adv-x="1425" d="M106 469q0 114 29 285q36 210 98 353.5t154 229.5t207 123t270 37q268 0 399.5 -118.5t131.5 -387.5q0 -113 -29 -284q-29 -168 -75 -293.5t-108 -211.5t-145 -139t-180.5 -76.5t-220.5 -23.5q-268 0 -399.5 118.5t-131.5 387.5zM328 453q0 -92 19.5 -152t63 -93 t100 -45.5t142.5 -12.5q89 0 151 14t116 49t92.5 100t70 163t58.5 241q33 174 33 291q0 92 -20 152t-63.5 93t-100 45.5t-142.5 12.5q-89 0 -151 -14t-116 -49.5t-92.5 -100.5t-70 -163t-58.5 -241q-32 -168 -32 -290zM520 1563l10 53q24 122 73.5 167.5t139.5 45.5 q78 0 162 -47l66 -35q41 -25 82 -25q25 0 40 15.5t25 60.5l6 31h152l-10 -53q-24 -121 -74.5 -167t-138.5 -46q-78 0 -162 47l-66 35q-39 24 -82 24q-25 0 -40 -15.5t-25 -60.5l-6 -30h-152z" />
<glyph unicode="&#xd6;" horiz-adv-x="1425" d="M106 469q0 114 29 285q36 210 98 353.5t154 229.5t207 123t270 37q268 0 399.5 -118.5t131.5 -387.5q0 -113 -29 -284q-29 -168 -75 -293.5t-108 -211.5t-145 -139t-180.5 -76.5t-220.5 -23.5q-268 0 -399.5 118.5t-131.5 387.5zM328 453q0 -92 19.5 -152t63 -93 t100 -45.5t142.5 -12.5q89 0 151 14t116 49t92.5 100t70 163t58.5 241q33 174 33 291q0 92 -20 152t-63.5 93t-100 45.5t-142.5 12.5q-89 0 -151 -14t-116 -49.5t-92.5 -100.5t-70 -163t-58.5 -241q-32 -168 -32 -290zM582 1673q0 77 38.5 114.5t108.5 37.5q109 0 109 -96 q0 -75 -35.5 -112.5t-112.5 -37.5q-108 0 -108 94zM963 1673q0 77 38.5 114.5t108.5 37.5q109 0 109 -96q0 -75 -35.5 -112.5t-112.5 -37.5q-108 0 -108 94z" />
<glyph unicode="&#xd7;" d="M174 422l336 280l-227 285l149 123l227 -285l342 285l119 -143l-344 -287l225 -279l-149 -122l-225 278l-334 -278z" />
<glyph unicode="&#xd8;" horiz-adv-x="1425" d="M33 -184l190 278q-117 123 -117 373q0 111 29 287q36 210 98 353.5t154 229.5t207 123t270 37q170 0 285 -47l133 195h186l-192 -281q117 -120 117 -375q0 -123 -27 -282q-29 -168 -75 -293.5t-108 -211.5t-145 -139t-180.5 -76.5t-220.5 -23.5q-172 0 -287 47l-131 -194 h-186zM328 453q0 -106 26 -168l682 999q-74 27 -188 27q-89 0 -151 -14t-116 -49.5t-92.5 -100.5t-70 -163t-58.5 -241q-32 -168 -32 -290zM465 176q55 -26 188 -26q89 0 151 14t116 49t92.5 100t70 163t58.5 241q33 174 33 291q0 104 -27 166z" />
<glyph unicode="&#xd9;" horiz-adv-x="1372" d="M115 369q0 60 14 135l184 954h211l-182 -950q-14 -75 -14 -127q0 -127 75 -179t238 -52q118 0 190 30t120.5 108.5t74.5 221.5l182 948h211l-190 -989q-57 -275 -203.5 -390.5t-398.5 -115.5q-245 0 -378.5 102.5t-133.5 303.5zM600 1827h256l186 -244h-208z" />
<glyph unicode="&#xda;" horiz-adv-x="1372" d="M115 369q0 60 14 135l184 954h211l-182 -950q-14 -75 -14 -127q0 -127 75 -179t238 -52q118 0 190 30t120.5 108.5t74.5 221.5l182 948h211l-190 -989q-57 -275 -203.5 -390.5t-398.5 -115.5q-245 0 -378.5 102.5t-133.5 303.5zM676 1583l280 244h283l-328 -244h-235z " />
<glyph unicode="&#xdb;" horiz-adv-x="1372" d="M115 369q0 60 14 135l184 954h211l-182 -950q-14 -75 -14 -127q0 -127 75 -179t238 -52q118 0 190 30t120.5 108.5t74.5 221.5l182 948h211l-190 -989q-57 -275 -203.5 -390.5t-398.5 -115.5q-245 0 -378.5 102.5t-133.5 303.5zM524 1583l287 242h240l192 -242h-213 l-117 129l-168 -129h-221z" />
<glyph unicode="&#xdc;" horiz-adv-x="1372" d="M115 369q0 60 14 135l184 954h211l-182 -950q-14 -75 -14 -127q0 -127 75 -179t238 -52q118 0 190 30t120.5 108.5t74.5 221.5l182 948h211l-190 -989q-57 -275 -203.5 -390.5t-398.5 -115.5q-245 0 -378.5 102.5t-133.5 303.5zM582 1673q0 77 38.5 114.5t108.5 37.5 q109 0 109 -96q0 -75 -35.5 -112.5t-112.5 -37.5q-108 0 -108 94zM963 1673q0 77 38.5 114.5t108.5 37.5q109 0 109 -96q0 -75 -35.5 -112.5t-112.5 -37.5q-108 0 -108 94z" />
<glyph unicode="&#xdd;" horiz-adv-x="1306" d="M201 1458h221l258 -667l541 667h241l-698 -848l-119 -610h-215l119 608zM635 1583l280 244h283l-328 -244h-235z" />
<glyph unicode="&#xde;" horiz-adv-x="1261" d="M45 0l283 1458h211l-56 -278h246q496 0 496 -363q0 -37 -11 -108q-20 -121 -70.5 -204t-130 -129t-173.5 -65.5t-217 -19.5h-312l-55 -291h-211zM348 483h295q179 0 255 48t101 176q11 71 11 92q0 103 -66 145.5t-207 42.5h-291z" />
<glyph unicode="&#xdf;" horiz-adv-x="1163" d="M18 0l211 1106q42 214 166 320t348 106q206 0 303 -85.5t97 -234.5q0 -40 -6 -86q-35 -217 -234 -292q172 -70 172 -295q0 -53 -8 -97q-18 -121 -62 -208.5t-110.5 -139t-149 -75t-186.5 -23.5q-100 0 -188 14l73 172q35 -6 119 -6q46 0 78.5 4.5t69.5 22t62.5 48 t48.5 85t36 131.5q6 40 6 78q0 198 -190 198h-146l68 179h88q111 0 173.5 49t78.5 170q2 23 2 55q0 84 -51.5 126t-161.5 42q-129 0 -194.5 -67t-94.5 -228l-207 -1069h-211z" />
<glyph unicode="&#xe0;" horiz-adv-x="1099" d="M43 260q0 59 14 125q66 295 430 295q235 0 310 -86l8 41q12 55 12 98q0 81 -53 116.5t-182 35.5q-250 0 -357 -4l68 178q61 4 307 4q218 0 315 -78t97 -231q0 -41 -15 -129l-86 -455q-21 -93 -63.5 -127t-140.5 -47q-98 -14 -252 -14q-212 0 -312 66.5t-100 211.5z M244 285q0 -81 53.5 -107t183.5 -26q106 0 232 14l28 141q7 40 7 62q0 78 -57.5 110.5t-184.5 32.5q-124 0 -181.5 -35t-74.5 -127q-6 -38 -6 -65zM442 1485h228l168 -258h-199z" />
<glyph unicode="&#xe1;" horiz-adv-x="1099" d="M43 260q0 59 14 125q66 295 430 295q235 0 310 -86l8 41q12 55 12 98q0 81 -53 116.5t-182 35.5q-250 0 -357 -4l68 178q61 4 307 4q218 0 315 -78t97 -231q0 -41 -15 -129l-86 -455q-21 -93 -63.5 -127t-140.5 -47q-98 -14 -252 -14q-212 0 -312 66.5t-100 211.5z M244 285q0 -81 53.5 -107t183.5 -26q106 0 232 14l28 141q7 40 7 62q0 78 -57.5 110.5t-184.5 32.5q-124 0 -181.5 -35t-74.5 -127q-6 -38 -6 -65zM496 1227l256 258h247l-284 -258h-219z" />
<glyph unicode="&#xe2;" horiz-adv-x="1099" d="M43 260q0 59 14 125q66 295 430 295q235 0 310 -86l8 41q12 55 12 98q0 81 -53 116.5t-182 35.5q-250 0 -357 -4l68 178q61 4 307 4q218 0 315 -78t97 -231q0 -41 -15 -129l-86 -455q-21 -93 -63.5 -127t-140.5 -47q-98 -14 -252 -14q-212 0 -312 66.5t-100 211.5z M244 285q0 -81 53.5 -107t183.5 -26q106 0 232 14l28 141q7 40 7 62q0 78 -57.5 110.5t-184.5 32.5q-124 0 -181.5 -35t-74.5 -127q-6 -38 -6 -65zM340 1227l266 260h225l164 -260h-190l-103 147l-159 -147h-203z" />
<glyph unicode="&#xe3;" horiz-adv-x="1099" d="M43 260q0 59 14 125q66 295 430 295q235 0 310 -86l8 41q12 55 12 98q0 81 -53 116.5t-182 35.5q-250 0 -357 -4l68 178q61 4 307 4q218 0 315 -78t97 -231q0 -41 -15 -129l-86 -455q-21 -93 -63.5 -127t-140.5 -47q-98 -14 -252 -14q-212 0 -312 66.5t-100 211.5z M244 285q0 -81 53.5 -107t183.5 -26q106 0 232 14l28 141q7 40 7 62q0 78 -57.5 110.5t-184.5 32.5q-124 0 -181.5 -35t-74.5 -127q-6 -38 -6 -65zM317 1223l11 51q24 116 70.5 159.5t129.5 43.5q75 0 150 -41l61 -31q53 -23 76 -23q24 0 36.5 13.5t22.5 54.5l7 27h151 l-10 -52q-23 -115 -71.5 -158.5t-129.5 -43.5q-74 0 -149 41l-62 30q-2 1 -16 7.5t-19.5 8.5t-17 4.5t-22.5 2.5q-24 0 -37 -13.5t-23 -54.5l-6 -26h-152z" />
<glyph unicode="&#xe4;" horiz-adv-x="1099" d="M43 260q0 59 14 125q66 295 430 295q235 0 310 -86l8 41q12 55 12 98q0 81 -53 116.5t-182 35.5q-250 0 -357 -4l68 178q61 4 307 4q218 0 315 -78t97 -231q0 -41 -15 -129l-86 -455q-21 -93 -63.5 -127t-140.5 -47q-98 -14 -252 -14q-212 0 -312 66.5t-100 211.5z M244 285q0 -81 53.5 -107t183.5 -26q106 0 232 14l28 141q7 40 7 62q0 78 -57.5 110.5t-184.5 32.5q-124 0 -181.5 -35t-74.5 -127q-6 -38 -6 -65zM375 1337q0 152 145 152q107 0 107 -90q0 -152 -146 -152q-106 0 -106 90zM727 1337q0 152 145 152q107 0 107 -90 q0 -152 -145 -152q-107 0 -107 90z" />
<glyph unicode="&#xe5;" horiz-adv-x="1099" d="M43 260q0 59 14 125q66 295 430 295q235 0 310 -86l8 41q12 55 12 98q0 81 -53 116.5t-182 35.5q-250 0 -357 -4l68 178q61 4 307 4q218 0 315 -78t97 -231q0 -41 -15 -129l-86 -455q-21 -93 -63.5 -127t-140.5 -47q-98 -14 -252 -14q-212 0 -312 66.5t-100 211.5z M244 285q0 -81 53.5 -107t183.5 -26q106 0 232 14l28 141q7 40 7 62q0 78 -57.5 110.5t-184.5 32.5q-124 0 -181.5 -35t-74.5 -127q-6 -38 -6 -65zM436 1360q0 15 4 51q19 122 91.5 185t209.5 63q110 0 171 -53t61 -146q0 -17 -4 -49q-19 -121 -92 -184.5t-211 -63.5 q-103 0 -166.5 49t-63.5 148zM582 1368q0 -44 26 -60t76 -16q71 0 98.5 25t38.5 84q6 27 6 53q0 44 -26 60t-76 16q-49 0 -77.5 -14t-39.5 -34.5t-20 -60.5q-6 -27 -6 -53z" />
<glyph unicode="&#xe6;" horiz-adv-x="1746" d="M41 260q0 48 12 107q20 94 66 153.5t135.5 93t224.5 33.5h336q10 58 10 84q0 83 -56 118.5t-194 35.5q-242 0 -350 -4l68 178q65 4 293 4q148 0 236 -32t130 -99q128 160 383 160q189 0 285 -69t96 -196q0 -32 -10 -90q-28 -137 -137.5 -201.5t-333.5 -64.5h-260 q-6 -47 -6 -86q0 -111 58 -162t192 -51q192 0 329 10l-67 -176q-112 -10 -283 -10q-267 0 -362 158q-61 -87 -158.5 -129.5t-243.5 -42.5q-393 0 -393 278zM240 285q0 -72 48 -102.5t165 -30.5q266 0 305 202l24 129h-311q-113 0 -163.5 -36t-63.5 -113q-4 -32 -4 -49z M1008 635h227q99 0 152 12t75.5 34.5t38.5 68.5q12 38 12 65q0 55 -45.5 81t-148.5 26q-130 0 -200 -63t-111 -224z" />
<glyph unicode="&#xe7;" horiz-adv-x="921" d="M78 365q0 84 22 200q24 123 62.5 210t89 143t123.5 88t155 44.5t195 12.5q91 0 201 -4l-68 -176q-86 4 -164 4q-99 0 -159 -12.5t-105 -50.5t-70.5 -98.5t-46.5 -164.5q-22 -119 -22 -186q0 -117 57.5 -160t190.5 -43q169 0 260 4l-68 -176q-29 0 -99 -2t-91 -2 q-246 0 -354.5 92t-108.5 277zM152 -408l49 125q70 -4 129 -4q32 0 45.5 10t19.5 37q2 6 2 17q0 30 -49 30q-59 0 -98 -2l47 123q14 0 55.5 1t53.5 1q174 0 174 -137q0 -6 -5 -41q-16 -95 -79 -130.5t-183 -35.5q-80 0 -161 6z" />
<glyph unicode="&#xe8;" horiz-adv-x="1073" d="M78 371q0 83 22 196q26 127 69.5 221.5t95 152t118.5 92t131 47t141 12.5q195 0 290 -73.5t95 -203.5q0 -45 -12 -98q-33 -144 -140.5 -210.5t-332.5 -66.5h-266q-4 -36 -4 -61q0 -107 54.5 -157t180.5 -50q225 0 352 10l-67 -176q-115 -10 -303 -10q-117 0 -200.5 27 t-131.5 78.5t-70 118t-22 151.5zM317 604h238q141 0 193.5 26t74.5 99q13 44 13 74q0 59 -45.5 89t-147.5 30q-138 0 -212.5 -71t-113.5 -247zM449 1485h227l168 -258h-199z" />
<glyph unicode="&#xe9;" horiz-adv-x="1073" d="M78 371q0 83 22 196q26 127 69.5 221.5t95 152t118.5 92t131 47t141 12.5q195 0 290 -73.5t95 -203.5q0 -45 -12 -98q-33 -144 -140.5 -210.5t-332.5 -66.5h-266q-4 -36 -4 -61q0 -107 54.5 -157t180.5 -50q225 0 352 10l-67 -176q-115 -10 -303 -10q-117 0 -200.5 27 t-131.5 78.5t-70 118t-22 151.5zM317 604h238q141 0 193.5 26t74.5 99q13 44 13 74q0 59 -45.5 89t-147.5 30q-138 0 -212.5 -71t-113.5 -247zM537 1227l256 258h247l-284 -258h-219z" />
<glyph unicode="&#xea;" horiz-adv-x="1073" d="M78 371q0 83 22 196q26 127 69.5 221.5t95 152t118.5 92t131 47t141 12.5q195 0 290 -73.5t95 -203.5q0 -45 -12 -98q-33 -144 -140.5 -210.5t-332.5 -66.5h-266q-4 -36 -4 -61q0 -107 54.5 -157t180.5 -50q225 0 352 10l-67 -176q-115 -10 -303 -10q-117 0 -200.5 27 t-131.5 78.5t-70 118t-22 151.5zM317 604h238q141 0 193.5 26t74.5 99q13 44 13 74q0 59 -45.5 89t-147.5 30q-138 0 -212.5 -71t-113.5 -247zM334 1227l266 260h225l164 -260h-190l-103 147l-159 -147h-203z" />
<glyph unicode="&#xeb;" horiz-adv-x="1073" d="M78 371q0 83 22 196q26 127 69.5 221.5t95 152t118.5 92t131 47t141 12.5q195 0 290 -73.5t95 -203.5q0 -45 -12 -98q-33 -144 -140.5 -210.5t-332.5 -66.5h-266q-4 -36 -4 -61q0 -107 54.5 -157t180.5 -50q225 0 352 10l-67 -176q-115 -10 -303 -10q-117 0 -200.5 27 t-131.5 78.5t-70 118t-22 151.5zM317 604h238q141 0 193.5 26t74.5 99q13 44 13 74q0 59 -45.5 89t-147.5 30q-138 0 -212.5 -71t-113.5 -247zM379 1337q0 152 145 152q107 0 107 -90q0 -152 -146 -152q-106 0 -106 90zM731 1337q0 152 146 152q106 0 106 -90 q0 -152 -145 -152q-107 0 -107 90z" />
<glyph unicode="&#xec;" horiz-adv-x="448" d="M16 0l205 1059h211l-205 -1059h-211zM90 1485h227l168 -258h-198z" />
<glyph unicode="&#xed;" horiz-adv-x="448" d="M16 0l205 1059h211l-205 -1059h-211zM203 1227l256 258h248l-285 -258h-219z" />
<glyph unicode="&#xee;" horiz-adv-x="448" d="M10 1227l266 260h226l164 -260h-191l-102 147l-160 -147h-203zM16 0l205 1059h211l-205 -1059h-211z" />
<glyph unicode="&#xef;" horiz-adv-x="448" d="M16 0l205 1059h211l-205 -1059h-211zM68 1337q0 152 145 152q106 0 106 -90q0 -152 -145 -152q-106 0 -106 90zM420 1337q0 152 145 152q107 0 107 -90q0 -152 -146 -152q-106 0 -106 90z" />
<glyph unicode="&#xf0;" horiz-adv-x="1185" d="M80 344q0 83 14 154q42 238 180 355.5t349 117.5q93 0 171 -30t119 -83q11 71 11 113q0 82 -29 174l-266 -86l-41 131l246 80q-43 65 -111 133l170 117q85 -88 141 -183l178 60l43 -135l-165 -54q38 -122 38 -272q0 -210 -69 -514q-15 -65 -33 -116t-46.5 -106t-69 -94.5 t-95 -72.5t-131 -49.5t-170.5 -16.5q-223 0 -328.5 95t-105.5 282zM293 344q0 -112 58.5 -156.5t183.5 -44.5q101 0 162 28.5t96 89.5t57 171q18 94 18 160q0 111 -58.5 156t-180.5 45q-152 0 -218.5 -63t-99.5 -226q-18 -94 -18 -160z" />
<glyph unicode="&#xf1;" horiz-adv-x="1163" d="M16 0l134 686q40 220 164.5 313t355.5 93q194 0 301.5 -83.5t107.5 -246.5q0 -40 -10 -105l-127 -657h-211l127 657q10 55 10 88q0 90 -50 129t-152 39q-154 0 -218.5 -52t-93.5 -206l-127 -655h-211zM338 1204l10 51q24 116 71 159.5t130 43.5q74 0 149 -41l62 -31 q51 -22 76 -22q24 0 36.5 13.5t22.5 54.5l6 26h152l-11 -51q-23 -115 -71 -159t-129 -44q-75 0 -150 41l-61 31q-51 22 -76 22q-24 0 -36.5 -13t-22.5 -54l-7 -27h-151z" />
<glyph unicode="&#xf2;" horiz-adv-x="1169" d="M78 354q0 83 22 209q53 280 183.5 404.5t380.5 124.5q213 0 320.5 -90t107.5 -297q0 -78 -23 -209q-53 -280 -183.5 -404.5t-379.5 -124.5q-213 0 -320.5 90t-107.5 297zM289 360q0 -121 56 -169t183 -48q80 0 132 16.5t89.5 59t60.5 104.5t44 164q27 149 27 211 q0 121 -56.5 169t-183.5 48q-80 0 -132 -16.5t-89.5 -59t-60.5 -104.5t-44 -164q-26 -143 -26 -211zM449 1485h227l168 -258h-199z" />
<glyph unicode="&#xf3;" horiz-adv-x="1169" d="M78 354q0 83 22 209q53 280 183.5 404.5t380.5 124.5q213 0 320.5 -90t107.5 -297q0 -78 -23 -209q-53 -280 -183.5 -404.5t-379.5 -124.5q-213 0 -320.5 90t-107.5 297zM289 360q0 -121 56 -169t183 -48q80 0 132 16.5t89.5 59t60.5 104.5t44 164q27 149 27 211 q0 121 -56.5 169t-183.5 48q-80 0 -132 -16.5t-89.5 -59t-60.5 -104.5t-44 -164q-26 -143 -26 -211zM528 1227l256 258h248l-284 -258h-220z" />
<glyph unicode="&#xf4;" horiz-adv-x="1169" d="M78 354q0 83 22 209q53 280 183.5 404.5t380.5 124.5q213 0 320.5 -90t107.5 -297q0 -78 -23 -209q-53 -280 -183.5 -404.5t-379.5 -124.5q-213 0 -320.5 90t-107.5 297zM289 360q0 -121 56 -169t183 -48q80 0 132 16.5t89.5 59t60.5 104.5t44 164q27 149 27 211 q0 121 -56.5 169t-183.5 48q-80 0 -132 -16.5t-89.5 -59t-60.5 -104.5t-44 -164q-26 -143 -26 -211zM375 1227l266 260h225l164 -260h-190l-103 147l-159 -147h-203z" />
<glyph unicode="&#xf5;" horiz-adv-x="1169" d="M78 354q0 83 22 209q53 280 183.5 404.5t380.5 124.5q213 0 320.5 -90t107.5 -297q0 -78 -23 -209q-53 -280 -183.5 -404.5t-379.5 -124.5q-213 0 -320.5 90t-107.5 297zM289 360q0 -121 56 -169t183 -48q80 0 132 16.5t89.5 59t60.5 104.5t44 164q27 149 27 211 q0 121 -56.5 169t-183.5 48q-80 0 -132 -16.5t-89.5 -59t-60.5 -104.5t-44 -164q-26 -143 -26 -211zM362 1223l11 51q24 116 70.5 159.5t129.5 43.5q75 0 150 -41l61 -31q53 -23 76 -23q24 0 37 13.5t23 54.5l6 27h151l-10 -52q-23 -115 -71.5 -158.5t-129.5 -43.5 q-74 0 -149 41l-62 30q-2 1 -16 7.5t-19.5 8.5t-17 4.5t-22.5 2.5q-24 0 -37 -13.5t-23 -54.5l-6 -26h-152z" />
<glyph unicode="&#xf6;" horiz-adv-x="1169" d="M78 354q0 83 22 209q53 280 183.5 404.5t380.5 124.5q213 0 320.5 -90t107.5 -297q0 -78 -23 -209q-53 -280 -183.5 -404.5t-379.5 -124.5q-213 0 -320.5 90t-107.5 297zM289 360q0 -121 56 -169t183 -48q80 0 132 16.5t89.5 59t60.5 104.5t44 164q27 149 27 211 q0 121 -56.5 169t-183.5 48q-80 0 -132 -16.5t-89.5 -59t-60.5 -104.5t-44 -164q-26 -143 -26 -211zM424 1337q0 152 145 152q107 0 107 -90q0 -152 -146 -152q-106 0 -106 90zM776 1337q0 152 146 152q106 0 106 -90q0 -152 -145 -152q-107 0 -107 90z" />
<glyph unicode="&#xf7;" d="M180 608l35 178h885l-35 -178h-885zM446 342q0 82 34.5 119t109.5 37q115 0 115 -103q0 -81 -34.5 -118t-109.5 -37q-115 0 -115 102zM575 997q0 82 34.5 119t109.5 37q115 0 115 -102q0 -82 -34.5 -119t-109.5 -37q-115 0 -115 102z" />
<glyph unicode="&#xf8;" horiz-adv-x="1169" d="M43 -143l139 204q-104 96 -104 291q0 85 22 211q53 280 183.5 404.5t380.5 124.5q117 0 200 -27l94 137h170l-141 -207q105 -97 105 -290q0 -78 -23 -209q-53 -280 -183.5 -404.5t-379.5 -124.5q-119 0 -199 27l-92 -137h-172zM289 360q0 -68 18 -114l447 657 q-46 12 -113 12q-80 0 -132 -16.5t-89.5 -59t-60.5 -104.5t-44 -164q-26 -121 -26 -211zM418 156q50 -13 110 -13q80 0 132 16.5t89.5 59t60.5 104.5t44 164q25 131 25 209q0 60 -17 113z" />
<glyph unicode="&#xf9;" horiz-adv-x="1153" d="M84 295q0 54 10 106l127 658h211l-127 -658q-10 -65 -10 -90q0 -90 48.5 -128t150.5 -38q151 0 213.5 52t91.5 206l127 656h211l-133 -686q-44 -221 -165 -313.5t-352 -92.5q-190 0 -296.5 83t-106.5 245zM467 1485h227l168 -258h-198z" />
<glyph unicode="&#xfa;" horiz-adv-x="1153" d="M84 295q0 54 10 106l127 658h211l-127 -658q-10 -65 -10 -90q0 -90 48.5 -128t150.5 -38q151 0 213.5 52t91.5 206l127 656h211l-133 -686q-44 -221 -165 -313.5t-352 -92.5q-190 0 -296.5 83t-106.5 245zM514 1227l256 258h248l-285 -258h-219z" />
<glyph unicode="&#xfb;" horiz-adv-x="1153" d="M84 295q0 54 10 106l127 658h211l-127 -658q-10 -65 -10 -90q0 -90 48.5 -128t150.5 -38q151 0 213.5 52t91.5 206l127 656h211l-133 -686q-44 -221 -165 -313.5t-352 -92.5q-190 0 -296.5 83t-106.5 245zM373 1227l266 260h225l164 -260h-190l-103 147l-160 -147h-202z " />
<glyph unicode="&#xfc;" horiz-adv-x="1153" d="M84 295q0 54 10 106l127 658h211l-127 -658q-10 -65 -10 -90q0 -90 48.5 -128t150.5 -38q151 0 213.5 52t91.5 206l127 656h211l-133 -686q-44 -221 -165 -313.5t-352 -92.5q-190 0 -296.5 83t-106.5 245zM422 1337q0 152 145 152q107 0 107 -90q0 -152 -146 -152 q-106 0 -106 90zM774 1337q0 152 146 152q106 0 106 -90q0 -152 -145 -152q-107 0 -107 90z" />
<glyph unicode="&#xfd;" horiz-adv-x="1153" d="M37 -358l69 182q131 -8 318 -8q137 0 207.5 60.5t105.5 211.5l8 35q-89 -86 -266 -86q-183 0 -283 81.5t-100 239.5q0 46 13 113l112 588h211l-113 -588q-10 -65 -10 -90q0 -90 48.5 -128t150.5 -38q151 0 213.5 52t91.5 206l113 586h211l-185 -953 q-50 -253 -169.5 -360.5t-358.5 -107.5q-289 0 -387 4zM524 1227l256 258h248l-285 -258h-219z" />
<glyph unicode="&#xfe;" horiz-adv-x="1196" d="M-51 -358l362 1880h211l-100 -514q90 84 283 84q201 0 306 -94.5t105 -299.5q0 -101 -22 -211q-54 -272 -181 -396t-354 -124q-236 0 -313 117l-86 -442h-211zM313 369q0 -127 61 -176.5t189 -49.5q72 0 119 13.5t85.5 51t65 103t48.5 170.5q26 127 26 211 q0 129 -58.5 176t-180.5 47q-72 0 -121 -14t-89.5 -51t-67.5 -101t-48 -165q-29 -142 -29 -215z" />
<glyph unicode="&#xff;" horiz-adv-x="1153" d="M37 -358l69 182q131 -8 318 -8q137 0 207.5 60.5t105.5 211.5l8 35q-89 -86 -266 -86q-183 0 -283 81.5t-100 239.5q0 46 13 113l112 588h211l-113 -588q-10 -65 -10 -90q0 -90 48.5 -128t150.5 -38q151 0 213.5 52t91.5 206l113 586h211l-185 -953 q-50 -253 -169.5 -360.5t-358.5 -107.5q-289 0 -387 4zM424 1337q0 152 145 152q107 0 107 -90q0 -152 -146 -152q-106 0 -106 90zM776 1337q0 152 146 152q106 0 106 -90q0 -152 -145 -152q-107 0 -107 90z" />
<glyph unicode="&#x152;" horiz-adv-x="2004" d="M106 492q0 94 27 256q29 169 79.5 292.5t118 203.5t162 128t200.5 67t245 19h1141l-74 -192h-727l-82 -420h713l-74 -193h-676l-90 -460h805l-74 -193h-1091q-315 0 -459 116.5t-144 375.5zM330 487q0 -89 22 -147t72.5 -90t118 -44.5t172.5 -12.5h143l207 1073h-150 q-90 0 -153 -7t-122.5 -28t-100 -57.5t-76.5 -96.5t-61 -144.5t-46 -201.5q-26 -142 -26 -244z" />
<glyph unicode="&#x153;" horiz-adv-x="1835" d="M76 354q0 83 22 209q51 272 178.5 400.5t376.5 128.5q291 0 369 -183q71 96 168 139.5t231 43.5q189 0 285 -72t96 -205q0 -43 -12 -96q-33 -145 -140.5 -212t-332.5 -67h-260q-4 -36 -4 -55q0 -111 59 -162t193 -51q192 0 329 10l-67 -176q-113 -10 -283 -10 q-272 0 -364 162q-66 -100 -166.5 -145.5t-253.5 -45.5q-208 0 -316 89.5t-108 297.5zM287 360q0 -123 57 -170t184 -47q151 0 216.5 71.5t105.5 272.5q27 126 27 213q0 121 -57 168t-183 47q-150 0 -217 -72t-107 -272q-26 -143 -26 -211zM1085 604h232q141 0 194 27.5 t74 99.5q12 40 12 74q0 59 -45 88t-147 29q-136 0 -208.5 -69.5t-111.5 -248.5z" />
<glyph unicode="&#x178;" horiz-adv-x="1306" d="M201 1458h221l258 -667l541 667h241l-698 -848l-119 -610h-215l119 608zM532 1673q0 77 39 114.5t109 37.5q108 0 108 -96q0 -75 -35 -112.5t-112 -37.5q-109 0 -109 94zM913 1673q0 77 39 114.5t109 37.5q108 0 108 -96q0 -75 -35 -112.5t-112 -37.5q-109 0 -109 94z " />
<glyph unicode="&#x2c6;" horiz-adv-x="1024" d="M315 1227l267 260h225l164 -260h-191l-102 147l-160 -147h-203z" />
<glyph unicode="&#x2dc;" horiz-adv-x="1024" d="M317 1223l11 51q24 116 70.5 159.5t129.5 43.5q75 0 150 -41l61 -31q53 -23 76 -23q24 0 36.5 13.5t22.5 54.5l7 27h151l-10 -52q-23 -115 -71.5 -158.5t-129.5 -43.5q-74 0 -149 41l-62 30q-2 1 -16 7.5t-19.5 8.5t-17 4.5t-22.5 2.5q-24 0 -37 -13.5t-23 -54.5l-6 -26 h-152z" />
<glyph unicode="&#x2000;" horiz-adv-x="929" />
<glyph unicode="&#x2001;" horiz-adv-x="1858" />
<glyph unicode="&#x2002;" horiz-adv-x="929" />
<glyph unicode="&#x2003;" horiz-adv-x="1858" />
<glyph unicode="&#x2004;" horiz-adv-x="619" />
<glyph unicode="&#x2005;" horiz-adv-x="464" />
<glyph unicode="&#x2006;" horiz-adv-x="309" />
<glyph unicode="&#x2007;" horiz-adv-x="309" />
<glyph unicode="&#x2008;" horiz-adv-x="232" />
<glyph unicode="&#x2009;" horiz-adv-x="371" />
<glyph unicode="&#x200a;" horiz-adv-x="103" />
<glyph unicode="&#x2010;" horiz-adv-x="706" d="M41 492l74 192h581l-73 -192h-582z" />
<glyph unicode="&#x2011;" horiz-adv-x="706" d="M41 492l74 192h581l-73 -192h-582z" />
<glyph unicode="&#x2012;" horiz-adv-x="706" d="M41 492l74 192h581l-73 -192h-582z" />
<glyph unicode="&#x2013;" horiz-adv-x="1024" d="M-18 475l36 191h1024l-38 -191h-1022z" />
<glyph unicode="&#x2014;" horiz-adv-x="2048" d="M-18 475l36 191h2048l-38 -191h-2046z" />
<glyph unicode="&#x2018;" horiz-adv-x="495" d="M197 1073q0 51 21.5 95.5t90.5 144.5l150 209h135l-172 -308q43 -25 43 -88q0 -86 -35 -123.5t-115 -37.5q-118 0 -118 108z" />
<glyph unicode="&#x2019;" horiz-adv-x="495" d="M166 965l170 307q-41 27 -41 88q0 86 35 124t114 38q119 0 119 -109q0 -51 -21.5 -94.5t-90.5 -144.5l-150 -209h-135z" />
<glyph unicode="&#x201a;" horiz-adv-x="425" d="M-115 -324l170 308q-41 27 -41 88q0 86 35 123.5t115 37.5q119 0 119 -108q0 -51 -21.5 -95t-91.5 -145l-150 -209h-135z" />
<glyph unicode="&#x201c;" horiz-adv-x="905" d="M197 1073q0 51 21.5 95.5t90.5 144.5l150 209h135l-172 -308q43 -25 43 -88q0 -86 -35 -123.5t-115 -37.5q-118 0 -118 108zM606 1073q0 51 21.5 95t91.5 145l149 209h136l-173 -308q43 -25 43 -88q0 -86 -34.5 -123.5t-114.5 -37.5q-119 0 -119 108z" />
<glyph unicode="&#x201d;" horiz-adv-x="905" d="M166 965l170 307q-41 27 -41 88q0 86 35 124t114 38q119 0 119 -109q0 -51 -21.5 -94.5t-90.5 -144.5l-150 -209h-135zM575 965l170 307q-40 26 -40 88q0 86 35 124t114 38q119 0 119 -109q0 -51 -21.5 -94t-91.5 -145l-149 -209h-136z" />
<glyph unicode="&#x201e;" horiz-adv-x="835" d="M-113 -322l170 308q-41 27 -41 88q0 86 35 124t115 38q119 0 119 -109q0 -51 -21.5 -95t-91.5 -145l-149 -209h-136zM295 -322l170 308q-41 27 -41 88q0 86 35 124t114 38q119 0 119 -109q0 -51 -21.5 -95.5t-90.5 -144.5l-150 -209h-135z" />
<glyph unicode="&#x2022;" horiz-adv-x="860" d="M174 573q0 132 59 194t197 62t197 -62t59 -194t-59 -194t-197 -62t-197 62t-59 194z" />
<glyph unicode="&#x2026;" horiz-adv-x="2048" d="M123 98q0 91 36.5 130.5t121.5 39.5q125 0 125 -112q0 -91 -36.5 -130.5t-121.5 -39.5q-125 0 -125 112zM807 98q0 91 36.5 130.5t121.5 39.5q125 0 125 -112q0 -91 -36.5 -130.5t-121.5 -39.5q-125 0 -125 112zM1489 98q0 91 36.5 130.5t121.5 39.5q125 0 125 -112 q0 -91 -36.5 -130.5t-121.5 -39.5q-125 0 -125 112z" />
<glyph unicode="&#x202f;" horiz-adv-x="371" />
<glyph unicode="&#x2039;" horiz-adv-x="641" d="M49 420l43 223l545 348l-47 -235l-365 -232l277 -229l-43 -223z" />
<glyph unicode="&#x203a;" horiz-adv-x="641" d="M6 72l47 235l365 232l-277 229l43 223l410 -348l-43 -223z" />
<glyph unicode="&#x205f;" horiz-adv-x="464" />
<glyph unicode="&#x20ac;" d="M59 440l64 162h117l14 92q7 44 20 99h-145l61 161h127q43 127 103.5 212t146 135t188.5 71t244 21q115 0 252 -7l-69 -184q-88 6 -201 6q-200 0 -298.5 -52t-158.5 -202h545l-61 -161h-533q-13 -55 -20 -99l-15 -92h561l-63 -162h-510q4 -145 85.5 -200.5t272.5 -55.5 q74 0 258 4l-67 -184q-56 -4 -213 -4q-289 0 -413 110.5t-124 329.5h-168z" />
<glyph unicode="&#x2122;" horiz-adv-x="1705" d="M176 1317l57 141h656l-58 -141h-229l-121 -621h-170l121 621h-256zM831 696l150 762h162l145 -381l283 381h190l-149 -762h-164l100 510l-231 -301h-113l-112 301l-101 -510h-160z" />
<glyph unicode="&#x25fc;" horiz-adv-x="1054" d="M0 0v1055h1055v-1055h-1055z" />
</font>
</defs>
</svg>
