<?xml version="1.0" standalone="no"?>
<!DOCTYPE svg PUBLIC "-//W3C//DTD SVG 1.1//EN" "http://www.w3.org/Graphics/SVG/1.1/DTD/svg11.dtd" >
<svg xmlns="http://www.w3.org/2000/svg">
<metadata></metadata>
<defs>
<font id="prometoblack" horiz-adv-x="1218" >
<font-face units-per-em="2048" ascent="1638" descent="-410" />
<missing-glyph horiz-adv-x="430" />
<glyph unicode="&#xfb01;" horiz-adv-x="1380" d="M76 0v1030q0 136 30.5 227t103.5 152.5t192.5 89t299.5 27.5q259 0 408 -4l-57 -322q-184 4 -328 4q-114 0 -156.5 -29.5t-42.5 -117.5h256l-59 -320h-197v-737h-450zM854 0v1085h451v-1085h-451z" />
<glyph unicode="&#xfb02;" horiz-adv-x="1382" d="M76 0v1034q0 140 33 235t103.5 151.5t169.5 81t241 24.5q98 0 168 -4l-58 -320q-39 2 -57 2q-90 0 -120 -30.5t-30 -116.5h226l-60 -320h-166v-737h-450zM856 0v1522h451v-1522h-451z" />
<glyph unicode="&#xfb03;" horiz-adv-x="2158" d="M76 0v1034q0 140 33 235t103.5 151.5t169.5 81t241 24.5q141 0 219 -4l-58 -320q-59 2 -108 2q-91 0 -120.5 -28.5t-29.5 -118.5h250l-59 -320h-191v-737h-450zM854 0v1030q0 136 31 227t104 152.5t192.5 89t299.5 27.5q270 0 407 -4l-57 -322q-184 4 -328 4 q-114 0 -156 -29.5t-42 -117.5h256l-60 -320h-196v-737h-451zM1632 0v1085h451v-1085h-451z" />
<glyph unicode="&#xfb04;" horiz-adv-x="2162" d="M76 0v1034q0 140 33 235t103.5 151.5t169.5 81t241 24.5q121 0 219 -4l-58 -320q-59 2 -108 2q-91 0 -120.5 -28.5t-29.5 -118.5h250l-59 -320h-191v-737h-450zM856 0v1034q0 140 33 235t103.5 151.5t169.5 81t241 24.5q99 0 168 -4l-58 -320q-39 2 -57 2 q-89 0 -119 -30.5t-30 -116.5h225l-59 -320h-166v-737h-451zM1636 0v1522h451v-1522h-451z" />
<glyph horiz-adv-x="0" />
<glyph horiz-adv-x="682" />
<glyph horiz-adv-x="0" />
<glyph horiz-adv-x="0" />
<glyph unicode="&#x9;" horiz-adv-x="430" />
<glyph unicode=" "  horiz-adv-x="430" />
<glyph unicode="&#x09;" horiz-adv-x="430" />
<glyph unicode="&#xa0;" horiz-adv-x="430" />
<glyph unicode="!" horiz-adv-x="622" d="M76 1065v393h471v-393q0 -196 -21 -393l-22 -197h-385l-23 197q-20 188 -20 393zM80 178q0 203 231 203q232 0 232 -203q0 -205 -232 -205q-231 0 -231 205z" />
<glyph unicode="&#x22;" horiz-adv-x="999" d="M20 1294v228h410v-228q0 -155 -12 -245l-21 -232h-344l-20 232q-13 97 -13 245zM569 1294v228h410v-228q0 -155 -12 -245l-21 -232h-344l-20 232q-13 97 -13 245z" />
<glyph unicode="#" horiz-adv-x="1443" d="M16 264l62 332h164l26 201h-184l61 331h166l37 265h385l-37 -265h166l37 265h383l-37 -265h182l-61 -331h-166l-26 -201h186l-62 -332h-170l-34 -264h-381l35 264h-168l-35 -264h-383l35 264h-181zM625 596h168l26 201h-168z" />
<glyph unicode="$" d="M14 973q0 207 109 310t332 114v233h311v-233q257 0 362 -4l-63 -353q-28 0 -212 2t-306 2q-52 0 -74 -15.5t-22 -55.5q0 -39 19.5 -55t82.5 -23l190 -23q175 -21 276.5 -74t143 -137.5t41.5 -216.5q0 -117 -27.5 -199t-85.5 -133t-137.5 -77t-191.5 -35v-227h-311v223 q-250 0 -414 4l63 350q66 0 257.5 -1t273.5 -1q85 0 111 14.5t26 63.5q0 42 -21 59t-81 23l-232 27q-121 15 -201.5 46.5t-129 86t-69 127.5t-20.5 178z" />
<glyph unicode="%" horiz-adv-x="2045" d="M27 932v131q0 191 89 272.5t298 81.5t298 -81.5t89 -272.5v-131q0 -191 -89 -272.5t-298 -81.5t-298 81.5t-89 272.5zM350 932q0 -69 13 -89t51 -20t50.5 19.5t12.5 89.5v131q0 70 -12.5 89t-50.5 19q-39 0 -51.5 -19.5t-12.5 -88.5v-131zM426 0l813 1393h377l-813 -1393 h-377zM1245 336v131q0 191 89 272.5t298 81.5t298 -81.5t89 -272.5v-131q0 -191 -89 -272.5t-298 -81.5t-298 81.5t-89 272.5zM1569 336q0 -70 12.5 -89.5t50.5 -19.5t51 20t13 89v131q0 69 -12.5 88.5t-51.5 19.5q-38 0 -50.5 -19t-12.5 -89v-131z" />
<glyph unicode="&#x26;" horiz-adv-x="1361" d="M41 389v23q0 128 50.5 217t152.5 123q-96 45 -137 125.5t-41 197.5v27q0 87 29 152t91 112.5t165.5 71.5t248.5 24q280 0 410 -4l-58 -323q-95 4 -313 4q-75 0 -99 -19.5t-24 -81.5v-10q0 -61 24 -80.5t99 -19.5h713l-60 -324h-82v-354q0 -139 -62 -194.5t-202 -55.5 h-391q-190 0 -304.5 45t-162 128.5t-47.5 215.5zM504 453q0 -77 28 -103t107 -26h141v280h-141q-79 0 -107 -26t-28 -103v-22z" />
<glyph unicode="'" horiz-adv-x="450" d="M20 1294v228h410v-228q0 -155 -12 -245l-21 -232h-344l-20 232q-13 97 -13 245z" />
<glyph unicode="(" horiz-adv-x="841" d="M53 342v416q0 195 33 325t110.5 215.5t200 122.5t305.5 37h129l-59 -321h-39q-64 0 -103.5 -8.5t-70.5 -30.5t-46.5 -66.5t-22.5 -108.5t-7 -165v-416q0 -101 7.5 -165t22.5 -108.5t46 -66.5t71 -30.5t105 -8.5h96l-59 -321h-74q-190 0 -311.5 34t-197.5 118t-106 214 t-30 334z" />
<glyph unicode=")" horiz-adv-x="841" d="M10 -358l60 321h39q53 0 88.5 5t65 21t46.5 41t29 69t16 101.5t4 141.5v416q0 101 -7.5 165t-22.5 108.5t-46 66.5t-71 30.5t-105 8.5h-96l60 321h73q190 0 311.5 -34t197.5 -118t106 -214t30 -334v-416q0 -195 -33 -325t-110.5 -215.5t-200 -122.5t-305.5 -37h-129z" />
<glyph unicode="*" horiz-adv-x="978" d="M0 1042l100 310l219 -90l-12 231h365l-13 -229l220 88l100 -310l-238 -67l150 -182l-281 -201l-121 180l-120 -180l-281 201l150 182z" />
<glyph unicode="+" d="M94 516v367h318v317h395v-317h317v-367h-317v-317h-395v317h-318z" />
<glyph unicode="," horiz-adv-x="491" d="M-51 -334l129 385q-55 49 -55 150q0 196 223 196t223 -196q0 -63 -31.5 -144.5t-101.5 -220.5l-86 -170h-301z" />
<glyph unicode="-" horiz-adv-x="878" d="M12 416l72 387h782l-71 -387h-783z" />
<glyph unicode="." horiz-adv-x="491" d="M14 184q0 106 55.5 158.5t176.5 52.5t176 -52.5t55 -158.5t-55 -158.5t-176 -52.5t-176.5 52.5t-55.5 158.5z" />
<glyph unicode="/" horiz-adv-x="950" d="M4 0l490 1458h452l-489 -1458h-453z" />
<glyph unicode="0" horiz-adv-x="1269" d="M66 535v323q0 314 127 440.5t442 126.5t442 -126.5t127 -440.5v-323q0 -314 -127 -441t-442 -127t-442 127t-127 441zM524 535q0 -135 20 -178.5t91 -43.5t90.5 43t19.5 179v323q0 136 -19.5 178.5t-90.5 42.5t-91 -43t-20 -178v-323z" />
<glyph unicode="1" horiz-adv-x="983" d="M20 0l64 342h190v709h-241l63 342h633v-1051h244l-64 -342h-889z" />
<glyph unicode="2" horiz-adv-x="1167" d="M53 0v283q0 142 31.5 235t95.5 152t178 110l209 94q67 30 86 48.5t19 54.5q0 37 -23 53.5t-76 16.5q-52 0 -234 -2.5t-269 -2.5l63 351q246 4 512 4q241 0 354 -90t113 -267v-39q0 -148 -63.5 -248t-217.5 -163l-262 -109q-71 -30 -71 -112v-17h624l-63 -352h-1006z" />
<glyph unicode="3" horiz-adv-x="1132" d="M20 0l62 342q91 -4 440 -4q65 0 91 22t26 70v10q0 48 -26 70t-91 22h-389l60 328h309q60 0 86 22t26 68v15q0 44 -26 66t-86 22q-32 0 -188 -1t-257 -1l62 342q60 0 223 2t287 2q230 0 335 -88t105 -265v-36q0 -95 -32.5 -163t-108.5 -118q164 -93 164 -303v-29 q0 -212 -126.5 -305.5t-416.5 -93.5q-399 0 -529 4z" />
<glyph unicode="4" horiz-adv-x="1224" d="M41 236v278l360 879h437l-357 -822h185v299l411 64v-363h137l-61 -335h-76v-236h-411v236h-625z" />
<glyph unicode="5" horiz-adv-x="1150" d="M31 0l61 342q91 -4 404 -4q76 0 106.5 24.5t30.5 81.5v11q0 57 -30.5 81.5t-106.5 24.5h-420v832h950l-61 -342h-484v-158h78q288 0 404 -92.5t116 -325.5v-43q0 -124 -28 -204.5t-98 -133.5t-183.5 -75.5t-288.5 -22.5q-347 0 -450 4z" />
<glyph unicode="6" horiz-adv-x="1204" d="M66 469v319q0 178 32 292t110.5 186.5t201 101.5t313.5 29q215 0 358 -4l-63 -346q-250 4 -299 4q-131 0 -180.5 -35t-49.5 -119v-10q70 39 218 39q228 0 337 -107t109 -358v-31q0 -249 -129.5 -356t-409.5 -107q-284 0 -416 116t-132 386zM489 430q0 -75 27.5 -105 t93.5 -30t93.5 30t27.5 105v41q0 75 -27.5 105t-93.5 30t-93.5 -30t-27.5 -105v-41z" />
<glyph unicode="7" horiz-adv-x="1097" d="M20 1028l66 365h981v-295l-381 -1098h-471l385 1028h-580z" />
<glyph unicode="8" horiz-adv-x="1220" d="M51 369v32q0 107 48.5 191.5t144.5 134.5q-77 48 -119.5 122.5t-42.5 166.5v33q0 376 528 376q529 0 529 -376v-33q0 -92 -42.5 -166.5t-119.5 -122.5q96 -50 144 -134.5t48 -191.5v-32q0 -134 -52.5 -220.5t-177.5 -134t-329 -47.5q-154 0 -262.5 26t-173.5 78t-94 125 t-29 173zM479 408q0 -68 27.5 -95.5t103.5 -27.5t103.5 27.5t27.5 95.5v28q0 68 -27.5 95.5t-103.5 27.5t-103.5 -27.5t-27.5 -95.5v-28zM487 975q0 -57 28.5 -82t94.5 -25t94.5 25t28.5 82v31q0 57 -28.5 81.5t-94.5 24.5t-94.5 -24.5t-28.5 -81.5v-31z" />
<glyph unicode="9" horiz-adv-x="1200" d="M49 932v31q0 249 129 355.5t410 106.5q284 0 416.5 -115.5t132.5 -385.5v-320q0 -178 -32 -292t-111 -186t-201.5 -101t-313.5 -29q-215 0 -358 4l63 346q250 -4 299 -4q131 0 180.5 35t49.5 119v10q-70 -39 -217 -39q-228 0 -337.5 107t-109.5 358zM471 922 q0 -75 27.5 -105.5t93.5 -30.5t93.5 30.5t27.5 105.5v41q0 75 -27.5 105t-93.5 30t-93.5 -30t-27.5 -105v-41z" />
<glyph unicode=":" horiz-adv-x="491" d="M14 184q0 106 55.5 158.5t176.5 52.5t176 -52.5t55 -158.5t-55 -158.5t-176 -52.5t-176.5 52.5t-55.5 158.5zM14 885q0 106 55.5 158.5t176.5 52.5t176 -52.5t55 -158.5t-55 -158.5t-176 -52.5t-176.5 52.5t-55.5 158.5z" />
<glyph unicode=";" horiz-adv-x="491" d="M-51 -334l129 385q-55 49 -55 150q0 196 223 196t223 -196q0 -63 -31.5 -144.5t-101.5 -220.5l-86 -170h-301zM16 885q0 106 55.5 158.5t176.5 52.5t176 -52.5t55 -158.5t-55 -158.5t-176 -52.5t-176.5 52.5t-55.5 158.5z" />
<glyph unicode="&#x3c;" d="M166 496v405l885 344v-381l-500 -166l500 -163v-381z" />
<glyph unicode="=" d="M135 281v348h948v-348h-948zM135 770v348h948v-348h-948z" />
<glyph unicode="&#x3e;" d="M168 154v381l500 163l-500 166v381l885 -344v-405z" />
<glyph unicode="?" horiz-adv-x="1005" d="M0 1106l66 358q111 4 438 4q253 0 367 -97.5t114 -313.5v-10q0 -139 -43.5 -220.5t-150.5 -130.5l-91 -41q-76 -34 -100.5 -64t-24.5 -99v-25h-423v25q0 123 22.5 196t70 117t138.5 84l86 39q35 16 47 37.5t12 56.5q0 50 -24.5 69t-87.5 19q-313 0 -416 -4zM133 178 q0 203 232 203q231 0 231 -203q0 -205 -231 -205q-232 0 -232 205z" />
<glyph unicode="@" horiz-adv-x="1746" d="M66 244v229q0 157 32.5 270.5t97.5 193t172.5 127t247 68.5t330.5 21q276 0 433 -49.5t224.5 -155.5t67.5 -291v-407q0 -139 -60.5 -194.5t-199.5 -55.5h-395q-115 0 -194.5 23.5t-122.5 70t-60.5 102.5t-17.5 132v28q0 167 94.5 245.5t298.5 78.5q151 0 237 -45v20 q0 59 -21.5 90.5t-92 49.5t-207.5 18t-218.5 -13.5t-136.5 -52t-75.5 -103t-20.5 -171.5v-229q0 -75 7.5 -128t27 -96t50 -70t80 -45t113.5 -25t154 -7q483 0 633 4l-61 -340q-143 -4 -555 -4q-187 0 -321 20t-240.5 68t-170.5 129.5t-97 203t-33 290.5zM1042 338 q0 -43 20 -60.5t68 -17.5h117v84q0 48 -24.5 69t-81.5 21q-56 0 -77.5 -17.5t-21.5 -56.5v-22z" />
<glyph unicode="A" horiz-adv-x="1583" d="M10 0l492 1458h577l494 -1458h-494l-80 279h-438l-76 -279h-475zM659 633h242l-123 434z" />
<glyph unicode="B" horiz-adv-x="1374" d="M86 0v1458h754q232 0 341 -90.5t109 -271.5v-31q0 -201 -157 -289q100 -44 150 -123t50 -204v-39q0 -215 -129.5 -312.5t-406.5 -97.5h-711zM516 344h227q80 0 113 23.5t33 87.5v26q0 64 -33 87.5t-113 23.5h-227v-248zM516 907h211q66 0 92.5 20.5t26.5 71.5v19 q0 52 -27 74t-92 22h-211v-207z" />
<glyph unicode="C" horiz-adv-x="1249" d="M70 633v194q0 341 164 488t544 147q246 0 410 -4l-72 -391q-121 2 -299 2q-82 0 -130.5 -11t-78 -40.5t-39.5 -73t-10 -117.5v-196q0 -74 10 -117.5t39.5 -73t78 -40.5t130.5 -11q223 0 383 4l-72 -393q-133 -4 -350 -4q-195 0 -325 31.5t-218 106t-126.5 196 t-38.5 303.5z" />
<glyph unicode="D" horiz-adv-x="1505" d="M86 0v1458h686q193 0 322 -37.5t204.5 -119t106.5 -196t31 -282.5v-186q0 -126 -19.5 -222.5t-65 -176.5t-120 -131t-186.5 -79t-261 -28h-698zM549 393h166q132 0 181.5 51t49.5 191v188q0 140 -49.5 191t-181.5 51h-166v-672z" />
<glyph unicode="E" horiz-adv-x="1265" d="M86 0v1458h1141l-68 -366h-618v-174h604l-68 -363h-536v-188h704l-67 -367h-1092z" />
<glyph unicode="F" horiz-adv-x="1187" d="M86 0v1458h1102l-68 -371h-579v-223h544l-65 -356h-479v-508h-455z" />
<glyph unicode="G" horiz-adv-x="1425" d="M70 633v194q0 178 41.5 297.5t136 195.5t239 109t359.5 33q335 0 481 -4l-72 -385q-195 4 -452 4q-153 0 -205.5 -50t-52.5 -196v-198q0 -150 47.5 -201t179.5 -51h154v158h-181l62 335h557v-628q0 -115 -46 -170.5t-147 -69.5q-74 -10 -372 -10q-207 0 -341 29.5 t-223.5 104t-127 195.5t-37.5 308z" />
<glyph unicode="H" horiz-adv-x="1519" d="M86 0v1458h475v-512h397v512h476v-1458h-476v530h-397v-530h-475z" />
<glyph unicode="I" horiz-adv-x="647" d="M86 0v1458h475v-1458h-475z" />
<glyph unicode="J" horiz-adv-x="997" d="M10 0l70 387q110 -4 172 -4q113 0 150.5 36.5t37.5 143.5v895h475v-895q0 -303 -118 -435t-375 -132q-303 0 -412 4z" />
<glyph unicode="K" horiz-adv-x="1486" d="M86 0v1458h455v-557l370 557h527l-506 -692l571 -766h-577l-385 563v-563h-455z" />
<glyph unicode="L" horiz-adv-x="1198" d="M86 0v1458h455v-1071h647l-72 -387h-1030z" />
<glyph unicode="M" horiz-adv-x="1728" d="M86 0v1458h498l284 -641l285 641h489v-1458h-432v768l-163 -371h-365l-164 369v-766h-432z" />
<glyph unicode="N" horiz-adv-x="1507" d="M86 0v1458h371l528 -727v727h436v-1458h-372l-523 713v-713h-440z" />
<glyph unicode="O" horiz-adv-x="1556" d="M70 610v242q0 353 163 500t545 147t545.5 -147t163.5 -500v-242q0 -180 -39 -302.5t-126 -199.5t-219 -111t-325 -34q-257 0 -410 62.5t-225.5 203.5t-72.5 381zM559 610q0 -153 43 -203.5t176 -50.5t176 50.5t43 203.5v242q0 153 -43 203.5t-176 50.5t-176 -50.5 t-43 -203.5v-242z" />
<glyph unicode="P" horiz-adv-x="1368" d="M86 0v1458h623q338 0 478 -110t140 -379v-76q0 -122 -33.5 -211t-107 -152.5t-194 -95t-290.5 -31.5h-153v-403h-463zM549 768h129q106 0 145 31t39 116v29q0 83 -39.5 115.5t-144.5 32.5h-129v-324z" />
<glyph unicode="Q" horiz-adv-x="1556" d="M70 610v242q0 353 163 500t545 147t545.5 -147t163.5 -500v-242q0 -255 -81.5 -399t-260.5 -201l299 -278h-514l-238 233q-334 17 -478 164t-144 481zM559 592q0 -153 43 -203.5t176 -50.5t176 50.5t43 203.5v260q0 153 -43 203.5t-176 50.5t-176 -50.5t-43 -203.5v-260z " />
<glyph unicode="R" horiz-adv-x="1390" d="M86 0v1458h631q337 0 473.5 -109t136.5 -376v-45q0 -282 -231 -400l295 -528h-498l-211 451h-143v-451h-453zM539 799h166q92 0 129.5 30t37.5 105v29q0 75 -37.5 105t-129.5 30h-166v-299z" />
<glyph unicode="S" horiz-adv-x="1251" d="M33 0l65 367q177 -5 514 -5q62 0 84.5 16.5t22.5 61.5q0 43 -17 57t-75 25l-146 27q-137 25 -222.5 58.5t-136.5 87.5t-70 123.5t-19 174.5v27q0 222 133.5 332t437.5 110q405 0 576 -4l-68 -366q-472 4 -500 4q-59 0 -80.5 -16t-21.5 -54q0 -40 15 -51.5t73 -22.5 l207 -39q120 -22 199.5 -58t126 -91t65 -123t18.5 -164v-26q0 -167 -57.5 -264.5t-190.5 -144t-364 -46.5q-375 0 -569 4z" />
<glyph unicode="T" horiz-adv-x="1415" d="M10 1071l72 387h1323l-72 -387h-387v-1071h-475v1071h-461z" />
<glyph unicode="U" horiz-adv-x="1490" d="M82 569v889h475v-889q0 -121 38 -167t150 -46q111 0 150 46.5t39 166.5v889h475v-889q0 -170 -35.5 -284.5t-116.5 -186.5t-204.5 -103.5t-307.5 -31.5t-307.5 31t-204 103.5t-116 187t-35.5 284.5z" />
<glyph unicode="V" horiz-adv-x="1486" d="M4 1458h512l236 -938l235 938h496l-459 -1458h-561z" />
<glyph unicode="W" horiz-adv-x="2058" d="M10 1458h494l145 -938l180 938h426l183 -940l145 940h465l-350 -1458h-508l-154 784l-149 -784h-527z" />
<glyph unicode="X" horiz-adv-x="1546" d="M0 0l506 776l-451 682h533l196 -360l197 360h510l-451 -682l506 -776h-534l-250 444l-248 -444h-514z" />
<glyph unicode="Y" horiz-adv-x="1470" d="M0 1458h520l221 -512l217 512h512l-499 -887v-571h-467v565z" />
<glyph unicode="Z" horiz-adv-x="1327" d="M41 0v315l627 772h-627l68 371h1146v-325l-622 -762h667l-67 -371h-1192z" />
<glyph unicode="[" horiz-adv-x="858" d="M86 -358v1816h768l-59 -325h-285v-1166h344l-59 -325h-709z" />
<glyph unicode="\" horiz-adv-x="950" d="M4 1458h453l489 -1458h-452z" />
<glyph unicode="]" horiz-adv-x="858" d="M4 -358l59 325h285v1166h-344l59 325h709v-1816h-768z" />
<glyph unicode="^" d="M31 797l342 661h473l342 -661h-416l-164 338l-162 -338h-415z" />
<glyph unicode="_" horiz-adv-x="1024" d="M0 -23h1024v-366h-1024v366z" />
<glyph unicode="`" horiz-adv-x="1024" d="M141 1528h467l228 -305h-400z" />
<glyph unicode="a" horiz-adv-x="1198" d="M51 328v28q0 166 97 245t305 79q159 0 249 -45v22q0 69 -32 99t-115 30q-309 0 -412 -4l56 303q205 5 403 5q135 0 228 -21t160.5 -70.5t99.5 -134t32 -209.5v-405q0 -139 -60.5 -194.5t-199.5 -55.5h-405q-118 0 -199.5 24t-125.5 69.5t-62.5 102t-18.5 132.5zM473 338 q0 -42 22.5 -60t73.5 -18h129v80q0 50 -24 72t-80 22h-27q-50 0 -72 -17.5t-22 -56.5v-22z" />
<glyph unicode="b" horiz-adv-x="1267" d="M76 467v1055h450v-451q81 43 222 43q83 0 149 -14t124.5 -50t97 -94t61 -149.5t22.5 -212.5v-109q0 -147 -34 -247t-106.5 -159.5t-175.5 -85.5t-251 -26q-304 0 -431.5 118.5t-127.5 381.5zM526 467q0 -92 24.5 -123t86.5 -31t86.5 31t24.5 123v147q0 91 -24.5 122.5 t-86.5 31.5t-86.5 -31.5t-24.5 -122.5v-147z" />
<glyph unicode="c" horiz-adv-x="1032" d="M66 487v111q0 262 130 377t435 115q169 0 352 -5l-61 -346q-142 4 -263 4q-83 0 -111 -30t-28 -115v-111q0 -86 27.5 -115.5t111.5 -29.5q219 0 328 4l-61 -346q-104 -4 -287 -4q-219 0 -344 51t-177 155.5t-52 284.5z" />
<glyph unicode="d" horiz-adv-x="1269" d="M66 485v109q0 121 23.5 212.5t63.5 149.5t100.5 94t128.5 50t153 14q137 0 208 -43v451h451v-1272q0 -139 -60.5 -194.5t-199.5 -55.5h-301q-137 0 -231.5 15.5t-161.5 48t-104 91t-53.5 137t-16.5 193.5zM520 500q0 -92 25 -123t88 -31h110v268q0 91 -25 122.5t-87 31.5 t-86.5 -31.5t-24.5 -122.5v-114z" />
<glyph unicode="e" horiz-adv-x="1169" d="M66 487v111q0 279 130 399.5t410 120.5q255 0 383.5 -99t128.5 -325v-37q0 -126 -44.5 -178.5t-172.5 -52.5h-403q0 -70 34 -98.5t123 -28.5q291 0 412 2l-55 -301q-196 -4 -412 -4q-292 0 -413 110.5t-121 380.5zM498 678h229q0 81 -26 109t-89 28t-88.5 -27.5 t-25.5 -109.5z" />
<glyph unicode="f" horiz-adv-x="806" d="M76 0v1014q0 151 31 249t103 157t178 82.5t269 23.5q88 0 232 -4l-58 -320q-113 2 -151 2q-89 0 -121.5 -32t-32.5 -115h308l-60 -320h-248v-737h-450z" />
<glyph unicode="g" horiz-adv-x="1267" d="M66 537v104q0 134 34 226t106.5 147.5t175.5 79.5t251 24q206 0 328.5 -49t176.5 -148t54 -262v-585q0 -156 -51.5 -249t-177 -140t-342.5 -47q-244 0 -459 4l59 327q179 -4 352 -4q95 0 131.5 25t36.5 98v8q-82 -39 -221 -39q-105 0 -183.5 22t-141.5 74.5t-96 148.5 t-33 235zM520 522q0 -77 24.5 -103t86.5 -26t86 26t24 103v131q0 77 -24 103t-86 26t-86.5 -26t-24.5 -103v-131z" />
<glyph unicode="h" horiz-adv-x="1245" d="M76 0v1522h450v-453q94 49 240 49q403 0 403 -381v-737h-450v645q0 65 -20.5 89t-75.5 24t-76 -24t-21 -89v-645h-450z" />
<glyph unicode="i" horiz-adv-x="602" d="M59 1364q0 98 50.5 140t191.5 42t191.5 -42t50.5 -140q0 -100 -50 -141t-192 -41t-192 41t-50 141zM76 0v1085h450v-1085h-450z" />
<glyph unicode="j" horiz-adv-x="602" d="M-199 -358l56 313q63 -2 112 -2q62 0 84.5 21.5t22.5 86.5v1024h450v-1019q0 -127 -22.5 -209.5t-75.5 -131.5t-130 -68t-196 -19q-192 0 -301 4zM59 1364q0 98 50.5 140t191.5 42t191.5 -42t50.5 -140q0 -100 -50 -141t-192 -41t-192 41t-50 141z" />
<glyph unicode="k" horiz-adv-x="1284" d="M76 0v1522h430v-795l260 358h500l-400 -493l428 -592h-510l-278 422v-422h-430z" />
<glyph unicode="l" horiz-adv-x="602" d="M76 0v1522h450v-1522h-450z" />
<glyph unicode="m" horiz-adv-x="1847" d="M76 0v659q0 131 34 222t101 142t151.5 73t198.5 22q129 0 214 -28.5t149 -90.5q64 62 151 90.5t221 28.5q112 0 195 -22t148.5 -73t99 -142t33.5 -222v-659h-451v645q0 65 -19 89t-67 24t-67 -24t-19 -89v-645h-451v645q0 65 -19 89t-67 24t-67 -24t-19 -89v-645h-450z " />
<glyph unicode="n" horiz-adv-x="1245" d="M76 0v645q0 139 28 229t95 145t167.5 77t256.5 22t256.5 -22t167 -77t94.5 -145t28 -229v-645h-450v645q0 65 -20.5 89t-75.5 24t-76 -24t-21 -89v-645h-450z" />
<glyph unicode="o" horiz-adv-x="1261" d="M66 487v111q0 289 126 404.5t439 115.5t439 -115.5t126 -404.5v-111q0 -289 -126 -404.5t-439 -115.5t-439 115.5t-126 404.5zM520 467q0 -92 24.5 -123t86.5 -31t86 31t24 123v151q0 91 -24 122.5t-86 31.5t-86.5 -31.5t-24.5 -122.5v-151z" />
<glyph unicode="p" horiz-adv-x="1267" d="M76 -358v976q0 265 135 382.5t440 117.5q295 0 423 -116.5t128 -401.5v-115q0 -121 -23 -212.5t-63 -149.5t-100.5 -94t-128 -50t-152.5 -14q-131 0 -209 35v-358h-450zM526 465q0 -92 24.5 -123t86.5 -31t86.5 31t24.5 123v153q0 91 -24.5 122.5t-86.5 31.5t-86.5 -31.5 t-24.5 -122.5v-153z" />
<glyph unicode="q" horiz-adv-x="1267" d="M66 485v115q0 147 34 247t106.5 159.5t175.5 85.5t251 26q304 0 431.5 -118.5t127.5 -381.5v-976h-451v366q-88 -43 -221 -43q-83 0 -149 14t-124.5 50t-97 94t-61 149.5t-22.5 212.5zM520 465q0 -92 24.5 -123t86.5 -31t86 31t24 123v153q0 91 -24 122.5t-86 31.5 t-86.5 -31.5t-24.5 -122.5v-153z" />
<glyph unicode="r" horiz-adv-x="833" d="M76 0v614q0 142 28.5 234t95.5 146.5t163.5 76t244.5 21.5q122 0 254 -5l-65 -360q-94 4 -140 4q-79 0 -105 -26.5t-26 -110.5v-594h-450z" />
<glyph unicode="s" horiz-adv-x="1093" d="M35 2l53 297q59 0 224.5 -2t234.5 -2q45 0 60.5 8.5t15.5 34.5q0 27 -13.5 34.5t-56.5 12.5l-150 10q-188 13 -271 94t-83 238v21q0 114 47 187t162 114t305 41q219 0 473 -5l-55 -299q-228 5 -434 5q-41 0 -54.5 -8.5t-13.5 -32.5q0 -22 12.5 -28t57.5 -11l135 -11 q197 -18 283 -90.5t86 -236.5v-19q0 -196 -120.5 -277t-395.5 -81q-324 0 -502 6z" />
<glyph unicode="t" horiz-adv-x="909" d="M76 465v864l450 57v-301h353l-58 -323h-295v-297q0 -78 27 -104.5t113 -26.5q70 0 184 4l-62 -338q-114 -4 -215 -4q-105 0 -178.5 8t-131 30t-92 54.5t-57 87.5t-30.5 123t-8 166z" />
<glyph unicode="u" horiz-adv-x="1245" d="M76 440v645h450v-645q0 -65 21 -88.5t76 -23.5t75.5 23.5t20.5 88.5v645h450v-645q0 -139 -28 -229t-94.5 -145t-167 -77t-256.5 -22t-256.5 22t-167.5 77t-95 145t-28 229z" />
<glyph unicode="v" horiz-adv-x="1214" d="M2 1085h487l129 -653l130 653h464l-327 -1085h-551z" />
<glyph unicode="w" horiz-adv-x="1697" d="M4 1085h463l86 -616l125 616h362l123 -616l86 616h445l-303 -1085h-426l-109 535l-106 -535h-443z" />
<glyph unicode="x" horiz-adv-x="1269" d="M10 0l369 557l-342 528h502l106 -227l111 227h475l-346 -522l375 -563h-500l-133 242l-133 -242h-484z" />
<glyph unicode="y" horiz-adv-x="1245" d="M76 438v647h450v-557q0 -65 21 -88.5t76 -23.5t75.5 23.5t20.5 88.5v557h450v-1011q0 -156 -51.5 -249t-177 -140t-342.5 -47q-313 0 -459 4l60 327q124 -4 352 -4q95 0 131.5 25t36.5 98v16q-89 -47 -240 -47q-205 0 -304 92t-99 289z" />
<glyph unicode="z" horiz-adv-x="1110" d="M41 756l59 329h942v-268l-424 -487h447l-59 -330h-955v266l414 490h-424z" />
<glyph unicode="{" horiz-adv-x="892" d="M10 379v344h62q57 0 79.5 31.5t22.5 95.5v207q0 151 49.5 237t162 125t310.5 39h176l-57 -317h-74q-87 0 -118 -30.5t-31 -115.5v-190q0 -77 -39.5 -145.5t-126.5 -108.5q87 -40 126.5 -108.5t39.5 -145.5v-193q0 -85 30.5 -115t118.5 -30h131l-57 -317h-119 q-198 0 -310.5 39t-162 125t-49.5 237v209q0 64 -22.5 95.5t-79.5 31.5h-62z" />
<glyph unicode="|" horiz-adv-x="630" d="M86 -358v1880h459v-1880h-459z" />
<glyph unicode="}" horiz-adv-x="892" d="M20 -358l58 317h74q88 0 118.5 30t30.5 115v193q0 77 39.5 145.5t126.5 108.5q-87 40 -126.5 108.5t-39.5 145.5v190q0 85 -31 115.5t-118 30.5h-132l58 317h119q198 0 310.5 -39t162 -125t49.5 -237v-207q0 -64 22.5 -95.5t79.5 -31.5h62v-344h-62q-57 0 -79.5 -31.5 t-22.5 -95.5v-209q0 -151 -49.5 -237t-162 -125t-310.5 -39h-177z" />
<glyph unicode="~" d="M55 442v62q0 244 81 354.5t237 110.5q26 0 49.5 -2.5t47.5 -9t38.5 -10.5t38.5 -16l31 -15.5t32 -17.5t27 -15l22 -13q4 -2 20 -10.5t22.5 -11.5t18.5 -8t22 -7t20 -2q69 0 69 87v36h330v-61q0 -246 -81 -355.5t-236 -109.5q-45 0 -89 10.5t-64 18.5t-63 31.5t-48 25.5 l-23 12q-66 39 -102 39q-70 0 -70 -86v-37h-330z" />
<glyph unicode="&#xa1;" horiz-adv-x="622" d="M76 4q0 206 20 393l23 197h385l22 -197q21 -197 21 -393v-393h-471v393zM80 891q0 205 231 205q232 0 232 -205q0 -203 -232 -203q-231 0 -231 203z" />
<glyph unicode="&#xa2;" d="M141 483v117q0 232 84 341t295 138v207h299v-196q39 0 120.5 -1.5t131.5 -1.5l-61 -337q-57 0 -152 1t-168 1q-86 0 -109.5 -27t-23.5 -125v-117q0 -91 26 -118t117 -27q76 0 188 1t187 1l-61 -338q-94 -4 -197 -4v-199h-299v207q-206 29 -291.5 137.5t-85.5 339.5z" />
<glyph unicode="&#xa3;" d="M51 0l62 332h108v217h-166l60 317h106v49q0 124 30 211.5t99.5 149.5t185.5 91.5t285 29.5q279 0 353 -4l-58 -320q-123 2 -270 2q-103 0 -141.5 -32.5t-38.5 -127.5v-49h360l-59 -317h-301v-217h526l-62 -332h-1079z" />
<glyph unicode="&#xa4;" d="M2 356l143 142q-53 103 -53 227q0 126 51 225l-141 144l234 235l159 -158q93 37 215 37q117 0 215 -37l160 158l234 -235l-144 -144q53 -103 53 -225q0 -124 -53 -227l144 -142l-238 -235l-160 158q-93 -37 -211 -37q-120 0 -213 37l-157 -158zM428 729q0 -90 43.5 -136 t138.5 -46q183 0 183 182t-183 182q-95 0 -138.5 -46t-43.5 -136z" />
<glyph unicode="&#xa5;" d="M-31 1393h502l129 -435l148 435h501l-311 -621h178v-215h-295v-104h295v-215h-295v-238h-440v238h-293v215h293v104h-293v215h182z" />
<glyph unicode="&#xa6;" horiz-adv-x="630" d="M86 -358v727h459v-727h-459zM86 795v727h459v-727h-459z" />
<glyph unicode="&#xa7;" horiz-adv-x="1204" d="M31 -373l59 334q58 0 210 -2t292 -2q52 0 72 14t20 54q0 31 -14.5 41.5t-57.5 15.5l-204 18q-363 33 -375 340v11q0 247 176 325q-96 53 -136 125t-40 178v13q0 370 534 370q428 0 570 -4l-62 -340q-164 4 -518 4q-45 0 -63.5 -13.5t-18.5 -41.5q0 -30 17 -44.5t63 -18.5 l219 -21q202 -19 293 -98t92 -242v-14q0 -224 -166 -305q166 -78 166 -285v-19q-3 -397 -551 -397q-28 0 -263.5 2t-313.5 2zM449 541q0 -61 22.5 -87t77.5 -32l16 -2q46 -4 70 -4q62 0 88.5 29.5t26.5 105.5q0 60 -23.5 85.5t-79.5 33.5l-12 2q-32 4 -72 4q-62 0 -88 -29.5 t-26 -105.5z" />
<glyph unicode="&#xa8;" horiz-adv-x="1024" d="M61 1354q0 174 203 174q205 0 205 -174q0 -172 -205 -172q-203 0 -203 172zM553 1354q0 174 203 174q205 0 205 -174q0 -172 -205 -172q-203 0 -203 172z" />
<glyph unicode="&#xa9;" horiz-adv-x="1753" d="M51 729q0 227 44.5 380.5t145 251.5t254.5 140.5t382 42.5t382 -42.5t254.5 -140.5t144.5 -251t44 -381t-44 -381t-144.5 -251t-254.5 -140.5t-382 -42.5t-382 42.5t-254.5 140.5t-145 251.5t-44.5 380.5zM317 729q0 -123 9.5 -208.5t35 -152.5t64.5 -107t104 -66 t146 -35.5t198 -9.5q118 0 199.5 9.5t147 35.5t104.5 66t65.5 107t36 152.5t9.5 208.5t-9.5 208.5t-36 152.5t-65.5 107.5t-104.5 66.5t-147 35.5t-199.5 9.5q-117 0 -198 -9.5t-146 -35.5t-104 -66.5t-64.5 -107.5t-35 -152.5t-9.5 -208.5zM489 682v96q0 117 21 190.5 t75.5 122.5t143.5 69t229 20q58 0 226 -4l-51 -279q-82 2 -175 2q-56 0 -76 -24t-20 -97v-96q0 -75 20 -98t76 -23q148 0 224 2l-52 -278q-106 -2 -172 -2q-138 0 -223 17t-142.5 62t-80.5 121.5t-23 198.5z" />
<glyph unicode="&#xaa;" horiz-adv-x="946" d="M31 870v23q0 136 79 200t250 64q124 0 199 -37v17q0 55 -26.5 77.5t-94.5 22.5q-247 0 -332 -4l46 248q126 4 327 4q222 0 324 -77.5t102 -272.5v-328q0 -114 -48.5 -157.5t-162.5 -43.5h-329q-98 0 -165 18.5t-103 55.5t-51 82.5t-15 107.5zM379 881q0 -35 17 -48.5 t59 -13.5h100v66q0 39 -20 54t-60 15h-22q-40 0 -57 -13.5t-17 -43.5v-16z" />
<glyph unicode="&#xab;" horiz-adv-x="1193" d="M51 317v443l492 303v-391l-248 -133l248 -133v-392zM631 317v443l491 303v-391l-248 -133l248 -133v-392z" />
<glyph unicode="&#xac;" d="M82 627v366h1014v-651h-396v285h-618z" />
<glyph unicode="&#xad;" horiz-adv-x="878" d="M12 416l72 387h782l-71 -387h-783z" />
<glyph unicode="&#xae;" horiz-adv-x="1236" d="M31 991q0 306 136 437t451 131t451.5 -131t136.5 -437t-136.5 -436.5t-451.5 -130.5t-451 130.5t-136 436.5zM227 991q0 -123 15.5 -195t61.5 -117.5t118 -61t196 -15.5q82 0 139.5 6.5t103 24t72.5 44.5t45.5 72.5t25 102.5t6.5 139t-6.5 139t-25 102.5t-45.5 72.5 t-72.5 44.5t-103 24t-139.5 6.5q-124 0 -196 -15.5t-118 -61t-61.5 -117.5t-15.5 -195zM377 721v551h248q143 0 199.5 -46t56.5 -163v-14q0 -102 -76 -148l90 -180h-221l-64 141h-32v-141h-201zM578 1008h47q33 0 46 8.5t13 36.5v10q0 29 -13 38t-46 9h-47v-102z" />
<glyph unicode="&#xaf;" horiz-adv-x="1024" d="M150 1223v280h724v-280h-724z" />
<glyph unicode="&#xb0;" horiz-adv-x="786" d="M20 1198q0 342 373 342t373 -342t-373 -342t-373 342zM285 1198q0 -61 24.5 -87t83.5 -26t83 26t24 87t-24 87t-83 26t-83.5 -26t-24.5 -87z" />
<glyph unicode="&#xb1;" d="M94 731v367h318v297h395v-297h317v-367h-317v-297h-395v297h-318zM135 0v356h948v-356h-948z" />
<glyph unicode="&#xb2;" horiz-adv-x="827" d="M82 590v170q0 113 39 181.5t137 102.5l127 43q27 10 34 18.5t7 27.5q0 21 -11.5 31t-41.5 10q-164 0 -273 -5l39 220q141 6 279 6q159 0 237 -54.5t78 -179.5v-28q0 -88 -39 -138t-133 -82l-110 -36q-58 -21 -58 -52v-10h350l-41 -225h-620z" />
<glyph unicode="&#xb3;" horiz-adv-x="827" d="M68 588l41 221q72 -2 270 -2q30 0 42.5 8t12.5 31v10q0 21 -12.5 30t-42.5 9h-244l37 201h205q28 0 39.5 7.5t11.5 29.5v8q0 22 -11 28.5t-40 6.5q-197 0 -285 -2l41 219q82 2 324 2q146 0 213 -50.5t67 -154.5v-12q0 -66 -20 -103t-64 -61q105 -44 105 -178v-17 q0 -119 -67.5 -175t-239.5 -56h-383z" />
<glyph unicode="&#xb4;" horiz-adv-x="1024" d="M166 1223l227 305h467l-295 -305h-399z" />
<glyph unicode="&#xb5;" horiz-adv-x="1265" d="M76 -358v1443h450v-622q0 -66 20 -89.5t77 -23.5h108v735h459v-835q0 -142 -71.5 -196t-256.5 -54h-141q-143 0 -201 31v-389h-444z" />
<glyph unicode="&#xb6;" horiz-adv-x="1400" d="M10 981v63q0 79 25 151.5t73.5 132t130.5 95t187 35.5h889v-1816h-338v1513h-150v-1513h-338v917h-30q-100 0 -180 26.5t-129 69t-81.5 99.5t-45.5 113t-13 114z" />
<glyph unicode="&#xb7;" horiz-adv-x="491" d="M14 698q0 106 55.5 158.5t176.5 52.5t176 -52.5t55 -158.5t-55 -158.5t-176 -52.5t-176.5 52.5t-55.5 158.5z" />
<glyph unicode="&#xb8;" horiz-adv-x="1024" d="M258 -514l33 182q72 -2 158 -2q40 0 53.5 10.5t13.5 40.5q0 28 -13.5 39t-53.5 11q-33 0 -121 -3l30 162q78 4 172 4q148 0 208.5 -48t60.5 -161v-10q0 -129 -64 -180t-221 -51q-150 0 -256 6z" />
<glyph unicode="&#xb9;" horiz-adv-x="827" d="M76 590l45 252h133v299h-164l45 252h455v-551h162l-45 -252h-631z" />
<glyph unicode="&#xba;" horiz-adv-x="962" d="M25 985v127q0 200 107 291.5t349 91.5t349.5 -91.5t107.5 -291.5v-127q0 -200 -107.5 -291.5t-349.5 -91.5t-349 91.5t-107 291.5zM393 981q0 -63 17.5 -85t70.5 -22t70.5 22t17.5 85v135q0 63 -17.5 85t-70.5 22t-70.5 -22t-17.5 -85v-135z" />
<glyph unicode="&#xbb;" horiz-adv-x="1193" d="M72 14v392l247 133l-247 133v391l491 -303v-443zM651 14v392l248 133l-248 133v391l492 -303v-443z" />
<glyph unicode="&#xbc;" horiz-adv-x="1996" d="M76 590l45 252h133v299h-164l45 252h455v-551h162l-45 -252h-631zM442 0l813 1393h377l-813 -1393h-377zM1196 133v215l221 455h297l-233 -443h114v144l277 39v-183h96l-41 -227h-53v-133h-279v133h-399z" />
<glyph unicode="&#xbd;" horiz-adv-x="1996" d="M76 590l45 252h133v299h-164l45 252h455v-551h162l-45 -252h-631zM416 0l813 1393h377l-813 -1393h-377zM1251 0v170q0 113 39 182t137 103l127 43q28 10 34.5 18t6.5 27q0 21 -11.5 31t-41.5 10q-185 0 -272 -4l39 219q141 6 278 6q159 0 237.5 -54.5t78.5 -179.5v-28 q0 -88 -39 -137.5t-133 -81.5l-111 -37q-57 -20 -57 -51v-11h350l-41 -225h-621z" />
<glyph unicode="&#xbe;" horiz-adv-x="1996" d="M68 588l41 221q72 -2 270 -2q30 0 42.5 8t12.5 31v10q0 21 -12.5 30t-42.5 9h-244l37 201h205q28 0 39.5 7.5t11.5 29.5v8q0 22 -11 28.5t-40 6.5q-197 0 -285 -2l41 219q82 2 324 2q146 0 213 -50.5t67 -154.5v-12q0 -66 -20 -103t-64 -61q105 -44 105 -178v-17 q0 -119 -67.5 -175t-239.5 -56h-383zM442 0l813 1393h377l-813 -1393h-377zM1196 133v215l221 455h297l-233 -443h114v144l277 39v-183h96l-41 -227h-53v-133h-279v133h-399z" />
<glyph unicode="&#xbf;" horiz-adv-x="1005" d="M20 12v11q0 139 44 220t151 130l90 41q75 34 100 64.5t25 99.5v24h424v-24q0 -179 -48.5 -259.5t-182.5 -138.5l-86 -39q-35 -16 -47.5 -37.5t-12.5 -56.5q0 -49 25 -68.5t88 -19.5q313 0 416 4l-66 -358q-111 -4 -438 -4q-253 0 -367.5 98t-114.5 313zM410 891 q0 205 231 205t231 -205q0 -203 -231 -203t-231 203z" />
<glyph unicode="&#xc0;" horiz-adv-x="1583" d="M10 0l492 1458h577l494 -1458h-494l-80 279h-438l-76 -279h-475zM362 1886h457l234 -305h-389zM659 633h242l-123 434z" />
<glyph unicode="&#xc1;" horiz-adv-x="1583" d="M10 0l492 1458h577l494 -1458h-494l-80 279h-438l-76 -279h-475zM549 1581l233 305h457l-301 -305h-389zM659 633h242l-123 434z" />
<glyph unicode="&#xc2;" horiz-adv-x="1583" d="M10 0l492 1458h577l494 -1458h-494l-80 279h-438l-76 -279h-475zM305 1581l264 303h445l262 -303h-377l-108 127l-109 -127h-377zM659 633h242l-123 434z" />
<glyph unicode="&#xc3;" horiz-adv-x="1583" d="M10 0l492 1458h577l494 -1458h-494l-80 279h-438l-76 -279h-475zM360 1563v10q0 182 58.5 262t179.5 80q95 0 201 -53l12 -7q69 -34 107 -34q27 0 40.5 14t14.5 57v11h248v-11q0 -181 -58.5 -260.5t-179.5 -79.5q-93 0 -201 54l-12 6q-71 35 -106 35q-28 0 -42 -14.5 t-14 -59.5v-10h-248zM659 633h242l-123 434z" />
<glyph unicode="&#xc4;" horiz-adv-x="1583" d="M10 0l492 1458h577l494 -1458h-494l-80 279h-438l-76 -279h-475zM336 1724q0 179 205 179q207 0 207 -179q0 -176 -207 -176q-205 0 -205 176zM659 633h242l-123 434zM836 1724q0 179 204 179q207 0 207 -179q0 -176 -207 -176q-204 0 -204 176z" />
<glyph unicode="&#xc5;" horiz-adv-x="1583" d="M10 0l490 1452q-15 44 -15 102q0 133 81.5 205t224.5 72t224 -72t81 -205q0 -44 -15 -102l492 -1452h-494l-80 279h-438l-76 -279h-475zM659 633h242l-123 434zM694 1554q0 -47 25 -72.5t72 -25.5q96 0 96 98q0 48 -24.5 73.5t-71.5 25.5t-72 -26t-25 -73z" />
<glyph unicode="&#xc6;" horiz-adv-x="2203" d="M0 0l756 1458h1409l-68 -366h-618v-174h604l-68 -363h-536v-188h704l-67 -367h-1092v301h-387l-135 -301h-502zM797 655h227v435h-31z" />
<glyph unicode="&#xc7;" horiz-adv-x="1249" d="M70 633v194q0 341 164 488t544 147q246 0 410 -4l-72 -391q-121 2 -299 2q-82 0 -130.5 -11t-78 -40.5t-39.5 -73t-10 -117.5v-196q0 -74 10 -117.5t39.5 -73t78 -40.5t130.5 -11q223 0 383 4l-72 -393q-133 -4 -350 -4q-195 0 -325 31.5t-218 106t-126.5 196 t-38.5 303.5zM410 -514l32 186q59 -2 166 -2q42 0 56 9t14 38q0 26 -14.5 35.5t-55.5 9.5q-74 0 -131 -2l33 166q60 4 195 4q147 0 205.5 -47.5t58.5 -161.5v-10q0 -130 -62 -180.5t-219 -50.5q-163 0 -278 6z" />
<glyph unicode="&#xc8;" horiz-adv-x="1265" d="M86 0v1458h1141l-68 -366h-618v-174h604l-68 -363h-536v-188h704l-67 -367h-1092zM248 1886h457l233 -305h-389z" />
<glyph unicode="&#xc9;" horiz-adv-x="1265" d="M86 0v1458h1141l-68 -366h-618v-174h604l-68 -363h-536v-188h704l-67 -367h-1092zM391 1581l234 305h456l-301 -305h-389z" />
<glyph unicode="&#xca;" horiz-adv-x="1265" d="M86 0v1458h1141l-68 -366h-618v-174h604l-68 -363h-536v-188h704l-67 -367h-1092zM152 1581l264 303h444l262 -303h-377l-108 127l-109 -127h-376z" />
<glyph unicode="&#xcb;" horiz-adv-x="1265" d="M86 0v1458h1141l-68 -366h-618v-174h604l-68 -363h-536v-188h704l-67 -367h-1092zM184 1724q0 179 205 179q207 0 207 -179q0 -176 -207 -176q-205 0 -205 176zM684 1724q0 179 205 179q207 0 207 -179q0 -176 -207 -176q-205 0 -205 176z" />
<glyph unicode="&#xcc;" horiz-adv-x="647" d="M-96 1886h456l234 -305h-389zM86 0v1458h475v-1458h-475z" />
<glyph unicode="&#xcd;" horiz-adv-x="647" d="M84 1581l233 305h457l-301 -305h-389zM86 0v1458h475v-1458h-475z" />
<glyph unicode="&#xce;" horiz-adv-x="647" d="M-160 1581l264 303h445l262 -303h-377l-108 127l-109 -127h-377zM86 0v1458h475v-1458h-475z" />
<glyph unicode="&#xcf;" horiz-adv-x="647" d="M-129 1724q0 179 205 179q207 0 207 -179q0 -176 -207 -176q-205 0 -205 176zM86 0v1458h475v-1458h-475zM371 1724q0 179 204 179q207 0 207 -179q0 -176 -207 -176q-204 0 -204 176z" />
<glyph unicode="&#xd0;" horiz-adv-x="1570" d="M10 588v303h142v567h686q193 0 322 -37.5t204 -119t106 -196t31 -282.5v-186q0 -126 -19 -222.5t-65 -176.5t-120 -131t-186 -79t-261 -28h-698v588h-142zM614 393h166q132 0 182 51t50 191v188q0 140 -50 191t-182 51h-166v-174h213v-303h-213v-195z" />
<glyph unicode="&#xd1;" horiz-adv-x="1507" d="M86 0v1458h371l528 -727v727h436v-1458h-372l-523 713v-713h-440zM336 1563v10q0 182 58 262t179 80q95 0 201 -53l12 -7q69 -34 107 -34q27 0 40.5 14t14.5 57v11h248v-11q0 -181 -58.5 -260.5t-179.5 -79.5q-92 0 -200 54l-13 6q-71 35 -106 35q-27 0 -41 -14.5 t-14 -59.5v-10h-248z" />
<glyph unicode="&#xd2;" horiz-adv-x="1556" d="M70 610v242q0 353 163 500t545 147t545.5 -147t163.5 -500v-242q0 -180 -39 -302.5t-126 -199.5t-219 -111t-325 -34q-257 0 -410 62.5t-225.5 203.5t-72.5 381zM324 1886h456l234 -305h-389zM559 610q0 -153 43 -203.5t176 -50.5t176 50.5t43 203.5v242q0 153 -43 203.5 t-176 50.5t-176 -50.5t-43 -203.5v-242z" />
<glyph unicode="&#xd3;" horiz-adv-x="1556" d="M70 610v242q0 353 163 500t545 147t545.5 -147t163.5 -500v-242q0 -180 -39 -302.5t-126 -199.5t-219 -111t-325 -34q-257 0 -410 62.5t-225.5 203.5t-72.5 381zM502 1581l233 305h457l-301 -305h-389zM559 610q0 -153 43 -203.5t176 -50.5t176 50.5t43 203.5v242 q0 153 -43 203.5t-176 50.5t-176 -50.5t-43 -203.5v-242z" />
<glyph unicode="&#xd4;" horiz-adv-x="1556" d="M70 610v242q0 353 163 500t545 147t545.5 -147t163.5 -500v-242q0 -180 -39 -302.5t-126 -199.5t-219 -111t-325 -34q-257 0 -410 62.5t-225.5 203.5t-72.5 381zM293 1581l264 303h444l263 -303h-377l-109 127l-108 -127h-377zM559 610q0 -153 43 -203.5t176 -50.5 t176 50.5t43 203.5v242q0 153 -43 203.5t-176 50.5t-176 -50.5t-43 -203.5v-242z" />
<glyph unicode="&#xd5;" horiz-adv-x="1556" d="M70 610v242q0 353 163 500t545 147t545.5 -147t163.5 -500v-242q0 -180 -39 -302.5t-126 -199.5t-219 -111t-325 -34q-257 0 -410 62.5t-225.5 203.5t-72.5 381zM348 1563v10q0 182 58.5 262t179.5 80q94 0 200 -53l13 -7q69 -34 106 -34q27 0 41 14t15 57v11h247v-11 q0 -181 -58 -260.5t-179 -79.5q-93 0 -201 54l-12 6q-71 35 -107 35q-27 0 -41 -14.5t-14 -59.5v-10h-248zM559 610q0 -153 43 -203.5t176 -50.5t176 50.5t43 203.5v242q0 153 -43 203.5t-176 50.5t-176 -50.5t-43 -203.5v-242z" />
<glyph unicode="&#xd6;" horiz-adv-x="1556" d="M70 610v242q0 353 163 500t545 147t545.5 -147t163.5 -500v-242q0 -180 -39 -302.5t-126 -199.5t-219 -111t-325 -34q-257 0 -410 62.5t-225.5 203.5t-72.5 381zM324 1724q0 179 204 179q207 0 207 -179q0 -176 -207 -176q-204 0 -204 176zM559 610q0 -153 43 -203.5 t176 -50.5t176 50.5t43 203.5v242q0 153 -43 203.5t-176 50.5t-176 -50.5t-43 -203.5v-242zM823 1724q0 179 205 179q207 0 207 -179q0 -176 -207 -176q-205 0 -205 176z" />
<glyph unicode="&#xd7;" d="M76 444l262 265l-252 252l268 268l254 -252l254 252l268 -268l-251 -252l262 -265l-269 -268l-264 264l-264 -264z" />
<glyph unicode="&#xd8;" horiz-adv-x="1556" d="M70 614v234q0 353 163 500t545 147q155 0 264 -20l91 170h249l-129 -246q122 -71 178 -204.5t56 -346.5v-234q0 -180 -39 -302.5t-126 -199.5t-219 -111t-325 -34q-156 0 -264 21l-90 -172h-250l129 245q-122 71 -177.5 205.5t-55.5 347.5zM524 606q0 -73 4 -112l340 649 q-40 6 -90 6q-81 0 -127.5 -11.5t-76.5 -46t-40 -88.5t-10 -147v-250zM686 317q40 -6 92 -6q154 0 204 58.5t50 236.5v250q0 56 -6 111z" />
<glyph unicode="&#xd9;" horiz-adv-x="1490" d="M82 569v889h475v-889q0 -121 38 -167t150 -46q111 0 150 46.5t39 166.5v889h475v-889q0 -170 -35.5 -284.5t-116.5 -186.5t-204.5 -103.5t-307.5 -31.5t-307.5 31t-204 103.5t-116 187t-35.5 284.5zM358 1886h457l234 -305h-390z" />
<glyph unicode="&#xda;" horiz-adv-x="1490" d="M82 569v889h475v-889q0 -121 38 -167t150 -46q111 0 150 46.5t39 166.5v889h475v-889q0 -170 -35.5 -284.5t-116.5 -186.5t-204.5 -103.5t-307.5 -31.5t-307.5 31t-204 103.5t-116 187t-35.5 284.5zM475 1581l234 305h456l-301 -305h-389z" />
<glyph unicode="&#xdb;" horiz-adv-x="1490" d="M82 569v889h475v-889q0 -121 38 -167t150 -46q111 0 150 46.5t39 166.5v889h475v-889q0 -170 -35.5 -284.5t-116.5 -186.5t-204.5 -103.5t-307.5 -31.5t-307.5 31t-204 103.5t-116 187t-35.5 284.5zM260 1581l264 303h445l262 -303h-377l-109 127l-108 -127h-377z" />
<glyph unicode="&#xdc;" horiz-adv-x="1490" d="M82 569v889h475v-889q0 -121 38 -167t150 -46q111 0 150 46.5t39 166.5v889h475v-889q0 -170 -35.5 -284.5t-116.5 -186.5t-204.5 -103.5t-307.5 -31.5t-307.5 31t-204 103.5t-116 187t-35.5 284.5zM291 1724q0 179 205 179q206 0 206 -179q0 -176 -206 -176 q-205 0 -205 176zM791 1724q0 179 204 179q207 0 207 -179q0 -176 -207 -176q-204 0 -204 176z" />
<glyph unicode="&#xdd;" horiz-adv-x="1470" d="M0 1458h520l221 -512l217 512h512l-499 -887v-571h-467v565zM465 1581l233 305h457l-301 -305h-389z" />
<glyph unicode="&#xde;" horiz-adv-x="1376" d="M86 0v1458h463v-194h160q338 0 478 -110.5t140 -379.5v-76q0 -246 -146 -367.5t-479 -121.5h-153v-209h-463zM549 573h129q106 0 145 31.5t39 116.5v29q0 82 -39.5 114.5t-144.5 32.5h-129v-324z" />
<glyph unicode="&#xdf;" horiz-adv-x="1306" d="M76 0v983q0 155 32 259.5t105 170.5t183.5 94.5t273.5 28.5q267 0 400.5 -103t133.5 -300v-11q0 -106 -35.5 -173.5t-107.5 -117.5q96 -37 150.5 -131t54.5 -241v-19q0 -226 -117.5 -333t-390.5 -107h-180l59 322h37q86 0 117.5 29.5t31.5 109.5v18q0 72 -36 102.5 t-123 30.5h-74l41 330h14q67 0 94 25t27 92v24q0 117 -127 117q-67 0 -95 -36t-28 -122v-1042h-440z" />
<glyph unicode="&#xe0;" horiz-adv-x="1198" d="M51 328v28q0 166 97 245t305 79q159 0 249 -45v22q0 69 -32 99t-115 30q-309 0 -412 -4l56 303q205 5 403 5q135 0 228 -21t160.5 -70.5t99.5 -134t32 -209.5v-405q0 -139 -60.5 -194.5t-199.5 -55.5h-405q-118 0 -199.5 24t-125.5 69.5t-62.5 102t-18.5 132.5zM221 1528 h467l227 -305h-399zM473 338q0 -42 22.5 -60t73.5 -18h129v80q0 50 -24 72t-80 22h-27q-50 0 -72 -17.5t-22 -56.5v-22z" />
<glyph unicode="&#xe1;" horiz-adv-x="1198" d="M51 328v28q0 166 97 245t305 79q159 0 249 -45v22q0 69 -32 99t-115 30q-309 0 -412 -4l56 303q205 5 403 5q135 0 228 -21t160.5 -70.5t99.5 -134t32 -209.5v-405q0 -139 -60.5 -194.5t-199.5 -55.5h-405q-118 0 -199.5 24t-125.5 69.5t-62.5 102t-18.5 132.5zM391 1223 l227 305h467l-294 -305h-400zM473 338q0 -42 22.5 -60t73.5 -18h129v80q0 50 -24 72t-80 22h-27q-50 0 -72 -17.5t-22 -56.5v-22z" />
<glyph unicode="&#xe2;" horiz-adv-x="1198" d="M51 328v28q0 166 97 245t305 79q159 0 249 -45v22q0 69 -32 99t-115 30q-309 0 -412 -4l56 303q205 5 403 5q135 0 228 -21t160.5 -70.5t99.5 -134t32 -209.5v-405q0 -139 -60.5 -194.5t-199.5 -55.5h-405q-118 0 -199.5 24t-125.5 69.5t-62.5 102t-18.5 132.5zM145 1223 l252 313h422l248 -313h-362l-101 129l-98 -129h-361zM473 338q0 -42 22.5 -60t73.5 -18h129v80q0 50 -24 72t-80 22h-27q-50 0 -72 -17.5t-22 -56.5v-22z" />
<glyph unicode="&#xe3;" horiz-adv-x="1198" d="M51 328v28q0 166 97 245t305 79q159 0 249 -45v22q0 69 -32 99t-115 30q-309 0 -412 -4l56 303q205 5 403 5q135 0 228 -21t160.5 -70.5t99.5 -134t32 -209.5v-405q0 -139 -60.5 -194.5t-199.5 -55.5h-405q-118 0 -199.5 24t-125.5 69.5t-62.5 102t-18.5 132.5zM197 1202 v10q0 179 57.5 256.5t177.5 77.5q93 0 199 -53l12 -6q43 -21 62.5 -28t42.5 -7q57 0 57 72v10h244v-10q0 -179 -58 -256.5t-178 -77.5q-93 0 -199 53l-12 6q-31 15 -44 21t-28.5 10t-31.5 4q-58 0 -58 -72v-10h-243zM473 338q0 -42 22.5 -60t73.5 -18h129v80q0 50 -24 72 t-80 22h-27q-50 0 -72 -17.5t-22 -56.5v-22z" />
<glyph unicode="&#xe4;" horiz-adv-x="1198" d="M51 328v28q0 166 97 245t305 79q159 0 249 -45v22q0 69 -32 99t-115 30q-309 0 -412 -4l56 303q205 5 403 5q135 0 228 -21t160.5 -70.5t99.5 -134t32 -209.5v-405q0 -139 -60.5 -194.5t-199.5 -55.5h-405q-118 0 -199.5 24t-125.5 69.5t-62.5 102t-18.5 132.5zM154 1354 q0 84 47 129t155 45q205 0 205 -174q0 -172 -205 -172q-202 0 -202 172zM473 338q0 -42 22.5 -60t73.5 -18h129v80q0 50 -24 72t-80 22h-27q-50 0 -72 -17.5t-22 -56.5v-22zM645 1354q0 174 203 174q205 0 205 -174q0 -172 -205 -172q-203 0 -203 172z" />
<glyph unicode="&#xe5;" horiz-adv-x="1198" d="M51 328v28q0 166 97 245t305 79q159 0 249 -45v22q0 69 -32 99t-115 30q-309 0 -412 -4l56 303q205 5 403 5q135 0 228 -21t160.5 -70.5t99.5 -134t32 -209.5v-405q0 -139 -60.5 -194.5t-199.5 -55.5h-405q-118 0 -199.5 24t-125.5 69.5t-62.5 102t-18.5 132.5zM324 1419 q0 126 74.5 192t209.5 66t210 -66t75 -192t-75 -192t-210 -66t-209.5 66t-74.5 192zM473 338q0 -42 22.5 -60t73.5 -18h129v80q0 50 -24 72t-80 22h-27q-50 0 -72 -17.5t-22 -56.5v-22zM520 1419q0 -48 20.5 -69t67.5 -21t67.5 21t20.5 69t-20.5 69t-67.5 21t-67.5 -21 t-20.5 -69z" />
<glyph unicode="&#xe6;" horiz-adv-x="1779" d="M51 346v14q0 168 100 244t293 76h242v14q0 47 -30 69.5t-111 22.5q-298 0 -402 -4l56 303q185 5 372 5q117 0 192 -17.5t122 -62.5q105 108 336 108q253 0 380.5 -100.5t127.5 -323.5v-37q0 -127 -45.5 -179t-172.5 -52h-403q0 -70 34.5 -98.5t123.5 -28.5q278 0 411 2 l-55 -301q-11 0 -172.5 -2t-251.5 -2q-216 0 -309 86q-85 -82 -252 -82h-180q-120 0 -200.5 22t-125 68.5t-62.5 107t-18 148.5zM473 334q0 -39 22 -56.5t72 -17.5h17q55 0 79.5 20.5t24.5 69.5v84h-119q-51 0 -73.5 -18t-22.5 -60v-22zM1108 678h229q0 82 -25.5 109.5 t-88.5 27.5t-89 -28t-26 -109z" />
<glyph unicode="&#xe7;" horiz-adv-x="1032" d="M66 487v111q0 262 130 377t435 115q169 0 352 -5l-61 -346q-142 4 -263 4q-83 0 -111 -30t-28 -115v-111q0 -86 27.5 -115.5t111.5 -29.5q219 0 328 4l-61 -346q-104 -4 -287 -4q-219 0 -344 51t-177 155.5t-52 284.5zM305 -514l33 182q72 -2 158 -2q40 0 53.5 10.5 t13.5 40.5q0 28 -13.5 39t-53.5 11q-32 0 -121 -3l31 162q78 4 172 4q148 0 208 -47.5t60 -161.5v-10q0 -129 -64 -180t-221 -51q-150 0 -256 6z" />
<glyph unicode="&#xe8;" horiz-adv-x="1169" d="M66 487v111q0 279 130 399.5t410 120.5q255 0 383.5 -99t128.5 -325v-37q0 -126 -44.5 -178.5t-172.5 -52.5h-403q0 -70 34 -98.5t123 -28.5q291 0 412 2l-55 -301q-196 -4 -412 -4q-292 0 -413 110.5t-121 380.5zM176 1528h467l227 -305h-399zM498 678h229q0 81 -26 109 t-89 28t-88.5 -27.5t-25.5 -109.5z" />
<glyph unicode="&#xe9;" horiz-adv-x="1169" d="M66 487v111q0 279 130 399.5t410 120.5q255 0 383.5 -99t128.5 -325v-37q0 -126 -44.5 -178.5t-172.5 -52.5h-403q0 -70 34 -98.5t123 -28.5q291 0 412 2l-55 -301q-196 -4 -412 -4q-292 0 -413 110.5t-121 380.5zM279 1223l227 305h467l-295 -305h-399zM498 678h229 q0 81 -26 109t-89 28t-88.5 -27.5t-25.5 -109.5z" />
<glyph unicode="&#xea;" horiz-adv-x="1169" d="M66 487v111q0 279 130 399.5t410 120.5q255 0 383.5 -99t128.5 -325v-37q0 -126 -44.5 -178.5t-172.5 -52.5h-403q0 -70 34 -98.5t123 -28.5q291 0 412 2l-55 -301q-196 -4 -412 -4q-292 0 -413 110.5t-121 380.5zM135 1223l252 313h422l248 -313h-363l-100 129l-98 -129 h-361zM498 678h229q0 81 -26 109t-89 28t-88.5 -27.5t-25.5 -109.5z" />
<glyph unicode="&#xeb;" horiz-adv-x="1169" d="M66 487v111q0 279 130 399.5t410 120.5q255 0 383.5 -99t128.5 -325v-37q0 -126 -44.5 -178.5t-172.5 -52.5h-403q0 -70 34 -98.5t123 -28.5q291 0 412 2l-55 -301q-196 -4 -412 -4q-292 0 -413 110.5t-121 380.5zM135 1354q0 174 203 174q205 0 205 -174 q0 -172 -205 -172q-203 0 -203 172zM498 678h229q0 81 -26 109t-89 28t-88.5 -27.5t-25.5 -109.5zM627 1354q0 84 47 129t155 45q205 0 205 -174q0 -172 -205 -172q-202 0 -202 172z" />
<glyph unicode="&#xec;" horiz-adv-x="602" d="M-143 1528h467l227 -305h-399zM76 0v1085h450v-1085h-450z" />
<glyph unicode="&#xed;" horiz-adv-x="602" d="M61 1223l228 305h467l-295 -305h-400zM76 0v1085h450v-1085h-450z" />
<glyph unicode="&#xee;" horiz-adv-x="602" d="M-158 1223l252 313h422l248 -313h-363l-100 129l-98 -129h-361zM76 0v1085h450v-1085h-450z" />
<glyph unicode="&#xef;" horiz-adv-x="602" d="M-145 1354q0 84 47 129t155 45q205 0 205 -174q0 -172 -205 -172q-202 0 -202 172zM76 0v1085h450v-1085h-450zM346 1354q0 174 203 174q205 0 205 -174q0 -172 -205 -172q-203 0 -203 172z" />
<glyph unicode="&#xf0;" horiz-adv-x="1271" d="M66 436v105q0 103 23 182.5t64 131t101 84.5t128.5 46.5t152.5 13.5q121 0 198 -30q-29 81 -71 137l-140 -68l-71 148l84 41q-18 15 -56 37.5t-45 27.5l291 299q143 -96 213 -166l123 62l76 -152l-90 -43q78 -121 113.5 -268t35.5 -340v-248q0 -260 -126 -364.5 t-439 -104.5t-439 104.5t-126 364.5zM520 430q0 -70 24.5 -93.5t86.5 -23.5t86 23.5t24 93.5v113q0 70 -24 93t-86 23q-63 0 -87 -23t-24 -93v-113z" />
<glyph unicode="&#xf1;" horiz-adv-x="1245" d="M76 0v645q0 139 28 229t95 145t167.5 77t256.5 22t256.5 -22t167 -77t94.5 -145t28 -229v-645h-450v645q0 65 -20.5 89t-75.5 24t-76 -24t-21 -89v-645h-450zM197 1202v10q0 179 57.5 256.5t177.5 77.5q93 0 199 -53l12 -6q43 -21 62.5 -28t42.5 -7q57 0 57 72v10h244 v-10q0 -179 -58 -256.5t-178 -77.5q-93 0 -199 53l-12 6q-31 15 -44 21t-28.5 10t-31.5 4q-58 0 -58 -72v-10h-243z" />
<glyph unicode="&#xf2;" horiz-adv-x="1261" d="M66 487v111q0 289 126 404.5t439 115.5t439 -115.5t126 -404.5v-111q0 -289 -126 -404.5t-439 -115.5t-439 115.5t-126 404.5zM211 1528h467l227 -305h-399zM520 467q0 -92 24.5 -123t86.5 -31t86 31t24 123v151q0 91 -24 122.5t-86 31.5t-86.5 -31.5t-24.5 -122.5v-151z " />
<glyph unicode="&#xf3;" horiz-adv-x="1261" d="M66 487v111q0 289 126 404.5t439 115.5t439 -115.5t126 -404.5v-111q0 -289 -126 -404.5t-439 -115.5t-439 115.5t-126 404.5zM356 1223l228 305h467l-295 -305h-400zM520 467q0 -92 24.5 -123t86.5 -31t86 31t24 123v151q0 91 -24 122.5t-86 31.5t-86.5 -31.5 t-24.5 -122.5v-151z" />
<glyph unicode="&#xf4;" horiz-adv-x="1261" d="M66 487v111q0 289 126 404.5t439 115.5t439 -115.5t126 -404.5v-111q0 -289 -126 -404.5t-439 -115.5t-439 115.5t-126 404.5zM170 1223l252 313h422l248 -313h-363l-100 129l-99 -129h-360zM520 467q0 -92 24.5 -123t86.5 -31t86 31t24 123v151q0 91 -24 122.5t-86 31.5 t-86.5 -31.5t-24.5 -122.5v-151z" />
<glyph unicode="&#xf5;" horiz-adv-x="1261" d="M66 487v111q0 289 126 404.5t439 115.5t439 -115.5t126 -404.5v-111q0 -289 -126 -404.5t-439 -115.5t-439 115.5t-126 404.5zM205 1202v10q0 179 57.5 256.5t177.5 77.5q93 0 199 -53l12 -6q43 -21 62.5 -28t42.5 -7q57 0 57 72v10h244v-10q0 -179 -58 -256.5 t-178 -77.5q-92 0 -198 53l-13 6q-31 15 -44 21t-28.5 10t-31.5 4q-57 0 -57 -72v-10h-244zM520 467q0 -92 24.5 -123t86.5 -31t86 31t24 123v151q0 91 -24 122.5t-86 31.5t-86.5 -31.5t-24.5 -122.5v-151z" />
<glyph unicode="&#xf6;" horiz-adv-x="1261" d="M66 487v111q0 289 126 404.5t439 115.5t439 -115.5t126 -404.5v-111q0 -289 -126 -404.5t-439 -115.5t-439 115.5t-126 404.5zM182 1354q0 174 203 174q205 0 205 -174q0 -172 -205 -172q-203 0 -203 172zM520 467q0 -92 24.5 -123t86.5 -31t86 31t24 123v151 q0 91 -24 122.5t-86 31.5t-86.5 -31.5t-24.5 -122.5v-151zM674 1354q0 174 203 174q204 0 204 -174q0 -172 -204 -172q-203 0 -203 172z" />
<glyph unicode="&#xf7;" d="M94 516v367h1030v-367h-1030zM410 285q0 78 48 124t152 46t152.5 -46t48.5 -124q0 -77 -49 -123.5t-152 -46.5t-151.5 46.5t-48.5 123.5zM410 1116q0 77 48.5 122.5t151.5 45.5t152 -45.5t49 -122.5q0 -79 -49 -125.5t-152 -46.5t-151.5 46.5t-48.5 125.5z" />
<glyph unicode="&#xf8;" horiz-adv-x="1261" d="M66 487v111q0 289 126 404.5t439 115.5q145 0 235 -20l74 119h223l-121 -193q81 -59 117.5 -162t36.5 -264v-111q0 -289 -126 -404.5t-439 -115.5q-143 0 -238 21l-71 -117h-224l119 190q-80 59 -115.5 161t-35.5 265zM479 479l195 312q-18 2 -43 2q-85 0 -118.5 -33.5 t-33.5 -134.5v-146zM586 295q23 -2 45 -2q85 0 118 33.5t33 134.5v145z" />
<glyph unicode="&#xf9;" horiz-adv-x="1245" d="M76 440v645h450v-645q0 -65 21 -88.5t76 -23.5t75.5 23.5t20.5 88.5v645h450v-645q0 -139 -28 -229t-94.5 -145t-167 -77t-256.5 -22t-256.5 22t-167.5 77t-95 145t-28 229zM201 1528h467l227 -305h-399z" />
<glyph unicode="&#xfa;" horiz-adv-x="1245" d="M76 440v645h450v-645q0 -65 21 -88.5t76 -23.5t75.5 23.5t20.5 88.5v645h450v-645q0 -139 -28 -229t-94.5 -145t-167 -77t-256.5 -22t-256.5 22t-167.5 77t-95 145t-28 229zM342 1223l227 305h467l-295 -305h-399z" />
<glyph unicode="&#xfb;" horiz-adv-x="1245" d="M76 440v645h450v-645q0 -65 21 -88.5t76 -23.5t75.5 23.5t20.5 88.5v645h450v-645q0 -139 -28 -229t-94.5 -145t-167 -77t-256.5 -22t-256.5 22t-167.5 77t-95 145t-28 229zM164 1223l252 313h422l247 -313h-362l-100 129l-99 -129h-360z" />
<glyph unicode="&#xfc;" horiz-adv-x="1245" d="M76 440v645h450v-645q0 -65 21 -88.5t76 -23.5t75.5 23.5t20.5 88.5v645h450v-645q0 -139 -28 -229t-94.5 -145t-167 -77t-256.5 -22t-256.5 22t-167.5 77t-95 145t-28 229zM174 1354q0 174 203 174q205 0 205 -174q0 -172 -205 -172q-203 0 -203 172zM666 1354 q0 84 47 129t155 45q205 0 205 -174q0 -172 -205 -172q-202 0 -202 172z" />
<glyph unicode="&#xfd;" horiz-adv-x="1245" d="M76 438v647h450v-557q0 -65 21 -88.5t76 -23.5t75.5 23.5t20.5 88.5v557h450v-1011q0 -156 -51.5 -249t-177 -140t-342.5 -47q-313 0 -459 4l60 327q124 -4 352 -4q95 0 131.5 25t36.5 98v16q-89 -47 -240 -47q-205 0 -304 92t-99 289zM371 1223l227 305h467l-295 -305 h-399z" />
<glyph unicode="&#xfe;" horiz-adv-x="1267" d="M76 -358v1880h450v-453q77 45 224 45q101 0 177.5 -22t141 -75.5t99 -153.5t34.5 -245v-133q0 -121 -23 -212.5t-63 -149.5t-100.5 -94t-128 -50t-152.5 -14q-131 0 -209 35v-358h-450zM526 465q0 -92 24.5 -123t86.5 -31t86.5 31t24.5 123v151q0 91 -24.5 122.5 t-86.5 31.5t-86.5 -31.5t-24.5 -122.5v-151z" />
<glyph unicode="&#xff;" horiz-adv-x="1245" d="M76 438v647h450v-557q0 -65 21 -88.5t76 -23.5t75.5 23.5t20.5 88.5v557h450v-1011q0 -156 -51.5 -249t-177 -140t-342.5 -47q-313 0 -459 4l60 327q124 -4 352 -4q95 0 131.5 25t36.5 98v16q-89 -47 -240 -47q-205 0 -304 92t-99 289zM186 1354q0 174 203 174 q205 0 205 -174q0 -172 -205 -172q-203 0 -203 172zM678 1354q0 174 203 174q204 0 204 -174q0 -172 -204 -172q-203 0 -203 172z" />
<glyph unicode="&#x152;" horiz-adv-x="2136" d="M70 635v186q0 158 31.5 271t104.5 197.5t201 126.5t314 42h1376l-67 -366h-619v-174h604l-67 -363h-537v-188h705l-68 -367h-1315q-193 0 -322 37.5t-204 119t-106 196t-31 282.5zM559 627q0 -145 45.5 -189.5t186.5 -44.5h165v672h-165q-73 0 -115 -9t-70 -36t-37.5 -72 t-9.5 -123v-198z" />
<glyph unicode="&#x153;" horiz-adv-x="1865" d="M66 492v106q0 286 123.5 403t422.5 117q255 0 367 -88q106 88 328 88q253 0 380.5 -100.5t127.5 -323.5v-37q0 -126 -45 -178.5t-173 -52.5h-403q0 -70 34.5 -98.5t123.5 -28.5q278 0 411 2l-55 -301q-11 0 -172.5 -2t-251.5 -2q-192 0 -299 70q-114 -99 -373 -99 q-297 0 -421.5 120t-124.5 405zM520 467q0 -92 24.5 -123t86.5 -31t86 31t24 123v151q0 91 -24 122.5t-86 31.5t-86.5 -31.5t-24.5 -122.5v-151zM1194 678h229q0 82 -25.5 109.5t-88.5 27.5t-89 -28t-26 -109z" />
<glyph unicode="&#x178;" horiz-adv-x="1470" d="M0 1458h520l221 -512l217 512h512l-499 -887v-571h-467v565zM279 1724q0 179 204 179q207 0 207 -179q0 -176 -207 -176q-204 0 -204 176zM778 1724q0 179 205 179q207 0 207 -179q0 -176 -207 -176q-205 0 -205 176z" />
<glyph unicode="&#x2c6;" horiz-adv-x="1024" d="M51 1223l252 313h422l248 -313h-363l-100 129l-98 -129h-361z" />
<glyph unicode="&#x2dc;" horiz-adv-x="1024" d="M86 1202v10q0 179 58 256.5t178 77.5q92 0 198 -53l12 -6q43 -21 62.5 -28t42.5 -7q57 0 57 72v10h244v-10q0 -179 -58 -256.5t-178 -77.5q-92 0 -198 53l-12 6q-43 21 -62.5 28t-42.5 7q-57 0 -57 -72v-10h-244z" />
<glyph unicode="&#x2000;" horiz-adv-x="957" />
<glyph unicode="&#x2001;" horiz-adv-x="1915" />
<glyph unicode="&#x2002;" horiz-adv-x="957" />
<glyph unicode="&#x2003;" horiz-adv-x="1915" />
<glyph unicode="&#x2004;" horiz-adv-x="638" />
<glyph unicode="&#x2005;" horiz-adv-x="478" />
<glyph unicode="&#x2006;" horiz-adv-x="319" />
<glyph unicode="&#x2007;" horiz-adv-x="319" />
<glyph unicode="&#x2008;" horiz-adv-x="239" />
<glyph unicode="&#x2009;" horiz-adv-x="383" />
<glyph unicode="&#x200a;" horiz-adv-x="106" />
<glyph unicode="&#x2010;" horiz-adv-x="878" d="M12 416l72 387h782l-71 -387h-783z" />
<glyph unicode="&#x2011;" horiz-adv-x="878" d="M12 416l72 387h782l-71 -387h-783z" />
<glyph unicode="&#x2012;" horiz-adv-x="878" d="M12 416l72 387h782l-71 -387h-783z" />
<glyph unicode="&#x2013;" horiz-adv-x="1024" d="M0 387v387h1024v-387h-1024z" />
<glyph unicode="&#x2014;" horiz-adv-x="2048" d="M0 387v387h2048v-387h-2048z" />
<glyph unicode="&#x2018;" horiz-adv-x="538" d="M20 981q0 112 130 375l83 166h285l-133 -389q68 -45 68 -152q0 -95 -51.5 -144t-165.5 -49q-216 0 -216 193z" />
<glyph unicode="&#x2019;" horiz-adv-x="538" d="M20 811l132 385q-66 51 -66 152q0 95 51.5 143.5t165.5 48.5q215 0 215 -192q0 -110 -129 -371l-84 -166h-285z" />
<glyph unicode="&#x201a;" horiz-adv-x="460" d="M-51 -338l131 385q-66 51 -66 152q0 95 51.5 143.5t165.5 48.5q215 0 215 -192q0 -110 -129 -371l-84 -166h-284z" />
<glyph unicode="&#x201c;" horiz-adv-x="1071" d="M20 981q0 112 130 375l83 166h285l-133 -389q68 -45 68 -152q0 -95 -51.5 -144t-165.5 -49q-216 0 -216 193zM553 981q0 114 129 375l84 166h285l-133 -389q67 -44 67 -152q0 -95 -51.5 -144t-165.5 -49q-215 0 -215 193z" />
<glyph unicode="&#x201d;" horiz-adv-x="1071" d="M20 811l132 385q-66 51 -66 152q0 95 51.5 143.5t165.5 48.5q215 0 215 -192q0 -110 -129 -371l-84 -166h-285zM553 811l131 385q-66 51 -66 152q0 95 52 143.5t166 48.5q215 0 215 -192q0 -110 -129 -371l-84 -166h-285z" />
<glyph unicode="&#x201e;" horiz-adv-x="993" d="M-49 -336l131 385q-66 51 -66 152q0 95 51.5 143.5t165.5 48.5q216 0 216 -192q0 -108 -130 -371l-83 -166h-285zM481 -336l131 385q-65 50 -65 152q0 95 51.5 143.5t165.5 48.5q215 0 215 -192q0 -110 -129 -371l-84 -166h-285z" />
<glyph unicode="&#x2022;" horiz-adv-x="901" d="M82 573q0 189 87 279t282 90t281.5 -90t86.5 -279t-86.5 -278.5t-281.5 -89.5t-282 89.5t-87 278.5z" />
<glyph unicode="&#x2026;" horiz-adv-x="2048" d="M109 184q0 106 55 158.5t176 52.5t176 -52.5t55 -158.5t-55 -158.5t-176 -52.5t-176 52.5t-55 158.5zM797 184q0 106 55 158.5t176 52.5t176.5 -52.5t55.5 -158.5t-55.5 -158.5t-176.5 -52.5t-176 52.5t-55 158.5zM1477 184q0 106 55 158.5t176 52.5t176 -52.5t55 -158.5 t-55 -158.5t-176 -52.5t-176 52.5t-55 158.5z" />
<glyph unicode="&#x202f;" horiz-adv-x="383" />
<glyph unicode="&#x2039;" horiz-adv-x="737" d="M51 317v443l615 303v-393l-316 -131l316 -131v-394z" />
<glyph unicode="&#x203a;" horiz-adv-x="737" d="M72 14v394l313 131l-313 131v393l614 -303v-443z" />
<glyph unicode="&#x205f;" horiz-adv-x="478" />
<glyph unicode="&#x20ac;" d="M45 446l35 195h110v107h-145l35 194h115q21 233 168 344t458 111q198 0 365 -4l-62 -344q-150 4 -303 4q-102 0 -143 -22t-53 -89h422l-35 -194h-391v-107h426l-35 -195h-387q11 -68 51 -87t145 -19q212 0 359 4l-64 -344q-144 -4 -295 -4q-312 0 -460 101t-168 349h-148 z" />
<glyph unicode="&#x2122;" horiz-adv-x="1957" d="M-2 1180l53 278h789l-54 -278h-202v-484h-330v484h-256zM918 696v762h385l98 -260l102 260h373v-762h-307v363l-82 -211h-180l-82 211v-363h-307z" />
<glyph unicode="&#x25fc;" horiz-adv-x="1085" d="M0 0v1085h1085v-1085h-1085z" />
</font>
</defs>
</svg>
